<?xml version="1.0" encoding="utf-8"?>
<!-- Generator: Adobe Illustrator 21.0.0, SVG Export Plug-In . SVG Version: 6.00 Build 0)  -->
<svg version="1.1" id="Layer_1" xmlns="http://www.w3.org/2000/svg" xmlns:xlink="http://www.w3.org/1999/xlink" x="0px" y="0px"
	 viewBox="0 0 800 62.3" style="enable-background:new 0 0 800 62.3;" xml:space="preserve">
<style type="text/css">
	.st0{fill:none;}
	.st1{fill:#070404;}
	.st2{fill:#EC7A23;}
</style>
<g>
	<path class="st0" d="M600.7,16.6c-3.6-3.1-8-4.7-13.4-4.7c-5.3,0-9.7,1.6-13.3,4.7c-4.2,3.7-6.3,8.6-6.3,14.7
		c0,6,2.1,10.9,6.3,14.7c3.5,3.2,8,4.7,13.4,4.7c5.4,0,9.8-1.6,13.3-4.7c2.1-1.9,3.7-4.2,4.8-6.9c1-2.4,1.5-4.9,1.5-7.5
		C607,25.2,604.9,20.3,600.7,16.6z"/>
	<path class="st1" d="M258.7,4.8c1,0.3,1.7,0.6,2,1.1c0.4,0.4,0.6,1,0.6,1.9v33.1l-30.7-32c-0.8-0.8-1.1-1.5-1.1-2.2
		c0-1,0.6-1.6,1.8-1.9V3.4h-18.9v1.3c1,0.3,1.7,0.6,2,1.1c0.4,0.4,0.6,1,0.6,1.9v47.2c0,0.9-0.2,1.5-0.6,1.9c-0.4,0.4-1.1,0.8-2,1.1
		v1.3h16.4v-1.3c-1-0.3-1.6-0.6-2-1.1c-0.4-0.4-0.6-1.1-0.6-1.9V21l31.2,32.3c1.3,1.4,2,2.3,2,2.9c0,0.9-0.6,1.5-1.7,1.8v1.3h17.6
		v-1.3c-1-0.3-1.6-0.6-2-1.1c-0.4-0.4-0.6-1.1-0.6-1.9V7.7c0-0.8,0.2-1.4,0.6-1.9c0.4-0.4,1-0.8,2-1.1V3.4h-16.4V4.8z"/>
	<path class="st1" d="M148.6,49.4c-0.4,0.4-1.1,0.6-1.9,0.6h-35.8V34.7h22.6c0.8,0,1.4,0.2,1.9,0.6c0.4,0.4,0.8,1.1,1.1,2h1.3V23.3
		h-1.3c-0.3,1-0.6,1.7-1.1,2c-0.4,0.4-1.1,0.6-1.9,0.6h-22.6V12.6h34.9c0.8,0,1.4,0.2,1.9,0.6c0.4,0.4,0.8,1,1.1,2h1.3V0.8h-1.3
		c-0.3,1-0.6,1.7-1.1,2.1c-0.4,0.4-1.1,0.6-1.9,0.6H96.1v1.3c1,0.3,1.7,0.6,2,1.1c0.4,0.4,0.6,1.1,0.6,1.9v47.2
		c0,0.9-0.2,1.5-0.6,1.9c-0.4,0.4-1.1,0.8-2,1.1v1.3h50.6c0.8,0,1.4,0.2,1.9,0.6c0.4,0.4,0.8,1.1,1.1,2h1.3V47.4h-1.3
		C149.4,48.4,149.1,49,148.6,49.4z"/>
	<path class="st1" d="M207.2,2.9c-0.4,0.4-1.1,0.6-1.9,0.6h-46.8c-0.8,0-1.4-0.2-1.8-0.6c-0.4-0.4-0.8-1.1-1.1-2.1h-1.3v14.4h1.3
		c0.3-1,0.6-1.6,1.1-2c0.4-0.4,1.1-0.6,1.9-0.6h17.3v42.3c0,0.9-0.2,1.5-0.6,1.9c-0.4,0.4-1.1,0.8-2,1.1v1.3h17.4v-1.3
		c-1-0.3-1.7-0.6-2-1.1c-0.4-0.4-0.6-1.1-0.6-1.9V12.6h17.3c0.9,0,1.5,0.2,1.9,0.6c0.4,0.4,0.8,1,1.1,2h1.3V0.8h-1.3
		C208,1.8,207.6,2.5,207.2,2.9z"/>
	<path class="st1" d="M70.6,4.8c1,0.3,1.7,0.6,2,1.1c0.4,0.4,0.6,1,0.6,1.9v47.2c0,0.9-0.2,1.5-0.6,1.9c-0.4,0.4-1.1,0.8-2,1.1v1.3
		H88v-1.3c-0.9-0.2-1.6-0.6-2-1c-0.4-0.5-0.6-1.1-0.6-2V7.7c0-0.8,0.2-1.4,0.6-1.9c0.4-0.4,1-0.8,2-1V3.4H70.6V4.8z"/>
	<path class="st1" d="M340.4,52.8l-21.2-43c-0.5-1-0.8-1.9-0.8-2.7c0-1.1,0.8-1.9,2.4-2.4V3.4h-19.7v1.3c1.6,0.5,2.4,1.4,2.4,2.7
		c0,0.8-0.3,1.9-1,3.3L282,53.5c-0.7,1.6-1.4,2.6-2,3.2c-0.6,0.5-1.4,0.9-2.5,1.1v1.3H296v-1.3c-1.8-0.5-2.7-1.3-2.7-2.5
		c0-0.6,0.3-1.5,0.8-2.6l3.8-7.9h25.3l3.8,7.9c0.5,1.1,0.8,2,0.8,2.5c0,1.4-0.9,2.2-2.7,2.5v1.3h20.5v-1.3c-1.1-0.2-2.1-0.7-2.7-1.3
		C342.1,55.9,341.3,54.6,340.4,52.8z M301.4,37.3l9.1-19.9l9,19.9H301.4z"/>
	<path class="st1" d="M46.8,4.8c1.8,0.3,2.7,1.1,2.7,2.3c0,0.8-0.3,1.8-0.9,3.2L33.7,43L18.9,10.3C18.3,8.9,18,7.8,18,7
		c0-1.2,0.9-1.9,2.7-2.3V3.4H0.9v1.3c1.2,0.2,2,0.5,2.5,1c0.5,0.5,1.3,2,2.4,4.5L25.1,52c0.8,1.8,1.2,2.9,1.2,3.4
		c0,1.4-0.9,2.2-2.6,2.5v1.3H43v-1.3c-1.7-0.2-2.6-1.1-2.6-2.5c0-0.5,0.4-1.7,1.2-3.5l19.3-41.7c1.1-2.5,2-4,2.4-4.5
		c0.5-0.5,1.3-0.9,2.5-1V3.4H46.8V4.8z"/>
	<path class="st1" d="M732.1,21.3l6.7-13.1l-1.1-0.6c-0.8,0.6-1.4,0.9-2,0.9c-0.4,0-1.3-0.3-2.9-0.9c-4.6-1.9-8.4-3.3-11.5-4
		c-3.1-0.7-6.4-1.1-10-1.1c-8.5,0-14.9,2-19.1,6.1c-3.3,3.1-4.9,7-4.9,11.7c0,2.9,0.6,5.4,1.9,7.6c1.4,2.4,3.3,4.3,5.8,5.5
		c1.7,0.9,3.5,1.5,5.2,1.9c1.8,0.4,4.7,0.8,9,1.2l6.3,0.7c4.2,0.5,7,1,8.4,1.5c2,0.8,3,2.1,3,4c0,1.2-0.4,2.4-1.3,3.5
		c-0.8,1.1-2,2-3.4,2.7c-2.6,1.2-5.7,1.8-9.3,1.8c-3.3,0-6.8-0.6-10.5-1.7c-3.7-1.1-6.4-2.5-8.2-4.1c-1.2-1-1.8-2.2-1.8-3.4
		c0-0.1,0-0.3,0-0.5l-1.2-0.6l-6,13.7l1.2,0.6c0.8-0.6,1.3-0.9,1.7-0.9c0.3,0,1.2,0.4,2.7,1.1c7.2,3.5,14.5,5.3,21.8,5.3
		c4.1,0,7.9-0.5,11.6-1.5c4.8-1.3,8.4-3.4,10.6-6.2c2.5-3,3.8-6.5,3.8-10.5c0-2.5-0.5-4.8-1.6-7c-1.1-2.2-2.6-3.9-4.4-5.3
		c-1.8-1.3-3.9-2.3-6.3-3c-2.4-0.7-5.4-1.3-9.2-1.7l-6.4-0.6c-4.3-0.4-7.1-0.8-8.4-1.2c-2.5-0.8-3.8-2.2-3.8-4.3
		c0-1.3,0.5-2.5,1.5-3.5c1-1.1,2.3-1.9,3.9-2.4c2.2-0.7,4.8-1.1,7.6-1.1c6.5,0,12.2,1.7,17.1,5.1c1.6,1.1,2.4,2.1,2.4,3
		c0,0.2,0,0.4,0,0.7L732.1,21.3z"/>
	<path class="st1" d="M665.4,4.8c1,0.3,1.7,0.6,2,1.1c0.4,0.4,0.6,1.1,0.6,1.9v27.8c0,3.2-0.2,5.6-0.5,7.1c-0.4,1.5-1,2.8-2,3.8
		c-2.6,2.8-7.1,4.2-13.4,4.2c-6.3,0-10.8-1.4-13.4-4.2c-1-1-1.6-2.3-2-3.8c-0.4-1.5-0.5-3.9-0.5-7.1V7.7c0-0.8,0.2-1.5,0.6-1.9
		c0.4-0.4,1.1-0.8,2.1-1V3.4h-17.4v1.3c1,0.3,1.7,0.6,2.1,1.1c0.4,0.4,0.6,1.1,0.6,1.9V39c0,3.9,0.5,7.3,1.5,10.1
		c1.1,2.9,3,5.1,5.7,6.8c4.7,2.9,11.5,4.3,20.4,4.3c12.3,0,20.4-2.6,24.3-7.9c2.2-2.9,3.3-7.4,3.3-13.3V7.7c0-0.8,0.2-1.5,0.6-1.9
		c0.4-0.4,1.1-0.8,2-1.1V3.4h-16.4V4.8z"/>
	<path class="st1" d="M398.1,4.8c1.4,0.1,2,0.8,2,1.9c0,0.6-0.3,1.5-1,2.7l-15.4,27.5l-15.2-28c-0.4-0.7-0.6-1.3-0.6-1.9
		c0-1.2,0.6-1.9,1.9-2.2V3.4h-21.5v1.3c1,0.3,1.7,0.6,2,1.1c0.4,0.4,0.6,1,0.6,1.9v47.2c0,0.9-0.2,1.5-0.6,1.9
		c-0.4,0.4-1.1,0.8-2,1.1v1.3h16.4v-1.3c-1-0.3-1.6-0.6-2-1.1c-0.4-0.4-0.6-1.1-0.6-1.9V20.7l20.5,37.7l21.7-37.7v34.2
		c0,0.9-0.2,1.5-0.6,2c-0.4,0.4-1.1,0.8-2,1v1.3h17.4v-1.3c-1-0.3-1.7-0.6-2-1.1c-0.4-0.4-0.6-1.1-0.6-1.9V7.7
		c0-0.8,0.2-1.4,0.6-1.9c0.4-0.4,1.1-0.8,2-1.1V3.4h-21.1V4.8z"/>
	<path class="st1" d="M797.9,47.4c-0.3,1-0.6,1.7-1.1,2.1c-0.4,0.4-1.1,0.6-1.9,0.6h-35.9V34.7h22.6c0.8,0,1.5,0.2,1.9,0.6
		c0.4,0.4,0.8,1.1,1.1,2h1.3V23.3h-1.3c-0.3,1-0.6,1.7-1.1,2c-0.4,0.4-1.1,0.6-1.9,0.6h-22.6V12.6H794c0.8,0,1.4,0.2,1.9,0.6
		c0.4,0.4,0.8,1,1.1,2h1.3V0.8h-1.3c-0.3,1-0.6,1.7-1.1,2.1c-0.4,0.4-1.1,0.6-1.9,0.6h-49.6v1.3c1,0.3,1.7,0.6,2,1.1
		c0.4,0.4,0.6,1.1,0.6,1.9v47.2c0,0.9-0.2,1.5-0.6,1.9c-0.4,0.4-1.1,0.8-2,1.1v1.3H795c0.8,0,1.4,0.2,1.9,0.6c0.4,0.4,0.8,1.1,1.1,2
		h1.3V47.4H797.9z"/>
	<path class="st1" d="M606.6,10.3c-5.7-5.3-13.4-7.9-23.1-7.9c-13,0.2-22.2,4.7-27.6,13.5c-2.9,4.6-4.3,9.7-4.3,15.3
		c0,3.8,0.7,7.5,2.1,10.9c1.6,3.9,3.9,7.3,7,10.1c5.7,5.3,13.4,7.9,23,7.9c12.9,0,22.1-4.5,27.7-13.6c2.9-4.6,4.3-9.6,4.3-14.9
		C615.6,22.9,612.6,15.8,606.6,10.3z M601.7,39.1c-1.1,2.7-2.7,5-4.8,6.9c-3.5,3.2-8,4.7-13.3,4.7c-5.4,0-9.8-1.6-13.4-4.7
		c-4.2-3.7-6.3-8.6-6.3-14.7c0-6,2.1-10.9,6.3-14.7c3.5-3.2,8-4.7,13.3-4.7c5.4,0.1,9.8,1.6,13.4,4.7c4.2,3.6,6.3,8.6,6.3,14.9
		C603.2,34.1,602.7,36.6,601.7,39.1z"/>
	<path class="st1" d="M529.2,4.8c1,0.2,1.7,0.6,2,1c0.4,0.5,0.6,1.1,0.6,1.9v18h-32.1v-18c0-0.8,0.2-1.4,0.6-1.9
		c0.4-0.4,1.1-0.8,2-1V3.4h-17.4v1.3c1,0.3,1.7,0.6,2.1,1.1c0.4,0.4,0.6,1,0.6,1.9v47.3c0,0.8-0.2,1.4-0.6,1.9
		c-0.4,0.4-1.1,0.8-2.1,1.1v1.3h17.4v-1.3c-0.9-0.2-1.6-0.6-2-1c-0.4-0.5-0.6-1.1-0.6-1.9V34.9h32.1v20.1c0,0.8-0.2,1.4-0.6,1.9
		c-0.4,0.4-1.1,0.8-2,1v1.3h17.4v-1.3c-1-0.3-1.7-0.6-2-1.1c-0.4-0.4-0.6-1.1-0.6-1.9V7.7c0-0.8,0.2-1.4,0.6-1.9
		c0.4-0.4,1.1-0.8,2-1.1V3.4h-17.4V4.8z"/>
	<polygon class="st2" points="451.7,7.8 446.3,24.4 429.3,24.4 443,34.7 437.7,51 451.7,40.9 465.6,51 460.4,34.7 474,24.4 
		457,24.4 	"/>
</g>
</svg>
