<?xml version="1.0" encoding="utf-8"?>
<!-- Generator: Adobe Illustrator 21.0.0, SVG Export Plug-In . SVG Version: 6.00 Build 0)  -->
<svg version="1.1" id="Layer_1" xmlns="http://www.w3.org/2000/svg" xmlns:xlink="http://www.w3.org/1999/xlink" x="0px" y="0px"
	 viewBox="0 0 800 52" style="enable-background:new 0 0 800 52;" xml:space="preserve">
<style type="text/css">
	.st0{fill:none;stroke:#010101;stroke-miterlimit:10;}
	.st1{fill:#231815;}
	.st2{fill:#070404;}
	.st3{fill:#EC7A23;}
</style>
<g>
	<rect x="627" y="1.3" class="st0" width="172" height="49.4"/>
	<g>
		<path class="st1" d="M647.5,27.1c0-2.7,0.3-4.9,1.1-6.7c0.6-1.3,1.4-2.5,2.4-3.5c1-1.1,2.1-1.9,3.3-2.4c1.6-0.6,3.5-1,5.6-1
			c3.8,0,6.8,1.1,9.2,3.5c2.2,2.4,3.5,5.7,3.5,9.9c0,4.1-1.1,7.5-3.5,9.9c-2.2,2.4-5.4,3.5-9.2,3.5c-3.8,0-7-1.1-9.2-3.5
			C648.6,34.6,647.5,31.3,647.5,27.1z M652.9,27c0,3,0.6,5.3,2.1,6.7c1.4,1.6,3,2.2,5.3,2.2c2.1,0,3.8-0.8,5.1-2.2
			c1.3-1.4,2.1-3.8,2.1-6.8c0-3-0.6-5.3-1.9-6.7c-1.3-1.4-3-2.2-5.3-2.2s-4,0.8-5.3,2.2C653.6,21.7,652.9,23.9,652.9,27z"/>
		<path class="st1" d="M676.8,40v-26h17.8v4.5h-12.6v6.2h10.8v4.5h-10.8v11h-5.3V40z"/>
		<path class="st1" d="M699.1,40v-26H717v4.5h-12.6v6.2h10.8v4.5h-10.8v11h-5.3V40z"/>
		<path class="st1" d="M721.1,40v-26h5.3v26H721.1z"/>
		<path class="st1" d="M748,30.5l5.1,1.6c-0.8,2.9-2.1,4.9-3.8,6.4c-1.8,1.4-4.1,2.1-6.8,2.1c-3.5,0-6.4-1.1-8.6-3.5
			c-2.2-2.4-3.3-5.6-3.3-9.7c0-4.3,1.1-7.6,3.3-10c2.2-2.4,5.3-3.7,8.8-3.7c3.2,0,5.7,1,7.8,2.9c1.1,1.1,2.1,2.7,2.7,4.8l-5.3,1.3
			c-0.3-1.3-1-2.4-1.9-3.2c-1-0.8-2.2-1.1-3.5-1.1c-1.9,0-3.5,0.6-4.6,2.1c-1.3,1.4-1.8,3.7-1.8,6.7c0,3.3,0.6,5.6,1.8,7
			c1.1,1.4,2.7,2.1,4.6,2.1c1.4,0,2.5-0.5,3.7-1.3C746.9,33.8,747.5,32.4,748,30.5z"/>
		<path class="st1" d="M757.6,40v-26h19.3v4.5h-14v5.7h13.1v4.5h-13.1v7h14.5v4.5h-19.8V40z"/>
	</g>
	<g>
		<path class="st2" d="M193.5,5.9c0.8,0.2,1.3,0.5,1.6,0.8s0.5,0.8,0.5,1.4v24.7L172.7,9c-0.6-0.6-0.8-1.1-0.8-1.6
			c0-0.6,0.5-1.1,1.3-1.4V5H159v1c0.8,0.2,1.3,0.5,1.6,0.8c0.3,0.3,0.5,0.8,0.5,1.4v35.4c0,0.6-0.2,1.1-0.5,1.4
			c-0.3,0.3-0.8,0.6-1.6,0.8v1h12.3v-1c-0.8-0.2-1.3-0.5-1.6-0.8c-0.3-0.3-0.5-0.8-0.5-1.4V18l23.4,24.2c1,1,1.4,1.8,1.4,2.1
			c0,0.6-0.5,1.1-1.3,1.3v1h13.1v-1c-0.8-0.2-1.3-0.5-1.6-0.8c-0.3-0.3-0.5-0.8-0.5-1.4V8c0-0.6,0.2-1.1,0.5-1.4
			c0.3-0.3,0.8-0.6,1.6-0.8v-1h-12.3V5.9z"/>
		<path class="st2" d="M111.2,39.4c-0.3,0.3-0.8,0.5-1.4,0.5H83V28.4h16.9c0.6,0,1.1,0.2,1.4,0.5c0.3,0.3,0.6,0.8,0.8,1.4h1V19.8h-1
			c-0.2,0.8-0.5,1.3-0.8,1.6c-0.3,0.3-0.8,0.5-1.4,0.5H83V12h26.1c0.6,0,1.1,0.2,1.4,0.5s0.6,0.8,0.8,1.4h1V3.1h-1
			c-0.2,0.8-0.5,1.3-0.8,1.6c-0.3,0.3-0.8,0.5-1.4,0.5H71.8v1c0.8,0.2,1.3,0.5,1.6,0.8s0.5,0.8,0.5,1.4v35.4c0,0.6-0.2,1.1-0.5,1.4
			c-0.3,0.3-0.8,0.6-1.6,0.8v1h37.9c0.6,0,1.1,0.2,1.4,0.5c0.3,0.3,0.6,0.8,0.8,1.6h1V38.1h-1C111.8,38.6,111.5,39.1,111.2,39.4z"/>
		<path class="st2" d="M155,4.5c-0.3,0.3-0.8,0.5-1.4,0.5h-35c-0.6,0-1.1-0.2-1.4-0.5c-0.3-0.3-0.6-0.8-0.8-1.6h-1v10.8h1
			c0.2-0.8,0.5-1.3,0.8-1.4c0.3-0.3,0.8-0.5,1.4-0.5h12.9v31.7c0,0.6-0.2,1.1-0.5,1.4c-0.3,0.3-0.8,0.6-1.6,0.8v1h13.1v-1
			c-0.8-0.2-1.3-0.5-1.6-0.8c-0.3-0.3-0.5-0.8-0.5-1.4V11.8h12.9c0.6,0,1.1,0.2,1.4,0.5c0.3,0.3,0.6,0.8,0.8,1.4h1V2.9h-1
			C155.6,3.7,155.3,4.2,155,4.5z"/>
		<path class="st2" d="M52.9,5.9c0.8,0.2,1.3,0.5,1.6,0.8c0.3,0.3,0.5,0.8,0.5,1.4v35.4c0,0.6-0.2,1.1-0.5,1.4
			c-0.3,0.3-0.8,0.6-1.6,0.8v1h13.1v-1c-0.6-0.2-1.3-0.5-1.4-0.8c-0.3-0.3-0.5-0.8-0.5-1.4V8.2c0-0.6,0.2-1.1,0.5-1.4
			s0.8-0.6,1.6-0.8V5H53v1H52.9z"/>
		<path class="st2" d="M254.7,41.9L238.8,9.8c-0.3-0.8-0.6-1.4-0.6-2.1c0-0.8,0.6-1.4,1.8-1.8V5h-14.8v1c1.1,0.5,1.8,1.1,1.8,2.1
			c0,0.6-0.3,1.4-0.8,2.4l-15.3,32c-0.5,1.1-1.1,1.9-1.4,2.4c-0.5,0.5-1.1,0.6-1.9,0.8v1h13.9v-1c-1.4-0.3-2.1-1-2.1-1.9
			c0-0.5,0.2-1.1,0.6-1.9l2.9-5.9h19l2.9,5.9c0.5,0.8,0.6,1.4,0.6,1.9c0,1.1-0.6,1.8-2.1,1.9v1h15.3v-1c-0.8-0.2-1.6-0.5-2.1-1
			C256,44.2,255.3,43.2,254.7,41.9z M225.5,30.3l6.8-14.8l6.7,14.8H225.5z"/>
		<path class="st2" d="M35,5.9c1.3,0.3,2.1,0.8,2.1,1.8c0,0.6-0.2,1.4-0.6,2.4l-11,24.5l-11-24.5C14,9,13.8,8.2,13.8,7.7
			c0-1,0.6-1.4,2.1-1.8V5H1.1v1c1,0.2,1.6,0.3,1.9,0.8C3.3,7,4,8.2,4.8,10.1l14.5,31.2c0.6,1.3,1,2.2,1,2.5c0,1.1-0.6,1.8-1.9,1.9v1
			h14.3v-1c-1.3-0.2-1.9-0.8-1.9-1.9c0-0.5,0.3-1.3,1-2.5l14.5-31.2c0.8-1.9,1.4-3,1.8-3.3c0.3-0.3,1-0.6,1.9-0.8V5H35.5v1H35z"/>
		<path class="st2" d="M547.8,18.2l4.9-9.9l-0.8-0.5c-0.6,0.5-1.1,0.6-1.4,0.6c-0.3,0-1-0.2-2.2-0.6c-3.5-1.4-6.4-2.4-8.6-3
			c-2.2-0.5-4.8-0.8-7.5-0.8c-6.4,0-11.2,1.6-14.3,4.6c-2.4,2.2-3.7,5.3-3.7,8.8c0,2.1,0.5,4,1.4,5.7c1.1,1.9,2.5,3.2,4.3,4.1
			c1.3,0.6,2.5,1.1,4,1.4c1.3,0.3,3.5,0.6,6.7,1l4.8,0.5c3.2,0.3,5.3,0.8,6.4,1.1c1.4,0.6,2.2,1.6,2.2,3c0,1-0.3,1.8-1,2.7
			c-0.6,0.8-1.4,1.6-2.5,2.1c-1.9,1-4.3,1.4-7,1.4c-2.5,0-5.1-0.5-7.8-1.3c-2.7-0.8-4.8-1.9-6.2-3c-0.8-0.8-1.3-1.6-1.3-2.5
			c0-0.2,0-0.2,0-0.5l-1-0.5l-4.5,10.2l1,0.5c0.6-0.5,1-0.6,1.3-0.6c0.2,0,1,0.3,2.1,0.8c5.4,2.7,10.8,4,16.4,4c3,0,5.9-0.3,8.6-1.1
			c3.7-1,6.2-2.5,8-4.6c1.9-2.2,2.9-4.9,2.9-7.8c0-1.9-0.5-3.7-1.3-5.3c-0.8-1.6-1.9-2.9-3.3-4c-1.4-1-2.9-1.8-4.6-2.2
			c-1.8-0.5-4.1-1-6.8-1.3l-4.8-0.5c-3.2-0.3-5.3-0.6-6.4-1c-1.9-0.6-2.9-1.6-2.9-3.2c0-1,0.3-1.9,1.1-2.7c0.8-0.8,1.8-1.4,2.9-1.9
			c1.6-0.5,3.5-0.8,5.7-0.8c4.9,0,9.1,1.3,12.7,3.8c1.1,0.8,1.8,1.6,1.8,2.2c0,0.2,0,0.3,0,0.5L547.8,18.2z"/>
		<path class="st2" d="M497.8,5.9c0.8,0.2,1.3,0.5,1.6,0.8c0.3,0.3,0.5,0.8,0.5,1.4V29c0,2.4-0.2,4.1-0.3,5.3
			c-0.3,1.1-0.8,2.1-1.4,2.9c-1.9,2.1-5.3,3.2-10,3.2s-8.1-1.1-10-3.2c-0.8-0.8-1.3-1.8-1.4-2.9c-0.3-1.1-0.3-2.9-0.3-5.3V8.2
			c0-0.6,0.2-1.1,0.5-1.4c0.3-0.3,0.8-0.6,1.6-0.8V5h-13.1v1c0.8,0.2,1.3,0.5,1.6,0.8s0.5,0.8,0.5,1.4v23.4c0,2.9,0.3,5.4,1.1,7.6
			c0.8,2.1,2.2,3.8,4.3,5.1c3.5,2.1,8.6,3.2,15.3,3.2c9.2,0,15.3-1.9,18.2-5.9c1.6-2.2,2.4-5.6,2.4-9.9V8.3c0-0.6,0.2-1.1,0.5-1.4
			c0.3-0.3,0.8-0.6,1.6-0.8v-1h-12.3v0.8H497.8z"/>
		<path class="st2" d="M297.9,5.9c1,0.2,1.6,0.6,1.6,1.4c0,0.5-0.3,1.1-0.8,2.1L287.2,30L275.9,9c-0.3-0.5-0.5-1-0.5-1.4
			c0-0.8,0.5-1.4,1.4-1.8v-1h-16.1v1c0.8,0.2,1.3,0.5,1.6,0.8c0.3,0.3,0.5,0.8,0.5,1.4v35.4c0,0.6-0.2,1.1-0.5,1.4
			c-0.3,0.3-0.8,0.6-1.6,0.8v1H273v-1c-0.8-0.2-1.3-0.5-1.6-0.8s-0.5-0.8-0.5-1.4V17.7l15.3,28.2l16.2-28.2v25.6
			c0,0.6-0.2,1.1-0.5,1.4c-0.3,0.3-0.8,0.6-1.4,0.8v1h13.1v-1c-0.8-0.2-1.3-0.5-1.6-0.8s-0.5-0.8-0.5-1.4V8c0-0.6,0.2-1.1,0.5-1.4
			c0.3-0.3,0.8-0.6,1.6-0.8v-1h-15.8L297.9,5.9L297.9,5.9z"/>
		<path class="st2" d="M597,37.8c-0.2,0.8-0.5,1.3-0.8,1.6c-0.3,0.3-0.8,0.5-1.4,0.5H568V28.4h16.9c0.6,0,1.1,0.2,1.4,0.5
			c0.3,0.3,0.6,0.8,0.8,1.4h1V19.8h-1c-0.2,0.8-0.5,1.3-0.8,1.6c-0.3,0.3-0.8,0.5-1.4,0.5H568V12h26.1c0.6,0,1.1,0.2,1.4,0.5
			s0.6,0.8,0.8,1.4h1V3.1h-1c-0.2,0.8-0.5,1.3-0.8,1.6c-0.3,0.3-0.8,0.5-1.4,0.5H557v1c0.8,0.2,1.3,0.5,1.6,0.8s0.5,0.8,0.5,1.4
			v35.4c0,0.6-0.2,1.1-0.5,1.4c-0.3,0.3-0.8,0.6-1.6,0.8v1h37.9c0.6,0,1.1,0.2,1.4,0.5c0.3,0.3,0.6,0.8,0.8,1.6h1V38.1H597V37.8z"/>
		<path class="st2" d="M453.8,10.1c-4.3-4-10-5.9-17.4-5.9c-9.7,0.2-16.6,3.5-20.7,10c-2.1,3.5-3.2,7.3-3.2,11.5
			c0,2.9,0.5,5.6,1.6,8.1c1.1,2.9,2.9,5.4,5.3,7.5c4.3,4,10,5.9,17.2,5.9c9.6,0,16.6-3.3,20.7-10.2c2.2-3.5,3.2-7.2,3.2-11.2
			C460.7,19.5,458.3,14.2,453.8,10.1z M450.1,31.6c-0.8,2.1-2.1,3.8-3.7,5.1c-2.5,2.4-5.9,3.5-10,3.5c-4,0-7.3-1.1-10-3.5
			c-3.2-2.9-4.8-6.4-4.8-11c0-4.5,1.6-8.1,4.8-11c2.7-2.4,5.9-3.5,9.9-3.5c4,0,7.3,1.3,10,3.5c3.2,2.7,4.8,6.4,4.8,11.2
			C451.3,27.9,450.9,29.8,450.1,31.6z"/>
		<path class="st2" d="M396,5.9c0.8,0.2,1.3,0.5,1.6,0.8c0.3,0.3,0.5,0.8,0.5,1.4v13.4H374V8.2c0-0.6,0.2-1.1,0.5-1.4
			c0.3-0.3,0.8-0.6,1.6-0.8V5H363v1c0.8,0.2,1.3,0.5,1.6,0.8s0.5,0.8,0.5,1.4v35.4c0,0.6-0.2,1.1-0.5,1.4c-0.3,0.3-0.8,0.6-1.6,0.8
			v1h13.1v-1c-0.6-0.2-1.3-0.5-1.4-0.8c-0.3-0.3-0.5-0.8-0.5-1.4v-15h24.1v15c0,0.6-0.2,1.1-0.5,1.4c-0.3,0.3-0.8,0.6-1.4,0.8v1
			h13.1v-1c-0.8-0.2-1.3-0.5-1.6-0.8s-0.5-0.8-0.5-1.4V8.2c0-0.6,0.2-1.1,0.5-1.4c0.3-0.3,0.8-0.6,1.6-0.8V5h-13.1v1H396z"/>
		<polygon class="st3" points="337.8,8 334,20.6 321.4,20.6 331.5,28.4 327.7,40.8 337.8,33.2 348.2,40.8 344.4,28.4 354.3,20.6 
			341.8,20.6 		"/>
	</g>
</g>
</svg>
