<?xml version="1.0" encoding="utf-8"?>
<!-- Generator: Adobe Illustrator 16.0.0, SVG Export Plug-In . SVG Version: 6.00 Build 0)  -->
<!DOCTYPE svg PUBLIC "-//W3C//DTD SVG 1.1//EN" "http://www.w3.org/Graphics/SVG/1.1/DTD/svg11.dtd">
<svg version="1.1" id="Layer_1" xmlns="http://www.w3.org/2000/svg" xmlns:xlink="http://www.w3.org/1999/xlink" x="0px" y="0px"
	 width="28.4px" height="29.1px" viewBox="0 0 28.4 29.1" enable-background="new 0 0 28.4 29.1" xml:space="preserve">
<g>
	<g>
		<defs>
			<rect id="SVGID_1_" width="28.4" height="29.1"/>
		</defs>
		<clipPath id="SVGID_2_">
			<use xlink:href="#SVGID_1_"  overflow="visible"/>
		</clipPath>
		<path clip-path="url(#SVGID_2_)" d="M9.8,7.7c-1,1-1.6,2.4-1.6,3.9v6.4l-2.4,2.4c-0.2,0.2-0.2,0.5,0,0.7c0.1,0.1,0.2,0.1,0.3,0.1
			c0.1,0,0.2,0,0.3-0.1l1.9-1.9c0.4,1.1,1.5,2,2.8,2c1.6,0,2.9-1.3,2.9-2.9v-6.6c0-0.3-0.2-0.5-0.5-0.5s-0.5,0.2-0.5,0.5v6.6
			c0,1.1-0.9,2-2,2c-1.1,0-2-0.9-2-2v-6.6c0-2.5,2-4.5,4.5-4.5c2.5,0,4.5,2,4.5,4.5c0,0.3,0.2,0.5,0.5,0.5h3.2c0,0.4,0,1.1,0,1.9
			c0,1.1-0.9,1.9-1.9,1.9h-1.2c-0.3,0-0.5,0.2-0.5,0.5v10.4c0,0.3,0.2,0.5,0.5,0.5c0.3,0,0.5-0.2,0.5-0.5v-10h0.7
			c1.6,0,2.8-1.3,2.8-2.8c0-1.3,0-2.4,0-2.4c0-0.3-0.2-0.5-0.5-0.5H19c-0.1-1.3-0.6-2.5-1.5-3.4c-1-1-2.4-1.6-3.8-1.6
			S10.8,6.7,9.8,7.7L9.8,7.7z M9.8,7.7"/>
		<path clip-path="url(#SVGID_2_)" d="M28.1,6.7l-7.2-3.5V0.5c0-0.3-0.2-0.5-0.5-0.5s-0.5,0.2-0.5,0.5v2.3L14.4,0
			C14.2,0,14.1,0,14,0L0.3,6.7C0,6.8-0.1,7.1,0,7.3c0.1,0.2,0.4,0.3,0.6,0.2l0.6-0.3v21.4c0,0.3,0.2,0.5,0.5,0.5h24.9
			c0.3,0,0.5-0.2,0.5-0.5V7.2l0.6,0.3c0.1,0,0.1,0,0.2,0c0.2,0,0.3-0.1,0.4-0.3C28.4,7.1,28.3,6.8,28.1,6.7L28.1,6.7z M26.2,28.1
			h-24V6.8l12-5.8l12,5.8V28.1z M26.2,28.1"/>
	</g>
</g>
<g>
</g>
<g>
</g>
<g>
</g>
<g>
</g>
<g>
</g>
<g>
</g>
</svg>
