<?xml version="1.0" encoding="utf-8"?>
<!-- Generator: Adobe Illustrator 16.0.0, SVG Export Plug-In . SVG Version: 6.00 Build 0)  -->
<!DOCTYPE svg PUBLIC "-//W3C//DTD SVG 1.1//EN" "http://www.w3.org/Graphics/SVG/1.1/DTD/svg11.dtd">
<svg version="1.1" xmlns="http://www.w3.org/2000/svg" xmlns:xlink="http://www.w3.org/1999/xlink" x="0px" y="0px"
	 width="66.144px" height="71.286px" viewBox="0 0 66.144 71.286" enable-background="new 0 0 66.144 71.286" xml:space="preserve">
<g id="_x31_9_x3000_オプション_x3000_add">
</g>
<g id="_x32_0_x3000_会社情報_x3000_company">
	<g>
		<path fill="#B3B3B3" d="M33.072,71.286c-0.23,0-0.461-0.036-0.684-0.107c-7.479-2.395-13.845-6.99-18.924-13.655
			c-3.998-5.249-7.2-11.781-9.515-19.415C0.045,25.232,0,13.761,0,13.279c0-1.155,0.877-2.121,2.027-2.233
			C2.2,11.03,19.618,9.241,31.754,0.428c0.787-0.572,1.85-0.57,2.636,0C46.524,9.241,63.944,11.03,64.118,11.047
			c1.149,0.111,2.026,1.077,2.026,2.231c0,0.482-0.045,11.953-3.95,24.83c-2.315,7.634-5.517,14.166-9.515,19.415
			c-5.078,6.666-11.445,11.26-18.923,13.655C33.534,71.25,33.303,71.286,33.072,71.286L33.072,71.286z M4.55,15.247
			C4.736,19.01,5.461,27.679,8.273,36.91c4.801,15.749,13.143,25.761,24.799,29.77c11.684-4.018,20.035-14.064,24.829-29.874
			c2.793-9.211,3.511-17.814,3.695-21.559c-5.025-0.734-18.04-3.214-28.524-10.269C22.586,12.032,9.574,14.513,4.55,15.247
			L4.55,15.247z M4.55,15.247"/>
		<path fill="#B3B3B3" d="M31.873,46.564c-0.531,0-1.049-0.189-1.457-0.539l-8.11-6.937c-0.94-0.805-1.051-2.22-0.246-3.161
			s2.219-1.053,3.161-0.247l6.308,5.394l12.501-16.398c0.751-0.985,2.158-1.176,3.143-0.424c0.986,0.75,1.175,2.158,0.425,3.143
			l-13.94,18.285c-0.374,0.49-0.933,0.806-1.546,0.87C32.032,46.56,31.952,46.564,31.873,46.564L31.873,46.564z M31.873,46.564"/>
	</g>
</g>
<g id="_x32_1_x3000_会社概要_x3000_profile">
</g>
<g id="_x32_2_x3000_プライバシーポリシー_x3000_privacy">
</g>
<g id="_x32_3_x3000_お問い合わせ_x3000_contact">
</g>
<g id="_x32_4_x3000_採用情報_x3000_recruit">
</g>
<g id="_x32_5_x3000_サイトマップ">
</g>
<g id="_x32_6_x3000_404">
</g>
<g id="mouse-over" display="none">
</g>
</svg>
