<?xml version="1.0" encoding="utf-8"?>
<!-- Generator: Adobe Illustrator 16.0.0, SVG Export Plug-In . SVG Version: 6.00 Build 0)  -->
<!DOCTYPE svg PUBLIC "-//W3C//DTD SVG 1.1//EN" "http://www.w3.org/Graphics/SVG/1.1/DTD/svg11.dtd">
<svg version="1.1" id="Layer_1" xmlns="http://www.w3.org/2000/svg" xmlns:xlink="http://www.w3.org/1999/xlink" x="0px" y="0px"
	 width="32.9px" height="30.7px" viewBox="0 0 32.9 30.7" enable-background="new 0 0 32.9 30.7" xml:space="preserve">
<g>
	<g>
		<defs>
			<rect id="SVGID_1_" width="32.9" height="30.7"/>
		</defs>
		<clipPath id="SVGID_2_">
			<use xlink:href="#SVGID_1_"  overflow="visible"/>
		</clipPath>
		<path clip-path="url(#SVGID_2_)" d="M11,5.4c0,3,2.4,5.4,5.4,5.4c3,0,5.4-2.4,5.4-5.4c0-3-2.4-5.4-5.4-5.4C13.5,0,11,2.4,11,5.4
			L11,5.4z M20.7,5.4c0,2.4-1.9,4.3-4.3,4.3c-2.4,0-4.3-1.9-4.3-4.3c0-2.4,1.9-4.3,4.3-4.3C18.8,1.1,20.7,3,20.7,5.4L20.7,5.4z
			 M20.7,5.4"/>
	</g>
	<path d="M6.3,5.1c-2.4,0-4.4,2-4.4,4.4s2,4.4,4.4,4.4c2.4,0,4.4-2,4.4-4.4S8.7,5.1,6.3,5.1L6.3,5.1z M6.3,12.9
		C4.4,12.9,3,11.4,3,9.6s1.5-3.3,3.3-3.3c1.8,0,3.3,1.5,3.3,3.3S8.1,12.9,6.3,12.9L6.3,12.9z M6.3,12.9"/>
	<path d="M26.6,14c2.4,0,4.4-2,4.4-4.4s-2-4.4-4.4-4.4c-2.4,0-4.4,2-4.4,4.4S24.2,14,26.6,14L26.6,14z M26.6,6.3
		c1.8,0,3.3,1.5,3.3,3.3s-1.5,3.3-3.3,3.3s-3.3-1.5-3.3-3.3S24.8,6.3,26.6,6.3L26.6,6.3z M26.6,6.3"/>
	<path d="M28.6,14.8h-3.9c-0.4,0-0.7,0-1.1,0.1c-0.9-1.7-2.6-2.9-4.7-2.9H14c-2,0-3.8,1.2-4.7,2.9c-0.4-0.1-0.7-0.1-1.1-0.1H4.3
		c-2.4,0-4.3,1.9-4.3,4.3v11c0,0.3,0.3,0.6,0.6,0.6c0.3,0,0.6-0.3,0.6-0.6v-11c0-1.8,1.4-3.2,3.2-3.2h3.9c0.2,0,0.5,0,0.7,0.1
		c-0.1,0.4-0.2,0.8-0.2,1.3v12.8c0,0.3,0.3,0.6,0.6,0.6c0.3,0,0.6-0.3,0.6-0.6V17.3c0-0.5,0.1-1,0.2-1.4c0,0,0,0,0,0c0,0,0,0,0-0.1
		c0.6-1.4,1.9-2.5,3.5-2.6v2.1c0,0.3,0.3,0.6,0.6,0.6h0.6l-1.5,11.2c0,0.2,0.1,0.4,0.2,0.5l2.6,2.1c0.1,0.1,0.2,0.1,0.4,0.1
		s0.3,0,0.4-0.1l2.6-2.1c0.2-0.1,0.2-0.3,0.2-0.5l-1.5-11.2h0.6c0.3,0,0.6-0.3,0.6-0.6v-2.1c1.6,0.1,2.9,1.1,3.5,2.6c0,0,0,0,0,0.1
		s0,0,0,0.1c0.2,0.4,0.3,0.9,0.3,1.4v12.8c0,0.3,0.3,0.6,0.6,0.6s0.6-0.3,0.6-0.6V17.3c0-0.5-0.1-0.9-0.2-1.3c0.2,0,0.4-0.1,0.7-0.1
		h3.9c1.8,0,3.2,1.4,3.2,3.2v11c0,0.3,0.3,0.6,0.6,0.6s0.6-0.3,0.6-0.6v-11C32.9,16.7,30.9,14.8,28.6,14.8L28.6,14.8z M18.1,13.2
		v1.5h-3.3v-1.5H18.1z M18.5,26.9l-2,1.6l-2-1.6L16,15.9h1L18.5,26.9z M18.5,26.9"/>
</g>
<g>
</g>
<g>
</g>
<g>
</g>
<g>
</g>
<g>
</g>
<g>
</g>
</svg>
