<?xml version="1.0" encoding="utf-8"?>
<!-- Generator: Adobe Illustrator 16.0.0, SVG Export Plug-In . SVG Version: 6.00 Build 0)  -->
<!DOCTYPE svg PUBLIC "-//W3C//DTD SVG 1.1//EN" "http://www.w3.org/Graphics/SVG/1.1/DTD/svg11.dtd">
<svg version="1.1" xmlns="http://www.w3.org/2000/svg" xmlns:xlink="http://www.w3.org/1999/xlink" x="0px" y="0px"
	 width="85.206px" height="73.888px" viewBox="0 0 85.206 73.888" enable-background="new 0 0 85.206 73.888" xml:space="preserve">
<g id="_x31_9_x3000_オプション_x3000_add">
</g>
<g id="_x32_0_x3000_会社情報_x3000_company">
	<g>
		<path fill="#B3B3B3" d="M83.506,19.048L66.161,1.703C65.062,0.604,63.604,0,62.05,0c-1.553,0-3.012,0.604-4.11,1.703l-4.077,4.076
			c-0.626,0.626-1.073,1.365-1.354,2.15l-19.07-3.415c-0.002,0-0.003,0-0.005,0c-8.574-1.703-16.946,3.871-18.676,12.448
			l-0.879,4.363c-0.971,4.819,2.159,9.527,6.977,10.5c4.819,0.97,9.529-2.159,10.5-6.978l0.539-2.667l8.552,0.748l22.332,22.333
			l4.047,4.048c0.82,0.82,0.82,2.153,0,2.973c-0.818,0.818-2.152,0.82-2.973,0L53.01,41.44c-0.755-0.755-1.98-0.755-2.735,0
			c-0.754,0.753-0.754,1.978,0,2.733l10.843,10.844c0.397,0.396,0.616,0.924,0.616,1.486c0,0.561-0.219,1.089-0.616,1.485
			c-0.82,0.82-2.155,0.82-2.973,0L47.303,47.146c-0.755-0.755-1.981-0.755-2.735,0c-0.755,0.755-0.755,1.98,0,2.735L55.41,60.724
			c0.82,0.82,0.82,2.152,0,2.973c-0.396,0.396-0.925,0.615-1.486,0.615c-0.562,0-1.091-0.219-1.487-0.615L41.595,52.854
			c-0.755-0.756-1.979-0.756-2.735,0s-0.755,1.979,0,2.734l10.841,10.843c0.82,0.82,0.82,2.153,0,2.973
			c-0.818,0.819-2.152,0.82-2.971,0L3.302,25.976c-0.755-0.755-1.979-0.755-2.735,0c-0.755,0.755-0.755,1.98,0,2.735l10.58,10.579
			l-3.04,3.039c-0.995,0.995-1.543,2.318-1.543,3.726c0,1.409,0.549,2.732,1.543,3.727l0.992,0.992
			c0.871,0.87,1.991,1.397,3.199,1.517c0.12,1.209,0.647,2.329,1.518,3.198l0.992,0.993c0.892,0.893,2.03,1.396,3.198,1.513
			c0.118,1.21,0.646,2.333,1.519,3.203l0.992,0.992c0.87,0.87,1.99,1.399,3.198,1.517c0.12,1.208,0.648,2.329,1.518,3.2l0.993,0.991
			c1.026,1.028,2.376,1.541,3.725,1.541s2.698-0.513,3.725-1.541l3.039-3.039l7.284,7.284c1.127,1.127,2.626,1.749,4.221,1.749
			s3.094-0.622,4.221-1.749c1.068-1.068,1.675-2.472,1.736-3.972c1.501-0.062,2.904-0.667,3.972-1.736
			c1.102-1.102,1.674-2.529,1.734-3.973c1.445-0.061,2.872-0.633,3.974-1.734c1.1-1.101,1.675-2.528,1.732-3.974
			c1.447-0.06,2.874-0.633,3.974-1.732c2.328-2.329,2.328-6.116,0-8.444l-2.68-2.68l9.807-9.806l6.819-6.817
			C85.772,25.001,85.772,21.314,83.506,19.048L83.506,19.048z M10.842,47.045c-0.545-0.546-0.545-1.435,0-1.981l2.85-2.85
			l2.973,2.973l-2.85,2.85c-0.546,0.546-1.435,0.546-1.981,0L10.842,47.045z M16.55,52.754c-0.548-0.548-0.548-1.436,0-1.981
			l2.848-2.85l2.973,2.973l-2.849,2.85c-0.546,0.546-1.435,0.546-1.981,0L16.55,52.754z M22.257,58.46
			c-0.264-0.265-0.411-0.616-0.411-0.99c0-0.374,0.147-0.726,0.411-0.991l2.85-2.85l2.973,2.973l-2.85,2.85
			c-0.546,0.546-1.436,0.546-1.981,0L22.257,58.46z M30.938,65.16c-0.545,0.547-1.435,0.546-1.981,0l-0.991-0.992
			c-0.546-0.546-0.546-1.435,0-1.981l2.85-2.85l2.973,2.974L30.938,65.16z M64.145,41.158L42.682,19.694
			c-0.321-0.321-0.746-0.519-1.2-0.558l-10.975-0.961c-0.057-0.004-0.114-0.006-0.17-0.006c-0.912,0-1.711,0.642-1.893,1.552
			l-0.88,4.363c-0.549,2.727-3.215,4.5-5.944,3.948c-1.32-0.266-2.459-1.031-3.206-2.153c-0.746-1.123-1.011-2.469-0.743-3.79
			l0.878-4.364c1.311-6.5,7.663-10.724,14.167-9.413c0.012,0.003,0.027,0.006,0.041,0.008l18.792,3.364l21.034,21.034L64.145,41.158
			z M80.77,24.534l-5.451,5.452L56.598,11.265c-0.368-0.368-0.569-0.856-0.569-1.377c0-0.52,0.201-1.007,0.569-1.375l4.077-4.076
			c0.367-0.367,0.856-0.57,1.375-0.57c0.52,0,1.007,0.203,1.375,0.57L80.77,21.782c0.367,0.366,0.57,0.856,0.57,1.375
			C81.34,23.678,81.137,24.166,80.77,24.534L80.77,24.534z M80.77,24.534"/>
		<path fill="#B3B3B3" d="M78.022,23.925c0,1.069-0.865,1.935-1.934,1.935c-1.067,0-1.935-0.866-1.935-1.935
			c0-1.067,0.867-1.932,1.935-1.932C77.157,21.993,78.022,22.858,78.022,23.925L78.022,23.925z M78.022,23.925"/>
	</g>
</g>
<g id="_x32_1_x3000_会社概要_x3000_profile">
</g>
<g id="_x32_2_x3000_プライバシーポリシー_x3000_privacy">
</g>
<g id="_x32_3_x3000_お問い合わせ_x3000_contact">
</g>
<g id="_x32_4_x3000_採用情報_x3000_recruit">
</g>
<g id="_x32_5_x3000_サイトマップ">
</g>
<g id="_x32_6_x3000_404">
</g>
<g id="mouse-over" display="none">
</g>
</svg>
