<?xml version="1.0" encoding="utf-8"?>
<!-- Generator: Adobe Illustrator 16.0.0, SVG Export Plug-In . SVG Version: 6.00 Build 0)  -->
<!DOCTYPE svg PUBLIC "-//W3C//DTD SVG 1.0//EN" "http://www.w3.org/TR/2001/REC-SVG-20010904/DTD/svg10.dtd">
<svg version="1.0" id="Layer_1" xmlns="http://www.w3.org/2000/svg"  x="0px" y="0px"
	 width="531.187px" height="173.451px" viewBox="0 0 531.187 173.451" enable-background="new 0 0 531.187 173.451"
	 xml:space="preserve">
<g>
	<g>
		<g>
			<path d="M150.345,117.033c7.792,0.025,15.569,0.511,23.361,0.536c0.23,0,0.427-0.283,0.281-0.489
				c-3.1-4.357-6.152-8.747-9.062-13.234c-1.03-1.59-1.908-2.317-1.577-3.711c1.852-7.804,3.486-15.669,4.786-23.584
				c2.95-17.972-0.265-36.367-12.555-50.402c-11.694-13.355-29.755-19.042-46.711-21.835C89.033,1.046,68.066,0.591,48.585,6.042
				C18.504,14.46-1.326,40.134,0.069,71.544c0.61,13.752,5.231,28.557,13.547,39.639c9.264,12.346,25.318,18.95,39.668,23.081
				c17.587,5.063,36.538,6.571,54.665,4c15.226-2.16,31.426-8.127,40.328-21.393c0.234-0.349-0.329-0.674-0.562-0.328
				c-10.122,15.083-29.345,20.305-46.472,21.847c-19.224,1.73-39.181-1.173-57.257-7.854c-8.352-3.086-16.425-7.28-23.3-12.977
				c-5.914-4.9-9.849-11.238-13.063-18.131C1.125,85.492-1.011,69.483,1.976,54.385C5.078,38.698,14.441,25.17,27.625,16.246
				C45.276,4.297,67.73,1.842,88.5,2.839c18.859,0.905,38.841,4.006,55.129,14.124c17.748,11.025,27.018,32.192,24.806,52.771
				c-0.771,7.181-2.233,14.304-3.727,21.363c-0.522,2.467-1.074,4.929-1.641,7.386c-0.148,0.642-0.774,1.987-0.588,2.663
				c0.989,3.596,4.944,7.667,7.002,10.655c0.273,0.396,3.99,5.116,2.336,5.111c-2.455-0.008-4.909-0.077-7.361-0.164
				c-4.706-0.167-9.401-0.352-14.112-0.367C149.926,116.381,149.926,117.031,150.345,117.033L150.345,117.033z"/>
		</g>
	</g>
	<g>
		<g>
			<path d="M347.555,102.448c-4.777,2.596-9.673,4.17-14.928,5.506c-0.304,0.077-0.268,0.484,0,0.578
				c5.727,2.006,11.343,4.299,16.899,6.735c2.336,1.024,2.626,3.769,3.664,6.145c4.225,9.669,12.045,17.582,21.365,22.554
				c5.112,2.727,9.836,5.837,15.238,8.062c6.56,2.701,13.29,4.812,20.189,6.454c12.141,2.89,24.568,3.826,37.018,3.386
				c18.79-0.664,37.402-5.112,51.511-18.171c14.572-13.487,23.208-34.321,28.906-52.972c5.744-18.796,6.51-40.404-9.171-54.601
				c-16.477-14.917-40.401-19.316-61.863-20.125c-21.33-0.805-45.006,1.56-64.746,10.159c-15.582,6.787-26.537,18.05-32.941,33.765
				c-5.4,13.25-7.729,27.705-10.279,41.705c-0.069,0.378,0.509,0.54,0.578,0.159c3.395-18.634,6.37-38.801,17.18-54.839
				c11.708-17.37,32.634-24.211,52.318-27.68c40.191-7.083,117.582-3.133,111.847,54.704c-1.156,11.656-5.242,22.984-9.823,33.683
				c-4.352,10.162-9.3,20.153-16.193,28.852c-13.489,17.021-33.535,23.322-54.52,24.626c-27.778,1.726-54.032-5.007-77.78-19.291
				c-10.033-6.035-16.403-15.179-20.422-25.896c-0.515-1.372-3.347-1.886-4.538-2.397c-2.213-0.952-4.444-1.863-6.68-2.76
				c-1.508-0.605-3.029-1.178-4.551-1.749c-3.218-1.206,0.076-1.313,1.691-1.764c3.655-1.019,7.009-2.504,10.334-4.311
				C348.198,102.782,347.895,102.264,347.555,102.448L347.555,102.448z"/>
		</g>
	</g>
	<g>
		<path d="M237.543,87.496c0,0-1.174,5.85-7.463,5.598c-8.14-0.326-11.662-6.064-19.125-7.463
			c-18.657-3.732-20.987,17.259-38.249,15.859c10.205-3.797,3.734-12.775,7.468-20.704c4.196-8.397,10.627-8.373,15.297-2.737
			c-1.771-27.695,23.879-15.741,29.479-9.677c7.466,7.93-3.732,18.658,12.594,18.658"/>
		<g>
			<path d="M236.638,87.246c-2.161,9.398-13.745,2.908-18.743,0.058c-5.189-2.96-11.313-3.898-17.045-2.105
				c-10.923,3.417-15.358,16.023-28.144,15.353c0.158,0.583,0.316,1.166,0.474,1.749c5.161-2.21,6.634-5.835,6.64-11.232
				c0.003-4.073-0.059-7.583,1.977-11.285c3.235-5.881,8.889-5.629,13.011-1.071c0.541,0.599,1.641,0.141,1.602-0.664
				c-0.335-7.001,0.783-15.681,9.249-16.533c5.154-0.519,10.575,1.895,14.853,4.533c5.785,3.568,6.29,8.303,6.475,14.626
				c0.178,6.078,5.368,7.175,10.558,7.293c1.211,0.028,1.208-1.85,0-1.877c-5.393-0.124-8.686-1.211-8.705-6.935
				c-0.011-3.109-0.067-5.926-1.352-8.809c-1.887-4.232-7.348-7.05-11.389-8.67c-4.744-1.902-10.026-3-14.888-0.915
				c-6.44,2.763-6.961,11.361-6.677,17.286c0.534-0.221,1.068-0.442,1.602-0.664c-4.401-4.869-11.049-5.887-15.101,0.167
				c-2.156,3.223-3.013,6.289-3.126,10.141c-0.167,5.685,0.556,10.317-5.675,12.986c-0.927,0.397-0.366,1.705,0.474,1.749
				c5.988,0.314,10.774-1.858,15.341-5.585c5.342-4.359,9.731-9.763,17.013-10.647c9.207-1.117,14.884,6.967,23.451,7.702
				c4.522,0.388,8.829-1.334,9.937-6.152C238.72,86.567,236.91,86.066,236.638,87.246L236.638,87.246z"/>
		</g>
	</g>
	<g>
		<g>
			<path d="M183.254,94.405c5.81,9.641,7.816,20.917,11.117,31.54c0.127,0.411,0.512,0.607,0.922,0.524
				c9.323-1.88,18.806-2.669,28.254-3.649c0.952-0.099,0.962-1.6,0-1.5c-5.031,0.521-10.065,1.005-15.09,1.589
				c-2.354,0.274-4.701,0.601-7.045,0.947c-2.729,0.403-5.516,2.017-6.506-1.3c-2.931-9.825-5.004-20.025-10.357-28.907
				C184.051,92.821,182.753,93.575,183.254,94.405L183.254,94.405z"/>
		</g>
	</g>
	<g>
		<g>
			<path d="M221.895,91.427c1.382,4.771,1.125,10.3,1.25,15.219c0.126,4.985,0.447,10.274-0.32,15.225
				c-0.147,0.946,1.298,1.352,1.446,0.398c0.792-5.104,0.48-10.482,0.374-15.623c-0.104-5.051,0.117-10.711-1.304-15.617
				C223.072,90.102,221.625,90.496,221.895,91.427L221.895,91.427z"/>
		</g>
	</g>
	<g>
		<g>
			<path d="M207.434,101.222c0.759,3.115,1.35,6.272,2.332,9.329c0.174-0.308,0.349-0.615,0.524-0.922
				c-1.736,0.576-3.558,1.274-5.398,1.373c0.25,0.25,0.5,0.5,0.75,0.75c-0.052-1.569-0.398-3.099-0.466-4.664
				c-0.042-0.963-1.542-0.968-1.5,0c0.067,1.566,0.414,3.095,0.466,4.664c0.013,0.392,0.332,0.772,0.75,0.75
				c1.991-0.106,3.92-0.803,5.797-1.426c0.375-0.125,0.654-0.518,0.524-0.922c-0.982-3.057-1.573-6.214-2.332-9.329
				C208.651,99.884,207.205,100.283,207.434,101.222L207.434,101.222z"/>
		</g>
	</g>
	<g>
		<g>
			<path d="M214.476,113.884c-0.703-2.841-10.791,1.418-12.583,1.808c-0.528,0.115-0.754,0.894-0.331,1.253
				c2.099,1.786,5.283,3.705,8.155,3.15c2.979-0.575,4.739-3.08,4.785-6.012c0.015-0.968-1.485-0.966-1.5,0
				c-0.104,6.541-7.145,4.553-10.38,1.802c-0.11,0.418-0.221,0.835-0.331,1.253c1.757-0.382,3.474-0.975,5.199-1.477
				c1.115-0.325,2.236-0.627,3.367-0.89c0.472-0.11,2.232-0.244,2.172-0.489C213.262,115.222,214.708,114.823,214.476,113.884z"/>
		</g>
	</g>
	<g>
		<g>
			<path d="M224.282,100.348c1.198-0.496,2.535-0.437,3.732-0.934c-0.308-0.174-0.615-0.349-0.922-0.524
				c0.465,2.548,0.436,5.15,0.437,7.73c0.25-0.25,0.5-0.5,0.75-0.75c-1.351,0.056-2.657,0.378-3.997,0.027
				c-0.937-0.246-1.333,1.201-0.398,1.446c1.484,0.389,2.896,0.089,4.396,0.027c0.408-0.017,0.75-0.329,0.75-0.75
				c-0.001-2.72,0-5.444-0.491-8.129c-0.067-0.368-0.567-0.671-0.922-0.524c-1.197,0.497-2.535,0.438-3.732,0.934
				C223.002,99.266,223.388,100.718,224.282,100.348L224.282,100.348z"/>
		</g>
	</g>
	<g>
		<g>
			<path d="M188.099,105.404c-1.349,0.135-2.467,0.886-3.643,1.503c-0.335,0.176-0.503,0.706-0.269,1.026
				c1.208,1.655,1.756,3.958,2.349,5.899c0.12,0.394,0.519,0.63,0.922,0.524c1.357-0.357,2.722-0.702,4.104-0.947
				c0.952-0.169,0.547-1.614-0.398-1.446c-1.382,0.245-2.747,0.59-4.104,0.947c0.308,0.174,0.615,0.349,0.922,0.524
				c-0.627-2.053-1.221-4.504-2.5-6.257c-0.089,0.342-0.179,0.684-0.269,1.026c0.896-0.47,1.856-1.195,2.886-1.298
				C189.052,106.809,189.062,105.308,188.099,105.404L188.099,105.404z"/>
		</g>
	</g>
	<g>
		<g>
			<path d="M207.027,124.53c2.202,1.182,1.65,6.829,1.676,8.91c0.043,3.483-0.155,6.967-0.228,10.449
				c-0.198,9.512-0.297,19.304,0.043,28.818c0.034,0.964,1.535,0.968,1.5,0c-0.214-5.995,0.163-11.987,0.255-17.981
				c0.07-4.561-0.363-9.081-0.225-13.642c0.117-3.829,2.113-15.5-2.266-17.849C206.932,122.777,206.175,124.072,207.027,124.53
				L207.027,124.53z"/>
		</g>
	</g>
	<g>
		<g>
			<path d="M203.893,124.098c-5.656,5.178-6.847,13.893-7.797,21.086c-1.196,9.06-0.819,18.305-2.259,27.324
				c-0.151,0.946,1.294,1.352,1.446,0.398c1.195-7.481,1.129-15.158,1.778-22.697c0.696-8.089,1.478-19.178,7.893-25.051
				C205.668,124.504,204.605,123.446,203.893,124.098L203.893,124.098z"/>
		</g>
	</g>
	<g>
		<g>
			<path d="M209.368,132.46c2.159,4.302,4.645,9.316,9.392,11.153c4.572,1.77,9.324-2.877,11.698-6.087
				c1.688-2.281,1.43-5.549,4.702-4.861c5.036,1.058-1.73,8.129-3.614,10c-6.22,6.177-20.672,7.288-21.638-3.753
				c-0.083-0.956-1.584-0.964-1.5,0c0.648,7.408,5.64,9.536,12.598,10.042c8.445,0.614,16.212-8.523,18.059-15.926
				c0.104-0.415-0.13-0.789-0.524-0.922c-1.962-0.667-3.933-1.094-5.964-1.492c-0.394-0.077-0.817,0.105-0.922,0.524
				c-1.396,5.546-6.019,11.966-12.497,11.031c-4.084-0.59-6.865-7.216-8.495-10.464C210.229,130.838,208.935,131.598,209.368,132.46
				L209.368,132.46z"/>
		</g>
	</g>
	<g>
		<g>
			<path d="M233.127,130.963c0.059-4.292,0.669-8.73,1.854-12.854c-0.002,0.01,1.598-4.345,2.274-2.269
				c0.419,1.287,0.003,3.13-0.188,4.405c-0.313,2.086-0.875,4.153-0.965,6.267c-0.036,0.849,1.274,1.019,1.473,0.199
				c0.104-0.426,0.207-0.851,0.311-1.277c-0.065,0.267,2.142,1.327,1.38,2.934c-0.623,1.313-1.654,2.45-2.576,3.555
				c-0.615,0.737,0.44,1.804,1.061,1.061c2.642-3.167,6.014-8.395-0.53-8.735c-0.323-0.017-0.647,0.24-0.723,0.551
				c-0.123,0.504-0.246,1.009-0.368,1.514c0.491,0.066,0.982,0.133,1.473,0.199c0.046-1.084,3.101-16.202-2.041-12.558
				c-2.013,1.426-2.458,5.206-2.878,7.379c-0.609,3.145-1.011,6.423-1.055,9.629C231.614,131.931,233.114,131.93,233.127,130.963
				L233.127,130.963z"/>
		</g>
	</g>
	<g>
		<path d="M297.893,81.661c-4.17-11.489-18.037-10.119-25.716-2.825c-5.598,4.754-6.539,18.849-16.303,12.114
			c5.666,14.842,37.239,8.452,39.286-3.885c-0.097,3.744,2.596,9.633,1.781,13.215c3.256,2.244,3.886,1.626,7.14,3.872
			c0.262-4.46,2.598-28.028-5.797-20.897"/>
		<g>
			<path d="M298.776,81.418c-3.424-8.376-12.193-11.148-20.39-7.624c-4.086,1.757-7.457,4.354-9.808,8.145
				c-3.047,4.914-5.066,12.747-12.242,8.221c-0.859-0.542-1.58,0.482-1.252,1.252c3.503,8.229,13.558,9.896,21.532,8.739
				c7.333-1.063,17.661-4.533,19.427-12.843c-0.6-0.081-1.199-0.162-1.798-0.243c0.183,4.457,2.353,8.739,1.781,13.215
				c-0.04,0.316,0.206,0.633,0.454,0.791c2.307,1.464,4.834,2.406,7.14,3.872c0.621,0.395,1.335-0.132,1.377-0.791
				c0.261-4.125,2.666-29.37-7.36-21.544c-0.93,0.726,0.376,2.012,1.295,1.295c4.782-3.734,4.686,6.436,4.726,9.099
				c0.056,3.724-0.257,7.438-0.492,11.15c0.459-0.264,0.918-0.527,1.377-0.791c-2.402-1.527-6.497-2.188-6.568-5.472
				c-0.08-3.669-1.749-7.14-1.899-10.824c-0.041-0.997-1.576-1.291-1.798-0.243c-1.556,7.321-10.718,10.297-17.146,11.418
				c-7.458,1.301-17.156,0.027-20.467-7.752c-0.417,0.417-0.835,0.835-1.252,1.252c7.253,4.575,10.581-1.106,13.783-7.161
				c5.332-10.082,22.354-16.037,27.814-2.676C297.451,82.982,299.223,82.511,298.776,81.418L298.776,81.418z"/>
		</g>
	</g>
	<g>
		<g>
			<path d="M304.116,102.851c0.185,1.971,0.597,3.893,0.735,5.875c0.042,0.592,0.599,0.901,1.128,0.647
				c6.119-2.93,8.079,9.279,1.343,10.391c-0.327,0.054-0.548,0.416-0.551,0.723c-0.031,3.355,0.153,7.169-2.818,9.366
				c-2.623,1.939-6.83,3.637-9.945,4.274c-7.612,1.558-17.469,2.04-25.126,0.483c-7.718-1.569-12.719-8.249-13.637-15.792
				c-0.997-8.196,3.361-15.99,9.965-20.567c0.789-0.547,0.041-1.848-0.757-1.295c-8.697,6.027-13.614,17.566-9.277,27.773
				c5.578,13.125,19.524,12.351,31.635,11.674c6.367-0.356,11.678-1.762,17.284-4.868c1.534-0.85,2.625-2.081,3.306-3.684
				c0.798-1.878,0.04-6.4,1.938-7.041c6.866-2.319,3.897-16.57-4.118-12.733c0.376,0.216,0.752,0.432,1.128,0.647
				c-0.139-1.982-0.55-3.896-0.735-5.875C305.526,101.896,304.025,101.888,304.116,102.851L304.116,102.851z"/>
		</g>
	</g>
	<g>
		<path d="M283.128,107.917c3.767,1.22,8.182,3.942,11.102,7.325l1.408-1.693c-2.169-6.582-9.225-9.584-14.583-5.442"/>
		<g>
			<path d="M282.885,108.799c4.117,1.426,7.777,3.858,10.697,7.09c0.313,0.346,0.986,0.37,1.295,0
				c0.435-0.523,1.95-1.749,1.644-2.584c-0.876-2.389-2.163-4.369-4.171-5.955c-3.519-2.778-8.207-2.561-11.757-0.035
				c-0.953,0.678-0.041,2.267,0.924,1.581c2.885-2.053,6.053-2.284,9.132-0.51c1.615,0.931,2.737,2.504,3.587,4.114
				c0.518,0.98,0.839,0.298,0.05,1.247c-0.234,0.282-0.469,0.564-0.704,0.847c0.432,0,0.863,0,1.295,0
				c-3.133-3.466-7.095-6.033-11.506-7.561C282.253,106.646,281.777,108.415,282.885,108.799L282.885,108.799z"/>
		</g>
	</g>
	<g>
		<path d="M270.067,105.712c-3.761,1.22-8.183,3.943-11.104,7.326l-1.406-1.694c2.167-6.581,9.225-9.583,14.578-5.44"/>
		<g>
			<path d="M269.824,104.83c-4.41,1.53-8.374,4.096-11.508,7.562c0.432,0,0.863,0,1.295,0c-0.434-0.522-0.868-1.046-1.302-1.568
				c-0.09-0.109,2.905-3.607,3.262-3.933c2.93-2.674,7.044-2.374,10.103-0.196c0.964,0.686,1.876-0.902,0.924-1.581
				c-3.548-2.527-8.236-2.744-11.753,0.034c-1.715,1.354-3.127,3.109-3.887,5.181c-0.586,1.599,0.34,2.13,1.358,3.357
				c0.308,0.371,0.982,0.345,1.295,0c2.921-3.231,6.583-5.663,10.699-7.091C271.418,106.21,270.942,104.442,269.824,104.83
				L269.824,104.83z"/>
		</g>
	</g>
	<g>
		<g>
			<path d="M284.751,136.361c17.06-1.287,24.333,22.965,24.523,36.347c0.014,0.966,1.514,0.968,1.5,0
				c-0.201-14.147-8.021-39.205-26.023-37.847C283.793,134.933,283.786,136.434,284.751,136.361L284.751,136.361z"/>
		</g>
	</g>
	<g>
		<g>
			<path d="M277.712,135.13c-7.036,1.822-10.947,9.108-13.59,15.291c-2.93,6.853-4.971,14.8-4.673,22.306
				c0.038,0.964,1.539,0.968,1.5,0c-0.263-6.618,1.459-13.293,3.666-19.48c2.289-6.417,6.301-14.806,13.496-16.67
				C279.047,136.334,278.649,134.887,277.712,135.13L277.712,135.13z"/>
		</g>
	</g>
	<g>
		<g>
			<path d="M283.103,141.249c-3.152-1.259-6.177-2.252-9.59-2.371c-0.492-0.017-0.847,0.491-0.723,0.949
				c0.69,2.567,0.62,5.287,1.898,7.675c0.193,0.361,0.683,0.469,1.026,0.269c5.214-3.036,10.083-6.626,15.297-9.662
				c-0.367-0.282-0.734-0.564-1.102-0.847c-0.389,2.785-0.097,5.583-0.483,8.373c0.367-0.149,0.734-0.299,1.102-0.448
				c-2.148-1.245-4.453-2.139-6.602-3.381c-0.839-0.485-1.594,0.811-0.757,1.295c2.148,1.242,4.454,2.136,6.602,3.381
				c0.377,0.219,1.034,0.043,1.102-0.448c0.387-2.788,0.096-5.595,0.483-8.373c0.086-0.616-0.476-1.211-1.102-0.847
				c-5.214,3.035-10.083,6.625-15.297,9.662c0.342,0.089,0.684,0.179,1.026,0.269c-1.206-2.254-1.095-4.896-1.747-7.317
				c-0.241,0.316-0.482,0.633-0.723,0.949c3.296,0.114,6.167,1.109,9.191,2.317C283.604,143.055,283.99,141.603,283.103,141.249
				L283.103,141.249z"/>
		</g>
	</g>
	<g>
		<g>
			<path d="M298.994,141.148c7.833,1.843,25.553,7.246,25.315-6.252c-0.046-2.647,1.255-2.214,3.993-1.821
				c1.646,0.236,0.916,6.451,0.685,7.499c-0.819,3.727-4.364,5.467-7.724,6.291c-5.725,1.403-11.975,0.317-17.711-0.463
				c-0.945-0.129-1.354,1.316-0.398,1.446c7.425,1.011,16.107,2.587,22.994-1.251c3.472-1.935,4.701-5.669,4.654-9.434
				c-0.015-1.229-0.047-4.567-1.142-5.208c-1.757-1.03-4.766-0.664-6.595-0.076c-0.421,0.135-0.591,0.505-0.524,0.922
				c2.273,14.103-15.293,8.749-23.149,6.901C298.452,139.481,298.052,140.927,298.994,141.148L298.994,141.148z"/>
		</g>
	</g>
	<g>
		<g>
			<path d="M324.116,132.825c-0.895-1.279-1.641-2.589-2.333-3.987c-0.483-1.03-0.934-2.074-1.352-3.132
				c0.449-0.75,0.819-0.771,1.109-0.06c0.853,1.152,1.266,3.022,1.882,4.325c0.187,0.396,0.681,0.426,1.026,0.269
				c3.36-1.523,8.57-5.583,11.611-1.472c0.149-0.367,0.299-0.734,0.448-1.102c-3.207,1.099-6.223,2.484-9.253,3.996
				c-0.866,0.432-0.106,1.725,0.757,1.295c2.909-1.45,5.817-2.789,8.895-3.844c0.416-0.142,0.754-0.688,0.448-1.102
				c-3.758-5.081-9.239-1.071-13.663,0.934c0.342,0.089,0.684,0.179,1.026,0.269c-0.85-1.798-1.88-6.455-4.756-6.229
				c-4,0.314,2.139,9.567,2.859,10.596C323.371,134.368,324.672,133.62,324.116,132.825L324.116,132.825z"/>
		</g>
	</g>
	<g>
		<path fill="#FFFFFF" stroke="#231815" stroke-miterlimit="10" d="M26.555,7.651c1.111,2.271,1.57,5.225,1.311,8.854
			c-0.04,0.328-0.092,0.721-0.15,1.18c-0.204,1.638-0.228,3.133-0.009,4.559c0.301,1.836,0.954,3.516,1.969,4.976
			c-0.615,0.123-1.619,0.428-2.727,1.287c-1.034,0.801-1.571,1.633-1.813,2.234c-1.491-2.153-2.456-4.538-2.846-7.25
			c-0.3-1.836-0.285-3.798-0.057-5.866c0.076-0.357,0.118-0.685,0.145-0.881c0.148-2.245,0.016-4.092-0.502-5.523
			c-0.48-1.459-1.364-2.369-2.49-2.679c-0.93-0.284-2.048-0.125-3.209,0.361c-0.564,0.262-1.139,0.588-1.655,0.989
			c-0.554,0.429-1.05,0.933-1.416,1.453c-0.713,0.907-1.138,1.886-1.195,2.878c-0.084,1.188,0.265,2.396,1.112,3.569l-4.538,3.521
			c-1.444-2.014-2.161-4.234-2.075-6.488c0.076-2.188,0.881-4.349,2.354-6.26c0.76-1.002,1.64-1.923,2.638-2.696
			c3.101-2.405,6.915-3.354,10.066-2.49C23.656,3.989,25.465,5.483,26.555,7.651z M33.049,31.341
			c1.059,1.366,0.809,3.332-0.556,4.391c-1.366,1.06-3.331,0.81-4.391-0.556c-1.06-1.365-0.812-3.331,0.555-4.39
			C30.022,29.728,31.99,29.976,33.049,31.341z"/>
	</g>
	<g>
		<path fill="#FFFFFF" stroke="#231815" stroke-miterlimit="10" d="M458.039,33.682c-0.742,1.51-2.618,2.15-4.127,1.408
			c-1.552-0.762-2.19-2.637-1.449-4.146c0.762-1.552,2.636-2.192,4.188-1.431C458.159,30.256,458.8,32.131,458.039,33.682z
			 M455.333,26.37l11.366-25.691l6.582,3.232l-13.358,24.662c-0.339-0.479-0.969-1.102-2.017-1.615
			C456.857,26.442,455.917,26.344,455.333,26.37z"/>
	</g>
	<g>
		<path fill="#FFFFFF" stroke="#231815" stroke-miterlimit="10" d="M471.039,37.682c-0.742,1.51-2.618,2.15-4.127,1.408
			c-1.552-0.762-2.19-2.637-1.449-4.146c0.762-1.552,2.636-2.192,4.188-1.431C471.159,34.256,471.8,36.131,471.039,37.682z
			 M468.333,30.37l11.366-25.691l6.582,3.232l-13.358,24.662c-0.339-0.479-0.969-1.102-2.017-1.615
			C469.857,30.442,468.917,30.344,468.333,30.37z"/>
	</g>
	<g>
		<path d="M26.833,58.64l-2.351-5.361l-2.207,5.361l-4.078-9.295h1.535l2.507,5.865l1.475-3.694l0.72-1.835l0.779,1.811l1.583,3.718
			l2.339-5.865h1.523L26.833,58.64z"/>
		<path d="M38.426,58.244h-1.391v-3.838h-3.55v3.838h-1.392v-8.899h1.392v3.802h3.55v-3.802h1.391V58.244z"/>
		<path d="M41.682,52.966h3.25v1.26h-3.25v2.758h3.945v1.259h-3.958h-1.379v-8.899h1.379h3.958v1.247h-3.945V52.966z"/>
		<path d="M48.666,52.523v5.721h-1.392v-9.319l5.589,6.128v-5.708h1.403v9.307L48.666,52.523z"/>
		<path d="M64.442,56.457c-0.251,0.864-1.031,1.547-2.003,1.739c-0.18,0.036-0.359,0.048-0.539,0.048c-0.36,0-0.72-0.06-1.056-0.192
			c-0.563-0.228-1.056-0.6-1.476-1.139l1.104-0.864c0.252,0.336,0.552,0.576,0.876,0.696c0.264,0.108,0.552,0.132,0.815,0.072
			c0.456-0.084,0.827-0.384,0.936-0.744c0.12-0.408-0.156-0.768-0.408-1.007c-0.396-0.372-1.043-1.007-1.091-1.056l-1.092-1.031
			c-0.336-0.324-0.563-0.684-0.684-1.067c-0.12-0.372-0.132-0.768-0.023-1.127c0.107-0.384,0.335-0.72,0.659-0.996
			c0.3-0.251,0.672-0.432,1.067-0.503c0.432-0.096,0.888-0.06,1.319,0.096c0.456,0.18,0.863,0.48,1.211,0.899l-1.091,0.876
			c-0.456-0.552-0.924-0.552-1.176-0.504c-0.312,0.06-0.575,0.264-0.647,0.516c-0.048,0.168-0.036,0.444,0.336,0.804l1.487,1.427
			c0.216,0.216,0.479,0.468,0.672,0.647c0.384,0.348,0.647,0.744,0.779,1.164C64.55,55.617,64.562,56.049,64.442,56.457z"/>
		<path d="M72.397,58.244h-1.391v-3.838h-3.55v3.838h-1.392v-8.899h1.392v3.802h3.55v-3.802h1.391V58.244z"/>
		<path d="M76.696,57.896c-0.54-0.228-1.008-0.552-1.415-0.959c-0.408-0.408-0.731-0.875-0.96-1.416
			c-0.228-0.54-0.348-1.127-0.348-1.727s0.12-1.187,0.348-1.739c0.229-0.528,0.552-0.996,0.96-1.416
			c0.407-0.408,0.875-0.719,1.415-0.947s1.127-0.348,1.728-0.348c0.6,0,1.187,0.12,1.738,0.348c0.528,0.228,0.996,0.54,1.416,0.947
			c0.407,0.42,0.719,0.888,0.947,1.416c0.228,0.552,0.348,1.139,0.348,1.739s-0.12,1.188-0.348,1.727
			c-0.229,0.54-0.54,1.008-0.947,1.416c-0.42,0.408-0.888,0.731-1.416,0.959c-0.552,0.228-1.139,0.348-1.738,0.348
			C77.823,58.244,77.236,58.124,76.696,57.896z M76.264,51.635c-0.576,0.576-0.899,1.343-0.899,2.159
			c0,0.816,0.323,1.583,0.899,2.159c0.575,0.576,1.343,0.899,2.159,0.899c0.815,0,1.583-0.324,2.158-0.899
			c0.576-0.576,0.899-1.343,0.899-2.159c0-0.815-0.323-1.583-0.899-2.159c-0.575-0.576-1.343-0.899-2.158-0.899
			C77.607,50.736,76.839,51.06,76.264,51.635z"/>
		<path d="M85.457,57.536c-0.349-0.264-0.612-0.588-0.792-0.959c-0.204-0.408-0.3-0.864-0.3-1.355v-5.876h1.392v5.876
			c0,0.528,0.191,0.936,0.552,1.211c0.335,0.264,0.827,0.42,1.354,0.42c0.516,0,1.008-0.156,1.355-0.42
			c0.36-0.276,0.54-0.684,0.54-1.211v-5.876h1.403v5.876c0,0.492-0.108,0.948-0.3,1.355c-0.192,0.372-0.456,0.695-0.792,0.959
			c-0.588,0.456-1.367,0.708-2.207,0.708C86.824,58.244,86.043,57.992,85.457,57.536z"/>
		<path d="M97.85,58.244h-3.73h-1.379v-8.899h1.392v7.64h3.718V58.244z"/>
		<path d="M105.433,53.794c0,1.259-0.372,2.339-1.08,3.119c-0.384,0.432-0.863,0.768-1.427,0.983
			c-0.575,0.228-1.224,0.348-1.943,0.348H99.34h-0.468v-8.899h1.392h0.719c0.72,0,1.368,0.108,1.943,0.348
			c0.563,0.216,1.043,0.552,1.427,0.983C105.061,51.456,105.433,52.535,105.433,53.794z M104.042,53.794
			c0-0.911-0.252-1.667-0.72-2.183c-0.527-0.588-1.307-0.875-2.339-0.875h-0.719v6.117h0.719c1.032,0,1.812-0.3,2.339-0.875
			C103.79,55.461,104.042,54.694,104.042,53.794z"/>
		<path d="M110.572,58.244v-8.899h1.392v8.899H110.572z"/>
		<path d="M122.125,56.457c-0.251,0.864-1.031,1.547-2.002,1.739c-0.181,0.036-0.36,0.048-0.54,0.048c-0.36,0-0.72-0.06-1.056-0.192
			c-0.563-0.228-1.056-0.6-1.475-1.139l1.103-0.864c0.252,0.336,0.552,0.576,0.876,0.696c0.264,0.108,0.552,0.132,0.815,0.072
			c0.456-0.084,0.827-0.384,0.936-0.744c0.12-0.408-0.156-0.768-0.408-1.007c-0.396-0.372-1.043-1.007-1.091-1.056l-1.092-1.031
			c-0.336-0.324-0.563-0.684-0.684-1.067c-0.12-0.372-0.132-0.768-0.023-1.127c0.107-0.384,0.336-0.72,0.659-0.996
			c0.3-0.251,0.672-0.432,1.067-0.503c0.432-0.096,0.888-0.06,1.319,0.096c0.456,0.18,0.863,0.48,1.211,0.899l-1.091,0.876
			c-0.456-0.552-0.924-0.552-1.176-0.504c-0.312,0.06-0.575,0.264-0.647,0.516c-0.048,0.168-0.036,0.444,0.336,0.804l1.487,1.427
			c0.216,0.216,0.479,0.468,0.672,0.647c0.384,0.348,0.647,0.744,0.779,1.164C122.233,55.617,122.245,56.049,122.125,56.457z"/>
		<path d="M129.468,50.592h-2.446v7.652h-1.403v-7.652h-2.447v-1.247h6.297V50.592z"/>
		<path d="M135.577,56.337h-3.166l-0.756,1.907h-1.535l3.874-9.307l3.861,9.307h-1.522L135.577,56.337z M135.073,55.089l-1.079-2.71
			l-1.079,2.71H135.073z"/>
		<path d="M145.32,58.244h-1.571l-2.243-3.01h-1.019v3.01h-1.392v-8.899h1.176h1.463c1.175,0,1.858,0.479,2.219,0.887
			c0.468,0.516,0.72,1.235,0.72,2.063c0,0.815-0.252,1.535-0.72,2.051c-0.216,0.24-0.552,0.516-1.031,0.684L145.32,58.244z
			 M141.734,53.986c0.575,0,1.007-0.168,1.283-0.479c0.336-0.36,0.396-0.864,0.396-1.211c0-0.36-0.06-0.864-0.396-1.223
			c-0.276-0.312-0.708-0.468-1.283-0.468h-1.247v3.382H141.734z"/>
		<path d="M152.507,50.592h-2.446v7.652h-1.403v-7.652h-2.447v-1.247h6.297V50.592z"/>
		<path d="M23.751,79.244h-3.73h-1.379v-8.899h1.391v7.64h3.718V79.244z"/>
		<path d="M27.208,78.896c-0.54-0.228-1.008-0.552-1.415-0.959c-0.408-0.408-0.731-0.875-0.96-1.416
			c-0.228-0.54-0.348-1.127-0.348-1.727s0.12-1.187,0.348-1.739c0.229-0.528,0.552-0.996,0.96-1.416
			c0.407-0.408,0.875-0.719,1.415-0.947s1.127-0.348,1.728-0.348c0.6,0,1.187,0.12,1.738,0.348c0.528,0.228,0.996,0.54,1.415,0.947
			c0.408,0.42,0.72,0.888,0.948,1.416c0.228,0.552,0.348,1.139,0.348,1.739s-0.12,1.188-0.348,1.727
			c-0.229,0.54-0.54,1.008-0.948,1.416c-0.419,0.408-0.887,0.731-1.415,0.959c-0.552,0.228-1.139,0.348-1.738,0.348
			C28.335,79.244,27.749,79.124,27.208,78.896z M26.777,72.635c-0.576,0.576-0.899,1.343-0.899,2.159
			c0,0.816,0.323,1.583,0.899,2.159c0.575,0.576,1.343,0.899,2.159,0.899c0.815,0,1.583-0.324,2.158-0.899
			c0.576-0.576,0.899-1.343,0.899-2.159c0-0.815-0.323-1.583-0.899-2.159c-0.575-0.576-1.343-0.899-2.158-0.899
			C28.12,71.736,27.352,72.06,26.777,72.635z"/>
		<path d="M37.397,78.896c-0.54-0.228-1.008-0.552-1.415-0.959c-0.408-0.408-0.731-0.875-0.96-1.416
			c-0.228-0.54-0.348-1.127-0.348-1.727s0.12-1.187,0.348-1.739c0.229-0.528,0.552-0.996,0.96-1.416
			c0.407-0.408,0.875-0.719,1.415-0.947s1.127-0.348,1.728-0.348c0.6,0,1.187,0.12,1.738,0.348c0.528,0.228,0.996,0.54,1.416,0.947
			c0.407,0.42,0.719,0.888,0.947,1.416c0.228,0.552,0.348,1.139,0.348,1.739s-0.12,1.188-0.348,1.727
			c-0.229,0.54-0.54,1.008-0.947,1.416c-0.42,0.408-0.888,0.731-1.416,0.959c-0.552,0.228-1.139,0.348-1.738,0.348
			C38.524,79.244,37.937,79.124,37.397,78.896z M36.965,72.635c-0.576,0.576-0.899,1.343-0.899,2.159
			c0,0.816,0.323,1.583,0.899,2.159c0.575,0.576,1.343,0.899,2.159,0.899c0.815,0,1.583-0.324,2.158-0.899
			c0.576-0.576,0.899-1.343,0.899-2.159c0-0.815-0.323-1.583-0.899-2.159c-0.575-0.576-1.343-0.899-2.158-0.899
			C38.308,71.736,37.541,72.06,36.965,72.635z"/>
		<path d="M50.067,79.244l-3.525-4.03v4.03H45.15v-8.899h1.392v3.67l2.854-3.67h1.751l-3.263,4.281l3.922,4.618H50.067z"/>
		<path d="M53.297,79.244v-8.899h1.392v8.899H53.297z"/>
		<path d="M57.929,73.523v5.721h-1.392v-9.319l5.589,6.128v-5.708h1.403v9.307L57.929,73.523z"/>
		<path d="M72.265,75.885v2.411l-0.312,0.216c-0.013,0-0.013,0-0.024,0.012c-0.012,0.012-0.036,0.024-0.048,0.024
			c-0.012,0.012-0.023,0.024-0.036,0.024c-0.012,0.012-0.023,0.024-0.048,0.024c-0.012,0.012-0.023,0.024-0.048,0.036
			c-0.012,0.012-0.024,0.012-0.036,0.024c-0.012,0.012-0.023,0.012-0.036,0.024c-0.023,0.012-0.036,0.012-0.06,0.024
			c-0.012,0.012-0.024,0.012-0.036,0.024c-0.012,0.012-0.036,0.024-0.06,0.024c-0.013,0.012-0.013,0.012-0.024,0.024
			c-0.012,0-0.012,0-0.023,0c-0.013,0.012-0.036,0.024-0.061,0.036c-0.023,0.012-0.06,0.024-0.084,0.036c0,0,0,0-0.012,0.012
			c-0.504,0.228-1.031,0.348-1.596,0.384c0,0,0,0-0.012,0c-0.023,0-0.06,0-0.096,0h-0.012c-0.036,0-0.072,0-0.108,0
			c-0.479,0-0.959-0.072-1.403-0.228c-0.012,0-0.012,0-0.012,0c-0.048-0.012-0.084-0.036-0.132-0.048
			c-0.061-0.024-0.12-0.048-0.18-0.072c-0.156-0.06-0.3-0.132-0.433-0.216c-0.359-0.192-0.695-0.444-0.983-0.744
			c-0.407-0.408-0.731-0.875-0.959-1.416c-0.168-0.408-0.288-0.839-0.324-1.283c-0.012-0.144-0.023-0.3-0.023-0.444
			c0-0.072,0-0.156,0-0.228c0.036-0.516,0.144-1.032,0.348-1.511c0.228-0.528,0.552-1.008,0.959-1.416
			c0.408-0.408,0.876-0.731,1.416-0.947c0.539-0.24,1.127-0.348,1.727-0.348c0.036,0,0.072,0,0.108,0h0.012c0.036,0,0.072,0,0.096,0
			c0.012,0,0.012,0,0.012,0c0.036,0,0.072,0,0.108,0.012c0.516,0.036,1.02,0.156,1.499,0.372c0,0,0,0.012,0.012,0.012
			c0.024,0.012,0.049,0.024,0.072,0.036c0.012,0,0.012,0,0.012,0v1.643c-0.18-0.156-0.384-0.276-0.6-0.384
			c-0.18-0.084-0.371-0.156-0.552-0.204c-0.012,0-0.023,0-0.035-0.012c-0.013,0-0.024,0-0.036,0
			c-0.013-0.012-0.024-0.012-0.048-0.012c0,0-0.013,0-0.024-0.012c-0.048-0.012-0.107-0.012-0.156-0.024c-0.012,0-0.012,0-0.023,0
			s-0.036-0.012-0.048-0.012c-0.013,0-0.013,0-0.024,0s-0.036,0-0.048-0.012c-0.012,0-0.024,0-0.036,0c-0.023,0-0.048,0-0.072,0
			c-0.012,0-0.023-0.012-0.035-0.012c-0.013,0-0.024,0-0.036,0c-0.013,0-0.036,0-0.048,0c-0.013,0-0.024,0-0.024,0
			c-0.023,0-0.06,0-0.084,0c-0.563,0-1.104,0.144-1.571,0.432c-0.012,0.012-0.036,0.024-0.06,0.036
			c-0.192,0.12-0.372,0.264-0.528,0.432c-0.048,0.048-0.107,0.096-0.155,0.156c0,0,0,0.012-0.012,0.012
			c-0.061,0.072-0.108,0.144-0.156,0.216c-0.012,0.012-0.024,0.024-0.024,0.024c-0.023,0.036-0.048,0.072-0.071,0.108
			c-0.013,0.012-0.024,0.036-0.024,0.048c-0.18,0.288-0.3,0.588-0.372,0.912c-0.012,0.012-0.012,0.012-0.012,0.024
			c-0.023,0.12-0.048,0.24-0.06,0.36c0,0.048,0,0.096,0,0.132c-0.013,0.06-0.013,0.108-0.013,0.168c0,0.048,0,0.096,0.013,0.156
			c0.012,0.228,0.048,0.456,0.107,0.671c0.145,0.504,0.408,0.959,0.779,1.332c0.576,0.576,1.344,0.899,2.159,0.899
			c0.024,0,0.061,0,0.084,0c0.012,0,0.024,0,0.036-0.012c0.012,0,0.036,0,0.048,0s0.024,0,0.036,0s0.023,0,0.036,0
			c0.023,0,0.036,0,0.06,0c0-0.012,0.012-0.012,0.024-0.012c0.012,0,0.036,0,0.048,0s0.012,0,0.023,0
			c0.084-0.012,0.181-0.036,0.265-0.048c0.012,0,0.012,0,0.023-0.012c0.012,0,0.036,0,0.048-0.012c0.013,0,0.024,0,0.036,0
			c0.012-0.012,0.024-0.012,0.036-0.012c0.012-0.012,0.036-0.012,0.048-0.012s0.024-0.012,0.024-0.012
			c0.168-0.048,0.336-0.108,0.491-0.192c0,0,0,0,0.012,0v-1.644h-1.679v-1.259h3.07V75.885z"/>
		<path d="M78.904,73.966h3.25v1.26h-3.25v4.018h-1.392v-8.899h1.379h3.97v1.247h-3.957V73.966z"/>
		<path d="M86.342,78.896c-0.54-0.228-1.008-0.552-1.415-0.959c-0.408-0.408-0.731-0.875-0.96-1.416
			c-0.228-0.54-0.348-1.127-0.348-1.727s0.12-1.187,0.348-1.739c0.229-0.528,0.552-0.996,0.96-1.416
			c0.407-0.408,0.875-0.719,1.415-0.947s1.127-0.348,1.728-0.348c0.6,0,1.187,0.12,1.738,0.348c0.528,0.228,0.996,0.54,1.416,0.947
			c0.407,0.42,0.719,0.888,0.947,1.416c0.228,0.552,0.348,1.139,0.348,1.739s-0.12,1.188-0.348,1.727
			c-0.229,0.54-0.54,1.008-0.947,1.416c-0.42,0.408-0.888,0.731-1.416,0.959c-0.552,0.228-1.139,0.348-1.738,0.348
			C87.469,79.244,86.882,79.124,86.342,78.896z M85.911,72.635c-0.576,0.576-0.899,1.343-0.899,2.159
			c0,0.816,0.323,1.583,0.899,2.159c0.575,0.576,1.343,0.899,2.159,0.899c0.815,0,1.583-0.324,2.158-0.899
			c0.576-0.576,0.899-1.343,0.899-2.159c0-0.815-0.323-1.583-0.899-2.159c-0.575-0.576-1.343-0.899-2.158-0.899
			C87.253,71.736,86.486,72.06,85.911,72.635z"/>
		<path d="M100.32,79.244h-1.571l-2.243-3.01h-1.019v3.01h-1.392v-8.899h1.176h1.463c1.175,0,1.858,0.479,2.219,0.887
			c0.468,0.516,0.72,1.235,0.72,2.063c0,0.815-0.252,1.535-0.72,2.051c-0.216,0.24-0.552,0.516-1.031,0.684L100.32,79.244z
			 M96.734,74.986c0.575,0,1.007-0.168,1.283-0.479c0.336-0.36,0.396-0.864,0.396-1.211c0-0.36-0.06-0.864-0.396-1.223
			c-0.276-0.312-0.708-0.468-1.283-0.468h-1.247v3.382H96.734z"/>
		<path d="M110.496,79.244h-3.73h-1.379v-8.899h1.392v7.64h3.718V79.244z"/>
		<path d="M112.91,73.966h3.25v1.26h-3.25v2.758h3.945v1.259h-3.958h-1.379v-8.899h1.379h3.958v1.247h-3.945V73.966z"/>
		<path d="M123.323,77.337h-3.166l-0.756,1.907h-1.535l3.874-9.307l3.861,9.307h-1.522L123.323,77.337z M122.819,76.089l-1.079-2.71
			l-1.079,2.71H122.819z"/>
		<path d="M131.554,77.457c-0.251,0.864-1.031,1.547-2.002,1.739c-0.181,0.036-0.36,0.048-0.54,0.048c-0.36,0-0.72-0.06-1.056-0.192
			c-0.563-0.228-1.056-0.6-1.475-1.139l1.103-0.864c0.252,0.336,0.552,0.576,0.876,0.696c0.264,0.108,0.552,0.132,0.815,0.072
			c0.456-0.084,0.827-0.384,0.936-0.744c0.12-0.408-0.156-0.768-0.408-1.007c-0.396-0.372-1.043-1.007-1.091-1.056l-1.092-1.031
			c-0.336-0.324-0.563-0.684-0.684-1.067c-0.12-0.372-0.132-0.768-0.023-1.127c0.107-0.384,0.336-0.72,0.659-0.996
			c0.3-0.251,0.672-0.432,1.067-0.503c0.432-0.096,0.888-0.06,1.319,0.096c0.456,0.18,0.863,0.48,1.211,0.899l-1.091,0.876
			c-0.456-0.552-0.924-0.552-1.176-0.504c-0.312,0.06-0.575,0.264-0.647,0.516c-0.048,0.168-0.036,0.444,0.336,0.804l1.487,1.427
			c0.216,0.216,0.479,0.468,0.672,0.647c0.384,0.348,0.647,0.744,0.779,1.164C131.663,76.617,131.674,77.049,131.554,77.457z"/>
		<path d="M133.177,79.244v-8.899h1.392v8.899H133.177z"/>
		<path d="M137.809,73.523v5.721h-1.392v-9.319l5.589,6.128v-5.708h1.403v9.307L137.809,73.523z"/>
		<path d="M152.145,75.885v2.411l-0.312,0.216c-0.012,0-0.012,0-0.024,0.012c-0.012,0.012-0.036,0.024-0.048,0.024
			c-0.012,0.012-0.023,0.024-0.036,0.024c-0.012,0.012-0.023,0.024-0.048,0.024c-0.012,0.012-0.023,0.024-0.048,0.036
			c-0.012,0.012-0.024,0.012-0.036,0.024c-0.012,0.012-0.023,0.012-0.036,0.024c-0.023,0.012-0.036,0.012-0.06,0.024
			c-0.012,0.012-0.024,0.012-0.036,0.024c-0.012,0.012-0.036,0.024-0.06,0.024c-0.013,0.012-0.013,0.012-0.024,0.024
			c-0.012,0-0.012,0-0.023,0c-0.013,0.012-0.036,0.024-0.061,0.036c-0.023,0.012-0.06,0.024-0.084,0.036c0,0,0,0-0.012,0.012
			c-0.504,0.228-1.031,0.348-1.596,0.384c0,0,0,0-0.012,0c-0.023,0-0.06,0-0.096,0h-0.012c-0.036,0-0.072,0-0.108,0
			c-0.479,0-0.959-0.072-1.403-0.228c-0.012,0-0.012,0-0.012,0c-0.048-0.012-0.084-0.036-0.132-0.048
			c-0.061-0.024-0.12-0.048-0.18-0.072c-0.156-0.06-0.3-0.132-0.432-0.216c-0.36-0.192-0.696-0.444-0.984-0.744
			c-0.407-0.408-0.731-0.875-0.959-1.416c-0.168-0.408-0.288-0.839-0.324-1.283c-0.012-0.144-0.023-0.3-0.023-0.444
			c0-0.072,0-0.156,0-0.228c0.036-0.516,0.144-1.032,0.348-1.511c0.228-0.528,0.552-1.008,0.959-1.416
			c0.408-0.408,0.876-0.731,1.416-0.947c0.539-0.24,1.127-0.348,1.727-0.348c0.036,0,0.072,0,0.108,0h0.012c0.036,0,0.072,0,0.096,0
			c0.012,0,0.012,0,0.012,0c0.036,0,0.072,0,0.108,0.012c0.516,0.036,1.02,0.156,1.499,0.372c0,0,0,0.012,0.012,0.012
			c0.024,0.012,0.049,0.024,0.072,0.036c0.012,0,0.012,0,0.012,0v1.643c-0.18-0.156-0.384-0.276-0.6-0.384
			c-0.18-0.084-0.371-0.156-0.552-0.204c-0.012,0-0.023,0-0.035-0.012c-0.013,0-0.024,0-0.036,0
			c-0.013-0.012-0.024-0.012-0.048-0.012c0,0-0.013,0-0.024-0.012c-0.048-0.012-0.108-0.012-0.156-0.024c-0.012,0-0.012,0-0.023,0
			s-0.036-0.012-0.048-0.012c-0.013,0-0.013,0-0.024,0s-0.036,0-0.048-0.012c-0.012,0-0.024,0-0.036,0c-0.023,0-0.048,0-0.072,0
			c-0.012,0-0.023-0.012-0.035-0.012c-0.013,0-0.024,0-0.036,0s-0.036,0-0.048,0c-0.013,0-0.024,0-0.024,0c-0.023,0-0.06,0-0.084,0
			c-0.563,0-1.104,0.144-1.571,0.432c-0.012,0.012-0.036,0.024-0.06,0.036c-0.192,0.12-0.372,0.264-0.527,0.432
			c-0.049,0.048-0.108,0.096-0.156,0.156c0,0,0,0.012-0.012,0.012c-0.061,0.072-0.108,0.144-0.156,0.216
			c-0.012,0.012-0.024,0.024-0.024,0.024c-0.023,0.036-0.048,0.072-0.071,0.108c-0.013,0.012-0.024,0.036-0.024,0.048
			c-0.18,0.288-0.3,0.588-0.372,0.912c-0.012,0.012-0.012,0.012-0.012,0.024c-0.023,0.12-0.048,0.24-0.06,0.36
			c0,0.048,0,0.096,0,0.132c-0.013,0.06-0.013,0.108-0.013,0.168c0,0.048,0,0.096,0.013,0.156c0.012,0.228,0.048,0.456,0.107,0.671
			c0.145,0.504,0.408,0.959,0.78,1.332c0.575,0.576,1.343,0.899,2.158,0.899c0.024,0,0.061,0,0.084,0c0.012,0,0.024,0,0.036-0.012
			c0.012,0,0.036,0,0.048,0s0.024,0,0.036,0s0.023,0,0.036,0c0.023,0,0.036,0,0.06,0c0-0.012,0.012-0.012,0.024-0.012
			c0.012,0,0.036,0,0.048,0s0.012,0,0.023,0c0.084-0.012,0.181-0.036,0.265-0.048c0.012,0,0.012,0,0.023-0.012
			c0.012,0,0.036,0,0.048-0.012c0.013,0,0.024,0,0.036,0c0.012-0.012,0.024-0.012,0.036-0.012c0.012-0.012,0.036-0.012,0.048-0.012
			s0.024-0.012,0.024-0.012c0.168-0.048,0.336-0.108,0.491-0.192c0,0,0,0,0.012,0v-1.644h-1.679v-1.259h3.07V75.885z"/>
		<path d="M19.817,91.345h1.463c1.175,0,1.858,0.479,2.219,0.875c0.479,0.527,0.72,1.235,0.72,2.063c0,0.828-0.24,1.547-0.72,2.063
			c-0.36,0.408-1.043,0.889-2.219,0.889h-1.248v3.01h-1.391v-8.898H19.817z M22.971,94.283c0-0.348-0.071-0.852-0.396-1.211
			c-0.288-0.313-0.719-0.48-1.295-0.48h-1.248v3.383h1.248c0.576,0,1.007-0.156,1.295-0.468
			C22.9,95.146,22.971,94.642,22.971,94.283z"/>
		<path d="M31.598,100.244h-1.571l-2.243-3.01h-1.019v3.01h-1.392v-8.898h1.175h1.464c1.175,0,1.858,0.479,2.219,0.887
			c0.468,0.516,0.72,1.235,0.72,2.063c0,0.816-0.252,1.535-0.72,2.051c-0.216,0.24-0.552,0.516-1.031,0.684L31.598,100.244z
			 M28.012,95.986c0.575,0,1.007-0.168,1.283-0.479c0.336-0.36,0.396-0.864,0.396-1.212c0-0.359-0.06-0.863-0.396-1.223
			c-0.276-0.313-0.708-0.468-1.283-0.468h-1.247v3.382H28.012z"/>
		<path d="M35.5,99.896c-0.54-0.229-1.008-0.552-1.415-0.959c-0.408-0.408-0.731-0.876-0.96-1.416
			c-0.228-0.539-0.348-1.127-0.348-1.727s0.12-1.188,0.348-1.739c0.229-0.528,0.552-0.995,0.96-1.415
			c0.407-0.408,0.875-0.72,1.415-0.947c0.54-0.229,1.127-0.348,1.728-0.348c0.6,0,1.187,0.119,1.738,0.348
			c0.528,0.228,0.996,0.539,1.416,0.947c0.407,0.42,0.719,0.887,0.947,1.415c0.228,0.552,0.348,1.14,0.348,1.739
			s-0.12,1.188-0.348,1.727c-0.229,0.54-0.54,1.008-0.947,1.416c-0.42,0.407-0.888,0.73-1.416,0.959
			c-0.552,0.228-1.139,0.348-1.738,0.348C36.627,100.244,36.041,100.124,35.5,99.896z M35.069,93.635
			c-0.576,0.575-0.899,1.343-0.899,2.159c0,0.815,0.323,1.583,0.899,2.158c0.575,0.576,1.343,0.9,2.159,0.9
			c0.815,0,1.583-0.324,2.158-0.9c0.576-0.575,0.899-1.343,0.899-2.158c0-0.816-0.323-1.584-0.899-2.159
			c-0.575-0.575-1.343-0.899-2.158-0.899C36.412,92.736,35.644,93.06,35.069,93.635z"/>
		<path d="M44.429,91.345h1.463c1.175,0,1.858,0.479,2.219,0.875c0.479,0.527,0.72,1.235,0.72,2.063c0,0.828-0.24,1.547-0.72,2.063
			c-0.36,0.408-1.044,0.889-2.219,0.889h-1.247v3.01h-1.392v-8.898H44.429z M47.583,94.283c0-0.348-0.071-0.852-0.396-1.211
			c-0.288-0.313-0.72-0.48-1.295-0.48h-1.247v3.383h1.247c0.575,0,1.007-0.156,1.295-0.468
			C47.511,95.146,47.583,94.642,47.583,94.283z"/>
		<path d="M51.376,94.966h3.25v1.26h-3.25v2.758h3.945v1.26h-3.958h-1.379v-8.898h1.379h3.958v1.246h-3.945V94.966z"/>
		<path d="M63.193,100.244h-1.571l-2.243-3.01H58.36v3.01h-1.392v-8.898h1.176h1.463c1.175,0,1.858,0.479,2.219,0.887
			c0.468,0.516,0.72,1.235,0.72,2.063c0,0.816-0.252,1.535-0.72,2.051c-0.216,0.24-0.552,0.516-1.031,0.684L63.193,100.244z
			 M59.607,95.986c0.575,0,1.007-0.168,1.283-0.479c0.336-0.36,0.396-0.864,0.396-1.212c0-0.359-0.06-0.863-0.396-1.223
			c-0.276-0.313-0.708-0.468-1.283-0.468H58.36v3.382H59.607z"/>
		<path d="M70.38,92.591h-2.446v7.652h-1.403v-7.652h-2.447v-1.246h6.297V92.591z"/>
		<path d="M71.667,100.244v-8.898h1.392v8.898H71.667z"/>
		<path d="M76.299,94.966h3.25v1.26h-3.25v2.758h3.945v1.26h-3.958h-1.379v-8.898h1.379h3.958v1.246h-3.945V94.966z"/>
		<path d="M86.604,98.457c-0.251,0.863-1.031,1.547-2.003,1.739c-0.18,0.036-0.359,0.048-0.539,0.048
			c-0.36,0-0.72-0.061-1.056-0.191c-0.563-0.229-1.056-0.6-1.476-1.14l1.104-0.864c0.252,0.336,0.552,0.576,0.876,0.696
			c0.264,0.108,0.552,0.132,0.815,0.071c0.456-0.084,0.827-0.383,0.936-0.743c0.12-0.407-0.156-0.768-0.408-1.007
			c-0.396-0.372-1.043-1.008-1.091-1.057l-1.092-1.031c-0.336-0.323-0.563-0.684-0.684-1.066c-0.12-0.372-0.132-0.768-0.023-1.128
			c0.107-0.384,0.335-0.72,0.659-0.995c0.3-0.252,0.672-0.432,1.067-0.504c0.432-0.096,0.888-0.061,1.319,0.096
			c0.456,0.18,0.863,0.48,1.211,0.899l-1.091,0.876c-0.456-0.552-0.924-0.552-1.176-0.504c-0.312,0.061-0.575,0.264-0.647,0.516
			c-0.048,0.168-0.036,0.443,0.336,0.804l1.487,1.427c0.216,0.217,0.479,0.469,0.672,0.648c0.384,0.348,0.647,0.743,0.779,1.163
			C86.712,97.617,86.724,98.048,86.604,98.457z"/>
		<path d="M93.708,93.611c-0.132,0.637-0.503,1.308-1.127,2.004c-0.06,0.06-0.132,0.131-0.216,0.215c-0.3,0.301-0.54,0.6-0.72,0.924
			c-0.228,0.42-0.359,0.863-0.384,1.319c-0.144-0.071-0.396-0.168-0.756-0.168c-0.336,0-0.575,0.084-0.719,0.168
			c0.035-0.671,0.216-1.308,0.563-1.919c0.228-0.42,0.539-0.815,0.911-1.199c0.072-0.061,0.132-0.12,0.168-0.156
			c0.384-0.432,0.647-0.827,0.768-1.199c0.132-0.371,0.096-0.695-0.084-0.936c-0.144-0.203-0.396-0.348-0.708-0.432
			c-0.155-0.035-0.323-0.061-0.491-0.061c-0.18,0-0.359,0.025-0.516,0.072c-0.288,0.072-0.528,0.204-0.695,0.396
			c-0.204,0.228-0.324,0.527-0.336,0.899h-1.476c0.024-0.636,0.228-1.2,0.6-1.644c0.36-0.432,0.863-0.743,1.463-0.899
			c0.313-0.084,0.636-0.132,0.96-0.132c1.008,0,1.931,0.408,2.435,1.08C93.696,92.412,93.828,93,93.708,93.611z M91.297,99.44
			c0,0.444-0.36,0.804-0.804,0.804s-0.804-0.359-0.804-0.804c0-0.443,0.36-0.804,0.804-0.804S91.297,98.997,91.297,99.44z"/>
	</g>
	<g>
		<path d="M380.642,64.243v-8.899h1.392v8.899H380.642z"/>
		<path d="M389.603,56.591h-2.447v7.652h-1.402v-7.652h-2.447v-1.247h6.297V56.591z"/>
		<path d="M394.49,64.243v-8.899h1.393v8.899H394.49z"/>
		<path d="M402.443,62.456c-0.25,0.864-1.031,1.547-2.002,1.739c-0.18,0.036-0.359,0.048-0.539,0.048
			c-0.361,0-0.721-0.06-1.057-0.192c-0.563-0.228-1.055-0.6-1.475-1.139l1.104-0.864c0.252,0.336,0.551,0.576,0.875,0.696
			c0.264,0.108,0.553,0.132,0.816,0.072c0.455-0.084,0.826-0.384,0.936-0.744c0.119-0.408-0.156-0.768-0.408-1.007
			c-0.396-0.372-1.043-1.007-1.092-1.056l-1.092-1.031c-0.336-0.324-0.563-0.684-0.684-1.067c-0.119-0.372-0.131-0.768-0.023-1.127
			c0.107-0.384,0.336-0.72,0.66-0.996c0.299-0.251,0.672-0.432,1.066-0.503c0.432-0.096,0.889-0.06,1.32,0.096
			c0.455,0.18,0.863,0.48,1.211,0.899l-1.092,0.876c-0.455-0.552-0.924-0.552-1.176-0.504c-0.311,0.06-0.574,0.264-0.646,0.516
			c-0.049,0.168-0.037,0.444,0.336,0.804l1.486,1.427c0.217,0.216,0.48,0.468,0.672,0.647c0.385,0.348,0.648,0.744,0.779,1.164
			C402.552,61.617,402.564,62.048,402.443,62.456z"/>
		<path d="M413.183,61.604c0,0.444-0.096,0.84-0.287,1.199c-0.193,0.336-0.469,0.624-0.816,0.852
			c-0.611,0.384-1.439,0.588-2.447,0.588h-0.791h-1.176v-8.899h1.393h0.574c0.984,0,1.703,0.18,2.207,0.551
			c0.275,0.204,0.48,0.468,0.611,0.768c0.121,0.276,0.18,0.588,0.18,0.936c0,0.48-0.154,1.067-0.695,1.631
			c0.145,0.096,0.277,0.204,0.408,0.324c0.264,0.264,0.469,0.552,0.611,0.875C413.111,60.789,413.183,61.185,413.183,61.604z
			 M409.058,56.591v2.699c0.275-0.06,0.6-0.156,0.91-0.288c0.443-0.18,0.791-0.384,1.031-0.624c0.252-0.24,0.373-0.492,0.373-0.78
			c0-0.432-0.156-0.6-0.289-0.695c-0.336-0.252-0.982-0.312-1.451-0.312H409.058z M411.935,61.604c0-0.468-0.156-0.839-0.467-1.139
			c-0.18-0.18-0.408-0.324-0.684-0.444c-0.121,0.048-0.24,0.108-0.373,0.156c-0.49,0.204-0.982,0.324-1.354,0.408v2.399h0.574
			c0.756,0,1.367-0.132,1.764-0.384C411.767,62.36,411.935,62.048,411.935,61.604z"/>
		<path d="M416.113,58.966h3.25v1.26h-3.25v2.758h3.945v1.259h-3.957h-1.379v-8.899h1.379h3.957v1.247h-3.945V58.966z"/>
		<path d="M426.417,62.456c-0.25,0.864-1.031,1.547-2.002,1.739c-0.18,0.036-0.359,0.048-0.539,0.048
			c-0.361,0-0.721-0.06-1.057-0.192c-0.563-0.228-1.055-0.6-1.475-1.139l1.104-0.864c0.252,0.336,0.551,0.576,0.875,0.696
			c0.264,0.108,0.553,0.132,0.816,0.072c0.455-0.084,0.826-0.384,0.936-0.744c0.119-0.408-0.156-0.768-0.408-1.007
			c-0.396-0.372-1.043-1.007-1.092-1.056l-1.092-1.031c-0.336-0.324-0.563-0.684-0.684-1.067c-0.119-0.372-0.131-0.768-0.023-1.127
			c0.107-0.384,0.336-0.72,0.66-0.996c0.299-0.251,0.672-0.432,1.066-0.503c0.432-0.096,0.889-0.06,1.32,0.096
			c0.455,0.18,0.863,0.48,1.211,0.899l-1.092,0.876c-0.455-0.552-0.924-0.552-1.176-0.504c-0.311,0.06-0.574,0.264-0.646,0.516
			c-0.049,0.168-0.037,0.444,0.336,0.804l1.486,1.427c0.217,0.216,0.48,0.468,0.672,0.647c0.385,0.348,0.648,0.744,0.779,1.164
			C426.527,61.617,426.539,62.048,426.417,62.456z"/>
		<path d="M433.761,56.591h-2.445v7.652h-1.404v-7.652h-2.447v-1.247h6.297V56.591z"/>
		<path d="M444.369,56.591h-2.445v7.652h-1.404v-7.652h-2.447v-1.247h6.297V56.591z"/>
		<path d="M448.091,63.896c-0.541-0.228-1.008-0.552-1.416-0.959s-0.73-0.875-0.959-1.416c-0.229-0.54-0.348-1.127-0.348-1.727
			s0.119-1.187,0.348-1.739c0.229-0.528,0.551-0.996,0.959-1.416c0.408-0.408,0.875-0.719,1.416-0.947
			c0.539-0.228,1.127-0.348,1.727-0.348s1.188,0.12,1.738,0.348c0.529,0.228,0.996,0.54,1.416,0.947
			c0.408,0.42,0.719,0.888,0.947,1.416c0.229,0.552,0.348,1.139,0.348,1.739s-0.119,1.188-0.348,1.727
			c-0.229,0.54-0.539,1.008-0.947,1.416c-0.42,0.408-0.887,0.731-1.416,0.959c-0.551,0.228-1.139,0.348-1.738,0.348
			S448.63,64.123,448.091,63.896z M447.66,57.635c-0.576,0.576-0.9,1.343-0.9,2.159c0,0.816,0.324,1.583,0.9,2.159
			c0.574,0.576,1.342,0.899,2.158,0.899s1.584-0.324,2.158-0.899c0.576-0.576,0.9-1.343,0.9-2.159c0-0.815-0.324-1.583-0.9-2.159
			c-0.574-0.576-1.342-0.899-2.158-0.899S448.234,57.059,447.66,57.635z"/>
		<path d="M464.156,62.456c-0.25,0.864-1.031,1.547-2.002,1.739c-0.18,0.036-0.359,0.048-0.539,0.048
			c-0.361,0-0.721-0.06-1.057-0.192c-0.563-0.228-1.055-0.6-1.475-1.139l1.104-0.864c0.252,0.336,0.551,0.576,0.875,0.696
			c0.264,0.108,0.553,0.132,0.816,0.072c0.455-0.084,0.826-0.384,0.936-0.744c0.119-0.408-0.156-0.768-0.408-1.007
			c-0.396-0.372-1.043-1.007-1.092-1.056l-1.092-1.031c-0.336-0.324-0.563-0.684-0.684-1.067c-0.119-0.372-0.131-0.768-0.023-1.127
			c0.107-0.384,0.336-0.72,0.66-0.996c0.299-0.251,0.672-0.432,1.066-0.503c0.432-0.096,0.889-0.06,1.32,0.096
			c0.455,0.18,0.863,0.48,1.211,0.899l-1.092,0.876c-0.455-0.552-0.924-0.552-1.176-0.504c-0.311,0.06-0.574,0.264-0.646,0.516
			c-0.049,0.168-0.037,0.444,0.336,0.804l1.486,1.427c0.217,0.216,0.48,0.468,0.672,0.647c0.385,0.348,0.648,0.744,0.779,1.164
			C464.265,61.617,464.277,62.048,464.156,62.456z"/>
		<path d="M471.5,56.591h-2.445v7.652h-1.404v-7.652h-2.447v-1.247h6.297V56.591z"/>
		<path d="M477.609,62.336h-3.166l-0.756,1.907h-1.535l3.873-9.307l3.861,9.307h-1.521L477.609,62.336z M477.105,61.089l-1.08-2.71
			l-1.078,2.71H477.105z"/>
		<path d="M487.351,64.243h-1.57l-2.244-3.01h-1.018v3.01h-1.393v-8.899h1.176h1.463c1.176,0,1.859,0.479,2.219,0.887
			c0.469,0.516,0.721,1.235,0.721,2.063c0,0.815-0.252,1.535-0.721,2.051c-0.215,0.24-0.551,0.516-1.031,0.684L487.351,64.243z
			 M483.765,59.985c0.576,0,1.008-0.168,1.283-0.479c0.336-0.36,0.396-0.864,0.396-1.211c0-0.36-0.061-0.864-0.396-1.223
			c-0.275-0.312-0.707-0.468-1.283-0.468h-1.246v3.382H483.765z"/>
		<path d="M494.539,56.591h-2.445v7.652h-1.404v-7.652h-2.447v-1.247h6.297V56.591z"/>
		<path fill="#F7931E" d="M387.439,85.333v1.653h-7.298l1.009-1.317c1.919-2.535,2.773-3.67,3.852-5.113
			c0.309-0.42,0.504-0.84,0.561-1.176c0.027-0.252,0-0.462-0.111-0.63c-0.225-0.378-0.757-0.588-1.303-0.504
			c-0.309,0.056-0.589,0.182-0.813,0.392c-0.252,0.238-0.449,0.574-0.547,0.98l-1.457-0.854c0.196-0.532,0.504-0.98,0.896-1.345
			c0.463-0.42,1.037-0.7,1.668-0.798c1.203-0.182,2.408,0.322,2.969,1.275c0.309,0.504,0.42,1.092,0.322,1.723
			c-0.084,0.617-0.379,1.275-0.869,1.919c-0.881,1.176-1.596,2.143-2.857,3.796H387.439z"/>
		<path fill="#F7931E" d="M390.908,86.369l-0.742,2.115h-0.561l0.336-1.498c-0.518-0.028-0.924-0.449-0.924-0.98
			c0-0.533,0.434-0.967,0.98-0.967c0.533,0,0.98,0.434,0.98,0.967C390.978,86.145,390.951,86.257,390.908,86.369z"/>
		<path fill="#F7931E" d="M395.81,86.986c-1.064-0.07-2.158-0.49-3.279-1.262l0.926-1.33c1.541,1.078,2.996,1.261,3.979,0.532
			c0.699-0.532,1.035-1.457,0.783-2.213c-0.125-0.35-0.35-0.63-0.699-0.84c-0.436-0.266-1.023-0.392-1.752-0.392l-1.387,0.014
			l1.793-3.292h-2.984v-1.611h5.73l-1.863,3.39c0.49,0.112,0.924,0.28,1.316,0.504c0.658,0.406,1.135,0.995,1.373,1.709
			c0.238,0.687,0.225,1.471-0.014,2.199c-0.252,0.714-0.715,1.373-1.316,1.82c-0.674,0.505-1.486,0.771-2.369,0.771
			C395.962,86.986,395.878,86.986,395.81,86.986z"/>
		<path fill="#F7931E" d="M415.484,87.448l-2.746-6.262l-2.578,6.262l-4.762-10.856h1.793l2.928,6.85l1.723-4.314l0.84-2.143
			l0.91,2.115l1.85,4.342l2.732-6.85h1.777L415.484,87.448z"/>
		<path fill="#F7931E" d="M423.234,80.822h3.797v1.471h-3.797v3.222h4.609v1.471h-4.623h-1.611V76.592h1.611h4.623v1.457h-4.609
			V80.822z"/>
		<path fill="#F7931E" d="M431.382,80.822h3.795v1.471h-3.795v3.222h4.607v1.471h-4.623h-1.609V76.592h1.609h4.623v1.457h-4.607
			V80.822z"/>
		<path fill="#F7931E" d="M443.648,86.986l-4.119-4.707v4.707h-1.625V76.592h1.625v4.286l3.334-4.286h2.045l-3.811,5l4.582,5.394
			H443.648z"/>
		<path fill="#F7931E" d="M452.916,84.898c-0.295,1.008-1.205,1.806-2.34,2.031c-0.211,0.042-0.42,0.057-0.631,0.057
			c-0.42,0-0.84-0.07-1.232-0.225c-0.658-0.266-1.232-0.7-1.723-1.33l1.289-1.009c0.293,0.392,0.645,0.672,1.021,0.813
			c0.309,0.126,0.645,0.154,0.953,0.083c0.533-0.098,0.967-0.448,1.092-0.868c0.141-0.477-0.182-0.896-0.475-1.177
			c-0.463-0.435-1.219-1.177-1.275-1.233l-1.275-1.205c-0.391-0.378-0.658-0.798-0.797-1.247c-0.141-0.434-0.154-0.896-0.029-1.317
			c0.127-0.448,0.393-0.84,0.771-1.163c0.35-0.294,0.783-0.504,1.246-0.588c0.504-0.112,1.037-0.07,1.541,0.112
			c0.531,0.21,1.008,0.56,1.414,1.051l-1.273,1.022c-0.533-0.645-1.08-0.645-1.373-0.588c-0.365,0.07-0.674,0.308-0.758,0.602
			c-0.055,0.196-0.041,0.519,0.393,0.938l1.738,1.667c0.252,0.252,0.559,0.546,0.783,0.756c0.449,0.406,0.756,0.869,0.91,1.359
			C453.041,83.917,453.054,84.422,452.916,84.898z"/>
		<path fill="#F7931E" d="M465.445,83.904c0,0.518-0.111,0.98-0.336,1.4c-0.225,0.393-0.547,0.729-0.953,0.994
			c-0.713,0.449-1.68,0.688-2.857,0.688h-0.924h-1.373V76.592h1.625h0.672c1.148,0,1.99,0.21,2.578,0.645
			c0.322,0.238,0.561,0.546,0.715,0.896c0.139,0.322,0.209,0.686,0.209,1.092c0,0.561-0.182,1.247-0.813,1.905
			c0.168,0.112,0.322,0.238,0.477,0.378c0.309,0.308,0.547,0.645,0.715,1.022C465.361,82.951,465.445,83.414,465.445,83.904z
			 M460.626,78.048V81.2c0.322-0.07,0.701-0.182,1.064-0.336c0.52-0.21,0.924-0.448,1.205-0.729c0.295-0.28,0.434-0.574,0.434-0.911
			c0-0.504-0.182-0.7-0.336-0.813c-0.393-0.294-1.148-0.364-1.695-0.364H460.626z M463.988,83.904c0-0.546-0.182-0.98-0.545-1.331
			c-0.211-0.21-0.477-0.378-0.799-0.518c-0.141,0.056-0.281,0.126-0.434,0.182c-0.576,0.238-1.15,0.378-1.584,0.476v2.802h0.672
			c0.883,0,1.598-0.154,2.061-0.449C463.792,84.786,463.988,84.422,463.988,83.904z"/>
		<path fill="#F7931E" d="M468.859,80.822h3.797v1.471h-3.797v3.222h4.609v1.471h-4.623h-1.611V76.592h1.611h4.623v1.457h-4.609
			V80.822z"/>
		<path fill="#F7931E" d="M477.007,80.822h3.795v1.471h-3.795v4.693h-1.625V76.592h1.609h4.637v1.457h-4.621V80.822z"/>
		<path fill="#F7931E" d="M485.687,86.58c-0.631-0.267-1.176-0.645-1.652-1.121c-0.477-0.476-0.855-1.022-1.121-1.653
			s-0.406-1.317-0.406-2.017s0.141-1.387,0.406-2.031c0.266-0.616,0.645-1.163,1.121-1.653c0.477-0.476,1.021-0.84,1.652-1.106
			s1.316-0.406,2.018-0.406c0.699,0,1.387,0.14,2.031,0.406c0.615,0.266,1.162,0.63,1.652,1.106c0.477,0.49,0.84,1.037,1.107,1.653
			c0.266,0.645,0.406,1.331,0.406,2.031s-0.141,1.387-0.406,2.017c-0.268,0.63-0.631,1.177-1.107,1.653
			c-0.49,0.477-1.037,0.854-1.652,1.121c-0.645,0.266-1.332,0.406-2.031,0.406C487.003,86.986,486.318,86.845,485.687,86.58z
			 M485.183,79.267c-0.672,0.672-1.051,1.569-1.051,2.521s0.379,1.849,1.051,2.521s1.568,1.051,2.521,1.051
			c0.951,0,1.848-0.378,2.521-1.051c0.672-0.672,1.051-1.569,1.051-2.521s-0.379-1.849-1.051-2.521
			c-0.674-0.672-1.57-1.05-2.521-1.05C486.751,78.217,485.855,78.595,485.183,79.267z"/>
		<path fill="#F7931E" d="M502,86.986h-1.836l-2.619-3.517h-1.189v3.517h-1.625V76.592h1.371h1.709c1.373,0,2.172,0.56,2.592,1.037
			c0.547,0.602,0.842,1.443,0.842,2.409c0,0.953-0.295,1.793-0.842,2.396c-0.252,0.28-0.645,0.602-1.205,0.798L502,86.986z
			 M497.81,82.013c0.674,0,1.178-0.196,1.5-0.561c0.393-0.42,0.463-1.008,0.463-1.415c0-0.42-0.07-1.008-0.463-1.429
			c-0.322-0.364-0.826-0.546-1.5-0.546h-1.455v3.95H497.81z"/>
		<path fill="#F7931E" d="M505.328,80.822h3.797v1.471h-3.797v3.222h4.609v1.471h-4.623h-1.611V76.592h1.611h4.623v1.457h-4.609
			V80.822z"/>
		<path d="M386.363,102.091h-2.446v7.652h-1.403v-7.652h-2.446v-1.247h6.296V102.091z"/>
		<path d="M393.982,109.744h-1.391v-3.838h-3.549v3.838h-1.393v-8.899h1.393v3.802h3.549v-3.802h1.391V109.744z"/>
		<path d="M397.238,104.466h3.25v1.26h-3.25v2.758h3.945v1.26h-3.957h-1.379v-8.899h1.379h3.957v1.247h-3.945V104.466z"/>
		<path d="M407.822,104.466h3.25v1.26h-3.25v2.758h3.945v1.26h-3.959h-1.379v-8.899h1.379h3.959v1.247h-3.945V104.466z"/>
		<path d="M419.65,109.744l-2.375-3.479l-2.363,3.479h-1.75l3.238-4.762l-2.818-4.138h1.75l1.943,2.854l1.955-2.854h1.75
			l-2.83,4.138l3.25,4.762H419.65z"/>
		<path d="M424.201,100.844h1.463c1.176,0,1.859,0.479,2.219,0.876c0.48,0.527,0.721,1.234,0.721,2.063
			c0,0.827-0.24,1.547-0.721,2.063c-0.359,0.408-1.043,0.888-2.219,0.888h-1.246v3.011h-1.393v-8.899H424.201z M427.355,103.783
			c0-0.348-0.072-0.852-0.396-1.211c-0.287-0.313-0.719-0.48-1.295-0.48h-1.246v3.383h1.246c0.576,0,1.008-0.156,1.295-0.469
			C427.283,104.646,427.355,104.142,427.355,103.783z"/>
		<path d="M431.148,104.466h3.25v1.26h-3.25v2.758h3.945v1.26h-3.957h-1.379v-8.899h1.379h3.957v1.247h-3.945V104.466z"/>
		<path d="M443.277,109.011c-0.229,0.145-0.469,0.276-0.721,0.385c-0.551,0.227-1.139,0.348-1.738,0.348s-1.188-0.121-1.727-0.348
			c-0.541-0.229-1.008-0.553-1.416-0.96s-0.73-0.876-0.959-1.415c-0.229-0.54-0.348-1.128-0.348-1.728s0.119-1.187,0.348-1.739
			c0.229-0.527,0.551-1.008,0.959-1.415s0.875-0.731,1.416-0.947c0.539-0.239,1.127-0.348,1.727-0.348s1.188,0.108,1.738,0.348
			c0.061,0.024,0.133,0.06,0.193,0.084v1.644c-0.541-0.444-1.213-0.684-1.932-0.684c-0.816,0-1.584,0.311-2.158,0.898
			c-0.576,0.576-0.9,1.344-0.9,2.159s0.324,1.583,0.9,2.159c0.574,0.576,1.342,0.899,2.158,0.899s1.584-0.323,2.158-0.899
			c0.109-0.107,0.205-0.217,0.301-0.336V109.011z"/>
		<path d="M450.585,102.091h-2.447v7.652h-1.402v-7.652h-2.447v-1.247h6.297V102.091z"/>
		<path d="M453.263,104.466h3.25v1.26h-3.25v2.758h3.945v1.26h-3.957h-1.379v-8.899h1.379h3.957v1.247h-3.945V104.466z"/>
		<path d="M465.416,105.293c0,1.259-0.371,2.339-1.08,3.118c-0.383,0.432-0.863,0.768-1.426,0.984
			c-0.576,0.227-1.225,0.348-1.943,0.348h-1.643h-0.469v-8.899h1.393h0.719c0.719,0,1.367,0.108,1.943,0.348
			c0.563,0.216,1.043,0.552,1.426,0.983C465.044,102.955,465.416,104.035,465.416,105.293z M464.025,105.293
			c0-0.911-0.252-1.667-0.721-2.183c-0.527-0.588-1.307-0.875-2.338-0.875h-0.719v6.116h0.719c1.031,0,1.811-0.3,2.338-0.876
			C463.773,106.96,464.025,106.193,464.025,105.293z"/>
		<path d="M387.611,130.744v-4.727l-2.783,4.15l-2.794-4.15v4.727h-1.392v-9.307l4.186,6.236l4.186-6.236v9.307H387.611z"/>
		<path d="M393.314,130.396c-0.541-0.229-1.008-0.553-1.416-0.96s-0.73-0.876-0.959-1.415c-0.229-0.54-0.348-1.128-0.348-1.728
			s0.119-1.187,0.348-1.739c0.229-0.527,0.551-0.995,0.959-1.415c0.408-0.407,0.875-0.72,1.416-0.947
			c0.539-0.228,1.127-0.348,1.727-0.348s1.188,0.12,1.738,0.348c0.529,0.228,0.996,0.54,1.416,0.947
			c0.408,0.42,0.719,0.888,0.947,1.415c0.229,0.553,0.348,1.14,0.348,1.739s-0.119,1.188-0.348,1.728
			c-0.229,0.539-0.539,1.008-0.947,1.415c-0.42,0.407-0.887,0.731-1.416,0.96c-0.551,0.227-1.139,0.348-1.738,0.348
			S393.853,130.623,393.314,130.396z M392.882,124.134c-0.576,0.576-0.9,1.344-0.9,2.159s0.324,1.583,0.9,2.159
			c0.574,0.576,1.342,0.899,2.158,0.899s1.584-0.323,2.158-0.899c0.576-0.576,0.9-1.344,0.9-2.159s-0.324-1.583-0.9-2.159
			c-0.574-0.575-1.342-0.898-2.158-0.898S393.457,123.559,392.882,124.134z"/>
		<path d="M404.472,127.708l2.34-5.864h1.51l-3.813,9.295l-4.078-9.295h1.535L404.472,127.708z"/>
		<path d="M410.955,125.466h3.25v1.26h-3.25v2.758h3.945v1.26h-3.959h-1.379v-8.899h1.379h3.959v1.247h-3.945V125.466z"/>
		<path d="M416.546,126.893v-1.199h3.742v1.199H416.546z"/>
		<path d="M422.15,130.744v-8.899h1.391v8.899H422.15z"/>
		<path d="M426.781,125.023v5.721h-1.391v-9.319l5.588,6.128v-5.708h1.404v9.307L426.781,125.023z"/>
		<path d="M443.566,123.091h-2.447v7.652h-1.402v-7.652h-2.447v-1.247h6.297V123.091z"/>
		<path d="M444.853,130.744v-8.899h1.391v8.899H444.853z"/>
		<path d="M455.06,130.744v-4.727l-2.781,4.15l-2.795-4.15v4.727h-1.391v-9.307l4.186,6.236l4.186-6.236v9.307H455.06z"/>
		<path d="M459.72,125.466h3.25v1.26h-3.25v2.758h3.945v1.26h-3.957h-1.379v-8.899h1.379h3.957v1.247h-3.945V125.466z"/>
		<path d="M465.865,130.744c-0.469,0-0.84-0.372-0.84-0.84c0-0.456,0.371-0.84,0.84-0.84c0.455,0,0.84,0.384,0.84,0.84
			C466.705,130.372,466.32,130.744,465.865,130.744z"/>
	</g>
	<g>
		<g>
			<path d="M278.253,145.205c1.402,3.823,2.803,7.646,4.205,11.468c0.248,0.677,1.229,0.751,1.446,0
				c1.147-3.95,2.293-7.9,3.44-11.851c0.271-0.931-1.177-1.326-1.446-0.398c-1.147,3.95-2.293,7.9-3.44,11.851
				c0.482,0,0.964,0,1.446,0c-1.402-3.823-2.803-7.646-4.205-11.468C279.369,143.906,277.919,144.294,278.253,145.205
				L278.253,145.205z"/>
		</g>
	</g>
	<circle cx="212.755" cy="98.472" r="1.576"/>
	<circle cx="201.755" cy="100.472" r="1.576"/>
	<circle cx="263.755" cy="115.472" r="1.576"/>
	<circle cx="279.755" cy="116.472" r="1.576"/>
</g>
</svg>
