<?xml version="1.0" encoding="utf-8"?>
<!-- Generator: Adobe Illustrator 16.0.0, SVG Export Plug-In . SVG Version: 6.00 Build 0)  -->
<!DOCTYPE svg PUBLIC "-//W3C//DTD SVG 1.0//EN" "http://www.w3.org/TR/2001/REC-SVG-20010904/DTD/svg10.dtd">
<svg version="1.0" id="Layer_1" xmlns="http://www.w3.org/2000/svg"  x="0px" y="0px"
	 width="383px" height="293px" viewBox="0 0 383 293" enable-background="new 0 0 383 293" xml:space="preserve">
<g>
	<g>
		<path d="M78.54,55.646c0,0.518-0.112,0.98-0.336,1.4c-0.224,0.393-0.546,0.729-0.952,0.994c-0.714,0.449-1.681,0.688-2.858,0.688
			h-0.924h-1.373V48.334h1.625h0.672c1.149,0,1.989,0.211,2.578,0.645c0.322,0.238,0.56,0.547,0.714,0.896
			c0.14,0.322,0.21,0.687,0.21,1.093c0,0.561-0.182,1.247-0.813,1.905c0.168,0.111,0.322,0.238,0.477,0.378
			c0.308,0.308,0.546,0.645,0.714,1.022C78.456,54.693,78.54,55.156,78.54,55.646z M73.721,49.791v3.152
			c0.322-0.07,0.701-0.183,1.065-0.336c0.518-0.211,0.924-0.449,1.205-0.729c0.294-0.281,0.434-0.574,0.434-0.911
			c0-0.505-0.182-0.7-0.336-0.813c-0.393-0.294-1.149-0.364-1.695-0.364H73.721z M77.083,55.646c0-0.547-0.182-0.98-0.546-1.331
			c-0.21-0.21-0.477-0.378-0.799-0.519c-0.14,0.057-0.28,0.127-0.434,0.183c-0.574,0.238-1.148,0.378-1.583,0.476v2.803h0.672
			c0.883,0,1.597-0.154,2.059-0.449C76.887,56.529,77.083,56.164,77.083,55.646z"/>
		<path d="M81.504,57.901c-0.406-0.308-0.714-0.687-0.924-1.12c-0.238-0.477-0.35-1.009-0.35-1.583v-6.864h1.625v6.864
			c0,0.616,0.224,1.093,0.644,1.415c0.392,0.308,0.967,0.49,1.583,0.49c0.602,0,1.177-0.183,1.583-0.49
			c0.42-0.322,0.63-0.799,0.63-1.415v-6.864h1.639v6.864c0,0.574-0.126,1.106-0.35,1.583c-0.224,0.434-0.532,0.813-0.925,1.12
			c-0.686,0.532-1.597,0.827-2.577,0.827S82.191,58.434,81.504,57.901z"/>
		<path d="M97.664,53.531c0,1.471-0.435,2.731-1.261,3.643c-0.448,0.504-1.009,0.896-1.667,1.148
			c-0.672,0.266-1.429,0.406-2.269,0.406h-1.919h-0.546V48.334h1.625h0.841c0.84,0,1.597,0.127,2.269,0.406
			c0.658,0.252,1.219,0.645,1.667,1.148C97.229,50.8,97.664,52.061,97.664,53.531z M96.039,53.531c0-1.064-0.294-1.947-0.84-2.549
			c-0.617-0.688-1.527-1.023-2.731-1.023h-0.841v7.145h0.841c1.205,0,2.115-0.351,2.731-1.023
			C95.745,55.479,96.039,54.582,96.039,53.531z"/>
		<path d="M107.478,54.807v2.814l-0.364,0.252c-0.014,0-0.014,0-0.028,0.015c-0.014,0.014-0.042,0.028-0.056,0.028
			c-0.014,0.014-0.028,0.027-0.042,0.027c-0.014,0.014-0.028,0.028-0.056,0.028c-0.014,0.015-0.028,0.028-0.056,0.042
			c-0.014,0.014-0.028,0.014-0.042,0.027c-0.014,0.015-0.028,0.015-0.042,0.029c-0.028,0.014-0.042,0.014-0.07,0.027
			c-0.014,0.014-0.028,0.014-0.042,0.027c-0.014,0.015-0.042,0.029-0.07,0.029c-0.014,0.014-0.014,0.014-0.028,0.027
			c-0.014,0-0.014,0-0.028,0c-0.014,0.014-0.042,0.028-0.07,0.042c-0.028,0.015-0.07,0.028-0.098,0.042c0,0,0,0-0.014,0.014
			c-0.588,0.267-1.205,0.406-1.863,0.449c0,0,0,0-0.014,0c-0.028,0-0.07,0-0.112,0h-0.014c-0.042,0-0.084,0-0.126,0
			c-0.561,0-1.121-0.084-1.639-0.267c-0.014,0-0.014,0-0.014,0c-0.056-0.015-0.098-0.042-0.154-0.056
			c-0.07-0.028-0.14-0.057-0.21-0.084c-0.182-0.07-0.35-0.154-0.504-0.252c-0.42-0.225-0.813-0.52-1.148-0.869
			c-0.477-0.477-0.854-1.022-1.121-1.652c-0.196-0.477-0.336-0.98-0.378-1.5c-0.014-0.168-0.028-0.35-0.028-0.518
			c0-0.084,0-0.182,0-0.266c0.042-0.604,0.168-1.205,0.406-1.766c0.266-0.616,0.644-1.176,1.121-1.652
			c0.476-0.477,1.022-0.855,1.653-1.107c0.63-0.279,1.316-0.406,2.017-0.406c0.042,0,0.084,0,0.126,0h0.014c0.042,0,0.084,0,0.112,0
			c0.014,0,0.014,0,0.014,0c0.042,0,0.084,0,0.126,0.015c0.603,0.042,1.19,0.183,1.751,0.435c0,0,0,0.014,0.014,0.014
			c0.028,0.014,0.056,0.027,0.084,0.042c0.014,0,0.014,0,0.014,0v1.919c-0.21-0.182-0.448-0.322-0.7-0.448
			c-0.21-0.099-0.434-0.183-0.645-0.238c-0.014,0-0.028,0-0.042-0.015c-0.014,0-0.028,0-0.042,0
			c-0.014-0.014-0.028-0.014-0.056-0.014c0,0-0.014,0-0.028-0.014c-0.056-0.014-0.126-0.014-0.182-0.027c-0.014,0-0.014,0-0.028,0
			s-0.042-0.015-0.056-0.015s-0.014,0-0.028,0c-0.014,0-0.042,0-0.056-0.015c-0.014,0-0.028,0-0.042,0c-0.028,0-0.056,0-0.084,0
			c-0.014,0-0.028-0.014-0.042-0.014c-0.014,0-0.028,0-0.042,0c-0.014,0-0.042,0-0.056,0s-0.028,0-0.028,0c-0.028,0-0.07,0-0.098,0
			c-0.659,0-1.289,0.168-1.835,0.504c-0.014,0.015-0.042,0.029-0.07,0.043c-0.224,0.14-0.434,0.309-0.616,0.504
			c-0.056,0.057-0.126,0.112-0.182,0.182c0,0,0,0.015-0.014,0.015c-0.07,0.084-0.126,0.168-0.182,0.252
			c-0.014,0.015-0.028,0.028-0.028,0.028c-0.028,0.042-0.056,0.084-0.084,0.126c-0.014,0.014-0.028,0.042-0.028,0.056
			c-0.21,0.336-0.351,0.687-0.435,1.064c-0.014,0.014-0.014,0.014-0.014,0.028c-0.028,0.14-0.056,0.28-0.07,0.421
			c0,0.055,0,0.111,0,0.153c-0.014,0.07-0.014,0.126-0.014,0.196c0,0.057,0,0.111,0.014,0.182c0.014,0.267,0.056,0.533,0.126,0.785
			c0.168,0.588,0.477,1.12,0.911,1.555c0.672,0.672,1.569,1.051,2.521,1.051c0.028,0,0.07,0,0.098,0c0.014,0,0.028,0,0.042-0.014
			c0.014,0,0.042,0,0.056,0c0.014,0,0.028,0,0.042,0c0.014,0,0.028,0,0.042,0c0.028,0,0.042,0,0.07,0
			c0-0.015,0.014-0.015,0.028-0.015c0.014,0,0.042,0,0.056,0s0.014,0,0.028,0c0.098-0.015,0.21-0.042,0.309-0.056
			c0.014,0,0.014,0,0.028-0.015c0.014,0,0.042,0,0.056-0.014c0.014,0,0.028,0,0.042,0c0.014-0.015,0.028-0.015,0.042-0.015
			c0.014-0.014,0.042-0.014,0.056-0.014c0.014,0,0.028-0.014,0.028-0.014c0.196-0.057,0.392-0.127,0.574-0.225c0,0,0,0,0.014,0
			v-1.918h-1.961v-1.472h3.586V54.807z"/>
		<path d="M111.016,52.564h3.796v1.471h-3.796v3.223h4.609v1.471h-4.623h-1.611V48.334h1.611h4.623v1.457h-4.609V52.564z"/>
		<path d="M124.221,49.791h-2.857v8.938h-1.64v-8.938h-2.857v-1.457h7.354V49.791z"/>
		<path d="M79.366,83.229h-1.835l-2.619-3.517h-1.191v3.517h-1.625V72.834h1.373h1.709c1.373,0,2.171,0.561,2.591,1.037
			c0.546,0.602,0.84,1.443,0.84,2.409c0,0.952-0.294,1.793-0.84,2.396c-0.252,0.279-0.645,0.602-1.205,0.799L79.366,83.229z
			 M75.178,78.256c0.672,0,1.177-0.197,1.499-0.561c0.393-0.42,0.462-1.009,0.462-1.415c0-0.421-0.07-1.009-0.462-1.429
			c-0.322-0.364-0.826-0.547-1.499-0.547h-1.457v3.951H75.178z"/>
		<path d="M82.694,77.064h3.796v1.471h-3.796v3.223h4.609v1.471h-4.623H81.07V72.834h1.611h4.623v1.457h-4.609V77.064z"/>
		<path d="M97.664,81.701c-0.042,0.042-0.07,0.07-0.112,0.112l0.938,1.232l-1.177,0.882l-0.953-1.273
			c-0.112,0.056-0.238,0.111-0.35,0.168c-0.645,0.266-1.331,0.406-2.031,0.406c-0.7,0-1.387-0.141-2.017-0.406
			c-0.63-0.267-1.176-0.645-1.653-1.121c-0.476-0.477-0.854-1.022-1.121-1.652c-0.266-0.631-0.406-1.317-0.406-2.018
			s0.14-1.387,0.406-2.031c0.266-0.616,0.645-1.176,1.121-1.652c0.477-0.477,1.022-0.841,1.653-1.107
			c0.63-0.279,1.317-0.406,2.017-0.406c0.701,0,1.387,0.127,2.031,0.406c0.616,0.267,1.177,0.631,1.653,1.107
			c0.477,0.477,0.84,1.036,1.107,1.652c0.28,0.645,0.406,1.331,0.406,2.031s-0.126,1.387-0.406,2.018
			C98.504,80.679,98.141,81.225,97.664,81.701z M95.367,81.322l-0.728-0.966l1.176-0.882l0.757,1.021
			c0.63-0.672,0.98-1.541,0.98-2.465c0-0.953-0.378-1.85-1.051-2.521s-1.569-1.051-2.521-1.051c-0.952,0-1.849,0.379-2.521,1.051
			s-1.051,1.568-1.051,2.521s0.378,1.85,1.051,2.521s1.569,1.051,2.521,1.051C94.47,81.604,94.933,81.505,95.367,81.322z"/>
		<path d="M102.238,82.401c-0.406-0.308-0.714-0.687-0.924-1.12c-0.238-0.477-0.35-1.009-0.35-1.583v-6.864h1.625v6.864
			c0,0.616,0.224,1.093,0.644,1.415c0.392,0.308,0.967,0.49,1.583,0.49c0.602,0,1.177-0.183,1.583-0.49
			c0.42-0.322,0.63-0.799,0.63-1.415v-6.864h1.639v6.864c0,0.574-0.126,1.106-0.35,1.583c-0.224,0.434-0.532,0.813-0.925,1.12
			c-0.686,0.532-1.597,0.827-2.577,0.827S102.924,82.934,102.238,82.401z"/>
		<path d="M112.36,77.064h3.796v1.471h-3.796v3.223h4.608v1.471h-4.622h-1.611V72.834h1.611h4.622v1.457h-4.608V77.064z"/>
		<path d="M124.388,81.141c-0.294,1.009-1.205,1.807-2.339,2.031c-0.211,0.042-0.421,0.057-0.631,0.057
			c-0.42,0-0.841-0.07-1.232-0.225c-0.658-0.266-1.232-0.7-1.723-1.33l1.288-1.01c0.294,0.393,0.645,0.673,1.022,0.813
			c0.309,0.127,0.645,0.154,0.953,0.084c0.532-0.098,0.966-0.447,1.092-0.867c0.141-0.477-0.182-0.896-0.476-1.178
			c-0.463-0.434-1.219-1.176-1.275-1.232l-1.274-1.205c-0.392-0.377-0.658-0.798-0.798-1.246c-0.141-0.434-0.154-0.896-0.028-1.316
			c0.126-0.449,0.393-0.841,0.771-1.163c0.35-0.294,0.784-0.504,1.246-0.589c0.505-0.111,1.037-0.069,1.541,0.113
			c0.532,0.209,1.009,0.56,1.415,1.051l-1.274,1.021c-0.532-0.645-1.079-0.645-1.373-0.588c-0.364,0.07-0.673,0.309-0.757,0.602
			c-0.056,0.197-0.042,0.52,0.393,0.939l1.737,1.666c0.252,0.253,0.56,0.547,0.784,0.757c0.448,0.406,0.756,0.868,0.91,1.358
			C124.514,80.16,124.528,80.664,124.388,81.141z"/>
		<path d="M132.957,74.291h-2.857v8.938h-1.64v-8.938h-2.857v-1.457h7.354V74.291z"/>
		<path d="M140.276,77.064h3.796v1.471h-3.796v4.693h-1.625V72.834h1.61h4.637v1.457h-4.622V77.064z"/>
		<path d="M148.957,82.822c-0.631-0.267-1.177-0.645-1.653-1.121s-0.854-1.022-1.12-1.652c-0.267-0.631-0.406-1.317-0.406-2.018
			s0.14-1.387,0.406-2.031c0.266-0.616,0.644-1.162,1.12-1.652c0.477-0.477,1.022-0.841,1.653-1.107
			c0.63-0.266,1.316-0.406,2.017-0.406s1.387,0.141,2.031,0.406c0.616,0.267,1.162,0.631,1.652,1.107
			c0.477,0.49,0.841,1.036,1.107,1.652c0.266,0.645,0.406,1.331,0.406,2.031s-0.141,1.387-0.406,2.018
			c-0.267,0.63-0.631,1.176-1.107,1.652c-0.49,0.477-1.036,0.854-1.652,1.121c-0.645,0.266-1.331,0.406-2.031,0.406
			S149.586,83.088,148.957,82.822z M148.452,75.51c-0.672,0.672-1.051,1.568-1.051,2.521s0.379,1.85,1.051,2.521
			c0.673,0.672,1.569,1.051,2.521,1.051s1.849-0.379,2.521-1.051c0.672-0.672,1.051-1.568,1.051-2.521s-0.379-1.85-1.051-2.521
			c-0.673-0.672-1.569-1.051-2.521-1.051S149.125,74.838,148.452,75.51z"/>
		<path d="M165.268,83.229h-1.835l-2.619-3.517h-1.19v3.517h-1.625V72.834h1.373h1.708c1.373,0,2.172,0.561,2.592,1.037
			c0.546,0.602,0.841,1.443,0.841,2.409c0,0.952-0.295,1.793-0.841,2.396c-0.252,0.279-0.645,0.602-1.205,0.799L165.268,83.229z
			 M161.08,78.256c0.673,0,1.177-0.197,1.499-0.561c0.393-0.42,0.463-1.009,0.463-1.415c0-0.421-0.07-1.009-0.463-1.429
			c-0.322-0.364-0.826-0.547-1.499-0.547h-1.456v3.951H161.08z"/>
		<path d="M175.15,79.684l2.731-6.85h1.766l-4.455,10.856l-4.762-10.856h1.793L175.15,79.684z"/>
		<path d="M186.715,81.001h-3.698l-0.882,2.228h-1.793l4.524-10.871l4.51,10.871h-1.778L186.715,81.001z M186.127,79.544
			l-1.261-3.165l-1.261,3.165H186.127z"/>
		<path d="M197.496,74.291h-2.857v8.938h-1.64v-8.938h-2.857v-1.457h7.354V74.291z"/>
		<path d="M203.19,83.229V72.834h1.625v10.395H203.19z"/>
		<path d="M208.595,76.547v6.682h-1.625V72.344l6.527,7.158v-6.668h1.639v10.87L208.595,76.547z"/>
		<path d="M221.28,79.684l2.732-6.85h1.766l-4.456,10.856l-4.762-10.856h1.793L221.28,79.684z"/>
		<path d="M230.059,82.822c-0.631-0.267-1.178-0.645-1.654-1.121s-0.854-1.022-1.119-1.652c-0.268-0.631-0.406-1.317-0.406-2.018
			s0.139-1.387,0.406-2.031c0.266-0.616,0.643-1.162,1.119-1.652c0.477-0.477,1.023-0.841,1.654-1.107
			c0.629-0.266,1.316-0.406,2.016-0.406c0.701,0,1.387,0.141,2.031,0.406c0.617,0.267,1.162,0.631,1.652,1.107
			c0.477,0.49,0.842,1.036,1.107,1.652c0.266,0.645,0.406,1.331,0.406,2.031s-0.141,1.387-0.406,2.018
			c-0.266,0.63-0.631,1.176-1.107,1.652c-0.49,0.477-1.035,0.854-1.652,1.121c-0.645,0.266-1.33,0.406-2.031,0.406
			C231.375,83.229,230.688,83.088,230.059,82.822z M229.553,75.51c-0.672,0.672-1.051,1.568-1.051,2.521s0.379,1.85,1.051,2.521
			c0.674,0.672,1.57,1.051,2.521,1.051c0.953,0,1.85-0.379,2.521-1.051s1.051-1.568,1.051-2.521s-0.379-1.85-1.051-2.521
			s-1.568-1.051-2.521-1.051C231.123,74.459,230.227,74.838,229.553,75.51z"/>
		<path d="M239.1,83.229V72.834h1.625v10.395H239.1z"/>
		<path d="M250.514,82.373c-0.266,0.168-0.545,0.322-0.84,0.449c-0.645,0.266-1.33,0.406-2.031,0.406s-1.387-0.141-2.018-0.406
			c-0.629-0.267-1.176-0.645-1.652-1.121s-0.854-1.022-1.121-1.652c-0.266-0.631-0.406-1.317-0.406-2.018s0.141-1.387,0.406-2.031
			c0.268-0.616,0.645-1.176,1.121-1.652s1.023-0.855,1.652-1.107c0.631-0.279,1.316-0.406,2.018-0.406s1.387,0.127,2.031,0.406
			c0.07,0.028,0.154,0.07,0.225,0.099v1.919c-0.631-0.519-1.416-0.799-2.256-0.799c-0.953,0-1.85,0.365-2.521,1.051
			c-0.672,0.672-1.051,1.568-1.051,2.521s0.379,1.85,1.051,2.521s1.568,1.051,2.521,1.051s1.85-0.379,2.521-1.051
			c0.127-0.127,0.238-0.252,0.35-0.393V82.373z"/>
		<path d="M253.982,77.064h3.797v1.471h-3.797v3.223h4.609v1.471h-4.623h-1.611V72.834h1.611h4.623v1.457h-4.609V77.064z"/>
		<path d="M79.73,106.873c-0.266,0.168-0.546,0.322-0.84,0.449c-0.645,0.266-1.331,0.406-2.031,0.406
			c-0.7,0-1.387-0.141-2.017-0.406c-0.63-0.267-1.176-0.645-1.653-1.121c-0.476-0.477-0.854-1.022-1.121-1.652
			c-0.266-0.631-0.406-1.317-0.406-2.018s0.14-1.387,0.406-2.031c0.266-0.616,0.645-1.176,1.121-1.652
			c0.477-0.477,1.022-0.855,1.653-1.107c0.63-0.279,1.317-0.406,2.017-0.406c0.701,0,1.387,0.127,2.031,0.406
			c0.07,0.028,0.154,0.07,0.224,0.099v1.919c-0.63-0.519-1.415-0.799-2.255-0.799c-0.952,0-1.849,0.365-2.521,1.051
			c-0.672,0.672-1.051,1.568-1.051,2.521s0.378,1.85,1.051,2.521s1.569,1.051,2.521,1.051c0.953,0,1.849-0.379,2.521-1.051
			c0.126-0.127,0.238-0.252,0.35-0.393V106.873z"/>
		<path d="M84.417,107.322c-0.63-0.267-1.177-0.645-1.653-1.121s-0.854-1.022-1.121-1.652c-0.266-0.631-0.406-1.317-0.406-2.018
			s0.14-1.387,0.406-2.031c0.266-0.616,0.645-1.162,1.121-1.652c0.476-0.477,1.022-0.841,1.653-1.107
			c0.63-0.266,1.317-0.406,2.017-0.406c0.701,0,1.387,0.141,2.031,0.406c0.616,0.267,1.163,0.631,1.653,1.107
			c0.476,0.49,0.84,1.036,1.106,1.652c0.266,0.645,0.406,1.331,0.406,2.031s-0.14,1.387-0.406,2.018
			c-0.266,0.63-0.63,1.176-1.106,1.652c-0.49,0.477-1.037,0.854-1.653,1.121c-0.645,0.266-1.331,0.406-2.031,0.406
			C85.734,107.729,85.048,107.588,84.417,107.322z M83.913,100.01c-0.672,0.672-1.05,1.568-1.05,2.521s0.378,1.85,1.05,2.521
			s1.569,1.051,2.521,1.051s1.849-0.379,2.521-1.051s1.05-1.568,1.05-2.521s-0.378-1.85-1.05-2.521s-1.569-1.051-2.521-1.051
			S84.585,99.338,83.913,100.01z"/>
		<path d="M95.085,101.047v6.682H93.46V96.844l6.527,7.158v-6.668h1.639v10.87L95.085,101.047z"/>
		<path d="M110.474,98.791h-2.858v8.938h-1.639v-8.938h-2.857v-1.457h7.354V98.791z"/>
		<path d="M119.238,107.729h-1.835l-2.619-3.517h-1.191v3.517h-1.625V97.334h1.373h1.709c1.373,0,2.171,0.561,2.591,1.037
			c0.546,0.602,0.841,1.443,0.841,2.409c0,0.952-0.295,1.793-0.841,2.396c-0.252,0.279-0.645,0.602-1.205,0.799L119.238,107.729z
			 M115.05,102.756c0.672,0,1.176-0.197,1.499-0.561c0.393-0.42,0.463-1.009,0.463-1.415c0-0.421-0.07-1.009-0.463-1.429
			c-0.322-0.364-0.826-0.547-1.499-0.547h-1.457v3.951H115.05z"/>
		<path d="M126.573,105.501h-3.698l-0.882,2.228H120.2l4.524-10.871l4.51,10.871h-1.778L126.573,105.501z M125.985,104.044
			l-1.261-3.165l-1.261,3.165H125.985z"/>
		<path d="M138.305,106.873c-0.266,0.168-0.546,0.322-0.84,0.449c-0.645,0.266-1.331,0.406-2.031,0.406
			c-0.701,0-1.387-0.141-2.018-0.406c-0.63-0.267-1.177-0.645-1.652-1.121c-0.477-0.477-0.854-1.022-1.121-1.652
			c-0.266-0.631-0.406-1.317-0.406-2.018s0.141-1.387,0.406-2.031c0.267-0.616,0.645-1.176,1.121-1.652
			c0.476-0.477,1.022-0.855,1.652-1.107c0.631-0.279,1.316-0.406,2.018-0.406c0.7,0,1.387,0.127,2.031,0.406
			c0.069,0.028,0.153,0.07,0.224,0.099v1.919c-0.63-0.519-1.415-0.799-2.255-0.799c-0.953,0-1.85,0.365-2.521,1.051
			c-0.673,0.672-1.051,1.568-1.051,2.521s0.378,1.85,1.051,2.521c0.672,0.672,1.568,1.051,2.521,1.051
			c0.952,0,1.849-0.379,2.521-1.051c0.126-0.127,0.237-0.252,0.35-0.393V106.873z"/>
		<path d="M146.831,98.791h-2.857v8.938h-1.64v-8.938h-2.857v-1.457h7.354V98.791z"/>
		<path d="M159.207,98.791h-2.857v8.938h-1.64v-8.938h-2.857v-1.457h7.354V98.791z"/>
		<path d="M162.326,101.564h3.796v1.471h-3.796v3.223h4.608v1.471h-4.623h-1.61V97.334h1.61h4.623v1.457h-4.608V101.564z"/>
		<path d="M176.118,107.729h-1.835l-2.619-3.517h-1.19v3.517h-1.625V97.334h1.373h1.708c1.373,0,2.172,0.561,2.592,1.037
			c0.546,0.602,0.841,1.443,0.841,2.409c0,0.952-0.295,1.793-0.841,2.396c-0.252,0.279-0.645,0.602-1.205,0.799L176.118,107.729z
			 M171.929,102.756c0.673,0,1.177-0.197,1.499-0.561c0.393-0.42,0.463-1.009,0.463-1.415c0-0.421-0.07-1.009-0.463-1.429
			c-0.322-0.364-0.826-0.547-1.499-0.547h-1.456v3.951H171.929z"/>
		<path d="M185.96,107.729v-5.52l-3.25,4.847l-3.264-4.847v5.52h-1.625V96.857l4.889,7.285l4.889-7.285v10.871H185.96z"/>
		<path d="M80.234,132.229v-5.52l-3.25,4.847l-3.264-4.847v5.52h-1.625v-10.871l4.889,7.285l4.889-7.285v10.871H80.234z"/>
		<path d="M86.881,131.822c-0.63-0.267-1.177-0.645-1.653-1.121s-0.854-1.022-1.121-1.652c-0.266-0.631-0.406-1.317-0.406-2.018
			s0.14-1.387,0.406-2.031c0.266-0.616,0.645-1.162,1.121-1.652c0.476-0.477,1.022-0.841,1.653-1.107
			c0.63-0.266,1.317-0.406,2.017-0.406c0.701,0,1.387,0.141,2.031,0.406c0.616,0.267,1.163,0.631,1.653,1.107
			c0.476,0.49,0.84,1.036,1.106,1.652c0.266,0.645,0.406,1.331,0.406,2.031s-0.14,1.387-0.406,2.018
			c-0.266,0.63-0.63,1.176-1.106,1.652c-0.49,0.477-1.037,0.854-1.653,1.121c-0.645,0.266-1.331,0.406-2.031,0.406
			C88.198,132.229,87.512,132.088,86.881,131.822z M86.377,124.51c-0.672,0.672-1.05,1.568-1.05,2.521s0.378,1.85,1.05,2.521
			s1.569,1.051,2.521,1.051s1.849-0.379,2.521-1.051s1.05-1.568,1.05-2.521s-0.378-1.85-1.05-2.521s-1.569-1.051-2.521-1.051
			S87.049,123.838,86.377,124.51z"/>
		<path d="M99.902,128.684l2.731-6.85h1.765l-4.455,10.856l-4.763-10.856h1.793L99.902,128.684z"/>
		<path d="M107.461,126.064h3.796v1.471h-3.796v3.223h4.609v1.471h-4.623h-1.611v-10.395h1.611h4.623v1.457h-4.609V126.064z"/>
		<path d="M118.184,132.229v-10.395h1.625v10.395H118.184z"/>
		<path d="M123.589,125.547v6.682h-1.625v-10.885l6.527,7.158v-6.668h1.639v10.87L123.589,125.547z"/>
		<path d="M144.159,127.031c0,1.471-0.435,2.731-1.261,3.643c-0.448,0.504-1.009,0.896-1.667,1.148
			c-0.672,0.266-1.429,0.406-2.27,0.406h-1.919h-0.546v-10.395h1.625h0.84c0.841,0,1.598,0.127,2.27,0.406
			c0.658,0.252,1.219,0.645,1.667,1.148C143.724,124.3,144.159,125.561,144.159,127.031z M142.534,127.031
			c0-1.064-0.294-1.947-0.841-2.549c-0.616-0.688-1.526-1.023-2.731-1.023h-0.84v7.145h0.84c1.205,0,2.115-0.351,2.731-1.023
			C142.24,128.979,142.534,128.082,142.534,127.031z"/>
		<path d="M151.578,130.001h-3.698l-0.882,2.228h-1.793l4.524-10.871l4.51,10.871h-1.778L151.578,130.001z M150.99,128.544
			l-1.261-3.165l-1.261,3.165H150.99z"/>
		<path d="M162.358,123.291H159.5v8.938h-1.64v-8.938h-2.857v-1.457h7.354V123.291z"/>
		<path d="M165.477,126.064h3.796v1.471h-3.796v3.223h4.608v1.471h-4.623h-1.61v-10.395h1.61h4.623v1.457h-4.608V126.064z"/>
		<path d="M73.721,150.047v6.682h-1.625v-10.885l6.527,7.158v-6.668h1.639v10.87L73.721,150.047z"/>
		<path d="M83.604,155.901c-0.406-0.308-0.714-0.687-0.924-1.12c-0.238-0.477-0.35-1.009-0.35-1.583v-6.864h1.625v6.864
			c0,0.616,0.224,1.093,0.644,1.415c0.392,0.308,0.967,0.49,1.583,0.49c0.602,0,1.177-0.183,1.583-0.49
			c0.42-0.322,0.63-0.799,0.63-1.415v-6.864h1.639v6.864c0,0.574-0.126,1.106-0.35,1.583c-0.224,0.434-0.532,0.813-0.925,1.12
			c-0.686,0.532-1.597,0.827-2.577,0.827S84.291,156.434,83.604,155.901z"/>
		<path d="M100.24,156.729v-5.52l-3.25,4.847l-3.264-4.847v5.52h-1.625v-10.871l4.889,7.285l4.889-7.285v10.871H100.24z"/>
		<path d="M110.487,153.646c0,0.518-0.112,0.98-0.336,1.4c-0.224,0.393-0.546,0.729-0.952,0.994
			c-0.714,0.449-1.681,0.688-2.858,0.688h-0.924h-1.373v-10.395h1.625h0.672c1.149,0,1.989,0.211,2.578,0.645
			c0.322,0.238,0.56,0.547,0.714,0.896c0.14,0.322,0.21,0.687,0.21,1.093c0,0.561-0.182,1.247-0.813,1.905
			c0.168,0.111,0.322,0.238,0.477,0.378c0.308,0.308,0.546,0.645,0.714,1.022C110.403,152.693,110.487,153.156,110.487,153.646z
			 M105.668,147.791v3.152c0.322-0.07,0.701-0.183,1.065-0.336c0.518-0.211,0.924-0.449,1.205-0.729
			c0.294-0.281,0.434-0.574,0.434-0.911c0-0.505-0.182-0.7-0.336-0.813c-0.393-0.294-1.149-0.364-1.695-0.364H105.668z
			 M109.03,153.646c0-0.547-0.182-0.98-0.546-1.331c-0.21-0.21-0.477-0.378-0.799-0.519c-0.14,0.057-0.28,0.127-0.434,0.183
			c-0.574,0.238-1.148,0.378-1.583,0.476v2.803h0.672c0.883,0,1.597-0.154,2.059-0.449
			C108.834,154.529,109.03,154.164,109.03,153.646z"/>
		<path d="M113.9,150.564h3.796v1.471H113.9v3.223h4.609v1.471h-4.623h-1.611v-10.395h1.611h4.623v1.457H113.9V150.564z"/>
		<path d="M127.693,156.729h-1.835l-2.619-3.517h-1.19v3.517h-1.625v-10.395h1.372h1.709c1.373,0,2.172,0.561,2.592,1.037
			c0.546,0.602,0.841,1.443,0.841,2.409c0,0.952-0.295,1.793-0.841,2.396c-0.252,0.279-0.645,0.602-1.205,0.799L127.693,156.729z
			 M123.504,151.756c0.673,0,1.177-0.197,1.499-0.561c0.393-0.42,0.463-1.009,0.463-1.415c0-0.421-0.07-1.009-0.463-1.429
			c-0.322-0.364-0.826-0.547-1.499-0.547h-1.456v3.951H123.504z"/>
		<path d="M136.441,156.322c-0.631-0.267-1.177-0.645-1.653-1.121s-0.854-1.022-1.12-1.652c-0.267-0.631-0.406-1.317-0.406-2.018
			s0.14-1.387,0.406-2.031c0.266-0.616,0.644-1.162,1.12-1.652c0.477-0.477,1.022-0.841,1.653-1.107
			c0.63-0.266,1.316-0.406,2.017-0.406s1.387,0.141,2.031,0.406c0.616,0.267,1.162,0.631,1.652,1.107
			c0.477,0.49,0.841,1.036,1.107,1.652c0.266,0.645,0.406,1.331,0.406,2.031s-0.141,1.387-0.406,2.018
			c-0.267,0.63-0.631,1.176-1.107,1.652c-0.49,0.477-1.036,0.854-1.652,1.121c-0.645,0.266-1.331,0.406-2.031,0.406
			S137.071,156.588,136.441,156.322z M135.936,149.01c-0.672,0.672-1.051,1.568-1.051,2.521s0.379,1.85,1.051,2.521
			c0.673,0.672,1.569,1.051,2.521,1.051s1.849-0.379,2.521-1.051c0.672-0.672,1.051-1.568,1.051-2.521s-0.379-1.85-1.051-2.521
			c-0.673-0.672-1.569-1.051-2.521-1.051S136.609,148.338,135.936,149.01z"/>
		<path d="M147.108,150.564h3.796v1.471h-3.796v4.693h-1.625v-10.395h1.61h4.637v1.457h-4.622V150.564z"/>
		<path d="M158.518,146.334h1.708c1.373,0,2.172,0.561,2.592,1.023c0.561,0.615,0.841,1.442,0.841,2.408
			c0,0.967-0.28,1.808-0.841,2.41c-0.42,0.477-1.219,1.036-2.592,1.036h-1.456v3.517h-1.625v-10.395H158.518z M162.202,149.766
			c0-0.406-0.084-0.994-0.462-1.414c-0.337-0.364-0.841-0.561-1.514-0.561h-1.456v3.95h1.456c0.673,0,1.177-0.183,1.514-0.546
			C162.118,150.775,162.202,150.187,162.202,149.766z"/>
		<path d="M166.624,150.564h3.796v1.471h-3.796v3.223h4.608v1.471h-4.623h-1.61v-10.395h1.61h4.623v1.457h-4.608V150.564z"/>
		<path d="M175.99,156.322c-0.631-0.267-1.177-0.645-1.653-1.121s-0.854-1.022-1.12-1.652c-0.267-0.631-0.406-1.317-0.406-2.018
			s0.14-1.387,0.406-2.031c0.266-0.616,0.644-1.162,1.12-1.652c0.477-0.477,1.022-0.841,1.653-1.107
			c0.63-0.266,1.316-0.406,2.017-0.406s1.387,0.141,2.031,0.406c0.616,0.267,1.162,0.631,1.652,1.107
			c0.477,0.49,0.841,1.036,1.107,1.652c0.266,0.645,0.406,1.331,0.406,2.031s-0.141,1.387-0.406,2.018
			c-0.267,0.63-0.631,1.176-1.107,1.652c-0.49,0.477-1.036,0.854-1.652,1.121c-0.645,0.266-1.331,0.406-2.031,0.406
			S176.62,156.588,175.99,156.322z M175.485,149.01c-0.672,0.672-1.051,1.568-1.051,2.521s0.379,1.85,1.051,2.521
			c0.673,0.672,1.569,1.051,2.521,1.051s1.849-0.379,2.521-1.051c0.672-0.672,1.051-1.568,1.051-2.521s-0.379-1.85-1.051-2.521
			c-0.673-0.672-1.569-1.051-2.521-1.051S176.158,148.338,175.485,149.01z"/>
		<path d="M186.405,146.334h1.708c1.373,0,2.172,0.561,2.592,1.023c0.561,0.615,0.841,1.442,0.841,2.408
			c0,0.967-0.28,1.808-0.841,2.41c-0.42,0.477-1.219,1.036-2.592,1.036h-1.456v3.517h-1.625v-10.395H186.405z M190.088,149.766
			c0-0.406-0.084-0.994-0.462-1.414c-0.337-0.364-0.841-0.561-1.514-0.561h-1.456v3.95h1.456c0.673,0,1.177-0.183,1.514-0.546
			C190.004,150.775,190.088,150.187,190.088,149.766z"/>
		<path d="M198.852,156.729h-4.356h-1.61v-10.395h1.625v8.924h4.342V156.729z"/>
		<path d="M201.664,150.564h3.796v1.471h-3.796v3.223h4.608v1.471h-4.623h-1.61v-10.395h1.61h4.623v1.457h-4.608V150.564z"/>
		<path d="M218.353,156.729h-4.356h-1.61v-10.395h1.625v8.924h4.342V156.729z"/>
		<path d="M219.541,156.729v-10.395h1.625v10.395H219.541z"/>
		<path d="M227.299,153.184l2.73-6.85h1.766l-4.455,10.856l-4.762-10.856h1.793L227.299,153.184z"/>
		<path d="M233.232,156.729v-10.395h1.625v10.395H233.232z"/>
		<path d="M238.639,150.047v6.682h-1.625v-10.885l6.527,7.158v-6.668h1.639v10.87L238.639,150.047z"/>
		<path d="M255.371,152.807v2.814l-0.363,0.252c-0.016,0-0.016,0-0.029,0.015c-0.014,0.014-0.041,0.028-0.055,0.028
			c-0.016,0.014-0.029,0.027-0.043,0.027c-0.014,0.014-0.027,0.028-0.057,0.028c-0.014,0.015-0.027,0.028-0.055,0.042
			c-0.014,0.014-0.029,0.014-0.043,0.027c-0.014,0.015-0.027,0.015-0.041,0.029c-0.029,0.014-0.043,0.014-0.07,0.027
			c-0.014,0.014-0.027,0.014-0.043,0.027c-0.014,0.015-0.041,0.029-0.07,0.029c-0.014,0.014-0.014,0.014-0.027,0.027
			c-0.014,0-0.014,0-0.027,0c-0.014,0.014-0.043,0.028-0.07,0.042c-0.027,0.015-0.07,0.028-0.098,0.042c0,0,0,0-0.014,0.014
			c-0.59,0.267-1.205,0.406-1.863,0.449c0,0,0,0-0.014,0c-0.029,0-0.07,0-0.113,0h-0.014c-0.043,0-0.084,0-0.127,0
			c-0.559,0-1.119-0.084-1.639-0.267c-0.014,0-0.014,0-0.014,0c-0.057-0.015-0.098-0.042-0.154-0.056
			c-0.07-0.028-0.139-0.057-0.209-0.084c-0.184-0.07-0.352-0.154-0.506-0.252c-0.42-0.225-0.811-0.52-1.148-0.869
			c-0.475-0.477-0.854-1.022-1.119-1.652c-0.197-0.477-0.336-0.98-0.379-1.5c-0.014-0.168-0.027-0.35-0.027-0.518
			c0-0.084,0-0.182,0-0.266c0.041-0.604,0.168-1.205,0.406-1.766c0.266-0.616,0.645-1.176,1.119-1.652
			c0.477-0.477,1.023-0.855,1.654-1.107c0.629-0.279,1.316-0.406,2.016-0.406c0.043,0,0.084,0,0.127,0h0.014
			c0.043,0,0.084,0,0.113,0c0.014,0,0.014,0,0.014,0c0.041,0,0.084,0,0.125,0.015c0.604,0.042,1.191,0.183,1.752,0.435
			c0,0,0,0.014,0.014,0.014c0.027,0.014,0.057,0.027,0.084,0.042c0.014,0,0.014,0,0.014,0v1.919
			c-0.209-0.182-0.447-0.322-0.699-0.448c-0.211-0.099-0.436-0.183-0.645-0.238c-0.016,0-0.029,0-0.043-0.015
			c-0.014,0-0.027,0-0.041,0c-0.016-0.014-0.029-0.014-0.057-0.014c0,0-0.014,0-0.027-0.014c-0.057-0.014-0.127-0.014-0.184-0.027
			c-0.014,0-0.014,0-0.027,0s-0.043-0.015-0.057-0.015s-0.014,0-0.027,0s-0.043,0-0.057-0.015c-0.014,0-0.027,0-0.041,0
			c-0.029,0-0.057,0-0.084,0c-0.014,0-0.029-0.014-0.043-0.014s-0.027,0-0.041,0c-0.016,0-0.043,0-0.057,0s-0.027,0-0.027,0
			c-0.029,0-0.07,0-0.1,0c-0.658,0-1.287,0.168-1.834,0.504c-0.014,0.015-0.043,0.029-0.07,0.043
			c-0.225,0.14-0.434,0.309-0.617,0.504c-0.055,0.057-0.125,0.112-0.182,0.182c0,0,0,0.015-0.014,0.015
			c-0.07,0.084-0.125,0.168-0.182,0.252c-0.014,0.015-0.027,0.028-0.027,0.028c-0.029,0.042-0.057,0.084-0.086,0.126
			c-0.014,0.014-0.027,0.042-0.027,0.056c-0.209,0.336-0.35,0.687-0.434,1.064c-0.014,0.014-0.014,0.014-0.014,0.028
			c-0.029,0.14-0.057,0.28-0.07,0.421c0,0.055,0,0.111,0,0.153c-0.014,0.07-0.014,0.126-0.014,0.196c0,0.057,0,0.111,0.014,0.182
			c0.014,0.267,0.055,0.533,0.125,0.785c0.168,0.588,0.477,1.12,0.91,1.555c0.674,0.672,1.57,1.051,2.521,1.051
			c0.029,0,0.07,0,0.1,0c0.014,0,0.027,0,0.041-0.014c0.014,0,0.043,0,0.057,0s0.027,0,0.041,0c0.016,0,0.029,0,0.043,0
			c0.027,0,0.041,0,0.07,0c0-0.015,0.014-0.015,0.027-0.015s0.043,0,0.057,0s0.014,0,0.027,0c0.098-0.015,0.211-0.042,0.309-0.056
			c0.014,0,0.014,0,0.027-0.015c0.014,0,0.043,0,0.057-0.014c0.014,0,0.027,0,0.041,0c0.016-0.015,0.029-0.015,0.043-0.015
			c0.014-0.014,0.041-0.014,0.057-0.014c0.014,0,0.027-0.014,0.027-0.014c0.195-0.057,0.393-0.127,0.574-0.225c0,0,0,0,0.014,0
			v-1.918h-1.961v-1.472h3.586V152.807z"/>
		<path d="M73.469,170.834h1.709c1.373,0,2.171,0.561,2.591,1.023c0.561,0.615,0.84,1.442,0.84,2.408c0,0.967-0.28,1.808-0.84,2.41
			c-0.42,0.477-1.219,1.036-2.591,1.036h-1.457v3.517h-1.625v-10.395H73.469z M77.153,174.266c0-0.406-0.084-0.994-0.462-1.414
			c-0.336-0.364-0.84-0.561-1.513-0.561h-1.457v3.95h1.457c0.672,0,1.177-0.183,1.513-0.546
			C77.069,175.275,77.153,174.687,77.153,174.266z"/>
		<path d="M87.22,181.229h-1.835l-2.619-3.517h-1.191v3.517H79.95v-10.395h1.373h1.709c1.373,0,2.171,0.561,2.591,1.037
			c0.546,0.602,0.84,1.443,0.84,2.409c0,0.952-0.294,1.793-0.84,2.396c-0.252,0.279-0.645,0.602-1.205,0.799L87.22,181.229z
			 M83.032,176.256c0.672,0,1.177-0.197,1.499-0.561c0.393-0.42,0.462-1.009,0.462-1.415c0-0.421-0.07-1.009-0.462-1.429
			c-0.322-0.364-0.826-0.547-1.499-0.547h-1.457v3.951H83.032z"/>
		<path d="M91.768,180.822c-0.63-0.267-1.177-0.645-1.653-1.121s-0.854-1.022-1.121-1.652c-0.266-0.631-0.406-1.317-0.406-2.018
			s0.14-1.387,0.406-2.031c0.266-0.616,0.645-1.162,1.121-1.652c0.476-0.477,1.022-0.841,1.653-1.107
			c0.63-0.266,1.317-0.406,2.017-0.406c0.701,0,1.387,0.141,2.031,0.406c0.616,0.267,1.163,0.631,1.653,1.107
			c0.476,0.49,0.84,1.036,1.106,1.652c0.266,0.645,0.406,1.331,0.406,2.031s-0.14,1.387-0.406,2.018
			c-0.266,0.63-0.63,1.176-1.106,1.652c-0.49,0.477-1.037,0.854-1.653,1.121c-0.645,0.266-1.331,0.406-2.031,0.406
			C93.084,181.229,92.398,181.088,91.768,180.822z M91.263,173.51c-0.672,0.672-1.05,1.568-1.05,2.521s0.378,1.85,1.05,2.521
			s1.569,1.051,2.521,1.051s1.849-0.379,2.521-1.051s1.051-1.568,1.051-2.521s-0.378-1.85-1.051-2.521s-1.569-1.051-2.521-1.051
			S91.936,172.838,91.263,173.51z"/>
		<path d="M102.183,170.834h1.709c1.373,0,2.171,0.561,2.591,1.023c0.561,0.615,0.84,1.442,0.84,2.408c0,0.967-0.28,1.808-0.84,2.41
			c-0.42,0.477-1.219,1.036-2.591,1.036h-1.457v3.517h-1.625v-10.395H102.183z M105.867,174.266c0-0.406-0.084-0.994-0.462-1.414
			c-0.336-0.364-0.84-0.561-1.513-0.561h-1.457v3.95h1.457c0.672,0,1.177-0.183,1.513-0.546
			C105.783,175.275,105.867,174.687,105.867,174.266z"/>
		<path d="M110.289,175.064h3.796v1.471h-3.796v3.223h4.609v1.471h-4.623h-1.611v-10.395h1.611h4.623v1.457h-4.609V175.064z"/>
		<path d="M124.082,181.229h-1.835l-2.619-3.517h-1.19v3.517h-1.625v-10.395h1.372h1.709c1.373,0,2.172,0.561,2.592,1.037
			c0.546,0.602,0.841,1.443,0.841,2.409c0,0.952-0.295,1.793-0.841,2.396c-0.252,0.279-0.645,0.602-1.205,0.799L124.082,181.229z
			 M119.893,176.256c0.673,0,1.177-0.197,1.499-0.561c0.393-0.42,0.463-1.009,0.463-1.415c0-0.421-0.07-1.009-0.463-1.429
			c-0.322-0.364-0.826-0.547-1.499-0.547h-1.456v3.951H119.893z"/>
		<path d="M132.467,172.291h-2.857v8.938h-1.64v-8.938h-2.857v-1.457h7.354V172.291z"/>
		<path d="M133.961,181.229v-10.395h1.625v10.395H133.961z"/>
		<path d="M139.367,175.064h3.796v1.471h-3.796v3.223h4.608v1.471h-4.623h-1.61v-10.395h1.61h4.623v1.457h-4.608V175.064z"/>
		<path d="M151.394,179.141c-0.294,1.009-1.205,1.807-2.339,2.031c-0.211,0.042-0.421,0.057-0.631,0.057
			c-0.42,0-0.841-0.07-1.232-0.225c-0.658-0.266-1.232-0.7-1.723-1.33l1.288-1.01c0.294,0.393,0.645,0.673,1.022,0.813
			c0.309,0.127,0.645,0.154,0.953,0.084c0.532-0.098,0.966-0.447,1.092-0.867c0.141-0.477-0.182-0.896-0.476-1.178
			c-0.463-0.434-1.219-1.176-1.275-1.232l-1.274-1.205c-0.392-0.377-0.658-0.798-0.798-1.246c-0.141-0.434-0.154-0.896-0.028-1.316
			c0.126-0.449,0.393-0.841,0.771-1.163c0.35-0.294,0.784-0.504,1.246-0.589c0.505-0.111,1.037-0.069,1.541,0.113
			c0.532,0.209,1.009,0.56,1.415,1.051l-1.274,1.021c-0.532-0.645-1.079-0.645-1.373-0.588c-0.364,0.07-0.673,0.309-0.757,0.602
			c-0.056,0.197-0.042,0.52,0.393,0.939l1.737,1.666c0.252,0.253,0.56,0.547,0.784,0.757c0.448,0.406,0.756,0.868,0.91,1.358
			C151.52,178.16,151.534,178.664,151.394,179.141z"/>
		<path d="M164.163,172.291h-2.857v8.938h-1.64v-8.938h-2.857v-1.457h7.354V172.291z"/>
		<path d="M170.209,175.793v5.436h-1.625v-5.436l-3.656-4.959h1.751l2.718,3.698l2.717-3.698h1.737L170.209,175.793z"/>
		<path d="M176.661,170.834h1.709c1.373,0,2.172,0.561,2.592,1.023c0.561,0.615,0.841,1.442,0.841,2.408
			c0,0.967-0.28,1.808-0.841,2.41c-0.42,0.477-1.219,1.036-2.592,1.036h-1.456v3.517h-1.625v-10.395H176.661z M180.345,174.266
			c0-0.406-0.084-0.994-0.462-1.414c-0.337-0.364-0.841-0.561-1.514-0.561h-1.456v3.95h1.456c0.673,0,1.177-0.183,1.514-0.546
			C180.261,175.275,180.345,174.687,180.345,174.266z"/>
		<path d="M184.767,175.064h3.796v1.471h-3.796v3.223h4.608v1.471h-4.623h-1.61v-10.395h1.61h4.623v1.457h-4.608V175.064z"/>
		<path d="M73.721,199.047v6.682h-1.625v-10.885l6.527,7.158v-6.668h1.639v10.87L73.721,199.047z"/>
		<path d="M83.604,204.901c-0.406-0.308-0.714-0.687-0.924-1.12c-0.238-0.477-0.35-1.009-0.35-1.583v-6.864h1.625v6.864
			c0,0.616,0.224,1.093,0.644,1.415c0.392,0.308,0.967,0.49,1.583,0.49c0.602,0,1.177-0.183,1.583-0.49
			c0.42-0.322,0.63-0.799,0.63-1.415v-6.864h1.639v6.864c0,0.574-0.126,1.106-0.35,1.583c-0.224,0.434-0.532,0.813-0.925,1.12
			c-0.686,0.532-1.597,0.827-2.577,0.827S84.291,205.434,83.604,204.901z"/>
		<path d="M100.24,205.729v-5.52l-3.25,4.847l-3.264-4.847v5.52h-1.625v-10.871l4.889,7.285l4.889-7.285v10.871H100.24z"/>
		<path d="M110.487,202.646c0,0.518-0.112,0.98-0.336,1.4c-0.224,0.393-0.546,0.729-0.952,0.994
			c-0.714,0.449-1.681,0.688-2.858,0.688h-0.924h-1.373v-10.395h1.625h0.672c1.149,0,1.989,0.211,2.578,0.645
			c0.322,0.238,0.56,0.547,0.714,0.896c0.14,0.322,0.21,0.687,0.21,1.093c0,0.561-0.182,1.247-0.813,1.905
			c0.168,0.111,0.322,0.238,0.477,0.378c0.308,0.308,0.546,0.645,0.714,1.022C110.403,201.693,110.487,202.156,110.487,202.646z
			 M105.668,196.791v3.152c0.322-0.07,0.701-0.183,1.065-0.336c0.518-0.211,0.924-0.449,1.205-0.729
			c0.294-0.281,0.434-0.574,0.434-0.911c0-0.505-0.182-0.7-0.336-0.813c-0.393-0.294-1.149-0.364-1.695-0.364H105.668z
			 M109.03,202.646c0-0.547-0.182-0.98-0.546-1.331c-0.21-0.21-0.477-0.378-0.799-0.519c-0.14,0.057-0.28,0.127-0.434,0.183
			c-0.574,0.238-1.148,0.378-1.583,0.476v2.803h0.672c0.883,0,1.597-0.154,2.059-0.449
			C108.834,203.529,109.03,203.164,109.03,202.646z"/>
		<path d="M113.9,199.564h3.796v1.471H113.9v3.223h4.609v1.471h-4.623h-1.611v-10.395h1.611h4.623v1.457H113.9V199.564z"/>
		<path d="M127.693,205.729h-1.835l-2.619-3.517h-1.19v3.517h-1.625v-10.395h1.372h1.709c1.373,0,2.172,0.561,2.592,1.037
			c0.546,0.602,0.841,1.443,0.841,2.409c0,0.952-0.295,1.793-0.841,2.396c-0.252,0.279-0.645,0.602-1.205,0.799L127.693,205.729z
			 M123.504,200.756c0.673,0,1.177-0.197,1.499-0.561c0.393-0.42,0.463-1.009,0.463-1.415c0-0.421-0.07-1.009-0.463-1.429
			c-0.322-0.364-0.826-0.547-1.499-0.547h-1.456v3.951H123.504z"/>
		<path d="M136.441,205.322c-0.631-0.267-1.177-0.645-1.653-1.121s-0.854-1.022-1.12-1.652c-0.267-0.631-0.406-1.317-0.406-2.018
			s0.14-1.387,0.406-2.031c0.266-0.616,0.644-1.162,1.12-1.652c0.477-0.477,1.022-0.841,1.653-1.107
			c0.63-0.266,1.316-0.406,2.017-0.406s1.387,0.141,2.031,0.406c0.616,0.267,1.162,0.631,1.652,1.107
			c0.477,0.49,0.841,1.036,1.107,1.652c0.266,0.645,0.406,1.331,0.406,2.031s-0.141,1.387-0.406,2.018
			c-0.267,0.63-0.631,1.176-1.107,1.652c-0.49,0.477-1.036,0.854-1.652,1.121c-0.645,0.266-1.331,0.406-2.031,0.406
			S137.071,205.588,136.441,205.322z M135.936,198.01c-0.672,0.672-1.051,1.568-1.051,2.521s0.379,1.85,1.051,2.521
			c0.673,0.672,1.569,1.051,2.521,1.051s1.849-0.379,2.521-1.051c0.672-0.672,1.051-1.568,1.051-2.521s-0.379-1.85-1.051-2.521
			c-0.673-0.672-1.569-1.051-2.521-1.051S136.609,197.338,135.936,198.01z"/>
		<path d="M147.108,199.564h3.796v1.471h-3.796v4.693h-1.625v-10.395h1.61h4.637v1.457h-4.622V199.564z"/>
		<path d="M163.588,202.646c0,0.518-0.112,0.98-0.336,1.4c-0.225,0.393-0.547,0.729-0.953,0.994
			c-0.714,0.449-1.681,0.688-2.857,0.688h-0.924h-1.373v-10.395h1.625h0.672c1.148,0,1.989,0.211,2.577,0.645
			c0.322,0.238,0.561,0.547,0.715,0.896c0.14,0.322,0.21,0.687,0.21,1.093c0,0.561-0.182,1.247-0.813,1.905
			c0.168,0.111,0.322,0.238,0.477,0.378c0.308,0.308,0.546,0.645,0.714,1.022C163.504,201.693,163.588,202.156,163.588,202.646z
			 M158.77,196.791v3.152c0.322-0.07,0.7-0.183,1.064-0.336c0.519-0.211,0.924-0.449,1.204-0.729
			c0.295-0.281,0.435-0.574,0.435-0.911c0-0.505-0.182-0.7-0.336-0.813c-0.393-0.294-1.148-0.364-1.695-0.364H158.77z
			 M162.131,202.646c0-0.547-0.182-0.98-0.546-1.331c-0.21-0.21-0.477-0.378-0.799-0.519c-0.14,0.057-0.28,0.127-0.434,0.183
			c-0.575,0.238-1.149,0.378-1.583,0.476v2.803h0.672c0.883,0,1.597-0.154,2.06-0.449
			C161.935,203.529,162.131,203.164,162.131,202.646z"/>
		<path d="M167.002,199.564h3.796v1.471h-3.796v3.223h4.608v1.471h-4.623h-1.61v-10.395h1.61h4.623v1.457h-4.608V199.564z"/>
		<path d="M181.187,200.531c0,1.471-0.435,2.731-1.261,3.643c-0.448,0.504-1.009,0.896-1.667,1.148
			c-0.673,0.266-1.429,0.406-2.27,0.406h-1.919h-0.546v-10.395h1.625h0.84c0.841,0,1.597,0.127,2.27,0.406
			c0.658,0.252,1.219,0.645,1.667,1.148C180.752,197.8,181.187,199.061,181.187,200.531z M179.562,200.531
			c0-1.064-0.294-1.947-0.841-2.549c-0.616-0.688-1.526-1.023-2.731-1.023h-0.84v7.145h0.84c1.205,0,2.115-0.351,2.731-1.023
			C179.268,202.479,179.562,201.582,179.562,200.531z"/>
		<path d="M190.245,205.729h-1.835l-2.619-3.517h-1.19v3.517h-1.625v-10.395h1.373h1.708c1.373,0,2.172,0.561,2.592,1.037
			c0.546,0.602,0.841,1.443,0.841,2.409c0,0.952-0.295,1.793-0.841,2.396c-0.252,0.279-0.645,0.602-1.205,0.799L190.245,205.729z
			 M186.056,200.756c0.673,0,1.177-0.197,1.499-0.561c0.393-0.42,0.463-1.009,0.463-1.415c0-0.421-0.07-1.009-0.463-1.429
			c-0.322-0.364-0.826-0.547-1.499-0.547H184.6v3.951H186.056z"/>
		<path d="M194.792,205.322c-0.631-0.267-1.177-0.645-1.653-1.121s-0.854-1.022-1.12-1.652c-0.267-0.631-0.406-1.317-0.406-2.018
			s0.14-1.387,0.406-2.031c0.266-0.616,0.644-1.162,1.12-1.652c0.477-0.477,1.022-0.841,1.653-1.107
			c0.63-0.266,1.316-0.406,2.017-0.406s1.387,0.141,2.031,0.406c0.616,0.267,1.162,0.631,1.652,1.107
			c0.477,0.49,0.841,1.036,1.107,1.652c0.266,0.645,0.406,1.331,0.406,2.031s-0.141,1.387-0.406,2.018
			c-0.267,0.63-0.631,1.176-1.107,1.652c-0.49,0.477-1.036,0.854-1.652,1.121c-0.645,0.266-1.331,0.406-2.031,0.406
			S195.422,205.588,194.792,205.322z M194.288,198.01c-0.672,0.672-1.051,1.568-1.051,2.521s0.379,1.85,1.051,2.521
			c0.673,0.672,1.569,1.051,2.521,1.051s1.849-0.379,2.521-1.051c0.672-0.672,1.051-1.568,1.051-2.521s-0.379-1.85-1.051-2.521
			c-0.673-0.672-1.569-1.051-2.521-1.051S194.96,197.338,194.288,198.01z"/>
		<path d="M206.678,205.322c-0.631-0.267-1.177-0.645-1.653-1.121s-0.854-1.022-1.12-1.652c-0.267-0.631-0.406-1.317-0.406-2.018
			s0.14-1.387,0.406-2.031c0.266-0.616,0.644-1.162,1.12-1.652c0.477-0.477,1.022-0.841,1.653-1.107
			c0.63-0.266,1.316-0.406,2.017-0.406s1.387,0.141,2.031,0.406c0.616,0.267,1.162,0.631,1.653,1.107
			c0.476,0.49,0.84,1.036,1.106,1.652c0.266,0.645,0.406,1.331,0.406,2.031s-0.141,1.387-0.406,2.018
			c-0.267,0.63-0.631,1.176-1.106,1.652c-0.491,0.477-1.037,0.854-1.653,1.121c-0.645,0.266-1.331,0.406-2.031,0.406
			S207.308,205.588,206.678,205.322z M206.173,198.01c-0.672,0.672-1.051,1.568-1.051,2.521s0.379,1.85,1.051,2.521
			c0.673,0.672,1.569,1.051,2.521,1.051s1.849-0.379,2.521-1.051c0.672-0.672,1.051-1.568,1.051-2.521s-0.379-1.85-1.051-2.521
			c-0.673-0.672-1.569-1.051-2.521-1.051S206.846,197.338,206.173,198.01z"/>
		<path d="M223.859,205.729v-5.52l-3.25,4.847l-3.264-4.847v5.52h-1.625v-10.871l4.889,7.285l4.889-7.285v10.871H223.859z"/>
		<path d="M233.168,203.641c-0.295,1.009-1.205,1.807-2.34,2.031c-0.211,0.042-0.42,0.057-0.631,0.057
			c-0.42,0-0.84-0.07-1.232-0.225c-0.658-0.266-1.232-0.7-1.723-1.33l1.289-1.01c0.293,0.393,0.645,0.673,1.021,0.813
			c0.309,0.127,0.645,0.154,0.953,0.084c0.533-0.098,0.967-0.447,1.092-0.867c0.141-0.477-0.182-0.896-0.475-1.178
			c-0.463-0.434-1.219-1.176-1.275-1.232l-1.275-1.205c-0.391-0.377-0.658-0.798-0.797-1.246c-0.141-0.434-0.154-0.896-0.029-1.316
			c0.127-0.449,0.393-0.841,0.771-1.163c0.35-0.294,0.783-0.504,1.246-0.589c0.504-0.111,1.037-0.069,1.541,0.113
			c0.531,0.209,1.008,0.56,1.414,1.051l-1.273,1.021c-0.533-0.645-1.08-0.645-1.373-0.588c-0.365,0.07-0.674,0.309-0.758,0.602
			c-0.055,0.197-0.041,0.52,0.393,0.939l1.738,1.666c0.252,0.253,0.559,0.547,0.783,0.757c0.449,0.406,0.756,0.868,0.91,1.358
			C233.293,202.66,233.307,203.164,233.168,203.641z"/>
		<path d="M79.758,225.031c0,1.471-0.435,2.731-1.261,3.643c-0.448,0.504-1.009,0.896-1.667,1.148
			c-0.672,0.266-1.429,0.406-2.269,0.406h-1.919h-0.546v-10.395h1.625h0.841c0.84,0,1.597,0.127,2.269,0.406
			c0.658,0.252,1.219,0.645,1.667,1.148C79.324,222.3,79.758,223.561,79.758,225.031z M78.133,225.031
			c0-1.064-0.294-1.947-0.84-2.549c-0.617-0.688-1.527-1.023-2.731-1.023h-0.841v7.145h0.841c1.205,0,2.115-0.351,2.731-1.023
			C77.839,226.979,78.133,226.082,78.133,225.031z"/>
		<path d="M83.17,224.064h3.796v1.471H83.17v3.223h4.609v1.471h-4.623h-1.611v-10.395h1.611h4.623v1.457H83.17V224.064z"/>
		<path d="M95.199,228.141c-0.294,1.009-1.205,1.807-2.339,2.031c-0.21,0.042-0.42,0.057-0.63,0.057c-0.42,0-0.84-0.07-1.232-0.225
			c-0.659-0.266-1.233-0.7-1.723-1.33l1.289-1.01c0.294,0.393,0.645,0.673,1.022,0.813c0.309,0.127,0.645,0.154,0.953,0.084
			c0.532-0.098,0.967-0.447,1.093-0.867c0.14-0.477-0.182-0.896-0.477-1.178c-0.462-0.434-1.218-1.176-1.274-1.232l-1.275-1.205
			c-0.392-0.377-0.658-0.798-0.798-1.246c-0.14-0.434-0.154-0.896-0.028-1.316c0.126-0.449,0.392-0.841,0.771-1.163
			c0.35-0.294,0.784-0.504,1.247-0.589c0.504-0.111,1.037-0.069,1.541,0.113c0.532,0.209,1.009,0.56,1.415,1.051l-1.275,1.021
			c-0.532-0.645-1.079-0.645-1.373-0.588c-0.364,0.07-0.672,0.309-0.756,0.602c-0.056,0.197-0.042,0.52,0.392,0.939l1.737,1.666
			c0.252,0.253,0.561,0.547,0.785,0.757c0.448,0.406,0.756,0.868,0.91,1.358C95.325,227.16,95.339,227.664,95.199,228.141z"/>
		<path d="M97.086,230.229v-10.395h1.625v10.395H97.086z"/>
		<path d="M108.135,230.229H106.3l-2.619-3.517h-1.191v3.517h-1.625v-10.395h1.373h1.709c1.373,0,2.171,0.561,2.591,1.037
			c0.546,0.602,0.84,1.443,0.84,2.409c0,0.952-0.294,1.793-0.84,2.396c-0.252,0.279-0.645,0.602-1.205,0.799L108.135,230.229z
			 M103.947,225.256c0.672,0,1.177-0.197,1.499-0.561c0.393-0.42,0.462-1.009,0.462-1.415c0-0.421-0.07-1.009-0.462-1.429
			c-0.322-0.364-0.826-0.547-1.499-0.547h-1.457v3.951H103.947z"/>
		<path d="M111.464,224.064h3.796v1.471h-3.796v3.223h4.609v1.471h-4.623h-1.611v-10.395h1.611h4.623v1.457h-4.609V224.064z"/>
		<path d="M125.649,225.031c0,1.471-0.435,2.731-1.261,3.643c-0.448,0.504-1.009,0.896-1.667,1.148
			c-0.672,0.266-1.429,0.406-2.27,0.406h-1.919h-0.546v-10.395h1.625h0.84c0.841,0,1.598,0.127,2.27,0.406
			c0.658,0.252,1.219,0.645,1.667,1.148C125.214,222.3,125.649,223.561,125.649,225.031z M124.024,225.031
			c0-1.064-0.294-1.947-0.841-2.549c-0.616-0.688-1.526-1.023-2.731-1.023h-0.84v7.145h0.84c1.205,0,2.115-0.351,2.731-1.023
			C123.73,226.979,124.024,226.082,124.024,225.031z"/>
		<path d="M137.268,228.001h-3.698l-0.882,2.228h-1.793l4.524-10.871l4.51,10.871h-1.778L137.268,228.001z M136.68,226.544
			l-1.261-3.165l-1.261,3.165H136.68z"/>
		<path d="M148.636,230.229h-1.835l-2.619-3.517h-1.19v3.517h-1.625v-10.395h1.372h1.709c1.373,0,2.172,0.561,2.592,1.037
			c0.546,0.602,0.841,1.443,0.841,2.409c0,0.952-0.295,1.793-0.841,2.396c-0.252,0.279-0.645,0.602-1.205,0.799L148.636,230.229z
			 M144.448,225.256c0.673,0,1.177-0.197,1.499-0.561c0.393-0.42,0.463-1.009,0.463-1.415c0-0.421-0.07-1.009-0.463-1.429
			c-0.322-0.364-0.826-0.547-1.499-0.547h-1.456v3.951H144.448z"/>
		<path d="M151.965,224.064h3.796v1.471h-3.796v3.223h4.608v1.471h-4.623h-1.61v-10.395h1.61h4.623v1.457h-4.608V224.064z"/>
		<path d="M164.119,228.001h-3.698l-0.882,2.228h-1.793l4.524-10.871l4.51,10.871h-1.778L164.119,228.001z M163.531,226.544
			l-1.261-3.165l-1.261,3.165H163.531z"/>
		<path d="M77.727,252.501h-3.698l-0.882,2.228h-1.793l4.524-10.871l4.511,10.871h-1.779L77.727,252.501z M77.139,251.044
			l-1.261-3.165l-1.261,3.165H77.139z"/>
		<path d="M85.804,251.184l2.731-6.85h1.765l-4.455,10.856l-4.763-10.856h1.793L85.804,251.184z"/>
		<path d="M97.369,252.501h-3.698l-0.883,2.228h-1.793l4.524-10.871l4.511,10.871h-1.779L97.369,252.501z M96.781,251.044
			l-1.261-3.165l-1.261,3.165H96.781z"/>
		<path d="M101.468,254.729v-10.395h1.625v10.395H101.468z"/>
		<path d="M111.215,254.729h-4.356h-1.611v-10.395h1.625v8.924h4.343V254.729z"/>
		<path d="M118.033,252.501h-3.698l-0.882,2.228h-1.793l4.525-10.871l4.51,10.871h-1.778L118.033,252.501z M117.445,251.044
			l-1.261-3.165l-1.261,3.165H117.445z"/>
		<path d="M128.575,251.646c0,0.518-0.112,0.98-0.336,1.4c-0.225,0.393-0.547,0.729-0.953,0.994
			c-0.714,0.449-1.681,0.688-2.857,0.688h-0.924h-1.373v-10.395h1.625h0.672c1.148,0,1.989,0.211,2.577,0.645
			c0.322,0.238,0.561,0.547,0.715,0.896c0.14,0.322,0.21,0.687,0.21,1.093c0,0.561-0.182,1.247-0.813,1.905
			c0.168,0.111,0.322,0.238,0.477,0.378c0.308,0.308,0.546,0.645,0.714,1.022C128.491,250.693,128.575,251.156,128.575,251.646z
			 M123.756,245.791v3.152c0.322-0.07,0.7-0.183,1.064-0.336c0.519-0.211,0.924-0.449,1.204-0.729
			c0.295-0.281,0.435-0.574,0.435-0.911c0-0.505-0.182-0.7-0.336-0.813c-0.393-0.294-1.148-0.364-1.695-0.364H123.756z
			 M127.118,251.646c0-0.547-0.182-0.98-0.546-1.331c-0.21-0.21-0.477-0.378-0.799-0.519c-0.14,0.057-0.28,0.127-0.434,0.183
			c-0.575,0.238-1.149,0.378-1.583,0.476v2.803h0.672c0.883,0,1.597-0.154,2.06-0.449
			C126.921,252.529,127.118,252.164,127.118,251.646z"/>
		<path d="M136.331,254.729h-4.356h-1.61v-10.395h1.625v8.924h4.342V254.729z"/>
		<path d="M139.142,248.564h3.796v1.471h-3.796v3.223h4.608v1.471h-4.623h-1.61v-10.395h1.61h4.623v1.457h-4.608V248.564z"/>
		<path d="M155.37,252.641c-0.294,1.009-1.205,1.807-2.34,2.031c-0.21,0.042-0.42,0.057-0.63,0.057c-0.42,0-0.841-0.07-1.232-0.225
			c-0.658-0.266-1.232-0.7-1.724-1.33l1.289-1.01c0.294,0.393,0.645,0.673,1.022,0.813c0.309,0.127,0.645,0.154,0.953,0.084
			c0.532-0.098,0.966-0.447,1.092-0.867c0.141-0.477-0.182-0.896-0.476-1.178c-0.463-0.434-1.219-1.176-1.275-1.232l-1.274-1.205
			c-0.392-0.377-0.658-0.798-0.798-1.246c-0.141-0.434-0.154-0.896-0.028-1.316c0.126-0.449,0.392-0.841,0.771-1.163
			c0.35-0.294,0.784-0.504,1.246-0.589c0.505-0.111,1.037-0.069,1.541,0.113c0.532,0.209,1.009,0.56,1.415,1.051l-1.274,1.021
			c-0.532-0.645-1.079-0.645-1.373-0.588c-0.364,0.07-0.673,0.309-0.757,0.602c-0.056,0.197-0.042,0.52,0.393,0.939l1.737,1.666
			c0.252,0.253,0.56,0.547,0.784,0.757c0.448,0.406,0.756,0.868,0.91,1.358C155.496,251.66,155.509,252.164,155.37,252.641z"/>
		<path d="M164.89,253.873c-0.266,0.168-0.546,0.322-0.84,0.449c-0.645,0.266-1.331,0.406-2.031,0.406s-1.387-0.141-2.018-0.406
			c-0.63-0.267-1.177-0.645-1.652-1.121c-0.477-0.477-0.854-1.022-1.121-1.652c-0.266-0.631-0.406-1.317-0.406-2.018
			s0.141-1.387,0.406-2.031c0.267-0.616,0.645-1.176,1.121-1.652c0.476-0.477,1.022-0.855,1.652-1.107
			c0.631-0.279,1.317-0.406,2.018-0.406s1.387,0.127,2.031,0.406c0.069,0.028,0.153,0.07,0.224,0.099v1.919
			c-0.63-0.519-1.415-0.799-2.255-0.799c-0.953,0-1.85,0.365-2.521,1.051c-0.673,0.672-1.051,1.568-1.051,2.521
			s0.378,1.85,1.051,2.521c0.672,0.672,1.568,1.051,2.521,1.051c0.952,0,1.849-0.379,2.521-1.051
			c0.126-0.127,0.237-0.252,0.35-0.393V253.873z"/>
		<path d="M174.129,254.729h-1.625v-4.482h-4.146v4.482h-1.625v-10.395h1.625v4.441h4.146v-4.441h1.625V254.729z"/>
		<path d="M177.92,248.564h3.796v1.471h-3.796v3.223h4.608v1.471h-4.623h-1.61v-10.395h1.61h4.623v1.457h-4.608V248.564z"/>
		<path d="M192.105,249.531c0,1.471-0.435,2.731-1.261,3.643c-0.448,0.504-1.009,0.896-1.667,1.148
			c-0.673,0.266-1.429,0.406-2.27,0.406h-1.919h-0.546v-10.395h1.625h0.84c0.841,0,1.597,0.127,2.27,0.406
			c0.658,0.252,1.219,0.645,1.667,1.148C191.67,246.8,192.105,248.061,192.105,249.531z M190.48,249.531
			c0-1.064-0.294-1.947-0.841-2.549c-0.616-0.688-1.526-1.023-2.731-1.023h-0.84v7.145h0.84c1.205,0,2.115-0.351,2.731-1.023
			C190.186,251.479,190.48,250.582,190.48,249.531z"/>
		<path d="M195.07,253.901c-0.406-0.308-0.715-0.687-0.925-1.12c-0.238-0.477-0.351-1.009-0.351-1.583v-6.864h1.625v6.864
			c0,0.616,0.225,1.093,0.645,1.415c0.393,0.308,0.967,0.49,1.583,0.49c0.603,0,1.177-0.183,1.583-0.49
			c0.42-0.322,0.63-0.799,0.63-1.415v-6.864h1.639v6.864c0,0.574-0.126,1.106-0.35,1.583c-0.225,0.434-0.532,0.813-0.925,1.12
			c-0.687,0.532-1.597,0.827-2.577,0.827S195.756,254.434,195.07,253.901z"/>
		<path d="M209.534,254.729h-4.356h-1.61v-10.395h1.625v8.924h4.342V254.729z"/>
		<path d="M212.345,248.564h3.796v1.471h-3.796v3.223h4.608v1.471h-4.623h-1.61v-10.395h1.61h4.623v1.457h-4.608V248.564z"/>
		<path d="M224.693,248.564h3.795v1.471h-3.795v4.693h-1.625v-10.395h1.609h4.637v1.457h-4.621V248.564z"/>
		<path d="M233.373,254.322c-0.631-0.267-1.176-0.645-1.652-1.121s-0.855-1.022-1.121-1.652c-0.266-0.631-0.406-1.317-0.406-2.018
			s0.141-1.387,0.406-2.031c0.266-0.616,0.645-1.162,1.121-1.652c0.477-0.477,1.021-0.841,1.652-1.107
			c0.631-0.266,1.316-0.406,2.018-0.406c0.699,0,1.387,0.141,2.031,0.406c0.615,0.267,1.162,0.631,1.652,1.107
			c0.477,0.49,0.84,1.036,1.107,1.652c0.266,0.645,0.406,1.331,0.406,2.031s-0.141,1.387-0.406,2.018
			c-0.268,0.63-0.631,1.176-1.107,1.652c-0.49,0.477-1.037,0.854-1.652,1.121c-0.645,0.266-1.332,0.406-2.031,0.406
			C234.689,254.729,234.004,254.588,233.373,254.322z M232.869,247.01c-0.672,0.672-1.051,1.568-1.051,2.521s0.379,1.85,1.051,2.521
			s1.568,1.051,2.521,1.051c0.951,0,1.848-0.379,2.521-1.051c0.672-0.672,1.051-1.568,1.051-2.521s-0.379-1.85-1.051-2.521
			c-0.674-0.672-1.57-1.051-2.521-1.051C234.438,245.959,233.541,246.338,232.869,247.01z"/>
		<path d="M249.686,254.729h-1.836l-2.619-3.517h-1.189v3.517h-1.625v-10.395h1.371h1.709c1.373,0,2.172,0.561,2.592,1.037
			c0.547,0.602,0.842,1.443,0.842,2.409c0,0.952-0.295,1.793-0.842,2.396c-0.252,0.279-0.645,0.602-1.205,0.799L249.686,254.729z
			 M245.496,249.756c0.674,0,1.178-0.197,1.5-0.561c0.393-0.42,0.463-1.009,0.463-1.415c0-0.421-0.07-1.009-0.463-1.429
			c-0.322-0.364-0.826-0.547-1.5-0.547h-1.455v3.951H245.496z"/>
		<path d="M259.566,251.184l2.732-6.85h1.766l-4.455,10.856l-4.762-10.856h1.793L259.566,251.184z"/>
		<path d="M265.502,254.729v-10.395h1.625v10.395H265.502z"/>
		<path d="M270.906,248.564h3.797v1.471h-3.797v3.223h4.609v1.471h-4.623h-1.611v-10.395h1.611h4.623v1.457h-4.609V248.564z"/>
		<path d="M286.996,255.19l-2.746-6.262l-2.576,6.262l-4.764-10.856h1.793l2.928,6.85l1.723-4.314l0.842-2.143l0.91,2.115
			l1.85,4.342l2.73-6.85h1.779L286.996,255.19z"/>
		<path d="M293.123,254.729v-10.395h1.625v10.395H293.123z"/>
		<path d="M298.527,248.047v6.682h-1.625v-10.885l6.527,7.158v-6.668h1.639v10.87L298.527,248.047z"/>
		<path d="M315.262,250.807v2.814l-0.365,0.252c-0.014,0-0.014,0-0.027,0.015c-0.014,0.014-0.043,0.028-0.057,0.028
			c-0.014,0.014-0.027,0.027-0.041,0.027c-0.016,0.014-0.029,0.028-0.057,0.028c-0.014,0.015-0.027,0.028-0.057,0.042
			c-0.014,0.014-0.027,0.014-0.041,0.027c-0.014,0.015-0.029,0.015-0.043,0.029c-0.027,0.014-0.041,0.014-0.07,0.027
			c-0.014,0.014-0.027,0.014-0.041,0.027c-0.014,0.015-0.043,0.029-0.07,0.029c-0.014,0.014-0.014,0.014-0.027,0.027
			c-0.016,0-0.016,0-0.029,0c-0.014,0.014-0.041,0.028-0.07,0.042c-0.027,0.015-0.068,0.028-0.098,0.042c0,0,0,0-0.014,0.014
			c-0.588,0.267-1.205,0.406-1.863,0.449c0,0,0,0-0.014,0c-0.027,0-0.07,0-0.111,0h-0.016c-0.041,0-0.084,0-0.125,0
			c-0.561,0-1.121-0.084-1.639-0.267c-0.014,0-0.014,0-0.014,0c-0.057-0.015-0.1-0.042-0.154-0.056
			c-0.07-0.028-0.141-0.057-0.211-0.084c-0.182-0.07-0.35-0.154-0.504-0.252c-0.42-0.225-0.813-0.52-1.148-0.869
			c-0.477-0.477-0.855-1.022-1.121-1.652c-0.195-0.477-0.336-0.98-0.377-1.5c-0.016-0.168-0.029-0.35-0.029-0.518
			c0-0.084,0-0.182,0-0.266c0.043-0.604,0.168-1.205,0.406-1.766c0.266-0.616,0.645-1.176,1.121-1.652s1.021-0.855,1.652-1.107
			c0.631-0.279,1.316-0.406,2.018-0.406c0.041,0,0.084,0,0.125,0h0.016c0.041,0,0.084,0,0.111,0c0.014,0,0.014,0,0.014,0
			c0.043,0,0.084,0,0.127,0.015c0.602,0.042,1.189,0.183,1.75,0.435c0,0,0,0.014,0.014,0.014c0.029,0.014,0.057,0.027,0.084,0.042
			c0.016,0,0.016,0,0.016,0v1.919c-0.211-0.182-0.449-0.322-0.701-0.448c-0.211-0.099-0.434-0.183-0.645-0.238
			c-0.014,0-0.027,0-0.041-0.015c-0.016,0-0.029,0-0.043,0c-0.014-0.014-0.027-0.014-0.057-0.014c0,0-0.014,0-0.027-0.014
			c-0.057-0.014-0.127-0.014-0.182-0.027c-0.014,0-0.014,0-0.029,0c-0.014,0-0.041-0.015-0.055-0.015s-0.014,0-0.029,0
			c-0.014,0-0.041,0-0.055-0.015c-0.014,0-0.029,0-0.043,0c-0.027,0-0.055,0-0.084,0c-0.014,0-0.027-0.014-0.041-0.014
			s-0.029,0-0.043,0s-0.041,0-0.057,0c-0.014,0-0.027,0-0.027,0c-0.027,0-0.07,0-0.098,0c-0.658,0-1.289,0.168-1.836,0.504
			c-0.014,0.015-0.041,0.029-0.068,0.043c-0.225,0.14-0.436,0.309-0.617,0.504c-0.057,0.057-0.127,0.112-0.182,0.182
			c0,0,0,0.015-0.014,0.015c-0.07,0.084-0.127,0.168-0.184,0.252c-0.014,0.015-0.027,0.028-0.027,0.028
			c-0.027,0.042-0.057,0.084-0.084,0.126c-0.014,0.014-0.027,0.042-0.027,0.056c-0.211,0.336-0.352,0.687-0.436,1.064
			c-0.014,0.014-0.014,0.014-0.014,0.028c-0.027,0.14-0.057,0.28-0.07,0.421c0,0.055,0,0.111,0,0.153
			c-0.014,0.07-0.014,0.126-0.014,0.196c0,0.057,0,0.111,0.014,0.182c0.014,0.267,0.057,0.533,0.127,0.785
			c0.168,0.588,0.477,1.12,0.91,1.555c0.672,0.672,1.568,1.051,2.521,1.051c0.027,0,0.07,0,0.098,0c0.014,0,0.027,0,0.043-0.014
			c0.014,0,0.041,0,0.055,0c0.016,0,0.029,0,0.043,0s0.027,0,0.041,0c0.029,0,0.043,0,0.07,0c0-0.015,0.014-0.015,0.029-0.015
			c0.014,0,0.041,0,0.055,0s0.014,0,0.029,0c0.098-0.015,0.209-0.042,0.307-0.056c0.016,0,0.016,0,0.029-0.015
			c0.014,0,0.041,0,0.055-0.014c0.016,0,0.029,0,0.043,0c0.014-0.015,0.027-0.015,0.041-0.015c0.016-0.014,0.043-0.014,0.057-0.014
			s0.027-0.014,0.027-0.014c0.197-0.057,0.393-0.127,0.576-0.225c0,0,0,0,0.014,0v-1.918h-1.961v-1.472h3.586V250.807z"/>
	</g>
	<g>
		<path fill="none" stroke="#CCCCCC" stroke-miterlimit="10" d="M382.5,282.5c0,5.522-4.477,10-10,10h-362c-5.523,0-10-4.478-10-10
			v-272c0-5.522,4.477-10,10-10h362c5.523,0,10,4.478,10,10V282.5z"/>
	</g>
</g>
</svg>
