<?xml version="1.0" encoding="utf-8"?>
<!-- Generator: Adobe Illustrator 16.0.0, SVG Export Plug-In . SVG Version: 6.00 Build 0)  -->
<!DOCTYPE svg PUBLIC "-//W3C//DTD SVG 1.1//EN" "http://www.w3.org/Graphics/SVG/1.1/DTD/svg11.dtd">
<svg version="1.1" xmlns="http://www.w3.org/2000/svg" xmlns:xlink="http://www.w3.org/1999/xlink" x="0px" y="0px" width="386.5px"
	 height="167.28px" viewBox="0 0 386.5 167.28" enable-background="new 0 0 386.5 167.28" xml:space="preserve">
<g id="_x31_0_x3000_特集一覧_x3000_category">
</g>
<g id="_x31_1_x3000_特集個別_x3000_">
</g>
<g id="_x31_2_x3000_サポート_x3000_suport">
</g>
<g id="_x31_3_x3000_住居エリア情報_area">
</g>
<g id="_x31_4_x3000_物件タイプ情報_x3000_style">
</g>
<g id="_x31_5_x3000_内覧_x30FB_入居フロー_x3000_step">
	<g>
		<path fill="none" stroke="#CCCCCC" stroke-miterlimit="10" d="M385,156.5c0,5.523-4.478,10-10,10H12c-5.522,0-10-4.477-10-10v-145
			c0-5.523,4.478-10,10-10h363c5.522,0,10,4.477,10,10V156.5z"/>
	</g>
	<g>
		<path d="M162.354,139.404c-0.97-0.567-1.779-1.403-2.455-2.429c-1.16-1.782-1.808-4.157-1.808-6.667
			c0-2.51,0.647-4.886,1.782-6.667c0.675-0.999,1.484-1.809,2.428-2.375c1.053-0.648,2.241-0.945,3.509-0.945
			c1.271,0,2.458,0.297,3.482,0.945c0.973,0.567,1.782,1.376,2.431,2.429c1.16,1.782,1.808,4.157,1.808,6.667
			s-0.647,4.859-1.781,6.64c-0.648,1.026-1.457,1.835-2.402,2.402c-1.053,0.621-2.213,0.945-3.481,0.945
			S163.408,140.025,162.354,139.404z M162.518,125.368c-0.809,1.242-1.296,3.05-1.296,4.939c0,1.89,0.487,3.698,1.296,4.967
			c0.837,1.269,1.972,1.943,3.349,1.943c1.35,0,2.429-0.647,3.239-1.917c0.811-1.242,1.269-3.05,1.269-4.939
			s-0.458-3.698-1.269-4.967c-0.837-1.295-1.945-1.943-3.295-1.943C164.435,123.451,163.328,124.099,162.518,125.368z"/>
		<path d="M179.395,140.349v-13.793l-2.483,1.863l-1.862-2.51l7.477-5.588v20.029H179.395z"/>
		<path d="M199.505,137.164v3.185h-14.062l1.942-2.537c3.699-4.886,5.346-7.072,7.424-9.853c0.593-0.81,0.972-1.62,1.08-2.268
			c0.054-0.486,0-0.891-0.217-1.214c-0.433-0.729-1.457-1.134-2.51-0.972c-0.595,0.108-1.134,0.351-1.565,0.755
			c-0.486,0.459-0.864,1.107-1.053,1.89l-2.81-1.646c0.38-1.026,0.974-1.89,1.729-2.591c0.89-0.81,1.998-1.35,3.213-1.539
			c2.322-0.351,4.642,0.621,5.721,2.456c0.594,0.972,0.812,2.105,0.62,3.32c-0.16,1.188-0.726,2.457-1.673,3.698
			c-1.699,2.267-3.076,4.13-5.505,7.315H199.505z"/>
		<path d="M216.004,137.164v3.185h-14.064l1.944-2.537c3.698-4.886,5.345-7.072,7.423-9.853c0.593-0.81,0.972-1.62,1.079-2.268
			c0.055-0.486,0-0.891-0.217-1.214c-0.431-0.729-1.456-1.134-2.509-0.972c-0.594,0.108-1.134,0.351-1.566,0.755
			c-0.485,0.459-0.863,1.107-1.051,1.89l-2.809-1.646c0.377-1.026,0.972-1.89,1.727-2.591c0.891-0.81,1.999-1.35,3.214-1.539
			c2.321-0.351,4.643,0.621,5.722,2.456c0.594,0.972,0.811,2.105,0.621,3.32c-0.163,1.188-0.729,2.457-1.674,3.698
			c-1.701,2.267-3.078,4.13-5.507,7.315H216.004z"/>
		<path d="M226.969,126.798c0-1.593,0.594-3.212,1.593-4.4c1.16-1.35,2.807-2.079,4.642-2.079c2.565,0,4.643,1.269,5.831,3.563
			c1.834,3.536,1.296,8.962-1.295,12.606c-0.946,1.35-2.079,2.348-3.402,3.023c-1.35,0.675-3.13,0.945-4.695,0.81v-3.158
			c1.079,0.135,2.402-0.027,3.292-0.459c0.864-0.432,1.619-1.106,2.241-2.024c0.538-0.756,0.944-1.62,1.269-2.537
			c-0.918,0.432-1.943,0.675-3.077,0.675c-2.512,0-3.995-1.026-4.805-1.863C227.535,129.875,226.969,128.391,226.969,126.798z
			 M230.1,126.798c0,0.783,0.269,1.484,0.729,1.998c0.566,0.567,1.404,0.891,2.538,0.891c1.296,0,2.24-0.459,2.887-1.404
			c0.353-0.459,0.514-0.945,0.596-1.214c-0.136-0.621-0.325-1.215-0.596-1.728c-0.646-1.269-1.646-1.89-3.05-1.89
			c-1.159,0-1.862,0.54-2.267,0.999C230.424,125.071,230.1,125.935,230.1,126.798z"/>
		<path d="M246.273,140.349v-13.793l-2.483,1.863l-1.862-2.51l7.476-5.588v20.029H246.273z"/>
		<path d="M255.858,140.349v-13.793l-2.483,1.863l-1.862-2.51l7.477-5.588v20.029H255.858z"/>
		<path d="M284.07,137.164v3.185h-14.063l1.943-2.537c3.698-4.886,5.345-7.072,7.423-9.853c0.594-0.81,0.972-1.62,1.079-2.268
			c0.053-0.486,0-0.891-0.217-1.214c-0.431-0.729-1.456-1.134-2.509-0.972c-0.594,0.108-1.134,0.351-1.566,0.755
			c-0.486,0.459-0.863,1.107-1.053,1.89l-2.807-1.646c0.377-1.026,0.972-1.89,1.727-2.591c0.891-0.81,1.999-1.35,3.213-1.539
			c2.322-0.351,4.644,0.621,5.723,2.456c0.594,0.972,0.811,2.105,0.621,3.32c-0.163,1.188-0.729,2.457-1.674,3.698
			c-1.7,2.267-3.076,4.13-5.507,7.315H284.07z"/>
		<path d="M290.04,140.349v-13.793l-2.483,1.863l-1.862-2.51l7.475-5.588v20.029H290.04z"/>
		<path d="M301.003,139.404c-0.974-0.567-1.785-1.403-2.458-2.429c-1.16-1.782-1.81-4.157-1.81-6.667
			c0-2.51,0.649-4.886,1.782-6.667c0.676-0.999,1.485-1.809,2.43-2.375c1.053-0.648,2.239-0.945,3.509-0.945
			s2.456,0.297,3.482,0.945c0.972,0.567,1.78,1.376,2.429,2.429c1.16,1.782,1.81,4.157,1.81,6.667s-0.649,4.859-1.782,6.64
			c-0.647,1.026-1.457,1.835-2.403,2.402c-1.053,0.621-2.212,0.945-3.481,0.945C303.242,140.349,302.053,140.025,301.003,139.404z
			 M301.163,125.368c-0.81,1.242-1.296,3.05-1.296,4.939c0,1.89,0.486,3.698,1.296,4.967c0.837,1.269,1.97,1.943,3.347,1.943
			c1.35,0,2.429-0.647,3.24-1.917c0.809-1.242,1.268-3.05,1.268-4.939s-0.459-3.698-1.268-4.967
			c-0.838-1.295-1.944-1.943-3.294-1.943C303.08,123.451,301.974,124.099,301.163,125.368z"/>
		<path d="M319.416,139.404c-0.973-0.567-1.783-1.403-2.457-2.429c-1.16-1.782-1.809-4.157-1.809-6.667
			c0-2.51,0.648-4.886,1.782-6.667c0.674-0.999,1.485-1.809,2.429-2.375c1.053-0.648,2.24-0.945,3.507-0.945
			c1.271,0,2.459,0.297,3.482,0.945c0.973,0.567,1.782,1.376,2.432,2.429c1.16,1.782,1.809,4.157,1.809,6.667
			s-0.648,4.859-1.782,6.64c-0.648,1.026-1.458,1.835-2.402,2.402c-1.053,0.621-2.213,0.945-3.481,0.945
			S320.468,140.025,319.416,139.404z M319.576,125.368c-0.81,1.242-1.294,3.05-1.294,4.939c0,1.89,0.484,3.698,1.294,4.967
			c0.838,1.269,1.972,1.943,3.349,1.943c1.35,0,2.429-0.647,3.239-1.917c0.81-1.242,1.269-3.05,1.269-4.939
			s-0.459-3.698-1.269-4.967c-0.837-1.295-1.946-1.943-3.296-1.943C321.494,123.451,320.386,124.099,319.576,125.368z"/>
	</g>
	<g>
		<path d="M171.51,106.948c-0.972-0.567-1.781-1.403-2.457-2.429c-1.159-1.782-1.809-4.157-1.809-6.667
			c0-2.51,0.649-4.886,1.783-6.667c0.674-0.999,1.484-1.809,2.429-2.375c1.053-0.648,2.239-0.945,3.509-0.945
			s2.456,0.297,3.482,0.945c0.971,0.567,1.781,1.376,2.43,2.429c1.159,1.782,1.809,4.157,1.809,6.667s-0.649,4.859-1.783,6.64
			c-0.646,1.026-1.456,1.835-2.4,2.402c-1.055,0.621-2.214,0.945-3.483,0.945C173.752,107.893,172.563,107.569,171.51,106.948z
			 M171.672,92.912c-0.81,1.242-1.295,3.05-1.295,4.939c0,1.89,0.485,3.698,1.295,4.967c0.837,1.269,1.971,1.943,3.347,1.943
			c1.35,0,2.429-0.647,3.239-1.917c0.81-1.242,1.27-3.05,1.27-4.939s-0.46-3.698-1.27-4.967c-0.837-1.295-1.943-1.943-3.293-1.943
			C173.589,90.996,172.482,91.644,171.672,92.912z"/>
		<path d="M199.048,101.739c0,1.62-0.622,3.131-1.7,4.238c-0.838,0.891-2.376,1.917-4.86,1.917c-2.563,0-4.155-1.026-5.02-1.89
			c-1.16-1.133-1.781-2.645-1.781-4.265s0.621-3.131,1.755-4.265c0.135-0.135,0.323-0.297,0.485-0.432
			c-1.025-0.999-1.565-2.349-1.565-3.779c0-1.431,0.566-2.78,1.591-3.779c0.783-0.729,2.188-1.62,4.481-1.62
			c2.24,0,3.618,0.891,4.4,1.674c1,0.999,1.566,2.348,1.566,3.779s-0.566,2.753-1.539,3.752c0.161,0.135,0.324,0.297,0.486,0.432
			C198.426,98.635,199.048,100.146,199.048,101.739z M195.89,101.739c0-0.783-0.271-1.512-0.81-2.051
			c-0.594-0.621-1.539-0.972-2.646-0.972c-1.807,0-3.616,0.945-3.616,3.023c0,0.783,0.297,1.512,0.837,2.024
			c0.646,0.648,1.646,0.999,2.833,0.999c1.108,0,1.999-0.351,2.619-0.972C195.619,103.277,195.89,102.548,195.89,101.739z
			 M189.491,93.263c0,0.594,0.243,1.133,0.649,1.539c0.539,0.513,1.35,0.783,2.347,0.783c2.025,0,2.755-1.215,2.755-2.268
			c0-0.594-0.216-1.161-0.622-1.565c-0.513-0.486-1.27-0.756-2.187-0.756c-0.999,0-1.782,0.27-2.293,0.756
			C189.708,92.156,189.491,92.696,189.491,93.263z"/>
		<path d="M216.41,107.893c-2.052-0.135-4.158-0.945-6.316-2.429l1.781-2.564c2.97,2.079,5.775,2.429,7.666,1.026
			c1.349-1.026,1.998-2.808,1.512-4.265c-0.243-0.675-0.676-1.214-1.35-1.62c-0.837-0.513-1.972-0.756-3.375-0.756l-2.672,0.027
			l3.455-6.343h-5.749v-3.104h11.04l-3.59,6.532c0.944,0.216,1.781,0.54,2.537,0.972c1.269,0.783,2.186,1.917,2.646,3.293
			c0.457,1.323,0.431,2.834-0.027,4.238c-0.485,1.376-1.376,2.646-2.538,3.509c-1.295,0.972-2.861,1.484-4.562,1.484
			C216.707,107.893,216.545,107.893,216.41,107.893z"/>
		<path d="M226.969,94.343c0-1.593,0.594-3.212,1.593-4.4c1.16-1.35,2.807-2.079,4.642-2.079c2.565,0,4.643,1.269,5.831,3.563
			c1.834,3.536,1.296,8.962-1.295,12.606c-0.946,1.35-2.079,2.348-3.402,3.023c-1.35,0.675-3.13,0.945-4.695,0.81v-3.158
			c1.079,0.135,2.402-0.027,3.292-0.459c0.864-0.432,1.619-1.106,2.241-2.024c0.538-0.756,0.944-1.62,1.269-2.537
			c-0.918,0.432-1.943,0.675-3.077,0.675c-2.512,0-3.995-1.026-4.805-1.863C227.535,97.42,226.969,95.935,226.969,94.343z
			 M230.1,94.343c0,0.783,0.269,1.484,0.729,1.998c0.566,0.567,1.404,0.891,2.538,0.891c1.296,0,2.24-0.459,2.887-1.404
			c0.353-0.459,0.514-0.945,0.596-1.214c-0.136-0.621-0.325-1.215-0.596-1.728c-0.646-1.269-1.646-1.89-3.05-1.89
			c-1.159,0-1.862,0.54-2.267,0.999C230.424,92.615,230.1,93.479,230.1,94.343z"/>
		<path d="M246.273,107.893V94.1l-2.483,1.863l-1.862-2.51l7.476-5.588v20.029H246.273z"/>
		<path d="M255.858,107.893V94.1l-2.483,1.863l-1.862-2.51l7.477-5.588v20.029H255.858z"/>
		<path d="M284.07,104.708v3.185h-14.063l1.943-2.537c3.698-4.886,5.345-7.072,7.423-9.853c0.594-0.81,0.972-1.62,1.079-2.268
			c0.053-0.486,0-0.891-0.217-1.214c-0.431-0.729-1.456-1.134-2.509-0.972c-0.594,0.108-1.134,0.351-1.566,0.755
			c-0.486,0.459-0.863,1.107-1.053,1.89l-2.807-1.646c0.377-1.026,0.972-1.89,1.727-2.591c0.891-0.81,1.999-1.35,3.213-1.539
			c2.322-0.351,4.644,0.621,5.723,2.456c0.594,0.972,0.811,2.105,0.621,3.32c-0.163,1.188-0.729,2.457-1.674,3.698
			c-1.7,2.267-3.076,4.13-5.507,7.315H284.07z"/>
		<path d="M290.04,107.893V94.1l-2.483,1.863l-1.862-2.51l7.475-5.588v20.029H290.04z"/>
		<path d="M301.003,106.948c-0.974-0.567-1.785-1.403-2.458-2.429c-1.16-1.782-1.81-4.157-1.81-6.667
			c0-2.51,0.649-4.886,1.782-6.667c0.676-0.999,1.485-1.809,2.43-2.375c1.053-0.648,2.239-0.945,3.509-0.945
			s2.456,0.297,3.482,0.945c0.972,0.567,1.78,1.376,2.429,2.429c1.16,1.782,1.81,4.157,1.81,6.667s-0.649,4.859-1.782,6.64
			c-0.647,1.026-1.457,1.835-2.403,2.402c-1.053,0.621-2.212,0.945-3.481,0.945C303.242,107.893,302.053,107.569,301.003,106.948z
			 M301.163,92.912c-0.81,1.242-1.296,3.05-1.296,4.939c0,1.89,0.486,3.698,1.296,4.967c0.837,1.269,1.97,1.943,3.347,1.943
			c1.35,0,2.429-0.647,3.24-1.917c0.809-1.242,1.268-3.05,1.268-4.939s-0.459-3.698-1.268-4.967
			c-0.838-1.295-1.944-1.943-3.294-1.943C303.08,90.996,301.974,91.644,301.163,92.912z"/>
		<path d="M319.416,106.948c-0.973-0.567-1.783-1.403-2.457-2.429c-1.16-1.782-1.809-4.157-1.809-6.667
			c0-2.51,0.648-4.886,1.782-6.667c0.674-0.999,1.485-1.809,2.429-2.375c1.053-0.648,2.24-0.945,3.507-0.945
			c1.271,0,2.459,0.297,3.482,0.945c0.973,0.567,1.782,1.376,2.432,2.429c1.16,1.782,1.809,4.157,1.809,6.667
			s-0.648,4.859-1.782,6.64c-0.648,1.026-1.458,1.835-2.402,2.402c-1.053,0.621-2.213,0.945-3.481,0.945
			S320.468,107.569,319.416,106.948z M319.576,92.912c-0.81,1.242-1.294,3.05-1.294,4.939c0,1.89,0.484,3.698,1.294,4.967
			c0.838,1.269,1.972,1.943,3.349,1.943c1.35,0,2.429-0.647,3.239-1.917c0.81-1.242,1.269-3.05,1.269-4.939
			s-0.459-3.698-1.269-4.967c-0.837-1.295-1.946-1.943-3.296-1.943C321.494,90.996,320.386,91.644,319.576,92.912z"/>
	</g>
	<g id="Phone_22_">
		<g>
			<path fill="#FBB03B" d="M85.738,43.484l-5.18-2.664c-1.271-0.654-2.912-0.431-3.965,0.537l-0.603,0.554
				c-0.589,0.54-1.5,0.664-2.214,0.297c-1.768-0.91-3.182-2.325-4.093-4.089c-0.374-0.723-0.252-1.612,0.305-2.211l0.55-0.605
				c0.593-0.647,0.922-1.485,0.922-2.363c0-0.552-0.134-1.104-0.386-1.596l-2.663-5.18c-0.865-1.675-2.566-2.717-4.451-2.717
				c-1.107,0-2.16,0.354-3.032,1.022l-1.575,1.202c-2.477,1.887-3.492,5.143-2.531,8.104c3.194,9.851,10.933,17.795,20.703,21.251
				c0.789,0.28,1.617,0.421,2.453,0.421c1.955,0,3.867-0.795,5.236-2.183l1.803-1.826c0.933-0.943,1.445-2.189,1.445-3.511
				C88.463,46.049,87.424,44.345,85.738,43.484z M84.884,49.333l-1.798,1.825c-1.166,1.173-2.994,1.596-4.561,1.044
				c-8.894-3.149-15.945-10.381-18.854-19.352c-0.566-1.751,0.038-3.679,1.5-4.796l1.58-1.201c0.35-0.268,0.762-0.409,1.209-0.409
				c0.75,0,1.434,0.417,1.773,1.092l2.668,5.179c0.041,0.071,0.058,0.147,0.058,0.225c0,0.16-0.075,0.273-0.124,0.338l-0.566,0.604
				c-1.393,1.52-1.699,3.775-0.752,5.61c1.199,2.323,3.058,4.184,5.385,5.381c1.808,0.931,4.127,0.618,5.615-0.753l0.61-0.556
				c0.093-0.089,0.351-0.184,0.558-0.077l5.186,2.663c0.674,0.346,1.092,1.027,1.092,1.779
				C85.463,48.458,85.255,48.955,84.884,49.333z"/>
		</g>
	</g>
	<g>
		<path fill="#808080" d="M65.177,124.716h11.108v13.766h-2.047v-1.016h-7.093v1.047h-1.969V124.716z M74.238,126.638h-7.093v3.438
			h7.093V126.638z M67.146,135.544h7.093v-3.578h-7.093V135.544z"/>
		<path fill="#808080" d="M93.755,128.779h-4.921c0.634,1.219,1.444,2.344,2.428,3.375c0.985,1.031,2.039,1.844,3.164,2.438
			c-0.531,0.427-1.025,1.005-1.483,1.734c-0.938-0.583-1.808-1.302-2.608-2.156v1.828h-2.657v2.703h-2v-2.703h-2.75v-1.672
			c-0.792,0.813-1.62,1.495-2.484,2.047c-0.511-0.719-0.975-1.25-1.391-1.594c1.103-0.604,2.138-1.44,3.099-2.508
			c0.965-1.067,1.766-2.231,2.401-3.492H79.66v-1.922h6.017v-3.078h2v3.078h6.078V128.779z M83.177,134.06h2.5v-3.484
			C84.959,131.857,84.125,133.019,83.177,134.06z M87.677,134.06h2.546c-1-1.083-1.848-2.255-2.546-3.516V134.06z"/>
		<path fill="#808080" d="M101.363,124.123h2.172c-0.01,0.198-0.025,0.505-0.046,0.922c0.021,0.396,0.055,0.8,0.102,1.211
			c0.046,0.412,0.14,0.948,0.28,1.609c0.142,0.662,0.311,1.297,0.509,1.906c0.196,0.609,0.477,1.273,0.836,1.992
			s0.766,1.38,1.218,1.984c0.451,0.604,1.021,1.19,1.703,1.758c0.682,0.568,1.434,1.044,2.258,1.43
			c-0.656,0.5-1.15,1.042-1.483,1.625c-3.031-1.51-5.132-4.188-6.297-8.031c-1.073,3.604-3.048,6.281-5.923,8.031
			c-0.343-0.5-0.874-1.005-1.594-1.516c0.626-0.344,1.199-0.734,1.727-1.172c0.525-0.438,0.982-0.875,1.368-1.313
			c0.384-0.438,0.736-0.93,1.055-1.477c0.317-0.547,0.58-1.044,0.788-1.492c0.209-0.448,0.394-0.966,0.556-1.555
			c0.161-0.588,0.284-1.075,0.368-1.461c0.082-0.385,0.152-0.856,0.209-1.414c0.058-0.557,0.094-0.961,0.11-1.211
			c0.015-0.25,0.032-0.604,0.056-1.063C101.354,124.43,101.363,124.175,101.363,124.123z"/>
		<path fill="#808080" d="M115.535,127.701h2.031c0.071-0.438,0.12-0.734,0.142-0.891h-6.094v-1.734h6.266
			c0.02-0.292,0.04-0.745,0.063-1.359l2.234,0.063c-0.115,0.823-0.177,1.255-0.188,1.297h5.812v1.734h-6.093
			c-0.011,0.063-0.03,0.156-0.057,0.281c-0.024,0.125-0.049,0.237-0.067,0.336c-0.022,0.099-0.043,0.19-0.065,0.273h4.627v7.594
			h-8.61V127.701z M125.958,136.216v1.781h-11.72v0.719h-1.89v-10.531h1.89v8.031H125.958z M122.255,129.841v-0.813h-4.921v0.813
			H122.255z M122.255,131.888v-0.797h-4.921v0.797H122.255z M122.255,133.966v-0.813h-4.921v0.813H122.255z"/>
		<path fill="#808080" d="M131.114,129.966v5.109c0.572,0.99,1.692,1.516,3.359,1.578c2.666,0.104,5.291,0.058,7.875-0.141
			c-0.292,0.604-0.485,1.224-0.579,1.859c-2.583,0.125-5.02,0.141-7.312,0.047c-0.99-0.042-1.813-0.198-2.469-0.469
			c-0.655-0.271-1.22-0.708-1.688-1.313c-0.896,0.76-1.687,1.401-2.374,1.922l-0.875-1.906c0.79-0.448,1.536-0.932,2.233-1.453
			v-3.484h-2.03v-1.75H131.114z M131.584,126.56l-1.424,1.359c-0.24-0.364-0.615-0.792-1.125-1.281
			c-0.51-0.489-1.025-0.932-1.546-1.328l1.312-1.219C130.084,124.977,131.01,125.8,131.584,126.56z M134.255,133.591v2.406h-1.781
			v-8.234h3.578c-0.729-0.344-1.443-0.651-2.141-0.922l1.234-1.016c0.594,0.219,1.223,0.469,1.89,0.75
			c0.157-0.083,0.579-0.364,1.266-0.844h-5.687v-1.453h7.344l0.359-0.094l1.141,0.922c-0.844,0.792-1.792,1.511-2.844,2.156
			c0.364,0.177,0.682,0.344,0.952,0.5h1.938v6.594c0,0.396-0.047,0.701-0.142,0.914c-0.094,0.214-0.266,0.383-0.515,0.508
			c-0.344,0.177-1.064,0.266-2.157,0.266c-0.063-0.5-0.218-0.995-0.47-1.484c0.335,0.011,0.741,0.016,1.221,0.016
			c0.155-0.01,0.234-0.088,0.234-0.234v-0.75h-1.876v2.344h-1.703v-2.344H134.255z M136.098,129.138h-1.843v0.859h1.843V129.138z
			 M134.255,132.216h1.843v-0.891h-1.843V132.216z M139.677,129.998v-0.859h-1.876v0.859H139.677z M137.801,132.216h1.876v-0.891
			h-1.876V132.216z"/>
	</g>
	<g>
		<path fill="#808080" d="M78.084,98.796v1.453h-1.658v2.797h-1.937v-0.656h-2.892v0.484c0,0.469-0.063,0.82-0.187,1.055
			c-0.126,0.234-0.345,0.419-0.656,0.555c-0.459,0.177-1.401,0.266-2.828,0.266c-0.093-0.438-0.302-0.938-0.626-1.5
			c0.51,0.021,1.167,0.031,1.969,0.031c0.261-0.01,0.391-0.146,0.391-0.406v-0.484h-4.859v-1.375h4.859v-0.766h-6.326v-1.453h6.326
			v-0.688h-4.733v-1.281h4.733v-0.703h-4.326v-3.172h4.326v-0.656h-5.951v-1.5h5.951v-1.031h1.938v1.031h6.126v1.5h-6.126v0.656
			h4.548v3.172h-4.548v0.703h4.828v1.969H78.084z M67.16,94.921h2.5v-0.766h-2.5V94.921z M74.192,94.156h-2.595v0.766h2.595V94.156z
			 M71.598,98.109v0.688h2.892v-0.688H71.598z M74.489,101.015v-0.766h-2.892v0.766H74.489z"/>
		<path fill="#808080" d="M93.927,92.937h-0.938c-0.438,0.938-0.972,1.719-1.595,2.344c0.875,0.417,1.855,0.729,2.939,0.938
			c-0.449,0.417-0.845,0.958-1.188,1.625c-1.156-0.281-2.247-0.739-3.266-1.375c-0.845,0.521-1.933,0.969-3.266,1.344
			c-0.097-0.167-0.247-0.391-0.454-0.672c-0.229,1.042-0.492,1.933-0.78,2.672l-1.282-0.594c0.22-0.771,0.392-1.505,0.517-2.203
			H83.77v5.625c0,0.458-0.046,0.815-0.141,1.07c-0.094,0.255-0.275,0.45-0.545,0.586c-0.43,0.229-1.186,0.344-2.267,0.344
			c-0.043-0.5-0.225-1.104-0.548-1.813c0.396,0.011,0.881,0.016,1.454,0.016c0.094-0.01,0.157-0.028,0.194-0.055
			c0.037-0.026,0.056-0.086,0.056-0.18v-3.422c-0.625,1.313-1.292,2.297-2,2.953c-0.106-0.375-0.39-0.989-0.859-1.844
			c0.896-0.792,1.65-1.885,2.266-3.281h-2v-1.672h3.672c-0.897-0.552-1.927-1.067-3.093-1.547l1.201-1.219
			c0.26,0.094,0.682,0.266,1.266,0.516c0.334-0.281,0.667-0.62,1-1.016h-3.842v-1.594h5.171l0.297-0.063l1.203,0.766
			c-0.554,0.906-1.328,1.787-2.328,2.641c0.448,0.229,0.838,0.464,1.171,0.703l-0.797,0.813h0.783l0.25-0.078l1.155,0.391
			l-0.063,0.359c0.729-0.198,1.381-0.442,1.954-0.734c-0.417-0.406-0.796-0.849-1.142-1.328c-0.221,0.229-0.459,0.458-0.721,0.688
			c-0.602-0.479-1.123-0.838-1.559-1.078c0.634-0.448,1.226-1.01,1.771-1.688c0.548-0.677,0.979-1.38,1.287-2.109l1.783,0.469
			c-0.124,0.292-0.322,0.667-0.592,1.125h4.718V92.937z M90.177,98.671h3.578c-0.031,0.333-0.058,0.573-0.078,0.719
			c-0.229,2.531-0.563,4.036-1,4.516c-0.302,0.313-0.694,0.5-1.173,0.563c-0.447,0.052-1.041,0.063-1.78,0.031
			c-0.022-0.615-0.193-1.203-0.515-1.766c0.477,0.052,0.937,0.078,1.375,0.078c0.217,0,0.39-0.057,0.514-0.172
			c0.251-0.229,0.454-1.026,0.611-2.391h-1.86c-0.292,1.021-0.769,1.901-1.431,2.641c-0.661,0.739-1.591,1.344-2.789,1.813
			c-0.249-0.552-0.615-1.042-1.094-1.469c1.678-0.614,2.792-1.609,3.345-2.984h-1.938v-1.578h2.327
			c0.094-0.531,0.15-1.005,0.173-1.422h1.892C90.27,97.854,90.217,98.328,90.177,98.671z M90.88,92.937h-2.376
			c0.363,0.511,0.807,0.964,1.33,1.359C90.26,93.911,90.608,93.458,90.88,92.937z"/>
		<path fill="#808080" d="M102.317,98.906H97.88c-0.125,2.563-0.601,4.5-1.421,5.813c-0.158-0.156-0.397-0.359-0.721-0.609
			c-0.322-0.25-0.588-0.427-0.796-0.531c0.771-1.25,1.155-3.266,1.155-6.047v-4.063h6.22V98.906z M102.646,90.546v1.719h-7.079
			v-1.719H102.646z M100.489,95.171h-2.578v2.031h2.578V95.171z M110.192,95.156V97h-1.423v7.703h-1.89V97h-1.845
			c-0.199,3.396-1.155,5.953-2.875,7.672c-0.125-0.208-0.336-0.448-0.633-0.719c-0.297-0.271-0.554-0.458-0.772-0.563
			c0.53-0.531,0.969-1.13,1.312-1.797c0.345-0.667,0.594-1.364,0.751-2.094c0.156-0.729,0.259-1.385,0.312-1.969
			c0.053-0.583,0.08-1.229,0.08-1.938v-4.406l1.309,0.297c1.742-0.51,3.044-1.031,3.908-1.563l1.672,1.438
			c-1.374,0.667-3.053,1.24-5.031,1.719v2.078H110.192z"/>
		<path fill="#808080" d="M112.598,104.546l-1.483-1.156c1.052-0.729,1.797-1.813,2.234-3.25l1.641,0.594
			C114.437,102.495,113.637,103.765,112.598,104.546z M113.535,92.468v1.453h-1.812v-2.969h6.031v-1.172h1.953v1.172h6.031v2.813
			h-1.204c-0.084,0.656-0.256,1.107-0.517,1.352c-0.259,0.245-0.685,0.367-1.279,0.367h-1.594c-0.803,0-1.344-0.13-1.618-0.391
			c-0.275-0.26-0.413-0.75-0.413-1.469v-1.156h-1.203c-0.242,1.052-0.734,1.875-1.485,2.469c-0.749,0.594-1.989,1.047-3.717,1.359
			c-0.179-0.51-0.488-0.989-0.926-1.438c1.409-0.198,2.402-0.479,2.986-0.844c0.584-0.364,0.975-0.88,1.173-1.547H113.535z
			 M125.285,98.968l-1.64,0.875c-0.271-0.375-0.562-0.729-0.876-1.063c-0.51,0.021-1.257,0.058-2.242,0.109
			c-0.983,0.052-1.7,0.089-2.147,0.109c1.063,0.698,1.842,1.349,2.344,1.953l-1.39,1.031c-0.533-0.677-1.376-1.417-2.533-2.219
			l1.11-0.75c-0.511,0.021-1.323,0.055-2.438,0.102c-1.115,0.047-1.922,0.081-2.422,0.102l-0.269-1.656
			c0.814-0.021,1.695-0.052,2.643-0.094c0.626-0.948,1.092-1.813,1.408-2.594l1.983,0.5c-0.5,0.781-0.959,1.458-1.375,2.031
			c0.354-0.01,0.958-0.034,1.813-0.07c0.853-0.036,1.51-0.065,1.967-0.086c-0.342-0.313-0.655-0.578-0.937-0.797l1.532-0.766
			c0.656,0.5,1.312,1.055,1.967,1.664C124.442,97.96,124.942,98.5,125.285,98.968z M118.146,103.046h2
			c0.291,0,0.481-0.091,0.57-0.273c0.086-0.182,0.147-0.602,0.179-1.258c0.396,0.281,0.942,0.5,1.641,0.656
			c-0.093,0.958-0.296,1.606-0.608,1.945c-0.313,0.338-0.843,0.508-1.593,0.508h-2.423c-0.96,0-1.602-0.146-1.93-0.438
			c-0.331-0.292-0.492-0.833-0.492-1.625v-2.094h1.874v2.078c0,0.219,0.048,0.357,0.142,0.414
			C117.598,103.018,117.811,103.046,118.146,103.046z M123.817,93.375v-0.906h-2.828v1.141c0,0.188,0.028,0.305,0.086,0.352
			c0.057,0.047,0.18,0.07,0.367,0.07h1.109c0.156,0,0.259-0.06,0.312-0.18c0.053-0.12,0.095-0.403,0.126-0.852
			C123.166,93.114,123.442,93.239,123.817,93.375z M121.927,100.859l1.578-0.797c1.313,1.292,2.208,2.464,2.688,3.516l-1.719,0.891
			c-0.199-0.49-0.537-1.07-1.016-1.742C122.979,102.054,122.468,101.432,121.927,100.859z"/>
		<path fill="#808080" d="M128.426,91.328h12.563v13.031h-2.095v-1.266h-8.469v1.297h-2V91.328z M130.426,101.125h8.469v-7.859
			h-8.469V101.125z"/>
	</g>
	<g>
		<path d="M105.533,39.864v0.633c1.241-0.305,2.385-0.457,3.428-0.457c1.406,0,2.572,0.352,3.498,1.055s1.389,1.652,1.389,2.848
			c0,2.285-1.307,3.75-3.92,4.395c-0.668,0.141-1.447,0.234-2.338,0.281l-0.826-2.285c0.971,0,1.705-0.041,2.197-0.123
			c0.773-0.129,1.397-0.387,1.873-0.773c0.474-0.387,0.711-0.891,0.711-1.512c0-0.598-0.24-1.066-0.723-1.406
			c-0.479-0.34-1.111-0.51-1.896-0.51c-1.045,0-2.162,0.164-3.357,0.492c0.012,0.352,0.023,0.791,0.033,1.318
			c0.014,0.527,0.025,0.961,0.035,1.301c0.014,0.34,0.02,0.598,0.02,0.773c0,1.043-0.167,1.77-0.502,2.18
			c-0.333,0.41-0.818,0.615-1.451,0.615c-0.947,0-1.889-0.34-2.819-1.02c-0.933-0.68-1.397-1.465-1.397-2.355
			c0-0.75,0.377-1.503,1.133-2.259c0.758-0.756,1.709-1.38,2.857-1.872c-0.012-0.281-0.018-0.697-0.018-1.248V38.44
			c-0.445,0.023-0.762,0.035-0.949,0.035c-1.008,0-1.834-0.029-2.479-0.088l-0.035-2.162c0.889,0.105,1.711,0.158,2.461,0.158
			c0.211,0,0.551-0.012,1.02-0.035c0.01-0.422,0.018-0.908,0.018-1.459s-0.043-1.072-0.123-1.564h2.443
			c-0.049,0.422-0.094,0.938-0.143,1.547c-0.021,0.539-0.039,0.961-0.053,1.266c1.174-0.152,2.27-0.375,3.288-0.668l0.054,2.232
			c-0.949,0.223-2.086,0.41-3.41,0.563C105.539,38.628,105.533,39.161,105.533,39.864z M103.002,46.28
			c0.375,0,0.563-0.258,0.563-0.773c0-0.527-0.018-1.26-0.053-2.197c-0.551,0.281-0.99,0.592-1.318,0.932
			c-0.33,0.34-0.492,0.668-0.492,0.984c0,0.258,0.152,0.498,0.457,0.721S102.744,46.28,103.002,46.28z M109.928,36.981l0.984-1.74
			c1.862,0.902,3.322,1.734,4.375,2.496l-1.07,1.846c-0.387-0.34-1.035-0.776-1.942-1.31
			C111.366,37.74,110.584,37.31,109.928,36.981z"/>
		<path d="M118.98,36.946v2.232h-1.898V35.54h6.803v-0.686h-5.572v-1.582h13.271v1.582h-5.625v0.686h6.943v3.639h-1.986v-2.232
			h-4.957v3.744h-2.074v-3.744H118.98z M127.119,47.757h3.393c0.445,0,0.74-0.111,0.887-0.334s0.25-0.715,0.309-1.477
			c0.469,0.316,1.06,0.545,1.775,0.686c-0.129,1.09-0.378,1.822-0.748,2.197c-0.368,0.375-1.045,0.563-2.03,0.563h-3.778
			c-1.23,0-2.066-0.164-2.506-0.492c-0.438-0.328-0.658-0.967-0.658-1.916v-0.053h-2.988v0.791h-2.021v-6.539h12.445v5.748h-5.379
			v0.053c0,0.328,0.079,0.539,0.237,0.633C126.213,47.71,126.568,47.757,127.119,47.757z M119.332,40.515v-1.16h3.902v1.16H119.332z
			 M123.234,37.562v1.16h-3.551v-1.16H123.234z M123.762,42.624h-2.988v0.791h2.988V42.624z M120.773,45.489h2.988v-0.773h-2.988
			V45.489z M129.07,43.415v-0.791h-3.252v0.791H129.07z M125.818,45.489h3.252v-0.773h-3.252V45.489z M126.645,37.562h3.516v1.16
			h-3.516V37.562z M126.645,40.515v-1.16h3.92v1.16H126.645z"/>
		<path d="M134.571,37.368v-1.688h6.839v1.688H134.571z M140.899,43.292v5.432h-3.743v0.703h-1.793v-6.135H140.899z M140.813,38.247
			v1.6h-5.396v-1.6H140.813z M135.416,42.378v-1.635h5.396v1.635H135.416z M140.83,33.185v1.635h-5.309v-1.635H140.83z
			 M139.09,44.979h-1.934v2.057h1.934V44.979z M151.447,39.829h-3.867v2.373h3.146v7.172h-2.145v-0.791h-4.078v0.861h-2.039v-7.242
			h2.936v-2.373h-3.867v-1.986h3.867v-2.197c-0.82,0.105-1.816,0.199-2.988,0.281c-0.071-0.539-0.266-1.137-0.58-1.793
			c3.199-0.27,5.748-0.709,7.646-1.318l1.512,1.775c-0.996,0.293-2.133,0.539-3.41,0.738v2.514h3.867V39.829z M148.582,46.649
			v-2.514h-4.078v2.514H148.582z"/>
		<path d="M153.521,38.019l-0.229-2.443c0.645-0.012,1.225-0.047,1.739-0.105c0.434-0.035,1.038-0.088,1.812-0.158
			c0.772-0.07,1.741-0.155,2.908-0.255c1.166-0.1,2.16-0.185,2.979-0.255c2.004-0.152,3.687-0.258,5.046-0.316l0.018,2.303
			c-1.547,0-2.689,0.082-3.428,0.246c-1.066,0.281-1.964,0.911-2.689,1.89c-0.727,0.979-1.09,2.007-1.09,3.085
			c0,0.703,0.155,1.321,0.465,1.854c0.311,0.533,0.742,0.958,1.293,1.274s1.156,0.557,1.82,0.721
			c0.661,0.164,1.391,0.264,2.188,0.299l-0.826,2.461c-0.961-0.059-1.869-0.231-2.726-0.519c-0.854-0.287-1.625-0.677-2.311-1.169
			s-1.23-1.119-1.635-1.881c-0.405-0.762-0.606-1.611-0.606-2.549c0-1.184,0.264-2.265,0.791-3.243s1.142-1.726,1.845-2.241
			C157.383,37.38,154.928,37.714,153.521,38.019z M163.963,39.073l1.335-0.545c0.657,0.973,1.137,1.787,1.441,2.443l-1.371,0.615
			C164.889,40.544,164.42,39.706,163.963,39.073z M166.002,38.3l1.3-0.615c0.528,0.727,1.032,1.529,1.513,2.408l-1.336,0.633
			C167.021,39.823,166.529,39.015,166.002,38.3z"/>
		<path d="M177.533,39.864v0.633c1.241-0.305,2.385-0.457,3.428-0.457c1.406,0,2.572,0.352,3.498,1.055s1.389,1.652,1.389,2.848
			c0,2.285-1.307,3.75-3.92,4.395c-0.668,0.141-1.447,0.234-2.338,0.281l-0.826-2.285c0.972,0,1.705-0.041,2.197-0.123
			c0.773-0.129,1.397-0.387,1.873-0.773c0.474-0.387,0.711-0.891,0.711-1.512c0-0.598-0.24-1.066-0.722-1.406
			c-0.479-0.34-1.112-0.51-1.898-0.51c-1.043,0-2.161,0.164-3.356,0.492c0.012,0.352,0.023,0.791,0.034,1.318
			c0.013,0.527,0.024,0.961,0.035,1.301c0.013,0.34,0.019,0.598,0.019,0.773c0,1.043-0.167,1.77-0.501,2.18
			s-0.818,0.615-1.451,0.615c-0.948,0-1.89-0.34-2.82-1.02c-0.933-0.68-1.397-1.465-1.397-2.355c0-0.75,0.377-1.503,1.133-2.259
			c0.758-0.756,1.709-1.38,2.857-1.872c-0.012-0.281-0.018-0.697-0.018-1.248V38.44c-0.445,0.023-0.762,0.035-0.949,0.035
			c-1.008,0-1.834-0.029-2.479-0.088l-0.035-2.162c0.89,0.105,1.711,0.158,2.461,0.158c0.211,0,0.551-0.012,1.02-0.035
			c0.011-0.422,0.018-0.908,0.018-1.459s-0.042-1.072-0.123-1.564h2.443c-0.048,0.422-0.094,0.938-0.142,1.547
			c-0.022,0.539-0.04,0.961-0.053,1.266c1.173-0.152,2.269-0.375,3.287-0.668l0.054,2.232c-0.949,0.223-2.086,0.41-3.41,0.563
			C177.539,38.628,177.533,39.161,177.533,39.864z M175.002,46.28c0.375,0,0.563-0.258,0.563-0.773c0-0.527-0.018-1.26-0.053-2.197
			c-0.551,0.281-0.99,0.592-1.318,0.932c-0.33,0.34-0.492,0.668-0.492,0.984c0,0.258,0.152,0.498,0.457,0.721
			S174.744,46.28,175.002,46.28z M181.928,36.981l0.984-1.74c1.862,0.902,3.322,1.734,4.376,2.496l-1.071,1.846
			c-0.387-0.34-1.035-0.776-1.942-1.31C183.366,37.74,182.584,37.31,181.928,36.981z"/>
		<path d="M196.323,40.022h-4.745v9.422h-2.127V33.325h6.872V40.022z M194.319,34.96h-2.741v0.967h2.741V34.96z M191.578,38.388
			h2.741v-1.02h-2.741V38.388z M200.402,46.913h-4.975v1.002h-2.004v-6.662h6.979V46.913z M198.398,43.028h-2.971v2.109h2.971
			V43.028z M204.62,33.325v13.57c0,0.609-0.072,1.078-0.219,1.406s-0.407,0.574-0.782,0.738c-0.563,0.27-1.74,0.404-3.534,0.404
			c-0.081-0.68-0.321-1.412-0.72-2.197c0.961,0.07,1.834,0.082,2.619,0.035c0.162,0,0.281-0.032,0.352-0.097
			s0.105-0.173,0.105-0.325v-6.82h-4.87v-6.715H204.62z M202.441,34.942h-2.83v0.984h2.83V34.942z M199.611,38.405h2.83v-1.037
			h-2.83V38.405z"/>
		<path d="M207.961,35.03l2.725,0.035c-0.141,0.727-0.212,1.447-0.212,2.162c-0.022,1.406,0.013,2.666,0.106,3.779
			c0.281,2.883,0.92,4.324,1.916,4.324c0.375,0,0.729-0.357,1.063-1.072c0.335-0.715,0.607-1.523,0.818-2.426l1.81,2.162
			c-0.585,1.512-1.172,2.587-1.757,3.226c-0.586,0.639-1.248,0.958-1.986,0.958c-1.055,0-1.952-0.524-2.69-1.573
			s-1.23-2.704-1.476-4.966c-0.131-1.336-0.193-2.941-0.193-4.816C208.084,36.05,208.043,35.452,207.961,35.03z M217.33,36.19
			l2.268-0.756c0.809,0.996,1.53,2.408,2.162,4.236c0.633,1.828,1.002,3.457,1.107,4.887l-2.373,0.896
			c-0.153-1.699-0.494-3.416-1.029-5.15C218.933,38.569,218.221,37.198,217.33,36.19z"/>
		<path d="M231.709,32.657h2.215c0.949,1.359,2.108,2.584,3.479,3.674s2.783,1.928,4.237,2.514
			c-0.469,0.504-0.932,1.148-1.388,1.934c-0.903-0.469-1.823-1.043-2.762-1.723v1.248h-8.964v-1.266
			c-0.809,0.598-1.74,1.189-2.796,1.775c-0.339-0.645-0.784-1.23-1.335-1.758c1.488-0.715,2.9-1.673,4.236-2.874
			S230.994,33.806,231.709,32.657z M227.332,49.462v-7.383h11.425v7.383h-2.196v-0.668h-7.119v0.668H227.332z M229.336,38.405h7.277
			c-1.652-1.301-2.883-2.514-3.692-3.639C232.113,35.927,230.918,37.14,229.336,38.405z M236.561,43.978h-7.119v2.936h7.119V43.978z
			"/>
		<path d="M249.041,35.962l0.668,0.844c-0.235,0.305-0.54,0.756-0.914,1.354c0,0.059-0.007,0.146-0.018,0.264
			c-0.012,0.117-0.018,0.205-0.018,0.264c1.641-1.242,3.387-1.863,5.238-1.863c1.395,0,2.563,0.448,3.507,1.345
			c0.942,0.896,1.415,2.054,1.415,3.472c0,3.551-2.227,5.766-6.681,6.645l-1.071-2.162c3.574-0.563,5.361-2.074,5.361-4.535
			c0-0.727-0.268-1.351-0.8-1.872c-0.534-0.521-1.227-0.782-2.083-0.782c-1.734,0-3.422,0.762-5.063,2.285
			c-0.023,0.68-0.035,1.172-0.035,1.477c0,1.969,0.035,3.51,0.105,4.623c0.012,0.129,0.035,0.378,0.07,0.747
			s0.053,0.577,0.053,0.624h-2.443c0.034-0.387,0.052-0.826,0.052-1.318c0.013-0.48,0.024-1.131,0.035-1.951
			c0.013-0.82,0.024-1.477,0.036-1.969c-0.82,1.242-1.571,2.338-2.25,3.287l-1.406-1.969c1.5-1.84,2.771-3.539,3.814-5.098
			l0.07-1.248c-0.282,0.035-0.806,0.103-1.574,0.202c-0.767,0.1-1.32,0.173-1.66,0.22l-0.212-2.285
			c0.505,0.012,1.021,0.006,1.548-0.018c0.515-0.035,1.195-0.111,2.039-0.229c0.011-0.188,0.023-0.384,0.035-0.589
			s0.023-0.372,0.035-0.501c0.011-0.129,0.018-0.223,0.018-0.281c0-0.691-0.029-1.219-0.088-1.582l2.619,0.07
			C249.305,34.122,249.169,34.966,249.041,35.962z"/>
		<path d="M271.295,33.817h2.408c-0.047,0.211-0.083,0.721-0.105,1.529c-0.013,0.621-0.029,1.266-0.053,1.934
			c0.703-0.047,1.154-0.076,1.354-0.088c0.059,0,0.305-0.018,0.738-0.053s0.756-0.059,0.966-0.07v2.197
			c-0.305-0.023-0.878-0.018-1.722,0.018c-0.668,0.035-1.125,0.059-1.371,0.07c-0.071,1.805-0.159,2.988-0.264,3.551
			c-0.082,0.445-0.241,0.753-0.476,0.923s-0.591,0.255-1.071,0.255c-0.738,0-1.635-0.088-2.689-0.264l0.053-1.969
			c0.75,0.141,1.295,0.211,1.635,0.211c0.188,0,0.321-0.026,0.404-0.079c0.081-0.053,0.134-0.161,0.158-0.325
			c0.059-0.434,0.1-1.148,0.123-2.145c-1.63,0.129-3.24,0.275-4.834,0.439c-0.023,2.191-0.023,3.539,0,4.043
			c0.012,0.398,0.035,0.697,0.07,0.896s0.1,0.398,0.193,0.598s0.249,0.334,0.466,0.404s0.491,0.129,0.826,0.176
			c0.334,0.047,0.776,0.07,1.325,0.07c1.83,0,3.605-0.158,5.327-0.475l-0.088,2.443c-1.722,0.199-3.416,0.299-5.079,0.299
			c-0.938,0-1.711-0.047-2.32-0.141s-1.11-0.226-1.504-0.396c-0.392-0.17-0.688-0.431-0.887-0.782s-0.336-0.729-0.414-1.134
			c-0.075-0.404-0.119-0.94-0.131-1.608c-0.012-0.504-0.019-1.887-0.019-4.148l-1.213,0.123c-0.035,0-0.749,0.105-2.144,0.316
			l-0.229-2.285c0.598,0,1.341-0.035,2.232-0.105l1.353-0.123v-1.793c0-0.645-0.046-1.307-0.14-1.986h2.514
			c-0.07,0.598-0.105,1.213-0.105,1.846c0,0.68-0.006,1.254-0.018,1.723c0.246-0.023,0.957-0.091,2.135-0.202
			c1.179-0.111,2.083-0.196,2.717-0.255v-2.021C271.418,34.849,271.377,34.31,271.295,33.817z"/>
		<path d="M287.783,48.618l-1.336-2.109c0.633-0.082,1.189-0.176,1.67-0.281c1.195-0.281,2.168-0.838,2.918-1.67
			c0.749-0.832,1.125-1.869,1.125-3.111s-0.325-2.285-0.976-3.129s-1.568-1.371-2.751-1.582c-0.328,1.992-0.681,3.609-1.055,4.852
			c-0.539,1.84-1.196,3.264-1.969,4.271c-0.773,1.008-1.641,1.512-2.602,1.512c-0.996,0-1.849-0.495-2.556-1.485
			c-0.71-0.99-1.066-2.224-1.066-3.7c0-2.074,0.798-3.864,2.392-5.37s3.533-2.259,5.818-2.259c2.156,0,3.894,0.665,5.212,1.995
			s1.977,2.991,1.977,4.983c0,1.898-0.58,3.469-1.739,4.711C291.686,47.487,289.998,48.278,287.783,48.618z M282.896,44.646
			c0.737,0,1.458-1.178,2.161-3.533c0.423-1.313,0.744-2.754,0.968-4.324c-1.384,0.293-2.481,0.958-3.296,1.995
			c-0.813,1.037-1.222,2.095-1.222,3.173c0,0.844,0.141,1.503,0.422,1.978S282.533,44.646,282.896,44.646z"/>
		<path d="M313.377,41.657h-7.155c-0.081,0.152-0.252,0.439-0.509,0.861h7.313c-0.012,0.328-0.022,0.574-0.035,0.738
			c-0.117,1.723-0.259,2.997-0.422,3.823c-0.165,0.826-0.369,1.374-0.616,1.644c-0.28,0.352-0.673,0.557-1.178,0.615
			c-0.479,0.059-1.089,0.07-1.827,0.035c-0.048-0.645-0.205-1.201-0.475-1.67c0.387,0.035,0.809,0.053,1.266,0.053
			c0.246,0,0.428-0.064,0.545-0.193c0.27-0.293,0.491-1.418,0.668-3.375h-0.703c-0.375,1.031-0.891,2.036-1.547,3.015
			s-1.342,1.749-2.057,2.312c-0.388-0.469-0.892-0.861-1.512-1.178c0.668-0.422,1.295-1.002,1.881-1.74
			c0.585-0.738,1.078-1.541,1.477-2.408h-1.072c-0.48,0.867-1.107,1.714-1.882,2.54c-0.772,0.826-1.546,1.485-2.319,1.978
			c-0.434-0.551-0.902-0.973-1.406-1.266c0.655-0.328,1.313-0.782,1.969-1.362c0.655-0.58,1.225-1.21,1.704-1.89h-1.089
			c-0.668,0.703-1.365,1.289-2.093,1.758c-0.14-0.176-0.354-0.396-0.642-0.659c-0.286-0.264-0.535-0.46-0.746-0.589
			c-0.457,0.223-1.102,0.539-1.934,0.949c-0.834,0.41-1.418,0.703-1.759,0.879l-0.792-2.162c0.177-0.07,0.383-0.152,0.617-0.246
			s0.51-0.202,0.826-0.325s0.574-0.226,0.773-0.308v-5.08h-1.811v-2.004h1.811v-3.551h1.969v3.551h1.687v2.004h-1.687v4.254
			l1.441-0.633l0.387,1.529c0.633-0.551,1.185-1.184,1.652-1.898h-2.039v-1.811h11.32V41.657z M312.164,33.079v6.082h-8.526v-6.082
			H312.164z M310.178,35.417v-0.861h-4.642v0.861H310.178z M310.178,37.685v-0.861h-4.642v0.861H310.178z"/>
		<path d="M321.709,32.657h2.215c0.949,1.359,2.108,2.584,3.479,3.674s2.783,1.928,4.237,2.514
			c-0.469,0.504-0.932,1.148-1.388,1.934c-0.903-0.469-1.823-1.043-2.762-1.723v1.248h-8.964v-1.266
			c-0.809,0.598-1.74,1.189-2.796,1.775c-0.339-0.645-0.784-1.23-1.335-1.758c1.488-0.715,2.9-1.673,4.236-2.874
			S320.994,33.806,321.709,32.657z M317.332,49.462v-7.383h11.425v7.383h-2.196v-0.668h-7.119v0.668H317.332z M319.336,38.405h7.277
			c-1.652-1.301-2.883-2.514-3.692-3.639C322.113,35.927,320.918,37.14,319.336,38.405z M326.561,43.978h-7.119v2.936h7.119V43.978z
			"/>
	</g>
</g>
<g id="_x31_6_x3000_よくある質問_x3000_help">
</g>
<g id="_x31_7_x3000_便利なリンク集_x3000_link">
</g>
<g id="_x31_8_x3000_不動産オーナー様へ_x3000_owner">
</g>
<g id="mouse-over" display="none">
</g>
</svg>
