<?xml version="1.0" encoding="utf-8"?>
<!-- Generator: Adobe Illustrator 16.0.0, SVG Export Plug-In . SVG Version: 6.00 Build 0)  -->
<!DOCTYPE svg PUBLIC "-//W3C//DTD SVG 1.0//EN" "http://www.w3.org/TR/2001/REC-SVG-20010904/DTD/svg10.dtd">
<svg version="1.0" id="Layer_1" xmlns="http://www.w3.org/2000/svg"  x="0px" y="0px"
	 width="537.432px" height="173.451px" viewBox="0 0 537.432 173.451" enable-background="new 0 0 537.432 173.451"
	 xml:space="preserve">
<g>
	<g>
		<g>
			<path d="M150.345,117.033c7.792,0.025,15.569,0.511,23.361,0.536c0.23,0,0.427-0.283,0.281-0.489
				c-3.1-4.357-6.152-8.747-9.062-13.234c-1.03-1.59-1.908-2.317-1.577-3.711c1.852-7.804,3.486-15.669,4.786-23.584
				c2.95-17.972-0.265-36.367-12.555-50.402c-11.694-13.355-29.755-19.042-46.711-21.835C89.033,1.046,68.066,0.591,48.585,6.042
				C18.504,14.46-1.325,40.134,0.069,71.544c0.61,13.752,5.231,28.557,13.547,39.639c9.264,12.346,25.318,18.95,39.668,23.081
				c17.587,5.063,36.538,6.571,54.665,4c15.226-2.16,31.426-8.127,40.328-21.393c0.234-0.349-0.329-0.674-0.562-0.328
				c-10.122,15.083-29.345,20.305-46.472,21.847c-19.224,1.73-39.181-1.173-57.257-7.854c-8.352-3.086-16.425-7.28-23.3-12.977
				c-5.914-4.9-9.849-11.238-13.063-18.131C1.125,85.492-1.011,69.483,1.976,54.385C5.078,38.698,14.441,25.17,27.625,16.246
				C45.276,4.297,67.73,1.842,88.5,2.839c18.859,0.905,38.841,4.006,55.129,14.124c17.748,11.025,27.018,32.192,24.806,52.771
				c-0.771,7.181-2.233,14.304-3.727,21.363c-0.522,2.467-1.074,4.929-1.641,7.386c-0.148,0.642-0.774,1.987-0.588,2.663
				c0.989,3.596,4.944,7.667,7.002,10.655c0.273,0.396,3.99,5.116,2.336,5.111c-2.455-0.008-4.909-0.077-7.361-0.164
				c-4.706-0.167-9.401-0.352-14.112-0.367C149.926,116.381,149.926,117.031,150.345,117.033L150.345,117.033z"/>
		</g>
	</g>
	<g>
		<g>
			<path d="M347.556,102.448c-4.777,2.595-9.673,4.17-14.929,5.506c-0.304,0.077-0.268,0.484,0,0.578
				c5.727,2.006,11.343,4.299,16.898,6.735c2.336,1.024,2.627,3.769,3.665,6.145c4.225,9.669,12.045,17.582,21.365,22.554
				c5.111,2.727,9.836,5.837,15.238,8.062c6.56,2.701,13.289,4.812,20.189,6.454c12.255,2.917,24.609,3.588,37.158,3.499
				c20.622-0.146,43.074-0.756,61.213-11.791c16.666-10.139,24.659-29.045,27.704-47.564c3.131-19.044,1.271-40.322-9.389-56.84
				c-11.547-17.894-34.14-25.506-54.166-28.42c-22.062-3.21-45.575-1.533-67.121,4.116c-17.056,4.472-32.53,13.058-41.823,28.452
				c-9.282,15.377-11.979,34.33-15.142,51.694c-0.069,0.378,0.509,0.54,0.578,0.159c3.395-18.634,6.37-38.801,17.18-54.839
				c11.708-17.37,32.635-24.211,52.317-27.68c24.03-4.234,49.947-4.346,73.363,3.067c11.115,3.519,21.942,9.476,29.917,18.09
				c7.509,8.112,11.525,18.899,13.562,29.598c3.917,20.579,0.566,44.125-10.183,62.214c-12.284,20.675-35.553,26.776-58.023,28.46
				c-26.677,1.999-53.689,0.832-78.578-9.851c-11.396-4.892-24.856-12.521-31.572-23.303c-2.241-3.599-3.894-7.639-5.378-11.597
				c-0.59-1.571-4.333-2.311-5.696-2.89c-1.83-0.779-3.674-1.527-5.521-2.268c-1.509-0.605-3.029-1.178-4.551-1.749
				c-2.156-0.808-1.752-0.833,0.275-1.369c4.163-1.103,7.975-2.654,11.75-4.705C348.198,102.782,347.896,102.264,347.556,102.448
				L347.556,102.448z"/>
		</g>
	</g>
	<g>
		<path d="M237.543,87.496c0,0-1.174,5.85-7.463,5.598c-8.139-0.326-11.662-6.064-19.125-7.463
			c-18.656-3.732-20.986,17.259-38.249,15.859c10.205-3.797,3.734-12.775,7.468-20.704c4.196-8.397,10.626-8.373,15.296-2.737
			c-1.771-27.695,23.879-15.741,29.479-9.677c7.467,7.93-3.732,18.658,12.594,18.658"/>
		<g>
			<path d="M236.638,87.246c-2.161,9.398-13.745,2.908-18.742,0.058c-5.19-2.959-11.313-3.898-17.045-2.105
				c-10.923,3.417-15.358,16.023-28.144,15.353c0.158,0.583,0.316,1.166,0.474,1.749c5.161-2.21,6.634-5.835,6.64-11.232
				c0.003-4.073-0.059-7.583,1.977-11.285c3.235-5.881,8.888-5.629,13.01-1.071c0.542,0.599,1.641,0.141,1.602-0.664
				c-0.335-7.001,0.783-15.681,9.249-16.533c5.154-0.519,10.575,1.895,14.853,4.533c5.785,3.568,6.291,8.303,6.475,14.626
				c0.177,6.078,5.368,7.175,10.558,7.293c1.211,0.028,1.209-1.85,0-1.877c-5.393-0.124-8.686-1.211-8.705-6.935
				c-0.01-3.109-0.066-5.926-1.352-8.809c-1.887-4.232-7.348-7.05-11.388-8.67c-4.744-1.902-10.027-3-14.888-0.915
				c-6.44,2.763-6.961,11.361-6.677,17.286c0.534-0.221,1.068-0.442,1.602-0.664c-4.401-4.868-11.049-5.887-15.1,0.167
				c-2.156,3.223-3.013,6.289-3.126,10.141c-0.167,5.685,0.556,10.317-5.675,12.986c-0.927,0.397-0.366,1.705,0.474,1.749
				c5.988,0.314,10.774-1.858,15.341-5.585c5.341-4.359,9.73-9.763,17.012-10.647c9.207-1.117,14.884,6.967,23.451,7.702
				c4.523,0.388,8.829-1.335,9.937-6.152C238.719,86.567,236.909,86.066,236.638,87.246L236.638,87.246z"/>
		</g>
	</g>
	<g>
		<g>
			<path d="M183.254,94.405c5.811,9.641,7.816,20.917,11.116,31.54c0.127,0.411,0.512,0.607,0.922,0.524
				c9.323-1.88,18.806-2.669,28.254-3.649c0.952-0.099,0.962-1.6,0-1.5c-5.031,0.521-10.065,1.005-15.089,1.589
				c-2.354,0.273-4.701,0.6-7.045,0.946c-2.729,0.403-5.517,2.017-6.506-1.3c-2.931-9.825-5.004-20.026-10.357-28.907
				C184.051,92.821,182.753,93.575,183.254,94.405L183.254,94.405z"/>
		</g>
	</g>
	<g>
		<g>
			<path d="M221.894,91.427c1.382,4.771,1.125,10.3,1.25,15.219c0.126,4.985,0.448,10.274-0.321,15.225
				c-0.147,0.946,1.298,1.352,1.446,0.398c0.792-5.104,0.48-10.482,0.375-15.623c-0.104-5.051,0.117-10.711-1.304-15.617
				C223.072,90.102,221.624,90.496,221.894,91.427L221.894,91.427z"/>
		</g>
	</g>
	<g>
		<g>
			<path d="M207.433,101.222c0.759,3.115,1.349,6.272,2.332,9.329c0.174-0.307,0.349-0.615,0.524-0.922
				c-1.736,0.576-3.558,1.274-5.398,1.373c0.25,0.25,0.5,0.5,0.75,0.75c-0.052-1.569-0.398-3.099-0.465-4.664
				c-0.041-0.963-1.542-0.968-1.5,0c0.067,1.566,0.413,3.095,0.465,4.664c0.013,0.392,0.332,0.772,0.75,0.75
				c1.991-0.106,3.92-0.803,5.797-1.426c0.375-0.125,0.654-0.518,0.524-0.922c-0.982-3.057-1.573-6.214-2.332-9.329
				C208.65,99.884,207.204,100.283,207.433,101.222L207.433,101.222z"/>
		</g>
	</g>
	<g>
		<g>
			<path d="M214.475,113.884c-0.701-2.841-10.792,1.419-12.583,1.808c-0.528,0.115-0.754,0.894-0.331,1.253
				c2.099,1.786,5.283,3.705,8.156,3.15c2.979-0.575,4.738-3.08,4.784-6.012c0.015-0.968-1.485-0.966-1.5,0
				c-0.102,6.541-7.146,4.553-10.38,1.802c-0.11,0.418-0.221,0.835-0.331,1.253c1.757-0.382,3.474-0.975,5.199-1.477
				c1.115-0.325,2.236-0.627,3.367-0.89c0.473-0.11,2.232-0.244,2.171-0.489C213.26,115.222,214.707,114.823,214.475,113.884z"/>
		</g>
	</g>
	<g>
		<g>
			<path d="M224.281,100.348c1.198-0.496,2.536-0.436,3.732-0.934c-0.308-0.174-0.615-0.349-0.922-0.524
				c0.466,2.548,0.437,5.15,0.438,7.73c0.25-0.25,0.5-0.5,0.75-0.75c-1.351,0.056-2.658,0.378-3.998,0.027
				c-0.937-0.246-1.333,1.201-0.398,1.446c1.485,0.389,2.896,0.089,4.396,0.027c0.408-0.017,0.75-0.329,0.75-0.75
				c-0.001-2.72,0-5.444-0.492-8.129c-0.067-0.367-0.567-0.671-0.922-0.524c-1.197,0.497-2.535,0.438-3.732,0.934
				C223.002,99.266,223.388,100.718,224.281,100.348L224.281,100.348z"/>
		</g>
	</g>
	<g>
		<g>
			<path d="M188.1,105.404c-1.35,0.134-2.467,0.886-3.644,1.503c-0.336,0.176-0.503,0.706-0.269,1.026
				c1.208,1.655,1.757,3.958,2.35,5.899c0.12,0.394,0.519,0.63,0.922,0.524c1.357-0.357,2.722-0.702,4.104-0.947
				c0.951-0.169,0.547-1.614-0.398-1.446c-1.382,0.245-2.747,0.59-4.104,0.947c0.308,0.174,0.615,0.349,0.922,0.524
				c-0.627-2.053-1.221-4.504-2.501-6.257c-0.089,0.342-0.179,0.684-0.269,1.026c0.896-0.47,1.857-1.195,2.887-1.298
				C189.053,106.809,189.062,105.308,188.1,105.404L188.1,105.404z"/>
		</g>
	</g>
	<g>
		<g>
			<path d="M207.028,124.53c2.202,1.182,1.65,6.829,1.676,8.91c0.043,3.483-0.155,6.967-0.228,10.449
				c-0.198,9.512-0.297,19.304,0.043,28.818c0.034,0.964,1.535,0.968,1.5,0c-0.214-5.995,0.163-11.987,0.255-17.981
				c0.07-4.561-0.363-9.081-0.225-13.642c0.117-3.828,2.113-15.5-2.266-17.849C206.933,122.777,206.175,124.072,207.028,124.53
				L207.028,124.53z"/>
		</g>
	</g>
	<g>
		<g>
			<path d="M203.894,124.098c-5.657,5.178-6.847,13.893-7.797,21.086c-1.197,9.06-0.819,18.305-2.259,27.324
				c-0.151,0.946,1.294,1.352,1.446,0.398c1.195-7.481,1.128-15.158,1.777-22.697c0.696-8.09,1.478-19.178,7.893-25.051
				C205.669,124.504,204.605,123.446,203.894,124.098L203.894,124.098z"/>
		</g>
	</g>
	<g>
		<g>
			<path d="M209.368,132.46c2.159,4.302,4.645,9.316,9.392,11.153c4.572,1.77,9.324-2.877,11.698-6.087
				c1.688-2.282,1.429-5.549,4.703-4.861c5.036,1.058-1.731,8.129-3.614,10c-6.22,6.177-20.672,7.288-21.638-3.753
				c-0.083-0.956-1.584-0.964-1.5,0c0.648,7.408,5.64,9.536,12.598,10.042c8.445,0.614,16.211-8.524,18.059-15.926
				c0.103-0.415-0.13-0.789-0.524-0.922c-1.962-0.667-3.934-1.094-5.965-1.492c-0.394-0.077-0.817,0.105-0.922,0.524
				c-1.395,5.546-6.019,11.966-12.496,11.031c-4.084-0.59-6.865-7.216-8.495-10.464C210.229,130.838,208.936,131.598,209.368,132.46
				L209.368,132.46z"/>
		</g>
	</g>
	<g>
		<g>
			<path d="M233.127,130.963c0.059-4.292,0.67-8.73,1.854-12.854c-0.003,0.01,1.599-4.345,2.274-2.269
				c0.419,1.287,0.003,3.13-0.189,4.405c-0.313,2.086-0.875,4.153-0.965,6.267c-0.036,0.849,1.273,1.019,1.474,0.199
				c0.104-0.426,0.207-0.851,0.312-1.277c-0.065,0.265,2.141,1.328,1.379,2.934c-0.622,1.313-1.653,2.45-2.575,3.555
				c-0.615,0.737,0.44,1.804,1.061,1.061c2.641-3.167,6.014-8.395-0.53-8.735c-0.323-0.017-0.647,0.24-0.724,0.551
				c-0.123,0.504-0.246,1.009-0.369,1.514c0.491,0.066,0.982,0.133,1.474,0.199c0.046-1.084,3.103-16.202-2.04-12.558
				c-2.013,1.426-2.458,5.206-2.879,7.379c-0.609,3.145-1.012,6.423-1.056,9.629C231.614,131.931,233.113,131.93,233.127,130.963
				L233.127,130.963z"/>
		</g>
	</g>
	<g>
		<path d="M297.893,81.661c-4.17-11.489-18.037-10.119-25.715-2.825c-5.598,4.754-6.539,18.849-16.303,12.114
			c5.666,14.842,37.238,8.452,39.285-3.885c-0.096,3.744,2.596,9.633,1.781,13.215c3.256,2.244,3.887,1.626,7.141,3.872
			c0.262-4.46,2.598-28.028-5.797-20.897"/>
		<g>
			<path d="M298.775,81.418c-3.424-8.376-12.192-11.149-20.389-7.624c-4.086,1.757-7.457,4.354-9.808,8.145
				c-3.048,4.914-5.066,12.747-12.242,8.221c-0.859-0.542-1.58,0.482-1.252,1.252c3.503,8.229,13.557,9.896,21.531,8.739
				c7.333-1.063,17.661-4.533,19.427-12.843c-0.6-0.081-1.199-0.162-1.798-0.243c0.183,4.457,2.353,8.739,1.781,13.215
				c-0.041,0.316,0.205,0.633,0.453,0.791c2.307,1.464,4.835,2.406,7.141,3.872c0.62,0.395,1.336-0.132,1.377-0.791
				c0.262-4.125,2.666-29.37-7.359-21.544c-0.93,0.726,0.376,2.012,1.295,1.295c4.782-3.734,4.686,6.436,4.726,9.099
				c0.057,3.724-0.257,7.438-0.491,11.15c0.459-0.264,0.918-0.527,1.377-0.791c-2.402-1.527-6.498-2.188-6.569-5.472
				c-0.079-3.669-1.748-7.14-1.899-10.824c-0.041-0.997-1.575-1.291-1.798-0.243c-1.556,7.32-10.718,10.297-17.146,11.418
				c-7.457,1.301-17.155,0.026-20.467-7.752c-0.417,0.417-0.835,0.835-1.252,1.252c7.253,4.575,10.581-1.106,13.783-7.161
				c5.332-10.082,22.353-16.037,27.813-2.676C297.45,82.982,299.222,82.511,298.775,81.418L298.775,81.418z"/>
		</g>
	</g>
	<g>
		<g>
			<path d="M304.115,102.851c0.185,1.971,0.598,3.893,0.736,5.875c0.041,0.592,0.599,0.901,1.129,0.647
				c6.118-2.93,8.078,9.279,1.342,10.391c-0.327,0.054-0.548,0.416-0.551,0.723c-0.031,3.355,0.153,7.169-2.817,9.366
				c-2.623,1.939-6.83,3.637-9.945,4.274c-7.611,1.558-17.469,2.04-25.126,0.483c-7.719-1.569-12.72-8.249-13.637-15.792
				c-0.997-8.196,3.36-15.99,9.965-20.567c0.789-0.547,0.04-1.848-0.758-1.295c-8.696,6.027-13.614,17.566-9.276,27.773
				c5.578,13.125,19.524,12.351,31.636,11.674c6.367-0.356,11.679-1.762,17.284-4.868c1.533-0.85,2.624-2.081,3.306-3.684
				c0.798-1.878,0.039-6.4,1.938-7.041c6.866-2.319,3.898-16.57-4.117-12.733c0.377,0.216,0.753,0.432,1.129,0.647
				c-0.139-1.982-0.551-3.896-0.736-5.875C305.525,101.896,304.025,101.888,304.115,102.851L304.115,102.851z"/>
		</g>
	</g>
	<g>
		<path d="M283.129,107.917c3.766,1.22,8.182,3.942,11.102,7.325l1.408-1.693c-2.17-6.582-9.225-9.584-14.584-5.442"/>
		<g>
			<path d="M282.886,108.799c4.116,1.426,7.777,3.858,10.697,7.09c0.313,0.346,0.986,0.37,1.295,0
				c0.435-0.523,1.95-1.749,1.644-2.584c-0.877-2.389-2.164-4.369-4.171-5.955c-3.52-2.779-8.207-2.561-11.758-0.035
				c-0.953,0.678-0.04,2.267,0.924,1.581c2.886-2.052,6.053-2.284,9.133-0.51c1.615,0.931,2.737,2.504,3.588,4.114
				c0.518,0.98,0.84,0.297,0.05,1.247c-0.234,0.282-0.469,0.564-0.704,0.847c0.432,0,0.863,0,1.295,0
				c-3.133-3.466-7.096-6.032-11.506-7.561C282.254,106.646,281.777,108.415,282.886,108.799L282.886,108.799z"/>
		</g>
	</g>
	<g>
		<path d="M270.066,105.712c-3.76,1.22-8.182,3.943-11.104,7.326l-1.406-1.694c2.168-6.581,9.225-9.583,14.578-5.44"/>
		<g>
			<path d="M269.823,104.83c-4.41,1.53-8.374,4.097-11.508,7.562c0.432,0,0.863,0,1.295,0c-0.435-0.523-0.868-1.045-1.303-1.568
				c-0.09-0.108,2.906-3.607,3.264-3.933c2.93-2.674,7.043-2.374,10.102-0.196c0.964,0.686,1.877-0.902,0.924-1.581
				c-3.548-2.527-8.235-2.744-11.753,0.034c-1.715,1.354-3.127,3.109-3.887,5.181c-0.586,1.599,0.34,2.13,1.358,3.357
				c0.308,0.371,0.982,0.345,1.295,0c2.921-3.23,6.583-5.663,10.699-7.091C271.418,106.21,270.941,104.442,269.823,104.83
				L269.823,104.83z"/>
		</g>
	</g>
	<g>
		<g>
			<path d="M284.752,136.361c17.06-1.287,24.333,22.965,24.523,36.347c0.014,0.966,1.514,0.968,1.5,0
				c-0.201-14.147-8.021-39.205-26.023-37.847C283.794,134.933,283.787,136.434,284.752,136.361L284.752,136.361z"/>
		</g>
	</g>
	<g>
		<g>
			<path d="M277.713,135.13c-7.036,1.822-10.947,9.108-13.591,15.291c-2.93,6.853-4.971,14.8-4.673,22.306
				c0.038,0.964,1.538,0.968,1.5,0c-0.263-6.618,1.459-13.293,3.666-19.48c2.288-6.417,6.301-14.806,13.496-16.67
				C279.047,136.334,278.65,134.887,277.713,135.13L277.713,135.13z"/>
		</g>
	</g>
	<g>
		<g>
			<path d="M283.104,141.249c-3.152-1.259-6.177-2.252-9.59-2.371c-0.492-0.017-0.847,0.491-0.724,0.949
				c0.689,2.567,0.62,5.287,1.898,7.675c0.192,0.361,0.683,0.469,1.026,0.269c5.214-3.036,10.082-6.626,15.297-9.662
				c-0.367-0.282-0.734-0.564-1.103-0.847c-0.389,2.785-0.097,5.583-0.484,8.373c0.368-0.149,0.735-0.299,1.103-0.448
				c-2.148-1.245-4.454-2.139-6.602-3.381c-0.84-0.485-1.595,0.811-0.758,1.295c2.148,1.242,4.454,2.136,6.602,3.381
				c0.377,0.219,1.034,0.043,1.103-0.448c0.386-2.788,0.096-5.595,0.484-8.373c0.086-0.616-0.477-1.211-1.103-0.847
				c-5.214,3.035-10.083,6.625-15.297,9.662c0.343,0.089,0.685,0.179,1.026,0.269c-1.205-2.254-1.097-4.896-1.746-7.317
				c-0.241,0.316-0.482,0.633-0.724,0.949c3.296,0.114,6.166,1.109,9.191,2.317C283.604,143.055,283.99,141.603,283.104,141.249
				L283.104,141.249z"/>
		</g>
	</g>
	<g>
		<g>
			<path d="M298.994,141.148c7.833,1.843,25.553,7.246,25.314-6.252c-0.047-2.647,1.256-2.214,3.993-1.821
				c1.646,0.236,0.916,6.451,0.686,7.499c-0.819,3.727-4.364,5.467-7.724,6.291c-5.726,1.403-11.975,0.317-17.711-0.463
				c-0.945-0.129-1.354,1.316-0.398,1.446c7.425,1.011,16.107,2.587,22.993-1.251c3.472-1.935,4.7-5.67,4.654-9.433
				c-0.016-1.229-0.047-4.567-1.142-5.208c-1.758-1.03-4.766-0.664-6.596-0.076c-0.422,0.135-0.591,0.505-0.524,0.922
				c2.274,14.103-15.292,8.749-23.147,6.901C298.452,139.481,298.053,140.927,298.994,141.148L298.994,141.148z"/>
		</g>
	</g>
	<g>
		<g>
			<path d="M324.116,132.825c-0.895-1.279-1.641-2.589-2.333-3.987c-0.482-1.03-0.934-2.074-1.352-3.132
				c0.448-0.75,0.817-0.771,1.107-0.06c0.854,1.152,1.268,3.022,1.884,4.325c0.188,0.396,0.681,0.426,1.026,0.269
				c3.359-1.523,8.568-5.583,11.61-1.472c0.149-0.367,0.299-0.734,0.448-1.102c-3.207,1.099-6.223,2.484-9.254,3.996
				c-0.865,0.432-0.105,1.725,0.758,1.295c2.908-1.45,5.816-2.789,8.895-3.844c0.415-0.142,0.755-0.688,0.448-1.102
				c-3.759-5.081-9.239-1.072-13.663,0.934c0.343,0.089,0.685,0.179,1.026,0.269c-0.85-1.797-1.882-6.455-4.756-6.229
				c-4,0.314,2.14,9.567,2.859,10.596C323.371,134.368,324.672,133.62,324.116,132.825L324.116,132.825z"/>
		</g>
	</g>
	<g>
		<path fill="#FFFFFF" stroke="#231815" stroke-miterlimit="10" d="M26.555,7.651c1.111,2.271,1.57,5.225,1.311,8.854
			c-0.04,0.328-0.092,0.721-0.15,1.18c-0.204,1.638-0.228,3.133-0.009,4.559c0.301,1.836,0.954,3.516,1.969,4.976
			c-0.615,0.123-1.619,0.428-2.727,1.287c-1.034,0.801-1.571,1.633-1.813,2.234c-1.491-2.153-2.456-4.538-2.846-7.25
			c-0.3-1.836-0.285-3.798-0.057-5.866c0.076-0.357,0.118-0.685,0.145-0.881c0.148-2.245,0.016-4.092-0.502-5.523
			c-0.48-1.459-1.364-2.369-2.49-2.679c-0.93-0.284-2.048-0.125-3.209,0.361c-0.564,0.262-1.139,0.588-1.655,0.989
			c-0.554,0.429-1.05,0.933-1.416,1.453c-0.713,0.907-1.138,1.886-1.195,2.878c-0.084,1.188,0.265,2.396,1.112,3.569l-4.538,3.521
			c-1.444-2.014-2.161-4.234-2.075-6.488c0.076-2.188,0.881-4.349,2.354-6.26c0.76-1.002,1.64-1.923,2.638-2.696
			c3.101-2.405,6.915-3.354,10.066-2.49C23.656,3.989,25.465,5.483,26.555,7.651z M33.049,31.341
			c1.059,1.366,0.809,3.332-0.556,4.391c-1.366,1.06-3.331,0.81-4.391-0.556c-1.06-1.365-0.812-3.331,0.555-4.39
			C30.022,29.728,31.99,29.976,33.049,31.341z"/>
	</g>
	<g>
		<path fill="#FFFFFF" stroke="#231815" stroke-miterlimit="10" d="M458.039,33.682c-0.742,1.51-2.619,2.15-4.127,1.408
			c-1.553-0.762-2.191-2.637-1.449-4.146c0.762-1.552,2.635-2.192,4.188-1.431C458.158,30.256,458.801,32.131,458.039,33.682z
			 M455.332,26.37l11.367-25.691l6.582,3.232l-13.359,24.662c-0.338-0.479-0.969-1.102-2.016-1.615
			C456.857,26.442,455.918,26.344,455.332,26.37z"/>
	</g>
	<g>
		<path fill="#FFFFFF" stroke="#231815" stroke-miterlimit="10" d="M471.039,37.682c-0.742,1.51-2.619,2.15-4.127,1.408
			c-1.553-0.762-2.191-2.637-1.449-4.146c0.762-1.552,2.635-2.192,4.188-1.431C471.158,34.256,471.801,36.131,471.039,37.682z
			 M468.332,30.37l11.367-25.691l6.582,3.232l-13.359,24.662c-0.338-0.479-0.969-1.102-2.016-1.615
			C469.857,30.442,468.918,30.344,468.332,30.37z"/>
	</g>
	<g>
		<path d="M378.494,62.153c0.426,0.305,0.889,0.547,1.389,0.727l-0.639,1.225c-0.262-0.078-0.518-0.186-0.768-0.322
			c-0.055-0.027-0.439-0.281-1.154-0.762c-0.563,0.246-1.186,0.369-1.869,0.369c-1.32,0-2.354-0.389-3.102-1.166
			s-1.123-1.869-1.123-3.275c0-1.402,0.375-2.493,1.125-3.272s1.768-1.169,3.053-1.169c1.273,0,2.283,0.39,3.029,1.169
			s1.119,1.87,1.119,3.272c0,0.742-0.104,1.395-0.311,1.957C379.088,61.335,378.838,61.751,378.494,62.153z M377.1,61.175
			c0.223-0.262,0.391-0.578,0.502-0.949s0.166-0.797,0.166-1.277c0-0.992-0.219-1.733-0.656-2.224s-1.01-0.735-1.717-0.735
			s-1.279,0.246-1.719,0.738s-0.66,1.232-0.66,2.221c0,1.004,0.221,1.755,0.66,2.253s0.994,0.747,1.666,0.747
			c0.25,0,0.486-0.041,0.709-0.123c-0.352-0.23-0.709-0.41-1.072-0.539l0.486-0.99C376.035,60.491,376.58,60.784,377.1,61.175z"/>
		<path d="M384.998,63.243v-0.932c-0.227,0.332-0.523,0.594-0.893,0.785s-0.76,0.287-1.17,0.287c-0.418,0-0.793-0.092-1.125-0.275
			s-0.572-0.441-0.721-0.773s-0.223-0.791-0.223-1.377v-3.938h1.646v2.859c0,0.875,0.031,1.411,0.092,1.608s0.17,0.354,0.33,0.469
			s0.363,0.173,0.609,0.173c0.281,0,0.533-0.077,0.756-0.231s0.375-0.346,0.457-0.574s0.123-0.788,0.123-1.679v-2.625h1.646v6.223
			H384.998z"/>
		<path d="M387.453,57.021h1.752l1.488,4.418l1.453-4.418h1.705l-2.197,5.988l-0.393,1.084c-0.145,0.363-0.281,0.641-0.412,0.832
			s-0.281,0.347-0.451,0.466s-0.379,0.212-0.627,0.278s-0.529,0.1-0.842,0.1c-0.316,0-0.627-0.033-0.932-0.1l-0.146-1.289
			c0.258,0.051,0.49,0.076,0.697,0.076c0.383,0,0.666-0.112,0.85-0.337s0.324-0.511,0.422-0.858L387.453,57.021z M389.82,56.259
			l0.809-1.752h1.846l-1.611,1.752H389.82z"/>
		<path d="M398.182,63.243v-8.59h1.646v4.559l1.928-2.191h2.027l-2.127,2.273l2.279,3.949h-1.775l-1.564-2.795l-0.768,0.803v1.992
			H398.182z"/>
		<path d="M406.555,54.653v3.158c0.531-0.621,1.166-0.932,1.904-0.932c0.379,0,0.721,0.07,1.025,0.211s0.535,0.32,0.689,0.539
			s0.26,0.461,0.316,0.727s0.084,0.678,0.084,1.236v3.65h-1.646v-3.287c0-0.652-0.031-1.066-0.094-1.242s-0.172-0.315-0.33-0.419
			s-0.357-0.155-0.596-0.155c-0.273,0-0.518,0.066-0.732,0.199s-0.371,0.333-0.471,0.601s-0.15,0.663-0.15,1.187v3.117h-1.646v-8.59
			H406.555z"/>
		<path d="M413.475,58.919l-1.494-0.27c0.168-0.602,0.457-1.047,0.867-1.336s1.02-0.434,1.828-0.434
			c0.734,0,1.281,0.087,1.641,0.261s0.613,0.395,0.76,0.662s0.219,0.759,0.219,1.474l-0.018,1.922c0,0.547,0.027,0.95,0.08,1.21
			s0.15,0.538,0.295,0.835h-1.629c-0.043-0.109-0.096-0.271-0.158-0.486c-0.027-0.098-0.047-0.162-0.059-0.193
			c-0.281,0.273-0.582,0.479-0.902,0.615s-0.662,0.205-1.025,0.205c-0.641,0-1.145-0.174-1.514-0.521s-0.555-0.787-0.555-1.318
			c0-0.352,0.084-0.665,0.252-0.94s0.404-0.486,0.707-0.633s0.738-0.274,1.309-0.384c0.77-0.145,1.303-0.279,1.6-0.404v-0.164
			c0-0.316-0.078-0.542-0.234-0.677s-0.451-0.202-0.885-0.202c-0.293,0-0.521,0.058-0.686,0.173S413.576,58.63,413.475,58.919z
			 M415.678,60.255c-0.211,0.07-0.545,0.154-1.002,0.252s-0.756,0.193-0.896,0.287c-0.215,0.152-0.322,0.346-0.322,0.58
			c0,0.23,0.086,0.43,0.258,0.598s0.391,0.252,0.656,0.252c0.297,0,0.58-0.098,0.85-0.293c0.199-0.148,0.33-0.33,0.393-0.545
			c0.043-0.141,0.064-0.408,0.064-0.803V60.255z M413.896,56.259l0.809-1.752h1.846l-1.611,1.752H413.896z"/>
		<path d="M424.344,58.86l-1.623,0.293c-0.055-0.324-0.178-0.568-0.371-0.732s-0.445-0.246-0.754-0.246
			c-0.41,0-0.736,0.142-0.98,0.425s-0.367,0.757-0.367,1.421c0,0.738,0.125,1.26,0.373,1.564s0.58,0.457,0.998,0.457
			c0.313,0,0.568-0.089,0.768-0.267s0.34-0.483,0.422-0.917l1.617,0.275c-0.168,0.742-0.49,1.303-0.967,1.682
			s-1.115,0.568-1.916,0.568c-0.91,0-1.635-0.287-2.176-0.861s-0.813-1.369-0.813-2.385c0-1.027,0.271-1.827,0.814-2.399
			s1.277-0.858,2.203-0.858c0.758,0,1.361,0.163,1.809,0.489S424.148,58.192,424.344,58.86z"/>
		<path d="M427.232,54.653v3.158c0.531-0.621,1.166-0.932,1.904-0.932c0.379,0,0.721,0.07,1.025,0.211s0.535,0.32,0.689,0.539
			s0.26,0.461,0.316,0.727s0.084,0.678,0.084,1.236v3.65h-1.646v-3.287c0-0.652-0.031-1.066-0.094-1.242s-0.172-0.315-0.33-0.419
			s-0.357-0.155-0.596-0.155c-0.273,0-0.518,0.066-0.732,0.199s-0.371,0.333-0.471,0.601s-0.15,0.663-0.15,1.187v3.117h-1.646v-8.59
			H427.232z"/>
		<path d="M441.916,63.243h-1.646v-3.176c0-0.672-0.035-1.106-0.105-1.304s-0.184-0.351-0.342-0.46s-0.35-0.164-0.572-0.164
			c-0.285,0-0.541,0.078-0.768,0.234s-0.381,0.363-0.465,0.621s-0.127,0.734-0.127,1.43v2.818h-1.646v-6.223h1.529v0.914
			c0.543-0.703,1.227-1.055,2.051-1.055c0.363,0,0.695,0.065,0.996,0.196s0.529,0.298,0.684,0.501s0.262,0.434,0.322,0.691
			s0.09,0.627,0.09,1.107V63.243z"/>
		<path d="M447.189,61.263l1.641,0.275c-0.211,0.602-0.543,1.06-0.998,1.374s-1.025,0.472-1.709,0.472
			c-1.082,0-1.883-0.354-2.402-1.061c-0.41-0.566-0.615-1.281-0.615-2.145c0-1.031,0.27-1.839,0.809-2.423s1.221-0.876,2.045-0.876
			c0.926,0,1.656,0.306,2.191,0.917s0.791,1.548,0.768,2.81h-4.125c0.012,0.488,0.145,0.868,0.398,1.14s0.57,0.407,0.949,0.407
			c0.258,0,0.475-0.07,0.65-0.211S447.1,61.575,447.189,61.263z M444.031,56.235l1.23-1.729h1.523l1.213,1.729h-1.324l-0.68-0.873
			l-0.633,0.873H444.031z M447.283,59.599c-0.012-0.477-0.135-0.839-0.369-1.087s-0.52-0.372-0.855-0.372
			c-0.359,0-0.656,0.131-0.891,0.393s-0.35,0.617-0.346,1.066H447.283z"/>
		<path d="M455.92,63.243h-1.646v-3.176c0-0.672-0.035-1.106-0.105-1.304s-0.184-0.351-0.342-0.46s-0.35-0.164-0.572-0.164
			c-0.285,0-0.541,0.078-0.768,0.234s-0.381,0.363-0.465,0.621s-0.127,0.734-0.127,1.43v2.818h-1.646v-6.223h1.529v0.914
			c0.543-0.703,1.227-1.055,2.051-1.055c0.363,0,0.695,0.065,0.996,0.196s0.529,0.298,0.684,0.501s0.262,0.434,0.322,0.691
			s0.09,0.627,0.09,1.107V63.243z"/>
		<path d="M460.854,63.243v-8.59h1.646v3.094c0.508-0.578,1.109-0.867,1.805-0.867c0.758,0,1.385,0.274,1.881,0.823
			s0.744,1.337,0.744,2.364c0,1.063-0.252,1.881-0.758,2.455s-1.121,0.861-1.844,0.861c-0.355,0-0.705-0.089-1.051-0.267
			s-0.645-0.44-0.895-0.788v0.914H460.854z M462.488,59.997c0,0.645,0.102,1.121,0.305,1.43c0.285,0.438,0.664,0.656,1.137,0.656
			c0.363,0,0.674-0.155,0.93-0.466s0.383-0.8,0.383-1.468c0-0.711-0.129-1.224-0.387-1.538s-0.588-0.472-0.99-0.472
			c-0.395,0-0.723,0.153-0.984,0.46S462.488,59.372,462.488,59.997z"/>
		<path d="M469.484,58.919l-1.494-0.27c0.168-0.602,0.457-1.047,0.867-1.336s1.02-0.434,1.828-0.434
			c0.734,0,1.281,0.087,1.641,0.261s0.613,0.395,0.76,0.662s0.219,0.759,0.219,1.474l-0.018,1.922c0,0.547,0.027,0.95,0.08,1.21
			s0.15,0.538,0.295,0.835h-1.629c-0.043-0.109-0.096-0.271-0.158-0.486c-0.027-0.098-0.047-0.162-0.059-0.193
			c-0.281,0.273-0.582,0.479-0.902,0.615s-0.662,0.205-1.025,0.205c-0.641,0-1.145-0.174-1.514-0.521s-0.555-0.787-0.555-1.318
			c0-0.352,0.084-0.665,0.252-0.94s0.404-0.486,0.707-0.633s0.738-0.274,1.309-0.384c0.77-0.145,1.303-0.279,1.6-0.404v-0.164
			c0-0.316-0.078-0.542-0.234-0.677s-0.451-0.202-0.885-0.202c-0.293,0-0.521,0.058-0.686,0.173S469.586,58.63,469.484,58.919z
			 M471.746,54.507h0.803c-0.047,0.531-0.232,0.948-0.559,1.251s-0.75,0.454-1.27,0.454s-0.941-0.151-1.268-0.454
			s-0.514-0.72-0.561-1.251h0.803c0.027,0.277,0.125,0.487,0.293,0.63s0.412,0.214,0.732,0.214s0.564-0.071,0.732-0.214
			S471.719,54.784,471.746,54.507z M471.688,60.255c-0.211,0.07-0.545,0.154-1.002,0.252s-0.756,0.193-0.896,0.287
			c-0.215,0.152-0.322,0.346-0.322,0.58c0,0.23,0.086,0.43,0.258,0.598s0.391,0.252,0.656,0.252c0.297,0,0.58-0.098,0.85-0.293
			c0.199-0.148,0.33-0.33,0.393-0.545c0.043-0.141,0.064-0.408,0.064-0.803V60.255z M469.965,54.19l0.756-1.652h1.846l-1.559,1.652
			H469.965z"/>
		<path d="M477.781,57.021v1.313h-1.125v2.508c0,0.508,0.012,0.804,0.033,0.888s0.07,0.153,0.146,0.208s0.168,0.082,0.277,0.082
			c0.152,0,0.373-0.053,0.662-0.158l0.141,1.277c-0.383,0.164-0.816,0.246-1.301,0.246c-0.297,0-0.564-0.05-0.803-0.149
			s-0.412-0.229-0.523-0.387s-0.189-0.372-0.232-0.642c-0.035-0.191-0.053-0.578-0.053-1.16v-2.713h-0.756v-1.313h0.756v-1.236
			l1.652-0.961v2.197H477.781z"/>
		<path d="M486.318,56.358h-1.775v-1.096h1.775v-0.609h1.646v0.609h0.65v1.096h-0.65v6.885h-1.529v-0.914
			c-0.254,0.355-0.553,0.62-0.898,0.794s-0.695,0.261-1.047,0.261c-0.715,0-1.326-0.288-1.836-0.864s-0.766-1.38-0.766-2.411
			c0-1.055,0.248-1.856,0.744-2.405s1.123-0.823,1.881-0.823c0.695,0,1.297,0.289,1.805,0.867V56.358z M483.57,59.997
			c0,0.664,0.092,1.145,0.275,1.441c0.266,0.43,0.637,0.645,1.113,0.645c0.379,0,0.701-0.161,0.967-0.483s0.398-0.804,0.398-1.444
			c0-0.715-0.129-1.229-0.387-1.544s-0.588-0.472-0.99-0.472c-0.391,0-0.717,0.155-0.98,0.466S483.57,59.38,483.57,59.997z"/>
		<path d="M490.818,58.919l-1.494-0.27c0.168-0.602,0.457-1.047,0.867-1.336s1.02-0.434,1.828-0.434
			c0.734,0,1.281,0.087,1.641,0.261s0.613,0.395,0.76,0.662s0.219,0.759,0.219,1.474l-0.018,1.922c0,0.547,0.027,0.95,0.08,1.21
			s0.15,0.538,0.295,0.835h-1.629c-0.043-0.109-0.096-0.271-0.158-0.486c-0.027-0.098-0.047-0.162-0.059-0.193
			c-0.281,0.273-0.582,0.479-0.902,0.615s-0.662,0.205-1.025,0.205c-0.641,0-1.145-0.174-1.514-0.521s-0.555-0.787-0.555-1.318
			c0-0.352,0.084-0.665,0.252-0.94s0.404-0.486,0.707-0.633s0.738-0.274,1.309-0.384c0.77-0.145,1.303-0.279,1.6-0.404v-0.164
			c0-0.316-0.078-0.542-0.234-0.677s-0.451-0.202-0.885-0.202c-0.293,0-0.521,0.058-0.686,0.173S490.92,58.63,490.818,58.919z
			 M490.092,56.235l1.23-1.729h1.523l1.213,1.729h-1.324l-0.68-0.873l-0.633,0.873H490.092z M492.863,54.19h-1.037l-1.617-1.652
			h1.846L492.863,54.19z M493.021,60.255c-0.211,0.07-0.545,0.154-1.002,0.252s-0.756,0.193-0.896,0.287
			c-0.215,0.152-0.322,0.346-0.322,0.58c0,0.23,0.086,0.43,0.258,0.598s0.391,0.252,0.656,0.252c0.297,0,0.58-0.098,0.85-0.293
			c0.199-0.148,0.33-0.33,0.393-0.545c0.043-0.141,0.064-0.408,0.064-0.803V60.255z"/>
		<path d="M500.357,63.243v-0.932c-0.227,0.332-0.523,0.594-0.893,0.785s-0.76,0.287-1.17,0.287c-0.418,0-0.793-0.092-1.125-0.275
			s-0.572-0.441-0.721-0.773s-0.223-0.791-0.223-1.377v-3.938h1.646v2.859c0,0.875,0.031,1.411,0.092,1.608s0.17,0.354,0.33,0.469
			s0.363,0.173,0.609,0.173c0.281,0,0.533-0.077,0.756-0.231s0.375-0.346,0.457-0.574s0.123-0.788,0.123-1.679v-2.625h1.646v6.223
			H500.357z"/>
		<path d="M509.779,57.021v1.313h-1.125v2.508c0,0.508,0.012,0.804,0.033,0.888s0.07,0.153,0.146,0.208s0.168,0.082,0.277,0.082
			c0.152,0,0.373-0.053,0.662-0.158l0.141,1.277c-0.383,0.164-0.816,0.246-1.301,0.246c-0.297,0-0.564-0.05-0.803-0.149
			s-0.412-0.229-0.523-0.387s-0.189-0.372-0.232-0.642c-0.035-0.191-0.053-0.578-0.053-1.16v-2.713h-0.756v-1.313h0.756v-1.236
			l1.652-0.961v2.197H509.779z"/>
		<path d="M512.58,56.259h-1.037l-1.617-1.752h1.846L512.58,56.259z M510.922,63.243v-6.223h1.646v6.223H510.922z"/>
		<path d="M514.133,57.021h1.518v0.85c0.543-0.66,1.189-0.99,1.939-0.99c0.398,0,0.744,0.082,1.037,0.246s0.533,0.412,0.721,0.744
			c0.273-0.332,0.568-0.58,0.885-0.744s0.654-0.246,1.014-0.246c0.457,0,0.844,0.093,1.16,0.278s0.553,0.458,0.709,0.817
			c0.113,0.266,0.17,0.695,0.17,1.289v3.979h-1.646v-3.557c0-0.617-0.057-1.016-0.17-1.195c-0.152-0.234-0.387-0.352-0.703-0.352
			c-0.23,0-0.447,0.07-0.65,0.211s-0.35,0.347-0.439,0.618s-0.135,0.7-0.135,1.286v2.988h-1.646v-3.41
			c0-0.605-0.029-0.996-0.088-1.172s-0.148-0.307-0.271-0.393s-0.291-0.129-0.502-0.129c-0.254,0-0.482,0.068-0.686,0.205
			s-0.348,0.334-0.436,0.592s-0.133,0.686-0.133,1.283v3.023h-1.646V57.021z"/>
		<path d="M377.229,84.243h-1.646v-3.176c0-0.672-0.035-1.106-0.105-1.304s-0.184-0.351-0.342-0.46s-0.35-0.164-0.572-0.164
			c-0.285,0-0.541,0.078-0.768,0.234s-0.381,0.363-0.465,0.621s-0.127,0.734-0.127,1.43v2.818h-1.646v-6.223h1.529v0.914
			c0.543-0.703,1.227-1.055,2.051-1.055c0.363,0,0.695,0.065,0.996,0.196s0.529,0.298,0.684,0.501s0.262,0.434,0.322,0.691
			s0.09,0.627,0.09,1.107V84.243z"/>
		<path d="M380.539,75.653v3.158c0.531-0.621,1.166-0.932,1.904-0.932c0.379,0,0.721,0.07,1.025,0.211s0.535,0.32,0.689,0.539
			s0.26,0.461,0.316,0.727s0.084,0.678,0.084,1.236v3.65h-1.646v-3.287c0-0.652-0.031-1.066-0.094-1.242s-0.172-0.315-0.33-0.419
			s-0.357-0.155-0.596-0.155c-0.273,0-0.518,0.066-0.732,0.199s-0.371,0.333-0.471,0.601s-0.15,0.663-0.15,1.187v3.117h-1.646v-8.59
			H380.539z"/>
		<path d="M387.459,79.919l-1.494-0.27c0.168-0.602,0.457-1.047,0.867-1.336s1.02-0.434,1.828-0.434
			c0.734,0,1.281,0.087,1.641,0.261s0.613,0.395,0.76,0.662s0.219,0.759,0.219,1.474l-0.018,1.922c0,0.547,0.027,0.95,0.08,1.21
			s0.15,0.538,0.295,0.835h-1.629c-0.043-0.109-0.096-0.271-0.158-0.486c-0.027-0.098-0.047-0.162-0.059-0.193
			c-0.281,0.273-0.582,0.479-0.902,0.615s-0.662,0.205-1.025,0.205c-0.641,0-1.145-0.174-1.514-0.521s-0.555-0.787-0.555-1.318
			c0-0.352,0.084-0.665,0.252-0.94s0.404-0.486,0.707-0.633s0.738-0.274,1.309-0.384c0.77-0.145,1.303-0.279,1.6-0.404v-0.164
			c0-0.316-0.078-0.542-0.234-0.677s-0.451-0.202-0.885-0.202c-0.293,0-0.521,0.058-0.686,0.173S387.561,79.63,387.459,79.919z
			 M389.545,77.259h-1.037l-1.617-1.752h1.846L389.545,77.259z M389.662,81.255c-0.211,0.07-0.545,0.154-1.002,0.252
			s-0.756,0.193-0.896,0.287c-0.215,0.152-0.322,0.346-0.322,0.58c0,0.23,0.086,0.43,0.258,0.598s0.391,0.252,0.656,0.252
			c0.297,0,0.58-0.098,0.85-0.293c0.199-0.148,0.33-0.33,0.393-0.545c0.043-0.141,0.064-0.408,0.064-0.803V81.255z"/>
		<path d="M396.178,84.243v-8.59h1.646v4.559l1.928-2.191h2.027l-2.127,2.273l2.279,3.949h-1.775l-1.564-2.795l-0.768,0.803v1.992
			H396.178z"/>
		<path d="M404.551,75.653v3.158c0.531-0.621,1.166-0.932,1.904-0.932c0.379,0,0.721,0.07,1.025,0.211s0.535,0.32,0.689,0.539
			s0.26,0.461,0.316,0.727s0.084,0.678,0.084,1.236v3.65h-1.646v-3.287c0-0.652-0.031-1.066-0.094-1.242s-0.172-0.315-0.33-0.419
			s-0.357-0.155-0.596-0.155c-0.273,0-0.518,0.066-0.732,0.199s-0.371,0.333-0.471,0.601s-0.15,0.663-0.15,1.187v3.117h-1.646v-8.59
			H404.551z"/>
		<path d="M409.859,81.044c0-0.547,0.135-1.076,0.404-1.588s0.652-0.902,1.146-1.172s1.045-0.404,1.654-0.404
			c0.941,0,1.713,0.306,2.314,0.917s0.902,1.384,0.902,2.317c0,0.941-0.303,1.722-0.91,2.341s-1.373,0.929-2.295,0.929
			c-0.57,0-1.113-0.129-1.631-0.387s-0.912-0.636-1.182-1.134S409.859,81.759,409.859,81.044z M411.547,81.132
			c0,0.617,0.146,1.09,0.439,1.418s0.654,0.492,1.084,0.492s0.791-0.164,1.082-0.492s0.436-0.805,0.436-1.43
			c0-0.609-0.145-1.078-0.436-1.406s-0.652-0.492-1.082-0.492s-0.791,0.164-1.084,0.492S411.547,80.515,411.547,81.132z"/>
		<path d="M418.801,79.919l-1.494-0.27c0.168-0.602,0.457-1.047,0.867-1.336s1.02-0.434,1.828-0.434
			c0.734,0,1.281,0.087,1.641,0.261s0.613,0.395,0.76,0.662s0.219,0.759,0.219,1.474l-0.018,1.922c0,0.547,0.027,0.95,0.08,1.21
			s0.15,0.538,0.295,0.835h-1.629c-0.043-0.109-0.096-0.271-0.158-0.486c-0.027-0.098-0.047-0.162-0.059-0.193
			c-0.281,0.273-0.582,0.479-0.902,0.615s-0.662,0.205-1.025,0.205c-0.641,0-1.145-0.174-1.514-0.521s-0.555-0.787-0.555-1.318
			c0-0.352,0.084-0.665,0.252-0.94s0.404-0.486,0.707-0.633s0.738-0.274,1.309-0.384c0.77-0.145,1.303-0.279,1.6-0.404v-0.164
			c0-0.316-0.078-0.542-0.234-0.677s-0.451-0.202-0.885-0.202c-0.293,0-0.521,0.058-0.686,0.173S418.902,79.63,418.801,79.919z
			 M421.004,81.255c-0.211,0.07-0.545,0.154-1.002,0.252s-0.756,0.193-0.896,0.287c-0.215,0.152-0.322,0.346-0.322,0.58
			c0,0.23,0.086,0.43,0.258,0.598s0.391,0.252,0.656,0.252c0.297,0,0.58-0.098,0.85-0.293c0.199-0.148,0.33-0.33,0.393-0.545
			c0.043-0.141,0.064-0.408,0.064-0.803V81.255z M420.102,76.55c0.207-0.051,0.313-0.141,0.316-0.27
			c0.004-0.09-0.051-0.166-0.164-0.229c-0.164-0.09-0.424-0.135-0.779-0.135c-0.121,0-0.305,0.008-0.551,0.023l-0.064-0.598
			c0.152-0.031,0.434-0.045,0.844-0.041c0.48,0.004,0.873,0.082,1.178,0.234c0.336,0.164,0.508,0.393,0.516,0.686
			c0.016,0.406-0.34,0.654-1.066,0.744v0.293h-0.656v-0.645C419.896,76.591,420.039,76.569,420.102,76.55z"/>
		<path d="M429.904,84.243h-1.646v-3.176c0-0.672-0.035-1.106-0.105-1.304s-0.184-0.351-0.342-0.46s-0.35-0.164-0.572-0.164
			c-0.285,0-0.541,0.078-0.768,0.234s-0.381,0.363-0.465,0.621s-0.127,0.734-0.127,1.43v2.818h-1.646v-6.223h1.529v0.914
			c0.543-0.703,1.227-1.055,2.051-1.055c0.363,0,0.695,0.065,0.996,0.196s0.529,0.298,0.684,0.501s0.262,0.434,0.322,0.691
			s0.09,0.627,0.09,1.107V84.243z"/>
		<path d="M431.422,84.653l1.881,0.229c0.031,0.219,0.104,0.37,0.217,0.452c0.156,0.117,0.402,0.176,0.738,0.176
			c0.43,0,0.752-0.064,0.967-0.193c0.145-0.086,0.254-0.225,0.328-0.417c0.051-0.137,0.076-0.389,0.076-0.756v-0.908
			c-0.492,0.672-1.113,1.008-1.863,1.008c-0.836,0-1.498-0.354-1.986-1.061c-0.383-0.559-0.574-1.254-0.574-2.086
			c0-1.043,0.252-1.84,0.754-2.391s1.125-0.826,1.871-0.826c0.77,0,1.404,0.338,1.904,1.014v-0.873h1.541v5.584
			c0,0.734-0.061,1.283-0.182,1.647c-0.121,0.363-0.291,0.648-0.51,0.855s-0.51,0.369-0.875,0.486s-0.828,0.176-1.387,0.176
			c-1.055,0-1.803-0.182-2.244-0.543s-0.662-0.818-0.662-1.374C431.416,84.798,431.418,84.731,431.422,84.653z M432.893,81.003
			c0,0.66,0.129,1.144,0.385,1.45s0.57,0.46,0.945,0.46c0.402,0,0.742-0.157,1.02-0.472s0.416-0.78,0.416-1.397
			c0-0.645-0.133-1.123-0.398-1.436s-0.602-0.469-1.008-0.469c-0.395,0-0.719,0.153-0.975,0.46S432.893,80.374,432.893,81.003z"/>
		<path fill="#F7931E" d="M447.447,82.714v1.529h-5.771c0.063-0.578,0.25-1.126,0.563-1.644s0.93-1.204,1.852-2.06
			c0.742-0.691,1.197-1.16,1.365-1.406c0.227-0.34,0.34-0.676,0.34-1.008c0-0.367-0.098-0.649-0.295-0.847s-0.471-0.296-0.818-0.296
			c-0.344,0-0.617,0.104-0.82,0.311s-0.32,0.551-0.352,1.031l-1.641-0.164c0.098-0.906,0.404-1.557,0.92-1.951
			s1.16-0.592,1.934-0.592c0.848,0,1.514,0.229,1.998,0.686s0.727,1.025,0.727,1.705c0,0.387-0.068,0.755-0.207,1.104
			s-0.359,0.716-0.66,1.099c-0.199,0.254-0.559,0.619-1.078,1.096s-0.848,0.793-0.986,0.949s-0.252,0.309-0.338,0.457H447.447z"/>
		<path fill="#F7931E" d="M456.307,77.358h-1.775v-1.096h1.775v-0.609h1.646v0.609h0.65v1.096h-0.65v6.885h-1.529v-0.914
			c-0.254,0.355-0.553,0.62-0.898,0.794s-0.695,0.261-1.047,0.261c-0.715,0-1.326-0.288-1.836-0.864s-0.766-1.38-0.766-2.411
			c0-1.055,0.248-1.856,0.744-2.405s1.123-0.823,1.881-0.823c0.695,0,1.297,0.289,1.805,0.867V77.358z M453.559,80.997
			c0,0.664,0.092,1.145,0.275,1.441c0.266,0.43,0.637,0.645,1.113,0.645c0.379,0,0.701-0.161,0.967-0.483s0.398-0.804,0.398-1.444
			c0-0.715-0.129-1.229-0.387-1.544s-0.588-0.472-0.99-0.472c-0.391,0-0.717,0.155-0.98,0.466S453.559,80.38,453.559,80.997z"/>
		<path fill="#F7931E" d="M463.18,82.263l1.641,0.275c-0.211,0.602-0.543,1.06-0.998,1.374s-1.025,0.472-1.709,0.472
			c-1.082,0-1.883-0.354-2.402-1.061c-0.41-0.566-0.615-1.281-0.615-2.145c0-1.031,0.27-1.839,0.809-2.423s1.221-0.876,2.045-0.876
			c0.926,0,1.656,0.306,2.191,0.917s0.791,1.548,0.768,2.81h-4.125c0.012,0.488,0.145,0.868,0.398,1.14s0.57,0.407,0.949,0.407
			c0.258,0,0.475-0.07,0.65-0.211S463.09,82.575,463.18,82.263z M460.021,77.235l1.23-1.729h1.523l1.213,1.729h-1.324l-0.68-0.873
			l-0.633,0.873H460.021z M463.273,80.599c-0.012-0.477-0.135-0.839-0.369-1.087s-0.52-0.372-0.855-0.372
			c-0.359,0-0.656,0.131-0.891,0.393s-0.35,0.617-0.346,1.066H463.273z M461.229,75.19l0.756-1.652h1.846l-1.559,1.652H461.229z"/>
		<path fill="#F7931E" d="M471.91,84.243h-1.646v-3.176c0-0.672-0.035-1.106-0.105-1.304s-0.184-0.351-0.342-0.46
			s-0.35-0.164-0.572-0.164c-0.285,0-0.541,0.078-0.768,0.234s-0.381,0.363-0.465,0.621s-0.127,0.734-0.127,1.43v2.818h-1.646
			v-6.223h1.529v0.914c0.543-0.703,1.227-1.055,2.051-1.055c0.363,0,0.695,0.065,0.996,0.196s0.529,0.298,0.684,0.501
			s0.262,0.434,0.322,0.691s0.09,0.627,0.09,1.107V84.243z"/>
		<path fill="#F7931E" d="M476.504,81.964l1.594-0.193c0.051,0.406,0.188,0.717,0.41,0.932s0.492,0.322,0.809,0.322
			c0.34,0,0.627-0.129,0.859-0.387s0.348-0.605,0.348-1.043c0-0.414-0.111-0.742-0.334-0.984s-0.494-0.363-0.814-0.363
			c-0.211,0-0.463,0.041-0.756,0.123l0.182-1.342c0.445,0.012,0.785-0.085,1.02-0.29s0.352-0.478,0.352-0.817
			c0-0.289-0.086-0.52-0.258-0.691s-0.4-0.258-0.686-0.258c-0.281,0-0.521,0.098-0.721,0.293s-0.32,0.48-0.363,0.855l-1.518-0.258
			c0.105-0.52,0.266-0.935,0.479-1.245s0.51-0.555,0.891-0.732s0.807-0.267,1.279-0.267c0.809,0,1.457,0.258,1.945,0.773
			c0.402,0.422,0.604,0.898,0.604,1.43c0,0.754-0.412,1.355-1.236,1.805c0.492,0.105,0.887,0.342,1.182,0.709
			s0.441,0.811,0.441,1.33c0,0.754-0.275,1.396-0.826,1.928s-1.236,0.797-2.057,0.797c-0.777,0-1.422-0.224-1.934-0.671
			S476.586,82.687,476.504,81.964z"/>
		<path fill="#F7931E" d="M489.775,78.021v1.313h-1.125v2.508c0,0.508,0.012,0.804,0.033,0.888s0.07,0.153,0.146,0.208
			s0.168,0.082,0.277,0.082c0.152,0,0.373-0.053,0.662-0.158l0.141,1.277c-0.383,0.164-0.816,0.246-1.301,0.246
			c-0.297,0-0.564-0.05-0.803-0.149s-0.412-0.229-0.523-0.387s-0.189-0.372-0.232-0.642c-0.035-0.191-0.053-0.578-0.053-1.16v-2.713
			h-0.756v-1.313h0.756v-1.236l1.652-0.961v2.197H489.775z"/>
		<path fill="#F7931E" d="M495.014,84.243v-0.932c-0.227,0.332-0.523,0.594-0.893,0.785s-0.76,0.287-1.17,0.287
			c-0.418,0-0.793-0.092-1.125-0.275s-0.572-0.441-0.721-0.773s-0.223-0.791-0.223-1.377v-3.938h1.646v2.859
			c0,0.875,0.031,1.411,0.092,1.608s0.17,0.354,0.33,0.469s0.363,0.173,0.609,0.173c0.281,0,0.533-0.077,0.756-0.231
			s0.375-0.346,0.457-0.574s0.123-0.788,0.123-1.679v-2.625h1.646v6.223H495.014z"/>
		<path fill="#F7931E" d="M499.479,79.919l-1.494-0.27c0.168-0.602,0.457-1.047,0.867-1.336s1.02-0.434,1.828-0.434
			c0.734,0,1.281,0.087,1.641,0.261s0.613,0.395,0.76,0.662s0.219,0.759,0.219,1.474l-0.018,1.922c0,0.547,0.027,0.95,0.08,1.21
			s0.15,0.538,0.295,0.835h-1.629c-0.043-0.109-0.096-0.271-0.158-0.486c-0.027-0.098-0.047-0.162-0.059-0.193
			c-0.281,0.273-0.582,0.479-0.902,0.615s-0.662,0.205-1.025,0.205c-0.641,0-1.145-0.174-1.514-0.521s-0.555-0.787-0.555-1.318
			c0-0.352,0.084-0.665,0.252-0.94s0.404-0.486,0.707-0.633s0.738-0.274,1.309-0.384c0.77-0.145,1.303-0.279,1.6-0.404v-0.164
			c0-0.316-0.078-0.542-0.234-0.677s-0.451-0.202-0.885-0.202c-0.293,0-0.521,0.058-0.686,0.173S499.58,79.63,499.479,79.919z
			 M498.752,77.235l1.23-1.729h1.523l1.213,1.729h-1.324l-0.68-0.873l-0.633,0.873H498.752z M501.523,75.19h-1.037l-1.617-1.652
			h1.846L501.523,75.19z M501.682,81.255c-0.211,0.07-0.545,0.154-1.002,0.252s-0.756,0.193-0.896,0.287
			c-0.215,0.152-0.322,0.346-0.322,0.58c0,0.23,0.086,0.43,0.258,0.598s0.391,0.252,0.656,0.252c0.297,0,0.58-0.098,0.85-0.293
			c0.199-0.148,0.33-0.33,0.393-0.545c0.043-0.141,0.064-0.408,0.064-0.803V81.255z"/>
		<path fill="#F7931E" d="M510.582,84.243h-1.646v-3.176c0-0.672-0.035-1.106-0.105-1.304s-0.184-0.351-0.342-0.46
			s-0.35-0.164-0.572-0.164c-0.285,0-0.541,0.078-0.768,0.234s-0.381,0.363-0.465,0.621s-0.127,0.734-0.127,1.43v2.818h-1.646
			v-6.223h1.529v0.914c0.543-0.703,1.227-1.055,2.051-1.055c0.363,0,0.695,0.065,0.996,0.196s0.529,0.298,0.684,0.501
			s0.262,0.434,0.322,0.691s0.09,0.627,0.09,1.107V84.243z"/>
		<path fill="#F7931E" d="M374.422,99.021v1.313h-1.125v2.508c0,0.508,0.012,0.803,0.033,0.887s0.07,0.154,0.146,0.209
			s0.168,0.082,0.277,0.082c0.152,0,0.373-0.053,0.662-0.158l0.141,1.277c-0.383,0.164-0.816,0.246-1.301,0.246
			c-0.297,0-0.564-0.051-0.803-0.15s-0.412-0.229-0.523-0.387s-0.189-0.371-0.232-0.641c-0.035-0.191-0.053-0.578-0.053-1.16v-2.713
			h-0.756v-1.313h0.756v-1.236l1.652-0.961v2.197H374.422z"/>
		<path fill="#F7931E" d="M377.141,105.244h-1.646v-6.223h1.529v0.885c0.262-0.418,0.498-0.693,0.707-0.826s0.445-0.199,0.711-0.199
			c0.375,0,0.736,0.104,1.084,0.311l-0.51,1.436c-0.277-0.18-0.535-0.27-0.773-0.27c-0.23,0-0.426,0.063-0.586,0.189
			s-0.285,0.357-0.377,0.689s-0.139,1.027-0.139,2.086V105.244z"/>
		<path fill="#F7931E" d="M386.416,99.021h1.646v1.178c0,0.484-0.041,0.863-0.125,1.137s-0.24,0.518-0.467,0.732
			c-0.348,0.336-0.885,0.563-1.611,0.68v2.496h-1.529v-0.932c-0.488,0.715-1.176,1.072-2.063,1.072c-0.918,0-1.533-0.35-1.846-1.049
			c-0.148-0.332-0.223-0.791-0.223-1.377v-3.938h1.646v2.859c0,0.82,0.031,1.355,0.094,1.605c0.043,0.188,0.152,0.344,0.328,0.469
			c0.16,0.117,0.363,0.176,0.609,0.176c0.277,0,0.529-0.076,0.754-0.229s0.377-0.344,0.459-0.574s0.123-0.791,0.123-1.682v-2.625
			h1.646v3.059c0.543-0.109,0.924-0.313,1.143-0.609c0.133-0.18,0.203-0.447,0.211-0.803h-0.797V99.021z"/>
		<path fill="#F7931E" d="M394.947,99.021h1.646v1.178c0,0.484-0.041,0.863-0.125,1.137s-0.24,0.518-0.467,0.732
			c-0.262,0.254-0.619,0.453-1.072,0.598c-0.098,0.699-0.389,1.295-0.873,1.787c-0.609,0.621-1.375,0.932-2.297,0.932
			c-0.59,0-1.133-0.129-1.629-0.387c-0.527-0.273-0.924-0.656-1.189-1.146s-0.398-1.092-0.398-1.807
			c0-0.563,0.135-1.092,0.404-1.588c0.281-0.52,0.666-0.912,1.154-1.178s1.037-0.398,1.646-0.398c0.941,0,1.713,0.305,2.314,0.914
			c0.543,0.555,0.842,1.24,0.896,2.057c0.508-0.207,0.77-0.602,0.785-1.184h-0.797V99.021z M390.23,102.132
			c0,0.598,0.146,1.07,0.439,1.418c0.277,0.328,0.639,0.492,1.084,0.492s0.805-0.164,1.078-0.492
			c0.293-0.348,0.439-0.824,0.439-1.43c0-0.594-0.146-1.063-0.439-1.406c-0.273-0.328-0.633-0.492-1.078-0.492
			s-0.807,0.164-1.084,0.492C390.377,101.062,390.23,101.535,390.23,102.132z M390.922,98.259l0.809-1.752h1.846l-1.611,1.752
			H390.922z"/>
		<path fill="#F7931E" d="M402.881,100.861l-1.623,0.293c-0.055-0.324-0.178-0.568-0.371-0.732s-0.445-0.246-0.754-0.246
			c-0.41,0-0.736,0.141-0.98,0.424s-0.367,0.758-0.367,1.422c0,0.738,0.125,1.26,0.373,1.564s0.58,0.457,0.998,0.457
			c0.313,0,0.568-0.09,0.768-0.268s0.34-0.482,0.422-0.916l1.617,0.275c-0.168,0.742-0.49,1.303-0.967,1.682
			s-1.115,0.568-1.916,0.568c-0.91,0-1.635-0.287-2.176-0.861s-0.813-1.369-0.813-2.385c0-1.027,0.271-1.828,0.814-2.4
			s1.277-0.857,2.203-0.857c0.758,0,1.361,0.162,1.809,0.488S402.686,100.193,402.881,100.861z"/>
		<path d="M410.316,99.021v1.313h-1.125v2.508c0,0.508,0.012,0.803,0.033,0.887s0.07,0.154,0.146,0.209s0.168,0.082,0.277,0.082
			c0.152,0,0.373-0.053,0.662-0.158l0.141,1.277c-0.383,0.164-0.816,0.246-1.301,0.246c-0.297,0-0.564-0.051-0.803-0.15
			s-0.412-0.229-0.523-0.387s-0.189-0.371-0.232-0.641c-0.035-0.191-0.053-0.578-0.053-1.16v-2.713h-0.756v-1.313h0.756v-1.236
			l1.652-0.961v2.197H410.316z"/>
		<path d="M413.1,96.654v3.158c0.531-0.621,1.166-0.932,1.904-0.932c0.379,0,0.721,0.07,1.025,0.211s0.535,0.32,0.689,0.539
			s0.26,0.461,0.316,0.727s0.084,0.678,0.084,1.236v3.65h-1.646v-3.287c0-0.652-0.031-1.066-0.094-1.242s-0.172-0.316-0.33-0.42
			s-0.357-0.154-0.596-0.154c-0.273,0-0.518,0.066-0.732,0.199s-0.371,0.332-0.471,0.6s-0.15,0.664-0.15,1.188v3.117h-1.646v-8.59
			H413.1z"/>
		<path d="M424.813,99.021h1.646v1.178c0,0.484-0.041,0.863-0.125,1.137s-0.24,0.518-0.467,0.732
			c-0.262,0.254-0.619,0.453-1.072,0.598c-0.098,0.699-0.389,1.295-0.873,1.787c-0.609,0.621-1.375,0.932-2.297,0.932
			c-0.59,0-1.133-0.129-1.629-0.387c-0.527-0.273-0.924-0.656-1.189-1.146s-0.398-1.092-0.398-1.807
			c0-0.563,0.135-1.092,0.404-1.588c0.281-0.52,0.666-0.912,1.154-1.178s1.037-0.398,1.646-0.398c0.941,0,1.713,0.305,2.314,0.914
			c0.543,0.555,0.842,1.24,0.896,2.057c0.508-0.207,0.77-0.602,0.785-1.184h-0.797V99.021z M422.445,98.259h-1.037l-1.617-1.752
			h1.846L422.445,98.259z M420.096,102.132c0,0.598,0.146,1.07,0.439,1.418c0.277,0.328,0.639,0.492,1.084,0.492
			s0.805-0.164,1.078-0.492c0.293-0.348,0.439-0.824,0.439-1.43c0-0.594-0.146-1.063-0.439-1.406
			c-0.273-0.328-0.633-0.492-1.078-0.492s-0.807,0.164-1.084,0.492C420.242,101.062,420.096,101.535,420.096,102.132z"/>
		<path d="M427.32,98.177v-1.523h1.646v1.523H427.32z M427.32,105.244v-6.223h1.646v6.223H427.32z"/>
		<path d="M438.049,98.359h-1.775v-1.096h1.775v-0.609h1.646v0.609h0.65v1.096h-0.65v6.885h-1.529v-0.914
			c-0.254,0.355-0.553,0.619-0.898,0.793s-0.695,0.262-1.047,0.262c-0.715,0-1.326-0.289-1.836-0.865s-0.766-1.379-0.766-2.41
			c0-1.055,0.248-1.857,0.744-2.406s1.123-0.822,1.881-0.822c0.695,0,1.297,0.289,1.805,0.867V98.359z M435.301,101.998
			c0,0.664,0.092,1.145,0.275,1.441c0.266,0.43,0.637,0.645,1.113,0.645c0.379,0,0.701-0.162,0.967-0.484s0.398-0.803,0.398-1.443
			c0-0.715-0.129-1.23-0.387-1.545s-0.588-0.471-0.99-0.471c-0.391,0-0.717,0.154-0.98,0.465S435.301,101.38,435.301,101.998z"/>
		<path d="M441.318,98.177v-1.523h1.646v1.523H441.318z M441.318,105.244v-6.223h1.646v6.223H441.318z"/>
		<path d="M448.256,103.263l1.641,0.275c-0.211,0.602-0.543,1.059-0.998,1.373s-1.025,0.473-1.709,0.473
			c-1.082,0-1.883-0.354-2.402-1.061c-0.41-0.566-0.615-1.281-0.615-2.145c0-1.031,0.27-1.84,0.809-2.424s1.221-0.875,2.045-0.875
			c0.926,0,1.656,0.305,2.191,0.916s0.791,1.549,0.768,2.811h-4.125c0.012,0.488,0.145,0.867,0.398,1.139s0.57,0.408,0.949,0.408
			c0.258,0,0.475-0.07,0.65-0.211S448.166,103.576,448.256,103.263z M445.098,98.236l1.23-1.729h1.523l1.213,1.729h-1.324
			l-0.68-0.873l-0.633,0.873H445.098z M448.35,101.599c-0.012-0.477-0.135-0.84-0.369-1.088s-0.52-0.371-0.855-0.371
			c-0.359,0-0.656,0.131-0.891,0.393s-0.35,0.617-0.346,1.066H448.35z M447.16,95.628c0.207-0.051,0.313-0.141,0.316-0.27
			c0.004-0.09-0.051-0.166-0.164-0.229c-0.164-0.09-0.424-0.135-0.779-0.135c-0.121,0-0.305,0.008-0.551,0.023l-0.064-0.598
			c0.152-0.031,0.434-0.045,0.844-0.041c0.48,0.004,0.873,0.082,1.178,0.234c0.336,0.164,0.508,0.393,0.516,0.686
			c0.016,0.406-0.34,0.654-1.066,0.744v0.293h-0.656v-0.645C446.955,95.669,447.098,95.648,447.16,95.628z"/>
		<path d="M451.203,99.021h1.518v0.85c0.543-0.66,1.189-0.99,1.939-0.99c0.398,0,0.744,0.082,1.037,0.246s0.533,0.412,0.721,0.744
			c0.273-0.332,0.568-0.58,0.885-0.744s0.654-0.246,1.014-0.246c0.457,0,0.844,0.092,1.16,0.277s0.553,0.459,0.709,0.818
			c0.113,0.266,0.17,0.695,0.17,1.289v3.979h-1.646v-3.557c0-0.617-0.057-1.016-0.17-1.195c-0.152-0.234-0.387-0.352-0.703-0.352
			c-0.23,0-0.447,0.07-0.65,0.211s-0.35,0.346-0.439,0.617s-0.135,0.701-0.135,1.287v2.988h-1.646v-3.41
			c0-0.605-0.029-0.996-0.088-1.172s-0.148-0.307-0.271-0.393s-0.291-0.129-0.502-0.129c-0.254,0-0.482,0.068-0.686,0.205
			s-0.348,0.334-0.436,0.592s-0.133,0.686-0.133,1.283v3.023h-1.646V99.021z"/>
		<path d="M472.256,104.154c0.426,0.305,0.889,0.547,1.389,0.727l-0.639,1.225c-0.262-0.078-0.518-0.186-0.768-0.322
			c-0.055-0.027-0.439-0.281-1.154-0.762c-0.563,0.246-1.186,0.369-1.869,0.369c-1.32,0-2.354-0.389-3.102-1.166
			s-1.123-1.869-1.123-3.275c0-1.402,0.375-2.494,1.125-3.273s1.768-1.168,3.053-1.168c1.273,0,2.283,0.389,3.029,1.168
			s1.119,1.871,1.119,3.273c0,0.742-0.104,1.395-0.311,1.957C472.85,103.335,472.6,103.751,472.256,104.154z M470.861,103.175
			c0.223-0.262,0.391-0.578,0.502-0.949s0.166-0.797,0.166-1.277c0-0.992-0.219-1.734-0.656-2.225s-1.01-0.734-1.717-0.734
			s-1.279,0.246-1.719,0.738s-0.66,1.232-0.66,2.221c0,1.004,0.221,1.754,0.66,2.252s0.994,0.748,1.666,0.748
			c0.25,0,0.486-0.041,0.709-0.123c-0.352-0.23-0.709-0.41-1.072-0.539l0.486-0.99C469.797,102.492,470.342,102.785,470.861,103.175
			z"/>
		<path d="M478.76,105.244v-0.932c-0.227,0.332-0.523,0.594-0.893,0.785s-0.76,0.287-1.17,0.287c-0.418,0-0.793-0.092-1.125-0.275
			s-0.572-0.441-0.721-0.773s-0.223-0.791-0.223-1.377v-3.938h1.646v2.859c0,0.875,0.031,1.41,0.092,1.607s0.17,0.354,0.33,0.469
			s0.363,0.174,0.609,0.174c0.281,0,0.533-0.078,0.756-0.232s0.375-0.346,0.457-0.574s0.123-0.787,0.123-1.678v-2.625h1.646v6.223
			H478.76z"/>
		<path d="M481.215,99.021h1.752l1.488,4.418l1.453-4.418h1.705l-2.197,5.988l-0.393,1.084c-0.145,0.363-0.281,0.641-0.412,0.832
			s-0.281,0.346-0.451,0.465s-0.379,0.213-0.627,0.279s-0.529,0.1-0.842,0.1c-0.316,0-0.627-0.033-0.932-0.1l-0.146-1.289
			c0.258,0.051,0.49,0.076,0.697,0.076c0.383,0,0.666-0.113,0.85-0.338s0.324-0.51,0.422-0.857L481.215,99.021z M483.582,98.259
			l0.809-1.752h1.846l-1.611,1.752H483.582z"/>
		<path d="M371.51,126.244v-8.59h1.646v4.559l1.928-2.191h2.027l-2.127,2.273l2.279,3.949h-1.775l-1.564-2.795l-0.768,0.803v1.992
			H371.51z"/>
		<path d="M379.883,117.654v3.158c0.531-0.621,1.166-0.932,1.904-0.932c0.379,0,0.721,0.07,1.025,0.211s0.535,0.32,0.689,0.539
			s0.26,0.461,0.316,0.727s0.084,0.678,0.084,1.236v3.65h-1.646v-3.287c0-0.652-0.031-1.066-0.094-1.242s-0.172-0.316-0.33-0.42
			s-0.357-0.154-0.596-0.154c-0.273,0-0.518,0.066-0.732,0.199s-0.371,0.332-0.471,0.6s-0.15,0.664-0.15,1.188v3.117h-1.646v-8.59
			H379.883z"/>
		<path d="M386.803,121.919l-1.494-0.27c0.168-0.602,0.457-1.047,0.867-1.336s1.02-0.434,1.828-0.434
			c0.734,0,1.281,0.086,1.641,0.26s0.613,0.395,0.76,0.662s0.219,0.76,0.219,1.475l-0.018,1.922c0,0.547,0.027,0.949,0.08,1.209
			s0.15,0.539,0.295,0.836h-1.629c-0.043-0.109-0.096-0.271-0.158-0.486c-0.027-0.098-0.047-0.162-0.059-0.193
			c-0.281,0.273-0.582,0.479-0.902,0.615s-0.662,0.205-1.025,0.205c-0.641,0-1.145-0.174-1.514-0.521s-0.555-0.787-0.555-1.318
			c0-0.352,0.084-0.666,0.252-0.941s0.404-0.486,0.707-0.633s0.738-0.273,1.309-0.383c0.77-0.145,1.303-0.279,1.6-0.404v-0.164
			c0-0.316-0.078-0.543-0.234-0.678s-0.451-0.201-0.885-0.201c-0.293,0-0.521,0.057-0.686,0.172S386.904,121.63,386.803,121.919z
			 M389.006,123.255c-0.211,0.07-0.545,0.154-1.002,0.252s-0.756,0.193-0.896,0.287c-0.215,0.152-0.322,0.346-0.322,0.58
			c0,0.23,0.086,0.43,0.258,0.598s0.391,0.252,0.656,0.252c0.297,0,0.58-0.098,0.85-0.293c0.199-0.148,0.33-0.33,0.393-0.545
			c0.043-0.141,0.064-0.408,0.064-0.803V123.255z M387.225,119.259l0.809-1.752h1.846l-1.611,1.752H387.225z"/>
		<path d="M397.672,121.861l-1.623,0.293c-0.055-0.324-0.178-0.568-0.371-0.732s-0.445-0.246-0.754-0.246
			c-0.41,0-0.736,0.141-0.98,0.424s-0.367,0.758-0.367,1.422c0,0.738,0.125,1.26,0.373,1.564s0.58,0.457,0.998,0.457
			c0.313,0,0.568-0.09,0.768-0.268s0.34-0.482,0.422-0.916l1.617,0.275c-0.168,0.742-0.49,1.303-0.967,1.682
			s-1.115,0.568-1.916,0.568c-0.91,0-1.635-0.287-2.176-0.861s-0.813-1.369-0.813-2.385c0-1.027,0.271-1.828,0.814-2.4
			s1.277-0.857,2.203-0.857c0.758,0,1.361,0.162,1.809,0.488S397.477,121.193,397.672,121.861z"/>
		<path d="M400.561,117.654v3.158c0.531-0.621,1.166-0.932,1.904-0.932c0.379,0,0.721,0.07,1.025,0.211s0.535,0.32,0.689,0.539
			s0.26,0.461,0.316,0.727s0.084,0.678,0.084,1.236v3.65h-1.646v-3.287c0-0.652-0.031-1.066-0.094-1.242s-0.172-0.316-0.33-0.42
			s-0.357-0.154-0.596-0.154c-0.273,0-0.518,0.066-0.732,0.199s-0.371,0.332-0.471,0.6s-0.15,0.664-0.15,1.188v3.117h-1.646v-8.59
			H400.561z"/>
		<path d="M409.461,120.021h1.518v0.85c0.543-0.66,1.189-0.99,1.939-0.99c0.398,0,0.744,0.082,1.037,0.246s0.533,0.412,0.721,0.744
			c0.273-0.332,0.568-0.58,0.885-0.744s0.654-0.246,1.014-0.246c0.457,0,0.844,0.092,1.16,0.277s0.553,0.459,0.709,0.818
			c0.113,0.266,0.17,0.695,0.17,1.289v3.979h-1.646v-3.557c0-0.617-0.057-1.016-0.17-1.195c-0.152-0.234-0.387-0.352-0.703-0.352
			c-0.23,0-0.447,0.07-0.65,0.211s-0.35,0.346-0.439,0.617s-0.135,0.701-0.135,1.287v2.988h-1.646v-3.41
			c0-0.605-0.029-0.996-0.088-1.172s-0.148-0.307-0.271-0.393s-0.291-0.129-0.502-0.129c-0.254,0-0.482,0.068-0.686,0.205
			s-0.348,0.334-0.436,0.592s-0.133,0.686-0.133,1.283v3.023h-1.646V120.021z"/>
		<path d="M424.35,126.244v-0.932c-0.227,0.332-0.523,0.594-0.893,0.785s-0.76,0.287-1.17,0.287c-0.418,0-0.793-0.092-1.125-0.275
			s-0.572-0.441-0.721-0.773s-0.223-0.791-0.223-1.377v-3.938h1.646v2.859c0,0.875,0.031,1.41,0.092,1.607s0.17,0.354,0.33,0.469
			s0.363,0.174,0.609,0.174c0.281,0,0.533-0.078,0.756-0.232s0.375-0.346,0.457-0.574s0.123-0.787,0.123-1.678v-2.625h1.646v6.223
			H424.35z"/>
		<path d="M427.203,123.044c0-0.547,0.135-1.076,0.404-1.588s0.652-0.902,1.146-1.172s1.045-0.404,1.654-0.404
			c0.941,0,1.713,0.305,2.314,0.916s0.902,1.385,0.902,2.318c0,0.941-0.303,1.721-0.91,2.34s-1.373,0.93-2.295,0.93
			c-0.57,0-1.113-0.129-1.631-0.387s-0.912-0.637-1.182-1.135S427.203,123.759,427.203,123.044z M428.428,119.236l1.23-1.729h1.523
			l1.213,1.729h-1.324l-0.68-0.873l-0.633,0.873H428.428z M428.891,123.132c0,0.617,0.146,1.09,0.439,1.418s0.654,0.492,1.084,0.492
			s0.791-0.164,1.082-0.492s0.436-0.805,0.436-1.43c0-0.609-0.145-1.078-0.436-1.406s-0.652-0.492-1.082-0.492
			s-0.791,0.164-1.084,0.492S428.891,122.515,428.891,123.132z M429.635,117.191l0.756-1.652h1.846l-1.559,1.652H429.635z"/>
		<path d="M440.574,126.244h-1.646v-3.176c0-0.672-0.035-1.107-0.105-1.305s-0.184-0.35-0.342-0.459s-0.35-0.164-0.572-0.164
			c-0.285,0-0.541,0.078-0.768,0.234s-0.381,0.363-0.465,0.621s-0.127,0.734-0.127,1.43v2.818h-1.646v-6.223h1.529v0.914
			c0.543-0.703,1.227-1.055,2.051-1.055c0.363,0,0.695,0.064,0.996,0.195s0.529,0.299,0.684,0.502s0.262,0.434,0.322,0.691
			s0.09,0.627,0.09,1.107V126.244z"/>
		<path d="M451.004,121.861l-1.623,0.293c-0.055-0.324-0.178-0.568-0.371-0.732s-0.445-0.246-0.754-0.246
			c-0.41,0-0.736,0.141-0.98,0.424s-0.367,0.758-0.367,1.422c0,0.738,0.125,1.26,0.373,1.564s0.58,0.457,0.998,0.457
			c0.313,0,0.568-0.09,0.768-0.268s0.34-0.482,0.422-0.916l1.617,0.275c-0.168,0.742-0.49,1.303-0.967,1.682
			s-1.115,0.568-1.916,0.568c-0.91,0-1.635-0.287-2.176-0.861s-0.813-1.369-0.813-2.385c0-1.027,0.271-1.828,0.814-2.4
			s1.277-0.857,2.203-0.857c0.758,0,1.361,0.162,1.809,0.488S450.809,121.193,451.004,121.861z"/>
		<path d="M453.893,117.654v3.158c0.531-0.621,1.166-0.932,1.904-0.932c0.379,0,0.721,0.07,1.025,0.211s0.535,0.32,0.689,0.539
			s0.26,0.461,0.316,0.727s0.084,0.678,0.084,1.236v3.65h-1.646v-3.287c0-0.652-0.031-1.066-0.094-1.242s-0.172-0.316-0.33-0.42
			s-0.357-0.154-0.596-0.154c-0.273,0-0.518,0.066-0.732,0.199s-0.371,0.332-0.471,0.6s-0.15,0.664-0.15,1.188v3.117h-1.646v-8.59
			H453.893z"/>
		<path d="M463.678,126.244v-0.932c-0.227,0.332-0.523,0.594-0.893,0.785s-0.76,0.287-1.17,0.287c-0.418,0-0.793-0.092-1.125-0.275
			s-0.572-0.441-0.721-0.773s-0.223-0.791-0.223-1.377v-3.938h1.646v2.859c0,0.875,0.031,1.41,0.092,1.607s0.17,0.354,0.33,0.469
			s0.363,0.174,0.609,0.174c0.281,0,0.533-0.078,0.756-0.232s0.375-0.346,0.457-0.574s0.123-0.787,0.123-1.678v-2.625h1.646v6.223
			H463.678z"/>
		<path d="M466.133,120.021h1.752l1.488,4.418l1.453-4.418h1.705l-2.197,5.988l-0.393,1.084c-0.145,0.363-0.281,0.641-0.412,0.832
			s-0.281,0.346-0.451,0.465s-0.379,0.213-0.627,0.279s-0.529,0.1-0.842,0.1c-0.316,0-0.627-0.033-0.932-0.1l-0.146-1.289
			c0.258,0.051,0.49,0.076,0.697,0.076c0.383,0,0.666-0.113,0.85-0.338s0.324-0.51,0.422-0.857L466.133,120.021z"/>
		<path d="M477.189,124.263l1.641,0.275c-0.211,0.602-0.543,1.059-0.998,1.373s-1.025,0.473-1.709,0.473
			c-1.082,0-1.883-0.354-2.402-1.061c-0.41-0.566-0.615-1.281-0.615-2.145c0-1.031,0.27-1.84,0.809-2.424s1.221-0.875,2.045-0.875
			c0.926,0,1.656,0.305,2.191,0.916s0.791,1.549,0.768,2.811h-4.125c0.012,0.488,0.145,0.867,0.398,1.139s0.57,0.408,0.949,0.408
			c0.258,0,0.475-0.07,0.65-0.211S477.1,124.576,477.189,124.263z M474.031,119.236l1.23-1.729h1.523l1.213,1.729h-1.324
			l-0.68-0.873l-0.633,0.873H474.031z M477.283,122.599c-0.012-0.477-0.135-0.84-0.369-1.088s-0.52-0.371-0.855-0.371
			c-0.359,0-0.656,0.131-0.891,0.393s-0.35,0.617-0.346,1.066H477.283z M476.094,116.628c0.207-0.051,0.313-0.141,0.316-0.27
			c0.004-0.09-0.051-0.166-0.164-0.229c-0.164-0.09-0.424-0.135-0.779-0.135c-0.121,0-0.305,0.008-0.551,0.023l-0.064-0.598
			c0.152-0.031,0.434-0.045,0.844-0.041c0.48,0.004,0.873,0.082,1.178,0.234c0.336,0.164,0.508,0.393,0.516,0.686
			c0.016,0.406-0.34,0.654-1.066,0.744v0.293h-0.656v-0.645C475.889,116.669,476.031,116.648,476.094,116.628z"/>
		<path d="M485.92,126.244h-1.646v-3.176c0-0.672-0.035-1.107-0.105-1.305s-0.184-0.35-0.342-0.459s-0.35-0.164-0.572-0.164
			c-0.285,0-0.541,0.078-0.768,0.234s-0.381,0.363-0.465,0.621s-0.127,0.734-0.127,1.43v2.818h-1.646v-6.223h1.529v0.914
			c0.543-0.703,1.227-1.055,2.051-1.055c0.363,0,0.695,0.064,0.996,0.195s0.529,0.299,0.684,0.502s0.262,0.434,0.322,0.691
			s0.09,0.627,0.09,1.107V126.244z"/>
		<path d="M492.635,126.244l-2.508-6.223h1.729l1.172,3.176l0.34,1.061c0.09-0.27,0.146-0.447,0.17-0.533
			c0.055-0.176,0.113-0.352,0.176-0.527l1.184-3.176h1.693l-2.473,6.223H492.635z"/>
		<path d="M498.828,121.919l-1.494-0.27c0.168-0.602,0.457-1.047,0.867-1.336s1.02-0.434,1.828-0.434
			c0.734,0,1.281,0.086,1.641,0.26s0.613,0.395,0.76,0.662s0.219,0.76,0.219,1.475l-0.018,1.922c0,0.547,0.027,0.949,0.08,1.209
			s0.15,0.539,0.295,0.836h-1.629c-0.043-0.109-0.096-0.271-0.158-0.486c-0.027-0.098-0.047-0.162-0.059-0.193
			c-0.281,0.273-0.582,0.479-0.902,0.615s-0.662,0.205-1.025,0.205c-0.641,0-1.145-0.174-1.514-0.521s-0.555-0.787-0.555-1.318
			c0-0.352,0.084-0.666,0.252-0.941s0.404-0.486,0.707-0.633s0.738-0.273,1.309-0.383c0.77-0.145,1.303-0.279,1.6-0.404v-0.164
			c0-0.316-0.078-0.543-0.234-0.678s-0.451-0.201-0.885-0.201c-0.293,0-0.521,0.057-0.686,0.172S498.93,121.63,498.828,121.919z
			 M500.914,119.259h-1.037l-1.617-1.752h1.846L500.914,119.259z M501.031,123.255c-0.211,0.07-0.545,0.154-1.002,0.252
			s-0.756,0.193-0.896,0.287c-0.215,0.152-0.322,0.346-0.322,0.58c0,0.23,0.086,0.43,0.258,0.598s0.391,0.252,0.656,0.252
			c0.297,0,0.58-0.098,0.85-0.293c0.199-0.148,0.33-0.33,0.393-0.545c0.043-0.141,0.064-0.408,0.064-0.803V123.255z"/>
		<path d="M503.891,123.044c0-0.547,0.135-1.076,0.404-1.588s0.652-0.902,1.146-1.172s1.045-0.404,1.654-0.404
			c0.941,0,1.713,0.305,2.314,0.916s0.902,1.385,0.902,2.318c0,0.941-0.303,1.721-0.91,2.34s-1.373,0.93-2.295,0.93
			c-0.57,0-1.113-0.129-1.631-0.387s-0.912-0.637-1.182-1.135S503.891,123.759,503.891,123.044z M505.578,123.132
			c0,0.617,0.146,1.09,0.439,1.418s0.654,0.492,1.084,0.492s0.791-0.164,1.082-0.492s0.436-0.805,0.436-1.43
			c0-0.609-0.145-1.078-0.436-1.406s-0.652-0.492-1.082-0.492s-0.791,0.164-1.084,0.492S505.578,122.515,505.578,123.132z"/>
		<path d="M511.602,126.244v-1.646h1.646v1.646H511.602z"/>
	</g>
	<g>
		<path d="M18.976,60.317V48.148h2.457v5.404l4.964-5.404H29.7l-4.582,4.74l4.831,7.429H26.77l-3.345-5.711l-1.992,2.034v3.677
			H18.976z"/>
		<path d="M33.527,48.148v4.474c0.752-0.88,1.652-1.32,2.698-1.32c0.537,0,1.021,0.1,1.453,0.299s0.757,0.454,0.975,0.764
			c0.219,0.31,0.368,0.653,0.448,1.029c0.081,0.376,0.121,0.96,0.121,1.751v5.171h-2.333v-4.657c0-0.924-0.044-1.511-0.133-1.76
			s-0.245-0.447-0.469-0.593c-0.225-0.147-0.505-0.22-0.843-0.22c-0.387,0-0.733,0.094-1.038,0.282s-0.527,0.472-0.668,0.851
			c-0.141,0.379-0.211,0.939-0.211,1.681v4.416h-2.333V48.148H33.527z"/>
		<path d="M41.587,50.307v-2.158h2.333v2.158H41.587z M41.587,60.317v-8.815h2.333v8.815H41.587z"/>
		<path d="M59.052,60.317h-2.333v-4.499c0-0.952-0.05-1.567-0.149-1.847c-0.1-0.28-0.262-0.497-0.485-0.652
			c-0.225-0.155-0.494-0.232-0.81-0.232c-0.404,0-0.767,0.111-1.087,0.332s-0.541,0.515-0.66,0.88
			c-0.119,0.365-0.179,1.041-0.179,2.025v3.993h-2.333v-8.815h2.167v1.295c0.769-0.996,1.738-1.494,2.905-1.494
			c0.515,0,0.985,0.093,1.411,0.278c0.426,0.185,0.749,0.422,0.967,0.709c0.219,0.288,0.371,0.614,0.457,0.979
			c0.085,0.365,0.128,0.888,0.128,1.569V60.317z"/>
		<path d="M63.161,54.191l-2.117-0.382c0.238-0.852,0.647-1.483,1.229-1.893s1.444-0.614,2.59-0.614
			c1.041,0,1.815,0.123,2.324,0.369c0.509,0.247,0.867,0.559,1.075,0.938c0.207,0.379,0.311,1.075,0.311,2.087l-0.025,2.723
			c0,0.775,0.037,1.346,0.112,1.714c0.074,0.368,0.214,0.762,0.419,1.183h-2.308c-0.061-0.155-0.136-0.385-0.224-0.689
			c-0.039-0.138-0.066-0.229-0.083-0.274c-0.398,0.387-0.825,0.678-1.278,0.872s-0.938,0.291-1.453,0.291
			c-0.908,0-1.623-0.246-2.146-0.739c-0.523-0.493-0.785-1.115-0.785-1.868c0-0.498,0.119-0.942,0.357-1.332
			c0.238-0.391,0.571-0.689,1-0.896c0.429-0.208,1.047-0.389,1.855-0.544c1.09-0.205,1.846-0.396,2.266-0.573v-0.232
			c0-0.448-0.111-0.768-0.332-0.958c-0.221-0.191-0.639-0.287-1.253-0.287c-0.415,0-0.739,0.082-0.971,0.245
			C63.493,53.496,63.305,53.782,63.161,54.191z M66.116,50.423h-1.469l-2.291-2.482h2.615L66.116,50.423z M66.282,56.084
			c-0.299,0.1-0.772,0.219-1.419,0.357s-1.071,0.274-1.27,0.407c-0.304,0.216-0.457,0.49-0.457,0.822
			c0,0.327,0.122,0.609,0.365,0.847s0.553,0.357,0.93,0.357c0.42,0,0.822-0.138,1.204-0.415c0.282-0.21,0.468-0.468,0.556-0.772
			c0.061-0.199,0.091-0.578,0.091-1.137V56.084z"/>
		<path d="M70.333,55.785c0-0.775,0.191-1.524,0.573-2.25s0.923-1.278,1.623-1.66c0.7-0.382,1.482-0.573,2.345-0.573
			c1.333,0,2.427,0.433,3.279,1.299c0.852,0.866,1.278,1.96,1.278,3.283c0,1.333-0.43,2.439-1.291,3.316
			c-0.86,0.877-1.943,1.315-3.25,1.315c-0.808,0-1.579-0.183-2.312-0.548c-0.733-0.365-1.291-0.9-1.672-1.606
			C70.523,57.657,70.333,56.798,70.333,55.785z M72.723,55.91c0,0.875,0.208,1.544,0.623,2.009s0.927,0.697,1.536,0.697
			s1.119-0.232,1.531-0.697c0.413-0.465,0.619-1.14,0.619-2.025c0-0.863-0.206-1.527-0.619-1.992
			c-0.412-0.465-0.922-0.697-1.531-0.697s-1.121,0.232-1.536,0.697S72.723,55.035,72.723,55.91z"/>
		<path d="M90.022,51.502v1.859h-1.594v3.553c0,0.719,0.015,1.139,0.046,1.258c0.03,0.119,0.1,0.217,0.207,0.294
			c0.108,0.078,0.24,0.116,0.395,0.116c0.216,0,0.528-0.075,0.938-0.224l0.199,1.81c-0.542,0.232-1.157,0.349-1.843,0.349
			c-0.42,0-0.8-0.07-1.137-0.212c-0.337-0.141-0.585-0.323-0.743-0.548c-0.157-0.224-0.267-0.527-0.328-0.909
			c-0.05-0.271-0.075-0.819-0.075-1.644v-3.843h-1.071v-1.859h1.071V49.75l2.341-1.361v3.113H90.022z"/>
		<path d="M91.101,55.785c0-0.775,0.191-1.524,0.573-2.25s0.923-1.278,1.623-1.66c0.7-0.382,1.482-0.573,2.345-0.573
			c1.333,0,2.427,0.433,3.279,1.299c0.852,0.866,1.278,1.96,1.278,3.283c0,1.333-0.43,2.439-1.291,3.316
			c-0.86,0.877-1.943,1.315-3.25,1.315c-0.808,0-1.579-0.183-2.312-0.548c-0.733-0.365-1.291-0.9-1.672-1.606
			C91.292,57.657,91.101,56.798,91.101,55.785z M92.836,50.39l1.743-2.449h2.158l1.718,2.449H96.58l-0.963-1.237L94.72,50.39H92.836
			z M93.492,55.91c0,0.875,0.208,1.544,0.623,2.009s0.927,0.697,1.536,0.697s1.119-0.232,1.531-0.697
			c0.413-0.465,0.619-1.14,0.619-2.025c0-0.863-0.206-1.527-0.619-1.992c-0.412-0.465-0.922-0.697-1.531-0.697
			s-1.121,0.232-1.536,0.697S93.492,55.035,93.492,55.91z"/>
		<path d="M102.025,50.307v-2.158h2.333v2.158H102.025z M102.025,60.317v-8.815h2.333v8.815H102.025z"/>
		<path d="M119.49,60.317h-2.333v-4.499c0-0.952-0.05-1.567-0.149-1.847c-0.1-0.28-0.262-0.497-0.485-0.652
			c-0.225-0.155-0.494-0.232-0.81-0.232c-0.404,0-0.767,0.111-1.087,0.332s-0.541,0.515-0.66,0.88
			c-0.119,0.365-0.179,1.041-0.179,2.025v3.993h-2.333v-8.815h2.167v1.295c0.769-0.996,1.738-1.494,2.905-1.494
			c0.515,0,0.985,0.093,1.411,0.278c0.426,0.185,0.749,0.422,0.967,0.709c0.219,0.288,0.371,0.614,0.457,0.979
			c0.085,0.365,0.128,0.888,0.128,1.569V60.317z"/>
		<path d="M126.96,57.512l2.324,0.39c-0.299,0.852-0.771,1.501-1.415,1.947c-0.645,0.445-1.452,0.668-2.42,0.668
			c-1.533,0-2.667-0.501-3.403-1.502c-0.581-0.802-0.872-1.815-0.872-3.038c0-1.461,0.382-2.605,1.146-3.432
			c0.764-0.828,1.729-1.241,2.897-1.241c1.312,0,2.346,0.433,3.104,1.299c0.758,0.866,1.121,2.193,1.087,3.98h-5.844
			c0.017,0.692,0.205,1.23,0.564,1.614c0.36,0.385,0.808,0.577,1.345,0.577c0.365,0,0.672-0.1,0.921-0.299
			S126.833,57.955,126.96,57.512z M122.486,50.39l1.743-2.449h2.158l1.718,2.449h-1.876l-0.963-1.237l-0.896,1.237H122.486z
			 M127.093,55.154c-0.017-0.675-0.191-1.188-0.523-1.54c-0.332-0.351-0.736-0.527-1.212-0.527c-0.509,0-0.93,0.186-1.262,0.556
			s-0.495,0.875-0.49,1.511H127.093z"/>
		<path d="M139.329,60.317h-2.333v-4.499c0-0.952-0.05-1.567-0.149-1.847c-0.1-0.28-0.262-0.497-0.485-0.652
			c-0.225-0.155-0.494-0.232-0.81-0.232c-0.404,0-0.767,0.111-1.087,0.332s-0.541,0.515-0.66,0.88
			c-0.119,0.365-0.179,1.041-0.179,2.025v3.993h-2.333v-8.815h2.167v1.295c0.769-0.996,1.738-1.494,2.905-1.494
			c0.515,0,0.985,0.093,1.411,0.278c0.426,0.185,0.749,0.422,0.967,0.709c0.219,0.288,0.371,0.614,0.457,0.979
			c0.085,0.365,0.128,0.888,0.128,1.569V60.317z"/>
		<path d="M18.826,85.318V73.148h2.333v4.383c0.719-0.819,1.572-1.229,2.557-1.229c1.074,0,1.962,0.389,2.665,1.166
			c0.703,0.778,1.054,1.894,1.054,3.35c0,1.505-0.358,2.665-1.075,3.478c-0.716,0.813-1.586,1.221-2.61,1.221
			c-0.503,0-1-0.127-1.49-0.378c-0.489-0.251-0.912-0.624-1.266-1.116v1.295H18.826z M21.142,80.719
			c0,0.913,0.144,1.588,0.432,2.025c0.404,0.62,0.941,0.93,1.61,0.93c0.515,0,0.953-0.22,1.315-0.66
			c0.363-0.439,0.544-1.133,0.544-2.079c0-1.007-0.183-1.733-0.548-2.179c-0.365-0.446-0.833-0.668-1.403-0.668
			c-0.559,0-1.024,0.217-1.395,0.652C21.328,79.173,21.142,79.833,21.142,80.719z"/>
		<path d="M31.053,79.191l-2.117-0.382c0.238-0.852,0.647-1.483,1.229-1.893s1.444-0.614,2.59-0.614
			c1.041,0,1.815,0.123,2.324,0.369c0.509,0.247,0.867,0.559,1.075,0.938c0.207,0.379,0.311,1.075,0.311,2.087L36.44,82.42
			c0,0.775,0.037,1.346,0.112,1.714c0.074,0.368,0.214,0.762,0.419,1.183h-2.308c-0.061-0.155-0.136-0.385-0.224-0.689
			c-0.039-0.138-0.066-0.229-0.083-0.274c-0.398,0.387-0.825,0.678-1.278,0.872c-0.454,0.193-0.938,0.291-1.453,0.291
			c-0.908,0-1.623-0.246-2.146-0.739c-0.523-0.493-0.785-1.115-0.785-1.868c0-0.498,0.119-0.942,0.357-1.332
			c0.238-0.391,0.571-0.689,1-0.896c0.429-0.208,1.047-0.389,1.855-0.544c1.09-0.205,1.846-0.396,2.266-0.573v-0.232
			c0-0.448-0.111-0.768-0.332-0.958c-0.221-0.191-0.639-0.287-1.253-0.287c-0.415,0-0.739,0.082-0.971,0.245
			C31.385,78.496,31.197,78.782,31.053,79.191z M34.257,72.941h1.137c-0.066,0.752-0.331,1.343-0.793,1.772
			c-0.462,0.429-1.061,0.644-1.797,0.644s-1.335-0.214-1.797-0.644c-0.462-0.429-0.727-1.02-0.793-1.772h1.137
			c0.039,0.393,0.177,0.69,0.415,0.892c0.238,0.202,0.584,0.303,1.038,0.303s0.8-0.101,1.038-0.303
			C34.08,73.631,34.219,73.334,34.257,72.941z M34.174,81.084c-0.299,0.1-0.772,0.219-1.419,0.357s-1.071,0.274-1.27,0.407
			c-0.304,0.216-0.457,0.49-0.457,0.822c0,0.327,0.122,0.609,0.365,0.847s0.553,0.357,0.93,0.357c0.42,0,0.822-0.138,1.204-0.415
			c0.282-0.21,0.468-0.468,0.556-0.772c0.061-0.199,0.091-0.578,0.091-1.137V81.084z M31.734,72.493l1.071-2.341h2.615l-2.208,2.341
			H31.734z"/>
		<path d="M42.807,76.502v1.859h-1.594v3.553c0,0.719,0.015,1.139,0.046,1.258c0.03,0.119,0.1,0.217,0.207,0.294
			c0.108,0.078,0.24,0.116,0.395,0.116c0.216,0,0.528-0.075,0.938-0.224l0.199,1.81c-0.542,0.232-1.157,0.349-1.843,0.349
			c-0.42,0-0.8-0.07-1.137-0.213c-0.337-0.14-0.585-0.323-0.743-0.547c-0.157-0.224-0.267-0.527-0.328-0.909
			c-0.05-0.271-0.075-0.819-0.075-1.644v-3.843h-1.071v-1.859h1.071V74.75l2.341-1.361v3.113H42.807z"/>
		<path d="M54.901,75.564h-2.515v-1.552h2.515v-0.863h2.333v0.863h0.921v1.552h-0.921v9.754h-2.167v-1.295
			c-0.36,0.503-0.784,0.878-1.274,1.125c-0.489,0.247-0.983,0.37-1.481,0.37c-1.013,0-1.88-0.409-2.603-1.225
			c-0.722-0.816-1.083-1.955-1.083-3.416c0-1.494,0.352-2.63,1.054-3.408c0.703-0.777,1.591-1.166,2.665-1.166
			c0.985,0,1.837,0.41,2.557,1.229V75.564z M51.008,80.719c0,0.941,0.13,1.622,0.39,2.042c0.376,0.609,0.902,0.913,1.577,0.913
			c0.537,0,0.993-0.229,1.37-0.685c0.376-0.457,0.564-1.139,0.564-2.046c0-1.013-0.183-1.742-0.548-2.187
			c-0.365-0.446-0.833-0.668-1.403-0.668c-0.553,0-1.017,0.22-1.391,0.66C51.195,79.188,51.008,79.844,51.008,80.719z"/>
		<path d="M61.276,79.191L59.16,78.81c0.238-0.852,0.647-1.483,1.229-1.893s1.444-0.614,2.59-0.614c1.041,0,1.815,0.123,2.324,0.369
			c0.509,0.247,0.867,0.559,1.075,0.938c0.207,0.379,0.311,1.075,0.311,2.087l-0.025,2.723c0,0.775,0.037,1.346,0.112,1.714
			c0.074,0.368,0.214,0.762,0.419,1.183h-2.308c-0.061-0.155-0.136-0.385-0.224-0.689c-0.039-0.138-0.066-0.229-0.083-0.274
			c-0.398,0.387-0.825,0.678-1.278,0.872c-0.454,0.193-0.938,0.291-1.453,0.291c-0.908,0-1.623-0.246-2.146-0.739
			c-0.523-0.493-0.785-1.115-0.785-1.868c0-0.498,0.119-0.942,0.357-1.332c0.238-0.391,0.571-0.689,1-0.896
			c0.429-0.208,1.047-0.389,1.855-0.544c1.09-0.205,1.846-0.396,2.266-0.573v-0.232c0-0.448-0.111-0.768-0.332-0.958
			c-0.221-0.191-0.639-0.287-1.253-0.287c-0.415,0-0.739,0.082-0.971,0.245C61.608,78.496,61.42,78.782,61.276,79.191z
			 M60.247,75.39l1.743-2.449h2.158l1.718,2.449h-1.876l-0.963-1.237l-0.896,1.237H60.247z M64.173,72.493h-1.469l-2.291-2.341
			h2.615L64.173,72.493z M64.397,81.084c-0.299,0.1-0.772,0.219-1.419,0.357s-1.071,0.274-1.27,0.407
			c-0.304,0.216-0.457,0.49-0.457,0.822c0,0.327,0.122,0.609,0.365,0.847s0.553,0.357,0.93,0.357c0.42,0,0.822-0.138,1.204-0.415
			c0.282-0.21,0.468-0.468,0.556-0.772c0.061-0.199,0.091-0.578,0.091-1.137V81.084z"/>
		<path d="M74.79,85.318v-1.32c-0.321,0.47-0.743,0.841-1.266,1.112c-0.523,0.271-1.075,0.407-1.656,0.407
			c-0.592,0-1.124-0.131-1.594-0.391c-0.47-0.26-0.811-0.625-1.021-1.096s-0.315-1.121-0.315-1.951v-5.578h2.333v4.051
			c0,1.24,0.043,1.999,0.129,2.278c0.085,0.28,0.242,0.501,0.469,0.664c0.227,0.164,0.515,0.245,0.863,0.245
			c0.398,0,0.755-0.109,1.071-0.328c0.315-0.218,0.531-0.489,0.647-0.813c0.116-0.323,0.174-1.116,0.174-2.378v-3.719h2.333v8.816
			H74.79z"/>
		<path d="M88.138,76.502v1.859h-1.594v3.553c0,0.719,0.015,1.139,0.046,1.258c0.03,0.119,0.1,0.217,0.207,0.294
			c0.108,0.078,0.24,0.116,0.395,0.116c0.216,0,0.528-0.075,0.938-0.224l0.199,1.81c-0.542,0.232-1.157,0.349-1.843,0.349
			c-0.42,0-0.8-0.07-1.137-0.213c-0.337-0.14-0.585-0.323-0.743-0.547c-0.157-0.224-0.267-0.527-0.328-0.909
			c-0.05-0.271-0.075-0.819-0.075-1.644v-3.843h-1.071v-1.859h1.071V74.75l2.341-1.361v3.113H88.138z"/>
		<path d="M92.105,75.423h-1.469l-2.291-2.482h2.615L92.105,75.423z M89.756,85.318v-8.816h2.333v8.816H89.756z"/>
		<path d="M94.305,76.502h2.15v1.204c0.769-0.935,1.685-1.403,2.748-1.403c0.564,0,1.054,0.116,1.469,0.349s0.755,0.584,1.021,1.054
			c0.387-0.47,0.805-0.822,1.253-1.054s0.927-0.349,1.436-0.349c0.647,0,1.195,0.131,1.644,0.395
			c0.448,0.263,0.783,0.648,1.004,1.158c0.161,0.376,0.241,0.985,0.241,1.826v5.637h-2.333v-5.039c0-0.875-0.08-1.439-0.241-1.693
			c-0.216-0.332-0.548-0.498-0.996-0.498c-0.327,0-0.634,0.1-0.921,0.299s-0.495,0.491-0.623,0.875
			c-0.127,0.385-0.191,0.992-0.191,1.822v4.234h-2.333v-4.832c0-0.858-0.042-1.411-0.125-1.66s-0.211-0.435-0.386-0.556
			c-0.174-0.122-0.411-0.183-0.709-0.183c-0.36,0-0.684,0.097-0.971,0.291s-0.494,0.473-0.618,0.838
			c-0.125,0.365-0.187,0.971-0.187,1.818v4.284h-2.333V76.502z"/>
		<path d="M122.337,85.318h-2.333v-4.5c0-0.952-0.05-1.567-0.149-1.847c-0.1-0.28-0.262-0.497-0.485-0.652
			c-0.225-0.155-0.494-0.232-0.81-0.232c-0.404,0-0.767,0.111-1.087,0.332s-0.541,0.515-0.66,0.88
			c-0.119,0.365-0.179,1.041-0.179,2.025v3.993h-2.333v-8.816h2.167v1.295c0.769-0.996,1.738-1.494,2.905-1.494
			c0.515,0,0.985,0.093,1.411,0.278c0.426,0.185,0.749,0.422,0.967,0.709c0.219,0.288,0.371,0.614,0.457,0.979
			c0.085,0.365,0.128,0.888,0.128,1.569V85.318z"/>
		<path d="M127.027,73.148v4.474c0.752-0.88,1.652-1.32,2.698-1.32c0.537,0,1.021,0.1,1.453,0.299s0.757,0.454,0.975,0.764
			c0.219,0.31,0.368,0.653,0.448,1.029c0.081,0.376,0.121,0.96,0.121,1.751v5.172h-2.333v-4.657c0-0.924-0.044-1.511-0.133-1.76
			s-0.245-0.447-0.469-0.593c-0.225-0.147-0.505-0.22-0.843-0.22c-0.387,0-0.733,0.094-1.038,0.282s-0.527,0.472-0.668,0.851
			c-0.141,0.379-0.211,0.939-0.211,1.681v4.417h-2.333V73.148H127.027z"/>
		<path d="M136.83,79.191l-2.117-0.382c0.238-0.852,0.647-1.483,1.229-1.893s1.444-0.614,2.59-0.614
			c1.041,0,1.815,0.123,2.324,0.369c0.509,0.247,0.867,0.559,1.075,0.938c0.207,0.379,0.311,1.075,0.311,2.087l-0.025,2.723
			c0,0.775,0.037,1.346,0.112,1.714c0.074,0.368,0.214,0.762,0.419,1.183h-2.308c-0.061-0.155-0.136-0.385-0.224-0.689
			c-0.039-0.138-0.066-0.229-0.083-0.274c-0.398,0.387-0.825,0.678-1.278,0.872c-0.454,0.193-0.938,0.291-1.453,0.291
			c-0.908,0-1.623-0.246-2.146-0.739c-0.523-0.493-0.785-1.115-0.785-1.868c0-0.498,0.119-0.942,0.357-1.332
			c0.238-0.391,0.571-0.689,1-0.896c0.429-0.208,1.047-0.389,1.855-0.544c1.09-0.205,1.846-0.396,2.266-0.573v-0.232
			c0-0.448-0.111-0.768-0.332-0.958c-0.221-0.191-0.639-0.287-1.253-0.287c-0.415,0-0.739,0.082-0.971,0.245
			C137.162,78.496,136.974,78.782,136.83,79.191z M139.785,75.423h-1.469l-2.291-2.482h2.615L139.785,75.423z M139.951,81.084
			c-0.299,0.1-0.772,0.219-1.419,0.357s-1.071,0.274-1.27,0.407c-0.304,0.216-0.457,0.49-0.457,0.822
			c0,0.327,0.122,0.609,0.365,0.847s0.553,0.357,0.93,0.357c0.42,0,0.822-0.138,1.204-0.415c0.282-0.21,0.468-0.468,0.556-0.772
			c0.061-0.199,0.091-0.578,0.091-1.137V81.084z"/>
		<path d="M149.555,82.18h-2.117c-0.005-0.304-0.008-0.49-0.008-0.556c0-0.686,0.113-1.25,0.34-1.693s0.681-0.941,1.361-1.494
			s1.087-0.916,1.22-1.087c0.205-0.271,0.307-0.57,0.307-0.896c0-0.454-0.181-0.843-0.544-1.166
			c-0.362-0.324-0.851-0.486-1.465-0.486c-0.592,0-1.087,0.169-1.486,0.506s-0.672,0.852-0.822,1.544l-2.142-0.266
			c0.061-0.991,0.483-1.832,1.266-2.523c0.783-0.692,1.811-1.038,3.084-1.038c1.339,0,2.404,0.35,3.196,1.05
			c0.792,0.7,1.187,1.515,1.187,2.444c0,0.515-0.146,1.001-0.436,1.461c-0.291,0.459-0.912,1.084-1.864,1.876
			c-0.493,0.41-0.798,0.739-0.917,0.988C149.598,81.092,149.544,81.538,149.555,82.18z M147.438,85.318v-2.333h2.333v2.333H147.438z
			"/>
	</g>
	<g>
		<g>
			<path d="M278.253,145.205c1.402,3.823,2.804,7.646,4.205,11.468c0.249,0.677,1.229,0.751,1.447,0
				c1.146-3.95,2.293-7.9,3.439-11.851c0.27-0.931-1.178-1.326-1.447-0.398c-1.146,3.95-2.293,7.9-3.439,11.851
				c0.482,0,0.965,0,1.447,0c-1.402-3.823-2.804-7.646-4.205-11.468C279.369,143.906,277.92,144.294,278.253,145.205
				L278.253,145.205z"/>
		</g>
	</g>
	<circle cx="212.756" cy="98.472" r="1.576"/>
	<circle cx="201.756" cy="100.472" r="1.576"/>
	<circle cx="263.756" cy="115.472" r="1.576"/>
	<circle cx="279.756" cy="116.472" r="1.576"/>
</g>
</svg>
