<?xml version="1.0" encoding="utf-8"?>
<!-- Generator: Adobe Illustrator 16.0.0, SVG Export Plug-In . SVG Version: 6.00 Build 0)  -->
<!DOCTYPE svg PUBLIC "-//W3C//DTD SVG 1.1//EN" "http://www.w3.org/Graphics/SVG/1.1/DTD/svg11.dtd">
<svg version="1.1" xmlns="http://www.w3.org/2000/svg"  x="0px" y="0px"
	 width="523.543px" height="187.463px" viewBox="0 0 523.543 187.463" enable-background="new 0 0 523.543 187.463"
	 xml:space="preserve">
<g id="_x31_0_x3000_特集一覧_x3000_category">
</g>
<g id="_x31_1_x3000_特集個別_x3000_">
</g>
<g id="_x31_2_x3000_サポート_x3000_suport">
</g>
<g id="_x31_3_x3000_住居エリア情報_area">
</g>
<g id="_x31_4_x3000_物件タイプ情報_x3000_style">
</g>
<g id="_x31_5_x3000_内覧_x30FB_入居フロー_x3000_step">
	<g>
		<path d="M40.726,51.73l2.584,0.027c-0.136,0.738-0.205,1.367-0.205,1.887c0,1.112,0.033,2.028,0.097,2.748
			c0.091,1.012,0.228,1.78,0.409,2.304c0.184,0.524,0.461,0.786,0.835,0.786c0.282,0,0.542-0.285,0.779-0.854
			c0.237-0.569,0.419-1.178,0.547-1.825l1.695,2.078c-0.483,1.203-0.959,2.058-1.429,2.563s-1.014,0.759-1.634,0.759
			c-0.875,0-1.61-0.415-2.208-1.244c-0.597-0.829-0.991-2.146-1.184-3.951c-0.1-0.966-0.15-2.229-0.15-3.787
			C40.862,52.692,40.817,52.195,40.726,51.73z M47.945,52.715l2.133-0.697c0.647,0.757,1.226,1.887,1.735,3.391
			c0.512,1.504,0.794,2.789,0.849,3.855l-2.229,0.848c-0.117-1.34-0.381-2.709-0.785-4.108
			C49.242,54.604,48.675,53.508,47.945,52.715z"/>
		<path d="M54.972,56.352L54.029,54c0.364-0.063,0.966-0.209,1.806-0.438c0.035-0.009,0.186-0.057,0.45-0.144
			c0.265-0.086,0.472-0.152,0.622-0.198c0.15-0.045,0.383-0.114,0.697-0.205c0.314-0.091,0.583-0.164,0.807-0.219
			s0.499-0.118,0.826-0.191c0.328-0.073,0.623-0.13,0.883-0.171s0.535-0.077,0.826-0.109c0.293-0.032,0.562-0.048,0.808-0.048
			c1.358,0,2.476,0.372,3.356,1.114c0.88,0.743,1.318,1.771,1.318,3.083c0,1.559-0.699,2.839-2.098,3.842
			c-1.399,1.003-3.379,1.563-5.941,1.682l-0.984-2.242c1.996-0.036,3.598-0.335,4.8-0.896s1.804-1.369,1.804-2.427
			c0-0.629-0.203-1.142-0.607-1.538c-0.406-0.396-0.986-0.595-1.743-0.595C60.264,54.301,58.034,54.984,54.972,56.352z"/>
		<path d="M70.586,58.758h0.519c0.129,0,0.215-0.13,0.261-0.39s0.077-0.791,0.095-1.593c0.466,0.374,1.059,0.643,1.777,0.807
			c-0.09,1.158-0.277,1.967-0.561,2.427c-0.281,0.46-0.732,0.69-1.353,0.69h-1.095c-0.729,0-1.221-0.187-1.476-0.561
			c-0.255-0.374-0.384-1.071-0.384-2.092v-7.834h1.956v3.377c0.538-0.428,1.003-0.843,1.394-1.244l1.464,1.408
			c-1.085,0.812-2.038,1.458-2.857,1.941v2.352c0,0.301,0.016,0.495,0.048,0.581C70.405,58.715,70.477,58.758,70.586,58.758z
			 M80.512,60.344h-1.805c1.229,0.702,2.083,1.249,2.557,1.641l-1.614,1.189c-0.519-0.474-1.402-1.099-2.651-1.873l1.312-0.957
			h-3.021l1.298,0.957c-1.066,0.784-2.287,1.399-3.663,1.846c-0.282-0.41-0.697-0.871-1.244-1.381
			c1.103-0.346,2.101-0.82,2.993-1.422h-1.147v-7.492h2.133c0.009-0.082,0.026-0.212,0.054-0.39c0.028-0.178,0.051-0.308,0.069-0.39
			h-2.898v-1.695h7.889v1.695h-2.707c-0.146,0.401-0.247,0.661-0.301,0.779h2.748V60.344z M75.411,54.301v0.629h3.104v-0.629H75.411
			z M75.411,56.27v0.643h3.104V56.27H75.411z M75.411,58.266v0.629h3.104v-0.629H75.411z"/>
		<path d="M85.516,50.514l2.487,0.26c-0.1,0.447-0.195,0.889-0.287,1.326c-0.008,0.046-0.09,0.419-0.245,1.121
			c0.374-0.027,0.688-0.041,0.943-0.041c1.769,0,2.651,0.943,2.651,2.83c0,2.306-0.26,4.001-0.779,5.086
			c-0.428,0.893-1.234,1.34-2.42,1.34c-0.546,0-1.106-0.064-1.682-0.191l-0.354-2.215c0.712,0.191,1.276,0.287,1.695,0.287
			c0.456,0,0.767-0.178,0.929-0.533c0.348-0.665,0.52-1.85,0.52-3.555c0-0.474-0.095-0.781-0.286-0.923
			c-0.192-0.141-0.524-0.212-0.999-0.212c-0.1,0-0.313,0.009-0.642,0.027c-0.866,3.345-1.792,5.811-2.775,7.396l-2.202-0.875
			c1.076-1.458,1.988-3.545,2.734-6.262c-0.145,0.019-0.322,0.043-0.532,0.075c-0.21,0.032-0.323,0.048-0.343,0.048
			c-0.5,0.064-1.07,0.15-1.709,0.26l-0.176-2.256c0.264,0.019,0.801,0.019,1.612,0c0.22-0.009,0.751-0.041,1.599-0.096
			C85.456,52.291,85.544,51.325,85.516,50.514z M90.765,52.797l2.038-0.834c0.392,0.583,0.829,1.424,1.312,2.522
			c0.484,1.099,0.84,2.017,1.066,2.755l-2.146,0.998c-0.19-0.893-0.498-1.873-0.922-2.939S91.239,53.398,90.765,52.797z"/>
		<path d="M98.106,53.084l2.256,0.301c-0.227,0.894-0.391,1.859-0.492,2.898c1.158-0.738,2.434-1.107,3.828-1.107
			c1.24,0,2.221,0.326,2.94,0.978c0.72,0.652,1.08,1.429,1.08,2.331c0,0.675-0.134,1.278-0.403,1.812
			c-0.269,0.533-0.699,1.003-1.292,1.408s-1.424,0.69-2.495,0.854s-2.34,0.182-3.809,0.055l-0.655-2.188
			c1.978,0.292,3.521,0.251,4.628-0.123c1.107-0.374,1.66-0.993,1.66-1.859c0-0.392-0.172-0.718-0.518-0.978
			c-0.348-0.26-0.793-0.39-1.341-0.39c-0.72,0-1.399,0.13-2.037,0.39s-1.153,0.631-1.546,1.114
			c-0.281,0.355-0.473,0.647-0.573,0.875l-1.914-0.479C97.778,57.063,98.007,55.099,98.106,53.084z M99.516,52.482l0.532-2.023
			c0.629,0.201,1.548,0.41,2.756,0.629s2.176,0.369,2.906,0.451l-0.508,2.078C103.581,53.398,101.685,53.021,99.516,52.482z"/>
		<path d="M114.596,61.369l-1.804,1.559c-0.875-1.075-1.865-2.096-2.969-3.063l1.777-1.531c0.475,0.383,1.01,0.882,1.607,1.497
			C113.804,60.446,114.268,60.959,114.596,61.369z"/>
		<path d="M51.335,76.477h5.155c-0.009,0.438-0.019,0.734-0.027,0.889c-0.118,3.172-0.247,5.428-0.384,6.768
			c-0.136,1.34-0.332,2.183-0.587,2.529c-0.173,0.255-0.347,0.442-0.521,0.561c-0.172,0.118-0.387,0.205-0.642,0.26
			c-0.31,0.073-0.843,0.1-1.601,0.082c-0.054-0.748-0.24-1.408-0.56-1.982c0.31,0.037,0.692,0.055,1.147,0.055
			c0.174,0,0.338-0.096,0.494-0.287c0.291-0.41,0.51-2.242,0.655-5.496c-0.902,3.491-2.229,5.979-3.979,7.465
			c-0.456-0.474-1.003-0.866-1.641-1.176c1.048-0.747,1.928-1.807,2.638-3.179c0.712-1.372,1.254-2.91,1.628-4.614h-0.384
			c-0.309,1.194-0.735,2.343-1.277,3.445c-0.542,1.103-1.143,1.969-1.799,2.598c-0.455-0.456-0.975-0.834-1.558-1.135
			c1.249-0.993,2.237-2.629,2.966-4.908h-0.423c-0.419,0.976-0.884,1.782-1.396,2.42c-0.438-0.419-0.947-0.797-1.531-1.135
			c0.201-0.228,0.379-0.46,0.534-0.697H47.48v1.928l1.106-0.301l0.261,1.791c-0.118,0.037-0.333,0.103-0.643,0.198
			s-0.552,0.171-0.725,0.226v4.908h-1.859v-4.361c-1.048,0.31-1.71,0.501-1.982,0.574l-0.465-1.955
			c0.319-0.063,1.135-0.26,2.447-0.588v-2.42h-0.738c-0.146,0.656-0.3,1.199-0.464,1.627c-0.493-0.383-0.967-0.692-1.424-0.93
			c0.356-0.948,0.594-2.429,0.712-4.443l1.681,0.273c-0.045,0.52-0.1,1.035-0.163,1.545h0.396v-2.625h1.859v2.625h1.012v1.559
			c0.629-1.094,1.112-2.488,1.449-4.184l1.832,0.355C51.655,75.306,51.509,75.884,51.335,76.477z"/>
		<path d="M60.044,74.453l1.928,0.602c-0.373,1.003-0.828,1.992-1.367,2.967v9.652h-1.928v-6.699
			c-0.164,0.21-0.363,0.442-0.601,0.697c-0.091-0.264-0.251-0.626-0.479-1.087c-0.227-0.46-0.423-0.813-0.588-1.06
			c0.602-0.61,1.175-1.369,1.717-2.276C59.268,76.342,59.708,75.41,60.044,74.453z M70.49,81.057v1.982h-3.487v4.635h-2.05v-4.635
			h-3.664v-1.982h3.664v-2.051h-1.437c-0.227,0.574-0.486,1.126-0.779,1.654c-0.455-0.337-1.047-0.656-1.777-0.957
			c0.711-1.048,1.254-2.547,1.627-4.498l1.957,0.41c-0.102,0.501-0.215,0.971-0.343,1.408h0.752v-2.447h2.05v2.447h2.791v1.982
			h-2.791v2.051H70.49z"/>
		<path d="M75.494,80.277l0.246,1.818c-0.383,0.119-0.794,0.232-1.23,0.342v3.172c0,0.465-0.046,0.827-0.137,1.087
			s-0.251,0.467-0.479,0.622c-0.373,0.255-1.053,0.383-2.036,0.383c-0.046-0.574-0.214-1.203-0.506-1.887
			c0.483,0.027,0.843,0.032,1.08,0.014c0.081,0,0.138-0.014,0.171-0.041c0.032-0.027,0.047-0.086,0.047-0.178v-2.666l-1.134,0.314
			l-0.424-1.955c0.118-0.018,0.638-0.127,1.558-0.328v-2.16h-1.312v-1.859h1.312v-2.543h1.86v2.543h1.121v1.859H74.51v1.709
			L75.494,80.277z M84.285,83.49h-2.2c0.773,0.93,1.648,1.65,2.625,2.16c-0.557,0.474-1.018,0.993-1.383,1.559
			c-0.855-0.556-1.626-1.313-2.311-2.27v2.734h-1.996v-2.789c-0.811,1.076-1.754,1.9-2.829,2.475
			c-0.419-0.647-0.848-1.162-1.286-1.545c1.195-0.501,2.207-1.276,3.036-2.324h-2.106v-1.805h3.186v-1.313h1.614
			c-0.282-0.246-0.424-0.793-0.424-1.641v-1.791h1.805v1.777c0,0.173,0.015,0.283,0.048,0.328c0.032,0.046,0.098,0.068,0.197,0.068
			h0.41c0.11,0,0.186-0.062,0.227-0.185s0.066-0.385,0.074-0.786c0.365,0.283,0.885,0.497,1.559,0.643
			c-0.09,0.738-0.254,1.242-0.492,1.511c-0.236,0.269-0.614,0.403-1.134,0.403h-0.972c-0.363,0-0.669-0.036-0.916-0.109v1.094h3.269
			V83.49z M77.954,76.955h1.832c-0.026,0.593-0.084,1.078-0.17,1.456c-0.087,0.378-0.239,0.75-0.458,1.114
			c-0.219,0.365-0.538,0.666-0.957,0.902c-0.419,0.237-0.958,0.438-1.614,0.602c-0.072-0.219-0.204-0.472-0.396-0.759
			c-0.19-0.287-0.378-0.517-0.561-0.69c0.511-0.1,0.921-0.223,1.23-0.369c0.31-0.146,0.54-0.337,0.69-0.574
			c0.15-0.237,0.251-0.472,0.301-0.704C77.901,77.7,77.937,77.375,77.954,76.955z M77.627,76.668v1.367h-1.708v-3.076h8.366v2.994
			h-1.791v-1.285H77.627z"/>
		<path d="M87.621,75.164l2.692,0.027c-0.108,0.729-0.178,1.427-0.204,2.092c-0.108,2.315-0.164,4.312-0.164,5.988
			c0,1.167,0.569,1.75,1.708,1.75c1.859,0,3.4-0.938,4.621-2.816l1.52,1.873c-0.238,0.365-0.533,0.723-0.883,1.073
			c-0.351,0.351-0.779,0.697-1.285,1.039s-1.105,0.615-1.799,0.82c-0.691,0.205-1.422,0.308-2.187,0.308
			c-1.249,0-2.217-0.292-2.905-0.875s-1.033-1.463-1.033-2.639c0-0.638,0.021-1.812,0.063-3.521s0.062-2.709,0.062-3.001
			C87.826,76.5,87.758,75.793,87.621,75.164z"/>
		<path d="M107.813,84.27h-1.996c0.037-0.419,0.061-0.879,0.069-1.381c-0.829,0.483-1.244,0.989-1.244,1.518
			c0,0.301,0.13,0.513,0.39,0.636s0.709,0.185,1.347,0.185c1.321,0,2.665-0.146,4.032-0.438l-0.067,2.174
			c-1.203,0.155-2.538,0.232-4.006,0.232c-2.616,0-3.924-0.812-3.924-2.434c0-0.811,0.296-1.52,0.889-2.126
			c0.593-0.606,1.362-1.155,2.311-1.647c-0.191-0.191-0.446-0.287-0.766-0.287c-0.337,0-0.698,0.091-1.08,0.273
			c-0.384,0.183-0.702,0.401-0.956,0.656c-0.274,0.283-0.703,0.807-1.286,1.572L99.72,81.85c1.377-1.221,2.371-2.411,2.981-3.568
			c-0.866,0-1.636-0.032-2.312-0.096v-1.941c0.685,0.109,1.514,0.164,2.489,0.164h0.546c0.137-0.574,0.215-1.08,0.233-1.518
			l2.215,0.191c-0.046,0.283-0.15,0.702-0.315,1.258c1.45-0.082,2.699-0.214,3.746-0.396l-0.012,1.941
			c-1.423,0.183-2.918,0.301-4.486,0.355c-0.154,0.347-0.332,0.675-0.533,0.984c0.302-0.091,0.762-0.137,1.381-0.137
			c0.857,0,1.473,0.324,1.848,0.971c0.264-0.127,0.76-0.351,1.489-0.67c0.273-0.118,0.861-0.387,1.764-0.807l0.833,1.928
			c-0.346,0.101-0.975,0.324-1.886,0.67c-0.711,0.255-1.358,0.515-1.941,0.779c0.009,0.292,0.021,0.723,0.034,1.292
			C107.808,83.821,107.813,84.16,107.813,84.27z"/>
		<path d="M42.025,105.338l-0.178-1.654c-0.183,1.723-0.497,3.172-0.943,4.348c0.647,0.547,1.13,1.03,1.448,1.449l-1.217,1.627
			c-0.209-0.31-0.588-0.729-1.133-1.258c-0.611,0.966-1.424,1.768-2.435,2.406c-0.347-0.647-0.752-1.185-1.217-1.613
			c0.875-0.456,1.591-1.157,2.146-2.105c-0.056-0.045-0.142-0.116-0.261-0.212c-0.117-0.096-0.204-0.166-0.26-0.212l-0.122,0.424
			l-1.627-0.875c0.218-0.756,0.552-2.146,0.998-4.17h-0.861v-1.873h1.257c0.256-1.385,0.42-2.301,0.492-2.748l1.901,0.219
			c-0.146,0.793-0.319,1.636-0.521,2.529h0.958l0.342-0.041l1.217,0.191c-0.019,0.392-0.063,0.93-0.136,1.613l1.092-0.055
			c0.539-1.559,0.912-3.044,1.122-4.457l2.27,0.41c-0.493,1.568-0.958,2.885-1.396,3.951l1.888-0.109
			c-0.173-0.31-0.419-0.715-0.738-1.217l1.599-0.82c1.076,1.541,1.77,2.821,2.08,3.842l-1.766,0.916
			c-0.045-0.173-0.154-0.487-0.328-0.943C45.366,105.092,43.475,105.238,42.025,105.338z M39.988,103.492H39.1
			c-0.063,0.273-0.278,1.185-0.643,2.734c0.52,0.355,0.798,0.547,0.835,0.574C39.61,105.88,39.843,104.777,39.988,103.492z
			 M42.694,112.188v-5.975h6.331v5.92h-2.022v-0.451h-2.394v0.506H42.694z M47.003,108.045h-2.394v1.805h2.394V108.045z"/>
		<path d="M59.471,101.428l-0.069,0.301c1.086,0.273,1.951,0.839,2.6,1.695c0.646,0.857,0.97,1.892,0.97,3.104
			c0,1.449-0.458,2.614-1.374,3.493s-2.126,1.438-3.63,1.675l-1.286-1.941c0.748-0.063,1.397-0.203,1.949-0.417
			c0.551-0.214,0.979-0.48,1.285-0.8c0.305-0.319,0.526-0.654,0.663-1.005c0.137-0.351,0.204-0.727,0.204-1.128
			c0-0.684-0.165-1.271-0.498-1.764c-0.334-0.492-0.8-0.838-1.401-1.039c-0.521,1.741-1.112,3.14-1.778,4.197
			c0.229,0.265,0.465,0.515,0.712,0.752l-1.695,1.34l-0.368-0.41c-0.484,0.501-0.93,0.85-1.334,1.046
			c-0.406,0.196-0.868,0.294-1.389,0.294c-0.637,0-1.191-0.26-1.66-0.779c-0.47-0.52-0.703-1.23-0.703-2.133
			c0-0.802,0.177-1.6,0.531-2.393c0.356-0.793,0.844-1.477,1.464-2.051c-0.027-0.1-0.083-0.264-0.164-0.492
			c-0.081-0.228-0.142-0.405-0.178-0.533c-0.137-0.438-0.343-0.952-0.615-1.545l2.2-0.684c0.064,0.383,0.164,0.843,0.302,1.381
			c0.019,0.055,0.053,0.167,0.103,0.335c0.05,0.169,0.088,0.299,0.115,0.39c0.912-0.428,1.883-0.679,2.913-0.752
			c0.036-0.219,0.063-0.378,0.081-0.479c0.092-0.528,0.129-1.016,0.11-1.463l2.323,0.219L59.471,101.428z M53.292,108.633
			c0.363,0,0.773-0.264,1.229-0.793c-0.373-0.62-0.746-1.403-1.12-2.352c-0.501,0.693-0.752,1.44-0.752,2.242
			C52.648,108.332,52.862,108.633,53.292,108.633z M56.833,103.479c-0.639,0.101-1.24,0.314-1.807,0.643
			c0.266,0.748,0.525,1.358,0.779,1.832C56.198,105.215,56.54,104.39,56.833,103.479z"/>
		<path d="M72.485,100.881v2.092c-0.893,0.201-1.754,0.347-2.584,0.438c-0.245,1.048-0.382,1.632-0.409,1.75
			c-0.265,1.021-0.606,2.146-1.025,3.377s-0.815,2.256-1.189,3.076l-2.338-0.779c0.392-0.656,0.827-1.608,1.306-2.857
			c0.479-1.249,0.854-2.383,1.128-3.404c0.009-0.036,0.046-0.175,0.108-0.417c0.064-0.241,0.11-0.426,0.137-0.554
			c-0.154,0.009-0.387,0.014-0.696,0.014c-0.347,0-0.921-0.022-1.724-0.068l-0.054-2.078c0.665,0.073,1.263,0.109,1.791,0.109
			c0.245,0,0.615-0.009,1.108-0.027c0.035-0.2,0.063-0.387,0.082-0.561c0.072-0.638,0.086-1.157,0.041-1.559l2.569,0.205
			c-0.128,0.511-0.237,0.984-0.329,1.422l-0.055,0.246C70.991,101.205,71.702,101.063,72.485,100.881z M70.353,107.184l2.01,0.178
			c-0.127,0.492-0.191,0.861-0.191,1.107c0,0.31,0.123,0.545,0.363,0.704c0.241,0.16,0.649,0.239,1.224,0.239
			c0.774,0,1.763-0.1,2.967-0.301l-0.082,2.146c-1.058,0.127-2.024,0.191-2.899,0.191c-1.184,0-2.086-0.203-2.706-0.608
			s-0.931-0.968-0.931-1.688C70.106,108.615,70.188,107.958,70.353,107.184z M71.282,105.775v-1.955
			c0.967-0.1,1.879-0.15,2.734-0.15c0.813,0,1.633,0.041,2.461,0.123l-0.041,2.01c-0.983-0.118-1.791-0.178-2.42-0.178
			C73.006,105.625,72.095,105.675,71.282,105.775z"/>
		<path d="M80.607,102.084l2.255,0.301c-0.227,0.894-0.391,1.859-0.492,2.898c1.158-0.738,2.434-1.107,3.828-1.107
			c1.24,0,2.221,0.326,2.94,0.978c0.72,0.652,1.08,1.429,1.08,2.331c0,0.675-0.134,1.278-0.403,1.812
			c-0.269,0.533-0.699,1.003-1.293,1.408c-0.592,0.405-1.423,0.69-2.494,0.854s-2.34,0.182-3.809,0.055l-0.655-2.188
			c1.978,0.292,3.521,0.251,4.628-0.123c1.107-0.374,1.66-0.993,1.66-1.859c0-0.392-0.172-0.718-0.518-0.978
			c-0.348-0.26-0.793-0.39-1.341-0.39c-0.72,0-1.399,0.13-2.037,0.39s-1.153,0.631-1.546,1.114
			c-0.281,0.355-0.473,0.647-0.573,0.875l-1.914-0.479C80.278,106.063,80.507,104.099,80.607,102.084z M82.016,101.482l0.532-2.023
			c0.629,0.201,1.548,0.41,2.756,0.629s2.176,0.369,2.906,0.451l-0.508,2.078C86.081,102.398,84.185,102.021,82.016,101.482z"/>
		<path d="M104.232,109.07l-1.286,1.996c-0.855-0.856-1.776-1.549-2.762-2.078v0.191c0,1.713-1.061,2.57-3.184,2.57
			c-1.113,0-2.02-0.214-2.723-0.643c-0.701-0.428-1.052-1.121-1.052-2.078c0-0.82,0.343-1.488,1.032-2.003
			c0.688-0.515,1.66-0.772,2.918-0.772c0.156,0,0.37,0.009,0.644,0.027c-0.063-1.249-0.096-2.21-0.096-2.885
			c0-0.602-0.009-1.294-0.027-2.078c-0.027-0.838-0.083-1.426-0.164-1.764h2.515c-0.054,0.383-0.1,0.971-0.137,1.764
			c-0.008,0.164-0.014,0.424-0.014,0.779c1.605-0.036,2.854-0.1,3.747-0.191l0.081,1.996c-0.92,0.082-2.188,0.142-3.8,0.178
			c0.019,0.602,0.063,1.477,0.136,2.625C101.712,107.207,103.103,107.995,104.232,109.07z M97.888,108.455v-0.26
			c-0.336-0.055-0.678-0.082-1.025-0.082c-0.445,0-0.799,0.071-1.059,0.212c-0.26,0.142-0.39,0.34-0.39,0.595
			c0,0.52,0.474,0.779,1.421,0.779c0.402,0,0.678-0.091,0.828-0.273C97.813,109.244,97.888,108.92,97.888,108.455z"/>
		<path d="M107.227,100.73l2.585,0.027c-0.139,0.738-0.207,1.367-0.207,1.887c0,1.112,0.033,2.028,0.097,2.748
			c0.091,1.012,0.228,1.78,0.409,2.304c0.184,0.524,0.461,0.786,0.835,0.786c0.282,0,0.542-0.285,0.779-0.854
			c0.237-0.569,0.419-1.178,0.547-1.825l1.695,2.078c-0.483,1.203-0.959,2.058-1.429,2.563s-1.014,0.759-1.634,0.759
			c-0.875,0-1.61-0.415-2.208-1.244c-0.597-0.829-0.991-2.146-1.184-3.951c-0.1-0.966-0.15-2.229-0.15-3.787
			C107.362,101.692,107.317,101.195,107.227,100.73z M114.445,101.715l2.133-0.697c0.647,0.757,1.226,1.887,1.735,3.391
			c0.512,1.504,0.793,2.789,0.849,3.855l-2.229,0.848c-0.117-1.34-0.381-2.709-0.785-4.108
			C115.742,103.604,115.175,102.508,114.445,101.715z"/>
		<path d="M51.021,127.855l-0.204-2.283c0.675-0.018,1.147-0.041,1.421-0.068c2.143-0.182,4.121-0.351,5.934-0.506
			c1.186-0.091,2.53-0.168,4.034-0.232l0.014,2.16c-1.34,0.027-2.224,0.082-2.653,0.164c-0.756,0.173-1.409,0.613-1.961,1.319
			c-0.553,0.707-0.827,1.465-0.827,2.276c0,0.656,0.198,1.206,0.595,1.647c0.396,0.442,0.902,0.764,1.518,0.964
			c0.615,0.201,1.347,0.324,2.195,0.369l-0.781,2.338c-1.057-0.082-2.01-0.314-2.863-0.697s-1.545-0.937-2.078-1.661
			s-0.801-1.561-0.801-2.509c0-0.856,0.179-1.643,0.534-2.358c0.354-0.715,0.761-1.278,1.217-1.688
			C54.016,127.327,52.253,127.582,51.021,127.855z M59.074,128.58l1.218-0.492c0.445,0.656,0.811,1.281,1.092,1.873l-1.243,0.547
			C59.739,129.669,59.384,129.027,59.074,128.58z M60.673,127.951l1.204-0.547c0.465,0.629,0.853,1.235,1.161,1.818l-1.243,0.588
			C61.403,129.054,61.029,128.435,60.673,127.951z"/>
		<path d="M76.943,125.518l-0.026,1.996c-1.04-0.055-2.33-0.086-3.87-0.096c0.009,0.438,0.014,1.085,0.014,1.941
			c0.364,0.556,0.547,1.222,0.547,1.996c0,0.474-0.082,0.95-0.246,1.429s-0.415,0.957-0.752,1.436s-0.817,0.918-1.442,1.319
			c-0.623,0.401-1.352,0.715-2.182,0.943l-1.775-1.791c1.448-0.282,2.506-0.688,3.17-1.217c-0.054,0.009-0.137,0.014-0.245,0.014
			c-0.593,0-1.15-0.239-1.675-0.718s-0.787-1.128-0.787-1.948s0.283-1.474,0.848-1.962c0.566-0.487,1.268-0.731,2.106-0.731
			c0.155,0,0.269,0.005,0.341,0.014l-0.014-0.711c-1.448,0.019-3.39,0.087-5.823,0.205l-0.055-2.023
			c0.593,0.009,2.542-0.014,5.852-0.068l-0.014-0.15c-0.056-0.702-0.104-1.162-0.15-1.381h2.42
			c-0.036,0.219-0.073,0.675-0.109,1.367v0.15c0.319,0,0.976-0.004,1.97-0.014C76.036,125.509,76.67,125.509,76.943,125.518z
			 M69.684,130.781c0,0.246,0.089,0.451,0.267,0.615s0.381,0.246,0.607,0.246c0.266,0,0.477-0.109,0.637-0.328
			c0.158-0.219,0.203-0.574,0.13-1.066c-0.165-0.237-0.419-0.355-0.767-0.355c-0.236,0-0.441,0.075-0.614,0.226
			S69.684,130.49,69.684,130.781z"/>
		<path d="M82.016,124.014l2.487,0.26c-0.1,0.447-0.195,0.889-0.287,1.326c-0.008,0.046-0.09,0.419-0.245,1.121
			c0.374-0.027,0.688-0.041,0.943-0.041c1.769,0,2.651,0.943,2.651,2.83c0,2.306-0.259,4.001-0.779,5.086
			c-0.428,0.893-1.234,1.34-2.42,1.34c-0.546,0-1.106-0.064-1.682-0.191l-0.354-2.215c0.712,0.191,1.276,0.287,1.695,0.287
			c0.456,0,0.767-0.178,0.929-0.533c0.348-0.665,0.521-1.85,0.521-3.555c0-0.474-0.096-0.781-0.287-0.923
			c-0.192-0.141-0.524-0.212-0.999-0.212c-0.1,0-0.313,0.009-0.642,0.027c-0.866,3.345-1.792,5.811-2.775,7.396l-2.202-0.875
			c1.076-1.458,1.988-3.545,2.734-6.262c-0.145,0.019-0.322,0.043-0.532,0.075c-0.21,0.032-0.323,0.048-0.343,0.048
			c-0.5,0.064-1.07,0.15-1.709,0.26l-0.176-2.256c0.264,0.019,0.801,0.019,1.612,0c0.22-0.009,0.752-0.041,1.599-0.096
			C81.956,125.791,82.044,124.825,82.016,124.014z M87.265,126.297l2.038-0.834c0.392,0.583,0.829,1.424,1.312,2.522
			c0.484,1.099,0.84,2.017,1.066,2.755l-2.146,0.998c-0.19-0.893-0.498-1.873-0.922-2.939S87.739,126.898,87.265,126.297z"/>
		<path d="M99.816,131.643h-2.188c-0.035-0.392,0.025-0.752,0.186-1.08c0.158-0.328,0.369-0.604,0.629-0.827
			c0.26-0.223,0.521-0.431,0.786-0.622s0.491-0.394,0.683-0.608c0.192-0.214,0.287-0.431,0.287-0.649
			c0-0.374-0.141-0.654-0.423-0.841c-0.282-0.187-0.665-0.28-1.148-0.28c-0.747,0-1.417,0.337-2.01,1.012l-1.366-1.258
			c0.437-0.547,0.975-0.978,1.611-1.292c0.639-0.314,1.322-0.472,2.052-0.472c1.085,0,1.966,0.246,2.646,0.738
			c0.678,0.492,1.019,1.217,1.019,2.174c0,0.31-0.07,0.597-0.212,0.861c-0.142,0.265-0.319,0.483-0.533,0.656
			c-0.215,0.173-0.443,0.355-0.684,0.547c-0.241,0.191-0.465,0.369-0.67,0.533s-0.371,0.367-0.499,0.608
			C99.853,131.084,99.798,131.351,99.816,131.643z M97.068,133.98c0-0.446,0.155-0.813,0.465-1.101s0.706-0.431,1.189-0.431
			s0.88,0.144,1.188,0.431c0.311,0.287,0.466,0.654,0.466,1.101c0,0.456-0.155,0.827-0.466,1.114
			c-0.309,0.287-0.705,0.431-1.188,0.431s-0.88-0.144-1.189-0.431S97.068,134.437,97.068,133.98z"/>
	</g>
	<g>
		<path d="M363.917,78.382v0.533c0.928-0.2,1.744-0.301,2.445-0.301c1.141,0,2.091,0.283,2.852,0.848
			c0.76,0.565,1.142,1.345,1.142,2.338c0,0.875-0.239,1.616-0.718,2.222c-0.479,0.606-1.278,1.05-2.4,1.333
			c-0.482,0.1-1.106,0.178-1.872,0.232l-0.766-2.16c0.747,0,1.326-0.036,1.735-0.109c0.557-0.091,1.004-0.267,1.341-0.526
			s0.505-0.595,0.505-1.005c0-0.401-0.164-0.722-0.492-0.964c-0.327-0.241-0.778-0.362-1.354-0.362
			c-0.746,0-1.539,0.105-2.378,0.314c0.009,0.273,0.019,0.597,0.027,0.971c0.009,0.374,0.019,0.679,0.027,0.916
			c0.009,0.237,0.014,0.419,0.014,0.547c0,0.912-0.146,1.545-0.438,1.9c-0.291,0.355-0.71,0.533-1.257,0.533
			c-0.812,0-1.593-0.278-2.345-0.834s-1.128-1.212-1.128-1.969c0-0.602,0.296-1.205,0.889-1.812c0.593-0.606,1.34-1.105,2.242-1.497
			c-0.009-0.246-0.015-0.606-0.015-1.08v-0.793c-0.145,0.009-0.346,0.014-0.601,0.014c-0.911,0-1.581-0.022-2.011-0.068
			l-0.054-2.023c0.556,0.064,1.226,0.096,2.009,0.096c0.293,0,0.512-0.004,0.656-0.014v-0.875c0-0.51-0.031-0.966-0.095-1.367h2.297
			c-0.046,0.292-0.091,0.743-0.138,1.354l-0.04,0.711c0.847-0.109,1.646-0.269,2.392-0.479l0.042,2.092
			c-0.638,0.137-1.472,0.265-2.503,0.383C363.921,77.68,363.917,77.981,363.917,78.382z M361.66,83.345
			c0.082,0,0.148-0.009,0.198-0.027c0.05-0.018,0.096-0.07,0.137-0.157c0.041-0.086,0.061-0.207,0.061-0.362
			c0-0.1-0.008-0.533-0.026-1.299c-0.737,0.429-1.107,0.843-1.107,1.244c0,0.155,0.087,0.294,0.259,0.417
			C361.354,83.283,361.515,83.345,361.66,83.345z M367.02,76.55l0.902-1.641c1.559,0.729,2.739,1.367,3.541,1.914l-0.985,1.709
			c-0.301-0.237-0.832-0.569-1.592-0.998C368.126,77.106,367.503,76.778,367.02,76.55z"/>
		<path d="M374.989,79.612h4.293c-0.008,0.374-0.027,0.647-0.054,0.82c-0.101,1.504-0.226,2.634-0.376,3.391
			c-0.15,0.757-0.354,1.276-0.609,1.559c-0.355,0.401-0.869,0.638-1.545,0.711c-0.4,0.055-1.129,0.073-2.187,0.055
			c-0.019-0.328-0.101-0.693-0.247-1.094c-0.145-0.401-0.318-0.747-0.519-1.039c0.638,0.055,1.331,0.082,2.077,0.082
			c0.266,0,0.479-0.059,0.644-0.178c0.255-0.209,0.446-1.021,0.575-2.434h-2.366l-0.124,0.629l-2.049-0.314
			c0.381-1.649,0.668-3.404,0.859-5.264h3.76v-1.23h-4.032v-1.9h6.042v5.018h-3.951C375.072,79.061,375.009,79.458,374.989,79.612z
			 M381.908,73.146h2.063v13.043h-2.063V73.146z"/>
		<path d="M390.768,81.731v1.791c0.665,0.246,1.704,0.369,3.116,0.369c2.936,0,4.869-0.022,5.797-0.068
			c-0.354,0.529-0.615,1.203-0.779,2.023h-5.044c-1.422,0-2.583-0.144-3.479-0.431c-0.897-0.287-1.643-0.827-2.236-1.62
			c-0.191,0.921-0.492,1.709-0.902,2.365c-0.127-0.21-0.328-0.447-0.601-0.711c-0.273-0.265-0.511-0.442-0.711-0.533
			c0.665-1.221,0.942-3.071,0.833-5.551l1.682,0.096c0.01,0.337,0.015,0.839,0.015,1.504c0.108,0.337,0.272,0.688,0.492,1.053
			v-3.391h-2.611v-1.777h2.297v-0.834h-1.832v-1.75h1.832v-1.354h1.859v1.354h1.791v1.75h-1.791v0.834h1.955v1.777h-1.682v1.354
			h1.504v1.34l0.492-0.273v-6.043h2.323c-0.026-0.456-0.049-1.162-0.067-2.119h1.873v0.752l1.34-0.684
			c0.556,0.647,0.925,1.171,1.106,1.572l-0.889,0.479h0.972v1.682h-2.393c0.046,0.511,0.118,1.14,0.218,1.887
			c0.211-0.483,0.393-0.984,0.548-1.504l1.558,0.41c-0.418,1.386-0.951,2.611-1.599,3.678c0.128,0.429,0.265,0.643,0.409,0.643
			c0.164,0,0.261-0.524,0.287-1.572c0.385,0.438,0.835,0.771,1.354,0.998c-0.117,0.939-0.314,1.575-0.588,1.907
			c-0.272,0.333-0.691,0.499-1.256,0.499c-0.512,0-0.963-0.319-1.355-0.957c-0.382,0.41-0.792,0.779-1.229,1.107
			c-0.293-0.474-0.693-0.93-1.205-1.367c0.566-0.383,1.072-0.838,1.518-1.367c-1.248,0.912-2.27,1.632-3.062,2.16l-0.807-1.477
			H390.768z M394.555,76.687v3.295l0.615-0.383l0.56,1.408l0.137-0.164c-0.291-1.057-0.514-2.442-0.669-4.156H394.555z
			 M396.919,75.005h0.849c-0.228-0.428-0.521-0.879-0.875-1.354C396.893,73.952,396.901,74.403,396.919,75.005z"/>
		<path d="M402.621,73.665l2.693,0.027c-0.109,0.729-0.178,1.427-0.205,2.092c-0.109,2.315-0.164,4.312-0.164,5.988
			c0,1.167,0.569,1.75,1.709,1.75c1.859,0,3.398-0.938,4.62-2.816l1.519,1.873c-0.237,0.365-0.532,0.723-0.882,1.073
			c-0.351,0.351-0.779,0.697-1.285,1.039c-0.507,0.342-1.105,0.615-1.799,0.82c-0.691,0.205-1.421,0.308-2.187,0.308
			c-1.249,0-2.217-0.292-2.905-0.875s-1.032-1.463-1.032-2.639c0-0.638,0.021-1.812,0.062-3.521s0.062-2.709,0.062-3.001
			C402.826,75,402.758,74.294,402.621,73.665z"/>
		<path d="M421.598,85.56l-1.271-1.982c0.355-0.045,0.807-0.132,1.354-0.26c0.902-0.228,1.618-0.643,2.146-1.244
			c0.527-0.602,0.793-1.349,0.793-2.242c0-0.902-0.212-1.654-0.636-2.256s-1.032-0.998-1.825-1.189
			c-0.21,1.331-0.479,2.539-0.807,3.623c-0.429,1.449-0.958,2.584-1.586,3.404c-0.629,0.82-1.341,1.23-2.133,1.23
			c-0.848,0-1.563-0.41-2.146-1.23c-0.584-0.82-0.876-1.823-0.876-3.008c0-1.668,0.637-3.099,1.907-4.293
			c1.272-1.194,2.824-1.791,4.656-1.791c1.731,0,3.124,0.531,4.176,1.593c1.053,1.062,1.579,2.395,1.579,3.999
			c0,1.495-0.448,2.737-1.346,3.726C424.686,84.628,423.356,85.268,421.598,85.56z M419.164,79.571
			c0.292-0.875,0.528-1.918,0.711-3.131c-0.957,0.265-1.709,0.771-2.256,1.518c-0.547,0.748-0.82,1.49-0.82,2.229
			c0,0.574,0.087,1.023,0.26,1.347c0.173,0.324,0.388,0.485,0.643,0.485c0.272,0,0.521-0.196,0.745-0.588
			C418.67,81.039,418.909,80.419,419.164,79.571z"/>
		<path d="M441.066,73.474v10.582c0,0.483-0.055,0.861-0.164,1.135s-0.296,0.487-0.561,0.643c-0.419,0.255-1.203,0.374-2.352,0.355
			c-0.063-0.647-0.251-1.285-0.562-1.914c0.229,0.019,0.693,0.027,1.395,0.027c0.102,0,0.172-0.021,0.212-0.062
			c0.042-0.041,0.063-0.111,0.063-0.212v-2.447h-1.669c-0.199,2.015-0.605,3.555-1.217,4.621c-0.163-0.173-0.409-0.378-0.737-0.615
			c-0.329-0.237-0.602-0.41-0.82-0.52l-1.148,0.684c-0.301-0.556-0.82-1.267-1.559-2.133l1.313-0.725h-3.391l1.887,0.547
			c-0.255,0.501-0.576,1.005-0.964,1.511s-0.768,0.932-1.142,1.278c-0.501-0.465-1.044-0.861-1.627-1.189
			c0.774-0.565,1.376-1.28,1.804-2.146h-1.612V81.13h1.203v-4.949h-1.053v-1.764h1.053V73.05h1.818v1.367h1.299V73.05h1.858v1.367
			h0.916v1.764h-0.916v4.949h0.766v1.764h-1.558c0.583,0.638,1.017,1.153,1.299,1.545c0.501-1.239,0.752-3.167,0.752-5.783v-5.182
			H441.066z M432.535,76.181h-1.299v0.588h1.299V76.181z M431.236,78.3v0.629h1.299V78.3H431.236z M431.236,80.446v0.684h1.299
			v-0.684H431.236z M437.553,79.776h1.545v-1.381h-1.531v0.26C437.566,79.139,437.562,79.512,437.553,79.776z M439.098,75.319
			h-1.531v1.299h1.531V75.319z"/>
		<path d="M443.827,73.679h10.118v12.346h-2.202v-0.93h-5.81v0.93h-2.106V73.679z M451.743,75.729h-5.81v2.57h5.81V75.729z
			 M445.934,83.044h5.81V80.31h-5.81V83.044z"/>
		<path d="M460.016,73.515l2.488,0.26c-0.102,0.447-0.196,0.889-0.287,1.326c-0.009,0.046-0.091,0.419-0.246,1.121
			c0.374-0.027,0.688-0.041,0.943-0.041c1.769,0,2.652,0.943,2.652,2.83c0,2.306-0.26,4.001-0.779,5.086
			c-0.429,0.893-1.235,1.34-2.42,1.34c-0.547,0-1.107-0.064-1.682-0.191l-0.355-2.215c0.711,0.191,1.276,0.287,1.695,0.287
			c0.456,0,0.766-0.178,0.93-0.533c0.347-0.665,0.52-1.85,0.52-3.555c0-0.474-0.096-0.781-0.287-0.923
			c-0.192-0.141-0.524-0.212-0.998-0.212c-0.101,0-0.314,0.009-0.643,0.027c-0.866,3.345-1.791,5.811-2.775,7.396l-2.201-0.875
			c1.075-1.458,1.987-3.545,2.734-6.262c-0.146,0.019-0.323,0.043-0.533,0.075c-0.21,0.032-0.323,0.048-0.343,0.048
			c-0.5,0.064-1.07,0.15-1.708,0.26l-0.178-2.256c0.265,0.019,0.802,0.019,1.613,0c0.219-0.009,0.752-0.041,1.6-0.096
			C459.956,75.292,460.043,74.326,460.016,73.515z M465.266,75.798l2.037-0.834c0.392,0.583,0.829,1.424,1.313,2.522
			c0.483,1.099,0.839,2.017,1.066,2.755l-2.146,0.998c-0.191-0.893-0.5-1.873-0.923-2.939
			C466.188,77.233,465.739,76.399,465.266,75.798z"/>
		<path d="M472.607,76.085l2.255,0.301c-0.227,0.894-0.391,1.859-0.491,2.898c1.157-0.738,2.434-1.107,3.828-1.107
			c1.238,0,2.22,0.326,2.939,0.978c0.72,0.652,1.08,1.429,1.08,2.331c0,0.675-0.135,1.278-0.403,1.812s-0.699,1.003-1.293,1.408
			c-0.592,0.405-1.423,0.69-2.494,0.854s-2.34,0.182-3.808,0.055l-0.656-2.188c1.978,0.292,3.521,0.251,4.628-0.123
			c1.107-0.374,1.661-0.993,1.661-1.859c0-0.392-0.173-0.718-0.52-0.978c-0.348-0.26-0.793-0.39-1.34-0.39
			c-0.72,0-1.399,0.13-2.037,0.39c-0.639,0.26-1.153,0.631-1.546,1.114c-0.281,0.355-0.474,0.647-0.573,0.875l-1.914-0.479
			C472.278,80.063,472.507,78.1,472.607,76.085z M474.016,75.483l0.533-2.023c0.628,0.201,1.547,0.41,2.755,0.629
			s2.176,0.369,2.905,0.451l-0.506,2.078C478.081,76.399,476.185,76.021,474.016,75.483z"/>
		<path d="M379.475,135.638l2.488,0.26c-0.101,0.447-0.196,0.889-0.287,1.326c-0.009,0.046-0.091,0.419-0.247,1.121
			c0.365-0.027,0.68-0.041,0.944-0.041c1.769,0,2.652,0.943,2.652,2.83c0,2.306-0.261,4.001-0.779,5.086
			c-0.429,0.893-1.235,1.34-2.42,1.34c-0.548,0-1.107-0.064-1.682-0.191l-0.355-2.215c0.738,0.201,1.298,0.301,1.682,0.301
			c0.465,0,0.78-0.178,0.943-0.533c0.347-0.665,0.519-1.85,0.519-3.555c0-0.474-0.095-0.781-0.287-0.923
			c-0.191-0.141-0.523-0.212-0.997-0.212c-0.101,0-0.313,0.009-0.643,0.027c-0.866,3.327-1.791,5.788-2.776,7.383l-2.2-0.875
			c1.075-1.458,1.987-3.545,2.734-6.262c-0.146,0.019-0.323,0.043-0.534,0.075c-0.209,0.032-0.322,0.048-0.342,0.048
			c-0.5,0.064-1.07,0.15-1.708,0.26l-0.177-2.256c0.264,0.019,0.801,0.019,1.611,0c0.221-0.009,0.752-0.041,1.601-0.096
			C379.415,137.415,379.503,136.449,379.475,135.638z M387.404,137.169l-0.507,0.219c0.393,0.629,0.814,1.449,1.266,2.461
			s0.777,1.851,0.978,2.516l-2.146,0.998c-0.183-0.884-0.487-1.848-0.916-2.892c-0.429-1.043-0.88-1.866-1.354-2.468l1.217-0.506
			c-0.411-0.82-0.726-1.39-0.943-1.709l1.312-0.533C386.647,135.747,387.013,136.385,387.404,137.169z M389.141,136.485
			l-1.327,0.561c-0.363-0.766-0.732-1.408-1.106-1.928l1.326-0.533C388.442,135.178,388.813,135.811,389.141,136.485z"/>
		<path d="M391.725,144.771l-1.996-2.051c0.356-0.282,0.771-0.665,1.243-1.148c0.184-0.182,0.402-0.421,0.656-0.718
			c0.256-0.296,0.607-0.715,1.053-1.258c0.447-0.542,0.758-0.914,0.93-1.114c0.457-0.538,0.91-0.82,1.361-0.848
			s0.986,0.214,1.606,0.725c0.774,0.647,1.722,1.586,2.844,2.816c1.659,1.787,2.815,3.054,3.472,3.801l-1.832,1.982
			c-1.184-1.531-2.15-2.748-2.898-3.65c-1.074-1.303-1.904-2.215-2.487-2.734c-0.219-0.191-0.408-0.285-0.567-0.28
			c-0.159,0.005-0.326,0.121-0.499,0.349c-0.073,0.101-0.716,1.003-1.929,2.707C392.253,143.969,391.935,144.442,391.725,144.771z
			 M397.972,137.634l1.45-0.602c0.511,0.757,0.952,1.509,1.325,2.256l-1.504,0.643C398.788,138.946,398.364,138.181,397.972,137.634
			z M399.9,136.896l1.448-0.656c0.529,0.729,0.98,1.458,1.354,2.188l-1.464,0.697C400.794,138.24,400.347,137.497,399.9,136.896z"/>
		<path d="M413.914,136.28l1.381,1.025c-0.246,0.365-0.438,0.702-0.574,1.012c-0.629,1.404-1.331,2.639-2.105,3.705
			c0.647,0.565,1.342,1.23,2.085,1.996c0.742,0.766,1.314,1.399,1.716,1.9l-1.941,1.695c-0.884-1.249-2.001-2.524-3.35-3.828
			c-1.604,1.659-3.313,2.931-5.127,3.814l-1.777-1.832c1.066-0.383,2.117-0.943,3.151-1.682s1.894-1.49,2.577-2.256
			c0.984-1.112,1.641-2.165,1.969-3.158h-4.361c-0.137,0-0.733,0.037-1.791,0.109v-2.406c0.528,0.073,1.126,0.109,1.791,0.109h4.676
			C412.943,136.485,413.504,136.417,413.914,136.28z"/>
		<path d="M429.69,141.503l-0.97,2.365c-1.222-0.629-2.825-1.299-4.813-2.01v3.609c0,0.483,0.05,1.185,0.15,2.105h-2.652
			c0.109-0.684,0.164-1.385,0.164-2.105v-7.998c0-0.684-0.055-1.29-0.164-1.818h2.638c-0.09,0.894-0.136,1.5-0.136,1.818v1.914
			c0.938,0.273,1.989,0.622,3.151,1.046C428.221,140.854,429.099,141.211,429.69,141.503z"/>
		<path d="M432.521,139.356l-0.205-2.283c0.675-0.018,1.148-0.041,1.422-0.068c2.142-0.182,4.12-0.351,5.934-0.506
			c1.185-0.091,2.529-0.168,4.033-0.232l0.014,2.16c-1.34,0.027-2.224,0.082-2.652,0.164c-0.757,0.173-1.41,0.613-1.962,1.319
			c-0.552,0.707-0.827,1.465-0.827,2.276c0,0.656,0.198,1.206,0.595,1.647c0.396,0.442,0.902,0.764,1.518,0.964
			c0.614,0.201,1.347,0.324,2.194,0.369l-0.779,2.338c-1.058-0.082-2.012-0.314-2.864-0.697s-1.545-0.937-2.078-1.661
			s-0.801-1.561-0.801-2.509c0-0.856,0.178-1.643,0.534-2.358c0.355-0.715,0.761-1.278,1.217-1.688
			C435.516,138.828,433.752,139.083,432.521,139.356z M440.574,140.081l1.217-0.492c0.446,0.656,0.811,1.281,1.094,1.873
			l-1.244,0.547C441.239,141.17,440.884,140.528,440.574,140.081z M442.174,139.452l1.203-0.547
			c0.464,0.629,0.853,1.235,1.162,1.818l-1.244,0.588C442.902,140.555,442.529,139.936,442.174,139.452z"/>
		<path d="M458.442,137.019l-0.026,1.996c-1.039-0.055-2.329-0.086-3.869-0.096c0.009,0.438,0.014,1.085,0.014,1.941
			c0.364,0.556,0.546,1.222,0.546,1.996c0,0.474-0.081,0.95-0.245,1.429s-0.415,0.957-0.752,1.436s-0.818,0.918-1.442,1.319
			s-1.353,0.715-2.181,0.943l-1.777-1.791c1.449-0.282,2.507-0.688,3.172-1.217c-0.055,0.009-0.138,0.014-0.246,0.014
			c-0.593,0-1.15-0.239-1.675-0.718s-0.786-1.128-0.786-1.948s0.282-1.474,0.848-1.962c0.565-0.487,1.266-0.731,2.105-0.731
			c0.155,0,0.269,0.005,0.342,0.014l-0.014-0.711c-1.449,0.019-3.391,0.087-5.824,0.205l-0.056-2.023
			c0.594,0.009,2.544-0.014,5.853-0.068l-0.014-0.15c-0.055-0.702-0.104-1.162-0.15-1.381h2.42
			c-0.036,0.219-0.073,0.675-0.109,1.367v0.15c0.319,0,0.976-0.004,1.969-0.014C457.535,137.01,458.17,137.01,458.442,137.019z
			 M451.184,142.282c0,0.246,0.089,0.451,0.267,0.615s0.381,0.246,0.608,0.246c0.265,0,0.477-0.109,0.636-0.328
			s0.203-0.574,0.129-1.066c-0.163-0.237-0.418-0.355-0.765-0.355c-0.237,0-0.443,0.075-0.616,0.226
			S451.184,141.991,451.184,142.282z"/>
		<path d="M462.066,143.362c0.647,0,1.198,0.228,1.654,0.684c0.456,0.456,0.684,1.007,0.684,1.654c0,0.647-0.228,1.198-0.684,1.654
			c-0.456,0.456-1.007,0.684-1.654,0.684c-0.638,0-1.188-0.228-1.647-0.684c-0.46-0.456-0.69-1.007-0.69-1.654
			c0-0.647,0.23-1.198,0.69-1.654C460.879,143.59,461.429,143.362,462.066,143.362z M461.246,146.521
			c0.228,0.228,0.501,0.342,0.82,0.342c0.318,0,0.593-0.114,0.82-0.342c0.228-0.228,0.342-0.501,0.342-0.82
			c0-0.319-0.114-0.592-0.342-0.82c-0.228-0.228-0.502-0.342-0.82-0.342c-0.319,0-0.593,0.114-0.82,0.342
			c-0.228,0.228-0.342,0.501-0.342,0.82C460.904,146.02,461.019,146.293,461.246,146.521z"/>
	</g>
	<g>
		<path fill="#F7931E" d="M370.015,119.455v-3.192c3.254-2.966,5.693-5.467,7.32-7.503c1.625-2.036,2.439-3.852,2.439-5.447
			c0-1.064-0.271-1.882-0.814-2.456c-0.541-0.572-1.283-0.859-2.224-0.859c-1.248,0-2.567,0.757-3.959,2.271l-3.04-3.008
			c1.208-1.269,2.4-2.189,3.576-2.762c1.176-0.572,2.573-0.859,4.189-0.859c2.271,0,4.117,0.67,5.541,2.01
			c1.42,1.34,2.132,3.115,2.132,5.325c0,3.314-2.354,7.346-7.059,12.092c1.718-0.225,2.987-0.337,3.806-0.337h4.296v4.726H370.015z"
			/>
		<path fill="#F7931E" d="M393.339,119.885c-0.961,0-1.754-0.333-2.379-0.998c-0.623-0.665-0.935-1.488-0.935-2.47
			c0-0.961,0.312-1.78,0.935-2.456c0.625-0.675,1.418-1.013,2.379-1.013c0.941,0,1.734,0.338,2.379,1.013
			c0.645,0.675,0.967,1.494,0.967,2.456c0,0.962-0.322,1.78-0.967,2.455S394.28,119.885,393.339,119.885z"/>
		<path fill="#F7931E" d="M407.61,119.885c-3.5,0-6.169-1.084-8.01-3.253l2.576-3.529c1.577,1.514,3.193,2.271,4.85,2.271
			c1.105,0,1.98-0.23,2.624-0.691c0.646-0.46,0.968-1.12,0.968-1.979c0-1.104-0.42-1.918-1.259-2.439
			c-0.839-0.522-2.414-0.783-4.727-0.783v-3.928c1.902,0,3.254-0.266,4.052-0.798c0.798-0.532,1.196-1.289,1.196-2.271
			c0-0.798-0.23-1.412-0.69-1.842s-1.12-0.644-1.979-0.644c-1.269,0-2.659,0.655-4.174,1.964l-2.823-3.437
			c2.312-1.923,4.736-2.885,7.272-2.885c2.477,0,4.431,0.563,5.863,1.688c1.432,1.125,2.147,2.711,2.147,4.757
			c0,2.415-1.258,4.133-3.774,5.156v0.153c1.37,0.43,2.465,1.12,3.284,2.072c0.816,0.951,1.228,2.153,1.228,3.606
			c0,2.107-0.829,3.77-2.486,4.987C412.091,119.276,410.044,119.885,407.61,119.885z"/>
	</g>
	<g>
		<path fill="#F7931E" d="M425.602,115.833v0.13c0.605,1.138,1.83,1.744,3.673,1.818c1.176,0.062,2.812,0.074,4.909,0.037
			c2.095-0.037,3.843-0.111,5.241-0.223c-0.408,0.891-0.682,1.744-0.816,2.561c-3.291,0.173-6.401,0.191-9.334,0.056
			c-1.138-0.05-2.08-0.229-2.829-0.538c-0.748-0.31-1.395-0.823-1.938-1.54c-0.557,0.606-1.313,1.354-2.264,2.245l-1.28-2.635
			c0.878-0.606,1.57-1.119,2.078-1.54v-3.785h-1.763v-2.542h4.323v5.715c0.977-1.608,1.465-4.181,1.465-7.719v-4.917h11.245v11.782
			c0,0.582-0.063,1.033-0.186,1.354c-0.124,0.322-0.353,0.582-0.687,0.779c-0.495,0.272-1.423,0.408-2.783,0.408
			c-0.05-0.482-0.217-1.101-0.502-1.855h-2.151v0.798h-2.022v-5.232h5.121v4.026h0.39c0.197,0,0.296-0.105,0.296-0.315v-9.537
			h-6.234v2.709c0,4.243-0.619,7.329-1.854,9.259C427.128,116.637,426.429,116.204,425.602,115.833z M425.75,106.036l-2.356,1.54
			c-0.421-0.928-1.213-2.022-2.375-3.284l2.189-1.373C424.457,104.144,425.305,105.183,425.75,106.036z M429.888,108.634h1.559
			v-0.742h-1.559v-1.8h1.559v-0.742h2.227v0.742h1.707v1.8h-1.707v0.742h1.707v1.8h-5.492V108.634z M433.061,113.662v-0.928h-1.058
			v0.928H433.061z"/>
		<path fill="#F7931E" d="M448.609,110.304h-4.824v10.261h-2.728v-17.367h7.552V110.304z M446.03,105.164h-2.245v0.649h2.245
			V105.164z M443.785,108.374h2.245v-0.742h-2.245V108.374z M457.404,103.197v14.213c0,0.73-0.081,1.299-0.241,1.707
			c-0.161,0.408-0.445,0.724-0.854,0.946c-0.396,0.21-0.862,0.346-1.401,0.408c-0.537,0.062-1.296,0.093-2.272,0.093
			c-0.05-0.458-0.193-1.045-0.427-1.763h-4.305v0.965h-2.486v-8.461h7.496v6.513h1.243c0.308,0,0.464-0.148,0.464-0.445v-7.014
			h-4.954v-7.162H457.404z M450.316,113.291h-2.412v0.798h2.412V113.291z M447.904,116.816h2.412v-0.798h-2.412V116.816z
			 M454.621,105.164h-2.338v0.649h2.338V105.164z M452.283,108.43h2.338v-0.798h-2.338V108.43z"/>
		<path fill="#F7931E" d="M473.38,105.238h3.525v2.486h-17.46v-2.486h3.691c-0.284-0.569-0.704-1.175-1.261-1.818l2.635-0.928
			c0.878,0.928,1.453,1.72,1.726,2.375l-1.058,0.371h5.028c0.594-0.915,1.063-1.837,1.41-2.765l3.024,0.891
			C474.109,104.193,473.688,104.818,473.38,105.238z M468.277,108.801v9.185c0,0.569-0.065,1.021-0.195,1.354
			c-0.129,0.334-0.368,0.587-0.715,0.761c-0.494,0.284-1.391,0.427-2.69,0.427c-0.147-0.767-0.434-1.54-0.854-2.319
			c0.632,0.037,1.126,0.043,1.485,0.019c0.209,0,0.315-0.093,0.315-0.278v-1.206h-2.635v3.711h-2.598v-11.652H468.277z
			 M465.624,111.102h-2.635v0.798h2.635V111.102z M462.989,114.757h2.635v-0.854h-2.635V114.757z M472.044,109.023v7.793h-2.523
			v-7.793H472.044z M473.287,117.633v-9.11h2.728v9.147c0,0.668-0.074,1.178-0.223,1.531s-0.427,0.634-0.835,0.844
			c-0.631,0.334-1.714,0.488-3.247,0.464c-0.161-0.891-0.482-1.756-0.965-2.598c0.396,0.025,0.825,0.041,1.29,0.046
			c0.463,0.006,0.751,0.003,0.862-0.009c0.148,0,0.251-0.021,0.306-0.065C473.26,117.84,473.287,117.757,473.287,117.633z"/>
	</g>
	<g>
		<g>
			<path d="M129.667,131.763c8.637,0.292,16.363,4.709,25,5c0.246,0.008,0.349-0.256,0.26-0.451
				c-1.989-4.338-4.5-8.122-7.629-11.703c-3.564-4.079-5.84-7.524-5.923-13.141c-0.2-13.625,7.382-25.37,3.587-39.079
				c-6.086-21.991-25.471-39.615-45.488-49.134c-17.436-8.292-36.182-8.701-53.2,0.679c-16.128,8.889-27.933,24.737-34.815,41.529
				c-6.557,15.996-8.416,34.39-2.763,50.913c4.989,14.583,17.386,24.139,31.216,29.935c26.559,11.13,71.244,14.539,88.016-14.696
				c0.191-0.336-0.326-0.638-0.52-0.303c-9.447,16.47-29.1,21.895-46.938,22.28c-18.726,0.403-38.558-4.677-54.061-15.354
				C-9.577,113.456,6.972,58.73,33.808,33.777c12.098-11.248,28.092-17.906,44.716-16.161c21.547,2.263,41.929,16.871,54.835,33.634
				c6.287,8.165,11.54,18.311,12.441,28.704c0.992,11.426-5.729,22.304-4.928,33.891c0.445,6.441,5.783,10.49,9.348,15.325
				c1.372,1.86,2.471,3.895,3.505,5.955c0.925,1.842-7.544-0.275-8.47-0.532c-5.216-1.451-10.123-3.245-15.588-3.429
				C129.28,131.15,129.281,131.75,129.667,131.763L129.667,131.763z"/>
		</g>
	</g>
	<g>
		<g>
			<path d="M334.667,117.163c-8.166,0.078-16.143,1.103-24.08,3.011c-0.271,0.065-0.27,0.407-0.071,0.548
				c8.876,6.296,20.31,7.388,29.265,13.432c5.1,3.442,5.477,9.947,9.193,14.503c4.251,5.209,9.495,8.197,15.104,11.701
				c21.264,13.281,48.024,17.436,72.688,16.131c18.684-0.988,36.784-6.152,50.32-19.612c14.08-14,22.725-35.11,28.026-53.945
				c5.417-19.247,4.736-40.537-12.074-53.825c-17.598-13.911-40.733-17.978-62.623-18.424c-21.347-0.437-44.411,2.318-64.003,11.203
				c-15.313,6.945-25.594,19.199-31.506,34.736c-4.846,12.731-7.097,26.417-9.527,39.763c-0.069,0.378,0.51,0.54,0.578,0.159
				c3.395-18.634,6.369-38.801,17.18-54.839c11.709-17.37,32.635-24.211,52.318-27.68c40.191-7.083,117.581-3.133,111.847,54.704
				c-1.156,11.656-5.242,22.984-9.823,33.683c-4.352,10.162-9.3,20.153-16.193,28.852c-13.489,17.021-33.535,23.322-54.52,24.626
				c-13.348,0.829-26.619-0.288-39.662-3.229c-13.807-3.113-25.891-8.947-38.043-15.979c-6.939-4.016-11.178-9.836-14.111-17.126
				c-1.578-3.922-4.926-6.227-8.572-8.049c-4.434-2.216-9.251-3.694-13.872-5.456c-2.952-1.125-5.841-2.385-8.624-3.881
				c-0.496-0.267-3.445-1.341-1.287-1.86c2.438-0.586,4.911-1.016,7.385-1.42c4.855-0.793,9.776-1.078,14.689-1.125
				C335.054,117.759,335.054,117.159,334.667,117.163L334.667,117.163z"/>
		</g>
	</g>
	<g>
		<path d="M205.474,109.938c2.237,1.118-4.097,4.101-5.963,4.473c-6.336,1.491-9.318-4.845-15.281-5.963
			c-14.908-2.982-16.77,13.791-30.563,12.673c10.434-1.864,2.234-11.182,5.217-17.518c3.354-6.709,14.535-9.691,19.383-2.982
			c-1.865-7.827,12.67-10.809,17.145-5.963c5.966,6.336-2.982,14.909,10.063,14.909c-0.373,0.745-0.744,1.119-1.117,1.863"/>
		<g>
			<path d="M204.943,110.468c0.658,0.562-5.22,3.109-5.632,3.219c-3.941,1.052-7.189-1.976-10.175-3.956
				c-3.534-2.343-7.835-2.819-11.917-1.947c-9.415,2.01-12.912,13.063-23.553,12.586c0.066,0.491,0.133,0.982,0.199,1.473
				c5.316-1.229,6.48-4.368,5.721-9.473c-0.758-5.092-1.139-8.846,3.438-12.361c4.49-3.449,11.051-3.285,14.712,1.141
				c0.533,0.645,1.358-0.075,1.253-0.729c-0.887-5.532,5.66-7.291,9.902-7.359c5.584-0.089,8.107,3.997,8.135,9.097
				c0.034,6.04,2.266,7.978,8.447,8.157c-0.216-0.376-0.432-0.752-0.647-1.128c-0.372,0.621-0.745,1.242-1.117,1.863
				c-0.499,0.832,0.798,1.585,1.295,0.757c0.372-0.621,0.745-1.242,1.117-1.863c0.3-0.5-0.089-1.112-0.647-1.128
				c-3.912-0.113-6.845-0.737-6.955-5.078c-0.044-1.731,0.008-3.41-0.264-5.127c-0.543-3.434-3.141-5.734-6.324-6.669
				c-5.912-1.736-15.576,1.465-14.387,8.877c0.418-0.243,0.835-0.486,1.253-0.729c-4.365-5.277-12.648-5.124-17.605-0.549
				c-2.438,2.25-3.708,4.596-3.751,7.934c-0.067,5.325,3.578,11.177-3.973,12.922c-0.854,0.197-0.621,1.437,0.199,1.473
				c13.027,0.583,17.963-15.861,31.598-12.385c6.02,1.535,8.932,7.642,15.828,5.213c1.471-0.518,7.556-3.034,4.911-5.291
				C205.272,108.784,204.206,109.839,204.943,110.468L204.943,110.468z"/>
		</g>
	</g>
	<g>
		<g>
			<path d="M161.965,115.535c4.603,7.72,6.243,16.675,8.868,25.166c0.126,0.41,0.512,0.609,0.922,0.524
				c6.849-1.415,13.721-2.559,20.674-3.327c0.951-0.105,0.961-1.606,0-1.5c-3.875,0.428-7.727,0.955-11.576,1.579
				c-1.895,0.307-3.779,0.667-5.666,1.026c-3.309,0.629-3.406-0.275-4.236-3.188c-2.055-7.21-3.816-14.537-7.69-21.035
				C162.765,113.948,161.468,114.702,161.965,115.535L161.965,115.535z"/>
		</g>
	</g>
	<g>
		<g>
			<path d="M192.825,113.119c1.025,3.636,0.814,7.819,0.786,11.559c-0.023,3.121,0.577,10.052-2.086,12.311
				c-0.739,0.626,0.327,1.682,1.061,1.061c2.647-2.245,2.329-8.103,2.469-11.175c0.206-4.526,0.462-9.736-0.784-14.154
				C194.009,111.791,192.562,112.187,192.825,113.119L192.825,113.119z"/>
		</g>
	</g>
	<g>
		<g>
			<path d="M181.271,120.946c0.605,2.489,1.078,5.012,1.863,7.455c0.174-0.308,0.349-0.615,0.523-0.922
				c-1.373,0.456-2.818,1.014-4.273,1.091c0.25,0.25,0.5,0.5,0.75,0.75c-0.042-1.254-0.318-2.477-0.372-3.727
				c-0.042-0.963-1.542-0.967-1.5,0c0.054,1.251,0.33,2.474,0.372,3.727c0.014,0.392,0.332,0.772,0.75,0.75
				c1.605-0.085,3.158-0.642,4.672-1.145c0.375-0.125,0.654-0.518,0.523-0.922c-0.785-2.443-1.256-4.966-1.863-7.455
				C182.487,119.608,181.041,120.006,181.271,120.946L181.271,120.946z"/>
		</g>
	</g>
	<g>
		<g>
			<path d="M186.663,131.906c0.096-0.035,0.191-0.068,0.279-0.118c0.484-0.272,0.49-1.024,0-1.295
				c-0.885-0.489-2.965,0.359-3.848,0.542c-2.05,0.424-4.095,0.874-6.146,1.288c-0.947,0.191-0.546,1.637,0.398,1.446
				c1.676-0.338,3.348-0.702,5.021-1.053c0.93-0.195,1.86-0.388,2.793-0.576c0.33-0.066,0.662-0.131,0.993-0.193
				c0.411-0.077,0.409,0.05,0.03-0.16c0-0.432,0-0.863,0-1.295c0.027-0.011,0.054-0.022,0.08-0.034
				C185.362,130.787,185.752,132.237,186.663,131.906L186.663,131.906z"/>
		</g>
	</g>
	<g>
		<g>
			<path d="M194.118,120.352c0.957-0.396,2.025-0.349,2.982-0.746c-0.307-0.174-0.615-0.349-0.922-0.524
				c0.369,2.022,0.344,4.089,0.344,6.137c0.25-0.25,0.5-0.5,0.75-0.75c-1.064,0.044-2.1,0.303-3.154,0.027
				c-0.937-0.246-1.334,1.201-0.398,1.446c1.201,0.315,2.34,0.077,3.553,0.027c0.408-0.017,0.75-0.329,0.75-0.75
				c0-2.188-0.004-4.376-0.398-6.535c-0.066-0.368-0.566-0.671-0.922-0.524c-0.957,0.396-2.025,0.35-2.982,0.746
				C192.839,119.27,193.225,120.722,194.118,120.352L194.118,120.352z"/>
		</g>
	</g>
	<g>
		<g>
			<path d="M165.966,124.097c-1.106,0.101-2.023,0.718-2.986,1.221c-0.469,0.244-0.436,0.82-0.152,1.178
				c1.439,1.825,3.031,4.634,5.747,4.32c0.949-0.11,0.96-1.611,0-1.5c-2.171,0.251-3.542-2.43-4.687-3.88
				c-0.051,0.393-0.102,0.785-0.152,1.178c0.688-0.358,1.439-0.944,2.23-1.016C166.921,125.51,166.93,124.009,165.966,124.097
				L165.966,124.097z"/>
		</g>
	</g>
	<g>
		<g>
			<path d="M172.298,121.492c-0.006,0.163,0.04-0.176,0.004-0.047c0.041-0.145,0.148-0.295,0.309-0.377
				c0.376,0.216,0.752,0.432,1.129,0.647c0.019,0.276-0.16,0.456-0.055,0.28c0.002-0.002,0.105-0.146,0.051-0.077
				c0.181-0.228,0.387-0.435,0.59-0.641c-0.427-0.177-0.854-0.354-1.28-0.53c-0.001,0.097-0.007,0.193-0.015,0.29
				c-0.016,0.226,0.021-0.075-0.023,0.163c-0.064,0.348-0.092-0.006,0.213-0.057c0.192,0.025,0.385,0.05,0.578,0.076
				c-0.248-0.125-0.496-0.249-0.744-0.374c0.09,0.342,0.18,0.684,0.269,1.026c0.03-0.053,0.086-0.178,0.145-0.223
				c0.323-0.248-0.407,0.662-0.668-0.497c0-0.133,0-0.266,0-0.399c0.03-0.054,0.06-0.108,0.09-0.163
				c-0.636,0.723,0.421,1.788,1.061,1.061c0.452-0.514,0.419-1.257-0.303-1.497c-0.667-0.221-1.332,0.451-1.619,0.96
				c-0.19,0.338-0.101,0.841,0.269,1.026c0.516,0.259,1.035,0.647,1.613,0.335c0.563-0.303,0.633-1.168,0.636-1.729
				c0.005-0.653-0.821-0.995-1.28-0.53c-0.338,0.342-1.064,0.938-1.025,1.499c0.039,0.581,0.604,0.917,1.128,0.648
				c0.315-0.162,0.417-0.549,0.431-0.871C173.837,120.524,172.337,120.528,172.298,121.492L172.298,121.492z"/>
		</g>
	</g>
	<g>
		<g>
			<path d="M186.464,118.133c-0.105,0-0.209,0-0.314-0.001c-0.044-0.001-0.088-0.002-0.133-0.003
				c-0.279-0.035-0.174,0.061,0.317,0.289c0.025,0.192,0.05,0.385,0.075,0.578c-0.162,0.423-0.283,0.342,0.063,0.162
				c-0.127,0.034-0.253,0.068-0.379,0.103c-0.15-0.011-0.334-0.405-0.275-0.188c-0.04-0.149-0.032,0.234-0.008,0.066
				c-0.014,0.098-0.039,0.196-0.068,0.29c0.481,0,0.964,0,1.445,0c-0.027-0.192-0.121-0.367-0.232-0.523
				c-0.061-0.08-0.123-0.159-0.184-0.238c-0.211-0.269,0.158-0.02-0.147,0.373c0.578-0.741-0.354-1.762-1.061-1.061
				c-0.048,0.049-0.097,0.097-0.147,0.144c0.063-0.039,0.066-0.044,0.014-0.018c0.125-0.034,0.252-0.068,0.378-0.103
				c-0.01,0-0.019-0.001-0.028-0.002c0.176,0.073,0.354,0.146,0.529,0.22c0.093,0.092,0.148,0.198,0.166,0.318
				c-0.01-0.133-0.004-0.269-0.004-0.402c-0.376,0.216-0.752,0.432-1.129,0.647c0.183,0.093,0.363,0.188,0.538,0.294
				c0.202,0.121,0.024,0.109-0.021-0.14c0-0.133,0-0.266,0-0.399c0.073-0.215,0.206-0.356,0.396-0.423
				c-0.168,0.054,0.172-0.01-0.045,0.006c-0.162,0.013-0.326,0.009-0.488,0.009c-0.967,0-0.967,1.5,0,1.5
				c0.563,0,1.144,0.018,1.503-0.488c0.549-0.773-0.608-1.393-1.124-1.655c-0.498-0.254-1.129,0.054-1.129,0.647
				c0,0.456-0.023,0.996,0.43,1.262c0.472,0.276,0.896-0.033,1.224-0.358c-0.354-0.354-0.707-0.707-1.061-1.061
				c-0.265,0.339-0.381,0.645-0.274,1.074c0.074,0.296,0.416,0.515,0.453,0.774c0.113,0.79,1.238,0.638,1.445,0
				c0.253-0.778,0.127-1.804-0.795-2.033c-0.586-0.146-1.455,0.341-1.455,1.001c0,0.833,0.932,0.836,1.527,0.837
				C187.431,119.634,187.431,118.134,186.464,118.133L186.464,118.133z"/>
		</g>
	</g>
	<g>
		<g>
			<path d="M181.987,139.285c3.59,1.926,1.56,15.087,1.468,18.482c-0.245,9.061-0.282,18.396,0.024,27.459
				c0.033,0.965,1.533,0.968,1.5,0c-0.353-10.421-0.225-21.059,0.096-31.487c0.108-3.496,1.68-13.598-2.33-15.75
				C181.893,137.533,181.136,138.828,181.987,139.285L181.987,139.285z"/>
		</g>
	</g>
	<g>
		<g>
			<path d="M178.854,138.853c-5.528,5.154-4.834,14.247-4.317,21.086c0.672,8.882,3.548,18.412,2.262,27.324
				c-0.137,0.946,1.309,1.353,1.445,0.398c1.074-7.437-0.827-15.322-1.701-22.698c-0.894-7.536-2.869-19.232,3.372-25.051
				C180.623,139.253,179.56,138.194,178.854,138.853L178.854,138.853z"/>
		</g>
	</g>
	<g>
		<g>
			<path d="M184.328,147.215c2.255,4.493,5.117,10.536,10.653,11.335c5.271,0.762,9.621-4.533,11.787-8.589
				c0.36-0.673,0.75-3.072,1.826-2.861c2.925,0.574,4.252,0.411,2.828,3.701c-1.828,4.222-5.479,7.594-9.402,9.828
				c-10.74,6.117-16.719-6.097-17.414-14.91c-0.076-0.958-1.576-0.965-1.5,0c0.507,6.428,3.529,17.31,11.561,17.895
				c9.111,0.664,17.256-7.405,19.357-15.832c0.104-0.415-0.129-0.789-0.523-0.922c-1.962-0.667-3.933-1.093-5.964-1.491
				c-0.394-0.077-0.817,0.105-0.923,0.524c-1.396,5.546-6.02,11.966-12.496,11.03c-4.084-0.59-6.865-7.216-8.495-10.464
				C185.189,145.594,183.896,146.354,184.328,147.215L184.328,147.215z"/>
		</g>
	</g>
	<g>
		<g>
			<path d="M208.088,145.719c0.03-2.234,0.31-4.471,0.647-6.676c0.293-1.91,0.758-7.048,2.9-7.882
				c-0.307-0.174-0.615-0.349-0.922-0.524c0.939,3.017,0.755,6.009,0.717,9.119c-0.006,0.423,0.346,0.731,0.75,0.75
				c4.666,0.215,0.889,4.473-0.53,6.174c-0.615,0.737,0.44,1.804,1.061,1.061c2.609-3.126,6.042-8.431-0.53-8.734
				c0.25,0.25,0.5,0.5,0.75,0.75c0.04-3.247,0.205-6.383-0.771-9.517c-0.111-0.359-0.531-0.676-0.922-0.524
				c-2.264,0.881-2.88,3.939-3.389,6.03c-0.783,3.214-1.215,6.665-1.261,9.975C206.575,146.687,208.075,146.685,208.088,145.719
				L208.088,145.719z"/>
		</g>
	</g>
	<g>
		<path d="M277.265,106.142c-3.417-9.414-14.779-8.291-21.071-2.314c-4.587,3.896-5.358,15.445-13.358,9.926
			c4.643,12.161,30.514,6.926,32.19-3.184c-0.079,3.068,0.562,5.681-0.106,8.615c2.668,1.84,4.75,3.546,7.416,5.386
			c0.215-3.655,2.129-22.966-4.75-17.123"/>
		<g>
			<path d="M277.987,105.942c-3.07-7.328-10.317-8.908-17.305-5.99c-3.035,1.268-5.566,3.485-7.326,6.231
				c-2.566,4.002-4.097,10.669-10.143,6.922c-0.701-0.435-1.304,0.39-1.026,1.026c5.177,11.872,30.748,9.236,33.562-3.363
				c-0.492-0.066-0.982-0.133-1.474-0.199c0.036,2.837,0.347,5.581-0.079,8.416c-0.055,0.362,0.041,0.632,0.344,0.847
				c2.494,1.766,4.923,3.62,7.416,5.386c0.499,0.353,1.096-0.13,1.129-0.647c0.204-3.178,2.178-23.931-5.879-17.771
				c-0.757,0.579-0.012,1.883,0.758,1.295c4.175-3.192,3.994,5.102,4.025,7.561c0.038,2.977-0.214,5.947-0.404,8.915
				c0.376-0.216,0.752-0.432,1.129-0.647c-1.516-1.074-7.157-3.972-6.812-6.268c0.345-2.289-0.098-4.78-0.127-7.086
				c-0.011-0.83-1.284-1.043-1.474-0.199c-2.543,11.394-26.203,13.589-30.819,3.004c-0.342,0.342-0.685,0.684-1.026,1.026
				c5.46,3.384,8.274-0.114,10.81-4.949c4.38-8.351,18.333-14.908,23.276-3.111C276.909,107.219,278.361,106.834,277.987,105.942
				L277.987,105.942z"/>
		</g>
	</g>
	<g>
		<g>
			<path d="M280.589,122.685c0.17,1.5,0.482,3.443,0.603,4.814c0.028,0.327,0.206,0.641,0.551,0.723
				c1.556,0.202,2.865,0.945,3.927,2.227c-0.229,3.394-1.806,4.576-4.732,3.548c-0.471-0.084-0.953,0.202-0.949,0.723
				c0.04,5.722,0.653,9.612-5.025,12.606c-4.915,2.592-13.038,2.712-18.441,1.913c-14.774-2.186-9.49-21.038-2.935-28.431
				c0.64-0.721-0.417-1.786-1.061-1.061c-5.458,6.156-9.172,15.435-5.927,23.491c3.785,9.395,15.607,8.131,23.619,6.91
				c3.47-0.529,8.254-1.788,10.182-5.099c0.85-1.46,1.415-9.356,1.621-9.351c2.875,0.07,5.393-1.029,5.514-4.181
				c0.051-1.332-0.968-2.46-1.873-3.282c-0.346-0.315-0.77-0.556-1.203-0.731c-2.221-0.901-2.117-2.595-2.369-4.821
				C281.981,121.735,280.48,121.725,280.589,122.685L280.589,122.685z"/>
		</g>
	</g>
	<g>
		<g>
			<path d="M265.164,135.25c0.19,0.191,0.366,0.373,0.437,0.5c-0.087-0.143-0.08-0.3,0.02-0.472c0.055-0.127,0.295-0.204,0.105-0.15
				c-0.201,0.057-0.426,0.042-0.633,0.045c0.126,0.466,0.252,0.932,0.379,1.397c0.216-0.141,0.434-0.276,0.662-0.396
				c0.229-0.12-0.025-0.003,0.146-0.062c0.02-0.005,0.037-0.01,0.057-0.015c-0.266,0.058-0.494-0.052-0.689-0.33
				c-0.034-0.126-0.068-0.252-0.103-0.378c0,0.004,0,0.009,0,0.014c0.034-0.126,0.068-0.252,0.103-0.378
				c0.076-0.176,0.278-0.255,0.45-0.274c-0.019,0.002,0.142,0.054,0.127,0.041c-0.713-0.65-1.776,0.407-1.061,1.061
				c0.545,0.497,1.882,0.604,1.881-0.448c-0.001-0.457-0.404-0.829-0.86-0.788c-0.541,0.048-1.027,0.371-1.471,0.66
				c-0.605,0.396-0.396,1.407,0.379,1.397c0.674-0.008,1.756-0.058,1.926-0.904c0.131-0.66-0.368-1.154-0.794-1.58
				C265.54,133.504,264.479,134.565,265.164,135.25L265.164,135.25z"/>
		</g>
	</g>
	<g>
		<g>
			<path d="M253.73,134.649c0.19,0.191,0.366,0.373,0.437,0.5c-0.087-0.143-0.08-0.3,0.02-0.472c0.055-0.127,0.295-0.204,0.105-0.15
				c-0.201,0.057-0.428,0.043-0.634,0.045c0.126,0.466,0.253,0.932,0.378,1.397c0.217-0.141,0.436-0.276,0.664-0.396
				c0.229-0.119-0.025-0.003,0.146-0.062c0.019-0.005,0.037-0.01,0.057-0.015c-0.266,0.057-0.495-0.053-0.689-0.33
				c-0.034-0.126-0.068-0.252-0.103-0.378c0,0.004,0,0.009,0,0.014c0.034-0.126,0.068-0.252,0.103-0.378
				c0.075-0.176,0.278-0.256,0.45-0.274c-0.019,0.002,0.142,0.053,0.127,0.04c-0.712-0.651-1.776,0.407-1.061,1.061
				c0.544,0.497,1.884,0.605,1.881-0.448c-0.001-0.457-0.403-0.829-0.86-0.788c-0.541,0.048-1.029,0.371-1.471,0.66
				c-0.605,0.396-0.398,1.407,0.378,1.397c0.674-0.008,1.757-0.058,1.927-0.904c0.132-0.659-0.368-1.154-0.794-1.58
				C254.106,132.903,253.046,133.964,253.73,134.649L253.73,134.649z"/>
		</g>
	</g>
	<g>
		<path d="M265.167,127.655c3.086,0.999,6.703,3.23,9.096,6.001l1.154-1.387c-1.777-5.393-7.559-7.853-11.949-4.459"/>
		<g>
			<path d="M264.968,128.378c3.373,1.168,6.371,3.162,8.765,5.809c0.257,0.283,0.808,0.304,1.061,0
				c0.356-0.428,1.599-1.432,1.347-2.117c-0.717-1.957-1.771-3.58-3.417-4.878c-2.883-2.277-6.725-2.099-9.634-0.029
				c-0.781,0.556-0.033,1.857,0.758,1.295c2.363-1.682,4.959-1.872,7.482-0.417c1.323,0.763,2.242,2.052,2.939,3.371
				c0.424,0.803,0.688,0.244,0.041,1.021c-0.192,0.231-0.385,0.462-0.577,0.694c0.354,0,0.707,0,1.061,0
				c-2.567-2.839-5.813-4.943-9.427-6.194C264.45,126.615,264.06,128.064,264.968,128.378L264.968,128.378z"/>
		</g>
	</g>
	<g>
		<path d="M254.464,125.85c-3.081,0.999-6.704,3.231-9.098,6.002l-1.152-1.388c1.775-5.392,7.559-7.852,11.945-4.458"/>
		<g>
			<path d="M254.265,125.126c-3.613,1.253-6.861,3.356-9.429,6.195c0.354,0,0.707,0,1.061,0c-0.355-0.428-0.712-0.856-1.067-1.285
				c-0.073-0.088,2.381-2.955,2.674-3.222c2.4-2.191,5.771-1.946,8.277-0.162c0.79,0.563,1.538-0.739,0.758-1.295
				c-2.908-2.07-6.749-2.248-9.631,0.028c-1.406,1.11-2.563,2.547-3.185,4.246c-0.48,1.31,0.278,1.745,1.113,2.75
				c0.253,0.304,0.805,0.283,1.061,0c2.394-2.646,5.395-4.639,8.767-5.809C255.571,126.258,255.181,124.809,254.265,125.126
				L254.265,125.126z"/>
		</g>
	</g>
	<g>
		<g>
			<path d="M271.712,151.116c16.073-1.274,24.289,16.157,24.523,29.94c0.017,0.966,1.517,0.968,1.5,0
				c-0.248-14.576-9.127-32.779-26.023-31.44C270.755,149.692,270.747,151.193,271.712,151.116L271.712,151.116z"/>
		</g>
	</g>
	<g>
		<g>
			<path d="M266.097,150.245c-12.765,3.28-17.854,21.709-17.4,33.218c0.038,0.964,1.538,0.968,1.5,0
				c-0.426-10.833,4.264-28.679,16.299-31.772C267.432,151.45,267.034,150.003,266.097,150.245L266.097,150.245z"/>
		</g>
	</g>
	<g>
		<g>
			<path d="M268.901,157.466c-3.396-1.245-6.824-1.757-10.428-1.832c-0.454-0.009-0.897,0.493-0.723,0.949
				c0.924,2.421,2.272,4.636,3.687,6.798c0.218,0.333,0.667,0.495,1.026,0.269c2.445-1.537,4.332-3.59,6.276-5.703
				c1.175-1.277,3.323-4.431,5.234-2.882c1.911,1.551,2.071,3.893,1.802,6.132c0.316-0.241,0.633-0.482,0.949-0.723
				c-3.391-0.639-6.461-1.809-9.449-3.535c-0.84-0.485-1.595,0.812-0.758,1.295c3.111,1.796,6.271,3.02,9.809,3.686
				c0.52,0.098,0.889-0.215,0.949-0.723c0.455-3.779-0.832-6.39-3.98-8.47c-0.215-0.142-0.541-0.136-0.758,0
				c-4.16,2.614-6.68,7.018-10.832,9.628c0.342,0.089,0.685,0.179,1.026,0.269c-1.338-2.046-2.66-4.147-3.536-6.44
				c-0.24,0.316-0.481,0.633-0.723,0.949c3.473,0.072,6.768,0.583,10.029,1.778C269.413,159.246,269.802,157.796,268.901,157.466
				L268.901,157.466z"/>
		</g>
	</g>
	<g>
		<g>
			<path d="M285.954,155.903c7.833,1.843,25.553,7.247,25.315-6.252c-0.046-2.647,1.255-2.214,3.993-1.821
				c1.617,0.232,0.879,6.284,0.656,7.302c-0.816,3.75-4.318,5.487-7.743,6.156c-6.985,1.364-15.54-1.563-20.891-6.036
				c-0.736-0.616-1.804,0.439-1.061,1.061c6.29,5.259,17.613,9.113,25.555,5.496c3.847-1.752,5.714-4.9,5.962-9.067
				c0.076-1.292,0.057-5.341-1.121-6.031c-1.757-1.03-4.766-0.664-6.595-0.076c-0.421,0.135-0.591,0.505-0.524,0.922
				c2.273,14.103-15.293,8.749-23.148,6.9C285.411,154.235,285.013,155.682,285.954,155.903L285.954,155.903z"/>
		</g>
	</g>
	<g>
		<g>
			<path d="M312.076,147.581c-1.791-2.561-2.977-5.354-4.138-8.246c-0.307,0.307-0.615,0.615-0.922,0.922
				c0.34,0.122,2.535,0.383,2.615,0.863c0.207,1.248,1.172,2.522,1.751,3.607c0.206,0.388,0.665,0.433,1.026,0.269
				c3.359-1.523,8.569-5.583,11.61-1.473c0.149-0.367,0.299-0.734,0.448-1.102c-3.75,1.252-7.447,2.57-11.012,4.288
				c-0.871,0.42-0.109,1.713,0.758,1.295c3.451-1.664,7.025-2.925,10.652-4.137c0.418-0.139,0.753-0.69,0.448-1.102
				c-3.758-5.081-9.239-1.071-13.663,0.935c0.342,0.089,0.685,0.179,1.026,0.269c-0.696-1.306-1.484-2.552-1.729-4.033
				c-0.055-0.331-0.416-0.542-0.724-0.551c-0.989,0.044-1.925-0.147-2.81-0.575c-0.506-0.182-1.131,0.402-0.922,0.922
				c1.203,2.999,2.426,5.943,4.288,8.604C311.331,149.124,312.632,148.375,312.076,147.581L312.076,147.581z"/>
		</g>
	</g>
	<g>
		<path fill="#FFFFFF" stroke="#231815" stroke-miterlimit="10" d="M55.675,9.494c1.111,2.271,1.57,5.225,1.311,8.854
			c-0.04,0.328-0.092,0.721-0.15,1.18c-0.204,1.638-0.228,3.133-0.009,4.559c0.301,1.836,0.954,3.516,1.969,4.976
			c-0.615,0.123-1.619,0.428-2.727,1.287c-1.034,0.801-1.571,1.633-1.813,2.234c-1.491-2.153-2.456-4.538-2.846-7.25
			c-0.3-1.836-0.285-3.798-0.057-5.866c0.076-0.357,0.118-0.685,0.145-0.881c0.148-2.245,0.016-4.092-0.502-5.523
			c-0.48-1.459-1.364-2.369-2.49-2.679c-0.93-0.284-2.048-0.125-3.209,0.361c-0.564,0.262-1.139,0.588-1.655,0.989
			c-0.554,0.429-1.05,0.933-1.416,1.453c-0.713,0.907-1.138,1.886-1.195,2.878c-0.084,1.188,0.265,2.396,1.112,3.569l-4.538,3.521
			c-1.444-2.014-2.161-4.234-2.075-6.488c0.076-2.188,0.881-4.349,2.354-6.26c0.76-1.002,1.64-1.923,2.638-2.696
			c3.101-2.405,6.915-3.354,10.066-2.49C52.775,5.832,54.585,7.326,55.675,9.494z M62.169,33.184
			c1.059,1.366,0.809,3.332-0.556,4.391c-1.366,1.06-3.331,0.81-4.391-0.556c-1.06-1.365-0.812-3.331,0.555-4.39
			C59.142,31.57,61.109,31.819,62.169,33.184z"/>
	</g>
	<g>
		<path fill="#FFFFFF" stroke="#231815" stroke-miterlimit="10" d="M444.999,48.438c-0.742,1.51-2.618,2.15-4.127,1.408
			c-1.552-0.762-2.19-2.637-1.449-4.146c0.762-1.552,2.636-2.192,4.188-1.431C445.119,45.012,445.761,46.887,444.999,48.438z
			 M442.293,41.125l11.366-25.691l6.582,3.232l-13.358,24.662c-0.339-0.479-0.969-1.102-2.017-1.615
			C443.817,41.197,442.878,41.1,442.293,41.125z"/>
	</g>
	<g>
		<path fill="#FFFFFF" stroke="#231815" stroke-miterlimit="10" d="M457.999,52.438c-0.742,1.51-2.618,2.15-4.127,1.408
			c-1.552-0.762-2.19-2.637-1.449-4.146c0.762-1.552,2.636-2.192,4.188-1.431C458.119,49.012,458.761,50.887,457.999,52.438z
			 M455.293,45.125l11.366-25.691l6.582,3.232l-13.358,24.662c-0.339-0.479-0.969-1.102-2.017-1.615
			C456.817,45.197,455.878,45.1,455.293,45.125z"/>
	</g>
</g>
<g id="_x31_6_x3000_よくある質問_x3000_help">
</g>
<g id="_x31_7_x3000_便利なリンク集_x3000_link">
</g>
<g id="_x31_8_x3000_不動産オーナー様へ_x3000_owner">
</g>
<g id="mouse-over" display="none">
</g>
</svg>
