<?xml version="1.0" encoding="utf-8"?>
<!-- Generator: Adobe Illustrator 16.0.0, SVG Export Plug-In . SVG Version: 6.00 Build 0)  -->
<!DOCTYPE svg PUBLIC "-//W3C//DTD SVG 1.0//EN" "http://www.w3.org/TR/2001/REC-SVG-20010904/DTD/svg10.dtd">
<svg version="1.0" id="Layer_1" xmlns="http://www.w3.org/2000/svg"  x="0px" y="0px"
	 width="247.249px" height="209.379px" viewBox="0 0 247.249 209.379" enable-background="new 0 0 247.249 209.379"
	 xml:space="preserve">
<g>
	<g>
		<path d="M163.854,130.972c2.784,2.082-6.613,4.604-9.255,4.653c-9.032,0.482-11.556-8.916-19.437-11.911
			c-19.655-7.742-26.326,14.742-44.917,9.822c14.731,0.016,5.808-14.745,11.443-22.678c6.235-8.354,22.262-9.684,27.243,0.684
			c-0.627-11.163,19.989-11.67,24.914-3.944c6.604,10.134-7.741,19.661,10.099,22.864c-0.689,0.931-1.29,1.349-1.986,2.275"/>
		<g>
			<path d="M163.264,131.563c0.959,1.01-7.731,3.163-8.664,3.228c-4.795,0.329-8.09-2.918-11.201-6.041
				c-4.644-4.661-9.861-7.418-16.559-7.506c-13.741-0.18-21.766,14.931-36.372,11.487c-0.073,0.547-0.147,1.094-0.222,1.641
				c9.499-0.298,9.938-6.785,10.094-14.734c0.133-6.731,3.199-11.178,9.583-13.581c6.737-2.537,14.771-0.639,18.289,5.908
				c0.398,0.741,1.56,0.392,1.556-0.422c-0.028-6.65,6.991-8.391,12.422-8.304c6.333,0.103,12.1,3.372,12.688,10.134
				c0.347,3.983-1.66,7.784-0.944,11.769c0.762,4.239,6.394,5.438,9.791,6.127c-0.123-0.466-0.246-0.931-0.369-1.396
				c-0.659,0.762-1.321,1.52-1.986,2.275c-0.706,0.807,0.47,1.992,1.182,1.182c0.665-0.756,1.327-1.515,1.986-2.275
				c0.381-0.438,0.29-1.263-0.369-1.396c-4.045-0.818-8.83-1.913-8.758-6.877c0.036-2.518,0.875-5.042,1.112-7.556
				c0.486-5.147-2.076-9.632-6.635-11.902c-7.27-3.62-21.834-2.25-21.789,8.221c0.519-0.141,1.037-0.281,1.556-0.422
				c-4.872-9.068-17.748-10.031-25.47-3.896c-3.863,3.069-5.19,6.644-5.479,11.467c-0.411,6.871,0.645,13.725-8.458,14.01
				c-0.92,0.029-1.165,1.418-0.222,1.641c7.299,1.72,13.453-0.395,19.691-4.171c8.557-5.181,16.042-9.627,26.169-5.241
				c7.403,3.207,10.138,12.119,19.328,11.488c1.919-0.132,12.794-2.284,9.232-6.037
				C163.702,129.599,162.523,130.781,163.264,131.563L163.264,131.563z"/>
		</g>
	</g>
	<g>
		<g>
			<path d="M103.145,127.8c4.476,11.672,4.448,24.385,5.976,36.642c0.055,0.441,0.338,0.849,0.835,0.835
				c9.804-0.267,19.588-0.138,29.373,0.54c1.075,0.074,1.068-1.596,0-1.67c-5.476-0.38-10.952-0.602-16.44-0.677
				c-3.063-0.042-6.128-0.006-9.19,0.045c-3.932,0.064-3.287-2.164-3.613-5.443c-1.028-10.349-1.567-20.906-5.328-30.715
				C104.374,126.361,102.759,126.793,103.145,127.8L103.145,127.8z"/>
		</g>
	</g>
	<g>
		<g>
			<path d="M145.978,132.121c-0.5,5.324-1.396,10.629-2.341,15.889c-0.769,4.275-1.298,13.358-4.899,16.381
				c-0.825,0.693,0.362,1.869,1.182,1.182c3.558-2.987,4.09-10.75,4.912-14.911c1.208-6.112,2.233-12.332,2.816-18.54
				C147.748,131.049,146.077,131.059,145.978,132.121L145.978,132.121z"/>
		</g>
	</g>
	<g>
		<g>
			<path d="M128.247,138.119c0.221,3.553,0.244,7.119,0.716,10.652c0.204-0.269,0.408-0.537,0.613-0.805
				c-2.017,0.292-4.134,0.662-6.172,0.399c0.269,0.353,0.537,0.704,0.805,1.057c0.261-1.726,0.17-3.467,0.41-5.189
				c0.147-1.053-1.461-1.507-1.609-0.443c-0.241,1.725-0.15,3.466-0.41,5.189c-0.089,0.584,0.225,0.981,0.805,1.057
				c2.184,0.281,4.453-0.146,6.615-0.46c0.328-0.047,0.657-0.475,0.613-0.805c-0.472-3.533-0.495-7.1-0.716-10.652
				C129.851,137.05,128.181,137.043,128.247,138.119L128.247,138.119z"/>
		</g>
	</g>
	<g>
		<g>
			<path d="M146.646,142.357c1.16-0.253,2.347-0.197,3.508-0.453c-0.353-0.268-0.704-0.536-1.057-0.805
				c0.012,2.881-0.51,5.711-1.017,8.537c0.269-0.205,0.537-0.409,0.806-0.613c-1.246-0.15-2.446-0.032-3.628-0.567
				c-0.974-0.441-1.823,0.998-0.844,1.441c1.484,0.673,2.891,0.604,4.472,0.796c0.339,0.041,0.746-0.283,0.806-0.613
				c0.531-2.968,1.087-5.954,1.075-8.98c-0.002-0.564-0.529-0.921-1.057-0.805c-1.16,0.254-2.347,0.199-3.508,0.451
				C145.149,140.976,145.596,142.586,146.646,142.357L146.646,142.357z"/>
		</g>
	</g>
	<g>
		<g>
			<path d="M116.48,136.093c-0.016,0.078-0.093,0.251,0.026-0.015c-0.088,0.195,0.172-0.157,0.226-0.192
				c0.215-0.028,0.429-0.057,0.644-0.084c-0.001-0.001-0.002-0.001-0.003-0.001c0.194,0.343,0.389,0.685,0.583,1.027
				c-0.011,0.075-0.174,0.305-0.146,0.272c0.063-0.075,0.139-0.143,0.211-0.21c0.276-0.256,0.586-0.473,0.895-0.689
				c-0.409-0.314-0.818-0.628-1.228-0.942c-0.033,0.18-0.079,0.356-0.13,0.532c-0.043,0.149-0.074,0.236-0.114,0.321
				c-0.026,0.051-0.055,0.101-0.086,0.148c0.064-0.105,0.24-0.187,0.35-0.18c0.141,0.038,0.281,0.076,0.422,0.114
				c-0.311-0.231-0.62-0.462-0.93-0.692c0.056,0.437,0.112,0.874,0.169,1.312c0.107-0.133,0.213-0.26,0.355-0.354
				c0.086-0.076,0.12-0.095,0.104-0.056c0.03-0.008,0.062-0.017,0.092-0.024c-0.221,0.049-0.41-0.054-0.568-0.309
				c-0.038-0.141-0.076-0.281-0.114-0.422c0.077-0.158,0.155-0.317,0.232-0.476c-0.36,0.275-0.551,0.713-0.299,1.143
				c0.208,0.355,0.779,0.576,1.143,0.299c0.304-0.232,0.6-0.509,0.594-0.927c-0.005-0.41-0.28-0.834-0.704-0.924
				c-0.782-0.165-1.533,0.273-2.016,0.867c-0.364,0.449-0.291,0.969,0.169,1.312c0.625,0.466,1.117,1.019,1.945,0.662
				c0.637-0.274,0.884-1.294,0.998-1.904c0.12-0.647-0.569-1.404-1.228-0.942c-0.444,0.312-0.889,0.633-1.288,1.002
				c-0.17,0.158-0.401,0.382-0.438,0.622c-0.064,0.438,0.102,0.911,0.584,1.027c0.604,0.146,1.049-0.33,1.162-0.875
				C118.309,135.485,116.699,135.038,116.48,136.093L116.48,136.093z"/>
		</g>
	</g>
	<g>
		<g>
			<path d="M134.01,135.863c-0.197-0.036-0.396-0.073-0.592-0.113c-0.073-0.016-0.145-0.033-0.217-0.054
				c-0.164-0.059-0.117-0.024,0.141,0.104c0.071,0.123,0.144,0.245,0.215,0.368c-0.003-0.011-0.005-0.021-0.008-0.031
				c-0.028,0.215-0.057,0.429-0.084,0.644c-0.186,0.194-0.247,0.258-0.186,0.191c0.104-0.036,0.207-0.07,0.312-0.101
				c-0.147,0-0.296,0-0.443,0c0.206,0.05-0.073-0.065-0.089-0.222c0.02,0.195,0.01,0.093-0.041,0.282
				c-0.016,0.052-0.032,0.104-0.051,0.154c-0.079,0.232,0.065-0.135-0.017,0.049c-0.021,0.045-0.042,0.089-0.064,0.131
				c0.519,0.141,1.037,0.281,1.556,0.422c0.023-0.318-0.091-0.596-0.22-0.88c-0.06-0.133-0.137-0.259-0.204-0.388
				c0,0.041-0.01,0.014-0.028-0.084c-0.193,0.385-0.203,0.492-0.029,0.321c0.729-0.605-0.234-1.849-1.013-1.312
				c-0.083,0.058-0.167,0.115-0.252,0.17c-0.189,0.124,0.131-0.016-0.002,0.007c0.148,0,0.296,0,0.444,0
				c-0.01-0.002-0.02-0.004-0.029-0.006c0.123,0.071,0.246,0.144,0.369,0.215c0.387,0.34,0.185,0.513,0.204,0.382
				c0.021-0.144,0.048-0.285,0.074-0.428c-0.409,0.167-0.818,0.333-1.228,0.499c0.189,0.144,0.372,0.292,0.548,0.452
				c0.069,0.063,0.133,0.132,0.195,0.202c-0.116-0.132-0.178-0.361-0.107-0.53c0.071-0.122,0.143-0.245,0.215-0.368
				c0.089-0.105,0.246-0.157,0.378-0.168c-0.083,0.007-0.168-0.002-0.251-0.009c-0.095-0.012-0.098-0.011-0.006,0.001
				c-0.055-0.009-0.11-0.017-0.165-0.026c-0.115-0.019-0.23-0.04-0.346-0.061c-0.447-0.082-0.898,0.115-1.026,0.583
				c-0.113,0.408,0.135,0.945,0.583,1.026c0.592,0.107,1.548,0.385,2.014-0.166c0.819-0.97-0.51-1.866-1.188-2.378
				c-0.411-0.311-1.139,0.004-1.228,0.499c-0.088,0.493-0.321,1.255,0.131,1.651c0.511,0.448,1.029,0.229,1.516-0.106
				c-0.338-0.437-0.675-0.874-1.013-1.312c-0.406,0.338-0.487,0.808-0.399,1.305c0.035,0.2,0.153,0.4,0.247,0.579
				s0.15,0.257,0.146,0.328c-0.061,0.835,1.174,1.133,1.556,0.422c0.502-0.935,0.675-2.33-0.537-2.788
				c-0.668-0.252-1.882,0.2-1.882,1.037c0,0.879,1.007,0.996,1.658,1.114c0.447,0.082,0.898-0.115,1.027-0.583
				C134.706,136.48,134.458,135.944,134.01,135.863L134.01,135.863z"/>
		</g>
	</g>
	<g>
		<g>
			<path d="M106.41,141.058c-0.954,0-1.907,0-2.861,0c-0.483,0-0.798,0.382-0.835,0.835c-0.176,2.122,0.087,4.393,0.349,6.497
				c0.114,0.921,0.274,1.766,1.133,2.278c1.111,0.664,2.751-0.375,3.893-0.445c1.069-0.066,1.076-1.736,0-1.67
				c-0.986,0.061-1.882,0.385-2.835,0.609c-0.677,0.158-0.643-1.898-0.671-2.222c-0.146-1.65-0.335-3.391-0.198-5.048
				c-0.278,0.278-0.557,0.557-0.835,0.835c0.954,0,1.907,0,2.861,0C107.487,142.728,107.487,141.058,106.41,141.058L106.41,141.058z
				"/>
		</g>
	</g>
	<g>
		<g>
			<path d="M127.493,151.144c-2.079-0.144-4.149,1.274-4.687,3.305c-0.59,2.227,1.61,3.854,3.608,3.958
				c3.747,0.198,5.757-6.018,1.617-7.021c-1.046-0.253-1.49,1.357-0.443,1.611c2.216,0.537,0.752,3.579-0.978,3.737
				c-1.152,0.104-2.471-0.801-2.144-2.034c0.335-1.265,1.823-1.969,3.025-1.886C128.568,152.888,128.562,151.218,127.493,151.144
				L127.493,151.144z"/>
		</g>
	</g>
	<g>
		<g>
			<path d="M125.948,208.573c-0.43-6.835-0.83-13.668-0.923-20.518c-0.099-7.206-0.59-16.048,2.68-22.688
				c0.475-0.963-0.966-1.81-1.441-0.844c-2.883,5.853-2.806,13.178-2.908,19.544c-0.131,8.176,0.41,16.351,0.923,24.505
				C124.346,209.643,126.016,209.649,125.948,208.573L125.948,208.573z"/>
		</g>
	</g>
	<g>
		<g>
			<path d="M131.249,164.741c8.975,11.693,9.241,29.738,8.61,43.832c-0.048,1.077,1.622,1.072,1.67,0
				c0.641-14.319,0.291-32.78-8.839-44.676C132.045,163.057,130.593,163.887,131.249,164.741L131.249,164.741z"/>
		</g>
	</g>
	<g>
		<path fill="#FFFFFF" d="M198.203,133.069c-14.164-1.296-20.938-6.476-22.17-21.369c-1.232-12.305,2.464-20.723,16.012-22.019
			c25.25-1.943,28.945,34.32,7.392,43.388"/>
		<g>
			<path d="M198.203,132.234c-5.654-0.578-11.373-1.709-15.689-5.667c-4.396-4.034-5.273-10.576-5.759-16.171
				c-0.477-5.506,0.225-11.348,4.176-15.496c4.125-4.33,11.587-5.062,17.154-4.063c9.371,1.68,14.323,10.729,14.614,19.566
				c0.312,9.453-5.097,18.105-13.685,21.945c-0.981,0.438-0.131,1.877,0.844,1.441c19.758-8.834,19.593-43.018-4.552-44.98
				c-5.799-0.472-12.172,1.357-16.229,5.617c-4.268,4.48-4.377,11.531-3.879,17.273c0.511,5.895,1.931,11.683,6.135,16.048
				c4.282,4.446,11.03,5.56,16.87,6.156C199.274,134.014,199.264,132.343,198.203,132.234L198.203,132.234z"/>
		</g>
	</g>
	<g>
		<path fill="#FFFFFF" d="M73.792,94.181c-12.561,1.196-25.133-13.765-23.338-26.332c2.394-14.36,21.629-19.711,33.673-17.044
			c18.468,4.09,18.393,18.841,16.598,29.611c-1.797,11.371-14.957,13.765-25.733,13.765"/>
		<g>
			<path d="M73.792,93.431c-14.05,0.743-26.96-16.308-21.354-29.546c4.614-10.898,19.993-14.237,30.497-12.556
				c12.54,2.008,18.354,11.445,17.715,23.438c-0.326,6.146-1.735,11.416-7.229,14.875c-5.303,3.338-12.354,3.737-18.43,3.789
				c-0.967,0.008-0.968,1.508,0,1.5c6.937-0.059,14.145-0.82,20.138-4.593c5.221-3.286,6.403-8.886,6.949-14.601
				c1.288-13.501-5.961-24.331-19.964-26.045c-12.163-1.488-27.479,3.094-31.852,15.707c-4.757,13.72,9.814,30.257,23.529,29.531
				C74.754,94.88,74.759,93.38,73.792,93.431L73.792,93.431z"/>
		</g>
	</g>
	<g>
		<path fill="#FFFFFF" d="M52.324,156.51c-14.293,0.824-28.002-0.689-33.886-14.732c-4.203-10.739-3.105-26.57,8.662-33.177
			c29.423-16.521,65.685,23.278,25.298,48.174"/>
		<g>
			<path d="M52.324,155.675c-6.904,0.36-13.837,0.293-20.447-1.964c-8.043-2.746-12.601-9.89-14.269-17.883
				c-1.479-7.094-0.333-14.781,3.65-20.856c4.079-6.222,12.263-9.018,19.365-9.413c11.167-0.624,22.096,6.052,26.897,16.051
				c6.77,14.1-4.181,27.232-15.545,34.444c-0.906,0.575-0.069,2.021,0.844,1.441c12.22-7.755,22.445-20.675,16.596-35.68
				c-4.596-11.788-17.597-18.552-29.826-17.869c-15.971,0.891-26.063,14.311-23.965,29.886c1.068,7.927,4.451,14.896,11.288,19.338
				c7.292,4.737,17.09,4.609,25.411,4.175C53.396,157.289,53.401,155.618,52.324,155.675L52.324,155.675z"/>
		</g>
	</g>
	<g>
		<path fill="#FFFFFF" d="M144.35,81.69c-36.537-1.993-37.68-54.618,1.376-59.269c20.822-2.479,33.712,13.058,33.712,29.002
			c0,17.937-14.491,32.26-33.759,30.267"/>
		<g>
			<path d="M144.35,80.855c-13.291-0.919-23.821-9.299-26.378-22.56c-2.476-12.84,4.369-25.563,15.736-31.523
				c17.206-9.019,38.975-1.486,44.071,17.785c5.386,20.367-12.208,37.947-32.101,36.298c-1.074-0.089-1.065,1.582,0,1.67
				c19.725,1.636,37.221-14.516,34.349-34.896c-2.925-20.758-23.143-30.277-42.207-24.341c-13.854,4.313-22.652,17.527-21.897,31.88
				c0.734,13.948,11.4,25.257,25.203,27.039c1.074,0.14,2.143,0.243,3.224,0.318C145.425,82.6,145.418,80.93,144.35,80.855
				L144.35,80.855z"/>
		</g>
	</g>
	<g>
		<path fill="#FFFFFF" d="M60.642,146.486c8.136,1.018,8.613,1.512,14.74,2.277c-4.584-5.551-5.741-4.61-9.357-8.424"/>
		<g>
			<path d="M60.642,147.321c4.937,0.63,9.806,1.644,14.74,2.277c0.801,0.103,0.997-0.943,0.591-1.426
				c-2.799-3.313-6.372-5.368-9.357-8.424c-0.754-0.771-1.934,0.411-1.182,1.182c2.981,3.05,6.567,5.12,9.357,8.424
				c0.197-0.476,0.395-0.95,0.591-1.426c-4.934-0.634-9.804-1.647-14.74-2.277C59.575,145.516,59.589,147.187,60.642,147.321
				L60.642,147.321z"/>
		</g>
	</g>
	<g>
		<path fill="#FFFFFF" d="M84.38,90.136c3.588,2.395,5.352,5.012,8.561,7.635c0.601-3.59,0.601-7.778,0-11.369"/>
		<g>
			<path d="M84.001,90.783c3.117,2.163,5.521,5.088,8.409,7.518c0.38,0.32,1.16,0.279,1.254-0.331c0.603-3.923,0.603-7.845,0-11.768
				c-0.146-0.954-1.592-0.547-1.447,0.398c0.559,3.638,0.56,7.333,0,10.971c0.418-0.11,0.836-0.221,1.254-0.331
				c-2.989-2.515-5.487-5.514-8.712-7.752C83.962,88.936,83.213,90.236,84.001,90.783L84.001,90.783z"/>
		</g>
	</g>
	<g>
		<path fill="#FFFFFF" d="M141.693,77.705c1.555,4.582,2.174,7.433,3.321,11.957c2.658-3.321,3.32-7.972,5.315-11.957"/>
		<g>
			<path d="M140.889,77.927c1.315,3.934,2.307,7.939,3.32,11.957c0.194,0.767,1.121,0.741,1.526,0.2
				c2.664-3.557,3.43-8.008,5.315-11.957c0.462-0.967-0.978-1.814-1.441-0.844c-1.883,3.942-2.662,8.414-5.315,11.957
				c0.509,0.067,1.018,0.134,1.526,0.2c-1.015-4.019-2.006-8.024-3.322-11.957C142.158,76.467,140.546,76.902,140.889,77.927
				L140.889,77.927z"/>
		</g>
	</g>
	<g>
		<path fill="#FFFFFF" d="M180.079,122.629c-2.318,2.319-4.641,4.06-6.96,6.381c3.48,0.578,7.54-0.581,11.6-1.162"/>
		<g>
			<path d="M179.488,122.038c-2.25,2.204-4.709,4.178-6.96,6.381c-0.573,0.563-0.085,1.338,0.591,1.426
				c3.972,0.517,7.919-0.598,11.821-1.192c1.063-0.161,0.609-1.771-0.443-1.609c-3.767,0.573-7.547,1.63-11.378,1.132
				c0.197,0.476,0.394,0.95,0.591,1.426c2.25-2.204,4.709-4.178,6.96-6.381C181.44,122.465,180.259,121.285,179.488,122.038
				L179.488,122.038z"/>
		</g>
	</g>
	<g>
		<path d="M36.694,124.609c-0.364-2.804,1.526-4.443-1.991-5.125c-8.332,1.719-12.68,18.064-3.994,17.336
			c3.476-0.177,5.172-9.033,5.852-12.543"/>
		<g>
			<path d="M37.529,124.609c-0.109-1.795,0.796-3.826-0.713-5.189c-1.643-1.484-3.836-0.394-5.389,0.567
				c-3.846,2.379-6.117,7.382-6.306,11.77c-0.163,3.8,2.497,6.435,6.293,5.786c4.295-0.734,5.333-9.86,5.95-13.044
				c0.205-1.052-1.404-1.5-1.609-0.443c-0.603,3.103-1.248,6.232-2.528,9.138c-1.725,3.914-6.079,3.395-6.426-0.877
				c-0.255-3.136,1.332-6.449,3.237-8.834c0.904-1.131,2.049-2.008,3.324-2.678c3.355-1.762,2.396,2.175,2.496,3.805
				C35.925,125.679,37.595,125.686,37.529,124.609L37.529,124.609z"/>
		</g>
	</g>
	<g>
		<g>
			<path d="M35.004,124.013c3.582-0.046,7.171-0.619,10.646-1.464c1.047-0.254,0.603-1.864-0.443-1.609
				c-3.339,0.811-6.763,1.358-10.202,1.403C33.928,122.356,33.927,124.026,35.004,124.013L35.004,124.013z"/>
		</g>
	</g>
	<g>
		<path d="M43.931,119.753c1.536,5.376,10.434,13.091,13.178,11.366c10.83-2.066-5.727-17.744-11.987-14.291
			c-1.535,1.536-0.945,1.877-0.945,3.413"/>
		<g>
			<path d="M43.125,119.975c1.634,5.029,6.824,10.653,12.01,12.097c3.412,0.95,6.911-2.057,6.246-5.464
				c-0.844-4.318-5.697-7.955-9.348-9.803c-3.88-1.964-8.987-2.048-8.692,3.437c0.058,1.071,1.728,1.076,1.67,0
				c-0.281-5.224,5.538-2.487,7.986-0.981c2.727,1.679,5.628,4.318,6.677,7.431c1.181,3.506-3.495,4.25-5.76,3.111
				c-3.86-1.941-7.836-6.138-9.178-10.271C44.404,118.512,42.792,118.947,43.125,119.975L43.125,119.975z"/>
		</g>
	</g>
	<g>
		<g>
			<path d="M32.09,133.328c-0.11,8.808,4.604,17.384,14.526,15.804c9.035-1.438,12.355-10.914,9.302-18.693
				c-0.389-0.991-2.004-0.56-1.609,0.443c2.771,7.061,0.186,14.503-7.543,16.516c-9.007,2.346-13.099-6.602-13.006-14.069
				C33.773,132.251,32.104,132.252,32.09,133.328L32.09,133.328z"/>
		</g>
	</g>
	<g>
		<g>
			<path d="M44.286,137.574c0.012,1.315-0.166,3.941-1.939,4.174c-1.133,0.149-1.852-0.77-1.755-1.829
				c0.098-1.073-1.573-1.063-1.67,0c-0.18,1.964,1.447,3.647,3.425,3.499c2.863-0.213,3.63-3.499,3.609-5.844
				C45.946,136.498,44.276,136.497,44.286,137.574L44.286,137.574z"/>
		</g>
	</g>
	<g>
		<g>
			<path d="M44.52,138.518c0.941,2.016,2.882,3.918,5.262,3.804c2.233-0.107,2.789-2.295,2.184-4.111
				c-0.34-1.017-1.953-0.581-1.611,0.443c0.354,1.057,0.289,2.196-1.114,1.986c-1.567-0.233-2.651-1.624-3.278-2.966
				C45.506,136.699,44.066,137.548,44.52,138.518L44.52,138.518z"/>
		</g>
	</g>
	<g>
		<g>
			<path d="M47.35,135.326c2.154,0,2.154-3.34,0-3.34S45.195,135.326,47.35,135.326L47.35,135.326z"/>
		</g>
	</g>
	<g>
		<g>
			<path d="M40.744,136.324c2.154,0,2.154-3.34,0-3.34S38.59,136.324,40.744,136.324L40.744,136.324z"/>
		</g>
	</g>
	<g>
		<g>
			<path d="M81.747,67.956c4.778-6.063-9.644-9.117-12.684-4.328c-1.694,2.67-1.245,8.911,2.815,9.334
				c2.258,0.235,4.509-0.062,6.754,0.355c2.891,0.536,4.835,3.824,3.616,6.504c-1.301,2.861-5.677,2.492-8.135,2.143
				c-2.959-0.421-4.239-1.953-4.708-4.712c-0.162-0.952-1.607-0.547-1.447,0.398c0.254,1.493,0.393,3.638,1.904,4.502
				c2.209,1.263,4.88,1.519,7.385,1.543c4.205,0.042,7.726-2.95,6.676-7.27c-0.445-1.831-2.041-3.167-3.582-4.063
				c-3.309-1.925-8.938,1.112-10.526-3.51c-1.305-3.796,1.584-5.834,4.948-6.016c1.881-0.101,8.403,0.91,5.923,4.059
				C80.095,67.646,81.148,68.716,81.747,67.956L81.747,67.956z"/>
		</g>
	</g>
	<g>
		<g>
			<path d="M72.491,59.338c0,8.811,0,17.62,0,26.431c0,0.968,1.5,0.968,1.5,0c0-8.811,0-17.62,0-26.431
				C73.991,58.371,72.491,58.371,72.491,59.338L72.491,59.338z"/>
		</g>
	</g>
	<g>
		<g>
			<path d="M75.909,58.882c-0.457,9.086,0.385,18.146,0.454,27.229c0.008,0.967,1.508,0.968,1.5,0
				c-0.069-9.084-0.911-18.144-0.454-27.229C77.458,57.915,75.958,57.919,75.909,58.882L75.909,58.882z"/>
		</g>
	</g>
	<g>
		<g>
			<path d="M145.52,33.285c-1.387,4.266-5.72,6.715-9.258,9.047c-4.048,2.669-7.924,5.581-12.112,8.035
				c-0.928,0.544-0.088,1.987,0.844,1.441c4.831-2.83,9.34-6.187,14.001-9.285c3.374-2.244,6.838-4.801,8.137-8.795
				C147.464,32.702,145.852,32.266,145.52,33.285L145.52,33.285z"/>
		</g>
	</g>
	<g>
		<g>
			<path d="M124.192,52.429c15.345,0,30.69-0.005,46.035-0.127c1.076-0.009,1.077-1.679,0-1.67
				c-15.345,0.122-30.69,0.127-46.035,0.127C123.115,50.759,123.115,52.429,124.192,52.429L124.192,52.429z"/>
		</g>
	</g>
	<g>
		<g>
			<path d="M146.24,34.352c2.705,3.217,7.135,5.492,10.552,7.832c4.214,2.886,9.118,5.58,12.72,9.241
				c0.757,0.769,1.937-0.413,1.182-1.182c-3.23-3.282-7.536-5.723-11.311-8.306c-3.838-2.627-8.936-5.168-11.961-8.768
				C146.728,32.345,145.553,33.533,146.24,34.352L146.24,34.352z"/>
		</g>
	</g>
	<g>
		<g>
			<path d="M131.607,51.626c-0.694,2.074-0.575,4.282-0.494,6.441c0.145,3.88-0.274,7.578-1.023,11.391
				c-0.206,1.052,1.403,1.5,1.611,0.443c0.609-3.105,1.096-6.159,1.167-9.327c0.063-2.833-0.571-5.751,0.349-8.505
				C133.56,51.045,131.946,50.609,131.607,51.626L131.607,51.626z"/>
		</g>
	</g>
	<g>
		<g>
			<path d="M131.023,70.895c11.729,0.047,23.452,0.781,35.159-0.253c1.063-0.094,1.073-1.765,0-1.67
				c-11.707,1.034-23.431,0.3-35.159,0.253C129.946,69.221,129.947,70.891,131.023,70.895L131.023,70.895z"/>
		</g>
	</g>
	<g>
		<g>
			<path d="M164.841,51.848c-0.025,5.877,1.011,11.699,0.631,17.58c-0.069,1.076,1.601,1.069,1.67,0
				c0.38-5.881-0.656-11.703-0.631-17.58C166.516,50.771,164.846,50.771,164.841,51.848L164.841,51.848z"/>
		</g>
	</g>
	<g>
		<g>
			<path d="M161.168,69.711c-0.896-4.098,0.315-8.337-0.885-12.395c-0.305-1.03-1.916-0.592-1.609,0.443
				c1.19,4.028-0.011,8.301,0.885,12.395C159.788,71.206,161.398,70.761,161.168,69.711L161.168,69.711z"/>
		</g>
	</g>
	<g>
		<g>
			<path d="M158.846,56.45c-1.645,0-3.289,0-4.934,0c-1.077,0-1.077,1.67,0,1.67c1.645,0,3.289,0,4.934,0
				C159.923,58.12,159.923,56.45,158.846,56.45L158.846,56.45z"/>
		</g>
	</g>
	<g>
		<g>
			<path d="M151.96,57.285c0.109,4.242,0.018,8.487,0.127,12.729c0.026,1.047,1.654,1.05,1.627,0
				c-0.109-4.242-0.018-8.487-0.127-12.729C153.561,56.238,151.933,56.235,151.96,57.285L151.96,57.285z"/>
		</g>
	</g>
	<g>
		<g>
			<path d="M135.499,55.641c-0.009,2.747-0.099,5.49,0.252,8.222c0.135,1.053,1.807,1.066,1.67,0
				c-0.351-2.731-0.261-5.475-0.252-8.222C137.172,54.563,135.502,54.563,135.499,55.641L135.499,55.641z"/>
		</g>
	</g>
	<g>
		<g>
			<path d="M136.586,56.35c3.205-0.019,6.406-0.227,9.611-0.126c1.077,0.034,1.074-1.637,0-1.67
				c-3.205-0.101-6.406,0.107-9.611,0.126C135.51,54.686,135.509,56.355,136.586,56.35L136.586,56.35z"/>
		</g>
	</g>
	<g>
		<g>
			<path d="M145.362,55.262c0.024,2.832,0.351,5.689-0.095,8.504c-0.166,1.053,1.443,1.505,1.611,0.443
				c0.47-2.977,0.179-5.951,0.153-8.947C147.023,54.186,145.354,54.185,145.362,55.262L145.362,55.262z"/>
		</g>
	</g>
	<g>
		<g>
			<path d="M136.586,64.822c3.288,0,6.575,0,9.863,0c1.077,0,1.077-1.67,0-1.67c-3.288,0-6.575,0-9.863,0
				C135.509,63.152,135.509,64.822,136.586,64.822L136.586,64.822z"/>
		</g>
	</g>
	<g>
		<g>
			<path fill="#FBB03B" d="M0.807,170.381c9.11-0.22,17.691-3.198,26.624-4.621c1.062-0.169,0.609-1.777-0.443-1.609
				c-8.786,1.399-17.216,4.345-26.181,4.561C-0.269,168.736-0.271,170.407,0.807,170.381L0.807,170.381z"/>
		</g>
	</g>
	<g>
		<g>
			<path fill="#FBB03B" d="M5.177,90c6.964,1.237,13.768,3.311,20.882,3.474c1.077,0.024,1.075-1.646,0-1.67
				c-6.965-0.16-13.622-2.202-20.438-3.415C4.567,88.202,4.117,89.812,5.177,90L5.177,90z"/>
		</g>
	</g>
	<g>
		<g>
			<path fill="#FBB03B" d="M52.04,23.339c6.888,3.443,13.774,6.886,20.66,10.331c0.961,0.48,1.807-0.96,0.844-1.441
				c-6.887-3.445-13.773-6.888-20.66-10.331C51.923,21.417,51.077,22.857,52.04,23.339L52.04,23.339z"/>
		</g>
	</g>
	<g>
		<g>
			<path fill="#FBB03B" d="M149.196,0.808c-0.002,4.938,0.012,9.866-1.118,14.702c-0.245,1.047,1.365,1.492,1.609,0.443
				c1.165-4.981,1.177-10.056,1.179-15.146C150.866-0.27,149.196-0.27,149.196,0.808L149.196,0.808z"/>
		</g>
	</g>
	<g>
		<g>
			<path fill="#FBB03B" d="M197.094,64.776c13.088-0.45,22.321-10.958,34.658-13.804c1.05-0.241,0.604-1.852-0.443-1.609
				c-12.159,2.804-21.364,13.301-34.215,13.743C196.02,63.144,196.017,64.813,197.094,64.776L197.094,64.776z"/>
		</g>
	</g>
	<g>
		<g>
			<path fill="#FBB03B" d="M214.311,133.648c11.26,0.315,21.061,6.661,32.143,8.036c1.067,0.133,1.055-1.539,0-1.67
				c-11.094-1.377-20.845-7.72-32.143-8.036C213.233,131.948,213.236,133.618,214.311,133.648L214.311,133.648z"/>
		</g>
	</g>
	<g>
		<g>
			<path fill="#FBB03B" d="M182.899,170.267c10.884,4.738,15.786,16.314,25.25,22.958c0.884,0.621,1.718-0.828,0.844-1.441
				c-9.49-6.662-14.303-18.192-25.25-22.958C182.766,168.399,181.915,169.838,182.899,170.267L182.899,170.267z"/>
		</g>
	</g>
	<g id="Wi-Fi_3_">
		<g>
			<path fill-rule="evenodd" clip-rule="evenodd" d="M195.587,116.849c-1.358,0-2.459,1.102-2.459,2.458
				c0,1.358,1.101,2.46,2.459,2.46c1.354,0,2.457-1.102,2.457-2.46C198.044,117.95,196.941,116.849,195.587,116.849z
				 M208.758,108.256c-3.289-3.912-8.087-6.155-13.171-6.155s-9.883,2.243-13.171,6.155c-0.437,0.519-0.369,1.295,0.15,1.731
				c0.23,0.192,0.51,0.287,0.789,0.287c0.352,0,0.698-0.147,0.94-0.438c2.818-3.354,6.936-5.277,11.291-5.277
				c4.354,0,8.47,1.924,11.287,5.277c0.244,0.291,0.592,0.438,0.942,0.438c0.277,0,0.56-0.095,0.79-0.287
				C209.127,109.551,209.192,108.774,208.758,108.256z M195.587,107.019c-3.631,0-7.061,1.601-9.407,4.394
				c-0.438,0.521-0.371,1.296,0.148,1.732c0.23,0.192,0.51,0.287,0.789,0.287c0.352,0,0.705-0.147,0.945-0.438
				c1.877-2.233,4.621-3.518,7.524-3.518s5.645,1.284,7.523,3.518c0.245,0.291,0.592,0.438,0.946,0.438
				c0.278,0,0.557-0.095,0.79-0.287c0.516-0.437,0.583-1.212,0.146-1.732C202.646,108.619,199.217,107.019,195.587,107.019z
				 M195.587,111.934c-2.181,0-4.237,0.961-5.646,2.637c-0.437,0.52-0.37,1.295,0.153,1.731c0.231,0.192,0.511,0.287,0.788,0.287
				c0.352,0,0.697-0.147,0.94-0.437c0.94-1.119,2.31-1.761,3.764-1.761c1.45,0,2.822,0.642,3.762,1.761
				c0.242,0.289,0.593,0.437,0.941,0.437c0.278,0,0.56-0.095,0.789-0.287c0.521-0.437,0.587-1.212,0.151-1.731
				C199.822,112.895,197.765,111.934,195.587,111.934z"/>
		</g>
	</g>
</g>
</svg>
