<?xml version="1.0" encoding="utf-8"?>
<!-- Generator: Adobe Illustrator 16.0.0, SVG Export Plug-In . SVG Version: 6.00 Build 0)  -->
<!DOCTYPE svg PUBLIC "-//W3C//DTD SVG 1.1//EN" "http://www.w3.org/Graphics/SVG/1.1/DTD/svg11.dtd">
<svg version="1.1" xmlns="http://www.w3.org/2000/svg" xmlns:xlink="http://www.w3.org/1999/xlink" x="0px" y="0px"
	 width="383.496px" height="166.78px" viewBox="0 0 383.496 166.78" enable-background="new 0 0 383.496 166.78"
	 xml:space="preserve">
<g id="_x31_0_x3000_特集一覧_x3000_category">
</g>
<g id="_x31_1_x3000_特集個別_x3000_">
</g>
<g id="_x31_2_x3000_サポート_x3000_suport">
</g>
<g id="_x31_3_x3000_住居エリア情報_area">
</g>
<g id="_x31_4_x3000_物件タイプ情報_x3000_style">
</g>
<g id="_x31_5_x3000_内覧_x30FB_入居フロー_x3000_step">
	<g>
		<path fill="none" stroke="#CCCCCC" stroke-miterlimit="10" d="M383,156c0,5.523-4.477,10-10,10H11c-5.523,0-10-4.477-10-10V11
			C1,5.477,5.477,1,11,1h362c5.523,0,10,4.477,10,10V156z"/>
	</g>
	<line fill="none" stroke="#E6E6E6" stroke-miterlimit="10" x1="55.5" y1="58" x2="316.5" y2="58"/>
	<line fill="none" stroke="#E6E6E6" stroke-miterlimit="10" x1="54.5" y1="74" x2="315.5" y2="74"/>
	<g>
		<rect x="55.5" y="93.5" width="262" height="45"/>
	</g>
	<g>
		<path fill="#FFFFFF" d="M139.713,119.032c-1.374,0.166-2.611,0.249-3.709,0.249c-1.832,0-3.097-0.183-3.791-0.549
			c-0.695-0.366-1.041-0.907-1.041-1.621c0-0.901,0.479-1.714,1.435-2.439l1.03,0.772c-0.654,0.625-0.982,1.138-0.982,1.538
			c0,0.121,0.02,0.229,0.062,0.324c0.041,0.095,0.143,0.19,0.302,0.287c0.162,0.097,0.455,0.176,0.88,0.238
			c0.424,0.062,0.962,0.095,1.615,0.099h0.376c1.143,0,2.342-0.093,3.597-0.28L139.713,119.032z M139.328,112.455
			c-0.223,0.038-0.475,0.103-0.748,0.194c-0.273,0.091-0.5,0.177-0.675,0.256c-0.176,0.079-0.829,0.395-1.958,0.948l-0.637-0.912
			c0.132-0.055,0.531-0.242,1.202-0.56c-1.022,0.011-2.558,0.052-4.605,0.125l-0.04-1.284c0.98-0.035,2.846-0.052,5.602-0.052
			c0.637,0,1.096,0.001,1.379,0.005L139.328,112.455z"/>
		<path fill="#FFFFFF" d="M145.734,119.4l-0.385-1.295c1.374-0.152,2.402-0.468,3.094-0.948c0.691-0.479,1.037-1.196,1.037-2.149
			c0-0.798-0.25-1.437-0.746-1.919c-0.5-0.481-1.186-0.764-2.066-0.847c-0.072,1.934-0.434,3.5-1.084,4.7
			c-0.651,1.2-1.471,1.8-2.457,1.8c-0.645,0-1.163-0.303-1.561-0.909c-0.398-0.606-0.595-1.299-0.595-2.079v-0.129
			c0-1.194,0.479-2.252,1.442-3.172c0.961-0.92,2.174-1.415,3.638-1.484h0.213c1.397,0,2.546,0.354,3.446,1.064
			c0.899,0.709,1.349,1.673,1.349,2.892c0,1.336-0.453,2.382-1.36,3.138C148.793,118.82,147.473,119.265,145.734,119.4z
			 M145.213,112.393c-0.779,0.183-1.438,0.59-1.98,1.222c-0.544,0.632-0.816,1.329-0.816,2.092c0,0.394,0.066,0.756,0.202,1.087
			c0.134,0.332,0.323,0.497,0.563,0.497c0.486,0,0.93-0.473,1.327-1.419C144.905,114.927,145.141,113.767,145.213,112.393z"/>
		<path fill="#FFFFFF" d="M155.65,115.469c-0.169,0.104-0.488,0.242-0.955,0.414v3.625h-1.294v-3.19
			c-0.735,0.228-1.286,0.383-1.651,0.466l-0.268-1.274c0.42-0.063,1.059-0.211,1.919-0.446v-1.973h-0.487
			c-0.131,0.684-0.281,1.2-0.455,1.549l-1.052-0.363c0.142-0.397,0.267-0.946,0.376-1.646c0.111-0.701,0.168-1.404,0.168-2.108
			l1.195,0.046c-0.004,0.494-0.027,0.96-0.072,1.398h0.327v-1.833h1.294v1.833h0.605v0.86c0.359-0.874,0.619-1.811,0.777-2.813
			l1.355,0.14c-0.022,0.214-0.09,0.514-0.2,0.901h3.978c0,1.861-0.022,3.381-0.068,4.56c-0.045,1.179-0.111,2.002-0.196,2.47
			c-0.087,0.468-0.247,0.806-0.479,1.015c-0.233,0.209-0.55,0.313-0.946,0.313h-1.273l-0.155-1.253h0.952
			c0.167,0,0.301-0.049,0.406-0.147c0.106-0.099,0.186-0.269,0.242-0.51c0.055-0.242,0.102-0.646,0.141-1.214
			c0.037-0.568,0.058-1.266,0.061-2.095v-2.077h-0.111c-0.063,1.433-0.381,2.845-0.952,4.236c-0.571,1.392-1.235,2.433-1.991,3.123
			l-0.85-0.797c0.7-0.729,1.285-1.697,1.753-2.906c0.468-1.208,0.738-2.427,0.81-3.656h-0.263c-0.144,1.101-0.449,2.202-0.923,3.301
			c-0.473,1.1-1.044,2.014-1.717,2.742l-0.857-0.741c0.574-0.635,1.059-1.434,1.457-2.395c0.396-0.961,0.664-1.931,0.802-2.908
			h-0.167l-0.346,0.901c-0.1,0.252-0.208,0.489-0.323,0.712c-0.116,0.223-0.233,0.424-0.35,0.604l-1.01-0.585
			c0.112-0.193,0.224-0.412,0.329-0.658h-0.49v1.59c0.354-0.121,0.615-0.223,0.777-0.306L155.65,115.469z"/>
		<path fill="#FFFFFF" d="M165.027,119.561h-1.408v-4.542c-0.199,0.29-0.451,0.626-0.768,1.01l-0.88-0.813
			c0.411-0.511,0.872-1.246,1.382-2.206c0.513-0.96,0.907-1.961,1.188-3.004l1.428,0.254c-0.278,0.977-0.672,1.918-1.18,2.822h0.238
			V119.561z M169.684,119.446h-1.498v-3.268H165.4v-1.253h2.785v-1.973h-1.133c-0.18,0.418-0.447,0.906-0.803,1.466l-1.131-0.596
			c0.254-0.39,0.499-0.916,0.737-1.577c0.237-0.661,0.413-1.293,0.528-1.898l1.397,0.145c-0.056,0.314-0.163,0.739-0.327,1.274h0.73
			v-1.631h1.498v1.631h2.236v1.186h-2.236v1.973h2.578v1.253h-2.578V119.446z"/>
		<path fill="#FFFFFF" d="M179.622,117.737h-1.477l0.005-2.035c-1.232,0.604-1.85,1.168-1.85,1.693c0,0.521,0.594,0.782,1.783,0.782
			l0.574-0.005c1.58,0,2.754-0.057,3.521-0.171l0.072,1.295c-0.97,0.093-1.921,0.14-2.854,0.14c-1.792,0-2.993-0.153-3.604-0.458
			c-0.613-0.305-0.918-0.777-0.918-1.416c0-1.05,1.004-2.08,3.008-3.092c-0.088-0.114-0.223-0.171-0.402-0.171
			c-0.324,0-0.73,0.116-1.214,0.347c-0.485,0.231-1.034,0.613-1.64,1.145c-0.42,0.373-0.723,0.625-0.906,0.756l-0.9-0.974
			c1.199-0.891,2.109-1.885,2.723-2.983h-2.209v-1.228h2.75c0.144-0.417,0.25-0.81,0.325-1.176l1.522,0.083
			c-0.098,0.428-0.195,0.792-0.297,1.093h3.42v1.228h-3.916c-0.092,0.179-0.256,0.456-0.496,0.829
			c0.345-0.114,0.674-0.171,0.992-0.171c0.706,0,1.213,0.217,1.523,0.652c0.449-0.193,1.396-0.573,2.84-1.139l0.604,1.232
			c-0.68,0.231-1.695,0.594-3.046,1.087c0.035,0.259,0.053,0.537,0.053,0.834L179.622,117.737z"/>
		<path fill="#FFFFFF" d="M187.98,114.014h-2.693v5.505h-1.393v-9.229h4.086V114.014z M186.676,111.818v-0.668h-1.389v0.668H186.676
			z M186.676,113.165v-0.647h-1.389v0.647H186.676z M187.426,118.043v0.28h-1.346v-3.63h4.614v3.351H187.426z M187.426,116.997
			h1.941v-1.315h-1.941V116.997z M192.973,118.478c0,0.269-0.113,0.495-0.34,0.676c-0.226,0.181-0.498,0.272-0.814,0.272h-1.196
			l-0.141-1.15h0.776c0.083,0,0.16-0.028,0.225-0.085c0.069-0.057,0.104-0.127,0.104-0.209v-3.967h-2.776v-3.723h4.163V118.478z
			 M190.135,111.818h1.451v-0.668h-1.451V111.818z M191.586,112.517h-1.451v0.647h1.451V112.517z"/>
		<path fill="#FFFFFF" d="M199.615,115.956c-0.16,0.48-0.386,1.016-0.674,1.608c-0.291,0.592-0.557,1.029-0.8,1.31
			c-0.245,0.281-0.548,0.422-0.907,0.422c-0.745,0-1.386-0.46-1.92-1.38c-0.536-0.92-0.803-1.978-0.803-3.172
			c0-0.39,0.037-0.969,0.113-1.735c0.072-0.77,0.109-1.347,0.109-1.73h1.584c-0.01,0.349-0.062,0.92-0.155,1.714
			c-0.093,0.735-0.136,1.309-0.136,1.719c0,0.794,0.135,1.492,0.402,2.092s0.495,0.901,0.682,0.901c0.269,0,0.693-0.789,1.273-2.367
			L199.615,115.956z M203.889,117.872l-1.558,0.098c0-1.066-0.187-2.144-0.562-3.231c-0.371-1.087-0.878-2.018-1.52-2.791
			l1.252-0.627C203.094,113.092,203.889,115.276,203.889,117.872z"/>
		<path fill="#FFFFFF" d="M212.43,114.325h-5.514v-0.611c-0.689,0.442-1.325,0.782-1.912,1.021l-0.637-1.088
			c0.766-0.307,1.563-0.777,2.393-1.409c0.828-0.631,1.515-1.329,2.059-2.092h1.549c0.33,0.479,0.895,1.027,1.699,1.642
			c0.805,0.614,1.76,1.151,2.865,1.61l-0.756,1.285c-0.531-0.214-1.114-0.52-1.746-0.917V114.325z M212.098,118.913h-4.951v0.492
			h-1.486v-4.277h7.914v4.251h-1.477V118.913z M207.146,117.769h4.951v-1.497h-4.951V117.769z M207.738,113.144h3.783
			c-0.815-0.608-1.455-1.208-1.916-1.802C209.131,111.977,208.508,112.578,207.738,113.144z"/>
		<path fill="#FFFFFF" d="M217.189,116.541c-0.531,0.78-0.99,1.402-1.367,1.864l-0.797-1.134c0.514-0.601,1.235-1.619,2.164-3.056
			v-1.176h-1.782v-1.17h1.782v-1.693h1.465v2.911c1.049-0.901,2.139-1.352,3.264-1.352c0.97,0,1.754,0.313,2.352,0.937
			c0.602,0.625,0.898,1.435,0.898,2.429c0,0.677-0.15,1.338-0.455,1.986c-0.302,0.647-0.828,1.183-1.572,1.605
			c-0.746,0.423-1.711,0.655-2.896,0.697l-0.32-1.217c0.797-0.079,1.404-0.187,1.823-0.321c0.419-0.135,0.774-0.329,1.074-0.583
			c0.298-0.253,0.521-0.55,0.669-0.891c0.146-0.34,0.222-0.726,0.223-1.157v-0.119c0-0.622-0.154-1.139-0.463-1.551
			c-0.313-0.413-0.736-0.619-1.276-0.619c-1.196,0-2.306,0.625-3.319,1.875v4.671h-1.465V116.541z"/>
		<path fill="#FFFFFF" d="M234.699,119.317c-1.063,0.038-1.97,0.057-2.73,0.057c-1.277,0-2.187-0.049-2.73-0.148
			c-0.544-0.098-0.977-0.323-1.297-0.676c-0.322-0.352-0.481-0.872-0.481-1.559v-3.076h-1.518v-1.264h1.518v-2.041h1.538v2.041
			h3.558c-0.011-0.656-0.046-1.352-0.104-2.087l1.518-0.093c0.059,0.659,0.089,1.386,0.089,2.18h1.661v1.264h-1.688
			c-0.063,1.112-0.137,1.822-0.225,2.131c-0.09,0.309-0.244,0.555-0.464,0.738c-0.221,0.183-0.521,0.274-0.901,0.274
			c-0.345,0-0.742-0.114-1.189-0.342c-0.447-0.228-0.863-0.518-1.25-0.87l0.635-1.062c0.314,0.242,0.628,0.434,0.934,0.577
			c0.309,0.144,0.509,0.215,0.602,0.215c0.072,0,0.129-0.02,0.174-0.06c0.043-0.04,0.07-0.089,0.08-0.15
			c0.008-0.061,0.029-0.241,0.06-0.541c0.028-0.301,0.05-0.604,0.06-0.912h-3.547v3.112c0,0.611,0.395,0.939,1.184,0.984
			l0.162,0.005c0.535,0.028,1.124,0.042,1.767,0.042c0.952,0,1.815-0.036,2.589-0.109V119.317z"/>
		<path fill="#FFFFFF" d="M242.996,117.976c0.843-0.332,1.264-0.86,1.264-1.584c0-0.515-0.208-0.919-0.627-1.215
			c-0.416-0.295-0.938-0.442-1.568-0.442h-0.131c-0.275,0-0.598,0.046-0.97,0.14c-0.371,0.093-0.72,0.214-1.046,0.362
			c-0.327,0.149-0.604,0.297-0.824,0.446c-0.223,0.148-0.74,0.523-1.551,1.124l-0.83-1.041c2.822-1.933,4.626-3.202,5.414-3.806
			h-4.383v-1.212h6.258l0.745,0.797c-0.743,0.494-1.85,1.247-3.321,2.258c0.426-0.111,0.781-0.166,1.068-0.166
			c1.019,0,1.815,0.232,2.391,0.697c0.578,0.464,0.867,1.131,0.867,2.001c0,1.015-0.409,1.794-1.226,2.338
			c-0.816,0.543-1.894,0.815-3.226,0.815c-0.878,0-1.577-0.145-2.092-0.435c-0.519-0.29-0.775-0.714-0.775-1.274
			c0-0.452,0.221-0.833,0.66-1.142c0.44-0.309,0.92-0.463,1.441-0.463C241.823,116.173,242.645,116.774,242.996,117.976z
			 M241.66,118.317c-0.227-0.704-0.634-1.057-1.228-1.057c-0.173,0-0.327,0.048-0.461,0.143c-0.136,0.095-0.202,0.218-0.202,0.37
			c0,0.38,0.445,0.57,1.336,0.57C241.301,118.343,241.486,118.335,241.66,118.317z"/>
	</g>
	<g>
		<path d="M63.098,24.613l-0.291-0.423c0.472-0.205,0.932-0.493,1.387-0.866c0.453-0.373,0.764-0.668,0.934-0.885l0.533,0.307
			c-0.268,0.329-0.67,0.689-1.205,1.08C63.92,24.216,63.469,24.479,63.098,24.613z M62.873,22.135v-0.478h1.752v-2.012h-1.439
			v-0.478h1.439v-1.445h0.617v1.445h2.408v-1.429h0.617v1.429h1.516v0.478h-1.516v2.012h1.795v0.478H62.873z M65.242,21.658h2.408
			v-2.012h-2.408V21.658z M69.654,24.605c-0.342-0.15-0.729-0.39-1.161-0.72s-0.83-0.718-1.192-1.164l0.481-0.283
			c0.636,0.732,1.386,1.304,2.253,1.713L69.654,24.605z"/>
		<path d="M76.618,22.182h-2.185v2.419h-0.6v-2.419h-2.166c-0.128,0.997-0.475,1.841-1.039,2.532l-0.42-0.284
			c0.342-0.466,0.584-0.974,0.723-1.524s0.21-1.175,0.21-1.874v-3.068h6.093v6.043c0,0.155-0.071,0.29-0.217,0.404
			c-0.141,0.114-0.306,0.171-0.49,0.171h-1.063l-0.089-0.552h0.877c0.244,0,0.366-0.102,0.366-0.307V22.182z M71.712,21.688h2.122
			v-1.421h-2.082v0.648C71.752,20.991,71.738,21.249,71.712,21.688z M73.834,18.418h-2.082v1.378h2.082V18.418z M76.618,19.797
			v-1.378h-2.185v1.378H76.618z M74.434,21.688h2.185v-1.421h-2.185V21.688z"/>
		<path d="M84.128,18.807c-0.097,1.178-0.331,2.143-0.705,2.894s-0.994,1.38-1.858,1.888c-0.865,0.508-1.933,0.826-3.203,0.956
			l-0.162-0.586c1.354-0.129,2.538-0.552,3.551-1.266c1.01-0.715,1.571-1.945,1.683-3.69h-5.321v-0.575h5.644
			c-0.052-0.106-0.079-0.227-0.083-0.361c0-0.228,0.085-0.421,0.252-0.579c0.166-0.158,0.373-0.239,0.623-0.245
			c0.232,0,0.432,0.079,0.596,0.237c0.165,0.158,0.25,0.357,0.255,0.598c0,0.23-0.083,0.424-0.248,0.583
			c-0.167,0.158-0.366,0.239-0.603,0.245C84.391,18.904,84.252,18.872,84.128,18.807z M84.531,18.628
			c0.15,0,0.282-0.053,0.395-0.159c0.113-0.106,0.168-0.235,0.168-0.388c0-0.156-0.054-0.289-0.164-0.4
			c-0.111-0.111-0.244-0.167-0.398-0.167c-0.15,0-0.279,0.055-0.392,0.165c-0.112,0.11-0.167,0.24-0.167,0.391
			c0,0.15,0.055,0.281,0.164,0.392C84.248,18.572,84.379,18.628,84.531,18.628z"/>
		<path d="M92.322,21.63h-6.424v-0.575h6.424V21.63z"/>
		<path d="M95.146,20.131c0,0.611-0.027,1.109-0.083,1.493c-0.053,0.385-0.178,0.761-0.369,1.13
			c-0.193,0.369-0.437,0.706-0.729,1.012c-0.293,0.306-0.607,0.546-0.947,0.723l-0.284-0.494c0.323-0.199,0.62-0.462,0.897-0.788
			c0.274-0.327,0.484-0.712,0.633-1.158c0.147-0.445,0.222-1.127,0.222-2.047v-1.639h0.66V20.131z M100.672,21.514
			c-0.331,0.707-0.844,1.323-1.535,1.847c-0.693,0.524-1.377,0.88-2.053,1.066L96.8,24.163v-6.047h0.651V23.6
			c0.429-0.127,0.893-0.39,1.394-0.789c0.501-0.398,0.948-0.945,1.341-1.639L100.672,21.514z"/>
		<path fill="#B3B3B3" d="M63.743,39.945v-4.179c-0.278,0.539-0.545,0.983-0.806,1.332l-0.387-0.314
			c0.354-0.533,0.688-1.179,1.002-1.936c0.313-0.757,0.525-1.433,0.637-2.026l0.583,0.097c-0.182,0.795-0.43,1.547-0.746,2.257
			h0.314v4.77H63.743z M69.285,39.549h-3.674v0.318h-0.567v-6.743h4.836v6.743h-0.595V39.549z M65.611,39.095h3.674v-5.542h-3.674
			V39.095z M66.213,38.415v-2.16h0.938v-1.037H66v-0.431h1.15V33.91h0.563v0.877h1.199v0.431h-1.199v1.037h0.959v2.16H66.213z
			 M66.737,38h1.391v-1.332h-1.391V38z"/>
		<path fill="#B3B3B3" d="M74.047,36.244c-0.207,0.862-0.617,1.595-1.226,2.197c-0.61,0.602-1.317,1.063-2.12,1.385l-0.24-0.439
			c1.057-0.456,1.852-1.084,2.375-1.884c0.525-0.8,0.787-1.598,0.787-2.393v-2.066h0.646v2.121c0.093,0.572,0.32,1.162,0.682,1.769
			c0.366,0.607,0.826,1.118,1.383,1.532c0.556,0.415,1.009,0.691,1.355,0.832l-0.38,0.513c-0.862-0.438-1.575-0.964-2.132-1.579
			C74.619,37.616,74.243,36.954,74.047,36.244z"/>
		<path fill="#B3B3B3" d="M84.128,34.053c-0.097,1.178-0.331,2.143-0.705,2.894s-0.994,1.38-1.858,1.888
			c-0.865,0.508-1.933,0.826-3.203,0.956l-0.162-0.586c1.354-0.129,2.538-0.552,3.551-1.266c1.01-0.715,1.571-1.945,1.683-3.69
			h-5.321v-0.575h5.644c-0.052-0.106-0.079-0.227-0.083-0.361c0-0.228,0.085-0.421,0.252-0.579c0.166-0.158,0.373-0.239,0.623-0.245
			c0.232,0,0.432,0.079,0.596,0.237c0.165,0.158,0.25,0.357,0.255,0.598c0,0.23-0.083,0.424-0.248,0.583
			c-0.167,0.158-0.366,0.239-0.603,0.245C84.391,34.15,84.252,34.118,84.128,34.053z M84.531,33.875c0.15,0,0.282-0.053,0.395-0.159
			c0.113-0.106,0.168-0.235,0.168-0.388c0-0.156-0.054-0.289-0.164-0.4c-0.111-0.111-0.244-0.167-0.398-0.167
			c-0.15,0-0.279,0.055-0.392,0.165c-0.112,0.11-0.167,0.24-0.167,0.391c0,0.15,0.055,0.281,0.164,0.392
			C84.248,33.819,84.379,33.875,84.531,33.875z"/>
		<path fill="#B3B3B3" d="M92.322,36.877h-6.424v-0.575h6.424V36.877z"/>
		<path fill="#B3B3B3" d="M95.146,35.378c0,0.611-0.027,1.109-0.083,1.493c-0.053,0.385-0.178,0.761-0.369,1.13
			c-0.193,0.369-0.437,0.706-0.729,1.012c-0.293,0.306-0.607,0.546-0.947,0.723l-0.284-0.494c0.323-0.199,0.62-0.462,0.897-0.788
			c0.274-0.327,0.484-0.712,0.633-1.158c0.147-0.445,0.222-1.127,0.222-2.047V33.61h0.66V35.378z M100.672,36.76
			c-0.331,0.707-0.844,1.323-1.535,1.847c-0.693,0.524-1.377,0.88-2.053,1.066L96.8,39.409v-6.047h0.651v5.484
			c0.429-0.127,0.893-0.39,1.394-0.789c0.501-0.398,0.948-0.945,1.341-1.639L100.672,36.76z"/>
		<path d="M66.411,51.513l-0.318,0.563c-0.806-0.35-1.813-0.679-3.026-0.987l0.241-0.509C64.182,50.747,65.217,51.058,66.411,51.513
			z M70.154,51.187c-0.602,1.057-1.469,1.911-2.604,2.563s-2.444,1.05-3.924,1.192l-0.162-0.575c0.883-0.109,1.664-0.28,2.349-0.513
			c0.683-0.233,1.257-0.508,1.721-0.826c0.462-0.317,0.841-0.618,1.13-0.903c0.29-0.285,0.602-0.691,0.934-1.22L70.154,51.187z
			 M67.223,49.587l-0.326,0.551c-0.645-0.311-1.65-0.659-3.018-1.045l0.264-0.474c0.365,0.073,0.85,0.202,1.455,0.388
			C66.199,49.194,66.744,49.387,67.223,49.587z M68.811,49.874l-0.445,0.198c-0.188-0.422-0.374-0.785-0.564-1.087l0.425-0.19
			C68.447,49.139,68.645,49.499,68.811,49.874z M69.941,49.637l-0.446,0.183c-0.177-0.412-0.362-0.771-0.556-1.076l0.404-0.19
			C69.553,48.877,69.752,49.239,69.941,49.637z"/>
		<path d="M76.69,54.279c-1.47,0.233-3.573,0.414-6.311,0.544l-0.097-0.614c0.227-0.003,0.51-0.01,0.846-0.023
			c0.354-0.681,0.764-1.602,1.225-2.764c0.464-1.161,0.801-2.123,1.018-2.884l0.699,0.128c-0.293,0.878-0.652,1.849-1.084,2.913
			c-0.428,1.064-0.814,1.924-1.158,2.579c2.256-0.124,3.787-0.25,4.6-0.376c-0.438-0.792-0.973-1.609-1.601-2.451l0.517-0.287
			c0.762,0.901,1.546,2.137,2.354,3.709l-0.684,0.229C76.912,54.738,76.805,54.504,76.69,54.279z"/>
		<path d="M79.227,51.366c-0.161,1.699-0.561,2.967-1.2,3.806l-0.358-0.295c0.296-0.435,0.541-1.05,0.732-1.845
			c0.193-0.795,0.29-1.864,0.294-3.208h-0.847v-0.462h1.196v-1.258h0.583v1.258h1.103v0.462h-1.446c0,0.414-0.008,0.785-0.026,1.111
			h1.414c0,0.901-0.003,1.518-0.008,1.849c-0.005,0.332-0.031,0.699-0.077,1.101c-0.047,0.403-0.104,0.667-0.17,0.794
			c-0.068,0.127-0.169,0.231-0.303,0.313c-0.133,0.082-0.289,0.122-0.464,0.122h-0.664l-0.067-0.521h0.472
			c0.198,0,0.345-0.053,0.44-0.159c0.095-0.106,0.161-0.348,0.2-0.726c0.036-0.378,0.058-1.111,0.058-2.199v-0.144H79.227z
			 M81.832,49.412c-0.23,0.414-0.496,0.819-0.797,1.216l-0.434-0.276c0.199-0.246,0.42-0.614,0.668-1.105
			c0.244-0.491,0.411-0.899,0.496-1.226l0.618,0.117c-0.057,0.163-0.163,0.432-0.317,0.808h3.19v0.466H81.832z M81.474,51.7
			l-0.426,0.097l-0.074-0.462l0.5-0.112v-1.064h0.588v0.932l0.835-0.183v-1.099h0.567v0.971l1.378-0.307l0.148,0.089v2.362
			c0,0.173-0.057,0.31-0.162,0.41c-0.107,0.1-0.248,0.149-0.426,0.149H83.79l-0.052-0.493h0.381c0.208,0,0.311-0.095,0.311-0.284
			v-1.674l-0.966,0.217v2.641h-0.567v-2.513l-0.835,0.19v2.637c0,0.124,0.039,0.22,0.118,0.287c0.078,0.067,0.28,0.106,0.604,0.117
			s0.521,0.016,0.592,0.016c0.385,0,0.704-0.012,0.957-0.037c0.252-0.024,0.397-0.103,0.437-0.235
			c0.038-0.132,0.059-0.343,0.059-0.633l0.491,0.055v0.691c0,0.22-0.092,0.381-0.279,0.483c-0.189,0.102-0.76,0.153-1.716,0.153
			c-0.869,0-1.396-0.044-1.576-0.134c-0.182-0.089-0.273-0.271-0.273-0.546V51.7z"/>
		<path d="M85.494,49.878v-0.439h2.668v0.439H85.494z M86.238,54.834v0.292h-0.535v-2.466h2.207v2.175H86.238z M85.783,48.791
			v-0.423h2.15v0.423H85.783z M85.793,50.923v-0.439h2.092v0.439H85.793z M85.793,51.972v-0.431h2.092v0.431H85.793z M87.35,53.083
			h-1.111v1.313h1.111V53.083z M91.075,53.945c0.446,0.269,1.022,0.506,1.721,0.71l-0.303,0.498
			c-0.715-0.202-1.347-0.487-1.892-0.854c-0.694,0.442-1.447,0.735-2.261,0.877l-0.163-0.438c0.772-0.164,1.433-0.421,1.981-0.773
			c-0.655-0.56-1.083-1.224-1.282-1.993h-0.399v-0.47h3.888C92.297,52.486,91.867,53.3,91.075,53.945z M90.897,48.814h-1.325v0.202
			c0,0.901-0.307,1.599-0.916,2.094l-0.338-0.33c0.451-0.407,0.68-0.988,0.68-1.744v-0.652h2.488v1.845
			c0,0.171,0.084,0.266,0.252,0.284h0.344c0.086,0,0.152-0.022,0.201-0.066c0.051-0.044,0.08-0.111,0.096-0.2
			c0.014-0.089,0.028-0.326,0.045-0.709l0.478,0.059l0.004,0.586c0,0.189-0.011,0.314-0.028,0.375
			c-0.018,0.061-0.053,0.12-0.102,0.177c-0.051,0.057-0.112,0.103-0.185,0.136c-0.073,0.034-0.188,0.058-0.339,0.072
			c-0.155,0.014-0.289,0.021-0.403,0.021c-0.158,0-0.311-0.009-0.46-0.027c-0.146-0.018-0.264-0.076-0.357-0.175
			c-0.089-0.098-0.134-0.216-0.134-0.354V48.814z M90.615,53.626c0.594-0.489,0.947-1.041,1.07-1.654H89.46
			C89.619,52.585,90.006,53.137,90.615,53.626z"/>
		<path fill="#B3B3B3" d="M69.328,69.957h-6.102v-0.556h5.434v-4.525H63.3V64.34h6.028V69.957z"/>
		<path fill="#B3B3B3" d="M77.586,66.426c-0.436,0.759-1,1.415-1.694,1.967s-1.416,0.965-2.165,1.235
			c-0.75,0.271-1.633,0.46-2.647,0.569l-0.136-0.598c0.844-0.085,1.6-0.24,2.269-0.464c0.668-0.224,1.234-0.494,1.699-0.812
			c0.466-0.317,0.854-0.632,1.175-0.944c0.316-0.312,0.641-0.741,0.967-1.288L77.586,66.426z M74.198,65.439l-0.439,0.509
			c-0.923-0.57-1.847-1.05-2.765-1.441l0.334-0.486C72.296,64.384,73.252,64.856,74.198,65.439z"/>
		<path fill="#B3B3B3" d="M80.586,63.936c-0.039,1.525-0.276,2.765-0.711,3.719c-0.436,0.954-1.053,1.769-1.854,2.445l-0.389-0.419
			c0.299-0.267,0.561-0.54,0.785-0.819c0.227-0.28,0.422-0.581,0.591-0.903c0.168-0.322,0.319-0.654,0.456-0.996
			c0.136-0.342,0.242-0.765,0.318-1.268c0.076-0.504,0.124-1.09,0.142-1.758H80.586z M85.246,69.591l-0.502,0.439
			c-0.416-0.427-0.799-0.983-1.148-1.667s-0.598-1.455-0.746-2.315c-0.148-0.859-0.221-1.579-0.221-2.159h0.645v0.062
			c0,1.113,0.155,2.155,0.465,3.125C84.049,68.046,84.553,68.884,85.246,69.591z M83.561,64.018c0-0.233,0.086-0.428,0.258-0.586
			c0.173-0.158,0.372-0.237,0.6-0.237c0.254,0,0.463,0.082,0.625,0.247c0.16,0.165,0.242,0.355,0.242,0.573
			c0,0.249-0.087,0.452-0.26,0.61c-0.174,0.158-0.371,0.237-0.592,0.237c-0.253,0-0.462-0.083-0.627-0.25
			C83.643,64.443,83.561,64.246,83.561,64.018z M84.418,64.581c0.154,0,0.285-0.054,0.399-0.161
			c0.112-0.107,0.169-0.236,0.169-0.387c0-0.155-0.057-0.289-0.168-0.4c-0.109-0.111-0.244-0.167-0.4-0.167
			c-0.144,0-0.272,0.055-0.387,0.165c-0.111,0.11-0.168,0.24-0.168,0.39c0,0.15,0.055,0.281,0.167,0.393
			C84.142,64.525,84.27,64.581,84.418,64.581z"/>
		<path fill="#B3B3B3" d="M92.407,64.985c0,0.697-0.042,1.277-0.128,1.742c-0.085,0.465-0.209,0.866-0.37,1.204
			c-0.162,0.338-0.369,0.639-0.62,0.901s-0.57,0.497-0.957,0.703c-0.389,0.206-0.838,0.374-1.352,0.505
			c-0.516,0.131-1.092,0.225-1.729,0.282l-0.158-0.571c0.63-0.062,1.167-0.151,1.612-0.266c0.444-0.115,0.847-0.267,1.206-0.454
			c0.357-0.188,0.632-0.379,0.817-0.573c0.262-0.274,0.447-0.523,0.556-0.748c0.109-0.224,0.205-0.54,0.288-0.948
			c0.081-0.408,0.124-0.864,0.124-1.369l-0.004-0.272h-5.092V67.3h-0.676v-2.704h2.885v-1.018h0.707v1.018h2.89V64.985z"/>
		<path fill="#B3B3B3" d="M100.257,66.426c-0.435,0.759-1,1.415-1.694,1.967c-0.695,0.553-1.416,0.965-2.164,1.235
			c-0.75,0.271-1.633,0.46-2.646,0.569l-0.137-0.598c0.844-0.085,1.6-0.24,2.269-0.464c0.668-0.224,1.234-0.494,1.7-0.812
			c0.464-0.317,0.855-0.632,1.173-0.944c0.319-0.312,0.642-0.741,0.968-1.288L100.257,66.426z M96.867,65.439l-0.438,0.509
			c-0.924-0.57-1.844-1.05-2.764-1.441L94,64.021C94.968,64.384,95.925,64.856,96.867,65.439z"/>
		<path fill="#B3B3B3" d="M107.674,67.525l-0.408,0.54c-0.537-0.36-1.18-0.713-1.93-1.061c-0.748-0.347-1.416-0.608-2-0.785v4.121
			h-0.691V63.54h0.699v2.082C104.879,66.083,106.323,66.717,107.674,67.525z M106.186,65.059l-0.447,0.198
			c-0.187-0.43-0.375-0.794-0.562-1.091l0.42-0.19C105.823,64.327,106.021,64.688,106.186,65.059z M107.313,64.818L106.871,65
			c-0.168-0.391-0.354-0.749-0.561-1.072l0.408-0.19C106.924,64.054,107.122,64.414,107.313,64.818z"/>
		<path fill="#B3B3B3" d="M112.809,71.561h-0.828c-0.529-0.614-0.91-1.23-1.146-1.849c-0.237-0.619-0.356-1.292-0.356-2.02
			c0-1.406,0.501-2.694,1.503-3.865h0.828v0.039c-0.516,0.453-0.928,1.018-1.238,1.695c-0.309,0.677-0.464,1.387-0.464,2.13
			c0,0.746,0.154,1.456,0.462,2.13c0.309,0.675,0.722,1.241,1.24,1.7V71.561z"/>
		<path fill="#B3B3B3" d="M118.287,64.087l-2.313,5.854h-0.667l-2.312-5.854h0.773l1.896,4.867l1.887-4.867H118.287z"/>
		<path fill="#B3B3B3" d="M120.689,69.941h-2.257v-0.54h0.767v-4.773h-0.767v-0.54h2.257v0.54h-0.765v4.773h0.765V69.941z"/>
		<path fill="#B3B3B3" d="M125.135,69.941h-3.648v-5.854h0.725v5.224h2.924V69.941z"/>
		<path fill="#B3B3B3" d="M129.166,69.941h-3.648v-5.854h0.723v5.224h2.926V69.941z"/>
		<path fill="#B3B3B3" d="M133.377,69.941l-0.602-1.67h-2.541l-0.602,1.67h-0.734l2.168-5.854h0.92l2.164,5.854H133.377z
			 M132.558,67.669l-1.054-2.886l-1.049,2.886H132.558z"/>
		<path fill="#B3B3B3" d="M135.166,71.561h-0.827v-0.039c0.521-0.464,0.935-1.031,1.241-1.704c0.305-0.672,0.46-1.38,0.46-2.126
			c0-0.743-0.155-1.452-0.462-2.126c-0.309-0.674-0.722-1.241-1.239-1.699v-0.039h0.827c1.002,1.171,1.502,2.459,1.502,3.865
			c0,0.725-0.116,1.396-0.351,2.012C136.084,70.32,135.699,70.939,135.166,71.561z"/>
	</g>
	<line fill="none" stroke="#E6E6E6" stroke-miterlimit="10" x1="55.5" y1="13" x2="316.5" y2="13"/>
	<line fill="none" stroke="#E6E6E6" stroke-miterlimit="10" x1="55.5" y1="28" x2="316.5" y2="28"/>
	<line fill="none" stroke="#E6E6E6" stroke-miterlimit="10" x1="55.5" y1="43" x2="316.5" y2="43"/>
	<g>
		<path d="M192.969,17.734v4.269h-0.586v-6.855h2.824v2.587H192.969z M192.969,16.25h1.668v-0.672h-1.668V16.25z M194.637,16.646
			h-1.668v0.641h1.668V16.646z M193.61,21.323l-0.261-0.365c0.332-0.189,0.685-0.455,1.058-0.798
			c0.372-0.343,0.657-0.673,0.854-0.989h-1.57v-0.454h1.729v-0.715h0.552v0.715h1.752v0.454h-1.666
			c0.222,0.288,0.528,0.592,0.916,0.915c0.389,0.322,0.687,0.547,0.894,0.674l-0.338,0.4c-0.596-0.394-1.113-0.852-1.558-1.375v1.95
			h-0.552v-1.946C194.918,20.413,194.314,20.924,193.61,21.323z M198.334,21.921h-0.773l-0.089-0.521h0.722
			c0.07,0,0.134-0.026,0.19-0.08c0.058-0.053,0.085-0.112,0.085-0.177v-3.41h-2.297v-2.587h2.898v6.133
			c0,0.199-0.066,0.356-0.203,0.47C198.734,21.864,198.557,21.921,198.334,21.921z M196.75,16.25h1.719v-0.672h-1.719V16.25z
			 M198.469,16.646h-1.719v0.641h1.719V16.646z"/>
		<path d="M199.502,17.753v-0.427h1.479v-0.563h-1.212v-0.412h1.212v-0.528h-1.325v-0.412h1.325v-0.489h0.567v0.489h1.363v0.412
			h-1.363v0.528h1.149v0.412h-1.149v0.563h1.402v0.427H199.502z M202.107,20.593h-1.759v1.398h-0.552v-3.732h2.885v3.197
			c0,0.15-0.063,0.271-0.186,0.363c-0.125,0.092-0.253,0.138-0.389,0.138h-0.754l-0.066-0.494h0.536c0.19,0,0.284-0.082,0.284-0.245
			V20.593z M202.107,19.214v-0.567h-1.759v0.567H202.107z M200.349,20.196h1.759v-0.59h-1.759V20.196z M204.566,21.964h-0.886
			l-0.065-0.494h0.715c0.172,0,0.26-0.082,0.26-0.245v-1.157h-1.275v-0.462h1.275v-0.928l-1.483-0.008v-0.455l1.483,0.008V17.35
			h-1.006v-0.431h1.371c0.289-0.394,0.496-0.734,0.615-1.021h-1.371c-0.281,0.458-0.602,0.858-0.949,1.2l-0.383-0.268
			c0.576-0.661,0.994-1.329,1.252-2.004l0.561,0.125c-0.07,0.179-0.148,0.351-0.233,0.517h1.76l0.179,0.112
			c-0.155,0.365-0.43,0.812-0.824,1.34h1.174v1.313l0.395,0.004v0.455l-0.395-0.004v1.674h-0.588v-0.291h-0.962v1.32
			c0,0.179-0.058,0.319-0.173,0.421C204.896,21.913,204.748,21.964,204.566,21.964z M205.185,17.35v0.877l0.962,0.004V17.35H205.185
			z M205.185,18.682v0.924h0.962v-0.92L205.185,18.682z"/>
		<path d="M193.828,32.557c0.422,0.645,0.633,1.24,0.633,1.787v0.023c0,0.311-0.041,0.573-0.12,0.787
			c-0.08,0.213-0.194,0.368-0.341,0.462c-0.148,0.095-0.363,0.142-0.646,0.142h-0.158l-0.117-0.466h0.086
			c0.039,0.002,0.068,0.004,0.088,0.004c0.168,0,0.296-0.018,0.38-0.054c0.084-0.037,0.155-0.113,0.214-0.229
			c0.057-0.116,0.087-0.322,0.087-0.617c0-0.303-0.065-0.63-0.198-0.981c-0.128-0.351-0.266-0.606-0.403-0.767
			c-0.008-0.01-0.013-0.031-0.013-0.062c0-0.023,0-0.04,0.005-0.051c0.103-0.253,0.215-0.565,0.333-0.936
			c0.12-0.37,0.18-0.607,0.18-0.71h-0.944v6.354h-0.551v-6.774h2.128l0.063,0.097c-0.049,0.2-0.154,0.546-0.328,1.039
			C194.034,32.096,193.907,32.414,193.828,32.557z M194.566,37.02l-0.305-0.299c0.85-0.593,1.493-1.217,1.928-1.872h-0.771
			c-0.195,0.223-0.434,0.449-0.717,0.68l-0.299-0.275c0.432-0.371,0.813-0.844,1.146-1.422h-0.819v-0.462h4.567v0.462h-3.16
			c-0.088,0.161-0.211,0.354-0.375,0.579h3.298v0.292c0,0.557-0.021,1.006-0.065,1.348s-0.098,0.569-0.16,0.682
			c-0.064,0.113-0.152,0.204-0.264,0.274c-0.109,0.07-0.217,0.118-0.322,0.144c-0.106,0.026-0.283,0.039-0.529,0.039
			c-0.133,0-0.285-0.001-0.453-0.004l-0.098-0.485h0.587c0.315,0,0.518-0.154,0.604-0.462c0.087-0.308,0.131-0.708,0.131-1.2
			c0-0.06-0.003-0.122-0.004-0.187h-0.415c-0.398,0.904-1.035,1.667-1.902,2.288l-0.336-0.284c0.766-0.608,1.327-1.277,1.682-2.004
			h-0.741c-0.237,0.404-0.58,0.821-1.034,1.251C195.285,36.529,194.895,36.835,194.566,37.02z M195.066,32.817v-2.35h3.775v2.35
			H195.066z M195.65,31.438h2.613v-0.575h-2.613V31.438z M198.264,31.819h-2.613v0.594h2.613V31.819z"/>
		<path d="M199.982,36.895v-0.513h5.852v-1.328h-5.703v-0.505h5.703v-1.266h-5.776v-0.478h2.89v-2.622h0.613v2.622h2.89v4.366
			h-0.616v-0.276H199.982z M201.102,32.44c-0.204-0.471-0.508-1.028-0.908-1.67l0.541-0.237c0.332,0.513,0.646,1.067,0.938,1.662
			L201.102,32.44z M205.289,32.471l-0.537-0.217c0.385-0.518,0.727-1.11,1.026-1.775l0.622,0.218
			C205.918,31.551,205.548,32.143,205.289,32.471z"/>
		<path d="M209.649,30.413c0,0.29-0.017,0.637-0.039,1.041h2.823v0.517h-2.867c-0.093,0.997-0.314,1.982-0.659,2.956
			c-0.347,0.974-0.698,1.678-1.058,2.113l-0.461-0.303c0.375-0.533,0.713-1.249,1.012-2.146c0.299-0.897,0.483-1.771,0.554-2.62
			h-1.414v-0.517h1.449c0.015-0.334,0.022-0.681,0.022-1.041H209.649z M214.311,36.751c-0.412,0.07-0.97,0.105-1.674,0.105
			c-0.59,0-1.057-0.025-1.394-0.074c-0.338-0.049-0.606-0.162-0.798-0.338c-0.193-0.176-0.291-0.391-0.291-0.645
			c0-0.368,0.146-0.716,0.442-1.045L211.031,35c-0.189,0.254-0.283,0.499-0.283,0.734c-0.002,0.161,0.086,0.299,0.262,0.416
			s0.675,0.175,1.49,0.175c0.619,0,1.213-0.035,1.779-0.105L214.311,36.751z M214.08,32.712l-0.01,0.509
			c-0.124-0.005-0.24-0.008-0.347-0.008c-0.927,0-1.946,0.053-3.056,0.159l-0.04-0.513c1.013-0.106,2.014-0.159,3.003-0.159
			C213.801,32.7,213.954,32.704,214.08,32.712z"/>
		<path d="M217.223,37.198l-0.144-0.509c1.113-0.088,1.965-0.335,2.554-0.742c0.592-0.406,0.885-1.155,0.885-2.245
			c0-0.764-0.119-1.349-0.354-1.754s-0.549-0.608-0.938-0.608c-0.37,0.003-0.753,0.124-1.143,0.363
			c-0.394,0.24-0.727,0.643-1.002,1.21c-0.275,0.567-0.41,1.268-0.408,2.101l-0.551,0.035c-0.096-0.596-0.145-1.265-0.145-2.008
			c0-0.95,0.074-1.816,0.225-2.598l0.615,0.054c-0.174,0.938-0.277,1.8-0.311,2.587h0.055c0.189-0.705,0.535-1.258,1.042-1.661
			c0.507-0.402,1.041-0.605,1.603-0.608c0.598,0,1.07,0.251,1.418,0.754c0.347,0.502,0.521,1.223,0.521,2.163
			c0,1.212-0.332,2.074-0.995,2.587C219.486,36.833,218.512,37.125,217.223,37.198z"/>
		<path d="M222.371,37.187l-0.109-0.521c0.225-0.016,0.527-0.04,0.902-0.074v-5.687h2.428V30.16h0.625v0.746h2.467v3.181h-2.641
			c0.266,0.502,0.598,0.927,0.992,1.274c0.924-0.422,1.614-0.8,2.075-1.134l0.416,0.412c-0.492,0.332-1.181,0.682-2.063,1.052
			c0.55,0.386,1.296,0.725,2.233,1.018l-0.365,0.494c-0.971-0.308-1.775-0.712-2.412-1.212c-0.637-0.5-1.146-1.134-1.531-1.903
			h-1.614v2.447c1.411-0.143,2.331-0.255,2.757-0.338v0.498C225.814,36.825,224.428,36.99,222.371,37.187z M223.774,32.261h4.296
			v-0.909h-4.296V32.261z M228.07,32.7h-4.296v0.932h4.296V32.7z"/>
		<path d="M197.774,47.353v-1.266h-4.575v2.109c0,1.81-0.336,3.219-1.007,4.226l-0.403-0.276c0.273-0.468,0.48-1.032,0.623-1.691
			c0.141-0.659,0.213-1.26,0.213-1.804v-2.995h5.724v1.55c0,1.228,0.039,2.172,0.115,2.833s0.168,1.1,0.274,1.315
			c0.107,0.215,0.201,0.322,0.283,0.322c0.066,0,0.115-0.097,0.149-0.29c0.032-0.193,0.056-0.507,0.071-0.942l0.439,0.089
			c-0.036,0.914-0.102,1.458-0.196,1.633c-0.097,0.175-0.237,0.269-0.43,0.282h-0.026c-0.117,0-0.232-0.054-0.344-0.161
			c-0.115-0.108-0.226-0.273-0.337-0.496c-0.114-0.223-0.209-0.49-0.293-0.802s-0.153-0.705-0.204-1.177
			C197.8,49.341,197.774,48.521,197.774,47.353z M193.172,52.324l-0.105-0.478c0.69-0.044,1.398-0.1,2.124-0.167v-1.519h-0.862v0.21
			h-0.523V47.92h1.386v-0.765c-0.598,0.054-1.089,0.088-1.475,0.101l-0.089-0.423c1.643-0.096,2.785-0.228,3.429-0.396l0.229,0.419
			c-0.373,0.088-0.883,0.168-1.526,0.241v0.824h1.401v2.241h-1.401v1.46c0.538-0.054,0.954-0.104,1.254-0.151
			c-0.155-0.326-0.296-0.601-0.419-0.823l0.504-0.179c0.203,0.311,0.494,0.892,0.875,1.744l-0.544,0.178
			c-0.048-0.119-0.124-0.292-0.229-0.521c-0.619,0.07-1.226,0.146-1.822,0.229C194.885,52.167,194.15,52.241,193.172,52.324z
			 M195.19,48.316h-0.862v1.437h0.862V48.316z M196.619,48.316h-0.86v1.437h0.86V48.316z"/>
		<path d="M207.018,52.32c-0.575,0.005-1.627,0.008-3.154,0.008c-0.896,0-1.566-0.073-2.01-0.219
			c-0.445-0.146-0.754-0.374-0.93-0.682c-0.431,0.44-0.857,0.762-1.274,0.967l-0.21-0.521c0.146-0.064,0.344-0.179,0.596-0.344
			c0.252-0.164,0.434-0.298,0.547-0.402v-2.377h-1.029V48.27h1.638v2.493c0,0.244,0.087,0.442,0.257,0.596
			c0.172,0.154,0.371,0.258,0.602,0.311s0.447,0.094,0.649,0.122c0.2,0.029,0.788,0.043,1.761,0.043c1.252,0,2.143-0.017,2.67-0.051
			L207.018,52.32z M200.752,47.151c-0.225-0.409-0.535-0.856-0.934-1.34l0.495-0.307c0.417,0.515,0.744,0.953,0.982,1.313
			L200.752,47.151z M205.898,49.959h-1.341v1.371h-0.581v-1.371h-1.267v1.437h-0.578v-4.148h1.817
			c-0.264-0.182-0.656-0.42-1.185-0.715l0.381-0.322c0.253,0.14,0.598,0.343,1.032,0.61c0.602-0.282,1.079-0.54,1.434-0.773h-3.602
			v-0.447h4.181l0.372,0.357c-0.352,0.326-1.005,0.702-1.961,1.126c0.059,0.037,0.143,0.091,0.252,0.164h1.636v3.554
			c0,0.181-0.064,0.322-0.194,0.423c-0.129,0.101-0.293,0.151-0.494,0.151h-0.756l-0.047-0.493h0.598
			c0.201,0,0.303-0.089,0.303-0.268V49.959z M203.977,48.374v-0.718h-1.267v0.718H203.977z M202.71,49.543h1.267V48.79h-1.267
			V49.543z M204.558,47.656v0.718h1.341v-0.718H204.558z M204.558,49.543h1.341V48.79h-1.341V49.543z"/>
		<path d="M214.248,49.279c-0.293,1.036-0.725,1.797-1.294,2.284s-1.304,0.73-2.198,0.73c-0.35,0-0.66-0.035-0.933-0.105
			c-0.271-0.07-0.505-0.174-0.698-0.313c-0.195-0.138-0.351-0.312-0.466-0.52c-0.116-0.208-0.191-0.435-0.226-0.678
			c-0.031-0.243-0.049-0.646-0.049-1.208c0-0.956,0.059-2.129,0.173-3.519h0.637c-0.137,1.333-0.205,2.517-0.205,3.55
			c0,0.36,0.007,0.664,0.024,0.911c0.018,0.247,0.092,0.476,0.225,0.686c0.135,0.209,0.332,0.369,0.598,0.478
			c0.264,0.109,0.592,0.163,0.982,0.163c0.699,0,1.283-0.197,1.752-0.592c0.465-0.395,0.844-1.084,1.133-2.068L214.248,49.279z"/>
		<path d="M214.814,52.433l-0.111-0.521c0.227-0.016,0.527-0.04,0.902-0.074v-5.687h2.429v-0.746h0.625v0.746h2.468v3.181h-2.645
			c0.27,0.502,0.602,0.927,0.996,1.274c0.922-0.422,1.613-0.8,2.074-1.134l0.416,0.412c-0.492,0.332-1.18,0.682-2.063,1.052
			c0.553,0.386,1.293,0.725,2.233,1.018l-0.365,0.494c-0.974-0.308-1.774-0.712-2.412-1.212c-0.637-0.5-1.146-1.134-1.53-1.903
			h-1.615v2.447c1.412-0.143,2.332-0.255,2.757-0.338v0.498C218.257,52.072,216.867,52.236,214.814,52.433z M216.217,47.508h4.299
			v-0.909h-4.299V47.508z M220.516,47.947h-4.299v0.932h4.299V47.947z"/>
		<path d="M192.836,66.681v0.446h-0.543v-6.265h2.021v5.818H192.836z M193.746,61.301h-0.91v1.395h0.91V61.301z M192.836,64.385
			h0.91v-1.266h-0.91V64.385z M193.746,64.797h-0.91v1.445h0.91V64.797z M194.71,65.392l-0.152-0.482
			c0.435-0.142,0.849-0.311,1.239-0.505v-3.663h0.574v3.682c0,0.626-0.158,1.246-0.477,1.856c-0.318,0.611-0.798,1.093-1.438,1.445
			l-0.275-0.388c0.919-0.57,1.447-1.384,1.588-2.443C195.434,65.083,195.08,65.249,194.71,65.392z M195.052,63.589
			c-0.118-0.653-0.251-1.288-0.397-1.907l0.479-0.113c0.078,0.298,0.213,0.925,0.402,1.88L195.052,63.589z M197.086,60.727h0.58
			v2.078c0.516-0.507,0.914-0.957,1.192-1.348l0.446,0.346c-0.295,0.365-0.764,0.826-1.406,1.382l-0.232-0.307v3.923
			c0,0.099,0.028,0.175,0.086,0.231c0.059,0.056,0.232,0.083,0.518,0.083c0.283,0,0.451-0.058,0.503-0.174
			c0.051-0.117,0.077-0.469,0.077-1.057l0.5,0.066v0.991c0,0.16-0.039,0.293-0.121,0.398s-0.197,0.179-0.344,0.221
			c-0.15,0.043-0.355,0.064-0.625,0.064c-0.361,0-0.61-0.021-0.752-0.064c-0.141-0.042-0.246-0.115-0.317-0.217
			c-0.068-0.103-0.104-0.236-0.104-0.402V60.727z M198.986,65.349c-0.163-0.179-0.592-0.592-1.283-1.239l0.342-0.357
			c0.561,0.445,1.015,0.848,1.363,1.208L198.986,65.349z"/>
		<path d="M199.672,67.559v-0.462h3.225v-0.746h-2.697v-0.446h2.697v-0.738h-3.012v-0.454h6.783v0.454h-3.133v0.738h2.752v0.446
			h-2.752v0.746h3.327v0.462H199.672z M200.85,63.981c-0.195,0-0.354-0.052-0.479-0.155c-0.123-0.104-0.186-0.238-0.186-0.404v-1.46
			h-0.462v-0.439h1.615v-0.812h0.575v0.812h1.422v0.439h-2.557v1.254c0,0.212,0.115,0.318,0.346,0.318h1.899v0.447H200.85z
			 M204.885,64.304l-0.074-0.485h0.738c0.123,0,0.228-0.034,0.31-0.101c0.081-0.067,0.138-0.282,0.173-0.645h-1.705
			c-0.155,0.569-0.408,1.032-0.758,1.387l-0.396-0.252c0.146-0.168,0.278-0.384,0.398-0.647s0.203-0.532,0.248-0.808
			c0.045-0.276,0.066-0.66,0.066-1.152V61.36v-0.082c0-0.031-0.004-0.056-0.004-0.074l0.004-0.323h2.766l0.006,0.73
			c0,0.414-0.02,0.836-0.059,1.266s-0.084,0.727-0.137,0.892c-0.051,0.164-0.151,0.294-0.302,0.39s-0.343,0.144-0.579,0.144H204.885
			z M206.058,62.723c0.017-0.23,0.026-0.415,0.028-0.552h-1.627c-0.012,0.21-0.029,0.394-0.057,0.552H206.058z M206.093,61.837
			v-0.59h-1.624l0.005,0.295l-0.005,0.295H206.093z"/>
		<path d="M207.257,67.679l-0.11-0.521c0.227-0.016,0.525-0.04,0.902-0.074v-5.687h2.428v-0.746h0.625v0.746h2.467v3.181h-2.642
			c0.267,0.502,0.599,0.927,0.993,1.274c0.922-0.422,1.614-0.8,2.075-1.134l0.416,0.412c-0.493,0.332-1.181,0.682-2.063,1.052
			c0.55,0.386,1.296,0.725,2.233,1.018l-0.365,0.494c-0.971-0.308-1.775-0.712-2.412-1.212c-0.637-0.5-1.146-1.134-1.53-1.903
			h-1.615v2.447c1.411-0.143,2.333-0.255,2.757-0.338v0.498C210.699,67.318,209.313,67.482,207.257,67.679z M208.659,62.754h4.3
			v-0.909h-4.3V62.754z M212.959,63.193h-4.3v0.932h4.3V63.193z"/>
		<path d="M221.805,64.525c-0.292,1.036-0.723,1.797-1.293,2.284c-0.569,0.487-1.302,0.73-2.198,0.73
			c-0.35,0-0.663-0.035-0.933-0.105c-0.271-0.07-0.504-0.174-0.699-0.313c-0.195-0.138-0.348-0.312-0.465-0.52
			c-0.117-0.208-0.191-0.435-0.225-0.678c-0.031-0.243-0.049-0.646-0.049-1.208c0-0.956,0.059-2.129,0.172-3.519h0.637
			c-0.137,1.333-0.205,2.517-0.205,3.55c0,0.36,0.006,0.664,0.023,0.911c0.018,0.247,0.094,0.476,0.227,0.686
			c0.133,0.209,0.332,0.369,0.597,0.478c0.263,0.109,0.592,0.163,0.983,0.163c0.699,0,1.283-0.197,1.751-0.592
			c0.466-0.395,0.844-1.084,1.134-2.068L221.805,64.525z"/>
	</g>
	<line fill="none" stroke="#E6E6E6" stroke-miterlimit="10" x1="55" y1="2.5" x2="55" y2="74.5"/>
	<line fill="none" stroke="#E6E6E6" stroke-miterlimit="10" x1="186" y1="1.5" x2="186" y2="75.5"/>
	<line fill="none" stroke="#E6E6E6" stroke-miterlimit="10" x1="316" y1="1.5" x2="316" y2="75.5"/>
	<g>
		<polygon points="285.182,142.08 279.49,153.47 268.088,119.253 302.307,130.659 290.911,136.354 303.468,148.909 297.744,154.636 
					"/>
		<path fill="#FFFFFF" d="M269.668,120.834l30.031,10.01l-10.477,5.236l12.83,12.83l-4.309,4.313l-12.835-12.83l-5.233,10.471
			L269.668,120.834 M266.506,117.672l1.264,3.794l10.009,30.028l1.526,4.582l2.16-4.32l3.992-7.989l10.873,10.869l1.414,1.414
			l1.414-1.415l4.311-4.313l1.412-1.414l-1.413-1.414l-10.87-10.867l7.995-3.995l4.321-2.159l-4.582-1.527l-30.031-10.01
			L266.506,117.672L266.506,117.672z"/>
	</g>
</g>
<g id="_x31_6_x3000_よくある質問_x3000_help">
</g>
<g id="_x31_7_x3000_便利なリンク集_x3000_link">
</g>
<g id="_x31_8_x3000_不動産オーナー様へ_x3000_owner">
</g>
<g id="mouse-over" display="none">
</g>
</svg>
