<?xml version="1.0" encoding="utf-8"?>
<!-- Generator: Adobe Illustrator 16.0.0, SVG Export Plug-In . SVG Version: 6.00 Build 0)  -->
<!DOCTYPE svg PUBLIC "-//W3C//DTD SVG 1.1//EN" "http://www.w3.org/Graphics/SVG/1.1/DTD/svg11.dtd">
<svg version="1.1" xmlns="http://www.w3.org/2000/svg"  x="0px" y="0px" width="387px"
	 height="214.058px" viewBox="0 0 387 214.058" enable-background="new 0 0 387 214.058" xml:space="preserve">
<g id="_x31_0_x3000_特集一覧_x3000_category">
</g>
<g id="_x31_1_x3000_特集個別_x3000_">
</g>
<g id="_x31_2_x3000_サポート_x3000_suport">
</g>
<g id="_x31_3_x3000_住居エリア情報_area">
</g>
<g id="_x31_4_x3000_物件タイプ情報_x3000_style">
</g>
<g id="_x31_5_x3000_内覧_x30FB_入居フロー_x3000_step">
	<g>
		<path fill="none" stroke="#CCCCCC" stroke-miterlimit="10" d="M384.5,202.058c0,5.522-4.478,10-10,10h-362
			c-5.522,0-10-4.478-10-10v-189c0-5.522,4.478-10,10-10h362c5.522,0,10,4.478,10,10V202.058z"/>
	</g>
	<g>
		<path d="M49.234,54.572c-0.35-0.351-0.525-0.772-0.525-1.265s0.176-0.914,0.525-1.265c0.352-0.351,0.773-0.526,1.266-0.526
			s0.914,0.176,1.265,0.526s0.526,0.772,0.526,1.265s-0.176,0.914-0.526,1.265s-0.772,0.526-1.265,0.526
			S49.586,54.923,49.234,54.572z"/>
		<path d="M59.633,54.333l1.818,0.164c-0.155,0.639-0.232,1.104-0.232,1.395c0,0.465,0.232,0.836,0.697,1.114
			s1.176,0.417,2.133,0.417c1.941,0,3.568-0.182,4.881-0.547l0.014,1.955c-1.367,0.31-2.977,0.465-4.826,0.465
			c-1.568,0-2.754-0.256-3.555-0.766c-0.803-0.51-1.203-1.244-1.203-2.201C59.359,55.892,59.45,55.227,59.633,54.333z
			 M67.371,47.593l1.107-0.451c0.392,0.565,0.766,1.208,1.121,1.928l-1.135,0.479c-0.037-0.072-0.102-0.195-0.191-0.369
			c-0.092-0.173-0.16-0.305-0.205-0.396v1.668c-1.551,0.109-2.885,0.164-4.006,0.164c-1.148,0-2.406-0.05-3.773-0.15v-1.846
			c1.021,0.109,2.273,0.164,3.76,0.164c1.293,0,2.602-0.059,3.924-0.178C67.771,48.213,67.57,47.876,67.371,47.593z M69.025,46.964
			l1.107-0.451c0.428,0.584,0.807,1.222,1.135,1.914l-1.107,0.465C69.723,48.035,69.344,47.393,69.025,46.964z"/>
		<path d="M83.627,51.981l1.354,0.588c-0.711,1.486-1.459,2.703-2.242,3.65l-1.422-0.834c0.364-0.501,0.729-1.07,1.094-1.709h-2.953
			v4.348c0,0.456-0.064,0.797-0.191,1.025c-0.129,0.228-0.355,0.4-0.684,0.52c-0.455,0.164-1.377,0.246-2.762,0.246
			c-0.092-0.511-0.293-1.044-0.602-1.6c0.547,0.019,1.262,0.027,2.146,0.027c0.137-0.009,0.23-0.031,0.28-0.068
			c0.05-0.036,0.075-0.104,0.075-0.205v-4.293h-5.537v-1.586h6.371c-0.895-0.373-1.914-0.779-3.063-1.217l0.82-1.258
			c1.23,0.429,1.964,0.688,2.201,0.779c0.674-0.428,1.266-0.865,1.777-1.313h-6.768v-1.531h8.381l0.369-0.096l1.203,0.93
			c-0.984,0.984-2.064,1.873-3.24,2.666c0.52,0.201,0.92,0.365,1.203,0.492l-0.342,0.547h2.215L83.627,51.981z"/>
		<path d="M98.83,56.261v1.313h-2.953v2.242h-1.723v-2.242h-3.158c-0.447,1.021-1.633,1.777-3.555,2.27
			c-0.292-0.475-0.643-0.88-1.053-1.217c1.258-0.246,2.128-0.597,2.611-1.053h-2.803v-1.313h3.336v-0.861h-1.709v-5.373h1.395
			c-0.109-0.282-0.297-0.629-0.561-1.039h-0.287c-0.429,0.574-0.834,1.035-1.217,1.381c-0.456-0.392-0.902-0.701-1.34-0.93
			c0.438-0.328,0.848-0.742,1.23-1.244c0.383-0.501,0.688-1.016,0.916-1.545l1.559,0.424c-0.137,0.273-0.242,0.475-0.314,0.602
			h3.104v1.107c0.592-0.61,1.033-1.321,1.326-2.133l1.586,0.383c-0.055,0.128-0.15,0.342-0.287,0.643h3.855v1.313h-2.064
			c0.219,0.273,0.369,0.483,0.451,0.629l-0.943,0.41h1.258v5.373h-1.613v0.861H98.83z M95.727,51.024h-6.221v0.492h6.221V51.024z
			 M89.506,52.433v0.52h6.221v-0.52H89.506z M89.506,53.896v0.52h6.221v-0.52H89.506z M92.104,48.987h-1.736
			c0.182,0.301,0.305,0.538,0.369,0.711l-0.93,0.328h3.049c-0.529-0.301-0.936-0.51-1.217-0.629
			C91.783,49.288,91.939,49.151,92.104,48.987z M91.215,56.261h2.939v-0.861h-2.939V56.261z M94.879,48.987h-0.738
			c-0.219,0.319-0.516,0.666-0.889,1.039h2.393C95.426,49.662,95.17,49.315,94.879,48.987z"/>
		<path d="M49.234,81.572c-0.35-0.351-0.525-0.772-0.525-1.265s0.176-0.914,0.525-1.265c0.352-0.351,0.773-0.526,1.266-0.526
			s0.914,0.176,1.265,0.526s0.526,0.772,0.526,1.265s-0.176,0.914-0.526,1.265s-0.772,0.526-1.265,0.526
			S49.586,81.923,49.234,81.572z"/>
		<path d="M61.547,86.214l-1.313-1.148c0.118-0.255,0.178-0.561,0.178-0.916v-7.588c0-0.564-0.051-1.089-0.15-1.572h2.188
			c-0.092,0.593-0.137,1.117-0.137,1.572v7.273c1.212-0.346,2.502-0.943,3.869-1.791s2.479-1.791,3.336-2.83l0.984,1.586
			c-1.814,2.17-4.521,3.847-8.121,5.031C62.062,85.949,61.783,86.077,61.547,86.214z"/>
		<path d="M73.646,78.64l1.682-0.602c0.4,0.812,0.834,1.873,1.299,3.186l-1.709,0.656c-0.137-0.428-0.344-1.005-0.622-1.729
			S73.801,78.923,73.646,78.64z M81.768,77.683l1.969,0.629c-0.129,0.355-0.242,0.697-0.342,1.025
			c-0.438,1.668-1.071,3.035-1.9,4.102c-1.24,1.604-2.803,2.762-4.689,3.473l-1.463-1.49c0.829-0.219,1.672-0.588,2.529-1.107
			c0.855-0.52,1.563-1.125,2.119-1.818c0.474-0.592,0.871-1.321,1.189-2.188C81.498,79.442,81.694,78.567,81.768,77.683z
			 M76.9,77.847l1.668-0.547c0.51,1.176,0.893,2.197,1.148,3.063l-1.682,0.588c-0.082-0.346-0.248-0.861-0.5-1.545
			C77.285,78.722,77.073,78.202,76.9,77.847z"/>
		<path d="M91.379,76.438v2.051c0.947,0.283,2.002,0.641,3.165,1.073c1.162,0.433,2.058,0.805,2.687,1.114l-0.779,1.941
			c-1.367-0.72-3.059-1.417-5.072-2.092v3.965c0,0.529,0.045,1.176,0.137,1.941h-2.188c0.091-0.611,0.137-1.258,0.137-1.941v-8.053
			c0-0.646-0.046-1.212-0.137-1.695h2.174C91.42,75.481,91.379,76.047,91.379,76.438z M96.328,77.327l-1.23,0.547
			c-0.402-0.865-0.812-1.586-1.23-2.16l1.176-0.506C95.57,75.992,96,76.698,96.328,77.327z M98.201,76.507l-1.176,0.574
			c-0.375-0.729-0.807-1.426-1.299-2.092l1.162-0.547C97.436,75.19,97.873,75.878,98.201,76.507z"/>
		<path d="M108.182,78.681v5.729c0,0.921,0.041,1.531,0.123,1.832h-2.215c0.063-0.401,0.096-1.012,0.096-1.832v-4.594
			c-1.659,0.839-3.264,1.473-4.813,1.9l-1.012-1.709c2.342-0.51,4.466-1.354,6.371-2.529c0.729-0.455,1.426-0.971,2.092-1.545
			c0.665-0.574,1.189-1.111,1.572-1.613l1.49,1.354C110.756,76.804,109.521,77.806,108.182,78.681z"/>
		<path d="M116.303,86.159l-1.176-1.846c2.005-0.291,3.791-0.902,5.359-1.832c1.139-0.674,2.158-1.504,3.057-2.488
			c0.896-0.984,1.578-1.973,2.043-2.967l1.094,1.982c-0.547,0.967-1.271,1.905-2.174,2.816c-0.902,0.912-1.905,1.7-3.008,2.365
			C119.839,85.193,118.107,85.849,116.303,86.159z M115.564,76.384l1.313-1.395c0.51,0.338,1.141,0.813,1.893,1.429
			s1.324,1.124,1.717,1.524l-1.422,1.463c-0.374-0.4-0.926-0.918-1.654-1.552C116.681,77.22,116.065,76.73,115.564,76.384z"/>
		<path d="M130.686,79.856l1.586,0.738c-0.32,0.611-0.75,1.311-1.293,2.099c-0.541,0.788-1.01,1.393-1.4,1.812l-1.518-1.039
			c0.465-0.446,0.945-1.012,1.442-1.695S130.394,80.449,130.686,79.856z M138.711,78.612h-3.268v6.508
			c0,0.41-0.123,0.731-0.369,0.964s-0.611,0.349-1.094,0.349c-0.813,0-1.572-0.041-2.283-0.123l-0.164-1.736
			c0.602,0.109,1.121,0.164,1.559,0.164c0.182,0,0.31-0.036,0.383-0.109c0.072-0.072,0.113-0.2,0.123-0.383
			c0.009-0.346,0.014-2.219,0.014-5.619v-0.014h-3.555c-0.547,0-0.998,0.019-1.354,0.055v-1.859
			c0.564,0.073,1.016,0.109,1.354,0.109h3.555v-1.121c0-0.465-0.041-0.87-0.123-1.217h2.078c-0.082,0.574-0.123,0.98-0.123,1.217
			v1.121h3.254c0.492,0,0.952-0.031,1.381-0.096v1.832C139.641,78.626,139.185,78.612,138.711,78.612z M136.77,80.636l1.531-0.82
			c0.828,1.058,1.627,2.283,2.393,3.678l-1.654,0.902c-0.319-0.638-0.697-1.324-1.135-2.058S137.088,81.037,136.77,80.636z
			 M139.271,76.138l-1.121,0.479c-0.4-0.82-0.752-1.439-1.053-1.859l1.107-0.451C138.633,74.935,138.988,75.546,139.271,76.138z
			 M141.117,75.714l-1.107,0.492c-0.43-0.838-0.789-1.453-1.08-1.846l1.094-0.451C140.424,74.447,140.789,75.049,141.117,75.714z"/>
		<path d="M150.182,78.681v5.729c0,0.921,0.041,1.531,0.123,1.832h-2.215c0.063-0.401,0.096-1.012,0.096-1.832v-4.594
			c-1.659,0.839-3.264,1.473-4.813,1.9l-1.012-1.709c2.342-0.51,4.466-1.354,6.371-2.529c0.729-0.455,1.426-0.971,2.092-1.545
			c0.665-0.574,1.189-1.111,1.572-1.613l1.49,1.354C152.756,76.804,151.521,77.806,150.182,78.681z"/>
		<path d="M166.027,75.276l1.148,0.861c-0.183,0.256-0.348,0.543-0.492,0.861c-0.648,1.477-1.381,2.762-2.201,3.855
			c0.664,0.574,1.373,1.251,2.125,2.03s1.348,1.438,1.785,1.976l-1.6,1.381c-0.902-1.239-2.078-2.561-3.527-3.965
			c-1.641,1.732-3.396,3.045-5.264,3.938l-1.436-1.518c1.066-0.4,2.114-0.971,3.145-1.709c1.029-0.738,1.896-1.504,2.598-2.297
			c0.465-0.528,0.889-1.107,1.271-1.736s0.65-1.193,0.807-1.695h-4.744c-0.174,0-0.371,0.007-0.595,0.021s-0.44,0.03-0.649,0.048
			c-0.21,0.019-0.347,0.027-0.41,0.027v-1.996c0.51,0.073,1.061,0.109,1.654,0.109h4.936
			C165.18,75.468,165.662,75.404,166.027,75.276z"/>
		<path d="M177.129,86.2l-1.039-1.641c0.492-0.063,0.924-0.137,1.299-0.219c0.93-0.219,1.686-0.651,2.27-1.299
			c0.583-0.646,0.875-1.453,0.875-2.42c0-0.966-0.254-1.777-0.759-2.434c-0.506-0.656-1.22-1.066-2.14-1.23
			c-0.256,1.55-0.529,2.808-0.82,3.773c-0.42,1.432-0.93,2.539-1.531,3.322c-0.602,0.784-1.277,1.176-2.023,1.176
			c-0.775,0-1.438-0.385-1.99-1.155c-0.551-0.771-0.826-1.729-0.826-2.878c0-1.613,0.619-3.006,1.859-4.177s2.748-1.757,4.525-1.757
			c1.676,0,3.027,0.518,4.053,1.552c1.026,1.034,1.539,2.327,1.539,3.876c0,1.477-0.451,2.698-1.354,3.664
			C180.164,85.321,178.852,85.936,177.129,86.2z M173.328,83.11c0.574,0,1.135-0.916,1.682-2.748
			c0.328-1.021,0.578-2.142,0.752-3.363c-1.076,0.229-1.93,0.745-2.563,1.552s-0.95,1.63-0.95,2.468
			c0,0.656,0.109,1.169,0.328,1.538S173.045,83.11,173.328,83.11z"/>
		<path d="M196.734,77.013h-7.492c-0.128,0.292-0.314,0.661-0.561,1.107h6.48v6.918c0,0.429-0.053,0.761-0.158,0.998
			c-0.104,0.236-0.293,0.414-0.566,0.533c-0.383,0.182-1.213,0.273-2.488,0.273c-0.072-0.52-0.237-1.058-0.492-1.613
			c0.473,0.027,1.061,0.041,1.764,0.041c0.209-0.009,0.314-0.1,0.314-0.273v-0.848h-5.045v2.68h-1.654v-6.084
			c-0.593,0.647-1.208,1.189-1.846,1.627c-0.238-0.373-0.602-0.797-1.094-1.271c1.412-0.947,2.574-2.311,3.486-4.088h-3.076v-1.559
			h3.773c0.246-0.646,0.428-1.212,0.547-1.695l1.723,0.383c-0.137,0.438-0.287,0.875-0.451,1.313h6.836V77.013z M193.535,80.472
			v-0.889h-5.045v0.889H193.535z M188.49,82.769h5.045v-0.902h-5.045V82.769z"/>
		<path d="M200.098,78.489v-1.012c-0.365,0.347-0.639,0.588-0.82,0.725c-0.42-0.4-0.871-0.766-1.354-1.094
			c0.592-0.383,1.146-0.873,1.662-1.47c0.514-0.597,0.926-1.219,1.236-1.866l1.613,0.465c-0.129,0.292-0.307,0.62-0.533,0.984h8.395
			v1.477h-1.313v1.791h1.818v1.477h-1.818v1.777h1.613v1.49h-12.154v-1.49h1.654v-1.777h-1.873v-1.477H200.098z M199.674,86.856
			l-1.586-0.643c0.31-0.292,0.607-0.686,0.895-1.183s0.514-1,0.678-1.511l1.6,0.396C200.904,85.139,200.375,86.118,199.674,86.856z
			 M201.574,76.698v1.791h1.012v-1.791H201.574z M201.574,79.966v1.777h1.012v-1.777H201.574z M202.162,84.013l1.559-0.178
			c0.199,1.058,0.31,1.928,0.328,2.611l-1.627,0.246C202.422,85.881,202.336,84.988,202.162,84.013z M203.967,78.489h1.039v-1.791
			h-1.039V78.489z M205.006,79.966h-1.039v1.777h1.039V79.966z M204.938,84.04l1.559-0.26c0.41,0.994,0.684,1.859,0.82,2.598
			l-1.668,0.328C205.557,85.958,205.32,85.07,204.938,84.04z M207.453,78.489v-1.791h-1.066v1.791H207.453z M207.453,81.743v-1.777
			h-1.066v1.777H207.453z M207.699,83.972l1.6-0.506c0.82,1.112,1.408,2.047,1.764,2.803l-1.709,0.574
			C209.053,86.104,208.502,85.147,207.699,83.972z"/>
		<path d="M49.234,108.572c-0.35-0.351-0.525-0.772-0.525-1.265s0.176-0.914,0.525-1.265c0.352-0.351,0.773-0.526,1.266-0.526
			s0.914,0.176,1.265,0.526s0.526,0.772,0.526,1.265s-0.176,0.914-0.526,1.265s-0.772,0.526-1.265,0.526
			S49.586,108.923,49.234,108.572z"/>
		<path d="M59.633,108.333l1.818,0.164c-0.155,0.639-0.232,1.104-0.232,1.395c0,0.465,0.232,0.836,0.697,1.114
			s1.176,0.417,2.133,0.417c1.941,0,3.568-0.182,4.881-0.547l0.014,1.955c-1.367,0.31-2.977,0.465-4.826,0.465
			c-1.568,0-2.754-0.256-3.555-0.766c-0.803-0.51-1.203-1.244-1.203-2.201C59.359,109.892,59.45,109.227,59.633,108.333z
			 M67.371,101.593l1.107-0.451c0.392,0.565,0.766,1.208,1.121,1.928l-1.135,0.479c-0.037-0.072-0.102-0.195-0.191-0.369
			c-0.092-0.173-0.16-0.305-0.205-0.396v1.668c-1.551,0.109-2.885,0.164-4.006,0.164c-1.148,0-2.406-0.05-3.773-0.15v-1.846
			c1.021,0.109,2.273,0.164,3.76,0.164c1.293,0,2.602-0.059,3.924-0.178C67.771,102.213,67.57,101.876,67.371,101.593z
			 M69.025,100.964l1.107-0.451c0.428,0.584,0.807,1.222,1.135,1.914l-1.107,0.465C69.723,102.035,69.344,101.393,69.025,100.964z"
			/>
		<path d="M84.734,110.233h-4.785c0.455,0.639,1.098,1.117,1.928,1.436c0.829,0.319,1.904,0.516,3.227,0.588
			c-0.365,0.392-0.697,0.925-0.998,1.6c-1.35-0.164-2.445-0.456-3.288-0.875s-1.53-1.016-2.058-1.791
			c-0.803,1.35-2.758,2.242-5.865,2.68c-0.237-0.475-0.553-0.939-0.943-1.395c3.025-0.419,4.821-1.166,5.387-2.242h-5.045v-1.408
			h5.25v-0.82h1.682v0.82h5.51V110.233z M72.252,107.841l-0.123-1.381c0.255-0.018,0.672-0.055,1.251-0.109s0.954-0.091,1.128-0.109
			v-1.162h-1.914v-1.244h1.914v-0.875h-2.16v-1.244h2.16v-0.943h1.545v0.943h1.955v1.244h-1.955v0.875h1.777v1.244h-1.777v0.998
			c0.219-0.027,0.549-0.063,0.991-0.109c0.442-0.045,0.772-0.082,0.991-0.109l0.014,0.752c0.664-0.392,1.128-0.896,1.388-1.511
			c0.259-0.615,0.421-1.41,0.485-2.386h-1.586v-1.395h6.275c0,0.301-0.005,0.511-0.014,0.629c-0.064,1.723-0.139,2.958-0.227,3.705
			c-0.086,0.748-0.221,1.235-0.402,1.463c-0.219,0.301-0.543,0.479-0.971,0.533c-0.301,0.046-0.82,0.068-1.559,0.068
			c-0.02-0.537-0.164-1.034-0.438-1.49c0.337,0.027,0.725,0.041,1.162,0.041c0.191,0,0.338-0.055,0.438-0.164
			c0.191-0.228,0.328-1.357,0.41-3.391H81.48c-0.092,1.304-0.33,2.367-0.719,3.192c-0.387,0.825-1.055,1.493-2.002,2.003
			c-0.119-0.273-0.352-0.597-0.697-0.971v0.205C75.828,107.427,73.893,107.659,72.252,107.841z"/>
		<path d="M86.498,108.962l1.367,0.232c-0.164,1.531-0.442,2.734-0.834,3.609c-0.447-0.264-0.875-0.465-1.285-0.602
			C86.11,111.464,86.361,110.384,86.498,108.962z M93.99,103.138h4.771c0,0.374-0.005,0.629-0.014,0.766
			c-0.092,3.127-0.203,5.332-0.336,6.617c-0.131,1.285-0.344,2.109-0.635,2.475c-0.191,0.255-0.385,0.436-0.582,0.54
			c-0.195,0.104-0.448,0.18-0.758,0.226c-0.393,0.063-1.121,0.077-2.188,0.041c-0.037-0.602-0.224-1.162-0.561-1.682
			c0.592,0.055,1.279,0.082,2.064,0.082c0.246,0,0.441-0.077,0.588-0.232c0.209-0.219,0.373-0.879,0.492-1.982
			c0.117-1.103,0.214-2.861,0.287-5.277h-3.869c-0.447,0.803-0.844,1.408-1.189,1.818c-0.347-0.318-0.784-0.629-1.313-0.93
			c0.584,1.049,0.947,1.919,1.094,2.611l-1.258,0.588c-0.02-0.118-0.086-0.369-0.205-0.752l-0.793,0.055v5.756h-1.477v-5.646
			l-2.064,0.15l-0.137-1.463l1.025-0.041c0.364-0.455,0.582-0.742,0.656-0.861c-0.42-0.619-0.98-1.262-1.682-1.928l0.779-1.148
			c0.036,0.037,0.094,0.087,0.172,0.15c0.076,0.064,0.133,0.114,0.17,0.15c0.446-0.856,0.783-1.668,1.012-2.434l1.477,0.52
			c-0.656,1.258-1.186,2.197-1.586,2.816c0.154,0.164,0.318,0.36,0.492,0.588c0.455-0.692,0.884-1.453,1.285-2.283l1.422,0.588
			c-0.921,1.449-1.814,2.712-2.68,3.787l1.408-0.055c-0.146-0.318-0.306-0.643-0.479-0.971l1.176-0.52l0.096,0.178
			c1.021-1.094,1.791-2.647,2.311-4.662l1.709,0.355C94.518,101.721,94.291,102.391,93.99,103.138z M89.615,109.263l1.23-0.383
			c0.41,0.875,0.715,1.75,0.916,2.625l-1.326,0.465C90.316,111.177,90.043,110.274,89.615,109.263z M95.563,109.536l-1.436,0.766
			c-0.273-0.92-0.844-2-1.709-3.24l1.326-0.67C94.664,107.622,95.27,108.671,95.563,109.536z"/>
		<path d="M101.701,110.63l1.545,0.451c-0.529,1.094-1.217,2.027-2.064,2.803c-0.42-0.401-0.861-0.734-1.326-0.998
			C100.657,112.275,101.272,111.523,101.701,110.63z M106.842,109.071v1.449h-6.877v-1.449h1.258v-5.195h-1.094v-1.449h1.094v-1.49
			h1.504v1.49h1.723v-1.49h1.531v1.49h0.957v1.449h-0.957v5.195H106.842z M104.449,103.876h-1.723v0.807h1.723V103.876z
			 M102.727,105.968v0.875h1.723v-0.875H102.727z M102.727,108.114v0.957h1.723v-0.957H102.727z M112.584,101.388v10.609
			c0,0.42-0.049,0.747-0.145,0.984c-0.095,0.236-0.262,0.419-0.498,0.547c-0.393,0.209-1.141,0.305-2.242,0.287
			c-0.072-0.565-0.229-1.094-0.465-1.586c0.264,0.019,0.752,0.027,1.463,0.027c0.191,0,0.287-0.096,0.287-0.287v-2.762h-2.133
			c-0.184,2.015-0.602,3.568-1.258,4.662c-0.129-0.155-0.333-0.333-0.615-0.533c-0.283-0.201-0.516-0.333-0.697-0.396
			c0.018-0.027,0.041-0.068,0.068-0.123s0.049-0.096,0.068-0.123l-1.162,0.656c-0.273-0.547-0.775-1.248-1.504-2.105l1.258-0.697
			c0.701,0.784,1.207,1.422,1.518,1.914c0.592-1.285,0.889-3.263,0.889-5.934v-5.141H112.584z M108.947,107.731h2.037v-1.723h-2.023
			v0.52C108.961,107.039,108.955,107.44,108.947,107.731z M110.984,102.892h-2.023v1.641h2.023V102.892z"/>
		<path d="M119.994,106.351h-3.705v7.492h-1.654v-12.537h5.359V106.351z M118.436,102.509h-2.146v0.738h2.146V102.509z
			 M116.289,105.161h2.146v-0.793h-2.146V105.161z M126.447,101.306v10.568c0,0.465-0.055,0.824-0.164,1.08
			c-0.109,0.255-0.301,0.446-0.574,0.574c-0.42,0.209-1.271,0.314-2.557,0.314c-0.037-0.301-0.16-0.734-0.369-1.299h-3.473v0.711
			h-1.518v-6.057h5.4v4.963c0.629,0.019,1.043,0.019,1.244,0c0.219,0,0.328-0.1,0.328-0.301v-5.482h-3.801v-5.072H126.447z
			 M121.621,108.429h-2.311v0.834h2.311V108.429z M119.311,111.327h2.311v-0.875h-2.311V111.327z M124.766,102.509h-2.215v0.738
			h2.215V102.509z M122.551,105.188h2.215v-0.82h-2.215V105.188z"/>
		<path d="M49.234,135.572c-0.35-0.351-0.525-0.772-0.525-1.265s0.176-0.914,0.525-1.265c0.352-0.351,0.773-0.526,1.266-0.526
			s0.914,0.176,1.265,0.526s0.526,0.772,0.526,1.265s-0.176,0.914-0.526,1.265s-0.772,0.526-1.265,0.526
			S49.586,135.923,49.234,135.572z"/>
		<path d="M59.633,135.333l1.818,0.164c-0.155,0.639-0.232,1.104-0.232,1.395c0,0.465,0.232,0.836,0.697,1.114
			s1.176,0.417,2.133,0.417c1.941,0,3.568-0.182,4.881-0.547l0.014,1.955c-1.367,0.31-2.977,0.465-4.826,0.465
			c-1.568,0-2.754-0.256-3.555-0.766c-0.803-0.51-1.203-1.244-1.203-2.201C59.359,136.892,59.45,136.227,59.633,135.333z
			 M67.371,128.593l1.107-0.451c0.392,0.565,0.766,1.208,1.121,1.928l-1.135,0.479c-0.037-0.072-0.102-0.195-0.191-0.369
			c-0.092-0.173-0.16-0.305-0.205-0.396v1.668c-1.551,0.109-2.885,0.164-4.006,0.164c-1.148,0-2.406-0.05-3.773-0.15v-1.846
			c1.021,0.109,2.273,0.164,3.76,0.164c1.293,0,2.602-0.059,3.924-0.178C67.771,129.213,67.57,128.876,67.371,128.593z
			 M69.025,127.964l1.107-0.451c0.428,0.584,0.807,1.222,1.135,1.914l-1.107,0.465C69.723,129.035,69.344,128.393,69.025,127.964z"
			/>
		<path d="M74.74,128.552h4.84c0,5.031,1.84,8.632,5.523,10.801c-0.52,0.428-0.967,0.911-1.34,1.449
			c-2.488-1.504-4.207-3.805-5.154-6.904c-1.076,3.199-2.799,5.506-5.168,6.918c-0.375-0.429-0.88-0.88-1.518-1.354
			c2.762-1.403,4.543-4.023,5.346-7.861l0.848,0.164c-0.082-0.438-0.146-0.943-0.191-1.518H74.74V128.552z"/>
		<path d="M98.775,134.978h-4.17v1.148h3.268v4.703h-1.668v-0.41h-4.744v0.424h-1.6v-4.717h3.09v-1.148h-3.719v-1.49h3.719v-1.176
			h-3.855v0.246c0,3.811-0.584,6.586-1.75,8.326c-0.42-0.347-0.912-0.634-1.477-0.861c0.445-0.656,0.793-1.467,1.039-2.434
			c0.246-0.966,0.395-1.812,0.444-2.536s0.075-1.556,0.075-2.495v-4.102h10.568v3.855h-3.391v1.176h4.17V134.978z M89.096,129.905
			v0.957h7.219v-0.957H89.096z M96.205,138.97v-1.395h-4.744v1.395H96.205z"/>
		<path d="M104.791,128.62v9.516h-2.844v1.244h-1.531v-10.76H104.791z M103.232,130.11h-1.285v2.461h1.285V130.11z M101.947,136.659
			h1.285v-2.639h-1.285V136.659z M113.021,133.378h-1.436v1.203h1.34v1.449h-1.34v3.049c0,0.41-0.051,0.729-0.15,0.957
			c-0.1,0.228-0.283,0.4-0.547,0.52c-0.429,0.182-1.208,0.273-2.338,0.273c-0.047-0.42-0.224-0.943-0.533-1.572
			c0.446,0.019,0.998,0.027,1.654,0.027c0.199,0,0.301-0.082,0.301-0.246v-3.008h-4.908v-1.449h4.908v-1.203h-4.949v-1.449h3.172
			v-1.23h-2.693v-1.463h2.693v-1.463h1.641v1.463h2.803v1.463h-2.803v1.23h3.186V133.378z M105.611,136.96l1.34-0.766
			c0.856,0.912,1.422,1.678,1.695,2.297l-1.436,0.82C106.965,138.674,106.432,137.89,105.611,136.96z"/>
		<path d="M115.701,137.63l1.545,0.451c-0.529,1.094-1.217,2.027-2.064,2.803c-0.42-0.401-0.861-0.734-1.326-0.998
			C114.657,139.275,115.272,138.523,115.701,137.63z M120.842,136.071v1.449h-6.877v-1.449h1.258v-5.195h-1.094v-1.449h1.094v-1.49
			h1.504v1.49h1.723v-1.49h1.531v1.49h0.957v1.449h-0.957v5.195H120.842z M118.449,130.876h-1.723v0.807h1.723V130.876z
			 M116.727,132.968v0.875h1.723v-0.875H116.727z M116.727,135.114v0.957h1.723v-0.957H116.727z M126.584,128.388v10.609
			c0,0.42-0.049,0.747-0.145,0.984c-0.095,0.236-0.262,0.419-0.498,0.547c-0.393,0.209-1.141,0.305-2.242,0.287
			c-0.072-0.565-0.229-1.094-0.465-1.586c0.264,0.019,0.752,0.027,1.463,0.027c0.191,0,0.287-0.096,0.287-0.287v-2.762h-2.133
			c-0.184,2.015-0.602,3.568-1.258,4.662c-0.129-0.155-0.333-0.333-0.615-0.533c-0.283-0.201-0.516-0.333-0.697-0.396
			c0.018-0.027,0.041-0.068,0.068-0.123s0.049-0.096,0.068-0.123l-1.162,0.656c-0.273-0.547-0.775-1.248-1.504-2.105l1.258-0.697
			c0.701,0.784,1.207,1.422,1.518,1.914c0.592-1.285,0.889-3.263,0.889-5.934v-5.141H126.584z M122.947,134.731h2.037v-1.723h-2.023
			v0.52C122.961,134.039,122.955,134.44,122.947,134.731z M124.984,129.892h-2.023v1.641h2.023V129.892z"/>
		<path d="M49.234,162.572c-0.35-0.351-0.525-0.772-0.525-1.265s0.176-0.914,0.525-1.265c0.352-0.351,0.773-0.526,1.266-0.526
			s0.914,0.176,1.265,0.526s0.526,0.772,0.526,1.265s-0.176,0.914-0.526,1.265s-0.772,0.526-1.265,0.526
			S49.586,162.923,49.234,162.572z"/>
		<path d="M59.633,162.333l1.818,0.164c-0.155,0.639-0.232,1.104-0.232,1.395c0,0.465,0.232,0.836,0.697,1.114
			s1.176,0.417,2.133,0.417c1.941,0,3.568-0.182,4.881-0.547l0.014,1.955c-1.367,0.31-2.977,0.465-4.826,0.465
			c-1.568,0-2.754-0.256-3.555-0.766c-0.803-0.51-1.203-1.244-1.203-2.201C59.359,163.892,59.45,163.227,59.633,162.333z
			 M67.371,155.593l1.107-0.451c0.392,0.565,0.766,1.208,1.121,1.928l-1.135,0.479c-0.037-0.072-0.102-0.195-0.191-0.369
			c-0.092-0.173-0.16-0.305-0.205-0.396v1.668c-1.551,0.109-2.885,0.164-4.006,0.164c-1.148,0-2.406-0.05-3.773-0.15v-1.846
			c1.021,0.109,2.273,0.164,3.76,0.164c1.293,0,2.602-0.059,3.924-0.178C67.771,156.213,67.57,155.876,67.371,155.593z
			 M69.025,154.964l1.107-0.451c0.428,0.584,0.807,1.222,1.135,1.914l-1.107,0.465C69.723,156.035,69.344,155.393,69.025,154.964z"
			/>
		<path d="M74.74,155.552h4.84c0,5.031,1.84,8.632,5.523,10.801c-0.52,0.428-0.967,0.911-1.34,1.449
			c-2.488-1.504-4.207-3.805-5.154-6.904c-1.076,3.199-2.799,5.506-5.168,6.918c-0.375-0.429-0.88-0.88-1.518-1.354
			c2.762-1.403,4.543-4.023,5.346-7.861l0.848,0.164c-0.082-0.438-0.146-0.943-0.191-1.518H74.74V155.552z"/>
		<path d="M98.775,161.978h-4.17v1.148h3.268v4.703h-1.668v-0.41h-4.744v0.424h-1.6v-4.717h3.09v-1.148h-3.719v-1.49h3.719v-1.176
			h-3.855v0.246c0,3.811-0.584,6.586-1.75,8.326c-0.42-0.347-0.912-0.634-1.477-0.861c0.445-0.656,0.793-1.467,1.039-2.434
			c0.246-0.966,0.395-1.812,0.444-2.536s0.075-1.556,0.075-2.495v-4.102h10.568v3.855h-3.391v1.176h4.17V161.978z M89.096,156.905
			v0.957h7.219v-0.957H89.096z M96.205,165.97v-1.395h-4.744v1.395H96.205z"/>
		<path d="M105.338,155.087h1.9c-0.01,0.174-0.023,0.442-0.041,0.807c0.018,0.347,0.047,0.699,0.089,1.06
			c0.041,0.36,0.123,0.829,0.245,1.408c0.123,0.579,0.271,1.135,0.445,1.668c0.173,0.533,0.417,1.114,0.732,1.743
			c0.313,0.629,0.668,1.208,1.065,1.736c0.396,0.529,0.894,1.041,1.49,1.538s1.255,0.914,1.976,1.251
			c-0.574,0.438-1.008,0.911-1.299,1.422c-2.652-1.321-4.49-3.664-5.51-7.027c-0.939,3.154-2.666,5.496-5.182,7.027
			c-0.301-0.438-0.766-0.88-1.395-1.326c0.547-0.301,1.051-0.643,1.511-1.025s0.858-0.766,1.196-1.148
			c0.336-0.383,0.645-0.813,0.923-1.292s0.508-0.913,0.69-1.306c0.182-0.392,0.344-0.846,0.484-1.36
			c0.143-0.515,0.248-0.94,0.322-1.278c0.072-0.337,0.135-0.75,0.186-1.237c0.049-0.487,0.082-0.841,0.094-1.06
			c0.015-0.219,0.031-0.528,0.049-0.93C105.328,155.356,105.338,155.133,105.338,155.087z"/>
		<path d="M127.021,158.833h-0.779c-0.311,2.151-0.82,3.893-1.531,5.223c0.666,1.039,1.49,1.814,2.475,2.324
			c-0.475,0.419-0.852,0.897-1.135,1.436c-0.949-0.565-1.736-1.308-2.365-2.229c-0.757,0.921-1.742,1.686-2.953,2.297
			c-0.082-0.21-0.26-0.524-0.533-0.943l-0.629,0.643c-0.375-0.319-0.857-0.67-1.449-1.053c-0.748,0.556-1.896,0.998-3.445,1.326
			c-0.092-0.447-0.311-0.907-0.656-1.381c1.121-0.137,2.004-0.387,2.652-0.752c-0.201-0.109-0.461-0.232-0.779-0.369l-0.15,0.26
			l-1.463-0.438c0.209-0.337,0.547-0.938,1.012-1.805h-1.326v-1.34h2.023c0.045-0.1,0.125-0.262,0.238-0.485
			c0.115-0.224,0.193-0.394,0.24-0.513l0.314,0.082v-1.354c-0.666,0.666-1.367,1.208-2.105,1.627
			c-0.238-0.501-0.516-0.902-0.834-1.203c0.92-0.383,1.74-0.966,2.461-1.75h-2.188v-1.313h1.066
			c-0.129-0.482-0.369-1.025-0.725-1.627l1.203-0.506c0.438,0.639,0.715,1.217,0.834,1.736l-0.889,0.396h1.176v-2.352h1.518v2.352
			h1.107l-0.916-0.41c0.363-0.564,0.674-1.157,0.93-1.777l1.408,0.561c-0.483,0.675-0.889,1.217-1.217,1.627h1.34v1.313h-2.297
			c0.893,0.511,1.549,0.902,1.969,1.176l-0.875,1.148c-0.246-0.236-0.73-0.643-1.449-1.217v1.695h-0.889l0.602,0.123l-0.342,0.67
			h3.336c-0.447-0.438-0.825-0.761-1.135-0.971c1.066-1.275,1.8-3.372,2.201-6.289l1.682,0.219c-0.092,0.675-0.242,1.44-0.451,2.297
			h3.719V158.833z M116.986,163.372l-0.41,0.752c0.346,0.137,0.756,0.314,1.23,0.533c0.246-0.392,0.424-0.82,0.533-1.285H116.986z
			 M121.006,163.372h-1.094c-0.155,0.812-0.402,1.477-0.738,1.996c0.392,0.219,0.779,0.465,1.162,0.738
			c1.012-0.528,1.832-1.234,2.461-2.119c-0.383-0.802-0.703-1.718-0.957-2.748c-0.102,0.191-0.314,0.524-0.643,0.998
			c-0.02-0.018-0.048-0.05-0.089-0.096c-0.042-0.045-0.075-0.082-0.103-0.109V163.372z M124.52,158.833h-1.613
			c0.191,1.176,0.479,2.27,0.861,3.281C124.113,161.176,124.363,160.082,124.52,158.833z"/>
	</g>
	<g>
		<path d="M240.234,54.504c-0.35-0.351-0.525-0.772-0.525-1.265s0.176-0.914,0.525-1.265c0.352-0.351,0.773-0.526,1.266-0.526
			s0.914,0.176,1.265,0.526s0.526,0.772,0.526,1.265s-0.176,0.914-0.526,1.265s-0.772,0.526-1.265,0.526
			S240.586,54.854,240.234,54.504z"/>
		<path d="M252.082,46.731l1.545,0.506c-0.401,0.976-0.834,1.873-1.299,2.693v9.803h-1.586v-7.396
			c-0.383,0.492-0.771,0.935-1.162,1.326c-0.238-0.629-0.529-1.193-0.875-1.695c0.665-0.629,1.301-1.412,1.906-2.352
			C251.219,48.678,251.709,47.716,252.082,46.731z M258.467,57.765h3.609v1.559h-9.023v-1.559h3.719v-2.789h-2.953v-1.572h2.953
			V50.97h-3.404v-1.572h3.979c-0.611-0.474-1.391-0.984-2.338-1.531l1.107-1.189c1.376,0.711,2.429,1.386,3.158,2.023l-0.615,0.697
			h3.213v1.572h-3.404v2.434h3.021v1.572h-3.021V57.765z"/>
		<path d="M275.775,53.909h-4.17v1.148h3.268v4.703h-1.668v-0.41h-4.744v0.424h-1.6v-4.717h3.09v-1.148h-3.719v-1.49h3.719v-1.176
			h-3.855v0.246c0,3.811-0.584,6.586-1.75,8.326c-0.42-0.347-0.912-0.634-1.477-0.861c0.445-0.656,0.793-1.467,1.039-2.434
			c0.246-0.966,0.395-1.812,0.444-2.536s0.075-1.556,0.075-2.495v-4.102h10.568v3.855h-3.391v1.176h4.17V53.909z M266.096,48.837
			v0.957h7.219v-0.957H266.096z M273.205,57.901v-1.395h-4.744v1.395H273.205z"/>
		<path d="M287.656,48.741l1.436,0.889c-0.211,0.355-0.365,0.684-0.465,0.984c-0.465,1.367-1.113,2.648-1.941,3.842
			c0.383,0.237,0.834,0.538,1.354,0.902l-1.271,1.627c-0.201-0.182-0.639-0.51-1.313-0.984c-1.441,1.568-3.158,2.729-5.154,3.486
			l-1.627-1.422c2.051-0.619,3.791-1.663,5.223-3.131c-0.866-0.556-1.742-1.089-2.625-1.6l1.189-1.326
			c0.92,0.483,1.8,0.971,2.639,1.463c0.746-1.084,1.23-2.078,1.449-2.98h-4.02c-1.131,1.486-2.361,2.689-3.691,3.609l-1.518-1.162
			c1.859-1.148,3.35-2.697,4.471-4.648c0.301-0.501,0.51-0.988,0.629-1.463l2.037,0.629c-0.311,0.447-0.602,0.921-0.875,1.422
			l-0.014,0.014h2.871C286.922,48.892,287.328,48.842,287.656,48.741z"/>
		<path d="M299.182,51.612v5.729c0,0.921,0.041,1.531,0.123,1.832h-2.215c0.063-0.401,0.096-1.012,0.096-1.832v-4.594
			c-1.659,0.839-3.264,1.473-4.813,1.9l-1.012-1.709c2.342-0.51,4.466-1.354,6.371-2.529c0.729-0.455,1.426-0.971,2.092-1.545
			c0.665-0.574,1.189-1.111,1.572-1.613l1.49,1.354C301.756,49.735,300.521,50.737,299.182,51.612z"/>
		<path d="M307.617,48.618h6.48c0.255,0,0.523-0.018,0.807-0.055c-0.02-0.109-0.027-0.2-0.027-0.273
			c0-0.465,0.164-0.859,0.492-1.183s0.725-0.485,1.189-0.485c0.455,0,0.848,0.162,1.176,0.485s0.492,0.718,0.492,1.183
			c0,0.456-0.164,0.848-0.492,1.176s-0.721,0.492-1.176,0.492c-0.092,0-0.156-0.004-0.191-0.014l-0.109,0.424
			c-0.547,2.279-1.244,3.979-2.092,5.1c-1.35,1.805-3.227,3.09-5.633,3.855l-1.531-1.668c1.313-0.31,2.4-0.738,3.268-1.285
			c0.865-0.547,1.607-1.212,2.229-1.996c0.438-0.547,0.795-1.176,1.072-1.887c0.279-0.711,0.473-1.398,0.582-2.064h-6.535
			c-0.621,0-1.176,0.019-1.668,0.055v-1.969C306.496,48.582,307.052,48.618,307.617,48.618z M316.559,49.097
			c0.219,0,0.405-0.08,0.561-0.239c0.154-0.159,0.232-0.349,0.232-0.567c0-0.228-0.078-0.419-0.232-0.574
			c-0.155-0.154-0.342-0.232-0.561-0.232c-0.229,0-0.422,0.078-0.581,0.232c-0.159,0.155-0.239,0.347-0.239,0.574
			c0,0.219,0.08,0.408,0.239,0.567S316.33,49.097,316.559,49.097z"/>
		<path d="M240.234,81.504c-0.35-0.351-0.525-0.772-0.525-1.265s0.176-0.914,0.525-1.265c0.352-0.351,0.773-0.526,1.266-0.526
			s0.914,0.176,1.265,0.526s0.526,0.772,0.526,1.265s-0.176,0.914-0.526,1.265s-0.772,0.526-1.265,0.526
			S240.586,81.854,240.234,81.504z"/>
		<path d="M250.318,77.478l1.586,0.41c-0.41,2.242-0.895,3.847-1.449,4.813l-1.6-0.602
			C249.548,80.868,250.035,79.328,250.318,77.478z M255.145,84.956h2.133c0.346,0,0.576-0.146,0.69-0.438
			c0.114-0.291,0.198-0.938,0.253-1.941c0.438,0.319,0.979,0.552,1.627,0.697c-0.109,1.285-0.33,2.165-0.663,2.639
			s-0.923,0.711-1.771,0.711h-2.447c-0.866,0-1.473-0.144-1.818-0.431c-0.348-0.287-0.543-0.817-0.588-1.593
			c-0.793,0.557-1.654,1.057-2.584,1.504c-0.292-0.456-0.656-0.893-1.094-1.313c1.23-0.556,2.451-1.294,3.664-2.215v-5.729h1.777
			v4.225c2.087-1.95,3.705-4.133,4.854-6.549l1.682,0.656c-1.695,3.227-3.874,5.93-6.535,8.107v0.861
			c0,0.355,0.047,0.579,0.144,0.67C254.563,84.911,254.789,84.956,255.145,84.956z M257.141,76.069l-1.094,1.354
			c-1.039-0.856-2.152-1.695-3.336-2.516l1.08-1.217C254.857,74.374,255.974,75.167,257.141,76.069z M258.521,79.132l1.504-0.711
			c0.446,0.656,0.863,1.372,1.251,2.146c0.388,0.775,0.671,1.449,0.854,2.023l-1.586,0.807
			C260.189,82.149,259.514,80.728,258.521,79.132z"/>
		<path d="M275.898,82.591h-2.693c-0.355,0.711-0.789,1.309-1.299,1.791c1.485,0.42,2.66,0.784,3.527,1.094l-1.025,1.354
			c-1.085-0.447-2.439-0.907-4.061-1.381c-1.395,0.684-3.51,1.13-6.344,1.34c-0.109-0.465-0.324-0.939-0.643-1.422
			c1.922-0.072,3.459-0.26,4.607-0.561c-0.102-0.027-0.242-0.063-0.424-0.109c-0.183-0.045-0.35-0.086-0.5-0.123
			c-0.15-0.036-0.293-0.068-0.43-0.096l-0.15,0.219l-1.613-0.506c0.309-0.392,0.701-0.925,1.176-1.6h-2.912v-1.34h3.814
			c0.055-0.091,0.146-0.236,0.273-0.438c0.127-0.2,0.223-0.355,0.287-0.465h-3.473v-3.924h3.035v-0.793h-3.691v-1.436h12.195v1.436
			h-3.787v0.793h3.35v3.924h-5.729c-0.064,0.119-0.164,0.283-0.301,0.492c-0.137,0.21-0.224,0.347-0.26,0.41h7.068V82.591z
			 M265.576,77.751v1.299h1.477v-1.299H265.576z M267.941,82.591l-0.465,0.684c0.711,0.146,1.576,0.352,2.598,0.615
			c0.52-0.355,0.947-0.788,1.285-1.299H267.941z M268.611,75.632v0.793h1.586v-0.793H268.611z M268.611,79.05h1.586v-1.299h-1.586
			V79.05z M273.451,77.751h-1.682v1.299h1.682V77.751z"/>
		<path d="M281.846,76.534l1.572,0.328c-0.092,0.21-0.232,0.561-0.424,1.053s-0.328,0.834-0.41,1.025h1.627v1.504h-7.191V78.94h1.6
			c-0.047-0.602-0.21-1.294-0.492-2.078l1.354-0.273c0.318,0.666,0.51,1.345,0.574,2.037l-1.313,0.314h3.719l-1.189-0.301
			C281.553,77.838,281.744,77.136,281.846,76.534z M284.061,75.044v1.436h-6.754v-1.436h2.57V73.8h1.613v1.244H284.061z
			 M277.813,86.788V81.36h5.783v5.373h-1.627v-0.643h-2.611v0.697H277.813z M281.969,82.796h-2.611v1.846h2.611V82.796z
			 M288.846,74.429l1.217,0.752c-0.656,1.805-1.213,3.19-1.668,4.156c0.939,0.994,1.408,2.088,1.408,3.281
			c0,1.039-0.251,1.736-0.752,2.092c-0.246,0.164-0.565,0.278-0.957,0.342c-0.273,0.037-0.647,0.046-1.121,0.027
			c0-0.592-0.137-1.139-0.41-1.641c0.346,0.027,0.609,0.037,0.793,0.027c0.219-0.018,0.387-0.055,0.506-0.109
			c0.227-0.137,0.342-0.451,0.342-0.943c0-0.984-0.475-1.937-1.422-2.857c0.219-0.528,0.615-1.69,1.189-3.486h-1.695v10.705h-1.627
			V74.497h3.951L288.846,74.429z"/>
		<path d="M299.4,85.12h4.361v1.326h-10.213V85.12h4.252v-0.957h-3.309v-1.326h3.309v-0.793c-0.475,0.019-1.107,0.043-1.9,0.075
			s-1.336,0.053-1.627,0.062l-0.068-1.299l1.477-0.027c0.363-0.629,0.564-0.975,0.602-1.039h-2.188
			c-0.109,3.1-0.662,5.419-1.654,6.959c-0.164-0.137-0.401-0.294-0.711-0.472c-0.311-0.178-0.564-0.304-0.766-0.376
			c0.61-0.957,1.012-2.073,1.203-3.35c0.191-1.275,0.287-2.67,0.287-4.184v-4.047h10.637v3.555h-8.969v0.492v0.123h9.338v1.299
			h-2.092c0.993,0.729,1.727,1.363,2.201,1.9l-1.381,0.861c-0.164-0.209-0.379-0.438-0.643-0.684
			c-0.237,0.01-0.596,0.023-1.073,0.041c-0.479,0.019-0.837,0.032-1.073,0.041v0.861h3.363v1.326H299.4V85.12z M301.41,75.687
			h-7.287v0.875h7.287V75.687z M300.111,79.815h-1.982c-0.01,0.019-0.238,0.347-0.684,0.984c0.738-0.018,1.658-0.045,2.762-0.082
			c-0.191-0.164-0.424-0.342-0.697-0.533L300.111,79.815z"/>
		<path d="M318.021,77.765h-0.779c-0.311,2.151-0.82,3.893-1.531,5.223c0.666,1.039,1.49,1.814,2.475,2.324
			c-0.475,0.419-0.852,0.897-1.135,1.436c-0.949-0.565-1.736-1.308-2.365-2.229c-0.757,0.921-1.742,1.686-2.953,2.297
			c-0.082-0.21-0.26-0.524-0.533-0.943l-0.629,0.643c-0.375-0.319-0.857-0.67-1.449-1.053c-0.748,0.556-1.896,0.998-3.445,1.326
			c-0.092-0.447-0.311-0.907-0.656-1.381c1.121-0.137,2.004-0.387,2.652-0.752c-0.201-0.109-0.461-0.232-0.779-0.369l-0.15,0.26
			l-1.463-0.438c0.209-0.337,0.547-0.938,1.012-1.805h-1.326v-1.34h2.023c0.045-0.1,0.125-0.262,0.238-0.485
			c0.115-0.224,0.193-0.394,0.24-0.513l0.314,0.082v-1.354c-0.666,0.666-1.367,1.208-2.105,1.627
			c-0.238-0.501-0.516-0.902-0.834-1.203c0.92-0.383,1.74-0.966,2.461-1.75h-2.188v-1.313h1.066
			c-0.129-0.482-0.369-1.025-0.725-1.627l1.203-0.506c0.438,0.639,0.715,1.217,0.834,1.736l-0.889,0.396h1.176v-2.352h1.518v2.352
			h1.107l-0.916-0.41c0.363-0.564,0.674-1.157,0.93-1.777l1.408,0.561c-0.483,0.675-0.889,1.217-1.217,1.627h1.34v1.313h-2.297
			c0.893,0.511,1.549,0.902,1.969,1.176l-0.875,1.148c-0.246-0.236-0.73-0.643-1.449-1.217v1.695h-0.889l0.602,0.123l-0.342,0.67
			h3.336c-0.447-0.438-0.825-0.761-1.135-0.971c1.066-1.275,1.8-3.372,2.201-6.289l1.682,0.219c-0.092,0.675-0.242,1.44-0.451,2.297
			h3.719V77.765z M307.986,82.304l-0.41,0.752c0.346,0.137,0.756,0.314,1.23,0.533c0.246-0.392,0.424-0.82,0.533-1.285H307.986z
			 M312.006,82.304h-1.094c-0.155,0.812-0.402,1.477-0.738,1.996c0.392,0.219,0.779,0.465,1.162,0.738
			c1.012-0.528,1.832-1.234,2.461-2.119c-0.383-0.802-0.703-1.718-0.957-2.748c-0.102,0.191-0.314,0.524-0.643,0.998
			c-0.02-0.018-0.048-0.05-0.089-0.096c-0.042-0.045-0.075-0.082-0.103-0.109V82.304z M315.52,77.765h-1.613
			c0.191,1.176,0.479,2.27,0.861,3.281C315.113,80.107,315.363,79.014,315.52,77.765z"/>
		<path d="M240.234,108.504c-0.35-0.351-0.525-0.772-0.525-1.265s0.176-0.914,0.525-1.265c0.352-0.351,0.773-0.526,1.266-0.526
			s0.914,0.176,1.265,0.526s0.526,0.772,0.526,1.265s-0.176,0.914-0.526,1.265s-0.772,0.526-1.265,0.526
			S240.586,108.854,240.234,108.504z"/>
		<path d="M250.633,108.265l1.818,0.164c-0.155,0.639-0.232,1.104-0.232,1.395c0,0.465,0.232,0.836,0.697,1.114
			s1.176,0.417,2.133,0.417c1.941,0,3.568-0.182,4.881-0.547l0.014,1.955c-1.367,0.31-2.977,0.465-4.826,0.465
			c-1.568,0-2.754-0.256-3.555-0.766c-0.803-0.51-1.203-1.244-1.203-2.201C250.359,109.823,250.45,109.158,250.633,108.265z
			 M258.371,101.524l1.107-0.451c0.392,0.565,0.766,1.208,1.121,1.928l-1.135,0.479c-0.037-0.072-0.102-0.195-0.191-0.369
			c-0.092-0.173-0.16-0.305-0.205-0.396v1.668c-1.551,0.109-2.885,0.164-4.006,0.164c-1.148,0-2.406-0.05-3.773-0.15v-1.846
			c1.021,0.109,2.273,0.164,3.76,0.164c1.293,0,2.602-0.059,3.924-0.178C258.771,102.145,258.57,101.808,258.371,101.524z
			 M260.025,100.896l1.107-0.451c0.428,0.584,0.807,1.222,1.135,1.914l-1.107,0.465
			C260.723,101.967,260.344,101.324,260.025,100.896z"/>
		<path d="M275.734,106.679h-7.451c-0.292,0.447-0.629,0.902-1.012,1.367h1.887v-1.148h1.613v1.148h3.869v3.322
			c0,0.383-0.047,0.677-0.137,0.882c-0.092,0.205-0.266,0.362-0.52,0.472c-0.393,0.164-1.107,0.246-2.146,0.246
			c-0.064-0.401-0.232-0.879-0.506-1.436c0.373,0.019,0.838,0.027,1.395,0.027c0.164,0,0.246-0.068,0.246-0.205v-1.846h-2.201v4.266
			h-1.613v-4.266h-1.982v3.555h-1.654v-3.295c-0.502,0.42-1.018,0.771-1.545,1.053c-0.319-0.455-0.689-0.87-1.107-1.244
			c1.275-0.656,2.42-1.622,3.432-2.898h-3.021v-1.463h3.965c0.246-0.474,0.405-0.811,0.479-1.012
			c-0.867,0.229-1.869,0.456-3.008,0.684c-0.465-0.656-0.844-1.121-1.135-1.395c1.594-0.228,2.957-0.487,4.088-0.779
			c-1.121-0.364-2.174-0.67-3.158-0.916l1.162-0.971c1.549,0.383,2.994,0.779,4.334,1.189c1.238-0.419,2.242-0.879,3.008-1.381
			l1.381,0.943c-0.602,0.374-1.346,0.757-2.229,1.148c1.176,0.42,2.078,0.779,2.707,1.08l-1.271,1.148
			c-0.867-0.428-2.051-0.911-3.555-1.449c-0.676,0.219-1.066,0.342-1.176,0.369l0.766,0.205c-0.074,0.191-0.252,0.57-0.533,1.135
			h6.631V106.679z"/>
		<path d="M278.004,105.216v-1.791h-0.984v-1.395h2.57v-1.313h1.545v1.313h2.543v1.395h-4.156v1.818
			c0,0.201,0.029,0.342,0.089,0.424s0.175,0.123,0.349,0.123h1.832c0.527,0,0.906-0.031,1.135-0.096
			c0,0.037,0.012,0.164,0.034,0.383s0.043,0.393,0.062,0.52c0.583-0.52,0.959-1.185,1.128-1.996
			c0.169-0.811,0.271-1.969,0.308-3.473h5.154c0,0.283-0.006,0.479-0.014,0.588c-0.064,1.796-0.137,3.078-0.219,3.849
			s-0.211,1.265-0.383,1.483c-0.201,0.273-0.511,0.442-0.93,0.506c-0.328,0.055-0.816,0.073-1.463,0.055
			c-0.018-0.455-0.137-0.879-0.355-1.271c0.4,0.037,0.742,0.055,1.025,0.055c0.182,0,0.314-0.055,0.396-0.164
			c0.072-0.082,0.127-0.264,0.164-0.547h-2.502c-0.338,0.93-0.867,1.654-1.586,2.174c-0.146-0.291-0.375-0.592-0.684-0.902
			l0.014,0.123c-0.201,0.073-0.615,0.109-1.244,0.109h-1.887c-0.757,0-1.27-0.144-1.538-0.431S278.004,105.954,278.004,105.216z
			 M284.307,112.161h5.414v1.381h-12.455v-1.381h5.373v-0.711h-3.924v-1.326h3.924v-0.697h-4.498v-1.367h10.814v1.367h-4.648v0.697
			h3.979v1.326h-3.979V112.161z M285.646,104.601h2.324c0.008-0.127,0.022-0.337,0.041-0.629h-2.27
			C285.705,104.272,285.674,104.482,285.646,104.601z M288.08,102.304h-2.188c-0.018,0.273-0.031,0.475-0.041,0.602h2.201
			L288.08,102.304z"/>
		<path d="M298.443,110.356h3.705c0.392,0,0.824-0.036,1.299-0.109v2.037c-0.393-0.055-0.825-0.082-1.299-0.082h-9.229
			c-0.447,0-0.902,0.027-1.367,0.082v-2.037c0.391,0.073,0.848,0.109,1.367,0.109h3.555v-5.715h-2.693
			c-0.301,0-0.748,0.023-1.34,0.068v-1.928c0.363,0.055,0.811,0.082,1.34,0.082h7.615c0.328,0,0.766-0.027,1.313-0.082v1.928
			c-0.703-0.045-1.14-0.068-1.313-0.068h-2.953V110.356z"/>
		<path d="M307.234,101.825h2.051c-0.027,0.319-0.041,0.67-0.041,1.053v4.744c0,0.483,0.014,0.889,0.041,1.217h-2.064
			c0-0.055,0.006-0.162,0.021-0.321c0.014-0.159,0.024-0.319,0.034-0.479c0.008-0.159,0.014-0.303,0.014-0.431v-4.73
			C307.289,102.459,307.27,102.108,307.234,101.825z M313.674,101.688h2.064c-0.037,0.529-0.055,0.998-0.055,1.408v2.775
			c0,1.422-0.131,2.529-0.391,3.322c-0.259,0.793-0.672,1.5-1.236,2.119c-0.803,0.885-1.932,1.559-3.391,2.023l-1.477-1.531
			c1.531-0.364,2.674-0.952,3.432-1.764c0.455-0.51,0.759-1.066,0.909-1.668s0.226-1.477,0.226-2.625v-2.652
			C313.756,102.55,313.729,102.081,313.674,101.688z"/>
		<path d="M330.75,102.044l1.121,1.039c-0.256,0.301-0.438,0.543-0.547,0.725c-0.393,0.647-0.896,1.338-1.511,2.071
			s-1.237,1.324-1.866,1.771l-1.436-1.162c0.52-0.318,1.025-0.738,1.518-1.258s0.842-0.971,1.053-1.354h-7.287
			c-0.375,0-0.943,0.032-1.709,0.096v-1.941c0.592,0.092,1.162,0.137,1.709,0.137h7.547
			C330.034,102.167,330.504,102.126,330.75,102.044z M324.133,104.97h2.023c0,0.62-0.006,1.107-0.014,1.463
			c-0.01,0.355-0.039,0.803-0.09,1.34c-0.049,0.538-0.125,0.978-0.225,1.319c-0.102,0.342-0.244,0.731-0.431,1.169
			s-0.417,0.818-0.69,1.142s-0.615,0.656-1.025,0.998s-0.885,0.653-1.422,0.937l-1.613-1.326c0.52-0.173,1.007-0.428,1.463-0.766
			c0.838-0.583,1.4-1.253,1.688-2.01c0.289-0.756,0.432-1.759,0.432-3.008C324.229,105.809,324.195,105.39,324.133,104.97z"/>
		<path d="M240.234,135.504c-0.35-0.351-0.525-0.772-0.525-1.265s0.176-0.914,0.525-1.265c0.352-0.351,0.773-0.526,1.266-0.526
			s0.914,0.176,1.265,0.526s0.526,0.772,0.526,1.265s-0.176,0.914-0.526,1.265s-0.772,0.526-1.265,0.526
			S240.586,135.854,240.234,135.504z"/>
		<path d="M261.27,130.028v8.846c0,0.465-0.055,0.82-0.164,1.066s-0.311,0.433-0.602,0.561c-0.42,0.191-1.326,0.287-2.721,0.287
			c-0.064-0.529-0.246-1.08-0.547-1.654c0.364,0.019,1.039,0.027,2.023,0.027c0.137-0.009,0.23-0.036,0.28-0.082
			c0.05-0.045,0.075-0.127,0.075-0.246v-7.191h-3.268c-0.027,0.565-0.092,1.094-0.191,1.586c1.705,1.55,2.857,2.712,3.459,3.486
			l-1.367,1.08c-0.52-0.711-1.399-1.686-2.639-2.926c-0.62,1.322-1.623,2.393-3.008,3.213c-0.319-0.474-0.707-0.884-1.162-1.23
			v3.951h-1.668v-10.773h4.881v-2.324h1.709v2.324H261.27z M251.439,131.642v5.168c0.629-0.328,1.162-0.701,1.6-1.121
			c0.438-0.419,0.764-0.868,0.978-1.347s0.366-0.925,0.458-1.34c0.091-0.415,0.145-0.868,0.164-1.36H251.439z"/>
		<path d="M272.385,139.353h1.668c0.219,0,0.365-0.068,0.438-0.205s0.123-0.446,0.15-0.93c0.383,0.237,0.838,0.41,1.367,0.52
			c-0.074,0.748-0.234,1.251-0.486,1.511c-0.25,0.26-0.689,0.39-1.318,0.39h-2.037c-0.82,0-1.373-0.116-1.654-0.349
			c-0.283-0.232-0.424-0.668-0.424-1.306v-0.629h-1.531c-0.211,0.729-0.662,1.278-1.354,1.647c-0.693,0.369-1.864,0.631-3.514,0.786
			c-0.109-0.42-0.348-0.839-0.711-1.258c1.33-0.072,2.271-0.195,2.822-0.369c0.553-0.173,0.914-0.441,1.088-0.807h-1.818v-4.771
			h8.873v4.771h-2.229v0.615c0,0.174,0.039,0.28,0.116,0.321S272.093,139.353,272.385,139.353z M269.732,132.298v0.93h-6.029v-5.086
			h5.811v0.943h-1.996v0.451h1.805v1.34c0.711-0.783,1.239-1.841,1.586-3.172l1.49,0.314c-0.082,0.311-0.201,0.656-0.355,1.039
			h3.801v1.285h-4.375c-0.355,0.675-0.67,1.172-0.943,1.49c-0.348-0.31-0.748-0.583-1.203-0.82v0.779h-1.805v0.506H269.732z
			 M266.178,129.085h-0.984v0.451h0.984V129.085z M267.859,130.903v-0.492h-2.666v0.492H267.859z M265.193,131.792v0.506h0.984
			v-0.506H265.193z M266.643,134.458v0.451h5.646v-0.451H266.643z M266.643,135.729v0.451h5.646v-0.451H266.643z M266.643,137.028
			v0.451h5.646v-0.451H266.643z M275.502,132.858h-4.648v-1.271h4.648V132.858z"/>
		<path d="M278.633,135.265l1.818,0.164c-0.155,0.639-0.232,1.104-0.232,1.395c0,0.465,0.232,0.836,0.697,1.114
			s1.176,0.417,2.133,0.417c1.941,0,3.568-0.182,4.881-0.547l0.014,1.955c-1.367,0.31-2.977,0.465-4.826,0.465
			c-1.568,0-2.754-0.256-3.555-0.766c-0.803-0.51-1.203-1.244-1.203-2.201C278.359,136.823,278.45,136.158,278.633,135.265z
			 M286.371,128.524l1.107-0.451c0.392,0.565,0.766,1.208,1.121,1.928l-1.135,0.479c-0.037-0.072-0.102-0.195-0.191-0.369
			c-0.092-0.173-0.16-0.305-0.205-0.396v1.668c-1.551,0.109-2.885,0.164-4.006,0.164c-1.148,0-2.406-0.05-3.773-0.15v-1.846
			c1.021,0.109,2.273,0.164,3.76,0.164c1.293,0,2.602-0.059,3.924-0.178C286.771,129.145,286.57,128.808,286.371,128.524z
			 M288.025,127.896l1.107-0.451c0.428,0.584,0.807,1.222,1.135,1.914l-1.107,0.465
			C288.723,128.967,288.344,128.324,288.025,127.896z"/>
		<path d="M303.734,133.679h-7.451c-0.292,0.447-0.629,0.902-1.012,1.367h1.887v-1.148h1.613v1.148h3.869v3.322
			c0,0.383-0.047,0.677-0.137,0.882c-0.092,0.205-0.266,0.362-0.52,0.472c-0.393,0.164-1.107,0.246-2.146,0.246
			c-0.064-0.401-0.232-0.879-0.506-1.436c0.373,0.019,0.838,0.027,1.395,0.027c0.164,0,0.246-0.068,0.246-0.205v-1.846h-2.201v4.266
			h-1.613v-4.266h-1.982v3.555h-1.654v-3.295c-0.502,0.42-1.018,0.771-1.545,1.053c-0.319-0.455-0.689-0.87-1.107-1.244
			c1.275-0.656,2.42-1.622,3.432-2.898h-3.021v-1.463h3.965c0.246-0.474,0.405-0.811,0.479-1.012
			c-0.867,0.229-1.869,0.456-3.008,0.684c-0.465-0.656-0.844-1.121-1.135-1.395c1.594-0.228,2.957-0.487,4.088-0.779
			c-1.121-0.364-2.174-0.67-3.158-0.916l1.162-0.971c1.549,0.383,2.994,0.779,4.334,1.189c1.238-0.419,2.242-0.879,3.008-1.381
			l1.381,0.943c-0.602,0.374-1.346,0.757-2.229,1.148c1.176,0.42,2.078,0.779,2.707,1.08l-1.271,1.148
			c-0.867-0.428-2.051-0.911-3.555-1.449c-0.676,0.219-1.066,0.342-1.176,0.369l0.766,0.205c-0.074,0.191-0.252,0.57-0.533,1.135
			h6.631V133.679z"/>
		<path d="M306.004,132.216v-1.791h-0.984v-1.395h2.57v-1.313h1.545v1.313h2.543v1.395h-4.156v1.818
			c0,0.201,0.029,0.342,0.089,0.424s0.175,0.123,0.349,0.123h1.832c0.527,0,0.906-0.031,1.135-0.096
			c0,0.037,0.012,0.164,0.034,0.383s0.043,0.393,0.062,0.52c0.583-0.52,0.959-1.185,1.128-1.996
			c0.169-0.811,0.271-1.969,0.308-3.473h5.154c0,0.283-0.006,0.479-0.014,0.588c-0.064,1.796-0.137,3.078-0.219,3.849
			s-0.211,1.265-0.383,1.483c-0.201,0.273-0.511,0.442-0.93,0.506c-0.328,0.055-0.816,0.073-1.463,0.055
			c-0.018-0.455-0.137-0.879-0.355-1.271c0.4,0.037,0.742,0.055,1.025,0.055c0.182,0,0.314-0.055,0.396-0.164
			c0.072-0.082,0.127-0.264,0.164-0.547h-2.502c-0.338,0.93-0.867,1.654-1.586,2.174c-0.146-0.291-0.375-0.592-0.684-0.902
			l0.014,0.123c-0.201,0.073-0.615,0.109-1.244,0.109h-1.887c-0.757,0-1.27-0.144-1.538-0.431S306.004,132.954,306.004,132.216z
			 M312.307,139.161h5.414v1.381h-12.455v-1.381h5.373v-0.711h-3.924v-1.326h3.924v-0.697h-4.498v-1.367h10.814v1.367h-4.648v0.697
			h3.979v1.326h-3.979V139.161z M313.646,131.601h2.324c0.008-0.127,0.022-0.337,0.041-0.629h-2.27
			C313.705,131.272,313.674,131.482,313.646,131.601z M316.08,129.304h-2.188c-0.018,0.273-0.031,0.475-0.041,0.602h2.201
			L316.08,129.304z"/>
		<path d="M320.674,128.538h9.721v12.045h-1.791v-0.889h-6.207v0.916h-1.723V128.538z M328.604,130.22h-6.207v3.008h6.207V130.22z
			 M322.396,138.013h6.207v-3.131h-6.207V138.013z"/>
		<path d="M337.791,128.552v9.516h-2.844v1.244h-1.531v-10.76H337.791z M336.232,130.042h-1.285v2.461h1.285V130.042z
			 M334.947,136.591h1.285v-2.639h-1.285V136.591z M346.021,133.31h-1.436v1.203h1.34v1.449h-1.34v3.049
			c0,0.41-0.051,0.729-0.15,0.957c-0.1,0.228-0.283,0.4-0.547,0.52c-0.429,0.182-1.208,0.273-2.338,0.273
			c-0.047-0.42-0.224-0.943-0.533-1.572c0.446,0.019,0.998,0.027,1.654,0.027c0.199,0,0.301-0.082,0.301-0.246v-3.008h-4.908v-1.449
			h4.908v-1.203h-4.949v-1.449h3.172v-1.23h-2.693v-1.463h2.693v-1.463h1.641v1.463h2.803v1.463h-2.803v1.23h3.186V133.31z
			 M338.611,136.892l1.34-0.766c0.856,0.912,1.422,1.678,1.695,2.297l-1.436,0.82C339.965,138.605,339.432,137.821,338.611,136.892z
			"/>
	</g>
</g>
<g id="_x31_6_x3000_よくある質問_x3000_help">
</g>
<g id="_x31_7_x3000_便利なリンク集_x3000_link">
</g>
<g id="_x31_8_x3000_不動産オーナー様へ_x3000_owner">
</g>
<g id="mouse-over" display="none">
</g>
</svg>
