<?xml version="1.0" encoding="utf-8"?>
<!-- Generator: Adobe Illustrator 16.0.0, SVG Export Plug-In . SVG Version: 6.00 Build 0)  -->
<!DOCTYPE svg PUBLIC "-//W3C//DTD SVG 1.0//EN" "http://www.w3.org/TR/2001/REC-SVG-20010904/DTD/svg10.dtd">
<svg version="1.0" id="Layer_1" xmlns="http://www.w3.org/2000/svg"  x="0px" y="0px"
	 width="383px" height="293px" viewBox="0 0 383 293" enable-background="new 0 0 383 293" xml:space="preserve">
<g>
	<g>
		<path d="M78.191,46.728V35.274h2.25l4.688,7.648v-7.648h2.148v11.453h-2.32l-4.617-7.469v7.469H78.191z"/>
		<path d="M89.903,47.274l2.508,0.305c0.042,0.291,0.138,0.492,0.289,0.602c0.208,0.156,0.536,0.234,0.984,0.234
			c0.573,0,1.002-0.086,1.289-0.258c0.192-0.115,0.338-0.3,0.438-0.555c0.067-0.183,0.102-0.519,0.102-1.008v-1.211
			c-0.656,0.896-1.484,1.344-2.484,1.344c-1.115,0-1.998-0.472-2.648-1.414c-0.511-0.745-0.766-1.672-0.766-2.781
			c0-1.391,0.334-2.453,1.004-3.188c0.669-0.734,1.501-1.102,2.496-1.102c1.026,0,1.872,0.45,2.539,1.352v-1.164h2.055v7.445
			c0,0.979-0.081,1.711-0.242,2.195c-0.162,0.484-0.388,0.864-0.68,1.141c-0.292,0.275-0.681,0.492-1.168,0.648
			c-0.487,0.156-1.103,0.234-1.848,0.234c-1.406,0-2.404-0.241-2.992-0.723c-0.589-0.482-0.883-1.093-0.883-1.832
			C89.896,47.467,89.898,47.378,89.903,47.274z M91.864,42.407c0,0.88,0.17,1.524,0.512,1.934c0.341,0.409,0.762,0.613,1.262,0.613
			c0.536,0,0.989-0.21,1.359-0.629c0.37-0.419,0.555-1.04,0.555-1.863c0-0.859-0.177-1.497-0.531-1.914
			c-0.354-0.417-0.802-0.625-1.344-0.625c-0.526,0-0.96,0.204-1.301,0.613C92.035,40.945,91.864,41.568,91.864,42.407z"/>
		<path d="M101.92,40.962l-1.992-0.359c0.224-0.802,0.609-1.396,1.156-1.781s1.359-0.578,2.438-0.578
			c0.979,0,1.708,0.116,2.188,0.348c0.479,0.231,0.816,0.526,1.012,0.883s0.293,1.012,0.293,1.965l-0.023,2.563
			c0,0.729,0.035,1.267,0.105,1.613s0.202,0.718,0.395,1.113h-2.172c-0.058-0.146-0.128-0.362-0.211-0.648
			c-0.037-0.13-0.063-0.216-0.078-0.258c-0.375,0.364-0.776,0.638-1.203,0.82c-0.427,0.182-0.883,0.273-1.367,0.273
			c-0.854,0-1.527-0.231-2.02-0.695s-0.738-1.05-0.738-1.758c0-0.469,0.112-0.887,0.336-1.254c0.224-0.367,0.538-0.648,0.941-0.844
			c0.403-0.195,0.985-0.366,1.746-0.512c1.026-0.192,1.737-0.372,2.133-0.539v-0.219c0-0.422-0.104-0.723-0.313-0.902
			c-0.208-0.18-0.602-0.27-1.18-0.27c-0.391,0-0.695,0.077-0.914,0.23S102.056,40.576,101.92,40.962z M100.952,37.384l1.641-2.305
			h2.031l1.617,2.305h-1.766l-0.906-1.164l-0.844,1.164H100.952z M104.858,42.743c-0.281,0.094-0.727,0.206-1.336,0.336
			s-1.008,0.258-1.195,0.383c-0.287,0.203-0.43,0.461-0.43,0.773c0,0.308,0.114,0.573,0.344,0.797
			c0.229,0.224,0.521,0.336,0.875,0.336c0.396,0,0.773-0.13,1.133-0.391c0.266-0.198,0.44-0.44,0.523-0.727
			c0.057-0.188,0.086-0.544,0.086-1.07V42.743z"/>
		<path d="M117.125,46.728h-2.195v-4.234c0-0.896-0.047-1.476-0.141-1.738s-0.246-0.468-0.457-0.613s-0.465-0.219-0.762-0.219
			c-0.38,0-0.722,0.104-1.023,0.313c-0.302,0.208-0.509,0.484-0.621,0.828c-0.112,0.344-0.168,0.979-0.168,1.906v3.758h-2.195
			v-8.297h2.039v1.219c0.724-0.938,1.635-1.406,2.734-1.406c0.484,0,0.927,0.087,1.328,0.262c0.401,0.175,0.704,0.397,0.91,0.668
			c0.206,0.271,0.349,0.578,0.43,0.922c0.081,0.344,0.121,0.836,0.121,1.477V46.728z"/>
		<path d="M123.824,44.36l2.203-0.336c0.094,0.427,0.284,0.751,0.57,0.973s0.688,0.332,1.203,0.332c0.567,0,0.995-0.104,1.281-0.313
			c0.192-0.146,0.289-0.341,0.289-0.586c0-0.167-0.052-0.305-0.156-0.414c-0.109-0.104-0.354-0.2-0.734-0.289
			c-1.771-0.391-2.894-0.747-3.367-1.07c-0.656-0.448-0.984-1.07-0.984-1.867c0-0.719,0.284-1.323,0.852-1.813
			s1.448-0.734,2.641-0.734c1.136,0,1.979,0.185,2.531,0.555s0.933,0.917,1.141,1.641l-2.07,0.383
			c-0.089-0.323-0.257-0.57-0.504-0.742s-0.601-0.258-1.059-0.258c-0.578,0-0.992,0.081-1.242,0.242
			c-0.167,0.114-0.25,0.263-0.25,0.445c0,0.156,0.073,0.289,0.219,0.398c0.198,0.146,0.882,0.352,2.051,0.617
			s1.985,0.591,2.449,0.977c0.458,0.391,0.688,0.935,0.688,1.633c0,0.761-0.317,1.414-0.953,1.961s-1.575,0.82-2.82,0.82
			c-1.13,0-2.024-0.229-2.684-0.688S124.027,45.146,123.824,44.36z"/>
		<path d="M135.537,40.962l-1.992-0.359c0.224-0.802,0.609-1.396,1.156-1.781s1.359-0.578,2.438-0.578
			c0.979,0,1.708,0.116,2.188,0.348s0.816,0.526,1.012,0.883s0.293,1.012,0.293,1.965l-0.023,2.563c0,0.729,0.035,1.267,0.105,1.613
			s0.202,0.718,0.395,1.113h-2.172c-0.058-0.146-0.128-0.362-0.211-0.648c-0.036-0.13-0.063-0.216-0.078-0.258
			c-0.375,0.364-0.776,0.638-1.203,0.82c-0.427,0.182-0.883,0.273-1.367,0.273c-0.854,0-1.527-0.231-2.02-0.695
			s-0.738-1.05-0.738-1.758c0-0.469,0.112-0.887,0.336-1.254s0.538-0.648,0.941-0.844s0.985-0.366,1.746-0.512
			c1.026-0.192,1.737-0.372,2.133-0.539v-0.219c0-0.422-0.104-0.723-0.313-0.902s-0.602-0.27-1.18-0.27
			c-0.391,0-0.695,0.077-0.914,0.23S135.672,40.576,135.537,40.962z M138.474,42.743c-0.281,0.094-0.727,0.206-1.336,0.336
			s-1.008,0.258-1.195,0.383c-0.286,0.203-0.43,0.461-0.43,0.773c0,0.308,0.114,0.573,0.344,0.797s0.521,0.336,0.875,0.336
			c0.396,0,0.773-0.13,1.133-0.391c0.266-0.198,0.44-0.44,0.523-0.727c0.058-0.188,0.086-0.544,0.086-1.07V42.743z M136.099,37.415
			l1.078-2.336h2.461l-2.148,2.336H136.099z"/>
		<path d="M150.428,40.884l-2.164,0.391c-0.073-0.433-0.238-0.758-0.496-0.977s-0.593-0.328-1.004-0.328
			c-0.547,0-0.983,0.188-1.309,0.566s-0.488,1.009-0.488,1.895c0,0.984,0.165,1.68,0.496,2.086s0.774,0.609,1.332,0.609
			c0.417,0,0.758-0.118,1.023-0.355s0.453-0.645,0.563-1.223l2.156,0.367c-0.224,0.989-0.653,1.737-1.289,2.242
			s-1.487,0.758-2.555,0.758c-1.214,0-2.181-0.383-2.902-1.148s-1.082-1.825-1.082-3.18c0-1.37,0.362-2.437,1.086-3.199
			s1.703-1.145,2.938-1.145c1.011,0,1.813,0.218,2.41,0.652S150.167,39.993,150.428,40.884z"/>
		<path d="M154.68,35.274v4.211c0.708-0.828,1.555-1.242,2.539-1.242c0.505,0,0.961,0.094,1.367,0.281s0.712,0.427,0.918,0.719
			s0.347,0.614,0.422,0.969s0.113,0.903,0.113,1.648v4.867h-2.195v-4.383c0-0.87-0.042-1.422-0.125-1.656s-0.23-0.421-0.441-0.559
			s-0.476-0.207-0.793-0.207c-0.364,0-0.69,0.089-0.977,0.266s-0.496,0.444-0.629,0.801s-0.199,0.884-0.199,1.582v4.156h-2.195
			V35.274H154.68z"/>
		<path d="M78.191,72.728V61.274h2.25l4.688,7.648v-7.648h2.148v11.453h-2.32l-4.617-7.469v7.469H78.191z"/>
		<path d="M92.294,61.274v4.211c0.708-0.828,1.555-1.242,2.539-1.242c0.505,0,0.961,0.094,1.367,0.281s0.712,0.427,0.918,0.719
			c0.206,0.292,0.346,0.614,0.422,0.969c0.075,0.354,0.113,0.903,0.113,1.648v4.867h-2.195v-4.383c0-0.87-0.042-1.422-0.125-1.656
			c-0.083-0.234-0.23-0.421-0.441-0.559s-0.476-0.207-0.793-0.207c-0.365,0-0.69,0.089-0.977,0.266
			c-0.287,0.177-0.496,0.444-0.629,0.801s-0.199,0.884-0.199,1.582v4.156h-2.195V61.274H92.294z"/>
		<path d="M105.741,72.728v-1.242c-0.302,0.442-0.699,0.792-1.191,1.047s-1.012,0.383-1.559,0.383c-0.558,0-1.058-0.123-1.5-0.367
			c-0.443-0.245-0.763-0.589-0.961-1.031c-0.198-0.442-0.297-1.055-0.297-1.836v-5.25h2.195v3.813c0,1.167,0.04,1.882,0.121,2.145
			c0.081,0.263,0.228,0.472,0.441,0.625c0.213,0.153,0.484,0.23,0.813,0.23c0.375,0,0.711-0.103,1.008-0.309s0.5-0.461,0.609-0.766
			s0.164-1.051,0.164-2.238v-3.5h2.195v8.297H105.741z"/>
		<path d="M122.534,66.884l-2.165,0.391c-0.073-0.433-0.238-0.758-0.496-0.977s-0.593-0.328-1.004-0.328
			c-0.547,0-0.983,0.188-1.309,0.566c-0.326,0.378-0.488,1.009-0.488,1.895c0,0.984,0.165,1.68,0.496,2.086
			c0.331,0.406,0.774,0.609,1.332,0.609c0.417,0,0.758-0.118,1.023-0.355s0.453-0.645,0.563-1.223l2.157,0.367
			c-0.225,0.989-0.654,1.737-1.29,2.242c-0.636,0.505-1.487,0.758-2.555,0.758c-1.214,0-2.181-0.383-2.902-1.148
			c-0.722-0.766-1.082-1.825-1.082-3.18c0-1.37,0.362-2.437,1.086-3.199c0.724-0.763,1.703-1.145,2.938-1.145
			c1.01,0,1.813,0.218,2.41,0.652C121.844,65.33,122.272,65.993,122.534,66.884z"/>
		<path d="M126.238,66.962l-1.992-0.359c0.224-0.802,0.609-1.396,1.156-1.781s1.359-0.578,2.438-0.578
			c0.979,0,1.708,0.116,2.188,0.348s0.816,0.526,1.012,0.883s0.293,1.012,0.293,1.965l-0.023,2.563c0,0.729,0.035,1.267,0.105,1.613
			s0.202,0.718,0.395,1.113h-2.172c-0.058-0.146-0.128-0.362-0.211-0.648c-0.036-0.13-0.063-0.216-0.078-0.258
			c-0.375,0.364-0.776,0.638-1.203,0.82c-0.427,0.182-0.883,0.273-1.367,0.273c-0.854,0-1.527-0.231-2.02-0.695
			s-0.738-1.05-0.738-1.758c0-0.469,0.112-0.887,0.336-1.254s0.538-0.648,0.941-0.844s0.985-0.366,1.746-0.512
			c1.026-0.192,1.737-0.372,2.133-0.539v-0.219c0-0.422-0.104-0.723-0.313-0.902s-0.602-0.27-1.18-0.27
			c-0.391,0-0.695,0.077-0.914,0.23S126.374,66.576,126.238,66.962z M125.269,63.384l1.641-2.305h2.031l1.617,2.305h-1.766
			l-0.906-1.164l-0.844,1.164H125.269z M128.964,60.657h-1.383l-2.156-2.203h2.461L128.964,60.657z M129.175,68.743
			c-0.281,0.094-0.727,0.206-1.336,0.336s-1.008,0.258-1.195,0.383c-0.286,0.203-0.43,0.461-0.43,0.773
			c0,0.308,0.114,0.573,0.344,0.797s0.521,0.336,0.875,0.336c0.396,0,0.773-0.13,1.133-0.391c0.266-0.198,0.44-0.44,0.523-0.727
			c0.058-0.188,0.086-0.544,0.086-1.07V68.743z"/>
		<path d="M139.357,72.728v-1.242c-0.302,0.442-0.699,0.792-1.191,1.047s-1.012,0.383-1.559,0.383c-0.558,0-1.058-0.123-1.5-0.367
			c-0.442-0.245-0.763-0.589-0.961-1.031s-0.297-1.055-0.297-1.836v-5.25h2.195v3.813c0,1.167,0.04,1.882,0.121,2.145
			s0.228,0.472,0.441,0.625s0.484,0.23,0.813,0.23c0.375,0,0.711-0.103,1.008-0.309s0.5-0.461,0.609-0.766s0.164-1.051,0.164-2.238
			v-3.5h2.195v8.297H139.357z"/>
		<path d="M148.915,72.728V61.274h2.195v11.453H148.915z"/>
		<path d="M155.4,66.962l-1.992-0.359c0.224-0.802,0.609-1.396,1.156-1.781s1.359-0.578,2.438-0.578
			c0.979,0,1.708,0.116,2.188,0.348s0.816,0.526,1.012,0.883s0.293,1.012,0.293,1.965l-0.023,2.563c0,0.729,0.035,1.267,0.105,1.613
			s0.202,0.718,0.395,1.113h-2.172c-0.058-0.146-0.128-0.362-0.211-0.648c-0.036-0.13-0.063-0.216-0.078-0.258
			c-0.375,0.364-0.776,0.638-1.203,0.82c-0.427,0.182-0.883,0.273-1.367,0.273c-0.854,0-1.527-0.231-2.02-0.695
			s-0.738-1.05-0.738-1.758c0-0.469,0.112-0.887,0.336-1.254s0.538-0.648,0.941-0.844s0.985-0.366,1.746-0.512
			c1.026-0.192,1.737-0.372,2.133-0.539v-0.219c0-0.422-0.104-0.723-0.313-0.902s-0.602-0.27-1.18-0.27
			c-0.391,0-0.695,0.077-0.914,0.23S155.536,66.576,155.4,66.962z M154.431,63.384l1.641-2.305h2.031l1.617,2.305h-1.766
			l-0.906-1.164l-0.844,1.164H154.431z M158.337,68.743c-0.281,0.094-0.727,0.206-1.336,0.336s-1.008,0.258-1.195,0.383
			c-0.286,0.203-0.43,0.461-0.43,0.773c0,0.308,0.114,0.573,0.344,0.797s0.521,0.336,0.875,0.336c0.396,0,0.773-0.13,1.133-0.391
			c0.266-0.198,0.44-0.44,0.523-0.727c0.058-0.188,0.086-0.544,0.086-1.07V68.743z M156.041,60.657l1.008-2.203h2.461l-2.078,2.203
			H156.041z"/>
		<path d="M162.019,64.431h2.336l1.984,5.891l1.938-5.891h2.273l-2.93,7.984l-0.523,1.445c-0.192,0.484-0.376,0.854-0.551,1.109
			c-0.175,0.255-0.375,0.462-0.602,0.621c-0.227,0.158-0.505,0.282-0.836,0.371c-0.331,0.088-0.704,0.133-1.121,0.133
			c-0.422,0-0.836-0.045-1.242-0.133l-0.195-1.719c0.344,0.067,0.653,0.102,0.93,0.102c0.511,0,0.888-0.15,1.133-0.449
			c0.245-0.3,0.433-0.682,0.563-1.145L162.019,64.431z"/>
		<path d="M179.389,61.274v4.211c0.708-0.828,1.555-1.242,2.539-1.242c0.505,0,0.961,0.094,1.367,0.281s0.712,0.427,0.918,0.719
			s0.347,0.614,0.422,0.969s0.113,0.903,0.113,1.648v4.867h-2.195v-4.383c0-0.87-0.042-1.422-0.125-1.656s-0.23-0.421-0.441-0.559
			s-0.476-0.207-0.793-0.207c-0.364,0-0.69,0.089-0.977,0.266s-0.496,0.444-0.629,0.801s-0.199,0.884-0.199,1.582v4.156h-2.195
			V61.274H179.389z"/>
		<path d="M186.868,68.462c0-0.729,0.18-1.435,0.539-2.117s0.868-1.203,1.527-1.563s1.395-0.539,2.207-0.539
			c1.255,0,2.285,0.407,3.085,1.223c0.803,0.815,1.203,1.845,1.203,3.09c0,1.255-0.404,2.296-1.215,3.121
			c-0.809,0.825-1.829,1.238-3.058,1.238c-0.761,0-1.485-0.172-2.176-0.516s-1.215-0.848-1.574-1.512S186.868,69.415,186.868,68.462
			z M189.118,68.579c0,0.823,0.195,1.453,0.586,1.891s0.872,0.656,1.445,0.656s1.054-0.219,1.441-0.656s0.582-1.073,0.582-1.906
			c0-0.813-0.194-1.438-0.582-1.875s-0.868-0.656-1.441-0.656s-1.055,0.219-1.445,0.656S189.118,67.756,189.118,68.579z"/>
		<path d="M199.189,66.962l-1.992-0.359c0.223-0.802,0.609-1.396,1.156-1.781s1.359-0.578,2.438-0.578
			c0.979,0,1.707,0.116,2.188,0.348c0.479,0.231,0.816,0.526,1.012,0.883s0.293,1.012,0.293,1.965l-0.023,2.563
			c0,0.729,0.035,1.267,0.105,1.613s0.201,0.718,0.395,1.113h-2.172c-0.059-0.146-0.129-0.362-0.211-0.648
			c-0.037-0.13-0.063-0.216-0.078-0.258c-0.375,0.364-0.777,0.638-1.203,0.82c-0.428,0.182-0.883,0.273-1.367,0.273
			c-0.855,0-1.527-0.231-2.02-0.695s-0.738-1.05-0.738-1.758c0-0.469,0.111-0.887,0.336-1.254c0.223-0.367,0.537-0.648,0.941-0.844
			c0.402-0.195,0.984-0.366,1.746-0.512c1.025-0.192,1.736-0.372,2.133-0.539v-0.219c0-0.422-0.105-0.723-0.313-0.902
			c-0.209-0.18-0.602-0.27-1.18-0.27c-0.391,0-0.695,0.077-0.914,0.23S199.324,66.576,199.189,66.962z M202.127,68.743
			c-0.281,0.094-0.727,0.206-1.336,0.336s-1.008,0.258-1.195,0.383c-0.287,0.203-0.43,0.461-0.43,0.773
			c0,0.308,0.113,0.573,0.344,0.797c0.229,0.224,0.52,0.336,0.875,0.336c0.395,0,0.773-0.13,1.133-0.391
			c0.266-0.198,0.439-0.44,0.523-0.727c0.057-0.188,0.086-0.544,0.086-1.07V68.743z M199.752,63.415l1.078-2.336h2.461l-2.148,2.336
			H199.752z"/>
		<path d="M217.107,63.548h-2.367v-1.461h2.367v-0.813h2.195v0.813h0.867v1.461h-0.867v9.18h-2.039v-1.219
			c-0.34,0.474-0.738,0.827-1.199,1.059s-0.926,0.348-1.395,0.348c-0.953,0-1.77-0.384-2.449-1.152s-1.02-1.84-1.02-3.215
			c0-1.406,0.33-2.476,0.992-3.207c0.66-0.731,1.496-1.098,2.508-1.098c0.926,0,1.729,0.386,2.406,1.156V63.548z M213.443,68.399
			c0,0.886,0.121,1.526,0.367,1.922c0.354,0.573,0.848,0.859,1.484,0.859c0.504,0,0.934-0.215,1.289-0.645
			c0.354-0.43,0.531-1.071,0.531-1.926c0-0.953-0.172-1.64-0.516-2.059s-0.785-0.629-1.32-0.629c-0.521,0-0.957,0.207-1.309,0.621
			S213.443,67.576,213.443,68.399z"/>
		<path d="M229.896,64.431h2.195v1.57c0,0.646-0.055,1.151-0.168,1.516c-0.111,0.364-0.318,0.69-0.621,0.977
			c-0.348,0.339-0.824,0.604-1.43,0.797c-0.129,0.933-0.518,1.727-1.164,2.383c-0.813,0.828-1.832,1.242-3.063,1.242
			c-0.785,0-1.51-0.172-2.172-0.516c-0.703-0.364-1.23-0.874-1.586-1.527c-0.354-0.653-0.531-1.457-0.531-2.41
			c0-0.75,0.18-1.456,0.539-2.117c0.375-0.692,0.889-1.216,1.539-1.57c0.652-0.354,1.383-0.531,2.195-0.531
			c1.256,0,2.285,0.406,3.086,1.219c0.725,0.739,1.123,1.653,1.195,2.742c0.678-0.276,1.027-0.802,1.047-1.578h-1.063V64.431z
			 M223.607,68.579c0,0.797,0.195,1.427,0.586,1.891c0.371,0.438,0.852,0.656,1.445,0.656s1.074-0.219,1.438-0.656
			c0.391-0.464,0.586-1.099,0.586-1.906c0-0.792-0.195-1.417-0.586-1.875c-0.363-0.438-0.844-0.656-1.438-0.656
			s-1.074,0.219-1.445,0.656C223.803,67.152,223.607,67.782,223.607,68.579z"/>
		<path d="M241.188,72.728h-2.195v-4.234c0-0.896-0.047-1.476-0.141-1.738s-0.246-0.468-0.457-0.613s-0.465-0.219-0.762-0.219
			c-0.379,0-0.721,0.104-1.023,0.313c-0.301,0.208-0.508,0.484-0.621,0.828c-0.111,0.344-0.168,0.979-0.168,1.906v3.758h-2.195
			v-8.297h2.039v1.219c0.725-0.938,1.637-1.406,2.734-1.406c0.484,0,0.928,0.087,1.328,0.262c0.402,0.175,0.705,0.397,0.91,0.668
			c0.207,0.271,0.35,0.578,0.43,0.922c0.082,0.344,0.121,0.836,0.121,1.477V72.728z"/>
		<path d="M251.598,72.728l-4.094-11.453h2.508l2.898,8.477l2.805-8.477h2.453l-4.102,11.453H251.598z"/>
		<path d="M270.076,72.728h-2.516l-1-2.602h-4.578l-0.945,2.602h-2.453l4.461-11.453h2.445L270.076,72.728z M265.818,68.196
			l-1.578-4.25l-1.547,4.25H265.818z"/>
		<path d="M274.279,72.728v-9.516h-3.398v-1.938h9.102v1.938h-3.391v9.516H274.279z"/>
		<path d="M80.746,98.728v-9.516h-3.398v-1.938h9.102v1.938h-3.391v9.516H80.746z"/>
		<path d="M90.513,87.274v4.211c0.708-0.828,1.555-1.242,2.539-1.242c0.505,0,0.961,0.094,1.367,0.281s0.712,0.427,0.918,0.719
			c0.206,0.292,0.346,0.614,0.422,0.969c0.075,0.354,0.113,0.903,0.113,1.648v4.867h-2.195v-4.383c0-0.87-0.042-1.422-0.125-1.656
			c-0.083-0.234-0.23-0.421-0.441-0.559s-0.476-0.207-0.793-0.207c-0.365,0-0.69,0.089-0.977,0.266
			c-0.287,0.177-0.496,0.444-0.629,0.801s-0.199,0.884-0.199,1.582v4.156h-2.195V87.274H90.513z"/>
		<path d="M106.53,90.431h2.195v1.57c0,0.646-0.056,1.151-0.168,1.516c-0.112,0.364-0.319,0.69-0.621,0.977
			c-0.349,0.339-0.826,0.604-1.43,0.797c-0.13,0.933-0.519,1.727-1.164,2.383c-0.813,0.828-1.833,1.242-3.063,1.242
			c-0.787,0-1.511-0.172-2.172-0.516c-0.703-0.364-1.232-0.874-1.586-1.527c-0.354-0.653-0.531-1.457-0.531-2.41
			c0-0.75,0.18-1.456,0.539-2.117c0.375-0.692,0.888-1.216,1.539-1.57c0.651-0.354,1.383-0.531,2.195-0.531
			c1.255,0,2.284,0.406,3.086,1.219c0.724,0.739,1.122,1.653,1.195,2.742c0.677-0.276,1.026-0.802,1.047-1.578h-1.063V90.431z
			 M103.374,89.415h-1.383l-2.156-2.336h2.461L103.374,89.415z M100.241,94.579c0,0.797,0.195,1.427,0.586,1.891
			c0.37,0.438,0.852,0.656,1.445,0.656s1.073-0.219,1.438-0.656c0.391-0.464,0.586-1.099,0.586-1.906
			c0-0.792-0.195-1.417-0.586-1.875c-0.365-0.438-0.844-0.656-1.438-0.656s-1.076,0.219-1.445,0.656
			C100.436,93.152,100.241,93.782,100.241,94.579z"/>
		<path d="M110.274,89.306v-2.031h2.195v2.031H110.274z M110.274,98.728v-8.297h2.195v8.297H110.274z"/>
		<path d="M122.152,87.274v4.211c0.708-0.828,1.555-1.242,2.539-1.242c0.505,0,0.961,0.094,1.367,0.281s0.712,0.427,0.918,0.719
			s0.347,0.614,0.422,0.969s0.113,0.903,0.113,1.648v4.867h-2.195v-4.383c0-0.87-0.042-1.422-0.125-1.656s-0.23-0.421-0.441-0.559
			s-0.476-0.207-0.793-0.207c-0.364,0-0.69,0.089-0.977,0.266s-0.496,0.444-0.629,0.801s-0.199,0.884-0.199,1.582v4.156h-2.195
			V87.274H122.152z"/>
		<path d="M131.779,92.962l-1.992-0.359c0.224-0.802,0.609-1.396,1.156-1.781s1.359-0.578,2.438-0.578
			c0.979,0,1.708,0.116,2.188,0.348s0.816,0.526,1.012,0.883s0.293,1.012,0.293,1.965l-0.023,2.563c0,0.729,0.035,1.267,0.105,1.613
			s0.202,0.718,0.395,1.113h-2.172c-0.058-0.146-0.128-0.362-0.211-0.648c-0.036-0.13-0.063-0.216-0.078-0.258
			c-0.375,0.364-0.776,0.638-1.203,0.82c-0.427,0.182-0.883,0.273-1.367,0.273c-0.854,0-1.527-0.231-2.02-0.695
			s-0.738-1.05-0.738-1.758c0-0.469,0.112-0.887,0.336-1.254s0.538-0.648,0.941-0.844s0.985-0.366,1.746-0.512
			c1.026-0.192,1.737-0.372,2.133-0.539v-0.219c0-0.422-0.104-0.723-0.313-0.902s-0.602-0.27-1.18-0.27
			c-0.391,0-0.695,0.077-0.914,0.23S131.915,92.576,131.779,92.962z M134.716,94.743c-0.281,0.094-0.727,0.206-1.336,0.336
			s-1.008,0.258-1.195,0.383c-0.286,0.203-0.43,0.461-0.43,0.773c0,0.308,0.114,0.573,0.344,0.797s0.521,0.336,0.875,0.336
			c0.396,0,0.773-0.13,1.133-0.391c0.266-0.198,0.44-0.44,0.523-0.727c0.058-0.188,0.086-0.544,0.086-1.07V94.743z M132.021,101.86
			v-2.195h2.195v2.195H132.021z"/>
		<path d="M146.983,98.728h-2.195v-4.234c0-0.896-0.047-1.476-0.141-1.738s-0.246-0.468-0.457-0.613s-0.465-0.219-0.762-0.219
			c-0.38,0-0.722,0.104-1.023,0.313s-0.509,0.484-0.621,0.828s-0.168,0.979-0.168,1.906v3.758h-2.195v-8.297h2.039v1.219
			c0.724-0.938,1.636-1.406,2.734-1.406c0.484,0,0.927,0.087,1.328,0.262s0.704,0.397,0.91,0.668s0.349,0.578,0.43,0.922
			s0.121,0.836,0.121,1.477V98.728z"/>
		<path d="M156.642,87.274v4.211c0.708-0.828,1.555-1.242,2.539-1.242c0.505,0,0.961,0.094,1.367,0.281s0.712,0.427,0.918,0.719
			s0.347,0.614,0.422,0.969s0.113,0.903,0.113,1.648v4.867h-2.195v-4.383c0-0.87-0.042-1.422-0.125-1.656s-0.23-0.421-0.441-0.559
			s-0.476-0.207-0.793-0.207c-0.364,0-0.69,0.089-0.977,0.266s-0.496,0.444-0.629,0.801s-0.199,0.884-0.199,1.582v4.156h-2.195
			V87.274H156.642z"/>
		<path d="M172.66,90.431h2.195v1.57c0,0.646-0.056,1.151-0.168,1.516s-0.319,0.69-0.621,0.977c-0.349,0.339-0.825,0.604-1.43,0.797
			c-0.13,0.933-0.519,1.727-1.164,2.383c-0.813,0.828-1.833,1.242-3.063,1.242c-0.786,0-1.511-0.172-2.172-0.516
			c-0.703-0.364-1.231-0.874-1.586-1.527s-0.531-1.457-0.531-2.41c0-0.75,0.18-1.456,0.539-2.117
			c0.375-0.692,0.888-1.216,1.539-1.57s1.383-0.531,2.195-0.531c1.255,0,2.284,0.406,3.086,1.219
			c0.724,0.739,1.122,1.653,1.195,2.742c0.677-0.276,1.026-0.802,1.047-1.578h-1.063V90.431z M166.371,94.579
			c0,0.797,0.195,1.427,0.586,1.891c0.37,0.438,0.852,0.656,1.445,0.656s1.073-0.219,1.438-0.656
			c0.391-0.464,0.586-1.099,0.586-1.906c0-0.792-0.195-1.417-0.586-1.875c-0.364-0.438-0.844-0.656-1.438-0.656
			s-1.075,0.219-1.445,0.656C166.566,93.152,166.371,93.782,166.371,94.579z M167.214,101.86v-2.195h2.195v2.195H167.214z"/>
		<path d="M176.341,90.431h2.047v1.219c0.266-0.417,0.625-0.755,1.078-1.016s0.956-0.391,1.508-0.391
			c0.964,0,1.781,0.378,2.453,1.133s1.008,1.808,1.008,3.156c0,1.386-0.339,2.462-1.016,3.23s-1.497,1.152-2.461,1.152
			c-0.458,0-0.874-0.092-1.246-0.273c-0.372-0.183-0.765-0.495-1.176-0.938v4.18h-2.195V90.431z M178.513,94.438
			c0,0.933,0.185,1.621,0.555,2.066s0.82,0.668,1.352,0.668c0.511,0,0.935-0.204,1.273-0.613s0.508-1.079,0.508-2.012
			c0-0.87-0.175-1.516-0.523-1.938s-0.781-0.633-1.297-0.633c-0.536,0-0.981,0.207-1.336,0.621S178.513,93.626,178.513,94.438z"/>
		<path d="M196.836,89.548h-2.367v-1.461h2.367v-0.813h2.195v0.813h0.867v1.461h-0.867v9.18h-2.039v-1.219
			c-0.338,0.474-0.738,0.827-1.199,1.059s-0.926,0.348-1.395,0.348c-0.953,0-1.769-0.384-2.449-1.152s-1.02-1.84-1.02-3.215
			c0-1.406,0.331-2.476,0.992-3.207s1.498-1.098,2.507-1.098c0.928,0,1.73,0.386,2.406,1.156V89.548z M193.172,94.399
			c0,0.886,0.123,1.526,0.367,1.922c0.355,0.573,0.85,0.859,1.484,0.859c0.506,0,0.936-0.215,1.289-0.645
			c0.355-0.43,0.531-1.071,0.531-1.926c0-0.953-0.172-1.64-0.516-2.059s-0.783-0.629-1.32-0.629c-0.52,0-0.957,0.207-1.309,0.621
			S193.172,93.576,193.172,94.399z"/>
		<path d="M201.088,94.462c0-0.729,0.18-1.435,0.539-2.117s0.867-1.203,1.527-1.563c0.658-0.359,1.395-0.539,2.207-0.539
			c1.254,0,2.283,0.407,3.086,1.223c0.801,0.815,1.203,1.845,1.203,3.09c0,1.255-0.406,2.296-1.215,3.121
			c-0.811,0.825-1.83,1.238-3.059,1.238c-0.762,0-1.486-0.172-2.176-0.516c-0.691-0.344-1.215-0.848-1.574-1.512
			S201.088,95.415,201.088,94.462z M202.721,89.384l1.641-2.305h2.031l1.617,2.305h-1.766l-0.906-1.164l-0.844,1.164H202.721z
			 M206.416,86.657h-1.383l-2.156-2.203h2.461L206.416,86.657z M203.338,94.579c0,0.823,0.195,1.453,0.586,1.891
			s0.871,0.656,1.445,0.656c0.572,0,1.053-0.219,1.441-0.656c0.387-0.438,0.582-1.073,0.582-1.906c0-0.813-0.195-1.438-0.582-1.875
			c-0.389-0.438-0.869-0.656-1.441-0.656c-0.574,0-1.055,0.219-1.445,0.656S203.338,93.756,203.338,94.579z"/>
		<path d="M219.316,98.728h-2.195v-4.234c0-0.896-0.047-1.476-0.141-1.738s-0.246-0.468-0.457-0.613s-0.465-0.219-0.762-0.219
			c-0.381,0-0.723,0.104-1.023,0.313c-0.303,0.208-0.51,0.484-0.621,0.828c-0.113,0.344-0.168,0.979-0.168,1.906v3.758h-2.195
			v-8.297h2.039v1.219c0.723-0.938,1.635-1.406,2.734-1.406c0.484,0,0.926,0.087,1.328,0.262c0.4,0.175,0.703,0.397,0.91,0.668
			c0.205,0.271,0.348,0.578,0.43,0.922c0.08,0.344,0.121,0.836,0.121,1.477V98.728z"/>
		<path d="M221.74,99.274l2.508,0.305c0.041,0.291,0.137,0.492,0.289,0.602c0.207,0.156,0.535,0.234,0.984,0.234
			c0.572,0,1.002-0.086,1.289-0.258c0.191-0.115,0.338-0.3,0.438-0.555c0.066-0.183,0.102-0.519,0.102-1.008v-1.211
			c-0.656,0.896-1.484,1.344-2.484,1.344c-1.115,0-1.998-0.472-2.648-1.414c-0.512-0.745-0.766-1.672-0.766-2.781
			c0-1.391,0.334-2.453,1.004-3.188c0.668-0.734,1.5-1.102,2.496-1.102c1.025,0,1.871,0.45,2.539,1.352v-1.164h2.055v7.445
			c0,0.979-0.082,1.711-0.242,2.195c-0.162,0.484-0.389,0.864-0.68,1.141c-0.293,0.275-0.682,0.492-1.168,0.648
			c-0.488,0.156-1.104,0.234-1.848,0.234c-1.406,0-2.404-0.241-2.992-0.723c-0.59-0.482-0.883-1.093-0.883-1.832
			C221.732,99.467,221.734,99.378,221.74,99.274z M223.701,94.407c0,0.88,0.17,1.524,0.512,1.934
			c0.34,0.409,0.762,0.613,1.262,0.613c0.535,0,0.988-0.21,1.359-0.629c0.369-0.419,0.555-1.04,0.555-1.863
			c0-0.859-0.178-1.497-0.531-1.914c-0.355-0.417-0.803-0.625-1.344-0.625c-0.527,0-0.961,0.204-1.301,0.613
			C223.871,92.945,223.701,93.568,223.701,94.407z"/>
		<path d="M240.766,90.431v1.75h-1.5v3.344c0,0.677,0.016,1.071,0.043,1.184c0.029,0.112,0.094,0.204,0.195,0.277
			s0.227,0.109,0.371,0.109c0.203,0,0.498-0.07,0.883-0.211l0.188,1.703c-0.51,0.219-1.088,0.328-1.734,0.328
			c-0.395,0-0.752-0.066-1.07-0.199c-0.316-0.133-0.551-0.305-0.699-0.516s-0.25-0.496-0.309-0.855
			c-0.047-0.255-0.07-0.771-0.07-1.547v-3.617h-1.008v-1.75h1.008v-1.648l2.203-1.281v2.93H240.766z"/>
		<path d="M244.877,87.274v4.211c0.707-0.828,1.555-1.242,2.539-1.242c0.504,0,0.961,0.094,1.367,0.281s0.711,0.427,0.918,0.719
			c0.205,0.292,0.346,0.614,0.422,0.969c0.074,0.354,0.113,0.903,0.113,1.648v4.867h-2.195v-4.383c0-0.87-0.043-1.422-0.125-1.656
			c-0.084-0.234-0.23-0.421-0.441-0.559s-0.477-0.207-0.793-0.207c-0.365,0-0.691,0.089-0.977,0.266
			c-0.287,0.177-0.496,0.444-0.629,0.801s-0.199,0.884-0.199,1.582v4.156h-2.195V87.274H244.877z"/>
		<path d="M258.324,98.728v-1.242c-0.303,0.442-0.699,0.792-1.191,1.047s-1.012,0.383-1.559,0.383c-0.559,0-1.059-0.123-1.5-0.367
			c-0.443-0.245-0.764-0.589-0.961-1.031c-0.199-0.442-0.297-1.055-0.297-1.836v-5.25h2.195v3.813c0,1.167,0.039,1.882,0.121,2.145
			c0.08,0.263,0.227,0.472,0.441,0.625c0.213,0.153,0.484,0.23,0.813,0.23c0.375,0,0.711-0.103,1.008-0.309s0.5-0.461,0.609-0.766
			s0.164-1.051,0.164-2.238v-3.5h2.195v8.297H258.324z"/>
		<path d="M267.842,96.087l2.188,0.367c-0.281,0.802-0.727,1.413-1.332,1.832c-0.607,0.419-1.367,0.629-2.277,0.629
			c-1.443,0-2.512-0.472-3.203-1.414c-0.547-0.755-0.82-1.708-0.82-2.859c0-1.375,0.359-2.452,1.078-3.23s1.627-1.168,2.727-1.168
			c1.234,0,2.207,0.407,2.922,1.223c0.713,0.815,1.055,2.063,1.023,3.746h-5.5c0.016,0.651,0.191,1.157,0.531,1.52
			c0.338,0.362,0.76,0.543,1.266,0.543c0.344,0,0.633-0.094,0.867-0.281S267.721,96.504,267.842,96.087z M263.631,89.384
			l1.641-2.305h2.031l1.617,2.305h-1.766l-0.906-1.164l-0.844,1.164H263.631z M267.967,93.868c-0.016-0.636-0.18-1.118-0.492-1.449
			s-0.693-0.496-1.141-0.496c-0.48,0-0.875,0.175-1.188,0.523s-0.467,0.823-0.461,1.422H267.967z"/>
		<path d="M78.191,124.728v-11.453h2.25l4.688,7.648v-7.648h2.148v11.453h-2.32l-4.617-7.469v7.469H78.191z"/>
		<path d="M89.903,125.274l2.508,0.305c0.042,0.291,0.138,0.492,0.289,0.602c0.208,0.156,0.536,0.234,0.984,0.234
			c0.573,0,1.002-0.086,1.289-0.258c0.192-0.115,0.338-0.3,0.438-0.555c0.067-0.183,0.102-0.519,0.102-1.008v-1.211
			c-0.656,0.896-1.484,1.344-2.484,1.344c-1.115,0-1.998-0.472-2.648-1.414c-0.511-0.745-0.766-1.672-0.766-2.781
			c0-1.391,0.334-2.453,1.004-3.188c0.669-0.734,1.501-1.102,2.496-1.102c1.026,0,1.872,0.45,2.539,1.352v-1.164h2.055v7.445
			c0,0.979-0.081,1.711-0.242,2.195c-0.162,0.484-0.388,0.864-0.68,1.141c-0.292,0.275-0.681,0.492-1.168,0.648
			c-0.487,0.156-1.103,0.234-1.848,0.234c-1.406,0-2.404-0.241-2.992-0.723c-0.589-0.482-0.883-1.093-0.883-1.832
			C89.896,125.467,89.898,125.378,89.903,125.274z M91.864,120.407c0,0.88,0.17,1.524,0.512,1.934
			c0.341,0.409,0.762,0.613,1.262,0.613c0.536,0,0.989-0.21,1.359-0.629c0.37-0.419,0.555-1.04,0.555-1.863
			c0-0.859-0.177-1.497-0.531-1.914c-0.354-0.417-0.802-0.625-1.344-0.625c-0.526,0-0.96,0.204-1.301,0.613
			C92.035,118.945,91.864,119.568,91.864,120.407z"/>
		<path d="M101.92,118.962l-1.992-0.359c0.224-0.802,0.609-1.396,1.156-1.781s1.359-0.578,2.438-0.578
			c0.979,0,1.708,0.116,2.188,0.348c0.479,0.231,0.816,0.526,1.012,0.883s0.293,1.012,0.293,1.965l-0.023,2.563
			c0,0.729,0.035,1.267,0.105,1.613s0.202,0.718,0.395,1.113h-2.172c-0.058-0.146-0.128-0.362-0.211-0.648
			c-0.037-0.13-0.063-0.216-0.078-0.258c-0.375,0.364-0.776,0.638-1.203,0.82c-0.427,0.182-0.883,0.273-1.367,0.273
			c-0.854,0-1.527-0.231-2.02-0.695s-0.738-1.05-0.738-1.758c0-0.469,0.112-0.887,0.336-1.254c0.224-0.367,0.538-0.648,0.941-0.844
			c0.403-0.195,0.985-0.366,1.746-0.512c1.026-0.192,1.737-0.372,2.133-0.539v-0.219c0-0.422-0.104-0.723-0.313-0.902
			c-0.208-0.18-0.602-0.27-1.18-0.27c-0.391,0-0.695,0.077-0.914,0.23S102.056,118.576,101.92,118.962z M104.702,115.415h-1.383
			l-2.156-2.336h2.461L104.702,115.415z M104.858,120.743c-0.281,0.094-0.727,0.206-1.336,0.336s-1.008,0.258-1.195,0.383
			c-0.287,0.203-0.43,0.461-0.43,0.773c0,0.308,0.114,0.573,0.344,0.797c0.229,0.224,0.521,0.336,0.875,0.336
			c0.396,0,0.773-0.13,1.133-0.391c0.266-0.198,0.44-0.44,0.523-0.727c0.057-0.188,0.086-0.544,0.086-1.07V120.743z"/>
		<path d="M108.54,116.431h2.336l1.984,5.891l1.938-5.891h2.273l-2.93,7.984l-0.523,1.445c-0.193,0.484-0.376,0.854-0.551,1.109
			c-0.175,0.255-0.375,0.462-0.602,0.621c-0.227,0.158-0.505,0.282-0.836,0.371c-0.331,0.088-0.705,0.133-1.121,0.133
			c-0.422,0-0.836-0.045-1.242-0.133l-0.195-1.719c0.344,0.067,0.653,0.102,0.93,0.102c0.51,0,0.888-0.15,1.133-0.449
			c0.245-0.3,0.432-0.682,0.563-1.145L108.54,116.431z"/>
		<path d="M131.332,124.728h-2.039v-1.219c-0.339,0.474-0.738,0.827-1.199,1.059s-0.926,0.348-1.395,0.348
			c-0.953,0-1.77-0.384-2.449-1.152s-1.02-1.84-1.02-3.215c0-1.406,0.331-2.476,0.992-3.207s1.497-1.098,2.508-1.098
			c0.927,0,1.729,0.386,2.406,1.156v-4.125h2.195V124.728z M125.472,120.399c0,0.886,0.122,1.526,0.367,1.922
			c0.354,0.573,0.849,0.859,1.484,0.859c0.505,0,0.935-0.215,1.289-0.645s0.531-1.071,0.531-1.926c0-0.953-0.172-1.64-0.516-2.059
			s-0.784-0.629-1.32-0.629c-0.521,0-0.957,0.207-1.309,0.621S125.472,119.576,125.472,120.399z"/>
		<path d="M133.388,120.462c0-0.729,0.18-1.435,0.539-2.117s0.868-1.203,1.527-1.563s1.395-0.539,2.207-0.539
			c1.255,0,2.284,0.407,3.086,1.223s1.203,1.845,1.203,3.09c0,1.255-0.405,2.296-1.215,3.121s-1.829,1.238-3.059,1.238
			c-0.761,0-1.485-0.172-2.176-0.516s-1.215-0.848-1.574-1.512S133.388,121.415,133.388,120.462z M135.638,120.579
			c0,0.823,0.195,1.453,0.586,1.891s0.872,0.656,1.445,0.656s1.054-0.219,1.441-0.656s0.582-1.073,0.582-1.906
			c0-0.813-0.194-1.438-0.582-1.875s-0.868-0.656-1.441-0.656s-1.055,0.219-1.445,0.656S135.638,119.756,135.638,120.579z
			 M136.482,127.86v-2.195h2.195v2.195H136.482z"/>
		<path d="M151.616,124.728h-2.195v-4.234c0-0.896-0.047-1.476-0.141-1.738s-0.246-0.468-0.457-0.613s-0.465-0.219-0.762-0.219
			c-0.38,0-0.722,0.104-1.023,0.313s-0.509,0.484-0.621,0.828s-0.168,0.979-0.168,1.906v3.758h-2.195v-8.297h2.039v1.219
			c0.724-0.938,1.636-1.406,2.734-1.406c0.484,0,0.927,0.087,1.328,0.262s0.704,0.397,0.91,0.668s0.349,0.578,0.43,0.922
			s0.121,0.836,0.121,1.477V124.728z"/>
		<path d="M161.369,124.728l-3.344-8.297h2.305l1.563,4.234l0.453,1.414c0.12-0.359,0.195-0.597,0.227-0.711
			c0.073-0.234,0.151-0.469,0.234-0.703l1.578-4.234h2.258l-3.297,8.297H161.369z"/>
		<path d="M170.027,118.962l-1.992-0.359c0.224-0.802,0.609-1.396,1.156-1.781s1.359-0.578,2.438-0.578
			c0.979,0,1.708,0.116,2.188,0.348s0.816,0.526,1.012,0.883s0.293,1.012,0.293,1.965l-0.023,2.563c0,0.729,0.035,1.267,0.105,1.613
			s0.202,0.718,0.395,1.113h-2.172c-0.058-0.146-0.128-0.362-0.211-0.648c-0.036-0.13-0.063-0.216-0.078-0.258
			c-0.375,0.364-0.776,0.638-1.203,0.82c-0.427,0.182-0.883,0.273-1.367,0.273c-0.854,0-1.527-0.231-2.02-0.695
			s-0.738-1.05-0.738-1.758c0-0.469,0.112-0.887,0.336-1.254s0.538-0.648,0.941-0.844s0.985-0.366,1.746-0.512
			c1.026-0.192,1.737-0.372,2.133-0.539v-0.219c0-0.422-0.104-0.723-0.313-0.902s-0.602-0.27-1.18-0.27
			c-0.391,0-0.695,0.077-0.914,0.23S170.163,118.576,170.027,118.962z M172.808,115.415h-1.383l-2.156-2.336h2.461L172.808,115.415z
			 M172.964,120.743c-0.281,0.094-0.727,0.206-1.336,0.336s-1.008,0.258-1.195,0.383c-0.286,0.203-0.43,0.461-0.43,0.773
			c0,0.308,0.114,0.573,0.344,0.797s0.521,0.336,0.875,0.336c0.396,0,0.773-0.13,1.133-0.391c0.266-0.198,0.44-0.44,0.523-0.727
			c0.058-0.188,0.086-0.544,0.086-1.07V120.743z"/>
		<path d="M177.177,120.462c0-0.729,0.18-1.435,0.539-2.117s0.868-1.203,1.527-1.563s1.395-0.539,2.207-0.539
			c1.255,0,2.284,0.407,3.086,1.223s1.203,1.845,1.203,3.09c0,1.255-0.405,2.296-1.215,3.121s-1.829,1.238-3.059,1.238
			c-0.761,0-1.485-0.172-2.176-0.516s-1.215-0.848-1.574-1.512S177.177,121.415,177.177,120.462z M179.427,120.579
			c0,0.823,0.195,1.453,0.586,1.891s0.872,0.656,1.445,0.656s1.054-0.219,1.441-0.656s0.582-1.073,0.582-1.906
			c0-0.813-0.194-1.438-0.582-1.875s-0.868-0.656-1.441-0.656s-1.055,0.219-1.445,0.656S179.427,119.756,179.427,120.579z"/>
		<path d="M77.582,147.001l2.25-0.219c0.135,0.755,0.41,1.31,0.824,1.664s0.973,0.531,1.676,0.531c0.745,0,1.306-0.157,1.684-0.473
			c0.377-0.315,0.566-0.684,0.566-1.105c0-0.271-0.08-0.501-0.238-0.691c-0.159-0.19-0.437-0.355-0.832-0.496
			c-0.271-0.094-0.888-0.261-1.852-0.5c-1.24-0.308-2.109-0.685-2.609-1.133c-0.703-0.63-1.055-1.398-1.055-2.305
			c0-0.583,0.165-1.129,0.496-1.637c0.331-0.508,0.807-0.895,1.43-1.16c0.622-0.266,1.374-0.398,2.254-0.398
			c1.438,0,2.52,0.315,3.246,0.945s1.108,1.472,1.145,2.523l-2.313,0.102c-0.099-0.589-0.312-1.012-0.637-1.27
			c-0.326-0.258-0.814-0.387-1.465-0.387c-0.672,0-1.198,0.138-1.578,0.414c-0.245,0.177-0.367,0.414-0.367,0.711
			c0,0.271,0.114,0.503,0.344,0.695c0.292,0.245,1,0.5,2.125,0.766s1.957,0.54,2.496,0.824s0.961,0.672,1.266,1.164
			s0.457,1.101,0.457,1.824c0,0.656-0.183,1.271-0.547,1.844c-0.365,0.573-0.88,0.999-1.547,1.277
			c-0.667,0.278-1.498,0.418-2.492,0.418c-1.448,0-2.56-0.335-3.336-1.004C78.196,149.258,77.732,148.282,77.582,147.001z"/>
		<path d="M88.716,146.462c0-0.729,0.18-1.435,0.539-2.117s0.868-1.203,1.527-1.563c0.659-0.359,1.395-0.539,2.207-0.539
			c1.255,0,2.284,0.407,3.086,1.223c0.802,0.815,1.203,1.845,1.203,3.09c0,1.255-0.405,2.296-1.215,3.121
			c-0.81,0.825-1.83,1.238-3.059,1.238c-0.761,0-1.486-0.172-2.176-0.516c-0.69-0.344-1.215-0.848-1.574-1.512
			S88.716,147.415,88.716,146.462z M90.349,141.384l1.641-2.305h2.031l1.617,2.305h-1.766l-0.906-1.164l-0.844,1.164H90.349z
			 M90.966,146.579c0,0.823,0.195,1.453,0.586,1.891s0.872,0.656,1.445,0.656c0.573,0,1.053-0.219,1.441-0.656
			c0.388-0.438,0.582-1.073,0.582-1.906c0-0.813-0.194-1.438-0.582-1.875c-0.388-0.438-0.869-0.656-1.441-0.656
			c-0.573,0-1.055,0.219-1.445,0.656S90.966,145.756,90.966,146.579z M91.958,138.657l1.008-2.203h2.461l-2.078,2.203H91.958z"/>
		<path d="M104.243,150.728v-11.453h2.195v11.453H104.243z"/>
		<path d="M117.33,142.431h2.195v1.57c0,0.646-0.056,1.151-0.168,1.516c-0.112,0.364-0.319,0.69-0.621,0.977
			c-0.464,0.448-1.18,0.75-2.148,0.906v3.328h-2.039v-1.242c-0.651,0.953-1.568,1.43-2.75,1.43c-1.224,0-2.044-0.466-2.461-1.398
			c-0.198-0.442-0.297-1.055-0.297-1.836v-5.25h2.195v3.813c0,1.094,0.042,1.808,0.125,2.141c0.057,0.25,0.203,0.458,0.438,0.625
			c0.213,0.156,0.484,0.234,0.813,0.234c0.37,0,0.704-0.102,1.004-0.305c0.299-0.203,0.504-0.458,0.613-0.766
			s0.164-1.055,0.164-2.242v-3.5h2.195v4.078c0.724-0.146,1.231-0.417,1.523-0.813c0.177-0.239,0.271-0.597,0.281-1.07h-1.063
			V142.431z"/>
		<path d="M129.105,142.431h2.195v1.57c0,0.646-0.056,1.151-0.168,1.516s-0.319,0.69-0.621,0.977
			c-0.349,0.339-0.825,0.604-1.43,0.797c-0.13,0.933-0.519,1.727-1.164,2.383c-0.813,0.828-1.833,1.242-3.063,1.242
			c-0.786,0-1.511-0.172-2.172-0.516c-0.703-0.364-1.232-0.874-1.586-1.527c-0.354-0.653-0.531-1.457-0.531-2.41
			c0-0.75,0.18-1.456,0.539-2.117c0.375-0.692,0.888-1.216,1.539-1.57s1.383-0.531,2.195-0.531c1.255,0,2.284,0.406,3.086,1.219
			c0.724,0.739,1.122,1.653,1.195,2.742c0.677-0.276,1.026-0.802,1.047-1.578h-1.063V142.431z M122.816,146.579
			c0,0.797,0.195,1.427,0.586,1.891c0.37,0.438,0.852,0.656,1.445,0.656s1.073-0.219,1.438-0.656
			c0.391-0.464,0.586-1.099,0.586-1.906c0-0.792-0.195-1.417-0.586-1.875c-0.364-0.438-0.844-0.656-1.438-0.656
			s-1.075,0.219-1.445,0.656C123.011,145.152,122.816,145.782,122.816,146.579z M123.66,153.86v-2.195h2.195v2.195H123.66z"/>
		<path d="M140.396,150.728h-2.195v-4.234c0-0.896-0.047-1.476-0.141-1.738s-0.246-0.468-0.457-0.613s-0.465-0.219-0.762-0.219
			c-0.38,0-0.722,0.104-1.023,0.313s-0.509,0.484-0.621,0.828s-0.168,0.979-0.168,1.906v3.758h-2.195v-8.297h2.039v1.219
			c0.724-0.938,1.636-1.406,2.734-1.406c0.484,0,0.927,0.087,1.328,0.262s0.704,0.397,0.91,0.668s0.349,0.578,0.43,0.922
			s0.121,0.836,0.121,1.477V150.728z"/>
		<path d="M142.819,151.274l2.508,0.305c0.042,0.291,0.138,0.492,0.289,0.602c0.208,0.156,0.536,0.234,0.984,0.234
			c0.573,0,1.003-0.086,1.289-0.258c0.192-0.115,0.339-0.3,0.438-0.555c0.067-0.183,0.102-0.519,0.102-1.008v-1.211
			c-0.656,0.896-1.484,1.344-2.484,1.344c-1.114,0-1.997-0.472-2.648-1.414c-0.511-0.745-0.766-1.672-0.766-2.781
			c0-1.391,0.335-2.453,1.004-3.188s1.501-1.102,2.496-1.102c1.026,0,1.872,0.45,2.539,1.352v-1.164h2.055v7.445
			c0,0.979-0.081,1.711-0.242,2.195s-0.388,0.864-0.68,1.141c-0.292,0.275-0.681,0.492-1.168,0.648s-1.103,0.234-1.848,0.234
			c-1.406,0-2.403-0.241-2.992-0.723c-0.589-0.482-0.883-1.093-0.883-1.832C142.811,151.467,142.814,151.378,142.819,151.274z
			 M144.78,146.407c0,0.88,0.171,1.524,0.512,1.934s0.762,0.613,1.262,0.613c0.536,0,0.989-0.21,1.359-0.629s0.555-1.04,0.555-1.863
			c0-0.859-0.177-1.497-0.531-1.914s-0.802-0.625-1.344-0.625c-0.526,0-0.96,0.204-1.301,0.613S144.78,145.568,144.78,146.407z"/>
		<path d="M165.587,150.728h-2.195v-4.234c0-0.896-0.047-1.476-0.141-1.738s-0.246-0.468-0.457-0.613s-0.465-0.219-0.762-0.219
			c-0.38,0-0.722,0.104-1.023,0.313s-0.509,0.484-0.621,0.828s-0.168,0.979-0.168,1.906v3.758h-2.195v-8.297h2.039v1.219
			c0.724-0.938,1.636-1.406,2.734-1.406c0.484,0,0.927,0.087,1.328,0.262s0.704,0.397,0.91,0.668s0.349,0.578,0.43,0.922
			s0.121,0.836,0.121,1.477V150.728z"/>
		<path d="M168.011,151.274l2.508,0.305c0.042,0.291,0.138,0.492,0.289,0.602c0.208,0.156,0.536,0.234,0.984,0.234
			c0.573,0,1.003-0.086,1.289-0.258c0.192-0.115,0.339-0.3,0.438-0.555c0.067-0.183,0.102-0.519,0.102-1.008v-1.211
			c-0.656,0.896-1.484,1.344-2.484,1.344c-1.114,0-1.997-0.472-2.648-1.414c-0.511-0.745-0.766-1.672-0.766-2.781
			c0-1.391,0.335-2.453,1.004-3.188s1.501-1.102,2.496-1.102c1.026,0,1.872,0.45,2.539,1.352v-1.164h2.055v7.445
			c0,0.979-0.081,1.711-0.242,2.195s-0.388,0.864-0.68,1.141c-0.292,0.275-0.681,0.492-1.168,0.648s-1.103,0.234-1.848,0.234
			c-1.406,0-2.403-0.241-2.992-0.723c-0.589-0.482-0.883-1.093-0.883-1.832C168.003,151.467,168.006,151.378,168.011,151.274z
			 M169.972,146.407c0,0.88,0.171,1.524,0.512,1.934s0.762,0.613,1.262,0.613c0.536,0,0.989-0.21,1.359-0.629
			s0.555-1.04,0.555-1.863c0-0.859-0.177-1.497-0.531-1.914s-0.802-0.625-1.344-0.625c-0.526,0-0.96,0.204-1.301,0.613
			S169.972,145.568,169.972,146.407z"/>
		<path d="M186.63,142.431h2.195v1.57c0,0.646-0.056,1.151-0.168,1.516s-0.319,0.69-0.621,0.977c-0.464,0.448-1.18,0.75-2.148,0.906
			v3.328h-2.039v-1.242c-0.651,0.953-1.567,1.43-2.75,1.43c-1.224,0-2.044-0.466-2.461-1.398c-0.198-0.442-0.297-1.055-0.297-1.836
			v-5.25h2.195v3.813c0,1.094,0.042,1.808,0.125,2.141c0.058,0.25,0.203,0.458,0.438,0.625c0.214,0.156,0.484,0.234,0.813,0.234
			c0.37,0,0.704-0.102,1.004-0.305s0.504-0.458,0.613-0.766s0.164-1.055,0.164-2.242v-3.5h2.195v4.078
			c0.724-0.146,1.231-0.417,1.523-0.813c0.177-0.239,0.271-0.597,0.281-1.07h-1.063V142.431z"/>
		<path d="M198.404,142.431h2.195v1.57c0,0.646-0.055,1.151-0.168,1.516c-0.111,0.364-0.318,0.69-0.621,0.977
			c-0.348,0.339-0.824,0.604-1.43,0.797c-0.129,0.933-0.518,1.727-1.164,2.383c-0.813,0.828-1.832,1.242-3.063,1.242
			c-0.785,0-1.51-0.172-2.171-0.516c-0.703-0.364-1.231-0.874-1.586-1.527s-0.531-1.457-0.531-2.41c0-0.75,0.18-1.456,0.539-2.117
			c0.375-0.692,0.888-1.216,1.539-1.57s1.382-0.531,2.195-0.531c1.256,0,2.285,0.406,3.086,1.219
			c0.725,0.739,1.123,1.653,1.195,2.742c0.678-0.276,1.027-0.802,1.047-1.578h-1.063V142.431z M195.248,141.415h-1.383l-2.156-2.336
			h2.46L195.248,141.415z M192.116,146.579c0,0.797,0.195,1.427,0.586,1.891c0.371,0.438,0.851,0.656,1.445,0.656
			s1.074-0.219,1.438-0.656c0.391-0.464,0.586-1.099,0.586-1.906c0-0.792-0.195-1.417-0.586-1.875
			c-0.363-0.438-0.844-0.656-1.438-0.656s-1.074,0.219-1.445,0.656C192.311,145.152,192.116,145.782,192.116,146.579z"/>
		<path d="M202.148,141.306v-2.031h2.195v2.031H202.148z M202.148,150.728v-8.297h2.195v8.297H202.148z"/>
		<path d="M219.871,142.431h2.195v1.57c0,0.646-0.057,1.151-0.168,1.516c-0.113,0.364-0.32,0.69-0.621,0.977
			c-0.35,0.339-0.826,0.604-1.43,0.797c-0.131,0.933-0.52,1.727-1.164,2.383c-0.813,0.828-1.834,1.242-3.063,1.242
			c-0.787,0-1.512-0.172-2.172-0.516c-0.703-0.364-1.232-0.874-1.586-1.527c-0.355-0.653-0.531-1.457-0.531-2.41
			c0-0.75,0.18-1.456,0.539-2.117c0.375-0.692,0.887-1.216,1.539-1.57c0.65-0.354,1.383-0.531,2.195-0.531
			c1.254,0,2.283,0.406,3.086,1.219c0.723,0.739,1.121,1.653,1.195,2.742c0.676-0.276,1.025-0.802,1.047-1.578h-1.063V142.431z
			 M213.582,146.579c0,0.797,0.195,1.427,0.586,1.891c0.369,0.438,0.852,0.656,1.445,0.656s1.072-0.219,1.438-0.656
			c0.391-0.464,0.586-1.099,0.586-1.906c0-0.792-0.195-1.417-0.586-1.875c-0.365-0.438-0.844-0.656-1.438-0.656
			s-1.076,0.219-1.445,0.656C213.777,145.152,213.582,145.782,213.582,146.579z M215.738,140.47
			c0.275-0.067,0.416-0.188,0.422-0.359c0.004-0.12-0.068-0.222-0.219-0.305c-0.219-0.12-0.566-0.18-1.039-0.18
			c-0.162,0-0.406,0.011-0.734,0.031l-0.086-0.797c0.203-0.042,0.578-0.06,1.125-0.055c0.641,0.005,1.164,0.109,1.57,0.313
			c0.447,0.219,0.676,0.523,0.688,0.914c0.02,0.542-0.453,0.872-1.422,0.992v0.391h-0.875v-0.859
			C215.465,140.524,215.654,140.496,215.738,140.47z"/>
		<path d="M78.23,176.728v-11.359h2.313v9.43h5.75v1.93H78.23z"/>
		<path d="M87.817,172.462c0-0.729,0.18-1.435,0.539-2.117s0.868-1.203,1.527-1.563c0.659-0.359,1.395-0.539,2.207-0.539
			c1.255,0,2.284,0.407,3.086,1.223c0.802,0.815,1.203,1.845,1.203,3.09c0,1.255-0.405,2.296-1.215,3.121
			c-0.81,0.825-1.83,1.238-3.059,1.238c-0.761,0-1.486-0.172-2.176-0.516c-0.69-0.344-1.215-0.848-1.574-1.512
			S87.817,173.415,87.817,172.462z M90.067,172.579c0,0.823,0.195,1.453,0.586,1.891s0.872,0.656,1.445,0.656
			c0.573,0,1.053-0.219,1.441-0.656c0.388-0.438,0.582-1.073,0.582-1.906c0-0.813-0.194-1.438-0.582-1.875
			c-0.388-0.438-0.869-0.656-1.441-0.656c-0.573,0-1.055,0.219-1.445,0.656S90.067,171.756,90.067,172.579z"/>
		<path d="M100.139,170.962l-1.992-0.359c0.224-0.802,0.609-1.396,1.156-1.781s1.359-0.578,2.438-0.578
			c0.979,0,1.708,0.116,2.188,0.348c0.479,0.231,0.816,0.526,1.012,0.883s0.293,1.012,0.293,1.965l-0.023,2.563
			c0,0.729,0.035,1.267,0.105,1.613s0.202,0.718,0.395,1.113h-2.172c-0.058-0.146-0.128-0.362-0.211-0.648
			c-0.037-0.13-0.063-0.216-0.078-0.258c-0.375,0.364-0.776,0.638-1.203,0.82c-0.427,0.182-0.883,0.273-1.367,0.273
			c-0.854,0-1.527-0.231-2.02-0.695s-0.738-1.05-0.738-1.758c0-0.469,0.112-0.887,0.336-1.254c0.224-0.367,0.538-0.648,0.941-0.844
			c0.403-0.195,0.985-0.366,1.746-0.512c1.026-0.192,1.737-0.372,2.133-0.539v-0.219c0-0.422-0.104-0.723-0.313-0.902
			c-0.208-0.18-0.602-0.27-1.18-0.27c-0.391,0-0.695,0.077-0.914,0.23S100.274,170.576,100.139,170.962z M103.077,172.743
			c-0.281,0.094-0.727,0.206-1.336,0.336s-1.008,0.258-1.195,0.383c-0.287,0.203-0.43,0.461-0.43,0.773
			c0,0.308,0.114,0.573,0.344,0.797c0.229,0.224,0.521,0.336,0.875,0.336c0.396,0,0.773-0.13,1.133-0.391
			c0.266-0.198,0.44-0.44,0.523-0.727c0.057-0.188,0.086-0.544,0.086-1.07V172.743z M100.381,179.86v-2.195h2.195v2.195H100.381z"/>
		<path d="M107.797,167.306v-2.031h2.195v2.031H107.797z M107.797,176.728v-8.297h2.195v8.297H107.797z"/>
		<path d="M119.675,165.274v4.211c0.708-0.828,1.555-1.242,2.539-1.242c0.505,0,0.961,0.094,1.367,0.281s0.712,0.427,0.918,0.719
			s0.347,0.614,0.422,0.969s0.113,0.903,0.113,1.648v4.867h-2.195v-4.383c0-0.87-0.042-1.422-0.125-1.656s-0.23-0.421-0.441-0.559
			s-0.476-0.207-0.793-0.207c-0.365,0-0.69,0.089-0.977,0.266c-0.287,0.177-0.496,0.444-0.629,0.801s-0.199,0.884-0.199,1.582v4.156
			h-2.195v-11.453H119.675z"/>
		<path d="M129.873,167.415h-1.383l-2.156-2.336h2.461L129.873,167.415z M127.662,176.728v-8.297h2.195v8.297H127.662z"/>
		<path d="M140.053,176.728h-2.195v-4.234c0-0.896-0.047-1.476-0.141-1.738s-0.246-0.468-0.457-0.613s-0.465-0.219-0.762-0.219
			c-0.38,0-0.722,0.104-1.023,0.313s-0.509,0.484-0.621,0.828s-0.168,0.979-0.168,1.906v3.758h-2.195v-8.297h2.039v1.219
			c0.724-0.938,1.636-1.406,2.734-1.406c0.484,0,0.927,0.087,1.328,0.262s0.704,0.397,0.91,0.668s0.349,0.578,0.43,0.922
			s0.121,0.836,0.121,1.477V176.728z"/>
		<path d="M144.868,165.274v4.211c0.708-0.828,1.555-1.242,2.539-1.242c0.505,0,0.961,0.094,1.367,0.281s0.712,0.427,0.918,0.719
			s0.347,0.614,0.422,0.969s0.113,0.903,0.113,1.648v4.867h-2.195v-4.383c0-0.87-0.042-1.422-0.125-1.656s-0.23-0.421-0.441-0.559
			s-0.476-0.207-0.793-0.207c-0.364,0-0.69,0.089-0.977,0.266s-0.496,0.444-0.629,0.801s-0.199,0.884-0.199,1.582v4.156h-2.195
			v-11.453H144.868z"/>
		<path d="M157.605,176.728v-11.453h2.195v4.125c0.677-0.771,1.479-1.156,2.406-1.156c1.011,0,1.847,0.366,2.508,1.098
			s0.992,1.782,0.992,3.152c0,1.417-0.337,2.508-1.012,3.273s-1.493,1.148-2.457,1.148c-0.474,0-0.941-0.119-1.402-0.355
			c-0.461-0.237-0.858-0.587-1.191-1.051v1.219H157.605z M159.785,172.399c0,0.859,0.136,1.495,0.406,1.906
			c0.38,0.583,0.886,0.875,1.516,0.875c0.484,0,0.897-0.207,1.238-0.621s0.512-1.066,0.512-1.957c0-0.948-0.172-1.632-0.516-2.051
			s-0.784-0.629-1.32-0.629c-0.526,0-0.964,0.204-1.313,0.613S159.785,171.566,159.785,172.399z"/>
		<path d="M169.513,170.962l-1.992-0.359c0.224-0.802,0.609-1.396,1.156-1.781s1.359-0.578,2.438-0.578
			c0.979,0,1.708,0.116,2.188,0.348s0.816,0.526,1.012,0.883s0.293,1.012,0.293,1.965l-0.023,2.563c0,0.729,0.035,1.267,0.105,1.613
			s0.202,0.718,0.395,1.113h-2.172c-0.058-0.146-0.128-0.362-0.211-0.648c-0.036-0.13-0.063-0.216-0.078-0.258
			c-0.375,0.364-0.776,0.638-1.203,0.82c-0.427,0.182-0.883,0.273-1.367,0.273c-0.854,0-1.527-0.231-2.02-0.695
			s-0.738-1.05-0.738-1.758c0-0.469,0.112-0.887,0.336-1.254s0.538-0.648,0.941-0.844s0.985-0.366,1.746-0.512
			c1.026-0.192,1.737-0.372,2.133-0.539v-0.219c0-0.422-0.104-0.723-0.313-0.902s-0.602-0.27-1.18-0.27
			c-0.391,0-0.695,0.077-0.914,0.23S169.649,170.576,169.513,170.962z M168.544,167.384l1.641-2.305h2.031l1.617,2.305h-1.766
			l-0.906-1.164l-0.844,1.164H168.544z M172.451,172.743c-0.281,0.094-0.727,0.206-1.336,0.336s-1.008,0.258-1.195,0.383
			c-0.286,0.203-0.43,0.461-0.43,0.773c0,0.308,0.114,0.573,0.344,0.797s0.521,0.336,0.875,0.336c0.396,0,0.773-0.13,1.133-0.391
			c0.266-0.198,0.44-0.44,0.523-0.727c0.058-0.188,0.086-0.544,0.086-1.07V172.743z M170.154,164.657l1.008-2.203h2.461
			l-2.078,2.203H170.154z"/>
		<path d="M180.975,168.431v1.75h-1.5v3.344c0,0.677,0.015,1.071,0.043,1.184s0.094,0.204,0.195,0.277s0.226,0.109,0.371,0.109
			c0.203,0,0.497-0.07,0.883-0.211l0.188,1.703c-0.511,0.219-1.089,0.328-1.734,0.328c-0.396,0-0.753-0.066-1.07-0.199
			s-0.551-0.305-0.699-0.516s-0.251-0.496-0.309-0.855c-0.047-0.255-0.07-0.771-0.07-1.547v-3.617h-1.008v-1.75h1.008v-1.648
			l2.203-1.281v2.93H180.975z"/>
		<path d="M193.158,167.548h-2.368v-1.461h2.368v-0.813h2.195v0.813h0.867v1.461h-0.867v9.18h-2.039v-1.219
			c-0.339,0.474-0.739,0.827-1.2,1.059s-0.926,0.348-1.395,0.348c-0.953,0-1.77-0.384-2.449-1.152s-1.02-1.84-1.02-3.215
			c0-1.406,0.331-2.476,0.992-3.207s1.497-1.098,2.508-1.098c0.927,0,1.729,0.386,2.407,1.156V167.548z M189.494,172.399
			c0,0.886,0.122,1.526,0.367,1.922c0.354,0.573,0.849,0.859,1.484,0.859c0.505,0,0.935-0.215,1.289-0.645s0.532-1.071,0.532-1.926
			c0-0.953-0.172-1.64-0.516-2.059s-0.784-0.629-1.32-0.629c-0.521,0-0.957,0.207-1.309,0.621S189.494,171.576,189.494,172.399z"/>
		<path d="M197.41,172.462c0-0.729,0.18-1.435,0.539-2.117s0.867-1.203,1.527-1.563c0.658-0.359,1.395-0.539,2.207-0.539
			c1.254,0,2.283,0.407,3.086,1.223c0.801,0.815,1.203,1.845,1.203,3.09c0,1.255-0.406,2.296-1.215,3.121
			c-0.811,0.825-1.83,1.238-3.059,1.238c-0.762,0-1.486-0.172-2.176-0.516c-0.691-0.344-1.215-0.848-1.574-1.512
			S197.41,173.415,197.41,172.462z M199.043,167.384l1.641-2.305h2.031l1.617,2.305h-1.766l-0.906-1.164l-0.844,1.164H199.043z
			 M199.66,172.579c0,0.823,0.195,1.453,0.586,1.891s0.871,0.656,1.445,0.656c0.572,0,1.053-0.219,1.441-0.656
			c0.387-0.438,0.582-1.073,0.582-1.906c0-0.813-0.195-1.438-0.582-1.875c-0.389-0.438-0.869-0.656-1.441-0.656
			c-0.574,0-1.055,0.219-1.445,0.656S199.66,171.756,199.66,172.579z M200.504,179.86v-2.195h2.195v2.195H200.504z"/>
		<path d="M215.639,176.728h-2.195v-4.234c0-0.896-0.047-1.476-0.141-1.738s-0.246-0.468-0.457-0.613s-0.465-0.219-0.762-0.219
			c-0.381,0-0.723,0.104-1.023,0.313c-0.303,0.208-0.51,0.484-0.621,0.828c-0.113,0.344-0.168,0.979-0.168,1.906v3.758h-2.195
			v-8.297h2.039v1.219c0.723-0.938,1.635-1.406,2.734-1.406c0.484,0,0.926,0.087,1.328,0.262c0.4,0.175,0.703,0.397,0.91,0.668
			c0.205,0.271,0.348,0.578,0.43,0.922c0.08,0.344,0.121,0.836,0.121,1.477V176.728z"/>
		<path d="M218.061,177.274l2.508,0.305c0.043,0.291,0.139,0.492,0.289,0.602c0.209,0.156,0.537,0.234,0.984,0.234
			c0.574,0,1.004-0.086,1.289-0.258c0.193-0.115,0.34-0.3,0.438-0.555c0.068-0.183,0.102-0.519,0.102-1.008v-1.211
			c-0.656,0.896-1.484,1.344-2.484,1.344c-1.113,0-1.996-0.472-2.648-1.414c-0.51-0.745-0.766-1.672-0.766-2.781
			c0-1.391,0.336-2.453,1.004-3.188c0.67-0.734,1.502-1.102,2.496-1.102c1.027,0,1.873,0.45,2.539,1.352v-1.164h2.055v7.445
			c0,0.979-0.08,1.711-0.242,2.195c-0.16,0.484-0.387,0.864-0.68,1.141c-0.291,0.275-0.68,0.492-1.168,0.648
			c-0.486,0.156-1.102,0.234-1.848,0.234c-1.406,0-2.402-0.241-2.992-0.723c-0.588-0.482-0.883-1.093-0.883-1.832
			C218.053,177.467,218.057,177.378,218.061,177.274z M220.021,172.407c0,0.88,0.172,1.524,0.512,1.934
			c0.342,0.409,0.762,0.613,1.262,0.613c0.537,0,0.99-0.21,1.359-0.629c0.371-0.419,0.555-1.04,0.555-1.863
			c0-0.859-0.176-1.497-0.531-1.914c-0.354-0.417-0.801-0.625-1.344-0.625c-0.525,0-0.959,0.204-1.301,0.613
			C220.193,170.945,220.021,171.568,220.021,172.407z"/>
		<path d="M232.51,174.36l2.203-0.336c0.094,0.427,0.283,0.751,0.57,0.973c0.285,0.222,0.688,0.332,1.203,0.332
			c0.566,0,0.994-0.104,1.281-0.313c0.191-0.146,0.289-0.341,0.289-0.586c0-0.167-0.053-0.305-0.156-0.414
			c-0.109-0.104-0.355-0.2-0.734-0.289c-1.771-0.391-2.895-0.747-3.367-1.07c-0.656-0.448-0.984-1.07-0.984-1.867
			c0-0.719,0.283-1.323,0.852-1.813c0.566-0.489,1.447-0.734,2.641-0.734c1.135,0,1.979,0.185,2.531,0.555
			c0.551,0.37,0.932,0.917,1.141,1.641l-2.07,0.383c-0.09-0.323-0.258-0.57-0.504-0.742c-0.248-0.172-0.602-0.258-1.059-0.258
			c-0.578,0-0.992,0.081-1.242,0.242c-0.168,0.114-0.25,0.263-0.25,0.445c0,0.156,0.072,0.289,0.219,0.398
			c0.197,0.146,0.881,0.352,2.051,0.617c1.168,0.266,1.984,0.591,2.449,0.977c0.457,0.391,0.688,0.935,0.688,1.633
			c0,0.761-0.318,1.414-0.953,1.961c-0.637,0.547-1.576,0.82-2.82,0.82c-1.131,0-2.025-0.229-2.684-0.688
			C233.143,175.77,232.713,175.146,232.51,174.36z"/>
		<path d="M244.223,170.962l-1.992-0.359c0.223-0.802,0.609-1.396,1.156-1.781s1.359-0.578,2.438-0.578
			c0.979,0,1.707,0.116,2.188,0.348c0.479,0.231,0.816,0.526,1.012,0.883s0.293,1.012,0.293,1.965l-0.023,2.563
			c0,0.729,0.035,1.267,0.105,1.613s0.201,0.718,0.395,1.113h-2.172c-0.059-0.146-0.129-0.362-0.211-0.648
			c-0.037-0.13-0.063-0.216-0.078-0.258c-0.375,0.364-0.777,0.638-1.203,0.82c-0.428,0.182-0.883,0.273-1.367,0.273
			c-0.855,0-1.527-0.231-2.02-0.695s-0.738-1.05-0.738-1.758c0-0.469,0.111-0.887,0.336-1.254c0.223-0.367,0.537-0.648,0.941-0.844
			c0.402-0.195,0.984-0.366,1.746-0.512c1.025-0.192,1.736-0.372,2.133-0.539v-0.219c0-0.422-0.105-0.723-0.313-0.902
			c-0.209-0.18-0.602-0.27-1.18-0.27c-0.391,0-0.695,0.077-0.914,0.23S244.357,170.576,244.223,170.962z M247.16,172.743
			c-0.281,0.094-0.727,0.206-1.336,0.336s-1.008,0.258-1.195,0.383c-0.287,0.203-0.43,0.461-0.43,0.773
			c0,0.308,0.113,0.573,0.344,0.797c0.229,0.224,0.52,0.336,0.875,0.336c0.395,0,0.773-0.13,1.133-0.391
			c0.266-0.198,0.439-0.44,0.523-0.727c0.057-0.188,0.086-0.544,0.086-1.07V172.743z M245.957,166.47
			c0.275-0.067,0.416-0.188,0.422-0.359c0.004-0.12-0.068-0.222-0.219-0.305c-0.219-0.12-0.566-0.18-1.039-0.18
			c-0.162,0-0.406,0.011-0.734,0.031l-0.086-0.797c0.203-0.042,0.578-0.06,1.125-0.055c0.641,0.005,1.164,0.109,1.57,0.313
			c0.447,0.219,0.676,0.523,0.688,0.914c0.02,0.542-0.453,0.872-1.422,0.992v0.391h-0.875v-0.859
			C245.684,166.524,245.873,166.496,245.957,166.47z"/>
		<path d="M259.428,176.728h-2.195v-4.234c0-0.896-0.047-1.476-0.141-1.738s-0.246-0.468-0.457-0.613s-0.465-0.219-0.762-0.219
			c-0.381,0-0.723,0.104-1.023,0.313c-0.303,0.208-0.51,0.484-0.621,0.828c-0.113,0.344-0.168,0.979-0.168,1.906v3.758h-2.195
			v-8.297h2.039v1.219c0.723-0.938,1.635-1.406,2.734-1.406c0.484,0,0.926,0.087,1.328,0.262c0.4,0.175,0.703,0.397,0.91,0.668
			c0.205,0.271,0.348,0.578,0.43,0.922c0.08,0.344,0.121,0.836,0.121,1.477V176.728z"/>
		<path d="M77.582,199.001l2.25-0.219c0.135,0.755,0.41,1.31,0.824,1.664s0.973,0.531,1.676,0.531c0.745,0,1.306-0.157,1.684-0.473
			c0.377-0.315,0.566-0.684,0.566-1.105c0-0.271-0.08-0.501-0.238-0.691c-0.159-0.19-0.437-0.355-0.832-0.496
			c-0.271-0.094-0.888-0.261-1.852-0.5c-1.24-0.308-2.109-0.685-2.609-1.133c-0.703-0.63-1.055-1.398-1.055-2.305
			c0-0.583,0.165-1.129,0.496-1.637c0.331-0.508,0.807-0.895,1.43-1.16c0.622-0.266,1.374-0.398,2.254-0.398
			c1.438,0,2.52,0.315,3.246,0.945s1.108,1.472,1.145,2.523l-2.313,0.102c-0.099-0.589-0.312-1.012-0.637-1.27
			c-0.326-0.258-0.814-0.387-1.465-0.387c-0.672,0-1.198,0.138-1.578,0.414c-0.245,0.177-0.367,0.414-0.367,0.711
			c0,0.271,0.114,0.503,0.344,0.695c0.292,0.245,1,0.5,2.125,0.766s1.957,0.54,2.496,0.824s0.961,0.672,1.266,1.164
			s0.457,1.101,0.457,1.824c0,0.656-0.183,1.271-0.547,1.844c-0.365,0.573-0.88,0.999-1.547,1.277
			c-0.667,0.278-1.498,0.418-2.492,0.418c-1.448,0-2.56-0.335-3.336-1.004C78.196,201.258,77.732,200.282,77.582,199.001z"/>
		<path d="M88.716,198.462c0-0.729,0.18-1.435,0.539-2.117s0.868-1.203,1.527-1.563c0.659-0.359,1.395-0.539,2.207-0.539
			c1.255,0,2.284,0.407,3.086,1.223c0.802,0.815,1.203,1.845,1.203,3.09c0,1.255-0.405,2.296-1.215,3.121
			c-0.81,0.825-1.83,1.238-3.059,1.238c-0.761,0-1.486-0.172-2.176-0.516c-0.69-0.344-1.215-0.848-1.574-1.512
			S88.716,199.415,88.716,198.462z M90.349,193.384l1.641-2.305h2.031l1.617,2.305h-1.766l-0.906-1.164l-0.844,1.164H90.349z
			 M90.966,198.579c0,0.823,0.195,1.453,0.586,1.891s0.872,0.656,1.445,0.656c0.573,0,1.053-0.219,1.441-0.656
			c0.388-0.438,0.582-1.073,0.582-1.906c0-0.813-0.194-1.438-0.582-1.875c-0.388-0.438-0.869-0.656-1.441-0.656
			c-0.573,0-1.055,0.219-1.445,0.656S90.966,197.756,90.966,198.579z M91.958,190.657l1.008-2.203h2.461l-2.078,2.203H91.958z"/>
		<path d="M104.243,202.728v-11.453h2.195v11.453H104.243z"/>
		<path d="M117.33,194.431h2.195v1.57c0,0.646-0.056,1.151-0.168,1.516c-0.112,0.364-0.319,0.69-0.621,0.977
			c-0.464,0.448-1.18,0.75-2.148,0.906v3.328h-2.039v-1.242c-0.651,0.953-1.568,1.43-2.75,1.43c-1.224,0-2.044-0.466-2.461-1.398
			c-0.198-0.442-0.297-1.055-0.297-1.836v-5.25h2.195v3.813c0,1.094,0.042,1.808,0.125,2.141c0.057,0.25,0.203,0.458,0.438,0.625
			c0.213,0.156,0.484,0.234,0.813,0.234c0.37,0,0.704-0.102,1.004-0.305c0.299-0.203,0.504-0.458,0.613-0.766
			s0.164-1.055,0.164-2.242v-3.5h2.195v4.078c0.724-0.146,1.231-0.417,1.523-0.813c0.177-0.239,0.271-0.597,0.281-1.07h-1.063
			V194.431z"/>
		<path d="M129.105,194.431h2.195v1.57c0,0.646-0.056,1.151-0.168,1.516s-0.319,0.69-0.621,0.977
			c-0.349,0.339-0.825,0.604-1.43,0.797c-0.13,0.933-0.519,1.727-1.164,2.383c-0.813,0.828-1.833,1.242-3.063,1.242
			c-0.786,0-1.511-0.172-2.172-0.516c-0.703-0.364-1.232-0.874-1.586-1.527c-0.354-0.653-0.531-1.457-0.531-2.41
			c0-0.75,0.18-1.456,0.539-2.117c0.375-0.692,0.888-1.216,1.539-1.57s1.383-0.531,2.195-0.531c1.255,0,2.284,0.406,3.086,1.219
			c0.724,0.739,1.122,1.653,1.195,2.742c0.677-0.276,1.026-0.802,1.047-1.578h-1.063V194.431z M122.816,198.579
			c0,0.797,0.195,1.427,0.586,1.891c0.37,0.438,0.852,0.656,1.445,0.656s1.073-0.219,1.438-0.656
			c0.391-0.464,0.586-1.099,0.586-1.906c0-0.792-0.195-1.417-0.586-1.875c-0.364-0.438-0.844-0.656-1.438-0.656
			s-1.075,0.219-1.445,0.656C123.011,197.152,122.816,197.782,122.816,198.579z M123.66,205.86v-2.195h2.195v2.195H123.66z"/>
		<path d="M140.396,202.728h-2.195v-4.234c0-0.896-0.047-1.476-0.141-1.738s-0.246-0.468-0.457-0.613s-0.465-0.219-0.762-0.219
			c-0.38,0-0.722,0.104-1.023,0.313s-0.509,0.484-0.621,0.828s-0.168,0.979-0.168,1.906v3.758h-2.195v-8.297h2.039v1.219
			c0.724-0.938,1.636-1.406,2.734-1.406c0.484,0,0.927,0.087,1.328,0.262s0.704,0.397,0.91,0.668s0.349,0.578,0.43,0.922
			s0.121,0.836,0.121,1.477V202.728z"/>
		<path d="M142.819,203.274l2.508,0.305c0.042,0.291,0.138,0.492,0.289,0.602c0.208,0.156,0.536,0.234,0.984,0.234
			c0.573,0,1.003-0.086,1.289-0.258c0.192-0.115,0.339-0.3,0.438-0.555c0.067-0.183,0.102-0.519,0.102-1.008v-1.211
			c-0.656,0.896-1.484,1.344-2.484,1.344c-1.114,0-1.997-0.472-2.648-1.414c-0.511-0.745-0.766-1.672-0.766-2.781
			c0-1.391,0.335-2.453,1.004-3.188s1.501-1.102,2.496-1.102c1.026,0,1.872,0.45,2.539,1.352v-1.164h2.055v7.445
			c0,0.979-0.081,1.711-0.242,2.195s-0.388,0.864-0.68,1.141c-0.292,0.275-0.681,0.492-1.168,0.648s-1.103,0.234-1.848,0.234
			c-1.406,0-2.403-0.241-2.992-0.723c-0.589-0.482-0.883-1.093-0.883-1.832C142.811,203.467,142.814,203.378,142.819,203.274z
			 M144.78,198.407c0,0.88,0.171,1.524,0.512,1.934s0.762,0.613,1.262,0.613c0.536,0,0.989-0.21,1.359-0.629s0.555-1.04,0.555-1.863
			c0-0.859-0.177-1.497-0.531-1.914s-0.802-0.625-1.344-0.625c-0.526,0-0.96,0.204-1.301,0.613S144.78,197.568,144.78,198.407z"/>
		<path d="M157.978,194.431h2.047v1.219c0.266-0.417,0.625-0.755,1.078-1.016s0.956-0.391,1.508-0.391
			c0.964,0,1.781,0.378,2.453,1.133s1.008,1.808,1.008,3.156c0,1.386-0.339,2.462-1.016,3.23s-1.497,1.152-2.461,1.152
			c-0.458,0-0.874-0.092-1.246-0.273c-0.372-0.183-0.765-0.495-1.176-0.938v4.18h-2.195V194.431z M160.15,198.438
			c0,0.933,0.185,1.621,0.555,2.066s0.82,0.668,1.352,0.668c0.511,0,0.935-0.204,1.273-0.613s0.508-1.079,0.508-2.012
			c0-0.87-0.175-1.516-0.523-1.938s-0.781-0.633-1.297-0.633c-0.536,0-0.981,0.207-1.336,0.621S160.15,197.626,160.15,198.438z"/>
		<path d="M170.402,191.274v4.211c0.708-0.828,1.555-1.242,2.539-1.242c0.505,0,0.961,0.094,1.367,0.281s0.712,0.427,0.918,0.719
			s0.347,0.614,0.422,0.969s0.113,0.903,0.113,1.648v4.867h-2.195v-4.383c0-0.87-0.042-1.422-0.125-1.656s-0.23-0.421-0.441-0.559
			s-0.476-0.207-0.793-0.207c-0.364,0-0.69,0.089-0.977,0.266s-0.496,0.444-0.629,0.801s-0.199,0.884-0.199,1.582v4.156h-2.195
			v-11.453H170.402z"/>
		<path d="M177.88,198.462c0-0.729,0.18-1.435,0.539-2.117s0.868-1.203,1.527-1.563s1.395-0.539,2.207-0.539
			c1.255,0,2.284,0.407,3.086,1.223s1.203,1.845,1.203,3.09c0,1.255-0.405,2.296-1.215,3.121s-1.829,1.238-3.059,1.238
			c-0.761,0-1.485-0.172-2.176-0.516s-1.215-0.848-1.574-1.512S177.88,199.415,177.88,198.462z M183.263,193.415h-1.383
			l-2.156-2.336h2.461L183.263,193.415z M180.13,198.579c0,0.823,0.195,1.453,0.586,1.891s0.872,0.656,1.445,0.656
			s1.054-0.219,1.441-0.656s0.582-1.073,0.582-1.906c0-0.813-0.194-1.438-0.582-1.875s-0.868-0.656-1.441-0.656
			s-1.055,0.219-1.445,0.656S180.13,197.756,180.13,198.579z"/>
		<path d="M196.107,202.728h-2.195v-4.234c0-0.896-0.047-1.476-0.141-1.738s-0.246-0.468-0.457-0.613s-0.464-0.219-0.761-0.219
			c-0.38,0-0.722,0.104-1.023,0.313s-0.509,0.484-0.621,0.828s-0.168,0.979-0.168,1.906v3.758h-2.195v-8.297h2.039v1.219
			c0.724-0.938,1.636-1.406,2.734-1.406c0.484,0,0.928,0.087,1.328,0.262c0.402,0.175,0.705,0.397,0.91,0.668
			c0.207,0.271,0.35,0.578,0.43,0.922c0.082,0.344,0.121,0.836,0.121,1.477V202.728z"/>
		<path d="M198.531,203.274l2.508,0.305c0.043,0.291,0.139,0.492,0.289,0.602c0.209,0.156,0.537,0.234,0.984,0.234
			c0.574,0,1.004-0.086,1.289-0.258c0.193-0.115,0.34-0.3,0.438-0.555c0.068-0.183,0.102-0.519,0.102-1.008v-1.211
			c-0.656,0.896-1.484,1.344-2.484,1.344c-1.113,0-1.996-0.472-2.648-1.414c-0.51-0.745-0.766-1.672-0.766-2.781
			c0-1.391,0.336-2.453,1.004-3.188c0.67-0.734,1.502-1.102,2.496-1.102c1.027,0,1.873,0.45,2.539,1.352v-1.164h2.055v7.445
			c0,0.979-0.08,1.711-0.242,2.195c-0.16,0.484-0.387,0.864-0.68,1.141c-0.291,0.275-0.68,0.492-1.168,0.648
			c-0.486,0.156-1.102,0.234-1.848,0.234c-1.406,0-2.402-0.241-2.992-0.723c-0.588-0.482-0.883-1.093-0.883-1.832
			C198.523,203.467,198.527,203.378,198.531,203.274z M200.492,198.407c0,0.88,0.172,1.524,0.512,1.934
			c0.342,0.409,0.762,0.613,1.262,0.613c0.537,0,0.99-0.21,1.359-0.629c0.371-0.419,0.555-1.04,0.555-1.863
			c0-0.859-0.176-1.497-0.531-1.914c-0.354-0.417-0.801-0.625-1.344-0.625c-0.525,0-0.959,0.204-1.301,0.613
			C200.664,196.945,200.492,197.568,200.492,198.407z"/>
		<path d="M221.301,202.728h-2.195v-4.234c0-0.896-0.047-1.476-0.141-1.738s-0.246-0.468-0.457-0.613s-0.465-0.219-0.762-0.219
			c-0.381,0-0.723,0.104-1.023,0.313c-0.303,0.208-0.51,0.484-0.621,0.828c-0.113,0.344-0.168,0.979-0.168,1.906v3.758h-2.195
			v-8.297h2.039v1.219c0.723-0.938,1.635-1.406,2.734-1.406c0.484,0,0.926,0.087,1.328,0.262c0.4,0.175,0.703,0.397,0.91,0.668
			c0.205,0.271,0.348,0.578,0.43,0.922c0.08,0.344,0.121,0.836,0.121,1.477V202.728z"/>
		<path d="M223.725,203.274l2.508,0.305c0.041,0.291,0.137,0.492,0.289,0.602c0.207,0.156,0.535,0.234,0.984,0.234
			c0.572,0,1.002-0.086,1.289-0.258c0.191-0.115,0.338-0.3,0.438-0.555c0.066-0.183,0.102-0.519,0.102-1.008v-1.211
			c-0.656,0.896-1.484,1.344-2.484,1.344c-1.115,0-1.998-0.472-2.648-1.414c-0.512-0.745-0.766-1.672-0.766-2.781
			c0-1.391,0.334-2.453,1.004-3.188c0.668-0.734,1.5-1.102,2.496-1.102c1.025,0,1.871,0.45,2.539,1.352v-1.164h2.055v7.445
			c0,0.979-0.082,1.711-0.242,2.195c-0.162,0.484-0.389,0.864-0.68,1.141c-0.293,0.275-0.682,0.492-1.168,0.648
			c-0.488,0.156-1.104,0.234-1.848,0.234c-1.406,0-2.404-0.241-2.992-0.723c-0.59-0.482-0.883-1.093-0.883-1.832
			C223.717,203.467,223.719,203.378,223.725,203.274z M225.686,198.407c0,0.88,0.17,1.524,0.512,1.934
			c0.34,0.409,0.762,0.613,1.262,0.613c0.535,0,0.988-0.21,1.359-0.629c0.369-0.419,0.555-1.04,0.555-1.863
			c0-0.859-0.178-1.497-0.531-1.914c-0.355-0.417-0.803-0.625-1.344-0.625c-0.527,0-0.961,0.204-1.301,0.613
			C225.855,196.945,225.686,197.568,225.686,198.407z"/>
		<path d="M239.561,202.728v-1.242c-0.301,0.442-0.699,0.792-1.191,1.047s-1.012,0.383-1.559,0.383c-0.557,0-1.057-0.123-1.5-0.367
			c-0.441-0.245-0.762-0.589-0.961-1.031c-0.197-0.442-0.297-1.055-0.297-1.836v-5.25h2.195v3.813c0,1.167,0.041,1.882,0.121,2.145
			c0.082,0.263,0.229,0.472,0.441,0.625c0.215,0.153,0.484,0.23,0.813,0.23c0.375,0,0.711-0.103,1.008-0.309s0.5-0.461,0.609-0.766
			s0.164-1.051,0.164-2.238v-3.5h2.195v8.297H239.561z M238.006,192.47c0.277-0.067,0.418-0.188,0.422-0.359
			c0.006-0.12-0.066-0.222-0.219-0.305c-0.219-0.12-0.564-0.18-1.039-0.18c-0.16,0-0.406,0.011-0.734,0.031l-0.086-0.797
			c0.203-0.042,0.578-0.06,1.125-0.055c0.641,0.005,1.164,0.109,1.57,0.313c0.449,0.219,0.678,0.523,0.688,0.914
			c0.021,0.542-0.453,0.872-1.422,0.992v0.391h-0.875v-0.859C237.732,192.524,237.924,192.496,238.006,192.47z"/>
		<path d="M78.199,228.728v-11.453h2.313v5.086l4.672-5.086h3.109l-4.313,4.461l4.547,6.992h-2.992l-3.148-5.375l-1.875,1.914v3.461
			H78.199z"/>
		<path d="M92.294,217.274v4.211c0.708-0.828,1.555-1.242,2.539-1.242c0.505,0,0.961,0.094,1.367,0.281s0.712,0.427,0.918,0.719
			c0.206,0.292,0.346,0.614,0.422,0.969c0.075,0.354,0.113,0.903,0.113,1.648v4.867h-2.195v-4.383c0-0.87-0.042-1.422-0.125-1.656
			c-0.083-0.234-0.23-0.421-0.441-0.559s-0.476-0.207-0.793-0.207c-0.365,0-0.69,0.089-0.977,0.266
			c-0.287,0.177-0.496,0.444-0.629,0.801s-0.199,0.884-0.199,1.582v4.156h-2.195v-11.453H92.294z"/>
		<path d="M105.741,228.728v-1.242c-0.302,0.442-0.699,0.792-1.191,1.047s-1.012,0.383-1.559,0.383c-0.558,0-1.058-0.123-1.5-0.367
			c-0.443-0.245-0.763-0.589-0.961-1.031c-0.198-0.442-0.297-1.055-0.297-1.836v-5.25h2.195v3.813c0,1.167,0.04,1.882,0.121,2.145
			c0.081,0.263,0.228,0.472,0.441,0.625c0.213,0.153,0.484,0.23,0.813,0.23c0.375,0,0.711-0.103,1.008-0.309s0.5-0.461,0.609-0.766
			s0.164-1.051,0.164-2.238v-3.5h2.195v8.297H105.741z"/>
		<path d="M117.58,228.728l-3.344-8.297h2.305l1.563,4.234l0.453,1.414c0.12-0.359,0.195-0.597,0.227-0.711
			c0.073-0.234,0.151-0.469,0.234-0.703l1.578-4.234h2.258l-3.297,8.297H117.58z"/>
		<path d="M132.839,220.431h2.195v1.57c0,0.646-0.056,1.151-0.168,1.516s-0.319,0.69-0.621,0.977
			c-0.464,0.448-1.18,0.75-2.148,0.906v3.328h-2.039v-1.242c-0.651,0.953-1.567,1.43-2.75,1.43c-1.224,0-2.044-0.466-2.461-1.398
			c-0.198-0.442-0.297-1.055-0.297-1.836v-5.25h2.195v3.813c0,1.094,0.042,1.808,0.125,2.141c0.058,0.25,0.203,0.458,0.438,0.625
			c0.214,0.156,0.484,0.234,0.813,0.234c0.37,0,0.704-0.102,1.004-0.305s0.504-0.458,0.613-0.766s0.164-1.055,0.164-2.242v-3.5
			h2.195v4.078c0.724-0.146,1.231-0.417,1.523-0.813c0.177-0.239,0.271-0.597,0.281-1.07h-1.063V220.431z M127.027,231.86v-2.195
			h2.195v2.195H127.027z"/>
		<path d="M143.818,222.884l-2.164,0.391c-0.073-0.433-0.238-0.758-0.496-0.977s-0.593-0.328-1.004-0.328
			c-0.547,0-0.983,0.188-1.309,0.566s-0.488,1.009-0.488,1.895c0,0.984,0.165,1.68,0.496,2.086s0.774,0.609,1.332,0.609
			c0.417,0,0.758-0.118,1.023-0.355s0.453-0.645,0.563-1.223l2.156,0.367c-0.224,0.989-0.653,1.737-1.289,2.242
			s-1.487,0.758-2.555,0.758c-1.214,0-2.181-0.383-2.902-1.148s-1.082-1.825-1.082-3.18c0-1.37,0.362-2.437,1.086-3.199
			s1.703-1.145,2.938-1.145c1.011,0,1.813,0.218,2.41,0.652S143.557,221.993,143.818,222.884z"/>
		<path d="M150.633,228.728v-11.453h2.195v4.125c0.677-0.771,1.479-1.156,2.406-1.156c1.011,0,1.847,0.366,2.508,1.098
			s0.992,1.782,0.992,3.152c0,1.417-0.337,2.508-1.012,3.273s-1.493,1.148-2.457,1.148c-0.474,0-0.941-0.119-1.402-0.355
			c-0.461-0.237-0.858-0.587-1.191-1.051v1.219H150.633z M152.813,224.399c0,0.859,0.136,1.495,0.406,1.906
			c0.38,0.583,0.886,0.875,1.516,0.875c0.484,0,0.897-0.207,1.238-0.621s0.512-1.066,0.512-1.957c0-0.948-0.172-1.632-0.516-2.051
			s-0.784-0.629-1.32-0.629c-0.526,0-0.964,0.204-1.313,0.613S152.813,223.566,152.813,224.399z"/>
		<path d="M162.541,222.962l-1.992-0.359c0.224-0.802,0.609-1.396,1.156-1.781s1.359-0.578,2.438-0.578
			c0.979,0,1.708,0.116,2.188,0.348s0.816,0.526,1.012,0.883s0.293,1.012,0.293,1.965l-0.023,2.563c0,0.729,0.035,1.267,0.105,1.613
			s0.202,0.718,0.395,1.113h-2.172c-0.058-0.146-0.128-0.362-0.211-0.648c-0.036-0.13-0.063-0.216-0.078-0.258
			c-0.375,0.364-0.776,0.638-1.203,0.82c-0.427,0.182-0.883,0.273-1.367,0.273c-0.854,0-1.527-0.231-2.02-0.695
			s-0.738-1.05-0.738-1.758c0-0.469,0.112-0.887,0.336-1.254s0.538-0.648,0.941-0.844s0.985-0.366,1.746-0.512
			c1.026-0.192,1.737-0.372,2.133-0.539v-0.219c0-0.422-0.104-0.723-0.313-0.902s-0.602-0.27-1.18-0.27
			c-0.391,0-0.695,0.077-0.914,0.23S162.676,222.576,162.541,222.962z M165.478,224.743c-0.281,0.094-0.727,0.206-1.336,0.336
			s-1.008,0.258-1.195,0.383c-0.286,0.203-0.43,0.461-0.43,0.773c0,0.308,0.114,0.573,0.344,0.797s0.521,0.336,0.875,0.336
			c0.396,0,0.773-0.13,1.133-0.391c0.266-0.198,0.44-0.44,0.523-0.727c0.058-0.188,0.086-0.544,0.086-1.07V224.743z M162.783,231.86
			v-2.195h2.195v2.195H162.783z"/>
		<path d="M177.746,228.728h-2.195v-4.234c0-0.896-0.047-1.476-0.141-1.738s-0.246-0.468-0.457-0.613s-0.465-0.219-0.762-0.219
			c-0.38,0-0.722,0.104-1.023,0.313s-0.509,0.484-0.621,0.828s-0.168,0.979-0.168,1.906v3.758h-2.195v-8.297h2.039v1.219
			c0.724-0.938,1.636-1.406,2.734-1.406c0.484,0,0.927,0.087,1.328,0.262s0.704,0.397,0.91,0.668s0.349,0.578,0.43,0.922
			s0.121,0.836,0.121,1.477V228.728z"/>
		<path d="M185.053,220.431h2.023v1.133c0.724-0.88,1.586-1.32,2.586-1.32c0.531,0,0.992,0.109,1.383,0.328s0.711,0.55,0.961,0.992
			c0.364-0.442,0.758-0.773,1.179-0.992c0.422-0.219,0.873-0.328,1.352-0.328c0.609,0,1.125,0.124,1.547,0.371
			s0.738,0.61,0.945,1.09c0.152,0.354,0.227,0.927,0.227,1.719v5.305h-2.195v-4.742c0-0.823-0.074-1.354-0.227-1.594
			c-0.203-0.313-0.516-0.469-0.938-0.469c-0.307,0-0.596,0.094-0.867,0.281c-0.27,0.188-0.465,0.462-0.585,0.824
			s-0.18,0.934-0.18,1.715v3.984h-2.195v-4.547c0-0.808-0.039-1.328-0.117-1.563s-0.199-0.409-0.363-0.523s-0.387-0.172-0.668-0.172
			c-0.339,0-0.644,0.091-0.914,0.273s-0.465,0.445-0.582,0.789s-0.176,0.914-0.176,1.711v4.031h-2.195V220.431z"/>
		<path d="M205.305,228.728v-1.242c-0.301,0.442-0.699,0.792-1.191,1.047s-1.012,0.383-1.559,0.383c-0.557,0-1.057-0.123-1.5-0.367
			c-0.441-0.245-0.762-0.589-0.961-1.031c-0.197-0.442-0.297-1.055-0.297-1.836v-5.25h2.195v3.813c0,1.167,0.041,1.882,0.121,2.145
			c0.082,0.263,0.229,0.472,0.441,0.625c0.215,0.153,0.484,0.23,0.813,0.23c0.375,0,0.711-0.103,1.008-0.309s0.5-0.461,0.609-0.766
			s0.164-1.051,0.164-2.238v-3.5h2.195v8.297H205.305z"/>
		<path d="M209.51,224.462c0-0.729,0.18-1.435,0.539-2.117s0.867-1.203,1.527-1.563c0.658-0.359,1.395-0.539,2.207-0.539
			c1.254,0,2.283,0.407,3.086,1.223c0.801,0.815,1.203,1.845,1.203,3.09c0,1.255-0.406,2.296-1.215,3.121
			c-0.811,0.825-1.83,1.238-3.059,1.238c-0.762,0-1.486-0.172-2.176-0.516c-0.691-0.344-1.215-0.848-1.574-1.512
			S209.51,225.415,209.51,224.462z M211.143,219.384l1.641-2.305h2.031l1.617,2.305h-1.766l-0.906-1.164l-0.844,1.164H211.143z
			 M211.76,224.579c0,0.823,0.195,1.453,0.586,1.891s0.871,0.656,1.445,0.656c0.572,0,1.053-0.219,1.441-0.656
			c0.387-0.438,0.582-1.073,0.582-1.906c0-0.813-0.195-1.438-0.582-1.875c-0.389-0.438-0.869-0.656-1.441-0.656
			c-0.574,0-1.055,0.219-1.445,0.656S211.76,223.756,211.76,224.579z M212.752,216.657l1.008-2.203h2.461l-2.078,2.203H212.752z"/>
		<path d="M227.738,228.728h-2.195v-4.234c0-0.896-0.047-1.476-0.141-1.738s-0.246-0.468-0.457-0.613s-0.465-0.219-0.762-0.219
			c-0.381,0-0.723,0.104-1.023,0.313c-0.303,0.208-0.51,0.484-0.621,0.828c-0.113,0.344-0.168,0.979-0.168,1.906v3.758h-2.195
			v-8.297h2.039v1.219c0.723-0.938,1.635-1.406,2.734-1.406c0.484,0,0.926,0.087,1.328,0.262c0.4,0.175,0.703,0.397,0.91,0.668
			c0.205,0.271,0.348,0.578,0.43,0.922c0.08,0.344,0.121,0.836,0.121,1.477V228.728z"/>
		<path d="M239.014,220.431v1.75h-1.5v3.344c0,0.677,0.016,1.071,0.043,1.184c0.029,0.112,0.094,0.204,0.195,0.277
			s0.227,0.109,0.371,0.109c0.203,0,0.498-0.07,0.883-0.211l0.188,1.703c-0.51,0.219-1.088,0.328-1.734,0.328
			c-0.395,0-0.752-0.066-1.07-0.199c-0.316-0.133-0.551-0.305-0.699-0.516s-0.25-0.496-0.309-0.855
			c-0.047-0.255-0.07-0.771-0.07-1.547v-3.617h-1.008v-1.75h1.008v-1.648l2.203-1.281v2.93H239.014z"/>
		<path d="M243.125,217.274v4.211c0.709-0.828,1.555-1.242,2.539-1.242c0.506,0,0.961,0.094,1.367,0.281s0.713,0.427,0.918,0.719
			c0.207,0.292,0.348,0.614,0.422,0.969c0.076,0.354,0.113,0.903,0.113,1.648v4.867h-2.195v-4.383c0-0.87-0.041-1.422-0.125-1.656
			c-0.082-0.234-0.23-0.421-0.441-0.559s-0.475-0.207-0.793-0.207c-0.363,0-0.689,0.089-0.977,0.266
			c-0.285,0.177-0.496,0.444-0.629,0.801s-0.199,0.884-0.199,1.582v4.156h-2.195v-11.453H243.125z"/>
		<path d="M256.572,228.728v-1.242c-0.303,0.442-0.699,0.792-1.191,1.047s-1.012,0.383-1.559,0.383c-0.559,0-1.059-0.123-1.5-0.367
			c-0.443-0.245-0.764-0.589-0.961-1.031c-0.199-0.442-0.297-1.055-0.297-1.836v-5.25h2.195v3.813c0,1.167,0.039,1.882,0.121,2.145
			c0.08,0.263,0.227,0.472,0.441,0.625c0.213,0.153,0.484,0.23,0.813,0.23c0.375,0,0.711-0.103,1.008-0.309s0.5-0.461,0.609-0.766
			s0.164-1.051,0.164-2.238v-3.5h2.195v8.297H256.572z"/>
		<path d="M266.09,226.087l2.188,0.367c-0.281,0.802-0.727,1.413-1.332,1.832c-0.607,0.419-1.367,0.629-2.277,0.629
			c-1.443,0-2.512-0.472-3.203-1.414c-0.547-0.755-0.82-1.708-0.82-2.859c0-1.375,0.359-2.452,1.078-3.23s1.627-1.168,2.727-1.168
			c1.234,0,2.207,0.407,2.922,1.223c0.713,0.815,1.055,2.063,1.023,3.746h-5.5c0.016,0.651,0.191,1.157,0.531,1.52
			c0.338,0.362,0.76,0.543,1.266,0.543c0.344,0,0.633-0.094,0.867-0.281S265.969,226.504,266.09,226.087z M261.879,219.384
			l1.641-2.305h2.031l1.617,2.305h-1.766l-0.906-1.164l-0.844,1.164H261.879z M266.215,223.868c-0.016-0.636-0.18-1.118-0.492-1.449
			s-0.693-0.496-1.141-0.496c-0.48,0-0.875,0.175-1.188,0.523s-0.467,0.823-0.461,1.422H266.215z"/>
		<path d="M80.746,254.728v-9.516h-3.398v-1.938h9.102v1.938h-3.391v9.516H80.746z"/>
		<path d="M90.513,243.274v4.211c0.708-0.828,1.555-1.242,2.539-1.242c0.505,0,0.961,0.094,1.367,0.281s0.712,0.427,0.918,0.719
			c0.206,0.292,0.346,0.614,0.422,0.969c0.075,0.354,0.113,0.903,0.113,1.648v4.867h-2.195v-4.383c0-0.87-0.042-1.422-0.125-1.656
			c-0.083-0.234-0.23-0.421-0.441-0.559s-0.476-0.207-0.793-0.207c-0.365,0-0.69,0.089-0.977,0.266
			c-0.287,0.177-0.496,0.444-0.629,0.801s-0.199,0.884-0.199,1.582v4.156h-2.195v-11.453H90.513z"/>
		<path d="M106.53,246.431h2.195v1.57c0,0.646-0.056,1.151-0.168,1.516c-0.112,0.364-0.319,0.69-0.621,0.977
			c-0.349,0.339-0.826,0.604-1.43,0.797c-0.13,0.933-0.519,1.727-1.164,2.383c-0.813,0.828-1.833,1.242-3.063,1.242
			c-0.787,0-1.511-0.172-2.172-0.516c-0.703-0.364-1.232-0.874-1.586-1.527c-0.354-0.653-0.531-1.457-0.531-2.41
			c0-0.75,0.18-1.456,0.539-2.117c0.375-0.692,0.888-1.216,1.539-1.57c0.651-0.354,1.383-0.531,2.195-0.531
			c1.255,0,2.284,0.406,3.086,1.219c0.724,0.739,1.122,1.653,1.195,2.742c0.677-0.276,1.026-0.802,1.047-1.578h-1.063V246.431z
			 M103.374,245.415h-1.383l-2.156-2.336h2.461L103.374,245.415z M100.241,250.579c0,0.797,0.195,1.427,0.586,1.891
			c0.37,0.438,0.852,0.656,1.445,0.656s1.073-0.219,1.438-0.656c0.391-0.464,0.586-1.099,0.586-1.906
			c0-0.792-0.195-1.417-0.586-1.875c-0.365-0.438-0.844-0.656-1.438-0.656s-1.076,0.219-1.445,0.656
			C100.436,249.152,100.241,249.782,100.241,250.579z"/>
		<path d="M110.274,245.306v-2.031h2.195v2.031H110.274z M110.274,254.728v-8.297h2.195v8.297H110.274z"/>
		<path d="M119.761,255.274l2.508,0.305c0.042,0.291,0.138,0.492,0.289,0.602c0.208,0.156,0.536,0.234,0.984,0.234
			c0.573,0,1.003-0.086,1.289-0.258c0.192-0.115,0.339-0.3,0.438-0.555c0.067-0.183,0.102-0.519,0.102-1.008v-1.211
			c-0.656,0.896-1.484,1.344-2.484,1.344c-1.115,0-1.998-0.472-2.648-1.414c-0.511-0.745-0.766-1.672-0.766-2.781
			c0-1.391,0.334-2.453,1.004-3.188c0.669-0.734,1.501-1.102,2.496-1.102c1.026,0,1.872,0.45,2.539,1.352v-1.164h2.055v7.445
			c0,0.979-0.081,1.711-0.242,2.195s-0.388,0.864-0.68,1.141c-0.292,0.275-0.681,0.492-1.168,0.648s-1.103,0.234-1.848,0.234
			c-1.406,0-2.404-0.241-2.992-0.723c-0.589-0.482-0.883-1.093-0.883-1.832C119.753,255.467,119.756,255.378,119.761,255.274z
			 M121.722,250.407c0,0.88,0.17,1.524,0.512,1.934c0.341,0.409,0.762,0.613,1.262,0.613c0.536,0,0.989-0.21,1.359-0.629
			s0.555-1.04,0.555-1.863c0-0.859-0.177-1.497-0.531-1.914s-0.802-0.625-1.344-0.625c-0.526,0-0.96,0.204-1.301,0.613
			C121.893,248.945,121.722,249.568,121.722,250.407z"/>
		<path d="M130.138,245.306v-2.031h2.195v2.031H130.138z M130.138,254.728v-8.297h2.195v8.297H130.138z"/>
		<path d="M136.624,248.962l-1.992-0.359c0.224-0.802,0.609-1.396,1.156-1.781s1.359-0.578,2.438-0.578
			c0.979,0,1.708,0.116,2.188,0.348s0.816,0.526,1.012,0.883s0.293,1.012,0.293,1.965l-0.023,2.563c0,0.729,0.035,1.267,0.105,1.613
			s0.202,0.718,0.395,1.113h-2.172c-0.058-0.146-0.128-0.362-0.211-0.648c-0.036-0.13-0.063-0.216-0.078-0.258
			c-0.375,0.364-0.776,0.638-1.203,0.82c-0.427,0.182-0.883,0.273-1.367,0.273c-0.854,0-1.527-0.231-2.02-0.695
			s-0.738-1.05-0.738-1.758c0-0.469,0.112-0.887,0.336-1.254s0.538-0.648,0.941-0.844s0.985-0.366,1.746-0.512
			c1.026-0.192,1.737-0.372,2.133-0.539v-0.219c0-0.422-0.104-0.723-0.313-0.902s-0.602-0.27-1.18-0.27
			c-0.391,0-0.695,0.077-0.914,0.23S136.759,248.576,136.624,248.962z M139.561,250.743c-0.281,0.094-0.727,0.206-1.336,0.336
			s-1.008,0.258-1.195,0.383c-0.286,0.203-0.43,0.461-0.43,0.773c0,0.308,0.114,0.573,0.344,0.797s0.521,0.336,0.875,0.336
			c0.396,0,0.773-0.13,1.133-0.391c0.266-0.198,0.44-0.44,0.523-0.727c0.058-0.188,0.086-0.544,0.086-1.07V250.743z"/>
		<path d="M151.829,254.728h-2.195v-4.234c0-0.896-0.047-1.476-0.141-1.738s-0.246-0.468-0.457-0.613s-0.465-0.219-0.762-0.219
			c-0.38,0-0.722,0.104-1.023,0.313s-0.509,0.484-0.621,0.828s-0.168,0.979-0.168,1.906v3.758h-2.195v-8.297h2.039v1.219
			c0.724-0.938,1.636-1.406,2.734-1.406c0.484,0,0.927,0.087,1.328,0.262s0.704,0.397,0.91,0.668s0.349,0.578,0.43,0.922
			s0.121,0.836,0.121,1.477V254.728z"/>
		<path d="M164.714,245.548h-2.367v-1.461h2.367v-0.813h2.195v0.813h0.867v1.461h-0.867v9.18h-2.039v-1.219
			c-0.339,0.474-0.738,0.827-1.199,1.059s-0.926,0.348-1.395,0.348c-0.953,0-1.77-0.384-2.449-1.152s-1.02-1.84-1.02-3.215
			c0-1.406,0.331-2.476,0.992-3.207s1.497-1.098,2.508-1.098c0.927,0,1.729,0.386,2.406,1.156V245.548z M161.05,250.399
			c0,0.886,0.122,1.526,0.367,1.922c0.354,0.573,0.849,0.859,1.484,0.859c0.505,0,0.935-0.215,1.289-0.645s0.531-1.071,0.531-1.926
			c0-0.953-0.172-1.64-0.516-2.059s-0.784-0.629-1.32-0.629c-0.521,0-0.957,0.207-1.309,0.621S161.05,249.576,161.05,250.399z"/>
		<path d="M169.474,245.306v-2.031h2.195v2.031H169.474z M169.474,254.728v-8.297h2.195v8.297H169.474z"/>
		<path d="M178.11,254.728l2.992-4.273l-2.867-4.023h2.68l1.469,2.281l1.547-2.281h2.578l-2.813,3.93l3.07,4.367h-2.695l-1.688-2.57
			l-1.703,2.57H178.11z"/>
		<path d="M193.268,252.087l2.188,0.367c-0.281,0.802-0.727,1.413-1.332,1.832c-0.607,0.419-1.367,0.629-2.278,0.629
			c-1.442,0-2.511-0.472-3.203-1.414c-0.547-0.755-0.82-1.708-0.82-2.859c0-1.375,0.359-2.452,1.078-3.23s1.628-1.168,2.727-1.168
			c1.234,0,2.208,0.407,2.922,1.223c0.713,0.815,1.055,2.063,1.023,3.746h-5.5c0.016,0.651,0.192,1.157,0.531,1.52
			s0.761,0.543,1.266,0.543c0.344,0,0.633-0.094,0.867-0.281S193.146,252.504,193.268,252.087z M193.393,249.868
			c-0.016-0.636-0.18-1.118-0.493-1.449c-0.313-0.331-0.692-0.496-1.141-0.496c-0.479,0-0.875,0.175-1.188,0.523
			s-0.466,0.823-0.461,1.422H193.393z"/>
		<path d="M197.598,246.431h2.023v1.133c0.723-0.88,1.586-1.32,2.586-1.32c0.531,0,0.992,0.109,1.383,0.328s0.711,0.55,0.961,0.992
			c0.363-0.442,0.758-0.773,1.18-0.992s0.871-0.328,1.352-0.328c0.609,0,1.125,0.124,1.547,0.371s0.736,0.61,0.945,1.09
			c0.15,0.354,0.227,0.927,0.227,1.719v5.305h-2.195v-4.742c0-0.823-0.076-1.354-0.227-1.594c-0.203-0.313-0.516-0.469-0.938-0.469
			c-0.309,0-0.598,0.094-0.867,0.281c-0.271,0.188-0.467,0.462-0.586,0.824c-0.121,0.362-0.18,0.934-0.18,1.715v3.984h-2.195v-4.547
			c0-0.808-0.039-1.328-0.117-1.563s-0.199-0.409-0.363-0.523s-0.387-0.172-0.668-0.172c-0.34,0-0.645,0.091-0.914,0.273
			c-0.271,0.183-0.465,0.445-0.582,0.789s-0.176,0.914-0.176,1.711v4.031h-2.195V246.431z"/>
		<path d="M224.779,254.728h-2.195v-4.234c0-0.896-0.047-1.476-0.141-1.738s-0.246-0.468-0.457-0.613s-0.465-0.219-0.762-0.219
			c-0.379,0-0.721,0.104-1.023,0.313c-0.301,0.208-0.508,0.484-0.621,0.828c-0.111,0.344-0.168,0.979-0.168,1.906v3.758h-2.195
			v-8.297h2.039v1.219c0.725-0.938,1.637-1.406,2.734-1.406c0.484,0,0.928,0.087,1.328,0.262c0.402,0.175,0.705,0.397,0.91,0.668
			c0.207,0.271,0.35,0.578,0.43,0.922c0.082,0.344,0.121,0.836,0.121,1.477V254.728z"/>
		<path d="M229.594,243.274v4.211c0.709-0.828,1.555-1.242,2.539-1.242c0.506,0,0.961,0.094,1.367,0.281s0.713,0.427,0.918,0.719
			c0.207,0.292,0.348,0.614,0.422,0.969c0.076,0.354,0.113,0.903,0.113,1.648v4.867h-2.195v-4.383c0-0.87-0.041-1.422-0.125-1.656
			c-0.082-0.234-0.23-0.421-0.441-0.559s-0.475-0.207-0.793-0.207c-0.363,0-0.689,0.089-0.977,0.266
			c-0.285,0.177-0.496,0.444-0.629,0.801s-0.199,0.884-0.199,1.582v4.156h-2.195v-11.453H229.594z"/>
		<path d="M239.221,248.962l-1.992-0.359c0.223-0.802,0.609-1.396,1.156-1.781s1.359-0.578,2.438-0.578
			c0.979,0,1.707,0.116,2.188,0.348c0.479,0.231,0.816,0.526,1.012,0.883s0.293,1.012,0.293,1.965l-0.023,2.563
			c0,0.729,0.035,1.267,0.105,1.613s0.201,0.718,0.395,1.113h-2.172c-0.059-0.146-0.129-0.362-0.211-0.648
			c-0.037-0.13-0.063-0.216-0.078-0.258c-0.375,0.364-0.777,0.638-1.203,0.82c-0.428,0.182-0.883,0.273-1.367,0.273
			c-0.855,0-1.527-0.231-2.02-0.695s-0.738-1.05-0.738-1.758c0-0.469,0.111-0.887,0.336-1.254c0.223-0.367,0.537-0.648,0.941-0.844
			c0.402-0.195,0.984-0.366,1.746-0.512c1.025-0.192,1.736-0.372,2.133-0.539v-0.219c0-0.422-0.105-0.723-0.313-0.902
			c-0.209-0.18-0.602-0.27-1.18-0.27c-0.391,0-0.695,0.077-0.914,0.23S239.355,248.576,239.221,248.962z M242.002,245.415h-1.383
			l-2.156-2.336h2.461L242.002,245.415z M242.158,250.743c-0.281,0.094-0.727,0.206-1.336,0.336s-1.008,0.258-1.195,0.383
			c-0.287,0.203-0.43,0.461-0.43,0.773c0,0.308,0.113,0.573,0.344,0.797c0.229,0.224,0.52,0.336,0.875,0.336
			c0.395,0,0.773-0.13,1.133-0.391c0.266-0.198,0.439-0.44,0.523-0.727c0.057-0.188,0.086-0.544,0.086-1.07V250.743z"/>
	</g>
	<g>
		<path fill="none" stroke="#CCCCCC" stroke-miterlimit="10" d="M382.5,282.5c0,5.522-4.477,10-10,10h-362c-5.523,0-10-4.478-10-10
			v-272c0-5.522,4.477-10,10-10h362c5.523,0,10,4.478,10,10V282.5z"/>
	</g>
</g>
</svg>
