<?xml version="1.0" encoding="utf-8"?>
<!-- Generator: Adobe Illustrator 16.0.0, SVG Export Plug-In . SVG Version: 6.00 Build 0)  -->
<!DOCTYPE svg PUBLIC "-//W3C//DTD SVG 1.1//EN" "http://www.w3.org/Graphics/SVG/1.1/DTD/svg11.dtd">
<svg version="1.1" xmlns="http://www.w3.org/2000/svg" xmlns:xlink="http://www.w3.org/1999/xlink" x="0px" y="0px" width="495px"
	 height="123px" viewBox="0 0 495 123" enable-background="new 0 0 495 123" xml:space="preserve">
<g id="_x31_0_x3000_特集一覧_x3000_category">
</g>
<g id="_x31_1_x3000_特集個別_x3000_">
</g>
<g id="_x31_2_x3000_サポート_x3000_suport">
</g>
<g id="_x31_3_x3000_住居エリア情報_area">
</g>
<g id="_x31_4_x3000_物件タイプ情報_x3000_style">
</g>
<g id="_x31_5_x3000_内覧_x30FB_入居フロー_x3000_step">
	<g>
		<path d="M264.807,46.938c2.237,1.119-4.097,4.101-5.963,4.473c-6.336,1.491-9.318-4.845-15.281-5.963
			C228.654,42.466,226.793,59.239,213,58.12c10.434-1.863,2.234-11.182,5.217-17.518c3.354-6.709,14.535-9.69,19.383-2.981
			c-1.865-7.827,12.67-10.809,17.145-5.964c5.966,6.337-2.982,14.909,10.063,14.909c-0.373,0.745-0.744,1.118-1.117,1.863"/>
		<g>
			<path d="M264.276,47.469c0.659,0.563-5.22,3.109-5.632,3.219c-3.941,1.053-7.188-1.975-10.175-3.955
				c-3.533-2.343-7.834-2.819-11.918-1.947c-9.414,2.01-12.91,13.063-23.552,12.585c0.066,0.491,0.133,0.982,0.199,1.474
				c5.316-1.229,6.481-4.367,5.721-9.473c-0.759-5.092-1.139-8.846,3.438-12.36c4.49-3.449,11.051-3.285,14.712,1.141
				c0.533,0.645,1.358-0.075,1.254-0.729c-0.887-5.532,5.659-7.291,9.901-7.359c5.584-0.089,8.107,3.997,8.136,9.097
				c0.033,6.04,2.265,7.979,8.446,8.157c-0.216-0.376-0.432-0.752-0.647-1.129c-0.372,0.621-0.745,1.242-1.117,1.863
				c-0.499,0.832,0.799,1.586,1.295,0.758c0.372-0.621,0.745-1.242,1.117-1.863c0.3-0.501-0.089-1.113-0.647-1.129
				c-3.913-0.113-6.845-0.736-6.955-5.078c-0.044-1.73,0.008-3.409-0.264-5.127c-0.543-3.434-3.141-5.734-6.325-6.669
				c-5.911-1.735-15.574,1.466-14.387,8.878c0.418-0.243,0.836-0.486,1.254-0.729c-4.365-5.277-12.648-5.124-17.605-0.549
				c-2.438,2.25-3.709,4.596-3.751,7.934c-0.067,5.325,3.579,11.177-3.973,12.921c-0.854,0.197-0.62,1.437,0.199,1.474
				c13.028,0.585,17.963-15.86,31.598-12.384c6.02,1.534,8.932,7.642,15.828,5.213c1.472-0.518,7.555-3.033,4.911-5.291
				C264.605,45.783,263.54,46.84,264.276,47.469L264.276,47.469z"/>
		</g>
	</g>
	<g>
		<g>
			<path d="M221.298,52.536c4.603,7.72,6.242,16.675,8.867,25.165c0.127,0.41,0.513,0.608,0.923,0.524
				c6.849-1.416,13.721-2.56,20.674-3.328c0.95-0.105,0.961-1.606,0-1.5c-3.875,0.429-7.728,0.955-11.575,1.579
				c-1.896,0.307-3.781,0.667-5.666,1.025c-3.31,0.629-3.408-0.274-4.238-3.188c-2.054-7.211-3.815-14.537-7.689-21.036
				C222.099,50.949,220.801,51.703,221.298,52.536L221.298,52.536z"/>
		</g>
	</g>
	<g>
		<g>
			<path d="M252.157,50.12c1.026,3.636,0.814,7.819,0.787,11.559c-0.023,3.121,0.578,10.052-2.086,12.312
				c-0.739,0.627,0.328,1.683,1.061,1.061c2.647-2.245,2.329-8.104,2.469-11.176c0.206-4.525,0.462-9.735-0.783-14.153
				C253.342,48.792,251.895,49.188,252.157,50.12L252.157,50.12z"/>
		</g>
	</g>
	<g>
		<g>
			<path d="M240.603,57.947c0.607,2.489,1.079,5.012,1.863,7.454c0.175-0.308,0.35-0.615,0.524-0.923
				c-1.373,0.457-2.817,1.015-4.273,1.092c0.25,0.25,0.5,0.5,0.75,0.75c-0.042-1.254-0.318-2.477-0.372-3.728
				c-0.041-0.964-1.541-0.968-1.5,0c0.054,1.251,0.33,2.474,0.372,3.728c0.013,0.392,0.331,0.772,0.75,0.75
				c1.605-0.086,3.159-0.642,4.672-1.145c0.375-0.125,0.654-0.519,0.524-0.923c-0.785-2.442-1.257-4.966-1.863-7.454
				C241.82,56.609,240.374,57.008,240.603,57.947L240.603,57.947z"/>
		</g>
	</g>
	<g>
		<g>
			<path d="M254.451,57.354c0.957-0.396,2.026-0.35,2.982-0.746c-0.308-0.175-0.615-0.35-0.923-0.524
				c0.37,2.021,0.344,4.089,0.345,6.137c0.25-0.25,0.5-0.5,0.75-0.75c-1.063,0.044-2.1,0.304-3.154,0.026
				c-0.937-0.245-1.334,1.202-0.398,1.447c1.201,0.314,2.339,0.076,3.553,0.026c0.408-0.017,0.75-0.328,0.75-0.75
				c-0.001-2.188-0.004-4.376-0.397-6.535c-0.067-0.367-0.567-0.672-0.923-0.524c-0.957,0.397-2.025,0.351-2.982,0.746
				C253.172,56.271,253.558,57.723,254.451,57.354L254.451,57.354z"/>
		</g>
	</g>
	<g>
		<g>
			<path d="M231.631,58.493c-0.007,0.162,0.04-0.176,0.004-0.048c0.041-0.145,0.148-0.295,0.309-0.377
				c0.376,0.216,0.752,0.432,1.129,0.647c0.019,0.276-0.161,0.456-0.054,0.28c0.001-0.002,0.105-0.146,0.051-0.077
				c0.18-0.228,0.386-0.435,0.589-0.641c-0.427-0.177-0.854-0.354-1.28-0.53c-0.001,0.097-0.007,0.193-0.014,0.29
				c-0.017,0.226,0.021-0.076-0.024,0.162c-0.065,0.349-0.092-0.006,0.213-0.058c0.192,0.025,0.385,0.051,0.578,0.076
				c-0.248-0.125-0.496-0.249-0.744-0.373c0.089,0.342,0.179,0.684,0.269,1.026c0.03-0.054,0.086-0.178,0.145-0.223
				c0.323-0.247-0.406,0.659-0.668-0.497c0-0.133,0-0.267,0-0.399c0.03-0.054,0.06-0.108,0.09-0.163
				c-0.638,0.722,0.419,1.787,1.061,1.061c0.452-0.512,0.419-1.258-0.303-1.495c-0.667-0.22-1.331,0.449-1.619,0.959
				c-0.191,0.339-0.101,0.841,0.269,1.026c0.516,0.259,1.035,0.646,1.613,0.335c0.563-0.303,0.632-1.167,0.636-1.728
				c0.004-0.653-0.821-0.995-1.28-0.53c-0.338,0.342-1.063,0.938-1.025,1.498c0.039,0.582,0.603,0.916,1.128,0.647
				c0.315-0.16,0.418-0.549,0.431-0.87C233.17,57.525,231.67,57.529,231.631,58.493L231.631,58.493z"/>
		</g>
	</g>
	<g>
		<g>
			<path d="M245.797,55.134c-0.104,0-0.21,0-0.314-0.001c-0.044-0.002-0.088-0.003-0.132-0.004c-0.28-0.035-0.175,0.062,0.316,0.29
				c0.025,0.192,0.051,0.385,0.075,0.577c-0.163,0.424-0.283,0.343,0.063,0.163c-0.127,0.034-0.253,0.068-0.379,0.103
				c-0.15-0.011-0.334-0.405-0.276-0.188c-0.039-0.148-0.031,0.234-0.006,0.066c-0.015,0.098-0.039,0.195-0.07,0.29
				c0.482,0,0.965,0,1.447,0c-0.028-0.192-0.122-0.367-0.233-0.523c-0.061-0.08-0.122-0.159-0.185-0.238
				c-0.21-0.269,0.16-0.019-0.146,0.373c0.579-0.74-0.354-1.762-1.061-1.061c-0.048,0.049-0.098,0.097-0.147,0.144
				c0.063-0.038,0.067-0.044,0.013-0.018c0.127-0.034,0.253-0.068,0.379-0.103c-0.01-0.001-0.02-0.002-0.028-0.003
				c0.177,0.074,0.354,0.146,0.53,0.221c0.092,0.092,0.147,0.197,0.166,0.317c-0.01-0.133-0.005-0.269-0.005-0.401
				c-0.376,0.216-0.752,0.432-1.129,0.647c0.183,0.093,0.362,0.188,0.538,0.294c0.201,0.121,0.024,0.109-0.021-0.14
				c0-0.134,0-0.267,0-0.399c0.073-0.215,0.205-0.356,0.396-0.423c-0.168,0.054,0.173-0.011-0.045,0.007
				c-0.162,0.012-0.326,0.009-0.488,0.009c-0.967,0.001-0.968,1.501,0,1.5c0.563,0,1.144,0.018,1.503-0.487
				c0.549-0.773-0.608-1.393-1.124-1.655c-0.498-0.254-1.13,0.054-1.129,0.647c0,0.456-0.023,0.996,0.43,1.262
				c0.472,0.275,0.896-0.033,1.224-0.358c-0.354-0.354-0.707-0.707-1.061-1.061c-0.265,0.339-0.381,0.646-0.274,1.073
				c0.074,0.296,0.415,0.516,0.452,0.774c0.114,0.79,1.24,0.638,1.447,0c0.252-0.777,0.126-1.804-0.796-2.033
				c-0.586-0.146-1.455,0.341-1.455,1.001c0,0.833,0.932,0.836,1.527,0.837C246.765,56.635,246.764,55.135,245.797,55.134
				L245.797,55.134z"/>
		</g>
	</g>
	<g>
		<path d="M304.598,34.143c-3.417-9.414-14.779-8.291-21.071-2.314c-4.587,3.896-5.358,15.444-13.358,9.927
			c4.643,12.16,30.514,6.926,32.19-3.184c-0.079,3.066,0.562,5.681-0.106,8.615c2.668,1.84,4.75,3.545,7.416,5.385
			c0.215-3.654,2.129-22.965-4.75-17.122"/>
		<g>
			<path d="M305.321,33.943c-3.07-7.328-10.318-8.908-17.306-5.99c-3.035,1.269-5.566,3.486-7.327,6.231
				c-2.565,4.003-4.096,10.67-10.142,6.923c-0.702-0.435-1.304,0.39-1.026,1.026c5.178,11.871,30.748,9.235,33.562-3.363
				c-0.491-0.066-0.982-0.133-1.474-0.199c0.036,2.837,0.347,5.581-0.08,8.416c-0.054,0.362,0.041,0.632,0.345,0.847
				c2.494,1.766,4.923,3.619,7.416,5.385c0.499,0.354,1.096-0.131,1.129-0.647c0.204-3.178,2.178-23.93-5.879-17.77
				c-0.757,0.579-0.012,1.883,0.758,1.295c4.175-3.192,3.995,5.102,4.025,7.56c0.038,2.978-0.214,5.947-0.404,8.915
				c0.376-0.216,0.752-0.432,1.129-0.647c-1.516-1.073-7.157-3.971-6.812-6.267c0.344-2.289-0.098-4.78-0.127-7.086
				c-0.011-0.83-1.285-1.043-1.474-0.199c-2.543,11.394-26.203,13.589-30.819,3.004c-0.342,0.343-0.684,0.685-1.026,1.026
				c5.46,3.384,8.274-0.115,10.81-4.949c4.38-8.351,18.333-14.907,23.275-3.111C304.242,35.221,305.694,34.835,305.321,33.943
				L305.321,33.943z"/>
		</g>
	</g>
	<g>
		<g>
			<path d="M307.922,50.687c0.17,1.5,0.482,3.442,0.603,4.813c0.028,0.327,0.207,0.642,0.551,0.724
				c1.557,0.202,2.865,0.944,3.927,2.227c-0.229,3.394-1.806,4.577-4.732,3.548c-0.471-0.084-0.953,0.202-0.949,0.724
				c0.04,5.722,0.653,9.612-5.025,12.605c-4.915,2.592-13.038,2.713-18.441,1.913c-14.774-2.186-9.489-21.038-2.935-28.431
				c0.64-0.721-0.418-1.786-1.061-1.061c-5.459,6.156-9.172,15.436-5.927,23.491c3.785,9.396,15.608,8.131,23.619,6.91
				c3.47-0.529,8.254-1.789,10.181-5.099c0.851-1.461,1.416-9.355,1.622-9.351c2.875,0.07,5.392-1.029,5.513-4.181
				c0.052-1.332-0.967-2.46-1.872-3.282c-0.347-0.315-0.77-0.556-1.202-0.731c-2.221-0.9-2.118-2.595-2.37-4.82
				C309.314,49.736,307.813,49.727,307.922,50.687L307.922,50.687z"/>
		</g>
	</g>
	<g>
		<g>
			<path d="M292.497,63.252c0.19,0.191,0.366,0.372,0.436,0.5c-0.086-0.143-0.079-0.301,0.021-0.472
				c0.056-0.127,0.295-0.204,0.105-0.15c-0.201,0.057-0.427,0.042-0.633,0.045c0.126,0.466,0.252,0.932,0.379,1.397
				c0.216-0.141,0.434-0.275,0.662-0.396s-0.026-0.004,0.146-0.062c0.02-0.005,0.038-0.01,0.057-0.016
				c-0.265,0.058-0.495-0.053-0.689-0.329c-0.034-0.126-0.068-0.253-0.103-0.379c0,0.005,0,0.009,0,0.014
				c0.034-0.126,0.068-0.252,0.103-0.378c0.075-0.177,0.278-0.256,0.45-0.274c-0.019,0.002,0.142,0.054,0.127,0.04
				c-0.713-0.65-1.776,0.407-1.061,1.061c0.545,0.497,1.882,0.605,1.881-0.448c0-0.456-0.404-0.828-0.86-0.787
				c-0.54,0.048-1.028,0.37-1.471,0.659c-0.605,0.396-0.396,1.406,0.379,1.397c0.674-0.008,1.756-0.059,1.925-0.903
				c0.133-0.66-0.367-1.154-0.793-1.58C292.873,61.506,291.813,62.567,292.497,63.252L292.497,63.252z"/>
		</g>
	</g>
	<g>
		<g>
			<path d="M281.063,62.65c0.19,0.191,0.366,0.372,0.436,0.5c-0.086-0.143-0.079-0.301,0.021-0.472
				c0.055-0.127,0.295-0.204,0.105-0.15c-0.202,0.057-0.427,0.042-0.634,0.045c0.126,0.466,0.252,0.932,0.379,1.397
				c0.216-0.141,0.434-0.275,0.663-0.396c0.229-0.12-0.026-0.004,0.146-0.062c0.019-0.005,0.037-0.01,0.057-0.016
				c-0.266,0.058-0.495-0.053-0.689-0.329c-0.034-0.126-0.068-0.253-0.103-0.379c0,0.005,0,0.009,0,0.014
				c0.034-0.126,0.068-0.252,0.103-0.378c0.075-0.177,0.278-0.256,0.45-0.274c-0.019,0.002,0.142,0.054,0.127,0.04
				c-0.713-0.65-1.776,0.407-1.061,1.061c0.544,0.496,1.884,0.605,1.881-0.448c-0.001-0.456-0.404-0.828-0.86-0.787
				c-0.541,0.048-1.028,0.37-1.472,0.659c-0.605,0.396-0.396,1.406,0.379,1.397c0.674-0.008,1.756-0.058,1.926-0.903
				c0.133-0.659-0.367-1.154-0.793-1.58C281.439,60.904,280.379,61.966,281.063,62.65L281.063,62.65z"/>
		</g>
	</g>
	<g>
		<path d="M292.5,55.656c3.086,0.999,6.703,3.229,9.096,6.001l1.154-1.387c-1.777-5.393-7.559-7.853-11.949-4.459"/>
		<g>
			<path d="M292.301,56.38c3.373,1.168,6.372,3.16,8.765,5.808c0.256,0.283,0.808,0.304,1.061,0
				c0.356-0.428,1.599-1.432,1.348-2.116c-0.719-1.957-1.772-3.58-3.418-4.879c-2.883-2.276-6.725-2.098-9.634-0.028
				c-0.78,0.556-0.032,1.857,0.758,1.295c2.363-1.682,4.959-1.871,7.482-0.417c1.323,0.763,2.242,2.051,2.939,3.37
				c0.424,0.803,0.688,0.244,0.041,1.021c-0.192,0.231-0.385,0.462-0.577,0.693c0.354,0,0.707,0,1.061,0
				c-2.566-2.84-5.813-4.942-9.427-6.194C291.783,54.615,291.393,56.064,292.301,56.38L292.301,56.38z"/>
		</g>
	</g>
	<g>
		<path d="M281.797,53.851c-3.081,0.999-6.704,3.23-9.098,6.002l-1.152-1.388c1.775-5.392,7.559-7.853,11.945-4.458"/>
		<g>
			<path d="M281.598,53.127c-3.613,1.254-6.861,3.356-9.429,6.195c0.354,0,0.707,0,1.061,0c-0.355-0.429-0.711-0.856-1.067-1.285
				c-0.073-0.089,2.381-2.955,2.674-3.222c2.4-2.19,5.771-1.946,8.277-0.161c0.79,0.563,1.538-0.739,0.758-1.295
				c-2.908-2.07-6.749-2.248-9.631,0.028c-1.405,1.109-2.563,2.547-3.185,4.245c-0.48,1.311,0.278,1.745,1.113,2.75
				c0.252,0.304,0.805,0.283,1.061,0c2.394-2.646,5.395-4.64,8.767-5.809C282.904,54.259,282.514,52.81,281.598,53.127
				L281.598,53.127z"/>
		</g>
	</g>
	<g>
		<path fill="#231815" d="M407.079,97.731c0-7.462-0.015-14.93-0.407-22.383c-0.357-6.805-0.695-13.615-0.658-20.431
			c0.033-5.74,0.72-11.724-1.1-17.278c-0.084-0.258-0.257-0.412-0.454-0.49c-0.574-3.389-2.805-6.381-4.229-9.443
			c-1.808-3.887-1.463-8.265-4.784-11.431c-0.252-0.241-0.546-0.654-0.801-0.563c-0.129-0.191-0.346-0.713-0.655-0.713h-11.727
			c-3.623,0-7.278-0.334-10.888-0.016c-0.727,0.066-0.938,1.064-0.627,1.506c-2.075,4.082-3.59,8.536-5.286,12.807
			c-0.124-0.105-0.29-0.127-0.499-0.129c-5.032-0.045-10.063-0.289-15.094-0.336c-2.557-0.024-5.723-0.412-7.953,1.102
			c-0.29-0.057-0.604,0.049-0.79,0.387c-1.137,2.045-2.11,4.17-2.968,6.342c-0.311,0.079-0.555,0.326-0.525,0.744
			c0.012,0.166,0.037,0.322,0.071,0.473c-1.226,3.297-2.206,6.689-3.069,10.089c-0.058,0.227-0.021,0.422,0.073,0.578
			c-0.26,0.108-0.458,0.341-0.458,0.703c-0.018,22.223-1.042,44.429-1.067,66.649c-0.468,0.351-0.503,1.235,0.233,1.432
			c4.225,1.133,8.697,0.763,13.029,0.741c5.889-0.03,11.756-1.012,17.658-1.065c13.913,0.034,27.817,0.688,41.731,0.708
			c0.044,0.941,1.548,0.909,1.598-0.089C407.766,110.993,407.08,104.364,407.079,97.731z M402.722,36.575
			c-0.457-0.051-0.915-0.094-1.372-0.139c-0.066-0.109-0.154-0.202-0.275-0.255c-0.455-0.199-0.651-0.46-0.797-0.91
			c-0.074-0.231-0.144-0.458-0.23-0.676c0.563-0.209,1.091-0.527,1.524-0.959C402.052,34.591,402.468,35.563,402.722,36.575z
			 M400.811,32.216c-0.11,0.055-0.197,0.134-0.284,0.247c-0.741,0.962-3.53,1.438-3.381-0.158c0.003-0.014-0.094-0.025-0.092-0.038
			c0.009-0.081-0.054-0.163-0.054-0.256v-0.002c1-0.517,1.729-1.654,2.132-2.697C399.619,30.286,400.269,31.247,400.811,32.216z
			 M374.65,35.4c-0.104-0.227-0.154-0.482-0.214-0.726c-0.019-0.084-0.052-0.165-0.077-0.248c0.715-0.067,1.383-0.25,1.882-0.554
			c0.308,0.973,1.038,1.732,2.161,2.004c0.207,0.049,0.598,0.076,0.598,0.088v0.017c-1,0.041-2.872,0.084-4.323,0.128
			C374.761,35.889,374.76,35.634,374.65,35.4z M372.703,32.878c0.787-0.264,1.478-0.702,1.943-1.337
			c0.216,0.255,0.469,0.472,0.752,0.651c0.004,0.004,0.004,0.007,0.004,0.011c0.129,0.227,0.168,0.212-0.086,0.38
			c-0.365,0.24-0.855,0.308-1.281,0.345C373.668,32.96,373.172,32.962,372.703,32.878z M373.244,36.151
			c-1.633,0.048-3.266,0.092-4.899,0.125c0.089-0.177,0.177-0.354,0.273-0.526c0.06-0.106,0.122-0.209,0.189-0.311
			c0.028-0.036,0.035-0.052,0.04-0.06c0.023-0.026,0.046-0.052,0.07-0.077c0.092-0.098,0.152-0.213,0.19-0.335
			c0.618-0.345,1.198-0.787,1.692-1.262c0.509,0.33,1.164,0.546,1.857,0.659c0.014,0.081,0.04,0.163,0.075,0.241
			c0.105,0.227,0.155,0.482,0.214,0.725C373.021,35.616,373.128,35.885,373.244,36.151z M382.269,24.8
			c0.011,0.028,0.019,0.061,0.028,0.09c-0.268,1.052-0.664,2.103-1.42,2.862c-1.43,1.436-2.877-1.402-2.916-2.702
			c1.252-0.45,1.845-1.555,2.384-2.71c0.44,0.86,1.058,1.6,1.899,2.004C382.21,24.477,382.21,24.629,382.269,24.8z M391.085,25.055
			c0.725-0.393,1.305-1.032,1.712-1.79c0.588,0.598,1.387,0.998,2.205,1.105C394.518,26.589,391.477,27.979,391.085,25.055z
			 M395.336,27.102c0.076,0.291,0.176,0.579,0.304,0.86c0.377,0.818,1.06,1.233,1.833,1.388c-0.426,0.89-1.067,1.558-2.2,1.143
			c-0.743-0.273-0.928-1.185-1.089-2.008c0.029-0.139,0.056-0.28,0.075-0.426c0.006-0.042,0.003-0.08,0.003-0.118
			C394.668,27.719,395.027,27.437,395.336,27.102z M392.545,28.419c0.002,0.006,0.004,0.011,0.004,0.017
			c-0.761,1.809-5.116,3.454-5.476,1.539c1.245-0.479,2.427-1.614,3.108-2.862C390.699,27.907,391.486,28.443,392.545,28.419z
			 M385.694,28.61c-1.192,0.079-1.483-2.441-1.751-3.725c0.021-0.091,0.043-0.182,0.062-0.271c0.834-0.167,1.474-0.788,1.95-1.564
			c0.446,1.177,1.182,2.091,2.854,2.371c0.11,0.019,0.218,0.031,0.324,0.041C388.817,26.954,387.105,28.517,385.694,28.61z
			 M384.881,30.036c-0.58,0.962-1.412,1.728-2.502,2.074c-0.092,0.013-0.18,0.037-0.263,0.075c-0.022,0.006-0.043,0.015-0.065,0.02
			c-1.376,0.314-1.848-0.78-1.944-1.889c0.071-0.211,0.129-0.429,0.173-0.647c0.102-0.01,0.202-0.014,0.306-0.036
			c1.118-0.241,1.88-1.054,2.415-2.052C383.323,28.682,383.818,29.649,384.881,30.036z M378.53,29.222
			c-0.016,0.055-0.025,0.111-0.028,0.173c-0.021,0.247-0.024,0.493-0.017,0.738c-0.233,0.507-0.635,0.9-1.274,0.961
			c-0.976,0.092-1.6-0.661-1.83-1.511c0.865-0.211,1.468-0.834,1.869-1.635C377.597,28.467,378.034,28.909,378.53,29.222z
			 M374.518,28.05c-1.151-0.234-1.108-2.623-1.095-3.727c0.423-0.25,0.787-0.602,1.104-1.012c0.417,0.794,1.044,1.487,1.817,1.772
			C376.266,26.303,375.906,28.331,374.518,28.05z M378.846,34.331c-0.92-0.158-1.203-0.873-1.174-1.676
			c0.479-0.084,0.898-0.279,1.253-0.563c0.374,0.787,1.005,1.387,1.935,1.63C380.313,34.2,379.581,34.456,378.846,34.331z
			 M380,35.689c1-0.288,1.658-0.774,2.148-1.375c0.648,0.695,1.72,1.014,2.702,1.052c0.032,0.061,0.149,0.117,0.193,0.172
			c0,0.003,0.041,0.006,0.041,0.009c-0.066-0.064,0.018,0.041,0.023,0.021c0.012,0.052,0.036,0.115,0.042,0.132
			c0.006,0.054-0.308,0.105-0.306,0.158C383.336,35.876,382,35.902,380,35.94V35.689z M383.692,33.346
			c0.893-0.461,1.674-1.19,2.259-2.015c0.58,0.721,1.589,1.01,2.634,1.023C387.438,33.425,384.836,34.495,383.692,33.346z
			 M389.906,33.29c0.629,0.833,1.273,1.528,2.471,1.661c-0.022,0.32-0.063,0.638-0.158,0.94c-1.815-0.044-3.631-0.058-5.449-0.048
			c-0.01-0.226-0.035-0.447-0.092-0.657C387.945,34.87,389.154,34.181,389.906,33.29z M390.884,31.942
			c0.852-0.326,1.639-0.834,2.244-1.497c0.028,0.081,0.05,0.163,0.085,0.241c0.383,0.861,1.31,1.3,2.172,1.517
			c-0.425,0.605-1,0.963-1.702,1.11c-0.306-0.219-0.779-0.199-1.055,0.057C391.752,33.271,391.356,32.61,390.884,31.942z
			 M393.973,34.884c0.798-0.159,1.527-0.512,2.117-1.056c0.516,0.685,1.371,1.025,2.295,1.052c0.033,0.053,0.07,0.104,0.117,0.155
			c-0.09-0.097,0.007,0.029,0.038,0.074c-0.005,0.007,0.074,0.196,0.088,0.227c0.072,0.247,0.142,0.494,0.239,0.734
			c0.022,0.055,0.053,0.101,0.076,0.153c-1.693-0.129-3.395-0.223-5.094-0.282C393.918,35.595,393.956,35.241,393.973,34.884z
			 M398.479,27.644c0.023,0.061,0.048,0.12,0.071,0.18c-2.032,0.279-1.894-2.243-1.887-3.677c0.249-0.112,0.491-0.257,0.714-0.451
			C397.7,25.017,398.002,26.358,398.479,27.644z M394.968,18.118c0.95,1.143,1.504,2.446,1.926,3.813
			c-0.093,0.044-0.182,0.115-0.265,0.219c-0.961,1.229-2.871,0.521-3.138-0.856C394.402,20.621,394.808,19.326,394.968,18.118z
			 M390.491,17.402c0.026-0.076,0.04-0.402,0.045-0.402h2.907c-0.045,2-0.231,2.656-1.193,2.959
			c-0.879,0.277-1.604-1.029-2.009-1.981C390.336,17.787,390.42,17.594,390.491,17.402z M391.721,21.732
			c-0.384,1.44-1.557,2.436-3.216,1.983c-1.143-0.311-1.377-1.713-1.567-2.894c0.864-0.11,1.643-0.566,2.264-1.194
			C389.785,20.659,390.609,21.574,391.721,21.732z M388.396,17c-0.047,0-0.048,0.486,0.016,0.668
			c0.021,0.059,0.043,0.213,0.064,0.273c-0.433,0.596-1.051,1.079-1.804,1.244c-0.144,0.031-0.275,0.063-0.395,0.055
			c-0.009,0-0.017-0.176-0.023-0.178C385.42,18.982,385.19,18,385.177,17H388.396z M383.93,19.46c0.281,0.494,1.07,0.894,1.07,1.137
			v0.002c0,1.097-0.688,2.458-1.838,2.452c-1.034-0.005-1.637-1.396-1.958-2.453C382.377,20.814,383.277,20.285,383.93,19.46z
			 M382.265,17h1.178c-0.386,2-1.015,2.131-2.27,1.717c-0.781-0.26-1.417-1.026-1.904-1.754C380.269,17.035,381.269,17,382.265,17z
			 M378.474,18.813c0.337,0.388,0.721,0.728,1.134,1.019c-0.036,0.121-0.046,0.257-0.014,0.407
			c-0.484,0.922-0.792,1.943-1.438,2.771c-1.15,1.469-2.509-0.342-2.59-1.605C377.189,21.418,377.978,20.179,378.474,18.813z
			 M377.336,17.097c0.001,0.003,0.004,0.007,0.005,0.01c-0.238,1.025-0.505,2.338-1.54,2.658c-1.69,0.525-2.633-1.539-3.105-2.854
			C374.238,16.869,375.787,16.973,377.336,17.097z M371.628,18.488c0.54,1.128,1.273,2.092,2.376,2.581
			c-0.01,0.027-0.018,0.057-0.023,0.089c-0.369,0.748-0.799,1.659-1.631,1.917c-1.043,0.321-2.06-0.437-1.89-1.48
			c0.024-0.158,0.005-0.299-0.042-0.426C370.805,20.268,371.201,19.37,371.628,18.488z M369.423,23.577
			c0.462,0.566,1.199,0.926,2.144,1.076c-0.687,1.77-1.77,3.073-3.785,3.145C368.324,26.389,368.863,24.978,369.423,23.577z
			 M372.08,27.063c0.241,1.051,0.713,1.985,1.61,2.389c-0.014,3.054-5.837,2.727-6.13-0.058
			C369.619,29.431,371.07,28.504,372.08,27.063z M366.482,31.096c0.594,0.937,1.623,1.557,2.772,1.857
			c-1.14,0.962-2.662,1.688-3.753,0.472C365.839,32.653,366.168,31.877,366.482,31.096z M366.862,35.657
			c-0.001,0.004-0.004,0.008-0.005,0.011c-0.105,0.205-0.123,0.434-0.064,0.638c-0.882,0.013-1.763,0.023-2.645,0.029
			c0.223-0.449,0.441-0.902,0.652-1.355C365.43,35.491,366.137,35.683,366.862,35.657z M359.615,33.475
			c0.526,1.271,1.582,2.188,3.129,2.092c-0.197,0.396-0.398,0.79-0.607,1.182c-0.169,0.317-0.109,0.616,0.061,0.841
			c-0.037,0.202-0.055,0.404-0.084,0.606c-0.113-0.02-0.246-0.011-0.385,0.042c-1.189,0.444-2.454,0.69-3.3-0.46
			c-0.565-0.771-0.854-1.738-1.103-2.679C358.29,34.944,359.063,34.302,359.615,33.475z M346.41,46.728
			c-0.014,0.01-0.029,0.02-0.043,0.03c-0.106,0.073-0.217,0.14-0.327,0.209c-0.218,0.134-0.438,0.265-0.651,0.41
			c-0.045,0.034-0.089,0.067-0.133,0.101c-0.065,0-0.127-0.002-0.189-0.002c-1.144-0.553-1.699-2.01-2.105-3.268
			c1.42,0.053,2.717-0.716,3.717-1.756c0.273,0.695,0.826,1.24,1.648,1.51c0.01,0.047,0.023,0.093,0.045,0.142
			C347.951,45.117,347.186,45.944,346.41,46.728z M342.238,42.482c-0.119-0.169-0.301-0.282-0.528-0.284
			c-0.657-0.513-0.96-1.452-1.077-2.35c0.206-0.024,0.416-0.065,0.631-0.128c1.316-0.384,2.164-1.782,2.991-2.99
			c0.293,1.436,0.939,2.813,2.209,3.365c-0.782,1.325-1.946,2.499-3.579,2.492C342.646,42.587,342.434,42.548,342.238,42.482z
			 M342.836,47.575c-0.589,0.04-1.182,0.086-1.771,0.138c0.368-0.511,0.698-1.041,0.937-1.595
			C342.234,46.637,342.508,47.132,342.836,47.575z M349.115,46.042c0.15,0.615,0.27,1.23,0.486,1.809
			c-0.15-0.029-0.301-0.059-0.447-0.085c-0.442-0.08-0.891-0.136-1.344-0.181C348.279,47.099,348.73,46.59,349.115,46.042z
			 M349.565,42.55c-1.313,0.078-1.855-0.917-1.355-2.067c0.028-0.068,0.047-0.136,0.059-0.202c1.289-0.268,2.011-1.446,2.519-2.756
			c0.265,0.98,0.726,1.864,1.495,2.373C351.951,41.257,351.08,42.459,349.565,42.55z M352.668,42.626
			c0.385,0.852,1.084,1.488,2.176,1.675c0.346,1.468-1.234,3.215-2.194,4.2c-0.286-0.056-0.569-0.113-0.853-0.174
			c-0.039-0.046-0.084-0.088-0.137-0.127c-0.721-0.539-0.842-1.552-1.006-2.373c-0.12-0.601-0.27-1.184-0.504-1.738
			C351.154,43.919,352.018,43.381,352.668,42.626z M353.896,40.337c1.303-0.089,2.085-1.495,2.515-2.987
			c0.264,0.62,0.589,1.21,1.026,1.741c0.23,0.28,0.496,0.498,0.779,0.666c-0.456,1.027-1.115,2.016-2.018,2.659
			C354.58,43.57,353.732,41.71,353.896,40.337z M355.756,47.122c0.266,0.603,0.633,1.151,1.102,1.608
			c-0.756,0.116-1.526,0.122-2.3,0.054C354.985,48.282,355.411,47.717,355.756,47.122z M356.858,43.945
			c0.566-0.316,1.075-0.789,1.519-1.347c0.041,0.358,0.102,0.715,0.203,1.066c0.41,1.42,1.57,2.1,2.93,2.253
			c-0.439,0.965-1.158,2.13-2.24,2.173c-0.154,0.006-0.28,0.05-0.389,0.114c-0.004-0.001-0.004-0.003-0.004-0.005
			C357.257,47.431,356.699,45.629,356.858,43.945z M359.843,40.2c0.706,0.023,1.44-0.117,2.117-0.349
			c-0.071,1.501,0.022,3.011,0.138,4.521c-0.049-0.011-0.102-0.02-0.157-0.021C359.65,44.28,359.895,41.985,359.843,40.2z
			 M359.023,30.556c-0.179,1.247-0.723,2.668-2.086,2.973c-1.455,0.326-1.478-1.965-1.407-2.799
			c0.014-0.133-0.006-0.247-0.044-0.345C356.668,30.42,357.846,30.485,359.023,30.556z M355.252,34.635
			c-0.033,0.719-0.187,1.426-0.385,2.117c-0.141,0.498-0.531,1.94-1.207,1.99c-1.324,0.1-1.555-2.325-1.594-3.564
			c1.021-0.241,1.69-0.996,2.176-1.909C354.46,33.821,354.79,34.298,355.252,34.635z M352.342,30.374
			c0.439-0.015,0.877-0.018,1.314-0.02c-0.342,1.078-0.629,2.459-1.621,3.115c-1.677,1.106-2.096-1.722-2.115-2.74
			c-0.002-0.173-0.053-0.314-0.127-0.43C350.738,30.348,351.628,30.396,352.342,30.374z M350.004,34.888
			c-0.418,1.404-0.777,3.412-2.163,3.824c-1.579,0.469-2.048-1.967-2.163-3.373c1.26-0.385,2.22-1.345,2.955-2.488
			C348.885,33.696,349.318,34.456,350.004,34.888z M342.601,31.668c0.054-0.115,0.081-0.229,0.085-0.337
			c0.018-0.014,0.037-0.02,0.055-0.033c1.256-0.993,3.389-1.117,5.472-1.063c-0.018,0.029-0.036,0.056-0.052,0.09
			c-0.538,1.217-1.178,2.454-2.301,3.226C344.579,34.431,341.694,33.578,342.601,31.668z M341.216,33.672
			c0.396,0.777,1.12,1.389,2.044,1.675c-0.446,0.588-0.861,1.202-1.318,1.779c-0.313,0.394-0.658,0.767-1.088,1.032
			c-0.124,0.079-0.258,0.129-0.394,0.153c-0.194-0.308-0.606-0.408-0.947-0.299c-0.035-0.036-0.069-0.071-0.099-0.112
			C339.961,36.469,340.553,35.054,341.216,33.672z M338.825,39.498c0.054,0.032,0.108,0.06,0.166,0.087
			c0.088,1.188,0.433,2.35,1.137,3.218c-0.821,0.361-1.682,0.657-2.499,0.368C338.002,41.938,338.395,40.712,338.825,39.498z
			 M337.185,44.683c1.289,0.379,2.386-0.01,3.576-0.475c0.105,1.26-0.753,2.315-1.558,3.316c-0.092,0.117-0.145,0.241-0.169,0.365
			c-0.933,0.079-1.86,0.148-2.769,0.181C336.553,46.938,336.863,45.81,337.185,44.683z M355.293,104.579
			c-0.156,3.737-0.031,7.5-0.031,11.239c-2.603,0.188-5.203,0.41-7.811,0.587c-1.218,0.083-2.482,0.156-3.757,0.2
			c0.063-7.504,0.91-14.984,0.726-22.489c3.266-0.88,6.775-0.399,10.107-0.002c0.007,0.069,0.021,0.142,0.052,0.22
			C355.836,97.572,355.427,101.184,355.293,104.579z M356.863,115.708c-0.001-3.941-0.102-7.897,0.057-11.835
			c0.133-3.317,0.432-6.805-0.792-9.965c-0.022-0.042-0.042-0.078-0.063-0.115c0.165-0.451-0.075-1.113-0.714-1.185
			c-3.674-0.417-7.538-1.019-11.175-0.086c-0.448-0.447-1.409-0.274-1.38,0.53c0.3,7.874-0.643,15.717-0.705,23.587
			c-2.477,0.021-4.973-0.118-7.305-0.628c0.021-22.114,1.035-44.213,1.063-66.326c4.807-0.103,9.793-1.012,14.535-0.06
			c1.773,0.356,3.514,0.711,5.325,0.78c2.251,0.087,4.418-0.915,6.653-1.057c-0.617,22.027,0.681,44.044,0.73,66.071
			C361.014,115.461,358.938,115.57,356.863,115.708z M362.796,33.964c-1.794,0.336-2.084-1.951-1.925-3.234
			c0.006-0.025,0-0.047,0.006-0.07c1.335,0.076,2.672,0.145,4.008,0.158c-0.455,1.109-0.934,2.209-1.438,3.295
			C363.278,33.982,363.057,33.915,362.796,33.964z M405.881,116.112c-13.73-0.019-27.453-0.654-41.186-0.705
			c-0.051-22.122-1.359-44.235-0.72-66.358c0.007-0.051,0.011-0.101,0.011-0.155c0-0.054-0.004-0.107-0.004-0.161
			c0.003-0.064,0.003-0.13,0.004-0.195c0.004-0.059-0.006-0.11-0.014-0.163c-0.124-3.466-0.832-7.001-0.215-10.434
			c5.244-0.019,10.488-0.224,15.729-0.364c0.234,0.099,0.515,0.093,0.739-0.02c3.99-0.103,7.983-0.157,11.969-0.062
			c0.27,0.185,0.641,0.231,0.927,0.028c3.29,0.099,6.577,0.302,9.861,0.686c0.025,0.426,0.316,0.674,0.645,0.747
			c1.5,5.382,0.812,11.19,0.779,16.703c-0.039,6.889,0.351,13.779,0.713,20.656c0.376,7.128,0.354,14.279,0.356,21.416
			C405.479,103.859,406.053,109.984,405.881,116.112z"/>
		<path fill="#231815" d="M398.504,46.899c-0.12-0.455-0.504-0.722-0.864-0.667c-0.121-0.074-0.263-0.232-0.442-0.232h-17.273
			c-3.33,0-7.375-1.25-10.354,0.783c-0.474-0.192-1.137,0.03-1.131,0.696c0.025,2.854,0.33,5.688,0.356,8.541
			c0,0.081,0.013,0.168,0.031,0.235c-0.048,0.508,0.35,1.074,0.983,0.881c9.233-2.807,18.915,2.465,28.133-0.709
			c0.2-0.067,0.338-0.188,0.428-0.332c0.424,0.034,0.873-0.228,0.873-0.794C399.244,52.632,399.226,49.639,398.504,46.899z
			 M370.379,55.33c-0.057-2.347-0.251-4.69-0.313-7.035c0.095-0.019,0.191,0.16,0.292,0.092C373.29,46.361,378.539,48,381.93,48
			h15.144c0.531,1,0.563,4.458,0.567,6.945c-0.04,0.008-0.08-0.028-0.123-0.014C388.668,57.977,379.336,53.153,370.379,55.33z"/>
		<path fill="#231815" d="M400,69.555c0-0.003,0-0.003,0-0.007c0-1.557,0.846-10.328-2.533-8.354
			c-0.13-0.167-0.25-0.282-0.527-0.281c-4.439,0.021-8.838,0.274-13.275,0.063c-4.363-0.209-8.52-0.729-12.877-0.034
			c-0.066,0.011-0.115,0.027-0.168,0.049c-0.539-0.204-1.291,0.213-1.089,0.938c0.938,3.34-0.756,6.956,0.796,10.163
			c0.264,0.545,0.846,0.489,1.195,0.165c0.129,0.141,0.318,0.233,0.566,0.231c4.549-0.03,9.076-0.427,13.607-0.79
			c4.723-0.378,9.305-0.24,14.016-0.634C400.554,70.991,401,69.892,400,69.555z M372.088,70.884
			c-0.195,0.001-0.354,0.062-0.477,0.156c-1.09-2.58,0.025-5.738-0.342-8.56c4.487-0.708,8.881-0.073,13.373,0.142
			c4.119,0.197,8.256-0.087,12.375-0.107c0.027,0,0.049-0.005,0.074-0.007c0.276,0.308,0.591,0.457,1.011,0.129
			c0.04-0.03-0.103-0.055-0.103-0.075c0,0.006,0,0.011,0,0.014c1,0.212,0.364,0.494,0.418,0.731c0.178,0.79,0.273,1.63,0.286,2.436
			c0.022,1.269-0.03,2.532-0.042,3.799c-4.008,0.261-8.011,0.176-12.021,0.478C381.785,70.383,376.964,70.852,372.088,70.884z"/>
		<path fill="#231815" d="M400.283,78.238c-0.017-0.062-0.036-0.116-0.062-0.168c0.186-0.472-0.049-1.13-0.71-1.132
			c-4.894-0.02-9.78-0.297-14.673-0.354c-4.462-0.05-9.272,1.505-13.604,0.025c-0.456-0.155-0.766,0.099-0.895,0.445
			c-0.211,0.127-0.34,0.354-0.34,0.683v9.081c0,0.41,0.211,0.662,0.504,0.756c1.373,2.9,7.332,2.239,9.715,2.09
			c2.109-0.133,4.202-0.412,6.293-0.715c4.454-0.646,8.865-0.793,13.359-0.794c0.568-0.001,0.822-0.488,0.762-0.925
			c0.021-0.071,0.035-0.147,0.035-0.233C400.693,84.077,401.01,81.105,400.283,78.238z M383.418,87.759
			c-2.079,0.251-10.848,1.747-11.402-1.33C371.98,86.233,372,86.091,372,85.998v-7.616c3,0.994,7.508,0.027,11.313-0.182
			c5.179-0.284,10.324,0.255,15.516,0.328c0.008,0.044-0.047,0.088-0.035,0.137c0.652,2.574,0.357,5.267,0.309,7.898
			C393.814,86.613,388.668,87.127,383.418,87.759z"/>
		<path fill="#231815" d="M399.965,103.07c0.08-2.824,0.635-5.735-0.394-8.45c-0.004-0.005-0.006-0.01-0.009-0.016
			c0.065-0.439-0.19-0.932-0.765-0.928c-4.996,0.022-9.975,0.356-14.957,0.712c-3.911,0.277-8.319,0.34-12.128-0.656
			c-0.443-0.741-1.77-0.316-1.463,0.602c0.869,2.628,0.449,5.324,0.346,8.026c-0.313,0.143-0.516,0.457-0.346,0.877
			c1.427,3.549,7.285,2.71,10.244,2.483c6.342-0.484,12.652-1.148,19.018-1.183C400.359,104.533,400.51,103.452,399.965,103.07z
			 M372.115,103.326c0.035-0.089,0.062-0.188,0.063-0.301c0.039-2.537,0.424-5.06,0.002-7.542c3.412,0.722,6.967,0.579,10.435,0.52
			c5.169-0.089,10.319-0.644,15.495-0.713c0.837,2.463,0.346,5.105,0.257,7.66c-5.048,0.069-10.116,0.41-15.133,0.911
			C381.118,104.072,373.996,105.451,372.115,103.326z"/>
		<path fill="#231815" d="M356.586,61.645c-0.011-1.4-0.068-2.804-0.076-4.204c-0.006-0.465-0.364-0.765-0.8-0.801
			c-3.798-0.322-7.599-0.024-11.399,0c-0.072,0-0.139,0.01-0.202,0.025c-0.504-0.063-1.091,0.341-0.927,0.988
			c0.707,2.799-0.642,5.856-0.74,8.69c-0.015,0.445,0.377,0.788,0.802,0.801c3.915,0.114,7.693,1.658,11.606,0.684
			c0.07-0.018,0.133-0.042,0.189-0.071c0.412,0.193,0.963,0.084,1.089-0.488c0.284-1.343,0.401-2.695,0.438-4.053
			C357.396,63.095,357.401,61.815,356.586,61.645z M354.918,58.189c0.023,1.117,0.064,2.237,0.075,3.356
			c-1.362-0.112-2.743-0.312-4.126-0.443c-0.02-0.864-0.05-1.729-0.057-2.594c-0.002-0.161-0.045-0.293-0.111-0.403
			C352.105,58.088,353.514,58.101,354.918,58.189z M349.297,58.13c-0.055,0.105-0.087,0.23-0.087,0.379
			c0.003,0.825,0.037,1.655,0.06,2.485c-1.536-0.058-3.057,0.057-4.527,0.563c0.176-1.113,0.285-2.225,0.165-3.323
			C346.371,58.213,347.836,58.163,349.297,58.13z M344.097,65.593c0.071-0.781,0.212-1.568,0.354-2.358
			c0.127,0.03,0.27,0.024,0.43-0.036c1.42-0.541,2.906-0.669,4.414-0.62c-0.008,1.256-0.085,2.505-0.377,3.733
			C347.311,66.068,345.703,65.725,344.097,65.593z M354.682,66.262c-0.08-0.005-0.165-0.001-0.256,0.021
			c-1.304,0.325-2.611,0.343-3.916,0.227c0.277-1.264,0.361-2.541,0.373-3.824c1.372,0.132,2.748,0.341,4.098,0.459
			C354.947,64.188,354.863,65.229,354.682,66.262z"/>
		<path fill="#231815" d="M356.008,74.12c-0.088-0.027-0.187-0.041-0.298-0.031c-1.909,0.162-3.64-0.359-5.509-0.582
			c-1.927-0.228-3.795,0.512-5.677,0.256c-0.128-0.019-0.246-0.009-0.353,0.021c-0.455-0.101-1.225,0.147-1.239,0.751
			c-0.07,2.989-0.933,5.9-0.933,8.901v1.069c0,0.436,0.586,0.805,1.021,0.801c4.156-0.024,8.425-0.319,12.576,0
			c0.438,0.034,0.854-0.39,0.854-0.801c0.035-3.209,0.35-6.406,0.385-9.616C356.843,74.346,356.43,74.091,356.008,74.12z
			 M355.21,75.708c-0.029,1.13-0.102,2.259-0.179,3.388c-1.455,0.063-2.945,0.233-4.438,0.329c0.078-1.419,0.166-2.839,0.199-4.26
			C352.265,75.385,353.69,75.748,355.21,75.708z M344.576,75.358c1.537,0.061,3.059-0.382,4.618-0.344
			c-0.026,1.493-0.124,2.982-0.205,4.474c-1.641,0.018-3.259-0.141-4.799-0.732C344.344,77.625,344.496,76.495,344.576,75.358z
			 M344,83.694v-0.258c0-1.027-0.023-2.046,0.094-3.061c1.588,0.57,3.189,0.728,4.869,0.706c-0.029,0.666-0.078,1.333-0.084,1.999
			c0,0.212,0.165,0.378,0.27,0.503C347.418,83.614,345,83.671,344,83.694z M350.287,83.566c0.102-0.122,0.164-0.283,0.164-0.485
			c0.01-0.688,0.031-1.376,0.063-2.063c1.478-0.092,2.96-0.252,4.414-0.316c-0.066,0.985-0.127,1.971-0.148,2.957
			C353.287,83.569,351.793,83.555,350.287,83.566z"/>
		<path fill="#231815" d="M347.961,105.873c0.004-0.076-0.01-0.008-0.031-0.078c0.07-0.467-0.235-0.795-0.77-0.795h-0.055
			c-0.03-1-0.054-0.225-0.092-0.264c-0.298-0.318-0.83-0.371-1.133-0.07c-0.315,0.317-0.295,0.779,0,1.098
			c0.031,0.031,0.047,0.028,0.057,0.038c0.003,0.01,0.01,0.018,0.035,0.058c-0.071-0.12,0.017,0.063,0.022,0.09
			c0.001,0.006,0.001,0.005,0.005,0.01c0,0.011,0,0.03,0,0.059c0.004,0.071,0.004,0.143,0.004,0.213c0,0.74,1.048,1.103,1.447,0.463
			C347.779,106.549,347.943,106.228,347.961,105.873z"/>
	</g>
	<g>
		<path fill="#231815" d="M95.323,90.624c-0.394-4.105-0.743-8.238-0.655-12.365c0.066-3.626,0.792-7.107,0.035-10.693
			c0.143-0.17,0.223-0.397,0.182-0.668c-0.624-4.032-2.222-7.725-3.739-11.484c-1.371-3.399-2.455-6.916-4.353-10.074
			c-0.262-0.432-0.723-0.459-1.066-0.271c-0.115-0.076-0.255-0.124-0.43-0.125c-7.147-0.055-14.572-1.396-21.58,0.563
			c-0.187,0.053-0.324,0.15-0.416,0.273c-0.291,0.027-0.566,0.196-0.673,0.554c-1.19,3.787-3.358,7.161-4.542,10.951
			c-0.957,3.044-2.771,5.669-3.168,8.868c-0.457,0.308-0.388,1.165,0.195,1.421c-0.061,7.783-1.021,15.527-1.065,23.311
			c-0.046,8.725,0,17.451,0,26.175c0,0.043,0.005,0.082,0.01,0.121c0,0.283,0.152,0.542,0.491,0.629
			c0.018,0.006,0.037,0.011,0.053,0.015c0.014,0.002,0.026,0.007,0.035,0.008c13.16,2.01,26.518-3.037,39.531,0.535
			c0.508,0.14,0.865-0.194,0.965-0.591c0.469,0.178,1.117-0.06,1.117-0.717C96.25,108.223,96.168,99.425,95.323,90.624z
			 M85.297,46.545c0.115,0.001,0.215-0.021,0.304-0.055c1.868,3.224,2.979,6.82,4.368,10.265c1.222,3.028,2.449,6.008,3.119,9.191
			c-2.145-0.622-4.345-0.958-6.571-1.125c-1.455-2.457-0.979-5.753-1.411-8.489c-0.52-3.297-1.445-6.602-2.27-9.854
			C83.66,46.512,84.482,46.538,85.297,46.545z M78.866,46.269c0.767,0.045,1.532,0.089,2.302,0.131
			c0.947,3.781,2.143,7.694,2.518,11.562c0.213,2.206,0.136,4.667,0.996,6.759c-2.367-0.088-4.748-0.021-7.102,0.062
			C77.734,58.591,78.727,52.458,78.866,46.269z M74.318,46.224c0.022-0.058,0.035-0.112,0.045-0.165
			c0.967,0.024,1.934,0.068,2.902,0.12c-0.133,6.239-1.138,12.42-1.287,18.66c-0.289,0.01-0.576,0.021-0.863,0.03
			c-1.655,0.057-3.314,0.197-4.975,0.366C71.394,58.858,72.023,52.346,74.318,46.224z M70.105,46.31
			c0.076-0.066,0.128-0.138,0.169-0.211c0.802-0.045,1.606-0.057,2.411-0.059c-2.278,6.208-2.885,12.809-4.186,19.256
			c-0.008,0.04-0.009,0.075-0.011,0.114c-2.029,0.222-4.066,0.46-6.101,0.609c1.541-2.712,2.239-5.85,3.169-8.81
			C66.642,53.77,67.336,48.79,70.105,46.31z M59.629,57.709c1.457-3.519,3.26-7.012,4.438-10.646
			c0.026-0.005,0.049-0.006,0.078-0.014c1.254-0.351,2.523-0.59,3.807-0.749c-1.695,2.242-2.287,5.298-3.066,7.921
			c-1.154,3.892-2.135,8.492-4.445,11.911c-1.307,0.055-2.613,0.062-3.918-0.009C56.902,63.173,58.509,60.418,59.629,57.709z
			 M69.076,116.457c-0.008-0.106-0.032-0.22-0.08-0.35c-0.066-4.104,0.641-8.148,1.01-12.229c0.414-4.61-0.256-9.204,0.692-13.771
			c3.47,0.224,7.235,0.239,10.349,0.241c0.146,4.435,1.1,8.778,1.514,13.191c0.373,4.006,0.25,8.066,1.385,11.961
			C79.002,115.479,74.039,116.072,69.076,116.457z M94.593,116.819c-2.996-0.822-6.005-1.185-9.022-1.287
			c0.006-0.09-0.004-0.186-0.035-0.29c-1.137-3.776-1.102-7.796-1.371-11.702c-0.319-4.603-1.454-9.098-1.536-13.726
			c0-0.309-0.154-0.522-0.358-0.647c-0.119-0.239-0.352-0.421-0.71-0.421c-3.741-0.001-7.528,0.002-11.35-0.267
			c-0.487-0.035-0.675,0.304-0.702,0.678c-0.128,0.094-0.195,0.236-0.239,0.443c-0.87,4.102-0.649,8.223-0.769,12.386
			c-0.137,4.73-1.188,9.366-1.12,14.105c-0.013,0.071-0.003,0.148,0.009,0.23c0.003,0.085-0.188,0.17-0.186,0.254
			C63.195,116.841,59,116.905,55,116.329V91.928c0-8.082,1.311-16.12,1.385-24.197c1.229,0.062,2.555,0.05,3.783-0.005
			c0.293,0.171,0.744,0.191,1.045-0.054c4.345-0.275,8.707-1.041,13.047-1.173c0.668-0.021,1.351-0.045,2.023-0.07
			c0.283,0.171,0.686,0.159,0.955-0.036c5.311-0.2,10.754-0.354,15.837,1.218c0.911,3.814,0.044,7.665-0.031,11.52
			c-0.084,4.16,0.374,8.355,0.771,12.491c0.803,8.388,0.832,16.8,0.832,25.22C94.628,116.834,94.611,116.825,94.593,116.819z"/>
		<path fill="#231815" d="M74.168,104.281c0.003-0.015-0.168-0.029-0.168-0.044c0-0.008,0-0.015,0-0.022
			c0-0.02,0.168-0.039,0.168-0.058c-0.025-0.562-0.434-0.967-0.977-0.988c-0.423-0.017-0.731,0.354-0.752,0.764
			c-0.209,0.179-0.346,0.4-0.43,0.689c-0.199,0.701,0.331,1.273,0.854,1.643c0.521,0.369,1.189-0.132,1.213-0.692
			c0.01-0.169,0.074-0.351,0.135-0.54c0.07-0.215,0.02-0.438,0.035-0.662C74.252,104.341,74.168,104.311,74.168,104.281z"/>
		<path fill="#231815" d="M69.039,73.466c-0.464-0.92-1.579-1.059-2.482-1.07c-2.096-0.028-4.239,0.027-6.311,0.354
			c-0.451,0.07-0.617,0.414-0.574,0.759c-0.193,0.177-0.311,0.438-0.254,0.761c0.71,3.918-0.227,7.874-0.29,11.807
			c-0.013,0.427,0.366,0.813,0.797,0.801c2.839-0.086,5.839-1.025,8.602-0.028c0.602,0.217,0.986-0.288,0.97-0.789
			c0.025-0.076,0.043-0.158,0.044-0.251C69.58,82.058,70.796,76.939,69.039,73.466z M65.281,74.043
			c0.381-0.018,0.828-0.032,1.209-0.045c1.27-0.046,1.505,1.505,1.59,2.495c0.053,0.614,0.092,1.23,0.102,1.847
			c-1.023,0.033-2.172,0.147-3.195,0.216C65.018,77.05,65,75.541,65,74.056c0-0.004,0-0.007,0-0.011
			C65,74.045,65.23,74.044,65.281,74.043z M63.664,74.075c-0.014,1.525-0.102,3.069-0.133,4.611
			c-0.781,0.037-1.606-0.008-1.971-0.39c-0.101-0.107-0.215-0.172-0.327-0.209c0.032-1.277-0.008-2.555-0.206-3.837
			C61.907,74.136,62.783,74.097,63.664,74.075z M60.752,85.229c0.076-1.777,0.274-3.546,0.395-5.314
			c0.719,0.308,1.61,0.318,2.381,0.308c0.025,1.575,0.158,3.139,0.539,4.671C62.961,84.991,61.85,85.146,60.752,85.229z
			 M65.706,84.812c-0.419-1.52-0.561-3.078-0.587-4.65c1.022-0.071,2.041-0.183,3.066-0.217c-0.049,1.692-0.18,3.388-0.23,5.072
			C67.213,84.856,66.461,84.808,65.706,84.812z"/>
		<path fill="#231815" d="M89.867,73.835c-1.263-2.752-5.553-0.831-7.828-1.62c-0.521-0.181-0.879,0.173-0.953,0.594
			c-0.296,0.097-0.548,0.335-0.595,0.713c-0.495,4.017-0.495,8.003,0,12.019c0.053,0.43,0.323,0.809,0.802,0.802
			c2.069-0.026,4.158-0.23,6.197,0.238c0.24,0.056,0.443,0.008,0.607-0.098c0.53,0.3,1.146-0.037,1.207-0.675
			C89.643,82.38,91.389,77.14,89.867,73.835z M88.646,76.51c0.036,0.693,0.026,1.388-0.017,2.081
			c-1.015-0.02-2.032-0.104-3.043-0.137c0.042-1.526,0.242-3.024,0.791-4.422C87.635,74.077,88.535,74.499,88.646,76.51z
			 M82.053,73.892c0.867,0.227,1.705,0.23,2.632,0.189c-0.443,1.422-0.611,2.895-0.653,4.385c-0.771,0.043-1.539,0.155-2.297,0.394
			C81.758,77.205,81.861,75.551,82.053,73.892z M82.006,84.726c-0.152-1.418-0.24-2.834-0.268-4.248
			c0.098,0.005,0.191-0.005,0.301-0.041c0.655-0.217,1.32-0.32,1.99-0.369c0.033,1.545,0.148,3.097,0.188,4.62
			C83.481,84.688,82.744,84.708,82.006,84.726z M87.828,84.735c-0.193,0.008-0.342,0.082-0.443,0.195
			c-0.52-0.094-1.041-0.152-1.563-0.188c-0.046-1.521-0.192-3.114-0.235-4.699c0.962,0.031,1.931,0.117,2.891,0.146
			C88.295,81.709,88.023,83.226,87.828,84.735z"/>
	</g>
	<g>
		<path fill="#231815" d="M199.035,116.913c-3.93-13.473-3.646-27.605-5.283-41.434c-0.845-7.11-2.01-14.182-2.84-21.3
			c-0.63-5.41-0.934-10.8-3.315-15.736c0.031-0.073,0.046-0.154,0.05-0.235c2.34,2.899,4.574,5.854,5.66,9.508
			c0.291,0.988,1.839,0.567,1.543-0.426c-1.466-4.95-4.902-8.759-8.066-12.708c-1.773-2.217-3.143-4.535-4.466-7.033
			c-1.331-2.514-3.107-4.771-4.641-7.16c-0.128-0.197-0.296-0.305-0.476-0.348c-0.073-0.322-0.32-0.594-0.751-0.584
			c-4.094,0.096-8.309,1.523-12.34,0.296c-0.328-0.1-0.593,0.005-0.765,0.198c-0.189-0.01-0.386,0.067-0.549,0.275
			c-3.2,4.037-5.646,8.527-8.205,12.98c-0.158,0.274-0.318,0.546-0.479,0.818c-0.233,0.124-0.397,0.351-0.379,0.649
			c-0.975,1.64-1.99,3.249-3.085,4.819c-1.423,2.035-2.538,4.272-4.004,6.269c-0.614,0.834,0.778,1.632,1.384,0.809
			c1.093-1.487,2.116-3.024,3.099-4.592c-0.318,12.184-2.442,24.225-2.997,36.399c-0.295,6.512-0.545,13.008-1.122,19.502
			c-0.532,6.027-0.649,12.173-2.581,17.964c-0.215,0.639,0.365,1.035,0.887,0.971c0.009,0.004,0.021,0.01,0.029,0.015
			c2.857,1.152,6.402,0.289,9.367,0.072c4.457-0.326,9.064,0.181,13.516,0.471c9.902,0.645,19.751,1.293,29.681,0.909
			c0.35-0.013,0.577-0.207,0.69-0.455C198.926,117.688,199.168,117.358,199.035,116.913z M186.906,37.289
			c-0.053-0.005-0.109-0.012-0.166-0.005c-0.201-0.05-0.422-0.007-0.604,0.104c-1.275,0.241-2.558,0.405-3.844,0.518
			c0.857-1.163,1.445-2.778,1.917-4.09c0.112,0.165,0.229,0.33,0.351,0.494C185.314,35.321,186.11,36.306,186.906,37.289z
			 M168.92,35.786c0.391,0.854,0.919,1.627,1.564,2.204c-1.077-0.037-2.156-0.085-3.224-0.169
			C167.96,37.32,168.509,36.596,168.92,35.786z M165.318,36.89c-2.789,0.767-3.758-2.452-3.818-4.49
			c0.934-0.414,1.854-1.044,2.598-1.837c0.602,1.576,2.088,2.769,4.018,2.488c0.013-0.002,0.017-0.004,0.021-0.005
			C167.955,34.747,167.079,36.405,165.318,36.89z M169.793,32.423c1.388-0.91,2.135-2.603,2.799-4.24
			c0.338,1.604,0.957,3.135,2.564,3.742c0.237,0.09,0.479,0.131,0.721,0.144c-0.445,1.758-1.041,4.067-2.567,5.12
			C171.38,38.517,170.008,34.37,169.793,32.423z M176.479,35.452c0.184,0.979,0.481,1.93,0.961,2.654
			c-0.701,0.003-1.401,0-2.104-0.013c-0.156-0.002-0.318-0.005-0.473-0.007C175.545,37.419,176.07,36.451,176.479,35.452z
			 M183.122,32.151c-0.73,1.791-1.286,4.366-2.96,5.507c-1.982,1.351-2.369-4.939-2.377-5.915c0-0.081-0.012-0.152-0.033-0.221
			c1.297-0.765,2.451-2.18,3.098-3.33C181.628,29.52,182.336,30.853,183.122,32.151z M177.908,23.63
			c0.668,0.987,1.326,1.98,1.969,2.988c-0.041,0.051-0.08,0.109-0.111,0.181c-0.605,1.364-2.436,3.939-4.18,3.581
			c-1.236-0.254-1.548-2.536-1.72-4.047C175.602,26.234,177.006,25.072,177.908,23.63z M176.227,21.069
			c0.02,0.042,0.039,0.085,0.066,0.128c0.202,0.314,0.41,0.626,0.618,0.937c-1.434,3.197-5.611,3.517-6.632-0.219
			c-0.027-0.092-0.063-0.166-0.107-0.235C172.188,21.48,174.212,21.137,176.227,21.069z M171.787,25.981
			c-0.668,1.535-1.141,3.2-2.207,4.508c-0.162,0.202-0.346,0.356-0.527,0.489c-0.268,0.001-0.546,0.12-0.717,0.35
			c-1.602,0.446-3.35-1.015-2.918-2.801c0.055-0.144,0.104-0.29,0.148-0.438c0.031-0.072,0.053-0.143,0.091-0.214
			c0.112-0.21,0.124-0.412,0.071-0.591c0.01-0.089,0.023-0.178,0.028-0.268c1.564-0.521,2.729-1.835,3.524-3.302
			C169.846,24.761,170.695,25.55,171.787,25.981z M163.926,21.362c1.484,0.416,2.977,0.504,4.477,0.445
			c-0.491,1.302-1.287,2.545-2.429,3.359c-1.399,0.999-3.717,0.229-3.677-1.63C162.823,22.802,163.363,22.073,163.926,21.362z
			 M161.105,25.244c0.598,1.084,1.762,1.839,3.022,1.967c-0.022,0.146-0.062,0.286-0.102,0.428c-0.019,0.052-0.03,0.106-0.048,0.159
			c-0.417,1.215-1.5,2.199-2.564,2.855c-0.649,0.4-1.391,0.684-2.158,0.646c-0.813-0.038-0.739-1.144-0.703-1.692
			c0.01-0.104-0.004-0.195-0.027-0.278C159.356,27.945,160.21,26.579,161.105,25.244z M161.451,37.018
			c-0.546-0.09-1.109-0.176-1.684-0.243c0.271-0.45,0.477-0.946,0.662-1.457C160.677,35.958,161.013,36.534,161.451,37.018z
			 M157.261,31.468c0.437,0.895,1.291,1.375,2.345,1.381c-0.371,1.033-0.645,2.102-1.177,3.064
			c-0.146,0.266-0.358,0.527-0.603,0.717c-0.459-0.012-0.906-0.004-1.346,0.03c-0.563-0.454-0.848-1.265-1.078-1.952
			C156.018,33.625,156.637,32.543,157.261,31.468z M154.428,36.411c0.099,0.187,0.205,0.369,0.319,0.546
			c-0.27,0.076-0.534,0.162-0.786,0.27C154.118,36.955,154.272,36.683,154.428,36.411z M170.199,115.901
			c-1.176-0.078-2.35-0.156-3.524-0.229c0.427-1.437,0.358-2.908,0.343-4.414c-0.018-2.033,0.336-3.974,0.53-5.997
			c0.445-4.681,1.046-9.683,1.143-13.955c0.005-0.534,0.009,0,0.009,0c3.485-0.522,6.945-0.616,10.432-0.414
			c0.055,8.526,0.486,17.045,0.52,25.571C176.502,116.309,173.354,116.112,170.199,115.901z M181.256,116.538
			c-0.035-8.947-0.512-17.887-0.531-26.835c-0.002-0.839-1.057-0.996-1.455-0.473c-3.535-0.211-7.039-0.014-10.566,0.239
			c-0.27,0.02-0.465,0.128-0.593,0.301c-0.453-0.101-1.001,0.141-1.009,0.743c-0.053,4.265-0.566,8.519-0.979,12.761
			c-0.21,2.155-0.409,4.309-0.622,6.463c-0.193,1.951,0.186,3.965-0.479,5.842c-3.043-0.174-6.088-0.31-9.138-0.322
			c-3.065-0.014-6.649,1.146-9.653,0.189c1.557-5.119,1.836-10.535,2.241-15.842c0.489-6.406,0.908-12.792,1.175-19.215
			c0.563-13.548,3.01-26.951,3.115-40.519c0.224-0.018,0.444-0.116,0.605-0.333c0.601-0.782,1.609-1.116,2.723-1.226
			c0.588,0.323,1.273,0.395,2.068-0.001c0,0,0.005-0.003,0.01-0.004c0.834,0.059,1.627,0.167,2.25,0.232
			c2.193,0.231,4.32,0.658,6.525,0.777c6.369,0.343,12.839,0.831,19.15-0.294c2.773,5.592,2.866,12.12,3.574,18.228
			c0.818,7.057,2.058,14.062,2.804,21.121c1.356,12.82,1.325,25.833,4.843,38.324C191.947,116.882,186.602,116.777,181.256,116.538z
			"/>
		<path fill="#231815" d="M163.146,50.708c-1.949,0.244-3.943,0.026-5.9,0c-0.592-0.01-0.857,0.512-0.772,0.963
			c-0.04,0.104-0.067,0.226-0.05,0.372c0.488,3.824-0.218,7.655-0.27,11.485c-0.008,0.571,0.514,0.843,1.014,0.772
			c1.133-0.159,2.275-0.225,3.408-0.354c0.309,0.149,0.707,0.107,0.958-0.126c0.51-0.081,1.01-0.182,1.51-0.32l0.054-0.002
			c0.416,0.022,0.902-0.232,0.902-0.771V51.509C164,51.113,163.586,50.653,163.146,50.708z M163,52.385v5
			c-1,0.004-0.805,0.017-1.031,0.027c-0.051-1.666,0.075-3.332,0.059-4.998C162.293,52.407,162,52.402,163,52.385z M159.897,52.402
			c0.015,1.702,0.067,3.405,0.12,5.106c-0.641,0.05-1.279,0.094-1.92,0.119c0.105-1.766,0.148-3.532-0.049-5.297
			C158.664,52.353,159.279,52.381,159.897,52.402z M157.782,62.633c0.041-1.133,0.126-2.266,0.208-3.397
			c0.691-0.025,1.387-0.074,2.075-0.127c0.032,1.098,0.063,2.194,0.078,3.292C159.358,62.491,158.566,62.552,157.782,62.633z
			 M163,62.034c-1,0.046-0.722,0.075-0.906,0.113c-0.016-1.046,0.133-2.09,0.101-3.135c0.208-0.01-0.194-0.022,0.806-0.025V62.034z"
			/>
		<path fill="#231815" d="M173.244,51.509c-0.019-0.468-0.351-0.76-0.801-0.801c-1.465-0.138-2.815,0.184-4.272,0.267
			c-0.402,0.023-0.645,0.283-0.733,0.587c-0.322,0.074-0.599,0.321-0.602,0.748c-0.021,1.973-0.126,3.94-0.208,5.911
			c-0.07,1.632-0.319,3.483,0.087,5.085c0.469,1.842,2.936,1.485,4.427,1.113c0.46,0.324,1.288,0.118,1.302-0.624
			C172.518,59.679,173.418,55.637,173.244,51.509z M170.752,52.324c0.299-0.024,0.598-0.041,0.898-0.044
			c0.018,1.45-0.084,2.89-0.217,4.328c-0.279,0.017-0.563,0.037-0.842,0.065c-0.036-1.29,0.027-2.586,0.222-3.884
			C170.839,52.615,170.811,52.46,170.752,52.324z M169.252,52.479c-0.207,1.455-0.276,2.9-0.235,4.34
			c-0.193,0.013-0.385,0.028-0.579,0.031c-0.058,0.001-0.111,0.009-0.163,0.02c0.064-1.438,0.138-2.873,0.157-4.313
			C168.71,52.536,168.981,52.509,169.252,52.479z M168.898,63.104c-1.098,0.042-0.727-2.629-0.721-3.128
			c0.004-0.517,0.021-1.034,0.035-1.552c0.07,0.018,0.144,0.029,0.225,0.028c0.227-0.003,0.447-0.02,0.674-0.036
			c0.123,1.422,0.356,2.84,0.689,4.256c0.035,0.137,0.092,0.244,0.164,0.33C169.614,63.056,169.262,63.091,168.898,63.104z
			 M171.03,60.721c-0.15-0.815-0.261-1.635-0.338-2.454c0.192-0.02,0.388-0.033,0.585-0.047
			C171.19,59.053,171.104,59.886,171.03,60.721z"/>
		<path fill="#231815" d="M183.395,51.509c-0.055-0.421-0.324-0.816-0.801-0.801c-1.877,0.059-3.732,0.463-5.608,0.267
			c-0.711-0.074-0.924,0.667-0.654,1.168c-0.048,0.064-0.089,0.136-0.118,0.223c-1.155,3.303-0.346,6.953-0.295,10.362
			c0.005,0.43,0.359,0.809,0.799,0.801c1.785-0.033,3.558-0.233,5.342-0.268c0.109-0.002,0.207-0.025,0.293-0.06
			c0.461,0.122,1.037-0.123,1.043-0.741C183.433,58.804,183.877,55.152,183.395,51.509z M177.757,52.79
			c0.021-0.058,0.03-0.112,0.04-0.166c0.336,0.009,0.672,0,1.004-0.016c-0.39,1.179-0.6,2.433-0.633,3.703
			c-0.306,0.003-0.61,0.005-0.916,0.005c-0.021,0-0.041,0.005-0.062,0.006C177.216,55.115,177.359,53.927,177.757,52.79z
			 M177.217,57.916c0.014,0,0.021,0.003,0.035,0.003c0.322,0,0.643-0.004,0.964-0.009c0.11,1.339,0.401,2.663,0.851,3.899
			c-0.522,0.032-1.049,0.064-1.575,0.086C177.43,60.592,177.283,59.25,177.217,57.916z M181.811,61.667
			c-0.355,0.01-0.713,0.024-1.066,0.043c-0.506-1.199-0.816-2.518-0.926-3.861c0.713-0.043,1.428-0.109,2.143-0.22
			C181.914,58.975,181.843,60.321,181.811,61.667z M182,56.118c-0.123-0.045-0.266-0.064-0.42-0.04
			c-0.602,0.094-1.203,0.146-1.806,0.18c0.048-1.198,0.264-2.379,0.654-3.468c0.04-0.114,0.054-0.221,0.048-0.317
			c0.467-0.046,0.935-0.093,1.4-0.125C181.996,53.604,182.018,54.86,182,56.118z"/>
		<path fill="#231815" d="M164.793,71.372c-0.471-3.197-5.395-1.771-7.431-1.701c-0.526,0.019-0.362,0.445-0.362,0.854v0.002
			c-2,3.469,0.045,7.358-1.213,10.684c-0.242,0.646,0.158,1.042,0.697,0.954c0.115,0.218,0.232,0.366,0.571,0.328
			c0.581-0.067,1.122-0.067,1.699-0.044c0.284,0.352,0.856,0.375,1.185,0.072c1.127,0.081,2.244,0.158,3.396-0.058
			c0.35-0.065,0.563-0.438,0.571-0.772C164.018,78.246,165.305,74.841,164.793,71.372z M161,70.984c2-0.051,2.336,0.208,2.326,2.066
			c-0.002,0.568-0.113,1.134-0.158,1.697c-0.906,0.002-1.838,0.022-2.73,0.081c0.074-1.137,0.301-2.272,0.445-3.403
			c0.068-0.113,0.117-0.251,0.117-0.419V70.984z M157.675,71.232c0.537-0.038,1.075-0.089,1.608-0.136
			c-0.164,1.289-0.289,2.583-0.398,3.879c-0.467,0.061-0.934,0.137-1.396,0.232C157.45,73.866,157.434,72.526,157.675,71.232z
			 M158.579,80.862c-0.471-0.021-0.942-0.027-1.411,0.014c0.35-1.306,0.39-2.668,0.366-4.043c0.409-0.093,0.819-0.168,1.228-0.229
			C158.668,78.022,158.605,79.442,158.579,80.862z M160.178,80.977c0.023-1.514,0.057-3.028,0.123-4.54
			c0.867-0.064,1.737-0.081,2.613-0.086c-0.201,1.546-0.463,3.084-0.575,4.638C161.614,81.063,160.895,81.03,160.178,80.977z"/>
		<path fill="#231815" d="M175.115,69.938c-0.024-0.57-0.487-0.845-1.014-0.772c-1.617,0.222-3.234,0.235-4.863,0.238
			c-0.336,0-0.561,0.171-0.677,0.398c-0.412-0.222-1.009-0.127-1.164,0.458c-0.876,3.274-1.11,7.156-0.38,10.479
			c0.615,2.78,3.85,1.595,5.748,2.257c0.371,0.131,0.928-0.146,0.986-0.56C174.339,78.278,175.299,74.163,175.115,69.938z
			 M172.21,71.039c0.042-0.039,0.077-0.079,0.108-0.12c0.402-0.025,0.804-0.056,1.203-0.096c0.01,1.34-0.088,2.67-0.238,3.994
			c-0.633,0.043-1.262,0.054-1.892,0.061C171.318,73.426,171.362,71.799,172.21,71.039z M168.885,70.93
			c0.101,0.048,0.217,0.077,0.354,0.077c0.366,0,0.727-0.004,1.093-0.01c-0.406,0.966-0.431,2.135-0.46,3.138
			c-0.008,0.255-0.006,0.513-0.004,0.772c-0.479,0.018-0.953,0.047-1.43,0.106c-0.053,0.006-0.102,0.019-0.147,0.033
			C168.361,73.652,168.549,72.268,168.885,70.93z M169.594,80.993c-0.647-0.216-1.113-0.693-1.213-1.811
			c-0.076-0.846-0.115-1.703-0.12-2.563c0.054,0.004,0.116,0.004,0.177-0.004c0.492-0.061,0.988-0.091,1.482-0.108
			C169.982,78.029,170.021,79.571,169.594,80.993z M172.318,81.26c-0.368-0.046-0.743-0.06-1.108-0.07
			c0.376-1.418,0.315-2.938,0.292-4.39c-0.002-0.101-0.006-0.208-0.011-0.32c0.526-0.007,1.054-0.019,1.579-0.049
			C172.841,78.042,172.563,79.648,172.318,81.26z"/>
		<path fill="#231815" d="M186.328,70.645c-0.398-0.847-0.917-1.203-1.837-1.309c-1.719-0.196-3.63,0.068-5.372,0.068
			c-0.288,0-0.491,0.129-0.623,0.312c-0.448-0.088-0.979,0.163-0.979,0.757c0,2.318,0.117,4.664-0.1,6.975
			c-0.107,1.152-0.541,3.289,0.334,4.276c1.898,2.124,5.92,0.588,8.313,0.501c0.441-0.016,0.797-0.353,0.802-0.801
			C186.906,78.082,187.809,73.796,186.328,70.645z M185.178,72.399c0.221,0.939,0.309,1.912,0.329,2.896
			c-0.763,0.018-1.521,0.051-2.282,0.092c0.159-1.467,0.222-2.933-0.036-4.395C184.588,70.963,184.818,70.869,185.178,72.399z
			 M181.564,71.009c0.32,1.468,0.263,2.963,0.09,4.46c-0.756,0.04-1.51,0.072-2.266,0.079c-0.088,0-0.166,0.016-0.238,0.038
			c0.061-1.519-0.005-3.062-0.021-4.579C179.94,71.007,180.752,71.009,181.564,71.009z M178.963,80.57
			c-0.344-0.989-0.078-2.358,0.072-3.494c0.102,0.048,0.217,0.075,0.354,0.073c0.682-0.005,1.366-0.033,2.049-0.066
			c-0.203,1.365-0.416,2.728-0.446,4.073c-0.001,0.039,0.005,0.075,0.009,0.113C179.974,81.285,179.154,81.122,178.963,80.57z
			 M182.594,81.143c0.034-1.379,0.237-2.761,0.428-4.142c0.821-0.045,1.646-0.082,2.468-0.102c-0.05,1.283-0.158,2.569-0.202,3.817
			C184.574,80.829,183.586,81.017,182.594,81.143z"/>
		<path fill="#231815" d="M163.538,91.083c-0.339-2.464-4.658-1.188-6.052-1.112c-0.505,0.027-0.761,0.429-0.771,0.823
			c-0.177,0.045-0.339,0.161-0.454,0.375c-1.783,3.334-1.244,7.473-0.912,11.088c0.031,0.338,0.217,0.7,0.588,0.772
			c2.304,0.456,4.569,0.081,6.891,0.029c0.53-0.012,0.787-0.441,0.773-0.853c0.017-0.066,0.027-0.138,0.027-0.216
			C163.629,98.423,164.021,94.62,163.538,91.083z M160.99,91.259c1.289-0.105,1.048,0.867,1.04,1.814
			c-0.007,0.925-0.005,1.851-0.007,2.774c-0.855,0.003-1.709,0.021-2.556,0.074c0.15-1.583,0.392-3.157,0.421-4.558
			C160.256,91.327,160.628,91.289,160.99,91.259z M157.645,91.978c0.078-0.146,0.105-0.289,0.098-0.423
			c0.178-0.012,0.359-0.032,0.537-0.046c-0.038,1.457-0.245,3.006-0.371,4.556c-0.437,0.055-0.873,0.122-1.307,0.206
			C156.672,94.751,156.951,93.276,157.645,91.978z M156.885,101.564c-0.115-1.173-0.248-2.415-0.291-3.657
			c0.408-0.09,0.816-0.164,1.225-0.223c-0.035,1.369,0.061,2.717,0.461,3.98C157.814,101.656,157.35,101.628,156.885,101.564z
			 M159.951,101.622c-0.524-1.235-0.641-2.645-0.59-4.094c0.881-0.061,1.767-0.075,2.656-0.078c0.004,1.346,0.008,2.692,0.009,4.038
			C161.336,101.524,160.643,101.582,159.951,101.622z"/>
		<path fill="#231815" d="M176.45,94.244c-0.005-0.437-0.359-0.802-0.801-0.802c-1.507,0.002-2.999,0.04-4.486,0.296
			c-0.229,0.039-0.381,0.15-0.473,0.292c-0.438,0.064-0.813,0.428-0.622,0.961c0.825,2.276,0.018,4.915-0.024,7.266
			c-0.013,0.425,0.367,0.818,0.797,0.802c1.536-0.059,3.013-0.466,4.54-0.534c0.384-0.018,0.645-0.238,0.773-0.589
			C177.051,99.51,176.484,96.761,176.45,94.244z M174.781,100.966c-1.038,0.099-2.059,0.312-3.096,0.424
			c0.15-2.03,0.598-4.158,0.129-6.136c1.017-0.156,2.035-0.195,3.063-0.204C174.98,97.004,175.29,99.085,174.781,100.966z"/>
		<path fill="#231815" d="M176.717,106.798c-0.004-0.385-0.248-0.643-0.588-0.773c-1.856-0.712-3.396-0.272-5.234,0.268
			c-0.131,0.039-0.236,0.102-0.324,0.179c-0.369,0.021-0.743-0.113-0.798,0.357c-0.245,2.131-0.266,4.172-0.266,6.172
			c0,1,1.603,1,1.603,0c0-2,0.019-3.662,0.205-5.531c0.004-0.002,0.004,0.183,0.004,0.183c1.366-0.399,2.486-0.678,3.811-0.354
			c0.042,1.39,0.148,2.836-0.143,4.205c-0.352,1.651-1.65,1.254-2.858,0.91c-1-0.281-1.425,1.275-0.431,1.557
			c1.436,0.408,3.139,0.833,4.161-0.593C177.194,111.521,176.742,108.938,176.717,106.798z"/>
		<path fill="#231815" d="M178.588,103.593c0-0.405-0.365-0.843-0.803-0.802c-0.764,0.074-1.068,0.62-1.068,1.336
			c-0.002,1.015,1.539,1.03,1.598,0.053C178.48,104.042,178.588,103.845,178.588,103.593z"/>
	</g>
	<g>
		<path fill="#231815" d="M488.505,115.349c0.056-1.142,0.224-2.281,0.28-3.423c0.017-0.388,0.058-0.957-0.027-1.47
			c0.051-0.104,0.081-0.227,0.081-0.37c-0.003-14.423-0.316-28.79-0.354-43.188c-0.038-14.373-1.366-28.651-2.14-42.993
			c-0.022-0.428-0.314-0.675-0.643-0.748c-2.698-5.271-4.159-11.069-6.945-16.306c-0.214-0.405-0.606-0.47-0.932-0.339
			c-0.087-0.034-0.184-0.058-0.295-0.058c-3.872-0.048-7.882-0.694-11.592,0.689c-0.348-0.226-0.849-0.221-1.118,0.241
			c-0.449,0.768-0.869,1.55-1.27,2.339c-0.278,0.149-0.433,0.488-0.406,0.815c-1.002,2.036-1.924,4.106-2.978,6.122
			c-1.354,2.576-3.04,4.861-3.707,7.742c-0.066,0.277,0.009,0.508,0.15,0.679c0.021,15.329,0.507,30.651,0.274,45.981
			c-0.234,15.503-0.974,30.994-0.988,46.502c-0.001,0.353,0.188,0.582,0.434,0.694c0.158,0.093,0.354,0.132,0.581,0.078
			c5.074-1.209,10.166,0.163,15.287,0.054c5.429-0.117,10.761-1.372,16.194-1.449C489.386,116.929,489.423,115.449,488.505,115.349z
			 M465.818,8.881c0.059-0.01,0.115-0.027,0.176-0.052c3.674-1.518,7.679-0.82,11.537-0.773c0.017,0,0.03-0.003,0.045-0.003
			c0.274,0.532,0.533,1.071,0.785,1.614c-4.344,0.124-8.837,1.307-13.122,0.323C465.432,9.62,465.615,9.246,465.818,8.881z
			 M464.496,11.462c4.614,1.198,9.422-0.11,14.104-0.201c0.165-0.003,0.303-0.05,0.416-0.122c0.36,0.835,0.696,1.677,1.028,2.523
			c-2.793-0.02-5.62-0.133-8.402,0.073c-2.795,0.209-5.617,1-8.393,0.346C463.668,13.208,464.074,12.332,464.496,11.462z
			 M461.93,16.741c0.208-0.396,0.41-0.794,0.606-1.193c2.508,0.69,5.079,0.288,7.619-0.04c3.473-0.449,7.019-0.243,10.513-0.24
			c0.395,1.034,0.792,2.068,1.194,3.1c-3.742,0.884-7.862,0.27-11.679,0.543c-1.835,0.13-3.674,0.039-5.508,0.122
			c-1.345,0.063-2.775,0.527-4.079,0.074C461.052,18.324,461.51,17.542,461.93,16.741z M459.798,20.512
			c0.913,0.38,1.837,0.404,2.889,0.338c2.18-0.138,4.331-0.226,6.518-0.29c2.298-0.068,4.538-0.299,6.841-0.226
			c2.19,0.068,4.301,0.063,6.42-0.468c0.425,1.033,0.862,2.059,1.344,3.066c-1.911,0.273-3.806-0.116-5.742-0.186
			c-2.206-0.08-4.446,0.2-6.648,0.311c-4.316,0.215-8.66,0.074-12.975,0.336C458.808,22.393,459.283,21.443,459.798,20.512z
			 M471.187,116.81c-1.902,0.041-3.774-0.123-5.638-0.277c0.091-0.089,0.162-0.204,0.203-0.356
			c1.469-5.547,0.766-16.995,9.883-15.296c5.476,1.021,4.839,11.06,4.835,15.082c0,0.009,0.003,0.016,0.003,0.022
			C477.385,116.349,474.301,116.743,471.187,116.81z M487.172,110.729c0.019,0.174,0.021,0.353,0.023,0.527
			c0.015,0.552-0.035,1.105-0.076,1.656c-0.063,0.826-0.178,1.654-0.221,2.482c-1.614,0.076-3.221,0.231-4.825,0.408
			c0.012-5.278,0.379-14.668-6.013-16.469c-3.536-0.998-7.476,1.316-9.211,4.296c-2.088,3.591-1.61,8.21-2.64,12.118
			c-0.078,0.283-0.007,0.518,0.138,0.688c-2.272-0.169-4.54-0.251-6.841,0.148c0.043-15.18,0.731-30.346,0.983-45.521
			c0.253-15.354-0.256-30.702-0.277-46.055c4.385-0.287,8.816-0.197,13.205-0.348c2.49-0.087,4.968-0.372,7.465-0.283
			c1.953,0.07,3.754,0.393,5.666,0.035c0.013,0.024,0.022,0.05,0.036,0.073c0.058,0.107,0.128,0.188,0.208,0.251
			c0.777,14.061,2.067,28.066,2.09,42.16c0.021,14.188,0.333,28.347,0.351,42.558C486.839,109.763,486.753,110.428,487.172,110.729z
			"/>
		<path fill="#231815" d="M469.252,31h-6.143c-0.138,0-0.255,0.311-0.357,0.359c-0.273,0.094-0.479,0.474-0.445,0.861
			c0.21,2.25-0.479,4.508-0.533,6.748c-0.009,0.377,0.256,0.687,0.589,0.808c1.739,0.633,4.979,1.076,6.39-0.455
			c0.75-0.815,0.868-2.245,1.017-3.279c0.175-1.222,0.276-2.733,0.285-3.965C470.058,31.64,469.687,31,469.252,31z M468.435,33
			c-0.017,1-0.066,1.355-0.135,1.991c-0.101-0.024-0.211,0.011-0.328,0.03c-0.497,0.076-0.995,0.144-1.494,0.178
			c0.035-0.507,0.07-1.086,0.107-1.595c0.013-0.229-0.059-0.604-0.176-0.604H468.435z M465.224,33c-0.134,0-0.229,0.385-0.245,0.615
			c-0.035,0.529-0.072,1.102-0.107,1.635c-0.359,0.004-0.72-0.054-1.076-0.054c0.09-0.71,0.156-1.196,0.152-2.196H465.224z
			 M463.409,38.457c0.034-0.522,0.099-1.043,0.169-1.562c0.022,0.002,0.041,0.007,0.064,0.007c0.38,0,0.756-0.003,1.132-0.011
			c-0.03,0.609-0.057,1.218-0.062,1.827C464.243,38.656,463.788,38.56,463.409,38.457z M466.314,38.75
			c0.005-0.643,0.031-1.286,0.066-1.93c0.561-0.037,1.121-0.093,1.682-0.171c-0.079,0.377-0.17,0.75-0.28,1.114
			C467.6,38.372,467.025,38.655,466.314,38.75z"/>
		<path fill="#231815" d="M479.668,30h-4.273c-0.447,0-0.701,0.816-0.762,1.158c-0.49-0.211-1.161,0.271-1.106,0.947
			c0.18,2.25-0.663,4.529,0.027,6.75c0.128,0.408,0.558,0.755,0.986,0.625c1.594-0.485,3.21-0.472,4.862-0.474
			c0.475,0,0.749-0.351,0.801-0.786c0.246-2.131,0.267-4.771,0.267-6.914C480.47,30.869,480.106,30,479.668,30z M478.863,32.355
			c-0.002,0.837-0.01,1.236-0.023,1.785c-0.13-0.047-0.282,0.01-0.454,0.051c-0.031,0.009-0.064-0.087-0.102-0.079
			c-0.054-0.556-0.153-0.92-0.333-1.757H478.863z M475.395,32h0.865c0.013,0,0.024,0.406,0.047,0.453
			c0.269,0.588,0.388,1.366,0.438,1.998c-0.532,0.09-1.071,0.227-1.615,0.235c-0.041,0.001-0.077,0.048-0.115,0.053
			c0.083-0.729,0.16-1.753,0.127-2.487C475.217,32.277,475.301,32,475.395,32z M474.925,37.791
			c-0.074-0.486-0.077-0.974-0.053-1.461c0.076,0.023,0.161,0.04,0.257,0.037c0.548-0.008,1.093-0.065,1.637-0.147
			c-0.014,0.408-0.031,0.815-0.034,1.217c0,0.031,0.004,0.059,0.008,0.088C476.131,37.577,475.526,37.659,474.925,37.791z
			 M478.336,37.448c0-0.004,0-0.008,0-0.012c0.003-0.515,0.014-1.021,0.018-1.524c0.143-0.034,0.287-0.065,0.43-0.1
			c-0.028,0.543-0.062,1.086-0.11,1.628C478.56,37.441,478.446,37.447,478.336,37.448z"/>
		<path fill="#231815" d="M469.252,43.847c-1.584,0.029-5.03,0.068-6.156,1.529c-0.458-0.349-1.313-0.147-1.322,0.607
			c-0.021,2.14-0.244,4.271-0.267,6.41c-0.005,0.475,0.37,0.752,0.8,0.801c1.101,0.126,2.202,0.192,3.305,0.228
			c0.087,0.016,0.174,0.016,0.266,0.006c0.942,0.025,1.893,0.035,2.84,0.035c0.442,0,0.797-0.364,0.802-0.803
			c0.041-2.68,0.495-5.331,0.535-8.013C470.059,44.217,469.685,43.839,469.252,43.847z M466.628,45.721
			c0.589-0.109,1.19-0.175,1.796-0.22c-0.039,0.876-0.114,1.75-0.192,2.623c-0.019-0.001-0.032-0.004-0.048-0.004
			c-0.466,0.01-0.942,0.063-1.426,0.119c-0.023-0.843-0.121-1.676-0.386-2.479C466.472,45.745,466.56,45.733,466.628,45.721z
			 M463.354,46.703c0.334,0.146,0.747,0.095,0.981-0.314c0.071-0.128,0.24-0.227,0.457-0.308c0.252,0.736,0.35,1.505,0.375,2.285
			c-0.54,0.007-1.07-0.042-1.579-0.217c-0.106-0.037-0.205-0.048-0.296-0.044C463.314,47.638,463.341,47.171,463.354,46.703z
			 M463.131,51.667c0.02-0.654,0.055-1.306,0.088-1.958c0.627,0.206,1.268,0.259,1.915,0.243c-0.036,0.616-0.089,1.23-0.122,1.835
			C464.385,51.759,463.757,51.723,463.131,51.667z M466.609,51.841c0.033-0.665,0.086-1.338,0.123-2.011
			c0.454-0.047,0.907-0.089,1.357-0.103c-0.061,0.709-0.116,1.417-0.146,2.129C467.5,51.854,467.053,51.849,466.609,51.841z"/>
		<path fill="#231815" d="M480.738,43h-5.877c-0.428,0-0.676,0.432-0.75,0.754c-0.359,0.125-0.659,0.549-0.558,1.029
			c0.507,2.383-0.796,4.75,0.54,7.039c0.743,1.275,2.671,0.827,3.857,0.814c1.182-0.012,2.684-0.184,3.103-1.498
			c0.219-0.678,0.212-1.398,0.219-2.104c0.011-1.64,0.264-3.43,0.267-5.08C481.539,43.519,481.174,43,480.738,43z M479.912,44
			c-0.026,1-0.071,1.721-0.115,2.35c-0.026,0.003-0.047,0.229-0.075,0.235c-0.319,0.058-0.637-0.209-0.952-0.131
			c-0.025-0.713-0.102-1.454-0.307-2.454H479.912z M476.774,44c0.299,1,0.394,2.105,0.409,2.957
			c-0.711,0.156-1.428,0.02-2.161-0.047c0.1-0.891,0.243-1.91,0.15-2.91H476.774z M476.134,51.111
			c-0.794,0.04-0.833-0.334-1.035-1.067c-0.076-0.28-0.111-0.563-0.131-0.848c0.731,0.076,1.45,0.001,2.161-0.138
			c-0.044,0.679-0.102,1.356-0.121,2.022C476.717,51.089,476.425,51.097,476.134,51.111z M478.609,51.001
			c0.025-0.766,0.09-1.544,0.135-2.321c0.316-0.08,0.633-0.155,0.951-0.226c-0.014,0.313-0.027,0.626-0.027,0.938
			C479.658,50.543,479.447,50.885,478.609,51.001z"/>
		<path fill="#231815" d="M468.986,59h-2.672c-0.248,0-1.422,0.197-1.768,0.176c-0.328-0.473-1.104-0.557-1.348-0.011
			c-0.397-0.146-0.93-0.021-1.129,0.485c-0.911,2.301-1.093,4.986-0.831,7.429c0.045,0.438,0.328,0.801,0.805,0.805
			c2.362,0.017,4.501,0.296,6.761-0.563c0.339-0.127,0.195-0.388,0.195-0.771v-6.678C469,59.436,469.421,59,468.986,59z
			 M467.71,60.691v1.358c-0.534,0.133-1.067,0.207-1.602,0.266V60.94c0-0.063-0.007-0.121-0.019-0.175
			C466.662,60.744,467.176,60.712,467.71,60.691z M463.425,60.437c0.239,0.176,0.472,0.266,0.858,0.302
			c0.146,0.013,0.441,0.014,0.594,0.021C464.862,60.815,465,60.876,465,60.94v1.565c-1,0.096-1.439,0.249-2.074,0.529
			C463.061,62.147,463.128,61.273,463.425,60.437z M462.785,66.298c-0.035-0.553-0.109-1.111-0.086-1.668
			c0.186,0.063,0.505,0.057,0.726-0.059c0.472-0.247,0.575-0.392,1.575-0.49v2.261C464,66.342,463.472,66.314,462.785,66.298z
			 M466,66.269v-2.392c0-0.048,1-0.098,2-0.195v2.28C467,66.121,466,66.212,466,66.269z"/>
		<path fill="#231815" d="M481.339,61.976c0.005-1.235-0.06-2.47-0.066-3.706c-0.003-0.43-0.362-0.81-0.803-0.801
			c-1.606,0.031-3.2,0.236-4.807,0.267c-0.642,0.013-0.913,0.636-0.761,1.101c-0.422-0.033-0.902,0.222-0.902,0.77v6.409
			c0,0.327,0.271,0.719,0.619,0.773c1.799,0.284,5.501,0.948,6.406-1.247C481.452,64.501,481.336,63.071,481.339,61.976z
			 M479.649,59.104c0.014,0.778,0.045,1.557,0.062,2.335c-0.126-0.144-0.321-0.238-0.577-0.231
			c-0.253,0.006-0.515,0.039-0.775,0.082c-0.013-0.7-0.022-1.402-0.022-2.104C478.774,59.155,479.213,59.125,479.649,59.104z
			 M475.283,59.335c0.018,0,0.197,0.004,0.213,0.003c0.381-0.007,0.806-0.024,1.187-0.046c0.003,0.751,0.035,1.501,0.053,2.252
			c-0.299,0.021-0.78,0.019-1.067-0.04c-0.184-0.038,0.332-0.017-0.668,0.041v-1.939C475,59.505,475.313,59.416,475.283,59.335z
			 M475,65.333v-2.301c0,0.005,0.231,0.014,0.252,0.017c0.463,0.095,1.014,0.091,1.463,0.048c0.037,0.797-0.064,1.593,0.014,2.389
			C476.201,65.466,476,65.404,475,65.333z M479.69,63.771c-0.048,0.956-0.135,1.352-1.105,1.59c-0.005,0.001-0.01,0.002-0.018,0.003
			c-0.077-0.831-0.124-1.66-0.16-2.491c0.242-0.03,0.482-0.055,0.727-0.062c0.265-0.007,0.459-0.115,0.588-0.273
			C479.721,62.948,479.713,63.36,479.69,63.771z"/>
		<path fill="#231815" d="M470.054,74.563c-0.042-0.438-0.333-0.796-0.802-0.801c-2.051-0.022-4.092-0.243-6.143-0.268
			c-0.074-0.001-0.141,0.009-0.204,0.023c-0.384-0.402-1.189-0.399-1.37,0.298c-0.558,2.158-0.562,4.408-0.563,6.623
			c0,0.468,0.366,0.761,0.801,0.802c2.316,0.221,4.625,0.019,6.943,0c0.451-0.004,0.788-0.362,0.802-0.802
			C469.585,78.462,470.244,76.554,470.054,74.563z M468.484,75.34c0,0.096-0.006,0.191-0.011,0.286
			c-0.075,0-0.151,0.008-0.235,0.034c-0.778,0.237-1.616,0.361-2.455,0.384c0.027-0.277,0.066-0.556,0.127-0.832
			C466.768,75.261,467.628,75.313,468.484,75.34z M463.109,75.097c0.395,0.005,0.789,0.019,1.184,0.034
			c-0.052,0.277-0.083,0.553-0.107,0.831c-0.471-0.064-0.934-0.163-1.376-0.297c0.029-0.199,0.051-0.4,0.089-0.598
			C462.964,75.085,463.033,75.096,463.109,75.097z M462.576,79.697c0-0.807,0.014-1.614,0.062-2.42
			c0.49,0.132,0.99,0.23,1.499,0.293c0.01,0.597,0.035,1.196,0.041,1.8c0,0.142,0.035,0.263,0.088,0.365
			C463.703,79.736,463.138,79.729,462.576,79.697z M465.713,79.714c0.044-0.098,0.068-0.212,0.066-0.344
			c-0.005-0.574-0.035-1.148-0.047-1.719c0.879-0.017,1.75-0.136,2.577-0.354c-0.114,0.783-0.257,1.564-0.337,2.352
			C467.219,79.667,466.465,79.694,465.713,79.714z"/>
		<path fill="#231815" d="M482.071,72.96c0-0.433-0.361-0.805-0.799-0.802c-2.152,0.024-4.278,0.27-6.411,0.535
			c-0.489,0.062-0.742,0.467-0.76,0.856c-0.316,0.077-0.583,0.323-0.575,0.746c0.022,1.962,0.242,3.914,0.267,5.876
			c0.004,0.34,0.24,0.699,0.588,0.772c1.46,0.309,2.921,0.292,4.407,0.306c0.769,0.005,1.552-0.084,2.074-0.705
			c0.629-0.746,0.656-1.967,0.872-2.871C482.098,76.146,482.071,74.521,482.071,72.96z M480.447,73.791
			c-0.022,0.754-0.076,1.497-0.154,2.236c-0.159-0.093-0.35-0.14-0.571-0.101c-0.354,0.063-0.717,0.145-1.08,0.229
			c-0.028-0.75-0.098-1.496-0.258-2.236C479.07,73.863,479.757,73.815,480.447,73.791z M476.717,74.072
			c0.189,0.786,0.295,1.583,0.311,2.386c-0.484,0.061-0.956,0.078-1.436,0.003c-0.145-0.022-0.328-0.007-0.449,0.03
			C475.102,75.76,475,75.029,475,74.296c0-0.011,0-0.021,0-0.031C476,74.195,476.164,74.133,476.717,74.072z M475.377,79.507
			c-0.02-0.496-0.041-0.992-0.075-1.488c0.589,0.08,1.172,0.074,1.747,0.014c-0.016,0.566-0.04,1.133-0.047,1.695
			C476.394,79.673,475.802,79.584,475.377,79.507z M478.603,79.749c0.009-0.659,0.032-1.32,0.044-1.979
			c0.484-0.097,0.968-0.2,1.455-0.288c-0.089,0.547-0.184,1.095-0.309,1.646C479.71,79.509,479.23,79.687,478.603,79.749z"/>
		<path fill="#231815" d="M468.664,86.077c-1.964-0.622-4.287-1.134-6.227-0.188c-0.353,0.173-0.454,0.479-0.393,0.768
			c-0.549-0.178-1.271,0.234-1.043,0.939c0.755,2.341,0.272,4.856,0.237,7.266c-0.008,0.466,0.372,0.762,0.805,0.801
			c1.821,0.164,3.527-0.461,5.338-0.534c0.343-0.014,0.697-0.232,0.773-0.589c0.539-2.537,0.813-5.114,1.097-7.691
			C469.293,86.491,468.977,86.176,468.664,86.077z M467.585,87.421c-0.067,0.619-0.14,1.238-0.217,1.856
			c-0.532,0.023-1.066,0.064-1.595,0.123c-0.063-0.823-0.176-1.641-0.389-2.442C466.133,87.021,466.893,87.214,467.585,87.421z
			 M463.246,87.274c0.163-0.08,0.333-0.144,0.506-0.193c0.25,0.829,0.367,1.674,0.437,2.526c-0.4,0.062-0.799,0.127-1.198,0.193
			c-0.043-0.843-0.159-1.677-0.41-2.498C462.777,87.385,463.008,87.392,463.246,87.274z M462.867,94.08
			c0.038-0.905,0.104-1.817,0.133-2.727c0.098,0.021,0.206,0.026,0.322,0.008c0.317-0.054,0.638-0.104,0.952-0.153
			c0.034,0.863,0.064,1.729,0.171,2.585c0.005,0.044,0.016,0.082,0.026,0.12C463.938,93.996,463.406,94.066,462.867,94.08z
			 M466.035,93.669c-0.102-0.885-0.135-1.78-0.172-2.674c0.43-0.048,0.861-0.082,1.293-0.105c-0.127,0.898-0.271,1.795-0.444,2.688
			C466.485,93.602,466.26,93.636,466.035,93.669z"/>
		<path fill="#231815" d="M482.311,85.567c-0.058-0.339-0.443-0.597-0.771-0.588c-1.854,0.053-3.821,0.812-5.66,0.563
			c-0.068-0.021-0.141-0.032-0.216-0.029c-0.875,0.039-1.604,0.659-1.813,1.481c-0.19,0.131-0.324,0.347-0.324,0.655
			c0,1.603-0.3,3.673,0.187,5.362c0.488,1.696,3.026,1.084,4.304,1.155c1.71,0.096,4.249,0.354,4.901-1.693
			C483.574,90.425,482.662,87.611,482.311,85.567z M481.145,88.193c-0.781,0.028-1.551,0.14-2.314,0.284
			c-0.086-0.512-0.175-1.022-0.251-1.532c0.766-0.116,1.531-0.252,2.298-0.32C480.969,87.147,481.059,87.67,481.145,88.193z
			 M474.93,87.973c0.155-0.147,0.07-0.357,0.07-0.59c0-0.001,0-0.003,0-0.005c0-0.017,0.21-0.029,0.211-0.04
			c0.015-0.027,0.13-0.056,0.148-0.082c0.008-0.009,0.064-0.016,0.086-0.041c0.024-0.021,0.057-0.028,0.064-0.036
			c0.026-0.018,0.068-0.593,0.096-0.606c0.012-0.004,0.035-0.572,0.052-0.572h0.006c0.017,0,0.032,0.555,0.049,0.553
			c0.437,0.043,0.873,0.319,1.31,0.292c-0.006,0.066-0.006,0.272,0.006,0.346c0.073,0.491,0.158,1.055,0.238,1.546
			c-0.713,0.158-1.526,0.354-2.247,0.475C475.022,88.766,474.928,88.367,474.93,87.973z M475.69,92.463
			c-0.715-0.008-0.544-0.438-0.559-1.056c-0.004-0.189-0.004-0.383-0.004-0.574c0.065,0.006,0.137,0.006,0.213-0.006
			c0.722-0.113,1.438-0.275,2.151-0.438c0.079,0.692,0.118,1.387,0.075,2.087C476.943,92.447,476.318,92.47,475.69,92.463z
			 M480.305,92.537c-0.375,0.043-0.757,0.043-1.137,0.03c0.054-0.843,0.004-1.682-0.102-2.518c0.729-0.139,1.461-0.244,2.206-0.263
			c0.029-0.001,0.059-0.007,0.09-0.011c0.04,0.402,0.072,0.805,0.088,1.211C481.482,91.937,481.323,92.421,480.305,92.537z"/>
		<path fill="#231815" d="M470.854,110.086c0-0.064-0.01,0.013-0.024-0.048c0.037-0.447-0.265-0.743-0.776-0.743h-0.269
			c-0.178,0-0.36-0.065-0.506,0.051c-0.019,0.015-0.04-0.041-0.058-0.024c-0.005,0.006-0.01-0.022-0.016-0.017
			c-0.03,0.029-0.073,0.042-0.097,0.077c-0.098,0.13-0.149,0.27-0.149,0.438v0.534c0,0.761,1.125,1.13,1.495,0.415
			C470.685,110.624,470.854,110.364,470.854,110.086z"/>
	</g>
	<path fill="#231815" d="M446.502,62.617c0.171-2.662,0.834-5.204,0.574-7.904c-0.246-2.544-1.545-4.812-2.854-6.942
		c-0.065-0.105-0.142-0.185-0.226-0.244c0.526-6.038-1.578-11.02-6.31-14.876c-0.059-0.047-0.12-0.082-0.182-0.111
		c-0.514-4.738-4.329-8.325-8.479-10.316c-0.168-0.131-0.396-0.188-0.667-0.105c-4.871,1.501-6.127,7.663-6.602,12.15
		c-3.824,3.777-7.426,7.321-6.149,13.05c-2.461,3.92-4.851,10.002-1.178,13.842c-2.214,4.685-3.564,9.941,0.434,13.978
		c-3.338,4.494-3.934,12.942,2.455,14.765c0.04,0.012,0.078,0.016,0.115,0.021c0.045,4.136,4.075,7.201,7.686,4.742
		c-0.27,1.296-0.555,2.587-0.841,3.875c-1.313,5.9-1.41,11.984-3.876,17.607c-0.309,0.703,0.394,1.339,0.938,1.211
		c3.177,1.146,7.128,0.471,10.295-0.39c0.034-0.01,0.064-0.024,0.096-0.037c0.558,0.324,1.447-0.365,1.096-1.141
		c-2.558-5.635-0.671-12.593-0.593-18.546c0.013-0.899,0.06-1.805,0.126-2.709c3.879-0.18,7.383-1.418,7.367-5.741
		c4.588-0.734,7.509-7.738,5.191-11.669C449.198,74.067,449.052,66.824,446.502,62.617z M430.293,79.728
		c1.49,4.127,1.212,8.765,0.8,13.298c-0.548,0.241-0.591,1.071-0.129,1.399c-0.163,1.747-0.321,3.471-0.379,5.132
		c-0.186,5.296-1.403,10.827,0.408,15.924c-2.724,0.724-6.03,1.298-8.796,0.477c2.029-5.217,2.217-10.666,3.431-16.099
		c1.433-6.443,2.943-12.986,2.678-19.631c-0.022-0.54-0.47-0.794-0.888-0.771c-2.373-1.278-3.285-5.075-3.998-7.413
		c-0.563-1.846-1.035-3.748-1.382-5.666c1.514,3.193,3.24,6.269,5.13,9.268c0.517,0.816,1.767,0.162,1.465-0.646
		c0.045-0.223-0.004-0.467-0.205-0.681c-0.684-0.722,0.307-5.845,0.422-7.159c0.155-1.779,0.262-3.574,0.341-5.371
		c0.854,3.868,1.832,7.713,2.146,11.673c0.075,1.009,1.633,1.027,1.598,0.038c1.576-1.263,2.043-3.188,2.541-5.101
		c0.168,1.999,0.311,4.013-0.057,5.941c-0.418,2.187-3.102,3.064-4.758,4.126c-0.292,0.188-0.391,0.468-0.365,0.736
		C430.231,79.35,430.219,79.525,430.293,79.728z M443.438,77.793c1.875,3.168-0.573,9.499-4.54,9.468
		c-0.407-0.004-0.837,0.366-0.801,0.8c0.349,3.945-2.491,4.735-5.615,4.871c0.385-4.497,0.924-9.017-0.559-13.362
		c1.842-1.105,3.885-1.986,4.791-4.063c1.352-3.103,0.191-7.334,0.136-10.594c0-0.057-0.006-0.11-0.015-0.161
		c0.226-0.792-0.985-1.408-1.477-0.598c-1.231,2.023-1.19,5.321-2.638,7.294c-0.682-5.272-2.297-10.377-3.021-15.65
		c-0.032-0.262-0.165-0.426-0.333-0.512c0.001-0.113,0.01-0.229,0.01-0.344c0.008-1.034-1.595-1.033-1.607,0
		c-0.045,4.442-0.23,8.933-0.623,13.358c-0.07,0.799-0.34,2.123-0.465,3.447c-1.69-2.913-3.221-5.907-4.539-9.02
		c-0.162-0.379-0.479-0.473-0.776-0.392c-0.433-0.549-1.509-0.408-1.429,0.44c0.324,3.497,1.106,6.965,2.128,10.319
		c0.802,2.632,1.97,6.485,4.652,7.81c0.093,4.121-0.492,8.192-1.286,12.229c-0.285-0.176-0.666-0.208-0.988,0.058
		c-2.83,2.33-5.564-0.754-5.398-3.707c0.031-0.547-0.404-0.801-0.832-0.766c-0.085-0.163-0.237-0.298-0.469-0.363
		c-5.555-1.584-4.133-9.618-1.069-12.905c0.542-0.581-0.006-1.385-0.608-1.379c-3.672-3.683-2.022-8.507,0.019-12.673
		c0.22-0.443,0.013-0.858-0.31-1.07c-0.037-0.088-0.09-0.175-0.169-0.256c-3.229-3.319-0.533-8.971,1.549-12.207
		c0.159-0.248,0.158-0.489,0.066-0.689c-1.327-5.368,2.386-8.531,5.863-11.968c0.184-0.182,0.251-0.39,0.236-0.586
		c0.36-3.637,1.269-9.411,5.209-10.859c3.696,1.854,7.257,5.071,7.431,9.454c0.021,0.515,0.433,0.773,0.832,0.773
		c4.339,3.645,6.15,8.146,5.579,13.827c-0.036,0.392,0.172,0.632,0.449,0.725c0.006,0.012,0.009,0.023,0.018,0.036
		c1.348,2.193,2.461,4.335,2.711,6.938c0.226,2.33-0.447,4.644-0.639,6.966c-0.067,0.143-0.086,0.308-0.034,0.481
		c0,0.056-0.01,0.111-0.011,0.167c-0.017,0.4,0.214,0.643,0.505,0.733c2.043,3.874,2.068,10.341-2.243,12.465
		C442.371,76.701,442.766,77.684,443.438,77.793z"/>
	<g>
		<g>
			<path d="M239.314,93.553c0.205,3.256,0.065,6.229-0.979,9.354c-1.275,3.817-3.563,6.482-5.455,9.877
				c-0.472,0.846,0.824,1.603,1.295,0.758c1.729-3.102,3.816-5.507,5.138-8.894c1.442-3.698,1.75-7.161,1.502-11.095
				C240.754,92.592,239.254,92.586,239.314,93.553L239.314,93.553z"/>
		</g>
	</g>
	<g>
		<g>
			<path d="M243.966,92.547c0.006,3.598-0.085,7.565,1.547,10.887c0.796,1.619,1.726,2.96,2.931,4.287
				c1.595,1.758,2.129,4.071,3.911,5.594c0.73,0.625,1.797-0.432,1.061-1.061c-1.376-1.176-1.946-3.026-2.954-4.49
				c-0.962-1.398-2.231-2.52-3.116-3.995c-1.993-3.326-1.873-7.487-1.879-11.222C245.464,91.58,243.964,91.579,243.966,92.547
				L243.966,92.547z"/>
		</g>
	</g>
	<g>
		<g>
			<path d="M241.451,94.433c-0.048,5.441-1.131,20.509-9.609,18.508c-0.94-0.222-1.34,1.225-0.398,1.447
				c9.95,2.348,11.45-13.39,11.508-19.955C242.96,93.465,241.46,93.466,241.451,94.433L241.451,94.433z"/>
		</g>
	</g>
	<g>
		<g>
			<path d="M241.451,95.689c0.34,5.321,1.748,8.833,4.454,13.364c2.282,3.824,2.653,5.854,7.306,4.706
				c0.938-0.232,0.541-1.679-0.398-1.447c-4.015,0.992-5.017-3.197-6.82-5.94c-2.209-3.357-2.789-6.731-3.041-10.683
				C242.89,94.729,241.39,94.723,241.451,95.689L241.451,95.689z"/>
		</g>
	</g>
	<g>
		<g>
			<path d="M249.396,114.366c0.603,1.577,0.629,3.206,2.751,2.884c2.664-0.405,5.306-0.973,7.781-2.059
				c0.884-0.388,0.119-1.68-0.758-1.295c-1.787,0.783-3.584,1.129-5.471,1.546c-0.522,0.115-1.05,0.212-1.577,0.304
				c-1.093,0.189-0.986-1.01-1.279-1.778C250.501,113.073,249.051,113.461,249.396,114.366L249.396,114.366z"/>
		</g>
	</g>
	<g>
		<g>
			<path d="M253.264,113.912c1.126-0.047,2.239-0.471,3.332-0.712c1.112-0.246,2.864-0.667,2.706,0.967
				c-0.094,0.963,1.407,0.954,1.5,0c0.435-4.473-5.354-1.846-7.538-1.755C252.3,112.452,252.296,113.952,253.264,113.912
				L253.264,113.912z"/>
		</g>
	</g>
	<g>
		<g>
			<path d="M232.826,114.766c1.215,0.474,2.584,0.632,3.835,1.01c0.723,0.22,1.445,0.471,2.083,0.882
				c0.061,0.039,0.235,0.232,0.234,0.2c-0.005-0.124,0.053-0.106-0.085,0.041c-0.161,0.171-0.389,0.28-0.591,0.393
				c-0.845,0.471-0.088,1.767,0.758,1.295c0.737-0.411,1.577-1.061,1.388-2.019c-0.169-0.851-1.065-1.327-1.784-1.648
				c-1.748-0.783-3.679-0.913-5.439-1.601C232.322,112.967,231.936,114.418,232.826,114.766L232.826,114.766z"/>
		</g>
	</g>
	<g>
		<g>
			<path d="M230.387,114.293c-0.087,0.641-0.304,1.227-0.649,1.758c-0.225,0.4-0.038,1.003,0.448,1.103
				c2.701,0.551,5.375,1.228,8.119,1.535c0.961,0.107,0.95-1.394,0-1.5c-2.607-0.292-5.154-0.958-7.721-1.482
				c0.149,0.368,0.299,0.735,0.448,1.103c0.469-0.836,0.746-1.567,0.854-2.516C231.996,113.333,230.495,113.344,230.387,114.293
				L230.387,114.293z"/>
		</g>
	</g>
	<g>
		<g>
			<path d="M240.193,76.457c-0.794,6.627-3.721,14.739-7.438,20.236c-0.254,0.376-0.016,1.024,0.448,1.103
				c3.055,0.511,4.94-0.022,6.202-3.039c2.06-4.925,4.42-10.696,2.262-15.859c-0.368-0.879-1.819-0.493-1.447,0.398
				c1.257,3.005,0.823,5.425-0.056,8.517c-0.992,3.491-1.822,9.33-6.563,8.536c0.149,0.368,0.299,0.735,0.448,1.103
				c3.939-5.825,6.811-14.039,7.644-20.994C241.809,75.498,240.307,75.509,240.193,76.457L240.193,76.457z"/>
		</g>
	</g>
	<g>
		<g>
			<path d="M232.962,96.854c-1.304,0.628-3.281,0.756-4.71,0.808c-0.459,0.017-0.891,0.472-0.724,0.949
				c1.52,4.34,7.879,1.362,9.77-1.104c0.589-0.769-0.715-1.514-1.295-0.758c-1.064,1.388-6.062,4.222-7.027,1.463
				c-0.241,0.316-0.482,0.633-0.724,0.949c1.722-0.063,3.904-0.26,5.468-1.013C234.591,97.729,233.829,96.436,232.962,96.854
				L232.962,96.854z"/>
		</g>
	</g>
	<g>
		<g>
			<path d="M286.567,78.063c-3.361,2.821-3.512,7.078-4.717,11.016c0.418-0.11,0.836-0.221,1.254-0.331
				c-1.221-1.396-2.048-2.924-3.673-3.888c-0.456-0.271-0.923,0.01-1.103,0.448c-0.606,1.48-1.649,2.875-2.977,3.802
				c-0.348,0.243-0.797,0.604-0.806,1.071c-0.03,1.605,1.073,2.127,2.218,3.146c2.583,2.302,7.85,4.727,10.544,1.188
				c2.235-2.936,6.027-14.731,0.492-16.27c-0.934-0.259-1.329,1.188-0.398,1.447c3.821,1.061,0.398,10.837-0.715,13.029
				c-2.187,4.308-7.234,0.891-9.697-1.174c-1.258-1.055,2.185-4.376,2.786-5.843c-0.367,0.149-0.735,0.299-1.103,0.448
				c1.477,0.876,2.271,2.396,3.37,3.653c0.387,0.442,1.099,0.177,1.254-0.331c1.116-3.65,1.201-7.728,4.33-10.354
				C288.37,78.502,287.303,77.446,286.567,78.063L286.567,78.063z"/>
		</g>
	</g>
	<g>
		<g>
			<path d="M297.253,78.621c5.741,6.611,9.439,17.93,1.158,23.963c-0.773,0.563-0.025,1.865,0.758,1.295
				c9.147-6.664,5.67-18.805-0.855-26.318C297.678,76.829,296.622,77.895,297.253,78.621L297.253,78.621z"/>
		</g>
	</g>
	<g>
		<g>
			<path d="M286.979,98.981c5.322,0.291,10.632-0.308,15.955-0.126c0.968,0.033,0.965-1.467,0-1.5
				c-5.323-0.182-10.633,0.417-15.955,0.126C286.012,97.429,286.017,98.929,286.979,98.981L286.979,98.981z"/>
		</g>
	</g>
	<g>
		<g>
			<path d="M277.799,85.865c-1.191-0.655-1.891-2.123-3.134-2.813c-1.626-0.903-2.358,0.704-2.397,2.079
				c0.316-0.241,0.633-0.482,0.949-0.724c-1.07-0.349-4.464-2.046-4.322,0.421c0.152,2.667,3.817,4.624,5.885,5.601
				c0.87,0.411,1.632-0.882,0.758-1.295c-1.621-0.766-3.568-1.824-4.643-3.298c-0.28-0.386-0.238-1.075-0.757-0.861
				c0.181-0.074,0.581,0.111,0.751,0.163c0.657,0.199,1.277,0.504,1.93,0.717c0.477,0.155,0.937-0.256,0.949-0.724
				c0.008-0.292-0.005-0.613,0.12-0.886c-0.068,0.149-0.082,0.045,0.188,0.195c0.484,0.269,0.889,0.706,1.277,1.093
				c0.527,0.524,1.025,1.263,1.688,1.627C277.89,87.627,278.646,86.331,277.799,85.865L277.799,85.865z"/>
		</g>
	</g>
	<g>
		<g>
			<path d="M284.692,96.571c1.868,3.236,3.025,6.921,5.412,9.836c2.284,2.79,6.362,3.318,8.783,6.027
				c0.646,0.723,1.703-0.342,1.061-1.061c-1.931-2.161-4.599-3.155-7.038-4.612c-3.681-2.198-4.887-7.421-6.923-10.948
				C285.504,94.977,284.208,95.731,284.692,96.571L284.692,96.571z"/>
		</g>
	</g>
	<g>
		<g>
			<path d="M294.991,99.487c2.808,3.543,5.795,6.931,8.797,10.308c-0.039-0.303-0.078-0.605-0.117-0.909
				c-0.923,1.323-2.603,1.806-4.127,1.892c-0.962,0.055-0.967,1.555,0,1.5c2.105-0.119,4.183-0.855,5.422-2.634
				c0.199-0.286,0.095-0.671-0.117-0.909c-3.002-3.377-5.989-6.766-8.797-10.308C295.451,97.669,294.397,98.738,294.991,99.487
				L294.991,99.487z"/>
		</g>
	</g>
	<g>
		<g>
			<path d="M304.849,110.172c1.464-1.272,2.458-2.928,4.247-3.779c-0.343-0.09-0.685-0.18-1.026-0.269
				c0.303,0.564,0.631,1.114,0.916,1.688c0.64,1.289-0.524,1.885-1.524,2.439c-0.663,0.368-1.214,1.002-1.857,1.419
				c-1.175,0.763-1.216-0.203-1.565-1.097c-0.349-0.891-1.8-0.504-1.447,0.398c0.371,0.948,0.546,2.302,1.767,2.46
				c1.428,0.185,2.537-0.795,3.569-1.639c1.244-1.019,2.617-1.354,2.8-3.157c0.114-1.123-0.862-2.338-1.362-3.271
				c-0.205-0.382-0.668-0.439-1.026-0.269c-1.923,0.916-2.98,2.648-4.55,4.014C303.057,109.747,304.122,110.804,304.849,110.172
				L304.849,110.172z"/>
		</g>
	</g>
	<g>
		<g>
			<path d="M288.338,103.983c-0.848,1.864-1.495,3.813-2.389,5.657c-0.265,0.546,0.065,1.064,0.647,1.129
				c1.662,0.184,3.624,0.721,5.283,0.326c1.073-0.255,1.586-1.658,2.152-2.457c0.562-0.791-0.74-1.539-1.295-0.758
				c-0.344,0.484-0.799,1.73-1.464,1.814c-1.488,0.188-3.197-0.262-4.677-0.426c0.216,0.376,0.432,0.752,0.647,1.129
				c0.894-1.845,1.541-3.793,2.389-5.657C290.03,103.867,288.737,103.104,288.338,103.983L288.338,103.983z"/>
		</g>
	</g>
	<g>
		<g>
			<path d="M286.946,110.62c-0.854,0.862-1.17,2.073,0.092,2.727c1.209,0.627,2.714,0.455,4.022,0.642
				c0.655,0.094,1.444,0.437,2.111,0.275c0.729-0.176,1.69-0.827,1.895-1.598c0.472-1.779-1.928-2.12-3.117-2.49
				c-0.926-0.288-1.319,1.16-0.398,1.447c0.337,0.104,0.678,0.195,1.018,0.29c0.184,0.052,0.365,0.107,0.545,0.169
				c0.317,0.104,0.533,0.112,0.369,0.298c-0.64,0.722-1.687,0.192-2.519,0.098c-0.724-0.083-1.454-0.095-2.177-0.196
				c-0.344-0.049-0.68-0.128-1.009-0.238c-0.048-0.041-0.101-0.064-0.159-0.071c0.124,0.162,0.255-0.157,0.388-0.291
				C288.688,110.992,287.627,109.932,286.946,110.62L286.946,110.62z"/>
		</g>
	</g>
	<g>
		<path d="M242.827,76.464c1.526,2.804,7.39,22.428-0.765,19.369c-4.08-1.529-1.019-6.116-0.51-9.685
			c0.255-2.804-1.274-8.41,1.274-10.449"/>
		<g>
			<path d="M242.18,76.843c2.202,4.342,3.388,10.124,3.36,14.945c-0.007,1.304-0.19,3.442-1.872,3.617
				c-4.445,0.461-2.407-5.235-1.814-7.207c1.094-3.64-1.297-9.043,1.504-11.969c0.669-0.698-0.391-1.761-1.061-1.061
				c-1.727,1.804-1.768,4.087-1.681,6.476c0.132,3.646-0.471,6.378-1.253,9.911c-0.654,2.955,2.271,6.781,5.515,5.086
				c2.825-1.478,2.286-5.918,1.92-8.494c-0.569-4.02-1.47-8.408-3.323-12.063C243.037,75.223,241.743,75.982,242.18,76.843
				L242.18,76.843z"/>
		</g>
	</g>
	<g>
		<path fill="#231815" d="M132.137,115.977c-1.092-2.918-0.455-6.171-0.913-9.201c-0.556-3.675-0.587-7.47-1.366-11.109
			c0.387-0.078,0.732-0.421,0.611-0.918c-0.871-3.544-3.234-6.507-5.063-9.595c-1.039-1.75-1.83-3.541-2.906-5.132
			c0.093-0.366-0.199-0.683-0.566-0.779c-0.605-0.771-1.305-1.482-2.177-2.096c0.312-0.773-0.88-1.411-1.36-0.63
			c-3.676,5.965-7.76,11.664-10.698,18.053c-0.177,0.38-0.027,0.74,0.228,0.953c-1.09,2.495-0.874,5.484-0.84,8.139
			c0.045,3.906,0.059,8.353-1.223,12.064c-0.266,0.766,0.699,1.162,1.211,0.747c5.314,1.584,10.851,1.28,16.354,0.938
			c0.161,0.061,0.341,0.043,0.505-0.031c2.168-0.136,4.332-0.268,6.478-0.284c0.287-0.003,0.486-0.138,0.604-0.324
			C131.549,117.09,132.409,116.698,132.137,115.977z M126.73,90.13c0.742,1.208,1.429,2.441,1.906,3.767
			c-0.07-0.021-0.146-0.034-0.231-0.034c-0.329,0-0.653,0.004-0.979,0.007c-0.71-0.94-0.795-2.194-1.017-3.368
			c0.02-0.113,0.041-0.228,0.052-0.34C126.553,90.15,126.64,90.148,126.73,90.13z M115.115,89.6c0.004-0.017,0-0.03,0.003-0.047
			c0.62-0.509,1.209-1.17,1.646-1.896c0.488,0.65,1.131,1.157,1.871,1.478c-0.004,0.042-0.007,0.085-0.007,0.13
			c0.05,1.26-0.159,3.551-1.878,3.553C115.188,92.818,114.991,90.7,115.115,89.6z M115.857,94.142
			c-1.318-0.055-2.616-0.162-3.911-0.08c0.116-0.063,0.233-0.129,0.343-0.204c0.596-0.409,1.197-0.979,1.662-1.637
			C114.314,93.098,114.941,93.818,115.857,94.142z M117.637,86.216c0.674-0.422,1.324-1.079,1.793-1.803
			c0.621,0.796,1.512,1.3,2.521,1.512c0.001,0.119,0.011,0.237,0.023,0.354C121.795,88.739,118.676,88.206,117.637,86.216z
			 M119.59,92.326c0.328,0.69,0.725,1.303,1.317,1.694c-0.967,0.039-1.939,0.081-2.922,0.131c-0.038,0.002-0.075,0.001-0.114,0.003
			C118.677,93.849,119.23,93.153,119.59,92.326z M120.129,89.798c0.004-0.102,0.004-0.203,0.004-0.302
			c0.102,0.007,0.203,0.019,0.305,0.019c1.027,0,1.814-0.434,2.332-1.098c0.491,0.708,1.168,1.258,1.959,1.551
			c0.062,0.181,0.116,0.364,0.165,0.549c-0.28,1.229-1.226,2.414-2.544,2.457C120.955,93.021,120.553,90.915,120.129,89.798z
			 M125.398,92.862c0.088,0.351,0.195,0.693,0.336,1.026c-0.469,0.008-0.941,0.016-1.413,0.026
			C124.734,93.641,125.094,93.274,125.398,92.862z M123.506,86.02c0.072-0.006,0.145-0.005,0.22-0.014
			c0.142-0.016,0.26-0.066,0.36-0.134c0.007,0.013,0.012,0.026,0.02,0.041c0.529,0.938,1.121,1.851,1.709,2.766
			c-1.24-0.095-2.104-1.166-2.313-2.439C123.504,86.165,123.507,86.093,123.506,86.02z M121.557,81.223
			c0.677,1.044,1.236,2.177,1.814,3.308c-1.53,0.081-2.869-0.495-3.266-2.15C120.628,82.079,121.114,81.675,121.557,81.223z
			 M118.974,78.429c0.655,0.465,1.211,1.001,1.698,1.583c-0.906,1.031-2.086,1.847-3.373,1.056
			C117.859,80.19,118.42,79.313,118.974,78.429z M116.486,82.333c0.709,0.48,1.411,0.637,2.089,0.569
			c-0.149,0.627-0.565,1.168-0.996,1.633c-0.656,0.71-1.303,1.021-1.485-0.149c-0.059-0.361-0.298-0.528-0.568-0.544
			C115.845,83.339,116.168,82.835,116.486,82.333z M114.71,85.129c0.179,0.784,0.521,1.228,0.94,1.431
			c-0.328,0.617-0.814,1.179-1.287,1.648c-0.323,0.321-0.695,0.621-1.145,0.738c-0.254,0.065-0.371-0.384-0.429-0.677
			C113.418,87.216,114.056,86.168,114.71,85.129z M111.902,89.77c0.342,0.395,0.788,0.61,1.297,0.622
			c-0.199,0.691-0.717,1.303-1.223,1.791c-0.306,0.296-0.678,0.587-1.079,0.741c-0.035,0.014-0.083,0.022-0.124,0.031
			c0-0.004-0.001-0.007-0.004-0.013c-0.008-0.262-0.127-0.451-0.293-0.572C110.938,91.495,111.411,90.627,111.902,89.77z
			 M109.643,94.021c0.132,0.145,0.291,0.247,0.471,0.313c-0.246,0.059-0.485,0.124-0.732,0.208
			C109.465,94.366,109.558,94.196,109.643,94.021z M116.29,116.188c1.241-2.041,0.296-5.47,0.735-7.687
			c0.758,0.17,1.52,0.247,2.284,0.277c0.05,2.412,0.3,4.815,0.321,7.229c0,0.041,0.006,0.077,0.012,0.115
			C118.521,116.171,117.405,116.198,116.29,116.188z M121.131,116.053c0.001-0.016,0.002-0.028,0.002-0.044
			c-0.019-2.41-0.268-4.809-0.318-7.217c0.49-0.008,0.982-0.023,1.479-0.038c-0.063,2.377-0.27,4.917,0.389,7.207
			C122.168,115.993,121.646,116.024,121.131,116.053z M130.411,115.591c-2.052,0.016-4.128,0.143-6.208,0.275
			c-0.861-2.412-0.41-5.395-0.395-7.881c0.002-0.406-0.344-0.758-0.751-0.752c-2.071,0.027-4.13,0.271-6.152-0.308
			c-0.403-0.114-0.706,0.091-0.845,0.383c-0.184,0.073-0.344,0.225-0.414,0.478c-0.354,1.26-0.244,2.623-0.229,3.917
			c0.009,1.272,0.238,3.615-1.1,4.325c-0.05,0.027-0.094,0.058-0.134,0.09c-2.209-0.124-4.399-0.429-6.548-1.051
			c0.83-3.089,0.77-6.37,0.885-9.545c0.11-2.953-0.465-6.607,0.789-9.384c0.074-0.003,0.154-0.016,0.238-0.048
			c2.752-1.041,5.57-0.44,8.437-0.436c3.454,0.007,6.808-0.277,10.265-0.286c0.887,3.679,0.764,7.509,1.436,11.229
			c0.531,2.952-0.049,6.091,0.754,8.996C130.43,115.594,130.42,115.591,130.411,115.591z"/>
		<path fill="#231815" d="M117.128,99.294c-0.013-0.401-0.343-0.764-0.757-0.752c-1.41,0.038-2.84,0.392-4.212,0.695
			c-0.434,0.096-0.581,0.452-0.527,0.79c-0.247,0.156-0.415,0.438-0.331,0.804c0.285,1.261,0.305,2.526,0.305,3.812
			c0,0.5,0.48,0.842,0.954,0.726c1.442-0.354,2.901-0.649,4.346-1.004c0.319-0.076,0.559-0.397,0.555-0.725
			C117.43,102.185,117.15,100.75,117.128,99.294z M112.787,100.637c0.942-0.212,1.91-0.435,2.877-0.534
			c0.07,0.982,0.198,1.962,0.256,2.947c-0.938,0.221-1.88,0.434-2.819,0.65C113.076,102.671,113,101.651,112.787,100.637z"/>
		<path fill="#231815" d="M126.793,98.76c-0.111-0.313-0.375-0.56-0.729-0.552c-1.344,0.027-2.666,0.305-4.012,0.334
			c-0.343,0.008-0.563,0.203-0.664,0.451c-0.303,0.2-0.504,0.594-0.318,1.015c0.527,1.2,0.223,2.549-0.075,3.766
			c-0.116,0.473,0.226,0.953,0.722,0.952c1.622-0.002,3.573,0.093,4.889-1.015C128.012,102.526,127.283,100.181,126.793,98.76z
			 M125.482,102.693c-0.728,0.528-1.848,0.561-2.836,0.544c0.203-1.087,0.271-2.161-0.016-3.226c0.975-0.065,1.939-0.207,2.918-0.27
			C125.885,100.707,126.283,102.113,125.482,102.693z"/>
	</g>
	<path fill="#231815" d="M47.918,91.725c0.323-1.472,0.878-3.177,0.369-4.608c-0.486-1.362-1.898-1.738-3.27-1.813
		c0.289-1.477-0.168-3.147-1.141-4.288c-1.209-1.424-3.164-1.688-4.949-1.385c-0.32-2.517-1.477-4.798-3.98-5.752
		c-2.237-0.853-4.395,0.429-5.861,2.075c-2.418-3.707-7.976-3.1-10.278,0.598c-1.264-1.463-3.087-2.143-5.098-1.142
		c-2.245,1.114-3,3.827-2.624,6.151c-2.363-0.374-5.125,0.611-6.011,2.951c-0.474,1.25,0.2,2.787,1.204,3.559
		c0.993,0.764,2.211,0.953,3.433,1.001c-1.107,1.599-1.626,3.592-1.306,5.524c0.187,1.108,0.924,1.982,1.82,2.6
		c1.279,0.881,2.375,0.561,3.614,0.293c0.189,2.118,1.787,3.696,3.96,4.122c1.438,0.281,2.969-0.063,3.984-0.995
		c0.008,0.79-0.018,1.577-0.055,2.351c-0.164,3.46-0.934,10.929-5.369,11.612c-0.025,0.004-0.051,0.012-0.078,0.019
		c-0.621-0.014-1.175,0.743-0.577,1.216c2.028,1.609,5.108,0.873,7.462,0.527c4.182-0.617,8.566,0.457,12.642-0.665
		c0.452-0.125,0.587-0.535,0.495-0.888c0.113-0.363-0.018-0.777-0.495-0.866c-3.182-0.597-5.776-2.704-6.921-5.754
		c-0.91-2.422,0.071-4.256,1.611-6.012c0.508-0.579,1.381-1.513,2.433-2.474c0.679,4.396,8.165,4.714,9.501,0.254
		c2.64,0.766,5.234-0.692,6.566-2.991C50.15,94.952,49.65,92.857,47.918,91.725z M28.846,101.821
		c-3.868,4.639-0.545,10.603,4.318,12.807c-2.69,0.216-5.461-0.269-8.152-0.027c-1.697,0.152-4.495,1.073-6.589,0.802
		c1.927-1.139,2.979-3.552,3.65-5.627c1.195-3.705,1.429-7.881,1.013-11.729c-0.153-1.381-0.441-2.736-1.02-4.004
		c-0.699-1.536-2.678-2.119-4.098-2.737c-0.913-0.398-3.029-2.24-0.646-1.864c1.004,0.158,1.888,0.727,2.73,1.25
		c2.947,1.822,4.309,5.198,4.637,8.502c0.076,0.785,1.123,0.918,1.407,0.386c0.366-0.006,0.727-0.243,0.727-0.714
		c0-4.244,0.034-8.483,0.29-12.72c1.92,0.858,0.953,10.492,0.865,12.534c-0.031,0.115-0.027,0.232,0.008,0.344
		c0.063,0.336,0.332,0.518,0.627,0.549c0.205,0.038,0.427-0.006,0.621-0.185c1.672-1.521,3.217-3.16,4.967-4.595
		c1.117-0.918,2.369-1.674,3.75-2.117c0.721-0.232,1.467-0.212,2.199-0.064c1.339,0.271,0.936,1.4,0.429,2.323
		C36.631,93.398,30.918,99.339,28.846,101.821z M47.432,96.671c-1.014,1.563-2.941,2.371-4.722,1.809
		c-0.235-0.074-0.433-0.034-0.582,0.069c-0.39-0.188-0.894-0.089-0.985,0.447c-0.652,3.791-7.169,3.545-6.762-0.461
		c0.004-0.032,0-0.059,0-0.088c2.105-1.663,4.518-2.943,6.115-1.902c0.34,0.222,0.813,0.067,1.013-0.266
		c0.704-1.181,1.013-2.288,1.087-3.658c0.012-0.263-0.153-0.504-0.367-0.638c-4.685-2.963-9.216,1.668-12.643,5.025
		c0.387-4.396,1.207-13.501-3.369-12.328c-0.333,0.085-0.521,0.386-0.542,0.712c-0.226,3.367-0.298,6.736-0.321,10.108
		c-1.186-3.398-3.575-6.291-7.234-7.393c-3.766-1.134-4.581,2.711-1.39,4.251c2.111,1.019,3.889,1.401,4.536,3.842
		c0.159,0.583,0.27,1.181,0.35,1.785c-0.085,0.086-0.154,0.199-0.186,0.353c-0.344,1.648-1.996,2.091-3.487,1.798
		c-1.597-0.313-2.558-1.486-2.628-2.996c0.509-0.404,0.384-1.4-0.4-1.315c-0.078,0.008-0.153,0.021-0.232,0.032
		c-0.121-0.004-0.248,0.021-0.363,0.069c-0.679,0.15-1.336,0.392-2.037,0.452c-1.246,0.106-2.186-1.135-2.445-2.175
		c-0.434-1.695,0.521-3.79,1.658-5.003c0.205-0.219,0.24-0.471,0.177-0.694c0.079-0.414-0.157-0.896-0.699-0.896
		c-1.648-0.002-5.165-0.098-4.47-2.705c0.498-1.864,3.439-2.198,4.931-1.757c0.408,0.121,0.712-0.097,0.842-0.398
		c0.296-0.132,0.509-0.435,0.394-0.84c-0.523-1.87-0.123-3.951,1.563-5.094c1.593-1.08,3.008-0.055,3.884,1.283
		c-0.053,0.334,0.138,0.584,0.399,0.699c0.011,0.023,0.021,0.045,0.034,0.066c0.412,0.861,1.683,0.11,1.275-0.746
		c-0.028-0.061-0.062-0.117-0.091-0.177c1.568-3.599,7.104-4.412,8.596-0.239c0.307,0.855,1.632,0.535,1.453-0.288
		c1.146-1.553,2.779-2.684,4.771-2.111c2.018,0.579,2.796,2.988,2.949,4.832c0.025,0.302,0.195,0.507,0.41,0.616
		c0.121,0.227,0.345,0.41,0.633,0.448c0,0,0.017,0.002,0.025,0.003c0.18,0.023,0.322-0.012,0.432-0.084
		c1.117-0.221,2.599-0.21,3.453,0.529c1.005,0.868,1.428,2.428,1.014,3.666c-0.566,0.048-0.783,0.614-0.642,1.031
		c-0.058,0.057-0.115,0.115-0.181,0.166c-0.744,0.595,0.309,1.635,1.046,1.045c0.299-0.237,0.538-0.514,0.74-0.813
		c1.073-0.024,2.403,0.1,2.545,1.177c0.141,1.074-0.217,2.241-0.466,3.321c-0.529,0.206-0.632,1.171,0.076,1.435
		C48.512,93.396,48.407,95.167,47.432,96.671z"/>
	<g>
		<g>
			<path d="M278.481,71.704c4.216,0.88,8.381,0.522,12.623,0.026c0.949-0.111,0.96-1.612,0-1.5c-4.1,0.479-8.143,0.88-12.225,0.026
				C277.937,70.061,277.535,71.506,278.481,71.704L278.481,71.704z"/>
		</g>
	</g>
	<g>
		<g>
			<path d="M279.368,71.998c3.265,3.748,9.774,6.046,11.732-0.088c0.295-0.924-1.154-1.316-1.447-0.398
				c-1.594,4.993-6.827,2.178-9.225-0.574C279.792,70.207,278.736,71.272,279.368,71.998L279.368,71.998z"/>
		</g>
	</g>
	<g>
		<g>
			<path d="M286.518,77.551c2.261,0.482,4.319-0.242,6.092-1.655c0.756-0.603-0.313-1.657-1.061-1.061
				c-1.327,1.059-2.94,1.63-4.633,1.269C285.973,75.902,285.571,77.349,286.518,77.551L286.518,77.551z"/>
		</g>
	</g>
	<g>
		<g>
			<path d="M223.273,63.589c0.873-0.422,1.807-0.664,2.744-0.898c0.938-0.235,0.54-1.683-0.398-1.447
				c-1.068,0.269-2.108,0.569-3.104,1.051C221.646,62.715,222.406,64.008,223.273,63.589L223.273,63.589z"/>
		</g>
	</g>
	<g>
		<g>
			<path d="M221.927,63.628c0.491,1.652,1.213,3.222,1.706,4.872c0.276,0.925,1.725,0.53,1.447-0.398
				c-0.493-1.651-1.216-3.221-1.706-4.872C223.099,62.305,221.651,62.698,221.927,63.628L221.927,63.628z"/>
		</g>
	</g>
	<g>
		<g>
			<path d="M224.556,69.512c1.16-0.248,2.265-0.675,3.409-0.975c0.935-0.246,0.538-1.692-0.398-1.447
				c-1.145,0.301-2.25,0.728-3.409,0.975C223.211,68.267,223.612,69.713,224.556,69.512L224.556,69.512z"/>
		</g>
	</g>
</g>
<g id="_x31_6_x3000_よくある質問_x3000_help">
</g>
<g id="_x31_7_x3000_便利なリンク集_x3000_link">
</g>
<g id="_x31_8_x3000_不動産オーナー様へ_x3000_owner">
</g>
<g id="mouse-over" display="none">
</g>
</svg>
