<?xml version="1.0" encoding="utf-8"?>
<!-- Generator: Adobe Illustrator 16.0.0, SVG Export Plug-In . SVG Version: 6.00 Build 0)  -->
<!DOCTYPE svg PUBLIC "-//W3C//DTD SVG 1.1//EN" "http://www.w3.org/Graphics/SVG/1.1/DTD/svg11.dtd">
<svg version="1.1" xmlns="http://www.w3.org/2000/svg" xmlns:xlink="http://www.w3.org/1999/xlink" x="0px" y="0px" width="226px"
	 height="194px" viewBox="0 0 226 194" enable-background="new 0 0 226 194" xml:space="preserve">
<g id="_x31_0_x3000_特集一覧_x3000_category">
</g>
<g id="_x31_1_x3000_特集個別_x3000_">
</g>
<g id="_x31_2_x3000_サポート_x3000_suport">
</g>
<g id="_x31_3_x3000_住居エリア情報_area">
</g>
<g id="_x31_4_x3000_物件タイプ情報_x3000_style">
</g>
<g id="_x31_5_x3000_内覧_x30FB_入居フロー_x3000_step">
	<g>
		<path d="M148.808,120.691c2.501,1.87-5.94,4.135-8.313,4.18c-8.112,0.434-10.379-8.009-17.458-10.699
			c-17.655-6.954-23.646,13.242-40.346,8.823c13.232,0.014,5.217-13.245,10.279-20.37c5.601-7.503,19.995-8.698,24.47,0.614
			c-0.563-10.027,17.955-10.482,22.379-3.543c5.932,9.103-6.953,17.66,9.071,20.537c-0.62,0.836-1.159,1.212-1.784,2.044"/>
		<g>
			<path d="M148.277,121.222c0.857,0.929-7.024,2.845-7.783,2.899c-4.389,0.314-7.389-2.743-10.226-5.592
				c-4.264-4.279-9.229-6.701-15.367-6.553c-12.088,0.292-19.035,13.317-32.012,10.295c-0.066,0.491-0.133,0.982-0.199,1.474
				c8.001-0.279,8.977-5.408,9.05-12.357c0.067-6.355,2.388-10.675,8.551-13.052c6.076-2.342,13.305-0.594,16.501,5.282
				c0.362,0.665,1.396,0.353,1.397-0.379c0.015-6.116,6.517-7.593,11.483-7.443c5.853,0.176,10.811,3.415,11.086,9.626
				c0.151,3.391-1.435,6.588-0.873,9.988c0.634,3.842,5.751,4.92,8.805,5.547c-0.11-0.418-0.221-0.836-0.331-1.254
				c-0.593,0.684-1.188,1.364-1.784,2.044c-0.635,0.725,0.422,1.79,1.061,1.061c0.597-0.679,1.191-1.36,1.784-2.044
				c0.343-0.395,0.261-1.132-0.331-1.254c-3.794-0.777-8.031-1.803-7.851-6.443c0.088-2.248,0.805-4.475,0.996-6.726
				c0.382-4.475-1.891-8.36-5.794-10.401c-6.556-3.429-19.729-2.135-19.751,7.3c0.466-0.126,0.932-0.252,1.397-0.379
				c-4.667-8.58-16.042-8.624-23.234-3.222c-3.283,2.466-4.297,5.953-4.558,9.876c-0.412,6.211,0.694,12.441-7.604,12.73
				c-0.824,0.028-1.049,1.275-0.199,1.474c6.447,1.501,11.88-0.267,17.422-3.585c7.835-4.69,14.596-8.892,23.882-4.815
				c6.441,2.828,9.292,11.39,17.494,10.233c1.685-0.237,11.195-1.982,8.049-5.391C148.681,119.449,147.622,120.513,148.277,121.222
				L148.277,121.222z"/>
		</g>
	</g>
	<g>
		<g>
			<path d="M94.276,117.843c4.003,10.493,4.001,21.896,5.367,32.912c0.049,0.396,0.304,0.762,0.75,0.75
				c8.807-0.236,17.593-0.119,26.384,0.485c0.966,0.066,0.96-1.434,0-1.5c-4.997-0.344-9.993-0.544-15.001-0.61
				c-2.515-0.034-5.03-0.003-7.544,0.033c-4.034,0.059-3.447-2.071-3.776-5.439c-0.892-9.119-1.436-18.386-4.732-27.029
				C95.382,116.55,93.932,116.938,94.276,117.843L94.276,117.843z"/>
		</g>
	</g>
	<g>
		<g>
			<path d="M132.75,121.724c-0.448,4.745-1.244,9.472-2.083,14.161c-0.697,3.901-1.173,12.04-4.42,14.825
				c-0.735,0.631,0.331,1.687,1.061,1.061c3.174-2.722,3.645-9.525,4.392-13.284c1.099-5.525,2.021-11.149,2.551-16.763
				C134.341,120.761,132.84,120.77,132.75,121.724L132.75,121.724z"/>
		</g>
	</g>
	<g>
		<g>
			<path d="M116.824,127.111c0.198,3.191,0.22,6.395,0.643,9.568c0.184-0.241,0.367-0.482,0.551-0.724
				c-1.811,0.263-3.713,0.596-5.543,0.359c0.241,0.316,0.482,0.633,0.724,0.949c0.232-1.55,0.151-3.114,0.368-4.661
				c0.132-0.945-1.313-1.354-1.447-0.398c-0.217,1.549-0.135,3.112-0.368,4.661c-0.078,0.524,0.202,0.882,0.724,0.949
				c1.961,0.254,4-0.131,5.941-0.412c0.295-0.043,0.59-0.427,0.551-0.724c-0.423-3.174-0.444-6.377-0.643-9.568
				C118.265,126.15,116.765,126.145,116.824,127.111L116.824,127.111z"/>
		</g>
	</g>
	<g>
		<g>
			<path d="M133.351,130.918c1.042-0.228,2.107-0.178,3.15-0.405c-0.316-0.241-0.633-0.482-0.949-0.724
				c0.01,2.587-0.458,5.13-0.913,7.668c0.241-0.184,0.482-0.367,0.724-0.551c-1.119-0.135-2.197-0.028-3.259-0.51
				c-0.874-0.396-1.638,0.896-0.758,1.295c1.333,0.604,2.597,0.543,4.017,0.715c0.305,0.037,0.67-0.254,0.724-0.551
				c0.477-2.666,0.977-5.349,0.966-8.066c-0.002-0.507-0.476-0.827-0.949-0.724c-1.042,0.229-2.107,0.179-3.15,0.405
				C132.007,129.677,132.408,131.123,133.351,130.918L133.351,130.918z"/>
		</g>
	</g>
	<g>
		<g>
			<path d="M106.255,125.291c-0.016,0.074-0.094,0.229,0.016,0.003c-0.063,0.13,0.164-0.169,0.209-0.188
				c0.368,0.149,0.735,0.299,1.103,0.448c-0.001-0.001-0.001-0.002-0.001-0.003c0,0.133,0,0.266,0,0.398
				c0.003-0.007-0.209,0.336-0.126,0.24c0.053-0.062,0.113-0.116,0.173-0.172c0.25-0.234,0.533-0.432,0.813-0.629
				c-0.367-0.282-0.735-0.564-1.103-0.847c-0.025,0.138-0.06,0.273-0.097,0.409c-0.033,0.121-0.074,0.24-0.119,0.357
				c-0.11,0.293-0.154-0.045,0.233-0.027c0.126,0.034,0.252,0.068,0.379,0.103c-0.278-0.208-0.557-0.415-0.835-0.622
				c0.05,0.393,0.101,0.785,0.151,1.178c0.113-0.139,0.217-0.254,0.37-0.347c0.032-0.024,0.07-0.037,0.112-0.04
				c-0.245,0.047-0.436-0.1-0.571-0.439c0-0.133,0-0.266,0-0.398c0.139-0.196,0.148-0.24,0.028-0.131
				c-0.324,0.251-0.262,0.799,0,1.061c0.316,0.316,0.738,0.25,1.061,0c0.54-0.419,0.495-1.355-0.239-1.541
				c-0.698-0.176-1.394,0.252-1.821,0.775c-0.329,0.402-0.261,0.871,0.151,1.178c0.505,0.376,1.033,0.96,1.712,0.611
				c0.593-0.306,0.817-1.119,0.932-1.728c0.108-0.581-0.512-1.262-1.103-0.847c-0.494,0.348-1.785,1.057-1.548,1.858
				c0.148,0.503,0.658,0.644,1.102,0.448c0.252-0.111,0.412-0.46,0.465-0.711C107.899,124.746,106.454,124.345,106.255,125.291
				L106.255,125.291z"/>
		</g>
	</g>
	<g>
		<g>
			<path d="M122,125.084c-0.153-0.027-0.307-0.056-0.46-0.086c-0.078-0.016-0.156-0.033-0.233-0.054
				c-0.155-0.054-0.125-0.027,0.092,0.08c0.073,0.177,0.146,0.354,0.22,0.53c-0.001-0.011-0.002-0.021-0.004-0.031
				c-0.034,0.126-0.068,0.252-0.103,0.378c-0.199,0.315-0.253,0.202,0.112,0.09c-0.133,0-0.266,0-0.398,0
				c0.224,0.055-0.065-0.037-0.079-0.19c0.008,0.093,0.001,0.094-0.033,0.226c-0.008,0.03-0.118,0.324-0.053,0.173
				c-0.021,0.049-0.045,0.098-0.07,0.146c0.466,0.127,0.932,0.253,1.397,0.379c0.016-0.263-0.063-0.513-0.177-0.747
				c-0.048-0.1-0.1-0.196-0.152-0.293c-0.135-0.248,0.019,0.011-0.104,0.114c0.647-0.551-0.209-1.661-0.909-1.178
				c-0.059,0.041-0.118,0.081-0.178,0.122c-0.217,0.146-0.123-0.023,0.126,0.006c0.178,0.073,0.354,0.146,0.531,0.22
				c0.443,0.365,0.154,0.524,0.174,0.38c0.02-0.141,0.048-0.281,0.073-0.422c-0.367,0.149-0.735,0.299-1.103,0.448
				c0.185,0.14,0.362,0.285,0.531,0.443c0.044,0.042,0.085,0.085,0.125,0.131c-0.267-0.295,0.077-0.909,0.453-0.945
				c-0.294,0.028-0.379-0.027-0.695-0.085c-0.945-0.171-1.35,1.275-0.398,1.447c0.586,0.105,1.31,0.311,1.803-0.142
				c0.849-0.78-0.536-1.748-1.061-2.145c-0.369-0.279-1.022,0.004-1.103,0.448c-0.076,0.428-0.296,1.145,0.117,1.483
				c0.477,0.392,0.914,0.213,1.361-0.096c-0.304-0.393-0.606-0.785-0.909-1.178c-0.324,0.276-0.479,0.724-0.366,1.141
				c0.066,0.245,0.369,0.686,0.359,0.846c-0.046,0.747,1.053,1.022,1.397,0.379c0.451-0.843,0.601-2.062-0.464-2.495
				c-0.528-0.215-1.796,0.15-1.707,0.916c0.094,0.804,0.826,0.887,1.487,1.008C122.547,126.703,122.951,125.258,122,125.084
				L122,125.084z"/>
		</g>
	</g>
	<g>
		<g>
			<path d="M97.21,129.751c-0.856,0-1.714,0-2.57,0c-0.435,0-0.716,0.343-0.75,0.75c-0.158,1.906,0.077,3.945,0.313,5.836
				c0.104,0.827,0.247,1.586,1.019,2.047c0.998,0.596,2.471-0.337,3.496-0.4c0.961-0.06,0.967-1.56,0-1.5
				c-0.886,0.055-1.69,0.346-2.547,0.547c-0.607,0.143-0.577-1.704-0.603-1.995c-0.13-1.482-0.301-3.046-0.178-4.534
				c-0.25,0.25-0.5,0.5-0.75,0.75c0.856,0,1.714,0,2.57,0C98.178,131.251,98.178,129.751,97.21,129.751L97.21,129.751z"/>
		</g>
	</g>
	<g>
		<g>
			<path d="M116.146,138.811c-1.867-0.129-3.727,1.146-4.21,2.969c-0.529,2,1.447,3.461,3.242,3.555
				c3.365,0.177,5.172-5.405,1.452-6.307c-0.939-0.228-1.339,1.219-0.398,1.447c1.99,0.481,0.676,3.215-0.878,3.356
				c-1.035,0.095-2.219-0.719-1.925-1.827c0.3-1.135,1.638-1.768,2.717-1.693C117.112,140.377,117.105,138.877,116.146,138.811
				L116.146,138.811z"/>
		</g>
	</g>
	<g>
		<g>
			<path d="M114.759,188.716c-0.366-5.79-0.729-11.575-0.825-17.378c-0.106-6.34-0.446-13.91,2.403-19.751
				c0.423-0.866-0.871-1.627-1.295-0.758c-2.44,5.002-2.496,11.06-2.607,16.506c-0.146,7.133,0.374,14.268,0.824,21.381
				C113.319,189.676,114.82,189.683,114.759,188.716L114.759,188.716z"/>
		</g>
	</g>
	<g>
		<g>
			<path d="M119.521,151.024c8.047,10.539,8.296,26.681,7.734,39.371c-0.043,0.968,1.457,0.964,1.5,0
				c0.57-12.886,0.246-29.407-7.939-40.129C120.237,149.509,118.934,150.255,119.521,151.024L119.521,151.024z"/>
		</g>
	</g>
	<g>
		<path fill="#FFFFFF" d="M179.66,122.575c-12.723-1.164-18.807-5.816-19.913-19.194c-1.107-11.052,2.213-18.613,14.382-19.777
			c22.681-1.745,26,30.827,6.64,38.972"/>
		<g>
			<path d="M179.66,121.825c-4.944-0.511-9.907-1.478-13.782-4.797c-3.872-3.317-4.91-8.855-5.381-13.647
				c-0.463-4.713-0.259-9.543,2.384-13.622c3.271-5.052,10.875-6.032,16.313-5.188c8.572,1.332,13.162,9.494,13.485,17.522
				c0.344,8.545-4.554,16.351-12.29,19.834c-0.881,0.396-0.117,1.688,0.758,1.295c17.587-7.918,17.701-38.218-3.762-40.381
				c-5.396-0.544-11.387,1.194-15.088,5.236c-3.678,4.017-3.731,10.238-3.301,15.303c0.463,5.445,1.82,10.778,5.82,14.708
				c3.842,3.774,9.731,4.708,14.843,5.236C180.622,123.425,180.612,121.924,179.66,121.825L179.66,121.825z"/>
		</g>
	</g>
	<g>
		<path fill="#FFFFFF" d="M74.074,88.455c-8.446,0.805-16.9-9.256-15.693-17.707c1.609-9.657,16.097-12.072,24.145-10.061
			c7.647,2.013,10.866,11.269,9.659,18.512c-1.207,7.646-10.058,9.256-17.304,9.256"/>
		<g>
			<path d="M74.074,87.705c-9.119,0.294-18.106-10.71-14.059-19.533c2.795-6.092,11.638-7.433,17.499-7.379
				c8.783,0.081,13.696,6.462,14.161,14.861c0.548,9.924-8.887,11.949-16.795,12.051c-0.967,0.013-0.968,1.513,0,1.5
				c9.368-0.12,18.234-2.827,18.295-13.551c0.053-9.539-6.461-15.925-15.661-16.361c-7.838-0.371-17.954,2.655-19.857,11.256
				c-2.027,9.165,7.614,18.939,16.417,18.656C75.039,89.174,75.042,87.674,74.074,87.705L74.074,87.705z"/>
		</g>
	</g>
	<g>
		<path fill="#FFFFFF" d="M48.628,143.631c-12.838,0.74-21.899-1.483-27.185-14.098c-3.775-9.646-6.042-23.002,4.528-28.937
			c26.428-14.84,53.613,31.904,23.407,43.034"/>
		<g>
			<path d="M48.628,142.881c-6.39,0.315-12.838,0.134-18.466-3.25c-6.01-3.612-8.648-10.988-10.229-17.432
				c-1.796-7.322-1.228-15.443,5.254-20.238c4.577-3.385,10.827-4.129,16.242-2.89c19.654,4.498,29.605,35.288,7.751,43.836
				c-0.891,0.349-0.504,1.8,0.398,1.447c24.669-9.65,11.999-44.057-10.399-47.219c-5.32-0.751-11.872,0.817-15.954,4.427
				c-5.476,4.842-6.231,11.632-5.23,18.536c1.081,7.464,4.295,15.342,10.346,20.082c5.646,4.423,13.479,4.536,20.288,4.2
				C49.591,144.333,49.595,142.833,48.628,142.881L48.628,142.881z"/>
		</g>
	</g>
	<g>
		<path fill="#FFFFFF" d="M131.288,76.426c-32.819-1.79-35.203-53.109,0-50.125c13.726,1.193,29.239,8.354,29.239,22.676
			c0,16.11-10.739,29.239-28.046,27.449"/>
		<g>
			<path d="M131.288,75.676c-11.756-0.837-20.855-8.492-23.898-19.839c-2.701-10.075,0.723-21.57,10.267-26.591
				c12.385-6.515,33.355-0.181,40.178,11.726c4.172,7.281,1.517,17.675-2.581,24.367c-4.864,7.942-13.845,11.056-22.771,10.337
				c-0.965-0.078-0.957,1.423,0,1.5c18.096,1.457,31.499-14.423,28.374-32.239c-2.873-16.38-27.846-22.612-41.426-18.063
				c-11.279,3.779-15.646,16.01-13.99,26.951c1.989,13.148,12.809,22.424,25.849,23.352
				C132.254,77.244,132.247,75.744,131.288,75.676L131.288,75.676z"/>
		</g>
	</g>
	<g>
		<path fill="#FFFFFF" d="M56.099,134.627c7.308,0.914,7.737,1.358,13.24,2.046c-4.117-4.986-5.157-4.142-8.405-7.566"/>
		<g>
			<path d="M56.099,135.377c4.435,0.566,8.808,1.477,13.24,2.046c0.719,0.093,0.896-0.848,0.53-1.28
				c-2.514-2.977-5.723-4.822-8.405-7.566c-0.677-0.692-1.737,0.369-1.061,1.061c2.678,2.739,5.899,4.6,8.405,7.566
				c0.177-0.427,0.354-0.854,0.53-1.28c-4.432-0.568-8.807-1.479-13.24-2.046C55.141,133.755,55.152,135.256,56.099,135.377
				L56.099,135.377z"/>
		</g>
	</g>
	<g>
		<path fill="#FFFFFF" d="M81.194,85.735c2.413,1.61,3.599,3.37,5.757,5.134c0.403-2.414,0.403-5.23,0-7.646"/>
		<g>
			<path d="M80.815,86.383c2.078,1.441,3.68,3.396,5.605,5.017c0.38,0.32,1.16,0.279,1.254-0.331c0.411-2.686,0.411-5.358,0-8.044
				c-0.146-0.954-1.592-0.548-1.447,0.398c0.368,2.399,0.368,4.848,0,7.247c0.418-0.11,0.836-0.221,1.254-0.331
				c-2.026-1.704-3.722-3.733-5.908-5.251C80.776,84.535,80.027,85.836,80.815,86.383L80.815,86.383z"/>
		</g>
	</g>
	<g>
		<path fill="#FFFFFF" d="M128.902,72.846c-0.598,4.178,0,7.757,2.982,10.74c2.388-2.983,2.982-7.16,4.774-10.74"/>
		<g>
			<path d="M128.152,72.846c-0.544,4.254,0.197,8.092,3.202,11.271c0.361,0.383,0.899,0.22,1.178-0.151
				c2.394-3.195,3.081-7.193,4.774-10.74c0.415-0.869-0.879-1.63-1.295-0.758c-1.69,3.541-2.391,7.559-4.774,10.74
				c0.393-0.05,0.785-0.101,1.178-0.151c-2.744-2.903-3.254-6.369-2.763-10.21C129.774,71.888,128.273,71.9,128.152,72.846
				L128.152,72.846z"/>
		</g>
	</g>
	<g>
		<path fill="#FFFFFF" d="M163.381,113.197c-2.082,2.084-4.168,3.646-6.252,5.731c3.127,0.52,6.773-0.521,10.42-1.043"/>
		<g>
			<path d="M162.851,112.667c-2.021,1.979-4.23,3.752-6.252,5.731c-0.516,0.505-0.077,1.201,0.53,1.28
				c3.567,0.464,7.113-0.536,10.619-1.069c0.954-0.146,0.547-1.591-0.398-1.447c-3.384,0.516-6.779,1.465-10.221,1.017
				c0.177,0.427,0.354,0.854,0.53,1.28c2.021-1.979,4.23-3.752,6.252-5.731C164.604,113.05,163.542,111.99,162.851,112.667
				L162.851,112.667z"/>
		</g>
	</g>
	<g>
		<path d="M34.589,114.977c-0.327-2.519,1.371-3.991-1.789-4.604c-4.706,3.181-11.124,13.811-3.322,13.156
			c3.122-0.159,4.381-5.698,4.991-8.851"/>
		<g>
			<path d="M35.339,114.977c-0.087-1.216,0.643-3.172-0.213-4.228c-1.069-1.319-2.402-1.284-3.611-0.345
				c-2.894,2.246-5.569,5.964-6.332,9.578c-0.63,2.983,1.664,4.678,4.494,4.271c3.954-0.569,4.895-6.229,5.516-9.375
				c0.187-0.944-1.26-1.347-1.447-0.398c-0.5,2.532-1.021,5.369-2.698,7.418c-0.873,1.066-2.898,1.293-4.003,0.432
				c-0.81-0.632-0.425-2.011-0.203-2.82c0.635-2.308,2.259-4.445,3.813-6.206c0.475-0.537,1.785-2.246,2.639-2.035
				c1.212,0.299,0.482,2.821,0.546,3.709C33.907,115.936,35.408,115.942,35.339,114.977L35.339,114.977z"/>
		</g>
	</g>
	<g>
		<g>
			<path d="M33.07,114.44c3.217-0.042,6.44-0.556,9.563-1.313c0.939-0.229,0.541-1.675-0.398-1.447
				c-2.999,0.729-6.074,1.221-9.164,1.261C32.104,112.953,32.103,114.453,33.07,114.44L33.07,114.44z"/>
		</g>
	</g>
	<g>
		<path d="M41.089,110.614c1.38,4.829,7.579,10.655,10.044,9.106c9.729-1.856-3.352-14.835-8.975-11.733
			c-1.379,1.38-0.85,1.686-0.85,3.065"/>
		<g>
			<path d="M40.365,110.813c1.166,3.66,5.131,9.675,9.508,9.894c3.045,0.152,5.974-2.047,5.378-5.218
				c-0.658-3.503-4.461-6.439-7.477-7.844c-1.541-0.718-3.224-1.072-4.904-0.733c-2.161,0.436-2.397,2.324-2.312,4.141
				c0.046,0.963,1.546,0.967,1.5,0c-0.082-1.726,0.509-2.815,2.365-2.786c1.31,0.021,2.603,0.632,3.726,1.247
				c2.257,1.236,4.516,3.306,5.47,5.744c1.017,2.597-1.973,4.465-4.302,3.802c-3.461-0.984-6.48-5.426-7.505-8.645
				C41.52,109.497,40.071,109.89,40.365,110.813L40.365,110.813z"/>
		</g>
	</g>
	<g>
		<g>
			<path d="M30.453,122.808c-0.099,7.911,4.136,15.615,13.048,14.196c8.116-1.292,11.098-9.805,8.355-16.792
				c-0.35-0.89-1.801-0.503-1.447,0.398c2.489,6.342,0.168,13.027-6.773,14.835c-8.091,2.107-11.767-5.931-11.683-12.638
				C31.965,121.84,30.465,121.841,30.453,122.808L30.453,122.808z"/>
		</g>
	</g>
	<g>
		<g>
			<path d="M41.408,126.622c0.012,1.41-0.104,3.748-1.725,4.326c-1.143,0.408-2.178-0.567-2.673-1.49
				c-0.458-0.853-1.753-0.095-1.295,0.758c0.847,1.576,2.546,2.69,4.366,2.18c2.385-0.67,2.843-3.701,2.826-5.773
				C42.9,125.655,41.4,125.654,41.408,126.622L41.408,126.622z"/>
		</g>
	</g>
	<g>
		<g>
			<path d="M41.617,127.47c0.738,1.593,1.862,3.188,3.755,3.325c1.592,0.115,2.791-1.394,3.395-2.666
				c0.412-0.869-0.881-1.631-1.295-0.758c-0.411,0.868-1.025,1.893-2.1,1.924c-1.241,0.036-2.038-1.673-2.46-2.583
				C42.506,125.835,41.213,126.598,41.617,127.47L41.617,127.47z"/>
		</g>
	</g>
	<g>
		<g>
			<path d="M45.058,123.704c1.935,0,1.935-3,0-3S43.123,123.704,45.058,123.704L45.058,123.704z"/>
		</g>
	</g>
	<g>
		<g>
			<path d="M35.532,125.499c1.935,0,1.935-3,0-3S33.598,125.499,35.532,125.499L35.532,125.499z"/>
		</g>
	</g>
	<g>
		<g>
			<path d="M80.27,73.012c3.48-4.416-6.691-6.713-8.915-3.209c-1.252,1.974-0.815,6.342,2.105,6.646
				c1.495,0.156,2.991-0.045,4.477,0.23c1.768,0.328,3.042,2.348,2.285,4.013c-0.82,1.805-3.649,1.548-5.193,1.328
				c-1.935-0.274-2.688-1.198-2.994-2.997c-0.162-0.952-1.607-0.547-1.447,0.398c0.185,1.083,0.309,2.554,1.394,3.174
				c1.523,0.871,3.362,1.055,5.09,1.072c2.991,0.028,5.47-2.141,4.727-5.2c-0.313-1.29-1.433-2.246-2.521-2.879
				c-2.113-1.229-5.991,0.624-6.966-2.214c-0.825-2.399,0.977-3.62,3.091-3.734c1.027-0.055,5.238,0.496,3.809,2.311
				C78.617,72.702,79.671,73.771,80.27,73.012L80.27,73.012z"/>
		</g>
	</g>
	<g>
		<g>
			<path d="M73.627,67.042c0,5.925,0,11.849,0,17.773c0,0.968,1.5,0.968,1.5,0c0-5.925,0-11.849,0-17.773
				C75.127,66.074,73.627,66.074,73.627,67.042L73.627,67.042z"/>
		</g>
	</g>
	<g>
		<g>
			<path d="M75.925,66.735c-0.302,6.11,0.256,12.202,0.306,18.312c0.008,0.967,1.508,0.968,1.5,0
				c-0.05-6.109-0.607-12.201-0.306-18.312C77.473,65.768,75.973,65.772,75.925,66.735L75.925,66.735z"/>
		</g>
	</g>
	<g>
		<g>
			<path d="M132.339,32.946c-1.245,3.832-5.138,6.031-8.315,8.127c-3.637,2.397-7.118,5.013-10.88,7.217
				c-0.833,0.488-0.079,1.785,0.758,1.295c4.339-2.543,8.39-5.557,12.575-8.34c3.031-2.016,6.143-4.313,7.31-7.9
				C134.086,32.422,132.637,32.03,132.339,32.946L132.339,32.946z"/>
		</g>
	</g>
	<g>
		<g>
			<path d="M113.182,50.142c13.783,0,27.567-0.005,41.351-0.113c0.967-0.008,0.968-1.508,0-1.5
				c-13.783,0.108-27.567,0.113-41.351,0.113C112.214,48.642,112.214,50.142,113.182,50.142L113.182,50.142z"/>
		</g>
	</g>
	<g>
		<g>
			<path d="M132.986,33.904c2.613,3.013,6.581,4.093,9.664,6.532c3.669,2.903,7.936,5.526,11.239,8.804
				c0.688,0.682,1.748-0.379,1.061-1.061c-3.09-3.066-6.98-5.141-10.271-7.983c-3.263-2.817-7.821-4.112-10.632-7.353
				C133.412,32.111,132.355,33.178,132.986,33.904L132.986,33.904z"/>
		</g>
	</g>
	<g>
		<g>
			<path d="M119.842,49.421c-0.623,1.863-0.516,3.847-0.443,5.786c0.13,3.485-0.246,6.807-0.919,10.231
				c-0.185,0.944,1.261,1.348,1.447,0.398c0.547-2.79,0.984-5.533,1.048-8.379c0.057-2.544-0.514-5.166,0.314-7.639
				C121.597,48.899,120.147,48.508,119.842,49.421L119.842,49.421z"/>
		</g>
	</g>
	<g>
		<g>
			<path d="M119.317,66.729c10.535,0.044,21.064,0.696,31.581-0.228c0.956-0.084,0.964-1.585,0-1.5
				c-10.517,0.924-21.046,0.271-31.581,0.228C118.35,65.225,118.351,66.725,119.317,66.729L119.317,66.729z"/>
		</g>
	</g>
	<g>
		<g>
			<path d="M149.693,49.62c-0.023,5.279,0.908,10.509,0.566,15.791c-0.063,0.966,1.438,0.96,1.5,0
				c0.342-5.282-0.59-10.512-0.566-15.791C151.197,48.652,149.697,48.653,149.693,49.62L149.693,49.62z"/>
		</g>
	</g>
	<g>
		<g>
			<path d="M146.396,65.665c-0.806-3.68,0.282-7.488-0.795-11.133c-0.274-0.926-1.722-0.531-1.447,0.398
				c1.07,3.618-0.009,7.456,0.795,11.133C145.155,67.009,146.602,66.607,146.396,65.665L146.396,65.665z"/>
		</g>
	</g>
	<g>
		<g>
			<path d="M144.309,53.754c-1.478,0-2.954,0-4.432,0c-0.968,0-0.968,1.5,0,1.5c1.478,0,2.954,0,4.432,0
				C145.276,55.254,145.276,53.754,144.309,53.754L144.309,53.754z"/>
		</g>
	</g>
	<g>
		<g>
			<path d="M138.104,54.504c0.099,4.014,0.016,8.029,0.114,12.043c0.023,0.966,1.523,0.968,1.5,0
				c-0.099-4.014-0.016-8.029-0.114-12.043C139.581,53.538,138.081,53.536,138.104,54.504L138.104,54.504z"/>
		</g>
	</g>
	<g>
		<g>
			<path d="M123.338,53.027c-0.008,2.467-0.089,4.932,0.227,7.385c0.121,0.945,1.623,0.957,1.5,0
				c-0.315-2.453-0.234-4.918-0.227-7.385C124.841,52.06,123.341,52.061,123.338,53.027L123.338,53.027z"/>
		</g>
	</g>
	<g>
		<g>
			<path d="M124.314,53.664c2.879-0.017,5.754-0.203,8.633-0.113c0.968,0.03,0.965-1.47,0-1.5c-2.879-0.09-5.754,0.097-8.633,0.113
				C123.348,52.17,123.347,53.67,124.314,53.664L124.314,53.664z"/>
		</g>
	</g>
	<g>
		<g>
			<path d="M132.197,52.687c0.021,2.544,0.315,5.11-0.085,7.639c-0.149,0.946,1.296,1.352,1.447,0.398
				c0.423-2.674,0.161-5.346,0.138-8.037C133.689,51.72,132.189,51.719,132.197,52.687L132.197,52.687z"/>
		</g>
	</g>
	<g>
		<g>
			<path d="M124.314,61.274c2.953,0,5.906,0,8.859,0c0.968,0,0.968-1.5,0-1.5c-2.953,0-5.906,0-8.859,0
				C123.347,59.774,123.347,61.274,124.314,61.274L124.314,61.274z"/>
		</g>
	</g>
	<g>
		<g>
			<path fill="#FBB03B" d="M2.354,156.09c8.183-0.211,15.891-2.863,23.914-4.15c0.953-0.153,0.548-1.599-0.398-1.447
				c-7.892,1.267-15.464,3.891-23.516,4.098C1.388,154.614,1.386,156.115,2.354,156.09L2.354,156.09z"/>
		</g>
	</g>
	<g>
		<g>
			<path fill="#FBB03B" d="M6.278,83.89c6.255,1.111,12.366,2.974,18.757,3.12c0.968,0.022,0.966-1.478,0-1.5
				c-6.257-0.144-12.236-1.979-18.358-3.067C5.731,82.274,5.327,83.72,6.278,83.89L6.278,83.89z"/>
		</g>
	</g>
	<g>
		<g>
			<path fill="#FBB03B" d="M48.373,24.013c6.187,3.093,12.373,6.185,18.558,9.279c0.862,0.432,1.623-0.862,0.758-1.295
				c-6.186-3.095-12.372-6.187-18.558-9.279C48.268,22.286,47.508,23.58,48.373,24.013L48.373,24.013z"/>
		</g>
	</g>
	<g>
		<g>
			<path fill="#FBB03B" d="M135.642,3.774c-0.001,4.436,0.011,8.862-1.006,13.206c-0.22,0.941,1.227,1.34,1.447,0.398
				c1.046-4.475,1.058-9.032,1.059-13.604C137.142,2.807,135.642,2.807,135.642,3.774L135.642,3.774z"/>
		</g>
	</g>
	<g>
		<g>
			<path fill="#FBB03B" d="M178.664,61.233c11.754-0.456,20.052-9.8,31.131-12.398c0.941-0.222,0.542-1.667-0.398-1.447
				c-10.917,2.561-19.194,11.898-30.732,12.346C177.7,59.771,177.696,61.271,178.664,61.233L178.664,61.233z"/>
		</g>
	</g>
	<g>
		<g>
			<path fill="#FBB03B" d="M194.129,123.096c10.113,0.313,18.919,5.959,28.871,7.219c0.958,0.121,0.946-1.38,0-1.5
				c-9.962-1.262-18.727-6.905-28.871-7.219C193.161,121.565,193.164,123.066,194.129,123.096L194.129,123.096z"/>
		</g>
	</g>
	<g>
		<g>
			<path fill="#FBB03B" d="M165.914,155.987c9.776,4.256,14.18,14.653,22.681,20.621c0.794,0.558,1.543-0.744,0.758-1.295
				c-8.524-5.983-12.848-16.341-22.681-20.621C165.794,154.311,165.029,155.603,165.914,155.987L165.914,155.987z"/>
		</g>
	</g>
	<g id="Wi-Fi_2_">
		<g>
			<path fill-rule="evenodd" clip-rule="evenodd" fill="#231815" d="M177.311,108.006c-1.22,0-2.209,0.989-2.209,2.208
				c0,1.22,0.989,2.209,2.209,2.209c1.217,0,2.207-0.989,2.207-2.209C179.518,108.995,178.527,108.006,177.311,108.006z
				 M189.141,100.287c-2.954-3.514-7.264-5.528-11.83-5.528s-8.877,2.015-11.83,5.528c-0.393,0.466-0.332,1.163,0.135,1.556
				c0.207,0.173,0.458,0.258,0.709,0.258c0.315,0,0.627-0.133,0.845-0.394c2.531-3.013,6.229-4.74,10.142-4.74
				c3.911,0,7.607,1.728,10.139,4.74c0.219,0.261,0.531,0.394,0.847,0.394c0.249,0,0.502-0.085,0.709-0.258
				C189.473,101.45,189.531,100.753,189.141,100.287z M177.311,99.176c-3.262,0-6.342,1.438-8.45,3.946
				c-0.393,0.468-0.333,1.164,0.134,1.557c0.207,0.173,0.458,0.258,0.709,0.258c0.315,0,0.633-0.133,0.849-0.394
				c1.687-2.007,4.151-3.16,6.759-3.16s5.07,1.153,6.758,3.16c0.22,0.261,0.531,0.394,0.85,0.394c0.25,0,0.5-0.085,0.71-0.258
				c0.463-0.393,0.523-1.089,0.132-1.557C183.65,100.613,180.571,99.176,177.311,99.176z M177.311,103.591
				c-1.959,0-3.806,0.863-5.071,2.368c-0.392,0.467-0.332,1.163,0.138,1.556c0.208,0.173,0.459,0.258,0.708,0.258
				c0.316,0,0.627-0.133,0.845-0.393c0.845-1.005,2.075-1.581,3.381-1.581c1.303,0,2.535,0.576,3.379,1.581
				c0.218,0.26,0.532,0.393,0.846,0.393c0.25,0,0.503-0.085,0.709-0.258c0.468-0.393,0.526-1.089,0.136-1.556
				C181.115,104.454,179.267,103.591,177.311,103.591z"/>
		</g>
	</g>
</g>
<g id="_x31_6_x3000_よくある質問_x3000_help">
</g>
<g id="_x31_7_x3000_便利なリンク集_x3000_link">
</g>
<g id="_x31_8_x3000_不動産オーナー様へ_x3000_owner">
</g>
<g id="mouse-over" display="none">
</g>
</svg>
