<?xml version="1.0" encoding="utf-8"?>
<!-- Generator: Adobe Illustrator 16.0.0, SVG Export Plug-In . SVG Version: 6.00 Build 0)  -->
<!DOCTYPE svg PUBLIC "-//W3C//DTD SVG 1.1//EN" "http://www.w3.org/Graphics/SVG/1.1/DTD/svg11.dtd">
<svg version="1.1" id="Layer_1" xmlns="http://www.w3.org/2000/svg" xmlns:xlink="http://www.w3.org/1999/xlink" x="0px" y="0px"
	 width="116.833px" height="100.665px" viewBox="0 0 116.833 100.665" enable-background="new 0 0 116.833 100.665"
	 xml:space="preserve">
<path fill="none" stroke="#FFFFFF" stroke-miterlimit="10" d="M84.837,0.755c-7.717,0-15.133,2.869-20.89,8.084
	c-2.186,1.98-4.06,4.229-5.594,6.712c-1.531-2.483-3.406-4.731-5.599-6.714c-5.751-5.212-13.169-8.082-20.883-8.082
	c-17.181,0-31.157,13.978-31.157,31.156c0,11.596,3.607,20.751,12.063,30.612c12.276,14.33,43.365,36.203,44.681,37.128
	c0.262,0.188,0.583,0.283,0.896,0.283s0.628-0.095,0.895-0.283c1.317-0.925,32.401-22.798,44.685-37.128
	c8.451-9.861,12.06-19.017,12.06-30.612C115.992,14.732,102.014,0.755,84.837,0.755z"/>
</svg>
