<?xml version="1.0" encoding="utf-8"?>
<!-- Generator: Adobe Illustrator 16.0.0, SVG Export Plug-In . SVG Version: 6.00 Build 0)  -->
<!DOCTYPE svg PUBLIC "-//W3C//DTD SVG 1.1//EN" "http://www.w3.org/Graphics/SVG/1.1/DTD/svg11.dtd">
<svg version="1.1" xmlns="http://www.w3.org/2000/svg" xmlns:xlink="http://www.w3.org/1999/xlink" x="0px" y="0px"
	 width="16.564px" height="25.738px" viewBox="0 0 16.564 25.738" enable-background="new 0 0 16.564 25.738" xml:space="preserve">
<g id="_x31_0_x3000_特集一覧_x3000_category">
</g>
<g id="_x31_1_x3000_特集個別_x3000_">
</g>
<g id="_x31_2_x3000_サポート_x3000_suport">
</g>
<g id="_x31_3_x3000_住居エリア情報_area">
</g>
<g id="_x31_4_x3000_物件タイプ情報_x3000_style">
</g>
<g id="_x31_5_x3000_内覧_x30FB_入居フロー_x3000_step">
</g>
<g id="_x31_6_x3000_よくある質問_x3000_help">
	<g>
		<path fill="#FFFFFF" stroke="#231815" stroke-miterlimit="10" d="M15.897,8.067c-0.417,1.665-1.473,3.398-3.195,5.167
			c-0.166,0.152-0.363,0.334-0.595,0.547c-0.824,0.759-1.49,1.525-2.002,2.361c-0.646,1.084-1.045,2.242-1.156,3.443
			c-0.372-0.206-1.027-0.486-1.978-0.526c-0.889-0.037-1.53,0.159-1.92,0.365c0.168-1.77,0.713-3.43,1.699-5.007
			c0.646-1.084,1.515-2.095,2.537-3.069c0.197-0.15,0.361-0.303,0.462-0.394c1.061-1.098,1.8-2.115,2.158-3.084
			c0.389-0.968,0.328-1.827-0.122-2.48c-0.356-0.554-1.006-0.962-1.82-1.218C9.557,4.061,9.116,3.979,8.674,3.96
			C8.198,3.941,7.72,3.985,7.303,4.095c-0.769,0.158-1.416,0.481-1.88,0.97C4.857,5.644,4.51,6.423,4.437,7.404L0.539,7.243
			C0.673,5.566,1.272,4.1,2.304,2.968c0.998-1.102,2.362-1.871,3.963-2.217c0.832-0.188,1.694-0.279,2.55-0.244
			c2.66,0.11,5.054,1.288,6.313,3.116C15.996,4.897,16.281,6.464,15.897,8.067z M8.896,23.201c-0.048,1.172-1.039,2.083-2.211,2.035
			c-1.173-0.048-2.082-1.038-2.035-2.21c0.05-1.172,1.039-2.084,2.211-2.035C8.032,21.039,8.944,22.029,8.896,23.201z"/>
	</g>
</g>
<g id="_x31_7_x3000_便利なリンク集_x3000_link">
</g>
<g id="_x31_8_x3000_不動産オーナー様へ_x3000_owner">
</g>
<g id="mouse-over" display="none">
</g>
</svg>
