<?xml version="1.0" encoding="utf-8"?>
<!-- Generator: Adobe Illustrator 16.0.0, SVG Export Plug-In . SVG Version: 6.00 Build 0)  -->
<!DOCTYPE svg PUBLIC "-//W3C//DTD SVG 1.1//EN" "http://www.w3.org/Graphics/SVG/1.1/DTD/svg11.dtd">
<svg version="1.1" id="Layer_1" xmlns="http://www.w3.org/2000/svg" xmlns:xlink="http://www.w3.org/1999/xlink" x="0px" y="0px"
	 width="240px" height="229px" viewBox="0 0 240 229" enable-background="new 0 0 240 229" xml:space="preserve">
<g>
	<g>
		<path fill="none" stroke="#FFFFFF" stroke-width="2" stroke-miterlimit="10" d="M56.192,227c-5.5,0-11.396-4.45-13.102-9.679
			L3.675,96.425C1.969,91.196,4.218,84.236,8.673,81.01L111.901,6.23c4.455-3.226,11.746-3.239,16.203-0.017l103.218,74.623
			c4.457,3.223,6.709,10.135,5.005,15.364l-39.418,121.121c-1.704,5.229-7.599,9.679-13.099,9.679H56.192z"/>
	</g>
	<g>
		<path fill="#FFFFFF" d="M69.083,87.413l2.783-1.86c0.304-0.203,0.55-0.388,0.737-0.553c0.187-0.166,0.333-0.326,0.438-0.482
			c0.105-0.156,0.182-0.325,0.229-0.508c0.047-0.182,0.067-0.393,0.061-0.633c-0.006-0.239-0.047-0.52-0.123-0.839
			c-0.075-0.32-0.213-0.783-0.414-1.39l1.073-0.717l2.055,3.534l-9.55,6.381l-0.276-0.413c0.379-0.383,0.606-0.68,0.682-0.889
			s0.068-0.431-0.021-0.664c-0.09-0.232-0.273-0.558-0.552-0.974l-4.878-7.3c-0.259-0.389-0.466-0.659-0.62-0.813
			s-0.304-0.252-0.452-0.297c-0.147-0.044-0.308-0.05-0.482-0.02c-0.174,0.031-0.449,0.119-0.823,0.263l-0.276-0.413l4.472-2.988
			l0.276,0.413c-0.267,0.276-0.447,0.484-0.542,0.625c-0.095,0.142-0.155,0.285-0.18,0.432c-0.025,0.147,0.003,0.327,0.085,0.542
			c0.082,0.214,0.258,0.523,0.528,0.929L69.083,87.413z"/>
		<path fill="#FFFFFF" d="M79.958,79.043c0.211,0.4,0.383,0.685,0.515,0.853s0.266,0.284,0.401,0.351
			c0.136,0.065,0.3,0.094,0.492,0.084c0.192-0.009,0.481-0.069,0.865-0.181l0.232,0.44l-4.769,2.515l-0.232-0.439
			c0.417-0.342,0.673-0.613,0.77-0.813s0.113-0.421,0.048-0.662c-0.065-0.241-0.214-0.583-0.448-1.026l-4.096-7.766
			c-0.218-0.412-0.396-0.703-0.533-0.872s-0.277-0.282-0.418-0.342c-0.142-0.059-0.301-0.082-0.478-0.069
			c-0.176,0.013-0.458,0.072-0.846,0.177l-0.232-0.44L76,68.336l0.231,0.439c-0.297,0.241-0.501,0.433-0.613,0.576
			s-0.186,0.287-0.22,0.432c-0.035,0.145-0.021,0.326,0.042,0.546c0.063,0.219,0.203,0.535,0.421,0.948L79.958,79.043z"/>
		<path fill="#FFFFFF" d="M90.396,62.25l1.125,2.852l-1.165,0.46c-0.344-0.359-0.648-0.64-0.915-0.84s-0.517-0.334-0.749-0.402
			c-0.233-0.068-0.479-0.084-0.74-0.047s-0.584,0.132-0.972,0.285l-3.482,1.373l2.025,5.137l2.448-0.966
			c0.349-0.137,0.604-0.29,0.767-0.46c0.162-0.169,0.266-0.387,0.313-0.652c0.046-0.266,0.041-0.646-0.017-1.139l1.117-0.441
			l1.571,3.985l-1.117,0.44c-0.288-0.382-0.542-0.654-0.762-0.818s-0.442-0.255-0.664-0.272c-0.223-0.018-0.516,0.045-0.88,0.188
			l-2.449,0.966L87.31,75.6c0.149,0.378,0.296,0.669,0.441,0.874c0.145,0.204,0.307,0.348,0.486,0.43
			c0.179,0.083,0.388,0.114,0.628,0.097c0.24-0.019,0.53-0.063,0.869-0.131l0.183,0.463l-5.277,2.081l-0.183-0.463
			c0.452-0.294,0.736-0.535,0.854-0.724s0.158-0.406,0.12-0.653s-0.148-0.603-0.332-1.068l-3.221-8.168
			c-0.172-0.434-0.316-0.742-0.434-0.925s-0.244-0.312-0.378-0.386s-0.29-0.114-0.467-0.121s-0.463,0.021-0.86,0.082l-0.182-0.462
			L90.396,62.25z"/>
		<path fill="#FFFFFF" d="M105.675,58.537l0.667,2.992l-1.222,0.272c-0.197-0.296-0.389-0.551-0.577-0.766s-0.37-0.389-0.548-0.522
			s-0.364-0.231-0.556-0.292c-0.192-0.062-0.409-0.084-0.65-0.068s-0.523,0.06-0.848,0.132l-3.94,0.879l1.158,5.19l2.668-0.595
			c0.366-0.082,0.643-0.187,0.833-0.315s0.331-0.309,0.424-0.537s0.155-0.568,0.185-1.019l1.172-0.262l0.849,3.805l-1.173,0.261
			c-0.205-0.37-0.4-0.64-0.586-0.81c-0.187-0.17-0.387-0.276-0.602-0.318c-0.214-0.043-0.517-0.021-0.908,0.066l-2.668,0.596
			l1.275,5.716l3.878-0.865c0.407-0.091,0.731-0.192,0.973-0.305c0.241-0.113,0.438-0.258,0.59-0.434
			c0.153-0.176,0.275-0.389,0.368-0.639c0.093-0.249,0.161-0.502,0.204-0.758c0.043-0.256,0.098-0.626,0.164-1.112l1.234-0.275
			l0.539,3.529l-11.547,2.575l-0.108-0.485c0.492-0.22,0.811-0.414,0.957-0.582s0.219-0.377,0.22-0.626
			c0.001-0.25-0.053-0.619-0.162-1.108l-1.911-8.568c-0.102-0.456-0.196-0.783-0.284-0.982c-0.088-0.198-0.193-0.345-0.314-0.439
			c-0.122-0.094-0.269-0.158-0.442-0.192s-0.461-0.051-0.862-0.052l-0.108-0.485L105.675,58.537z"/>
		<path fill="#FFFFFF" d="M111.957,68.599c0.203,0.585,0.459,1.041,0.768,1.37c0.309,0.328,0.697,0.563,1.166,0.702
			c0.468,0.14,1.063,0.189,1.787,0.148c0.995-0.056,1.747-0.305,2.255-0.746c0.508-0.442,0.74-1.059,0.696-1.849
			c-0.028-0.507-0.163-0.926-0.403-1.258c-0.241-0.333-0.62-0.637-1.139-0.912c-0.519-0.276-1.305-0.588-2.356-0.936
			c-1.017-0.336-1.825-0.676-2.424-1.019s-1.054-0.725-1.363-1.148c-0.31-0.423-0.479-0.895-0.508-1.415
			c-0.042-0.757,0.144-1.426,0.56-2.009c0.415-0.582,1.046-1.05,1.892-1.401c0.846-0.353,1.826-0.561,2.94-0.622
			c0.646-0.037,1.279-0.045,1.899-0.025s1.398,0.098,2.335,0.235l0.153,2.735l-1.263,0.071c-0.229-0.584-0.501-1.032-0.817-1.347
			c-0.316-0.314-0.678-0.526-1.085-0.636c-0.407-0.109-0.93-0.146-1.567-0.11c-0.553,0.03-1.044,0.14-1.473,0.326
			s-0.762,0.451-0.998,0.793c-0.237,0.342-0.343,0.739-0.317,1.191c0.027,0.48,0.158,0.88,0.394,1.198
			c0.235,0.319,0.59,0.607,1.065,0.865c0.476,0.258,1.173,0.538,2.095,0.839c1.112,0.371,1.979,0.726,2.6,1.063
			c0.62,0.338,1.111,0.736,1.474,1.193s0.562,1.004,0.597,1.639c0.04,0.71-0.067,1.317-0.32,1.822
			c-0.253,0.506-0.62,0.926-1.1,1.262c-0.48,0.335-1.063,0.591-1.749,0.769c-0.686,0.177-1.44,0.289-2.265,0.335
			c-1.335,0.075-2.884-0.018-4.648-0.278l-0.155-2.776L111.957,68.599z"/>
		<path fill="#FFFFFF" d="M124.029,57.378l13.73,1.607l-0.41,3.509l-1.244-0.146c-0.119-0.601-0.25-1.079-0.393-1.437
			c-0.143-0.356-0.305-0.635-0.486-0.833c-0.184-0.199-0.387-0.349-0.609-0.45c-0.225-0.101-0.57-0.179-1.035-0.233l-1.611-0.188
			l-1.209,10.322c-0.047,0.397-0.055,0.716-0.027,0.958c0.027,0.241,0.09,0.438,0.188,0.589s0.24,0.277,0.426,0.377
			s0.48,0.211,0.887,0.334l-0.059,0.494l-5.799-0.68l0.059-0.494c0.26-0.017,0.488-0.041,0.689-0.072s0.367-0.078,0.5-0.141
			c0.131-0.063,0.244-0.15,0.338-0.262c0.096-0.111,0.178-0.269,0.25-0.472c0.07-0.203,0.129-0.506,0.176-0.909l1.209-10.322
			L128,58.743c-0.398-0.047-0.73-0.055-0.994-0.024c-0.266,0.03-0.52,0.128-0.762,0.294s-0.475,0.414-0.699,0.746
			c-0.223,0.331-0.445,0.757-0.67,1.275l-1.256-0.147L124.029,57.378z"/>
		<path fill="#FFFFFF" d="M143.742,68.943l-1.857-6.008c-0.225-0.726-0.404-1.251-0.537-1.574s-0.283-0.592-0.449-0.805
			c-0.166-0.214-0.377-0.397-0.633-0.554l0.145-0.476l5.207,1.584l-0.145,0.476c-0.787-0.161-1.25-0.016-1.389,0.438
			c-0.057,0.188-0.066,0.415-0.027,0.682c0.039,0.266,0.137,0.656,0.293,1.17l1.318,4.443l3.436-2.646
			c0.467-0.36,0.811-0.667,1.035-0.921s0.373-0.503,0.449-0.749c0.07-0.233,0.037-0.443-0.098-0.629
			c-0.135-0.187-0.369-0.344-0.703-0.475l0.145-0.476l4.633,1.409l-0.145,0.477c-0.363-0.005-0.697,0.04-1.002,0.135
			c-0.307,0.095-0.633,0.248-0.982,0.46s-0.881,0.588-1.598,1.127l-4.799,3.568l-0.957,3.146c-0.111,0.369-0.178,0.674-0.197,0.915
			c-0.021,0.242,0.006,0.448,0.078,0.618c0.072,0.171,0.191,0.323,0.355,0.458s0.434,0.299,0.813,0.491l-0.146,0.476l-5.584-1.699
			l0.145-0.476c0.41,0.055,0.721,0.072,0.93,0.056c0.211-0.018,0.395-0.079,0.551-0.184s0.295-0.262,0.418-0.472
			c0.121-0.211,0.24-0.504,0.354-0.879L143.742,68.943z"/>
		<path fill="#FFFFFF" d="M155.014,78.357l3.016,1.453c0.33,0.159,0.613,0.277,0.852,0.354c0.236,0.076,0.449,0.121,0.637,0.133
			c0.189,0.012,0.373-0.008,0.555-0.06c0.18-0.052,0.373-0.142,0.576-0.269c0.203-0.128,0.424-0.305,0.66-0.532
			c0.238-0.228,0.566-0.582,0.988-1.063l1.162,0.561l-2.002,3.564l-10.346-4.988l0.215-0.448c0.523,0.132,0.893,0.177,1.111,0.136
			s0.406-0.159,0.563-0.354c0.154-0.195,0.342-0.519,0.559-0.97l3.813-7.908c0.203-0.421,0.332-0.736,0.387-0.946
			c0.055-0.211,0.063-0.391,0.025-0.54c-0.037-0.148-0.111-0.291-0.227-0.425c-0.115-0.135-0.33-0.326-0.645-0.575l0.215-0.448
			l4.846,2.336l-0.217,0.448c-0.373-0.09-0.643-0.14-0.813-0.15s-0.324,0.011-0.465,0.063c-0.139,0.054-0.279,0.17-0.422,0.349
			c-0.145,0.179-0.32,0.487-0.533,0.927L155.014,78.357z"/>
		<path fill="#FFFFFF" d="M180.666,78.452l-1.688,2.56l-1.045-0.689c0.076-0.347,0.125-0.663,0.15-0.946
			c0.023-0.284,0.021-0.537-0.006-0.758c-0.029-0.221-0.088-0.422-0.178-0.603s-0.225-0.353-0.402-0.515
			c-0.18-0.162-0.406-0.335-0.684-0.518l-3.371-2.222l-2.928,4.441l2.283,1.504c0.313,0.206,0.582,0.333,0.807,0.379
			c0.225,0.047,0.451,0.024,0.68-0.068c0.229-0.092,0.516-0.284,0.861-0.575l1.002,0.661l-2.145,3.254l-1.002-0.66
			c0.123-0.405,0.182-0.733,0.174-0.985s-0.07-0.47-0.189-0.653c-0.117-0.184-0.344-0.386-0.678-0.605l-2.283-1.505l-3.223,4.891
			l3.318,2.186c0.348,0.23,0.646,0.393,0.895,0.487s0.49,0.136,0.723,0.123s0.471-0.072,0.715-0.179
			c0.244-0.107,0.473-0.233,0.686-0.381c0.215-0.146,0.52-0.365,0.914-0.655l1.057,0.696l-2.162,2.841l-9.879-6.51l0.273-0.415
			c0.5,0.2,0.861,0.294,1.084,0.282c0.221-0.012,0.422-0.104,0.604-0.277c0.18-0.173,0.408-0.468,0.684-0.886l4.83-7.331
			c0.258-0.39,0.426-0.686,0.508-0.887c0.082-0.202,0.113-0.379,0.098-0.531c-0.018-0.153-0.072-0.304-0.17-0.452
			c-0.096-0.148-0.283-0.367-0.561-0.656l0.273-0.415L180.666,78.452z"/>
	</g>
	<g>
		<path fill="#FFFFFF" d="M64.417,141.918c-0.844,2.895-3.456,5.186-6.712,5.828c-0.603,0.121-1.206,0.16-1.809,0.16
			c-1.206,0-2.411-0.201-3.537-0.643c-1.889-0.764-3.537-2.01-4.944-3.818l3.698-2.895c0.844,1.127,1.849,1.93,2.934,2.332
			c0.884,0.361,1.849,0.441,2.733,0.24c1.527-0.281,2.773-1.285,3.135-2.49c0.402-1.367-0.522-2.572-1.367-3.377
			c-1.326-1.246-3.497-3.377-3.658-3.537l-3.657-3.457c-1.125-1.084-1.889-2.291-2.291-3.576c-0.402-1.246-0.442-2.572-0.08-3.777
			c0.361-1.287,1.125-2.412,2.21-3.336c1.005-0.844,2.25-1.447,3.577-1.689c1.447-0.32,2.974-0.201,4.421,0.322
			c1.527,0.604,2.894,1.607,4.059,3.014l-3.657,2.936c-1.527-1.85-3.095-1.85-3.938-1.689c-1.045,0.201-1.93,0.885-2.17,1.729
			c-0.161,0.563-0.121,1.488,1.125,2.693l4.983,4.783c0.724,0.723,1.608,1.566,2.251,2.17c1.286,1.166,2.17,2.492,2.612,3.898
			C64.779,139.105,64.819,140.551,64.417,141.918z"/>
		<path fill="#FFFFFF" d="M85.998,141.516H75.387l-2.532,6.391H67.71l12.981-31.188l12.942,31.188h-5.104L85.998,141.516z
			 M84.309,137.336l-3.617-9.082l-3.617,9.082H84.309z"/>
		<path fill="#FFFFFF" d="M97.77,147.906v-29.822h4.662v29.822H97.77z"/>
		<path fill="#FFFFFF" d="M131.65,136.652v8.08l-1.045,0.723c-0.041,0-0.041,0-0.082,0.041c-0.039,0.039-0.119,0.08-0.16,0.08
			c-0.039,0.039-0.08,0.08-0.121,0.08c-0.039,0.039-0.08,0.08-0.16,0.08c-0.039,0.041-0.08,0.08-0.16,0.121
			c-0.041,0.039-0.08,0.039-0.121,0.08c-0.041,0.039-0.08,0.039-0.121,0.08c-0.08,0.041-0.119,0.041-0.201,0.08
			c-0.039,0.041-0.08,0.041-0.119,0.08c-0.041,0.041-0.121,0.082-0.201,0.082c-0.041,0.039-0.041,0.039-0.08,0.08
			c-0.041,0-0.041,0-0.08,0c-0.041,0.039-0.121,0.08-0.201,0.119c-0.082,0.041-0.201,0.082-0.281,0.121c0,0,0,0-0.041,0.041
			c-1.688,0.764-3.457,1.166-5.346,1.285c0,0,0,0-0.039,0c-0.082,0-0.201,0-0.322,0h-0.041c-0.119,0-0.24,0-0.361,0
			c-1.607,0-3.215-0.24-4.702-0.764c-0.04,0-0.04,0-0.04,0c-0.161-0.039-0.282-0.119-0.442-0.16c-0.201-0.08-0.402-0.16-0.603-0.242
			c-0.523-0.199-1.005-0.441-1.447-0.723c-1.206-0.643-2.331-1.486-3.296-2.492c-1.367-1.365-2.452-2.934-3.215-4.742
			c-0.563-1.367-0.964-2.813-1.085-4.301c-0.04-0.482-0.08-1.004-0.08-1.486c0-0.242,0-0.523,0-0.764
			c0.121-1.729,0.482-3.457,1.166-5.064c0.764-1.77,1.849-3.377,3.215-4.742c1.366-1.367,2.934-2.453,4.743-3.176
			c1.809-0.805,3.778-1.166,5.787-1.166c0.121,0,0.242,0,0.361,0h0.041c0.121,0,0.24,0,0.322,0c0.039,0,0.039,0,0.039,0
			c0.121,0,0.242,0,0.361,0.041c1.729,0.121,3.416,0.521,5.025,1.246c0,0,0,0.039,0.039,0.039c0.08,0.041,0.16,0.082,0.242,0.121
			c0.039,0,0.039,0,0.039,0v5.506c-0.602-0.521-1.285-0.924-2.01-1.285c-0.602-0.281-1.246-0.523-1.848-0.684
			c-0.041,0-0.08,0-0.121-0.041c-0.041,0-0.08,0-0.121,0c-0.039-0.039-0.08-0.039-0.16-0.039c0,0-0.041,0-0.08-0.041
			c-0.162-0.039-0.361-0.039-0.523-0.08c-0.039,0-0.039,0-0.08,0c-0.039,0-0.121-0.041-0.16-0.041c-0.041,0-0.041,0-0.08,0
			c-0.041,0-0.121,0-0.162-0.039c-0.039,0-0.08,0-0.119,0c-0.082,0-0.162,0-0.242,0c-0.039,0-0.08-0.041-0.121-0.041
			c-0.039,0-0.08,0-0.119,0c-0.041,0-0.121,0-0.162,0c-0.039,0-0.08,0-0.08,0c-0.08,0-0.201,0-0.281,0
			c-1.889,0-3.697,0.482-5.265,1.447c-0.041,0.041-0.121,0.08-0.201,0.121c-0.643,0.402-1.246,0.885-1.768,1.447
			c-0.161,0.16-0.362,0.32-0.522,0.521c0,0,0,0.041-0.041,0.041c-0.201,0.24-0.362,0.482-0.522,0.723
			c-0.04,0.041-0.081,0.08-0.081,0.08c-0.08,0.121-0.161,0.242-0.241,0.363c-0.04,0.039-0.08,0.119-0.08,0.16
			c-0.603,0.965-1.005,1.969-1.246,3.055c-0.04,0.039-0.04,0.039-0.04,0.08c-0.08,0.402-0.161,0.805-0.201,1.205
			c0,0.162,0,0.322,0,0.443c-0.04,0.201-0.04,0.361-0.04,0.563c0,0.16,0,0.32,0.04,0.521c0.04,0.764,0.161,1.527,0.362,2.252
			c0.482,1.688,1.367,3.215,2.613,4.461c1.929,1.93,4.501,3.014,7.234,3.014c0.08,0,0.201,0,0.281,0c0.041,0,0.08,0,0.121-0.039
			c0.039,0,0.121,0,0.16,0c0.041,0,0.08,0,0.121,0s0.08,0,0.121,0c0.08,0,0.119,0,0.201,0c0-0.041,0.039-0.041,0.08-0.041
			c0.039,0,0.119,0,0.16,0s0.041,0,0.08,0c0.281-0.041,0.604-0.121,0.885-0.16c0.039,0,0.039,0,0.08-0.041
			c0.041,0,0.121,0,0.16-0.039c0.041,0,0.082,0,0.121,0c0.041-0.041,0.08-0.041,0.121-0.041c0.039-0.041,0.121-0.041,0.16-0.041
			c0.041,0,0.08-0.039,0.08-0.039c0.563-0.16,1.127-0.361,1.648-0.643c0,0,0,0,0.041,0v-5.508h-5.627v-4.219h10.289V136.652z"/>
		<path fill="#FFFFFF" d="M145.311,146.74c-1.809-0.764-3.375-1.848-4.742-3.215c-1.365-1.365-2.451-2.934-3.215-4.742
			s-1.166-3.777-1.166-5.787s0.402-3.979,1.166-5.828c0.764-1.77,1.85-3.336,3.215-4.742c1.367-1.367,2.934-2.412,4.742-3.176
			s3.779-1.166,5.789-1.166s3.979,0.402,5.826,1.166c1.77,0.764,3.336,1.809,4.744,3.176c1.365,1.406,2.41,2.973,3.174,4.742
			c0.764,1.85,1.166,3.818,1.166,5.828s-0.402,3.979-1.166,5.787s-1.809,3.377-3.174,4.742c-1.408,1.367-2.975,2.451-4.744,3.215
			c-1.848,0.764-3.816,1.166-5.826,1.166S147.119,147.504,145.311,146.74z M143.865,125.762c-1.93,1.928-3.016,4.5-3.016,7.234
			c0,2.732,1.086,5.305,3.016,7.234c1.928,1.93,4.5,3.014,7.234,3.014c2.732,0,5.305-1.084,7.234-3.014
			c1.928-1.93,3.014-4.502,3.014-7.234c0-2.734-1.086-5.307-3.014-7.234c-1.93-1.93-4.502-3.016-7.234-3.016
			C148.365,122.746,145.793,123.832,143.865,125.762z"/>
		<path fill="#FFFFFF" d="M175.934,128.734v19.172h-4.662v-31.229L190,137.215v-19.131h4.703v31.189L175.934,128.734z"/>
		<path fill="#FFFFFF" d="M67.191,190.402h-5.265l-7.516-10.088h-3.416v10.088h-4.662V160.58h3.938h4.903
			c3.939,0,6.23,1.607,7.436,2.975c1.567,1.729,2.412,4.141,2.412,6.912c0,2.734-0.844,5.145-2.412,6.873
			c-0.723,0.805-1.849,1.729-3.456,2.291L67.191,190.402z M55.173,176.135c1.93,0,3.376-0.563,4.301-1.607
			c1.125-1.205,1.326-2.895,1.326-4.061c0-1.205-0.201-2.893-1.326-4.098c-0.924-1.047-2.371-1.568-4.301-1.568h-4.18v11.334H55.173
			z"/>
		<path fill="#FFFFFF" d="M76.753,172.719h10.892v4.221H76.753v9.244h13.223v4.219H76.713h-4.622V160.58h4.622h13.263v4.18H76.753
			V172.719z"/>
		<path fill="#FFFFFF" d="M106.894,180.234l7.837-19.654h5.064l-12.781,31.148L93.349,160.58h5.145L106.894,180.234z"/>
		<path fill="#FFFFFF" d="M123.932,190.402V160.58h4.662v29.822H123.932z"/>
		<path fill="#FFFFFF" d="M139.443,172.719h10.893v4.221h-10.893v9.244h13.223v4.219h-13.262h-4.623V160.58h4.623h13.262v4.18
			h-13.223V172.719z"/>
		<path fill="#FFFFFF" d="M185.621,191.729l-7.879-17.965l-7.395,17.965l-13.666-31.148h5.145l8.4,19.654l4.943-12.379l2.412-6.15
			l2.613,6.07l5.305,12.459l7.838-19.654h5.104L185.621,191.729z"/>
	</g>
	<g>
		<line fill="#FFFFFF" x1="46.013" y1="92.585" x2="54.917" y2="84.793"/>
		
			<rect x="49.01" y="82.772" transform="matrix(0.6589 0.7522 -0.7522 0.6589 83.9242 -7.7112)" fill="#FFFFFF" width="2.911" height="11.834"/>
	</g>
	<g>
		<line fill="#FFFFFF" x1="50.736" y1="97.313" x2="59.642" y2="89.52"/>
		
			<rect x="53.735" y="87.499" transform="matrix(0.6584 0.7527 -0.7527 0.6584 89.1685 -9.6271)" fill="#FFFFFF" width="2.909" height="11.831"/>
	</g>
	<g>
		<g>
			<line fill="#FFFFFF" x1="193.26" y1="92.314" x2="184.357" y2="84.522"/>
		</g>
		<g>
			
				<rect x="182.893" y="86.962" transform="matrix(0.7527 0.6584 -0.6584 0.7527 104.9155 -102.445)" fill="#FFFFFF" width="11.833" height="2.911"/>
		</g>
	</g>
	<g>
		<line fill="#FFFFFF" x1="188.537" y1="97.039" x2="179.631" y2="89.247"/>
		
			<rect x="178.168" y="91.687" transform="matrix(0.7527 0.6584 -0.6584 0.7527 106.8452 -98.1604)" fill="#FFFFFF" width="11.832" height="2.91"/>
	</g>
	<path fill="#FFFFFF" d="M121.188,83.564c0.25-0.72,0.66-0.72,0.912,0l1.926,5.543c0.25,0.721,1.078,1.321,1.842,1.339l5.865,0.12
		c0.762,0.015,0.889,0.403,0.281,0.865l-4.676,3.545c-0.607,0.461-0.924,1.434-0.705,2.164l1.701,5.617
		c0.221,0.728-0.111,0.97-0.736,0.534l-4.818-3.353c-0.625-0.436-1.648-0.436-2.273,0l-4.816,3.353
		c-0.627,0.436-0.957,0.193-0.736-0.534l1.697-5.617c0.221-0.73-0.095-1.703-0.703-2.164l-4.677-3.545
		c-0.607-0.462-0.482-0.851,0.282-0.865l5.868-0.12c0.762-0.018,1.592-0.618,1.841-1.339L121.188,83.564z"/>
</g>
</svg>
