<?xml version="1.0" encoding="utf-8"?>
<!-- Generator: Adobe Illustrator 16.0.0, SVG Export Plug-In . SVG Version: 6.00 Build 0)  -->
<!DOCTYPE svg PUBLIC "-//W3C//DTD SVG 1.1//EN" "http://www.w3.org/Graphics/SVG/1.1/DTD/svg11.dtd">
<svg version="1.1" id="Layer_1" xmlns="http://www.w3.org/2000/svg"  x="0px" y="0px"
	 width="250.4px" height="19.1px" viewBox="0 0 250.4 19.1" enable-background="new 0 0 250.4 19.1" xml:space="preserve">
<g>
	<path fill="#000000" d="M80.9,1.2c0.3,0.1,0.5,0.2,0.6,0.3c0.1,0.1,0.2,0.3,0.2,0.6v10.4L72,2.5c-0.2-0.2-0.4-0.5-0.4-0.7
		c0-0.3,0.2-0.5,0.6-0.6V0.8h-5.9v0.4c0.3,0.1,0.5,0.2,0.6,0.3c0.1,0.1,0.2,0.3,0.2,0.6V17c0,0.3-0.1,0.5-0.2,0.6
		c-0.1,0.1-0.3,0.2-0.6,0.3v0.4h5.1v-0.4c-0.3-0.1-0.5-0.2-0.6-0.3c-0.1-0.1-0.2-0.3-0.2-0.6V6.3l9.8,10.1c0.4,0.4,0.6,0.7,0.6,0.9
		c0,0.3-0.2,0.5-0.5,0.6v0.4H86v-0.4c-0.3-0.1-0.5-0.2-0.6-0.3c-0.1-0.1-0.2-0.3-0.2-0.6V2.2c0-0.3,0.1-0.5,0.2-0.6
		c0.1-0.1,0.3-0.2,0.6-0.3V0.8h-5.1V1.2z"/>
	<path fill="#000000" d="M46.3,15.3c-0.1,0.1-0.3,0.2-0.6,0.2H34.5v-4.8h7.1c0.3,0,0.5,0.1,0.6,0.2c0.1,0.1,0.2,0.3,0.3,0.6h0.4V7
		h-0.4c-0.1,0.3-0.2,0.5-0.3,0.6c-0.1,0.1-0.3,0.2-0.6,0.2h-7.1V3.7h10.9c0.3,0,0.5,0.1,0.6,0.2c0.1,0.1,0.2,0.3,0.3,0.6h0.4V0h-0.4
		c-0.1,0.3-0.2,0.5-0.3,0.6c-0.1,0.1-0.3,0.2-0.6,0.2H29.9v0.4c0.3,0.1,0.5,0.2,0.6,0.3c0.1,0.1,0.2,0.3,0.2,0.6V17
		c0,0.3-0.1,0.5-0.2,0.6c-0.1,0.1-0.3,0.2-0.6,0.3v0.4h15.9c0.3,0,0.5,0.1,0.6,0.2c0.1,0.1,0.2,0.3,0.3,0.6h0.4v-4.5h-0.4
		C46.6,14.9,46.5,15.1,46.3,15.3z"/>
	<path fill="#000000" d="M64.7,0.7c-0.1,0.1-0.3,0.2-0.6,0.2H49.4c-0.3,0-0.5-0.1-0.6-0.2c-0.1-0.1-0.2-0.3-0.3-0.7h-0.4v4.5h0.4
		c0.1-0.3,0.2-0.5,0.3-0.6c0.1-0.1,0.3-0.2,0.6-0.2h5.4V17c0,0.3-0.1,0.5-0.2,0.6c-0.1,0.1-0.3,0.2-0.6,0.3v0.4h5.5v-0.4
		c-0.3-0.1-0.5-0.2-0.6-0.3c-0.1-0.1-0.2-0.3-0.2-0.6V3.7h5.4c0.3,0,0.5,0.1,0.6,0.2C64.8,4,64.9,4.2,65,4.5h0.4V0H65
		C64.9,0.3,64.8,0.5,64.7,0.7z"/>
	<path fill="#000000" d="M21.9,1.2c0.3,0.1,0.5,0.2,0.6,0.3c0.1,0.1,0.2,0.3,0.2,0.6V17c0,0.3-0.1,0.5-0.2,0.6
		c-0.1,0.1-0.3,0.2-0.6,0.3v0.4h5.5v-0.4c-0.3-0.1-0.5-0.2-0.6-0.3c-0.1-0.1-0.2-0.3-0.2-0.6V2.2c0-0.3,0.1-0.5,0.2-0.6
		c0.1-0.1,0.3-0.3,0.6-0.3V0.8h-5.5V1.2z"/>
	<path fill="#000000" d="M106.5,16.3L99.8,2.8c-0.2-0.3-0.2-0.6-0.2-0.8c0-0.4,0.3-0.6,0.8-0.8V0.8h-6.2v0.4
		c0.5,0.2,0.7,0.5,0.7,0.8c0,0.3-0.1,0.6-0.3,1l-6.4,13.4c-0.2,0.5-0.4,0.8-0.6,1c-0.2,0.2-0.4,0.3-0.8,0.4v0.4h5.8v-0.4
		c-0.6-0.1-0.9-0.4-0.9-0.8c0-0.2,0.1-0.5,0.2-0.8l1.2-2.5h7.9l1.2,2.5c0.2,0.4,0.3,0.6,0.3,0.8c0,0.4-0.3,0.7-0.8,0.8v0.4h6.4v-0.4
		c-0.4-0.1-0.6-0.2-0.9-0.4C107,17.3,106.8,16.9,106.5,16.3z M94.3,11.5l2.9-6.2l2.8,6.2H94.3z"/>
	<path fill="#000000" d="M14.4,1.2c0.6,0.1,0.8,0.3,0.8,0.7c0,0.2-0.1,0.6-0.3,1l-4.6,10.3L5.7,3C5.5,2.5,5.4,2.2,5.4,2
		c0-0.4,0.3-0.6,0.8-0.7V0.8H0v0.4c0.4,0.1,0.6,0.2,0.8,0.3C0.9,1.7,1.2,2.2,1.5,3L7.6,16C7.9,16.6,8,17,8,17.1
		c0,0.4-0.3,0.7-0.8,0.8v0.4h6v-0.4c-0.5-0.1-0.8-0.3-0.8-0.8c0-0.2,0.1-0.5,0.4-1.1L18.8,3c0.4-0.8,0.6-1.2,0.8-1.4
		c0.1-0.2,0.4-0.3,0.8-0.3V0.8h-6V1.2z"/>
	<path fill="#000000" d="M229.4,6.4l2.1-4.1l-0.4-0.2c-0.2,0.2-0.4,0.3-0.6,0.3c-0.1,0-0.4-0.1-0.9-0.3c-1.4-0.6-2.6-1-3.6-1.2
		c-1-0.2-2-0.3-3.1-0.3c-2.7,0-4.7,0.6-6,1.9c-1,1-1.5,2.2-1.5,3.7c0,0.9,0.2,1.7,0.6,2.4c0.4,0.8,1.1,1.3,1.8,1.7
		c0.5,0.3,1.1,0.5,1.6,0.6c0.5,0.1,1.5,0.3,2.8,0.4l2,0.2c1.3,0.1,2.2,0.3,2.6,0.5c0.6,0.2,0.9,0.7,0.9,1.2c0,0.4-0.1,0.8-0.4,1.1
		c-0.3,0.4-0.6,0.6-1.1,0.9c-0.8,0.4-1.8,0.6-2.9,0.6c-1,0-2.1-0.2-3.3-0.5c-1.2-0.4-2-0.8-2.6-1.3c-0.4-0.3-0.6-0.7-0.6-1.1
		c0,0,0-0.1,0-0.2l-0.4-0.2l-1.9,4.3l0.4,0.2c0.2-0.2,0.4-0.3,0.5-0.3c0.1,0,0.4,0.1,0.9,0.3c2.3,1.1,4.5,1.7,6.9,1.7
		c1.3,0,2.5-0.2,3.6-0.5c1.5-0.4,2.6-1.1,3.3-1.9c0.8-1,1.2-2,1.2-3.3c0-0.8-0.2-1.5-0.5-2.2c-0.3-0.7-0.8-1.2-1.4-1.7
		c-0.6-0.4-1.2-0.7-2-0.9c-0.7-0.2-1.7-0.4-2.9-0.5l-2-0.2c-1.3-0.1-2.2-0.3-2.6-0.4c-0.8-0.2-1.2-0.7-1.2-1.3
		c0-0.4,0.2-0.8,0.5-1.1c0.3-0.3,0.7-0.6,1.2-0.8c0.7-0.2,1.5-0.3,2.4-0.3c2,0,3.8,0.5,5.4,1.6c0.5,0.3,0.7,0.6,0.7,0.9
		c0,0.1,0,0.1,0,0.2L229.4,6.4z"/>
	<path fill="#000000" d="M208.4,1.2c0.3,0.1,0.5,0.2,0.6,0.3c0.1,0.1,0.2,0.3,0.2,0.6v8.7c0,1-0.1,1.8-0.2,2.2
		c-0.1,0.5-0.3,0.9-0.6,1.2c-0.8,0.9-2.2,1.3-4.2,1.3c-2,0-3.4-0.4-4.2-1.3c-0.3-0.3-0.5-0.7-0.6-1.2c-0.1-0.5-0.2-1.2-0.2-2.2V2.2
		c0-0.3,0.1-0.5,0.2-0.6c0.1-0.1,0.3-0.3,0.6-0.3V0.8h-5.5v0.4c0.3,0.1,0.5,0.2,0.6,0.3c0.1,0.1,0.2,0.3,0.2,0.6V12
		c0,1.2,0.2,2.3,0.5,3.2c0.3,0.9,0.9,1.6,1.8,2.1c1.5,0.9,3.6,1.3,6.4,1.3c3.9,0,6.4-0.8,7.6-2.5c0.7-0.9,1-2.3,1-4.2V2.2
		c0-0.3,0.1-0.5,0.2-0.6c0.1-0.1,0.3-0.2,0.6-0.3V0.8h-5.1V1.2z"/>
	<path fill="#000000" d="M124.6,1.2c0.4,0,0.6,0.2,0.6,0.6c0,0.2-0.1,0.5-0.3,0.9l-4.8,8.6l-4.8-8.8c-0.1-0.2-0.2-0.4-0.2-0.6
		c0-0.4,0.2-0.6,0.6-0.7V0.8H109v0.4c0.3,0.1,0.5,0.2,0.6,0.3c0.1,0.1,0.2,0.3,0.2,0.6V17c0,0.3-0.1,0.5-0.2,0.6
		c-0.1,0.1-0.3,0.2-0.6,0.3v0.4h5.1v-0.4c-0.3-0.1-0.5-0.2-0.6-0.3c-0.1-0.1-0.2-0.3-0.2-0.6V6.2l6.4,11.8l6.8-11.8V17
		c0,0.3-0.1,0.5-0.2,0.6c-0.1,0.1-0.3,0.2-0.6,0.3v0.4h5.5v-0.4c-0.3-0.1-0.5-0.2-0.6-0.3c-0.1-0.1-0.2-0.3-0.2-0.6V2.2
		c0-0.3,0.1-0.5,0.2-0.6c0.1-0.1,0.3-0.2,0.6-0.3V0.8h-6.6V1.2z"/>
	<path fill="#000000" d="M250,14.6c-0.1,0.3-0.2,0.5-0.3,0.6c-0.1,0.1-0.3,0.2-0.6,0.2h-11.2v-4.8h7.1c0.3,0,0.5,0.1,0.6,0.2
		s0.2,0.3,0.3,0.6h0.4V7h-0.4c-0.1,0.3-0.2,0.5-0.3,0.6c-0.1,0.1-0.3,0.2-0.6,0.2h-7.1V3.7h10.9c0.3,0,0.5,0.1,0.6,0.2
		c0.1,0.1,0.2,0.3,0.3,0.6h0.4V0h-0.4c-0.1,0.3-0.2,0.5-0.3,0.6c-0.1,0.1-0.3,0.2-0.6,0.2h-15.6v0.4c0.3,0.1,0.5,0.2,0.6,0.3
		c0.1,0.1,0.2,0.3,0.2,0.6V17c0,0.3-0.1,0.5-0.2,0.6c-0.1,0.1-0.3,0.2-0.6,0.3v0.4h15.9c0.3,0,0.5,0.1,0.6,0.2
		c0.1,0.1,0.2,0.3,0.3,0.6h0.4v-4.5H250z"/>
	<path fill="#000000" d="M190,3c-1.8-1.6-4.2-2.5-7.3-2.5c-4.1,0.1-7,1.5-8.7,4.2c-0.9,1.5-1.3,3.1-1.3,4.8c0,1.2,0.2,2.3,0.7,3.4
		c0.5,1.2,1.2,2.3,2.2,3.2c1.8,1.6,4.2,2.5,7.2,2.5c4,0,6.9-1.4,8.7-4.3c0.9-1.5,1.4-3,1.4-4.7C192.8,7,191.9,4.7,190,3z M188.5,12
		c-0.3,0.9-0.9,1.6-1.5,2.2c-1.1,1-2.5,1.5-4.2,1.5c-1.7,0-3.1-0.5-4.2-1.5c-1.3-1.2-2-2.7-2-4.6c0-1.9,0.7-3.4,2-4.6
		c1.1-1,2.5-1.5,4.2-1.5c1.7,0,3.1,0.5,4.2,1.5c1.3,1.1,2,2.7,2,4.7C188.9,10.5,188.8,11.2,188.5,12z"/>
	<path fill="#000000" d="M165.7,1.2c0.3,0.1,0.5,0.2,0.6,0.3c0.1,0.1,0.2,0.3,0.2,0.6v5.6h-10.1V2.2c0-0.3,0.1-0.5,0.2-0.6
		c0.1-0.1,0.3-0.3,0.6-0.3V0.8h-5.5v0.4c0.3,0.1,0.5,0.2,0.6,0.3c0.1,0.1,0.2,0.3,0.2,0.6V17c0,0.3-0.1,0.5-0.2,0.6
		c-0.1,0.1-0.3,0.2-0.6,0.3v0.4h5.5v-0.4c-0.3-0.1-0.5-0.2-0.6-0.3c-0.1-0.1-0.2-0.3-0.2-0.6v-6.3h10.1V17c0,0.3-0.1,0.5-0.2,0.6
		c-0.1,0.1-0.3,0.2-0.6,0.3v0.4h5.5v-0.4c-0.3-0.1-0.5-0.2-0.6-0.3c-0.1-0.1-0.2-0.3-0.2-0.6V2.2c0-0.3,0.1-0.5,0.2-0.6
		c0.1-0.1,0.3-0.2,0.6-0.3V0.8h-5.5V1.2z"/>
	<polygon fill="#FBB03B" points="141.4,2.2 139.7,7.4 134.4,7.4 138.7,10.6 137,15.7 141.4,12.6 145.8,15.7 144.1,10.6 148.4,7.4 
		143.1,7.4 	"/>
</g>
<g>
</g>
<g>
</g>
<g>
</g>
<g>
</g>
<g>
</g>
<g>
</g>
</svg>
