<?xml version="1.0" encoding="utf-8"?>
<!-- Generator: Adobe Illustrator 16.0.0, SVG Export Plug-In . SVG Version: 6.00 Build 0)  -->
<!DOCTYPE svg PUBLIC "-//W3C//DTD SVG 1.1//EN" "http://www.w3.org/Graphics/SVG/1.1/DTD/svg11.dtd">
<svg version="1.1" id="Layer_1" xmlns="http://www.w3.org/2000/svg" xmlns:xlink="http://www.w3.org/1999/xlink" x="0px" y="0px"
	 width="176.1px" height="13.5px" viewBox="0 0 176.1 13.5" enable-background="new 0 0 176.1 13.5" xml:space="preserve">
<g>
	<path fill="none" d="M132.3,3.5c-0.8-0.7-1.8-1-3-1c-1.2,0-2.1,0.3-2.9,1c-0.9,0.8-1.4,1.9-1.4,3.2c0,1.3,0.5,2.4,1.4,3.2
		c0.8,0.7,1.8,1,2.9,1c1.2,0,2.2-0.3,2.9-1c0.5-0.4,0.8-0.9,1.1-1.5c0.2-0.5,0.3-1.1,0.3-1.7C133.7,5.4,133.3,4.3,132.3,3.5z"/>
	<path fill="#040000" d="M56.9,0.9c0.2,0.1,0.4,0.1,0.5,0.2c0.1,0.1,0.1,0.2,0.1,0.4v7.3l-6.8-7.1c-0.2-0.2-0.3-0.3-0.3-0.5
		c0-0.2,0.1-0.4,0.4-0.4V0.6h-4.2v0.3C46.8,0.9,47,1,47.1,1.1c0.1,0.1,0.1,0.2,0.1,0.4v10.4c0,0.2,0,0.3-0.1,0.4
		c-0.1,0.1-0.2,0.2-0.5,0.2v0.3h3.6v-0.3c-0.2-0.1-0.4-0.1-0.4-0.2c-0.1-0.1-0.1-0.2-0.1-0.4V4.5l6.9,7.1c0.3,0.3,0.4,0.5,0.4,0.6
		c0,0.2-0.1,0.3-0.4,0.4v0.3h3.9v-0.3c-0.2-0.1-0.4-0.1-0.4-0.2c-0.1-0.1-0.1-0.2-0.1-0.4V1.5c0-0.2,0-0.3,0.1-0.4
		c0.1-0.1,0.2-0.2,0.4-0.2V0.6h-3.6V0.9z"/>
	<path fill="#040000" d="M32.6,10.7c-0.1,0.1-0.2,0.1-0.4,0.1h-7.9V7.5h5c0.2,0,0.3,0,0.4,0.1c0.1,0.1,0.2,0.2,0.2,0.4h0.3V5h-0.3
		c-0.1,0.2-0.1,0.4-0.2,0.5c-0.1,0.1-0.2,0.1-0.4,0.1h-5V2.6H32c0.2,0,0.3,0,0.4,0.1c0.1,0.1,0.2,0.2,0.2,0.4h0.3V0h-0.3
		c-0.1,0.2-0.1,0.4-0.2,0.5c-0.1,0.1-0.2,0.1-0.4,0.1H21v0.3c0.2,0.1,0.4,0.1,0.5,0.2c0.1,0.1,0.1,0.2,0.1,0.4v10.4
		c0,0.2,0,0.3-0.1,0.4c-0.1,0.1-0.2,0.2-0.5,0.2v0.3h11.2c0.2,0,0.3,0,0.4,0.1c0.1,0.1,0.2,0.2,0.2,0.5h0.3v-3.2h-0.3
		C32.8,10.5,32.7,10.6,32.6,10.7z"/>
	<path fill="#040000" d="M45.5,0.5c-0.1,0.1-0.2,0.1-0.4,0.1H34.8c-0.2,0-0.3,0-0.4-0.1c-0.1-0.1-0.2-0.2-0.2-0.5h-0.3v3.2h0.3
		c0.1-0.2,0.1-0.4,0.2-0.4c0.1-0.1,0.2-0.1,0.4-0.1h3.8v9.3c0,0.2,0,0.3-0.1,0.4c-0.1,0.1-0.2,0.2-0.5,0.2v0.3h3.8v-0.3
		c-0.2-0.1-0.4-0.1-0.5-0.2c-0.1-0.1-0.1-0.2-0.1-0.4V2.6h3.8c0.2,0,0.3,0,0.4,0.1c0.1,0.1,0.2,0.2,0.2,0.4H46V0h-0.3
		C45.7,0.2,45.6,0.4,45.5,0.5z"/>
	<path fill="#040000" d="M15.4,0.9c0.2,0.1,0.4,0.1,0.5,0.2C15.9,1.2,16,1.3,16,1.5v10.4c0,0.2,0,0.3-0.1,0.4
		c-0.1,0.1-0.2,0.2-0.5,0.2v0.3h3.8v-0.3c-0.2-0.1-0.4-0.1-0.4-0.2c-0.1-0.1-0.1-0.2-0.1-0.4V1.5c0-0.2,0-0.3,0.1-0.4
		C18.9,1,19,0.9,19.2,0.9V0.6h-3.8V0.9z"/>
	<path fill="#040000" d="M74.9,11.5L70.2,2c-0.1-0.2-0.2-0.4-0.2-0.6c0-0.3,0.2-0.4,0.5-0.5V0.6h-4.4v0.3c0.3,0.1,0.5,0.3,0.5,0.6
		c0,0.2-0.1,0.4-0.2,0.7L62,11.6c-0.2,0.3-0.3,0.6-0.4,0.7c-0.1,0.1-0.3,0.2-0.5,0.3v0.3h4.1v-0.3c-0.4-0.1-0.6-0.3-0.6-0.5
		c0-0.1,0.1-0.3,0.2-0.6l0.8-1.7h5.6l0.8,1.7c0.1,0.2,0.2,0.4,0.2,0.6c0,0.3-0.2,0.5-0.6,0.6v0.3H76v-0.3c-0.3,0-0.5-0.1-0.6-0.3
		C75.3,12.2,75.1,11.9,74.9,11.5z M66.3,8.1l2-4.4l2,4.4H66.3z"/>
	<path fill="#040000" d="M10.1,0.9c0.4,0.1,0.6,0.2,0.6,0.5c0,0.2-0.1,0.4-0.2,0.7L7.2,9.3L4,2.1C3.8,1.8,3.8,1.5,3.8,1.4
		C3.8,1.1,4,1,4.4,0.9V0.6H0v0.3c0.3,0,0.4,0.1,0.6,0.2c0.1,0.1,0.3,0.4,0.5,1l4.3,9.2c0.2,0.4,0.3,0.6,0.3,0.8
		c0,0.3-0.2,0.5-0.6,0.5v0.3h4.2v-0.3c-0.4-0.1-0.6-0.2-0.6-0.5c0-0.1,0.1-0.4,0.3-0.8l4.3-9.2c0.3-0.5,0.4-0.9,0.5-1
		c0.1-0.1,0.3-0.2,0.5-0.2V0.6h-4.2V0.9z"/>
	<path fill="#040000" d="M161.3,4.5l1.5-2.9l-0.3-0.1c-0.2,0.1-0.3,0.2-0.4,0.2c-0.1,0-0.3-0.1-0.6-0.2c-1-0.4-1.9-0.7-2.5-0.9
		c-0.7-0.2-1.4-0.2-2.2-0.2c-1.9,0-3.3,0.4-4.2,1.3c-0.7,0.7-1.1,1.5-1.1,2.6c0,0.6,0.1,1.2,0.4,1.7c0.3,0.5,0.7,0.9,1.3,1.2
		c0.4,0.2,0.8,0.3,1.2,0.4c0.4,0.1,1,0.2,2,0.3l1.4,0.1c0.9,0.1,1.5,0.2,1.9,0.3c0.4,0.2,0.7,0.5,0.7,0.9c0,0.3-0.1,0.5-0.3,0.8
		c-0.2,0.2-0.4,0.5-0.7,0.6c-0.6,0.3-1.2,0.4-2,0.4c-0.7,0-1.5-0.1-2.3-0.4c-0.8-0.3-1.4-0.6-1.8-0.9c-0.3-0.2-0.4-0.5-0.4-0.7
		c0,0,0-0.1,0-0.1l-0.3-0.1l-1.3,3l0.3,0.1c0.2-0.1,0.3-0.2,0.4-0.2c0.1,0,0.3,0.1,0.6,0.2c1.6,0.8,3.2,1.2,4.8,1.2
		c0.9,0,1.8-0.1,2.5-0.3c1.1-0.3,1.8-0.7,2.3-1.4c0.6-0.7,0.8-1.4,0.8-2.3c0-0.5-0.1-1.1-0.4-1.5c-0.2-0.5-0.6-0.9-1-1.2
		c-0.4-0.3-0.9-0.5-1.4-0.7c-0.5-0.2-1.2-0.3-2-0.4l-1.4-0.1c-1-0.1-1.6-0.2-1.9-0.3c-0.6-0.2-0.8-0.5-0.8-0.9
		c0-0.3,0.1-0.5,0.3-0.8c0.2-0.2,0.5-0.4,0.9-0.5c0.5-0.2,1-0.2,1.7-0.2c1.4,0,2.7,0.4,3.8,1.1c0.3,0.2,0.5,0.5,0.5,0.7
		c0,0,0,0.1,0,0.1L161.3,4.5z"/>
	<path fill="#040000" d="M146.6,0.9c0.2,0.1,0.4,0.1,0.5,0.2c0.1,0.1,0.1,0.2,0.1,0.4v6.1c0,0.7,0,1.2-0.1,1.6
		c-0.1,0.3-0.2,0.6-0.4,0.8c-0.6,0.6-1.6,0.9-3,0.9c-1.4,0-2.4-0.3-3-0.9c-0.2-0.2-0.4-0.5-0.4-0.8c-0.1-0.3-0.1-0.9-0.1-1.6V1.5
		c0-0.2,0-0.3,0.1-0.4c0.1-0.1,0.2-0.2,0.5-0.2V0.6h-3.8v0.3c0.2,0.1,0.4,0.1,0.5,0.2c0.1,0.1,0.1,0.2,0.1,0.4v6.9
		c0,0.9,0.1,1.6,0.3,2.2c0.2,0.6,0.7,1.1,1.3,1.5c1,0.6,2.5,0.9,4.5,0.9c2.7,0,4.5-0.6,5.4-1.7c0.5-0.7,0.7-1.6,0.7-2.9V1.5
		c0-0.2,0-0.3,0.1-0.4c0.1-0.1,0.2-0.2,0.5-0.2V0.6h-3.6V0.9z"/>
	<path fill="#040000" d="M87.6,0.9c0.3,0,0.4,0.2,0.4,0.4c0,0.1-0.1,0.3-0.2,0.6L84.5,8l-3.4-6.2C81,1.6,81,1.5,81,1.4
		c0-0.3,0.1-0.4,0.4-0.5V0.6h-4.7v0.3C76.9,0.9,77,1,77.1,1.1c0.1,0.1,0.1,0.2,0.1,0.4v10.4c0,0.2,0,0.3-0.1,0.4
		c-0.1,0.1-0.2,0.2-0.5,0.2v0.3h3.6v-0.3c-0.2-0.1-0.4-0.1-0.4-0.2c-0.1-0.1-0.1-0.2-0.1-0.4V4.4l4.5,8.3L89,4.4v7.5
		c0,0.2,0,0.3-0.1,0.4c-0.1,0.1-0.2,0.2-0.4,0.2v0.3h3.8v-0.3c-0.2-0.1-0.4-0.1-0.5-0.2c-0.1-0.1-0.1-0.2-0.1-0.4V1.5
		c0-0.2,0-0.3,0.1-0.4c0.1-0.1,0.2-0.2,0.5-0.2V0.6h-4.6V0.9z"/>
	<path fill="#040000" d="M175.8,10.3c-0.1,0.2-0.1,0.4-0.2,0.5c-0.1,0.1-0.2,0.1-0.4,0.1h-7.9V7.5h5c0.2,0,0.3,0,0.4,0.1
		c0.1,0.1,0.2,0.2,0.2,0.4h0.3V5h-0.3c-0.1,0.2-0.1,0.4-0.2,0.5c-0.1,0.1-0.2,0.1-0.4,0.1h-5V2.6h7.7c0.2,0,0.3,0,0.4,0.1
		c0.1,0.1,0.2,0.2,0.2,0.4h0.3V0h-0.3c-0.1,0.2-0.1,0.4-0.2,0.5c-0.1,0.1-0.2,0.1-0.4,0.1h-11v0.3c0.2,0.1,0.4,0.1,0.4,0.2
		c0.1,0.1,0.1,0.2,0.1,0.4v10.4c0,0.2,0,0.3-0.1,0.4c-0.1,0.1-0.2,0.2-0.4,0.2v0.3h11.2c0.2,0,0.3,0,0.4,0.1
		c0.1,0.1,0.2,0.2,0.2,0.5h0.3v-3.2H175.8z"/>
	<path fill="#040000" d="M133.6,2.1c-1.3-1.2-3-1.7-5.1-1.7c-2.9,0-4.9,1-6.1,3c-0.6,1-0.9,2.1-0.9,3.4c0,0.8,0.2,1.6,0.5,2.4
		c0.3,0.9,0.9,1.6,1.5,2.2c1.3,1.2,2.9,1.7,5.1,1.7c2.8,0,4.9-1,6.1-3c0.6-1,1-2.1,1-3.3C135.6,4.9,135,3.3,133.6,2.1z M132.6,8.4
		c-0.2,0.6-0.6,1.1-1.1,1.5c-0.8,0.7-1.8,1-2.9,1c-1.2,0-2.2-0.3-2.9-1c-0.9-0.8-1.4-1.9-1.4-3.2c0-1.3,0.5-2.4,1.4-3.2
		c0.8-0.7,1.8-1,2.9-1c1.2,0,2.2,0.4,3,1c0.9,0.8,1.4,1.9,1.4,3.3C132.9,7.4,132.8,7.9,132.6,8.4z"/>
	<path fill="#040000" d="M116.6,0.9c0.2,0.1,0.4,0.1,0.5,0.2c0.1,0.1,0.1,0.2,0.1,0.4v4H110v-4c0-0.2,0-0.3,0.1-0.4
		c0.1-0.1,0.2-0.2,0.4-0.2V0.6h-3.8v0.3c0.2,0.1,0.4,0.1,0.5,0.2c0.1,0.1,0.1,0.2,0.1,0.4v10.4c0,0.2,0,0.3-0.1,0.4
		c-0.1,0.1-0.2,0.2-0.5,0.2v0.3h3.8v-0.3c-0.2-0.1-0.4-0.1-0.4-0.2c-0.1-0.1-0.1-0.2-0.1-0.4V7.5h7.1v4.4c0,0.2,0,0.3-0.1,0.4
		c-0.1,0.1-0.2,0.2-0.4,0.2v0.3h3.8v-0.3c-0.2-0.1-0.4-0.1-0.4-0.2c-0.1-0.1-0.1-0.2-0.1-0.4V1.5c0-0.2,0-0.3,0.1-0.4
		c0.1-0.1,0.2-0.2,0.4-0.2V0.6h-3.8V0.9z"/>
	<polygon fill="#ED7919" points="99.4,1.6 98.3,5.2 94.5,5.2 97.5,7.5 96.4,11.1 99.4,8.9 102.5,11.1 101.4,7.5 104.4,5.2 
		100.6,5.2 	"/>
</g>
</svg>
