<?xml version="1.0" encoding="utf-8"?>
<!-- Generator: Adobe Illustrator 16.0.0, SVG Export Plug-In . SVG Version: 6.00 Build 0)  -->
<!DOCTYPE svg PUBLIC "-//W3C//DTD SVG 1.1//EN" "http://www.w3.org/Graphics/SVG/1.1/DTD/svg11.dtd">
<svg version="1.1" id="Layer_1" xmlns="http://www.w3.org/2000/svg" xmlns:xlink="http://www.w3.org/1999/xlink" x="0px" y="0px"
	 width="423px" height="351px" viewBox="0 0 423 351" enable-background="new 0 0 423 351" xml:space="preserve">
<g>
	
		<image overflow="visible" width="250" height="202" xlink:href="Untitled-1.jpg"  transform="matrix(0.832 0 0 0.832 115.7656 75.6045)">
	</image>
	<path d="M115.105,79.9c-0.892,53.77-1.649,108.1-1.66,161.1c0,1,1.5,1,1.5,0c0.011-53,0.768-107.45,1.66-161.221
		C116.622,78.812,115.122,78.934,115.105,79.9L115.105,79.9z"/>
	<path d="M115.855,80.542c34.816-2.146,69.686-2.597,104.56-2.654c35.769-0.058,71.563-0.238,107.31,1.275
		c0.968,0.041,0.964-1.459,0-1.5c-35.747-1.513-71.54-1.321-107.31-1.275c-34.873,0.045-69.745,0.508-104.56,2.654
		C114.895,79.101,114.889,80.602,115.855,80.542L115.855,80.542z"/>
	<path d="M326.568,78.436C325.234,132.222,324.906,186,324.902,240c0,1,1.5,1,1.5,0c0.004-54,0.332-107.744,1.666-161.53
		C328.093,77.502,326.592,77.47,326.568,78.436L326.568,78.436z"/>
	<path d="M325.465,239.495c-37.998,1.461-75.934,1.896-113.955,1.724c-19.805-0.089-39.61-0.098-59.413,0.189
		c-12.611,0.184-25.039,0.03-37.624-0.222c-0.968-0.02-0.966,1.48,0,1.5c11.93,0.238,23.689,0.452,35.646,0.253
		c20.461-0.342,40.928-0.309,61.392-0.221c38.021,0.163,75.956-0.263,113.955-1.724
		C326.429,240.958,326.433,239.458,325.465,239.495L325.465,239.495z"/>
	<path d="M336.771,259c0.007,0,0.475-78.705,1.07-117.978c0.239-15.815,0.915-31.759,0.57-47.573
		c-0.116-5.326-0.272-10.691-0.477-16.015c-0.122-3.185,0.109-6.8-0.672-9.917c-0.235-0.938-1.682-0.55-1.447,0.389
		c0.824,3.287,0.529,7.139,0.658,10.499c0.201,5.254,0.34,10.508,0.455,15.765c0.339,15.547-0.352,31.307-0.588,46.855
		c-0.598,39.272-1.063,77.976-1.07,117.976C335.271,260,336.771,260,336.771,259C336.771,259,336.771,260,336.771,259z"/>
	<path d="M103.243,70.174c37.907,0.688,75.912-1.556,113.824-1.978c39.802-0.444,79.739-2.84,119.473,0.25
		c0.965,0.075,0.958-1.425,0-1.5c-39.072-3.039-78.36-0.799-117.5-0.275c-19.526,0.262-39.026,0.379-58.546,1.023
		c-19.076,0.629-38.162,1.326-57.25,0.979C102.275,68.656,102.277,70.156,103.243,70.174L103.243,70.174z"/>
	<path d="M102.493,70.116c-1.264,21.213-0.452,42.461-0.534,63.695c-0.052,13.501-0.162,27.002-0.283,40.502
		c-0.248,27.619,0.141,55.411-1.432,82.997c-0.055,0.967,1.445,0.962,1.5,0c1.573-27.586,1.181-55.377,1.432-82.997
		c0.121-13.296,0.224-26.593,0.28-39.89c0.091-21.438-0.739-42.892,0.537-64.308C104.051,69.149,102.55,69.155,102.493,70.116
		L102.493,70.116z"/>
	<path d="M100,258.061c0-0.005,72.986-0.257,109.23-0.316c22.92-0.038,46.118-0.325,69.034,0.046
		c19.176,0.312,38.442,1.579,57.633,1.654c0.968,0.004,1.028-1.496,0.062-1.5c-18.604-0.073-37.12-1.098-55.707-1.614
		c-23.485-0.653-47.543-0.121-71.038-0.086C172.97,256.299,136,256.556,100,256.561C99,256.561,99,258.061,100,258.061
		C100,258.061,99,258.061,100,258.061z"/>
	<path d="M215.402,252.983c-2.163,0.56-3.913-0.275-4.392-2.517c-0.165-0.77-0.062-1.656,0.252-2.374
		c0.483-1.105,1.879-1.375,2.98-1.469c1.752-0.148,3.222,0.869,3.569,2.594c0.372,1.843-1.172,3.249-2.766,3.74
		c-0.922,0.285-0.528,1.732,0.398,1.447c2.536-0.783,4.211-2.88,3.813-5.586c-0.383-2.611-3.081-3.97-5.503-3.644
		c-1.472,0.197-2.911,0.634-3.689,1.965c-0.652,1.114-0.707,2.485-0.502,3.725c0.51,3.089,3.439,4.288,6.236,3.565
		C216.737,254.188,216.34,252.741,215.402,252.983L215.402,252.983z"/>
	<path d="M197,258c0,0,0,9,0,14c0,1,2,1,2,0c0-5,0-10,0-14C199,257,197,257,197,258C197,258,197,257,197,258z"/>
	<path d="M238.589,258c-0.002,0-0.045,9.017-0.75,13.598c-0.145,0.945,1.3,1.46,1.447,0.506c0.725-4.717,0.801-10.104,0.803-14.104
		C240.089,257,238.589,257,238.589,258C238.589,258,238.589,257,238.589,258z"/>
	<path d="M137.527,274.64c26.25-0.042,51.927-1.7,78.175-1.825c26.611-0.126,53.298,0.264,79.298,0.271c1,0,1-1.5,0-1.5
		c-26-0.007-51.358-0.267-77.308-0.273c-26.914-0.007-53.521,1.785-80.434,1.828C136.291,273.142,136.56,274.642,137.527,274.64
		L137.527,274.64z"/>
	<path d="M294,273c0,0,0,3,0,5c0,1,2,1,2,0c0-2,0-3,0-5C296,272,294,272,294,273C294,273,294,272,294,273z"/>
	<path d="M136,275c0,0,0,3,0,5c0,1,1,1,1,0c0-2,0-4,0-5S136,274,136,275C136,275,136,274,136,275z"/>
	<path d="M137.527,281.634c26.441-0.719,52.879-1.584,79.324-2.171c26.15-0.58,52.295,0.174,78.445-0.16
		c0.967-0.013,0.968-1.513,0-1.5c-26.15,0.334-52.295-0.405-78.445,0.16c-26.445,0.572-52.883,1.452-79.324,2.171
		C136.562,280.16,136.56,281.66,137.527,281.634L137.527,281.634z"/>
	<g>
		<path d="M88.404,15.36l-1.974-2.022c0.402-0.337,0.858-0.761,1.37-1.272c0.174-0.173,0.399-0.421,0.678-0.742
			c0.276-0.321,0.534-0.62,0.766-0.897c0.233-0.277,0.535-0.641,0.907-1.093c0.367-0.451,0.653-0.796,0.846-1.036
			c0.511-0.608,1.012-0.926,1.501-0.954c0.489-0.027,1.081,0.242,1.777,0.808c0.894,0.75,2.029,1.881,3.408,3.392
			c2.371,2.577,3.74,4.077,4.113,4.501l-1.794,1.94c-1.08-1.37-2.271-2.826-3.572-4.371c-1.34-1.609-2.36-2.712-3.068-3.311
			c-0.294-0.261-0.533-0.383-0.718-0.367c-0.186,0.016-0.397,0.171-0.636,0.465c-0.262,0.326-0.734,0.954-1.418,1.883
			c-0.687,0.93-1.062,1.438-1.127,1.525C89.116,14.279,88.764,14.795,88.404,15.36z M96.216,7.108l1.451-0.604
			c0.62,0.925,1.142,1.816,1.566,2.675l-1.501,0.652C97.211,8.69,96.707,7.783,96.216,7.108z M98.467,6.244l1.435-0.652
			c0.63,0.859,1.175,1.729,1.631,2.609l-1.468,0.701C99.521,7.826,98.988,6.94,98.467,6.244z"/>
		<path d="M117.042,11.936l-0.963,2.3c-1.533-0.805-3.539-1.631-6.018-2.479v4.729c0,0.543,0.049,1.316,0.146,2.315h-2.609
			c0.123-0.793,0.18-1.565,0.18-2.315V6.896c0-0.729-0.057-1.402-0.18-2.022h2.609c-0.098,0.881-0.146,1.555-0.146,2.022v2.446
			c1.119,0.326,2.372,0.748,3.76,1.264C115.206,11.123,116.28,11.566,117.042,11.936z"/>
		<path d="M129.175,8.658h3.768c0.489,0,1.093-0.033,1.81-0.098v2.283c-1.196-0.054-1.805-0.081-1.826-0.081h-3.768
			c-0.055,1.805-0.435,3.375-1.14,4.713c-0.709,1.337-1.916,2.517-3.622,3.539l-2.071-1.533c1.555-0.707,2.684-1.623,3.387-2.748
			c0.699-1.125,1.082-2.449,1.147-3.971h-4.257c-0.239,0-0.88,0.032-1.922,0.098V8.543c0.782,0.077,1.4,0.114,1.856,0.114h4.338
			V6.831c0-0.804-0.07-1.457-0.212-1.957h2.643c-0.085,0.468-0.131,1.125-0.131,1.974V8.658z"/>
		<path d="M151.845,17.839l-2.25,0.995c-0.164-0.435-0.426-1.093-0.785-1.973c-4.044,0.457-7.345,0.815-9.898,1.076
			c-0.153,0.022-0.41,0.055-0.772,0.098c-0.367,0.043-0.63,0.076-0.791,0.098l-0.394-2.43c0.858,0,1.476-0.005,1.843-0.017
			l0.456-0.016c0.979-2.533,1.941-5.463,2.887-8.791c0.218-0.793,0.354-1.435,0.408-1.924l2.642,0.539
			c-0.251,0.554-0.489,1.174-0.717,1.859c-1.533,4.631-2.441,7.333-2.721,8.105c1.355-0.13,3.389-0.353,6.096-0.668
			c-0.675-1.38-1.256-2.397-1.745-3.049l2.088-0.848c0.587,0.892,1.244,2.033,1.974,3.425
			C150.892,15.708,151.452,16.883,151.845,17.839z"/>
		<path d="M156.051,12.572c0.862-2.142,1.387-4.256,1.582-6.344l2.446,0.522c-0.218,0.794-0.354,1.343-0.408,1.647
			c-0.12,0.652-0.317,1.471-0.596,2.454c-0.276,0.984-0.552,1.84-0.822,2.569c-0.664,1.783-1.479,3.375-2.446,4.778l-2.349-0.979
			C154.545,15.773,155.411,14.225,156.051,12.572z M164.305,12.229c-0.742-2.043-1.551-3.875-2.432-5.496l2.218-0.718
			c0.826,1.566,1.652,3.392,2.479,5.479c0.695,1.794,1.343,3.735,1.944,5.822l-2.481,0.799
			C165.477,15.823,164.9,13.86,164.305,12.229z"/>
		<path d="M183.062,7.076l1.447,0.881c-0.12,0.337-0.234,0.783-0.343,1.337c-0.315,1.815-0.831,3.392-1.549,4.729
			c-0.664,1.218-1.591,2.259-2.779,3.123c-1.192,0.865-2.537,1.492-4.038,1.884l-1.729-2.006c0.837-0.141,1.62-0.353,2.349-0.636
			c1.641-0.62,2.908-1.576,3.803-2.87c0.758-1.087,1.253-2.517,1.483-4.289h-8.287v2.446c0,0.5,0.017,0.913,0.052,1.239h-2.302
			c0.054-0.467,0.081-0.935,0.081-1.402V8.609c0-0.62-0.027-1.098-0.081-1.435c0.489,0.054,1.054,0.082,1.695,0.082h3.572V5.983
			c0-0.489-0.044-1.006-0.131-1.549h2.583c-0.083,0.674-0.12,1.19-0.12,1.549v1.272h2.902
			C182.258,7.255,182.723,7.195,183.062,7.076z"/>
		<path d="M198.583,5.738l1.37,1.028c-0.219,0.305-0.411,0.647-0.588,1.027c-0.771,1.761-1.644,3.294-2.625,4.599
			c0.793,0.685,1.639,1.493,2.536,2.422c0.896,0.93,1.605,1.715,2.128,2.356l-1.908,1.647c-1.076-1.479-2.479-3.055-4.208-4.729
			c-1.957,2.066-4.05,3.631-6.275,4.697l-1.715-1.81c1.271-0.478,2.521-1.158,3.751-2.039c1.228-0.881,2.261-1.794,3.098-2.74
			c0.555-0.63,1.061-1.321,1.518-2.071c0.456-0.75,0.776-1.424,0.962-2.022h-5.659c-0.204,0-0.442,0.008-0.71,0.025
			c-0.266,0.016-0.524,0.035-0.774,0.057c-0.25,0.022-0.413,0.033-0.488,0.033V5.836c0.608,0.087,1.269,0.13,1.973,0.13h5.888
			C197.571,5.967,198.149,5.891,198.583,5.738z"/>
		<path d="M205.351,5.135l2.315,0.212c-0.098,0.25-0.228,0.739-0.391,1.468c-0.545,2.642-0.814,4.664-0.814,6.066
			c0,0.392,0.021,0.745,0.064,1.06c0.086-0.217,0.22-0.514,0.398-0.889c0.181-0.375,0.299-0.633,0.352-0.774l1.029,0.799
			c-0.645,1.871-1.041,3.224-1.192,4.061c-0.063,0.305-0.099,0.56-0.099,0.766c0.011,0.065,0.02,0.177,0.025,0.334
			c0.005,0.158,0.01,0.274,0.01,0.351l-1.91,0.13c-0.424-1.5-0.636-3.305-0.636-5.414c0-0.576,0.03-1.226,0.095-1.949
			c0.055-0.723,0.111-1.297,0.166-1.721c0.054-0.424,0.136-0.995,0.244-1.712s0.172-1.104,0.18-1.158
			C205.296,5.983,205.351,5.44,205.351,5.135z M209.64,13.322l1.908,0.18c-0.141,0.587-0.212,1.049-0.212,1.386
			c0,0.783,0.771,1.174,2.315,1.174c1.326,0,2.707-0.146,4.143-0.44l0.051,2.251c-1.198,0.217-2.622,0.326-4.274,0.326
			c-1.39,0-2.441-0.239-3.147-0.718c-0.708-0.478-1.061-1.146-1.061-2.006C209.362,14.909,209.454,14.192,209.64,13.322z
			 M210.227,8.56l-0.016-2.137c1.086,0.13,2.303,0.191,3.645,0.18c1.343-0.011,2.497-0.07,3.466-0.18V8.56
			C214.973,8.767,212.607,8.767,210.227,8.56z"/>
		<path d="M227.383,13.485h-4.631c-0.131,2.675-0.626,4.697-1.484,6.067c-0.163-0.163-0.412-0.375-0.75-0.636
			c-0.337-0.261-0.615-0.446-0.832-0.554c0.805-1.305,1.207-3.409,1.207-6.312V7.81h6.49V13.485z M227.726,4.76v1.793h-7.388V4.76
			H227.726z M225.476,9.587h-2.691v2.12h2.691V9.587z M235.603,9.571v1.924h-1.484v8.04h-1.973v-8.04h-1.923
			c-0.209,3.545-1.209,6.214-3,8.008c-0.133-0.218-0.353-0.468-0.663-0.75c-0.31-0.283-0.578-0.479-0.808-0.587
			c0.555-0.555,1.012-1.179,1.37-1.875c0.361-0.696,0.62-1.424,0.783-2.186c0.165-0.761,0.275-1.446,0.326-2.055
			c0.054-0.608,0.081-1.283,0.081-2.022V5.429l1.37,0.31c1.815-0.532,3.174-1.076,4.08-1.63l1.742,1.5
			c-1.436,0.696-3.187,1.294-5.252,1.794v2.169H235.603z"/>
		<path d="M251.911,7.81h-8.937c-0.153,0.348-0.376,0.789-0.669,1.321h7.729v8.252c0,0.511-0.063,0.908-0.188,1.19
			c-0.125,0.282-0.351,0.494-0.677,0.636c-0.456,0.217-1.446,0.326-2.968,0.326c-0.088-0.62-0.283-1.261-0.587-1.924
			c0.564,0.033,1.266,0.049,2.106,0.049c0.25-0.011,0.372-0.119,0.372-0.326v-1.011h-6.018v3.196h-1.974v-7.257
			c-0.707,0.772-1.441,1.419-2.201,1.941c-0.283-0.446-0.718-0.951-1.305-1.517c1.685-1.13,3.07-2.756,4.158-4.876h-3.669V5.951
			h4.501c0.293-0.772,0.511-1.446,0.654-2.022l2.053,0.457c-0.163,0.522-0.343,1.044-0.538,1.566h8.154V7.81z M248.095,11.936v-1.06
			h-6.018v1.06H248.095z M242.077,14.675h6.018v-1.076h-6.018V14.675z"/>
		<path d="M261.924,18.769l-1.239-1.957c0.587-0.076,1.103-0.163,1.55-0.261c1.11-0.261,2.011-0.777,2.707-1.549
			c0.697-0.771,1.043-1.734,1.043-2.886s-0.301-2.12-0.905-2.903c-0.603-0.783-1.454-1.272-2.552-1.468
			c-0.305,1.848-0.631,3.349-0.979,4.501c-0.5,1.707-1.105,3.028-1.826,3.963c-0.718,0.935-1.522,1.402-2.414,1.402
			c-0.924,0-1.714-0.459-2.373-1.378c-0.657-0.918-0.986-2.063-0.986-3.433c0-1.924,0.739-3.584,2.218-4.982
			c1.479-1.397,3.278-2.096,5.398-2.096c2,0,3.614,0.617,4.836,1.851c1.222,1.234,1.834,2.775,1.834,4.624
			c0,1.761-0.538,3.218-1.614,4.371S263.979,18.454,261.924,18.769z M257.391,15.083c0.685,0,1.354-1.092,2.006-3.278
			c0.392-1.217,0.689-2.555,0.898-4.012c-1.282,0.272-2.304,0.889-3.059,1.851c-0.757,0.962-1.135,1.943-1.135,2.943
			c0,0.783,0.131,1.395,0.392,1.835C256.754,14.863,257.055,15.083,257.391,15.083z"/>
		<path d="M272.573,10.109V7.761c-0.577,0.413-1.022,0.707-1.337,0.881c-0.501-0.631-0.978-1.114-1.436-1.452
			c0.849-0.391,1.661-0.875,2.438-1.452c0.777-0.576,1.399-1.174,1.867-1.793l1.794,0.668c-0.424,0.555-0.908,1.087-1.451,1.598
			v3.898H272.573z M283.598,16.991h-2.625c1.685,0.544,3.18,1.098,4.484,1.664l-2.397,0.88c-1.011-0.554-2.436-1.136-4.272-1.745
			l1.436-0.799h-4.616l1.324,0.604c-1.352,0.793-3.091,1.457-5.222,1.99c-0.424-0.533-0.902-1.006-1.436-1.419
			c1.794-0.304,3.268-0.696,4.42-1.174h-2.234v-6.409h11.139V16.991z M274.384,11.724v0.652h7.191v-0.652H274.384z M274.384,13.436
			v0.668h7.191v-0.668H274.384z M274.384,15.181v0.685h7.191v-0.685H274.384z M279.129,6.456V5.788
			c-0.596,0.033-1.506,0.06-2.723,0.082c-0.065-0.402-0.196-0.804-0.392-1.207c3.152-0.098,5.62-0.31,7.403-0.636l0.995,1.223
			c-0.9,0.163-2.028,0.299-3.376,0.408v0.799h4.24v1.386h-4.24v0.767h3.687v1.37h-8.97v-1.37h3.375V7.842h-3.928V6.456H279.129z"/>
		<path d="M289.795,9.539V7.5c-0.555,0.391-1.152,0.755-1.794,1.092c-0.521-0.663-0.987-1.136-1.402-1.418
			c0.935-0.402,1.824-0.9,2.667-1.492c0.842-0.592,1.524-1.22,2.046-1.884l1.811,0.685c-0.4,0.522-0.876,1.027-1.419,1.517v3.539
			H289.795z M300.281,16.73h-2.887c1.828,0.652,3.413,1.305,4.762,1.957l-2.299,0.88c-1.044-0.609-2.495-1.267-4.354-1.973
			l1.517-0.864h-4.893l1.533,0.668c-1.305,0.848-3.045,1.576-5.219,2.186c-0.565-0.62-1.053-1.104-1.468-1.452
			c1.848-0.337,3.381-0.804,4.599-1.402h-2.462V9.946h10.322c-0.835-0.087-1.628-0.37-2.378-0.848
			c-0.75-0.478-1.383-1.104-1.894-1.875l-2.82,0.179l-0.146-1.468l2.248-0.146c-0.228-0.652-0.375-1.267-0.44-1.843h1.859
			c0.068,0.543,0.25,1.125,0.555,1.745l2.593-0.146c-0.761-0.315-1.451-0.549-2.071-0.701l0.897-0.946
			c1.185,0.207,2.142,0.517,2.87,0.93l-0.587,0.652l1.712-0.098l0.163,1.435l-4.55,0.261c0.826,0.794,1.709,1.19,2.642,1.19
			c0.22-0.011,0.368-0.095,0.448-0.252c0.085-0.158,0.147-0.454,0.189-0.889c0.4,0.315,0.885,0.543,1.45,0.685
			c-0.098,0.805-0.288,1.359-0.571,1.664c-0.283,0.305-0.723,0.473-1.32,0.505V16.73z M291.034,11.137v0.717h7.241v-0.717H291.034z
			 M291.034,12.979v0.717h7.241v-0.717H291.034z M291.034,14.806v0.734h7.241v-0.734H291.034z"/>
		<path d="M309.757,11.3l0.262,1.761c-0.219,0.054-0.525,0.146-0.92,0.277c-0.399,0.13-0.689,0.223-0.874,0.277v5.937h-1.827v-5.398
			c-0.207,0.065-0.484,0.149-0.832,0.252c-0.349,0.104-0.659,0.196-0.927,0.277c-0.275,0.082-0.525,0.15-0.754,0.204l-0.473-1.875
			c0.522-0.109,1.519-0.364,2.985-0.767V9.049h-1.126c-0.174,0.794-0.381,1.506-0.62,2.136c-0.304-0.25-0.772-0.555-1.402-0.913
			c0.457-1.163,0.777-2.957,0.962-5.382l1.648,0.277c-0.065,0.631-0.146,1.294-0.244,1.989h0.782V3.961h1.827v3.196h1.386v1.892
			h-1.386v2.691L309.757,11.3z M312.726,6.521h6.278c-0.011,0.457-0.022,0.761-0.03,0.913c-0.153,3.729-0.323,6.393-0.508,7.991
			c-0.186,1.598-0.436,2.604-0.75,3.017c-0.316,0.467-0.75,0.755-1.305,0.864c-0.41,0.076-1.039,0.092-1.876,0.049
			c-0.062-0.707-0.25-1.354-0.554-1.941c0.412,0.044,0.908,0.065,1.483,0.065c0.25,0,0.457-0.103,0.62-0.31
			c0.424-0.532,0.75-3.468,0.979-8.806h-0.082c-0.446,2.283-1.108,4.39-1.989,6.319c-0.881,1.93-1.957,3.417-3.228,4.46
			c-0.458-0.457-1-0.843-1.633-1.158c1.272-0.913,2.343-2.22,3.214-3.922c0.869-1.701,1.526-3.601,1.973-5.7h-0.783
			c-0.391,1.435-0.927,2.824-1.604,4.167c-0.682,1.343-1.425,2.395-2.229,3.156c-0.414-0.435-0.919-0.81-1.515-1.125
			c0.783-0.62,1.493-1.487,2.134-2.602c0.642-1.114,1.163-2.313,1.55-3.596h-0.848c-0.522,1.229-1.093,2.224-1.713,2.984
			c-0.337-0.337-0.84-0.707-1.517-1.109c1.25-1.37,2.163-3.468,2.74-6.295l1.811,0.326C313.225,4.814,313.019,5.565,312.726,6.521z"
			/>
		<path d="M323.701,4.01l1.895,0.604c-0.471,1.229-1.021,2.414-1.648,3.555v11.351h-1.877V11.12
			c-0.196,0.25-0.533,0.652-1.012,1.207c-0.224-0.63-0.582-1.321-1.06-2.071c0.738-0.75,1.44-1.685,2.104-2.805
			C322.765,6.331,323.298,5.184,323.701,4.01z M335.703,11.984v1.941h-4.271v5.61h-2.007v-5.61h-4.501v-1.941h4.501v-2.87h-2.035
			c-0.308,0.827-0.65,1.544-1.03,2.153c-0.501-0.348-1.077-0.663-1.729-0.946c0.858-1.24,1.517-3.061,1.974-5.463l1.925,0.408
			c-0.077,0.402-0.24,1.039-0.489,1.908h1.386V4.157h2.007v3.017h3.489v1.94h-3.489v2.87H335.703z"/>
		<path d="M346.728,15.687h-1.989c0.021-0.304,0.047-0.962,0.067-1.973c-1.264,0.685-1.894,1.397-1.894,2.136
			c0,0.435,0.189,0.737,0.57,0.905s0.995,0.252,1.843,0.252c1.576,0,3.142-0.157,4.697-0.473l-0.065,2.153
			c-1.479,0.174-3.039,0.261-4.681,0.261c-3.033,0-4.55-0.918-4.55-2.756c0-0.5,0.108-0.976,0.329-1.427
			c0.214-0.451,0.524-0.859,0.927-1.223c0.401-0.364,0.808-0.679,1.215-0.946c0.408-0.266,0.883-0.535,1.427-0.807
			c-0.239-0.38-0.626-0.571-1.157-0.571c-0.447,0-0.903,0.109-1.368,0.326c-0.47,0.217-0.873,0.489-1.209,0.815
			c-0.358,0.358-0.875,0.962-1.55,1.81l-1.761-1.321c1.696-1.566,2.908-3.077,3.637-4.534h-0.195c-1.022,0-1.948-0.038-2.789-0.114
			V6.26c0.761,0.12,1.729,0.18,2.902,0.18h0.8c0.217-0.815,0.331-1.44,0.342-1.875l2.169,0.179c-0.096,0.5-0.233,1.044-0.407,1.631
			c1.848-0.098,3.408-0.261,4.681-0.489l-0.014,1.941c-1.502,0.217-3.303,0.364-5.398,0.44c-0.286,0.631-0.601,1.186-0.948,1.664
			c0.457-0.217,1.076-0.326,1.859-0.326c0.511,0,0.965,0.112,1.354,0.334c0.392,0.223,0.68,0.541,0.864,0.954
			c0.478-0.229,1.223-0.56,2.234-0.995c0.238-0.108,0.564-0.261,0.979-0.457c0.412-0.196,0.689-0.326,0.831-0.391l0.849,1.924
			c-0.37,0.087-1.027,0.321-1.974,0.701c-1.109,0.424-2.005,0.794-2.69,1.109c0.01,0.359,0.026,0.913,0.041,1.664
			C346.723,15.197,346.728,15.611,346.728,15.687z"/>
		<path d="M100.016,35.73l0.229,1.777c-0.186,0.055-0.446,0.13-0.783,0.229c-0.337,0.098-0.57,0.163-0.698,0.195v3.979
			c0,0.957-0.237,1.56-0.701,1.81c-0.459,0.272-1.291,0.408-2.498,0.408c-0.055-0.576-0.239-1.223-0.555-1.94
			c0.707,0.033,1.224,0.038,1.551,0.016c0.194,0,0.293-0.103,0.293-0.31V38.47l-1.859,0.505l-0.408-1.924
			c0.034-0.011,0.788-0.185,2.268-0.522v-3h-1.94v-1.827h1.94v-3.131h1.91v3.131h1.386v1.827h-1.386v2.528L100.016,35.73z
			 M103.721,35.91h6.309c-0.012,0.359-0.027,0.615-0.049,0.767c-0.109,2.196-0.242,3.792-0.399,4.786
			c-0.158,0.995-0.373,1.65-0.643,1.965c-0.294,0.359-0.733,0.582-1.323,0.668c-0.489,0.043-1.196,0.049-2.119,0.017
			c-0.033-0.489-0.164-0.974-0.393-1.452h-1.875c-0.815,0-1.358-0.139-1.631-0.416c-0.272-0.277-0.408-0.802-0.408-1.574v-1.354
			c-0.305,0.272-0.521,0.462-0.652,0.571c-0.152-0.195-0.372-0.435-0.66-0.717s-0.529-0.495-0.726-0.636
			c1.25-0.837,2.237-2.027,2.952-3.571h-1.076V29.06h8.236v5.904h-5.122C104.021,35.279,103.881,35.595,103.721,35.91z
			 M103.44,41.145h1.533c0.195,0,0.323-0.057,0.383-0.171c0.06-0.114,0.103-0.378,0.122-0.791c0.392,0.272,0.887,0.473,1.484,0.603
			c-0.065,0.522-0.169,0.917-0.31,1.183c-0.14,0.267-0.349,0.454-0.62,0.563c0.196,0.011,0.43,0.016,0.701,0.016
			c0.25,0,0.451-0.076,0.604-0.228c0.337-0.337,0.587-1.924,0.75-4.762h-5.365c-0.032,0.044-0.079,0.106-0.139,0.188
			s-0.105,0.145-0.139,0.188h0.443v0.897c1-0.272,1.792-0.555,2.378-0.848l1.158,1.223c-0.925,0.391-2.102,0.729-3.536,1.011v0.44
			c0,0.218,0.03,0.354,0.095,0.408C103.049,41.118,103.201,41.145,103.44,41.145z M102.822,30.463v0.897h4.549v-0.897H102.822z
			 M102.822,32.665v0.897h4.549v-0.897H102.822z"/>
		<path d="M124.543,34.426l1.762,0.554c-0.685,2.142-1.588,3.979-2.707,5.512c0.392,1.142,0.825,1.712,1.307,1.712
			c0.313,0,0.509-0.913,0.588-2.74c0.454,0.489,0.979,0.843,1.563,1.06c-0.13,1.414-0.364,2.37-0.701,2.87
			c-0.337,0.5-0.881,0.75-1.631,0.75c-1.022,0-1.859-0.664-2.512-1.99c-0.772,0.793-1.576,1.468-2.413,2.022
			c-0.272-0.489-0.713-0.989-1.321-1.5h-1.546v1.484h-1.748v-1.484h-3.278v-1.435h3.278V40.59h-2.74v-4.11h2.707v-0.652h-3v-1.386h3
			v-0.734h-3.457v-1.631h3.425V31.18h-2.688v-1.5h2.688v-1.109h1.908v1.109h2.675v1.5h-2.675v0.897h3.506
			c-0.044-1.033-0.065-2.202-0.065-3.506h2.007c-0.033,1-0.028,2.169,0.016,3.506h4.322v1.631h-4.256
			c0.107,1.675,0.264,3.099,0.459,4.273C123.651,36.872,124.162,35.687,124.543,34.426z M113.829,37.443v0.62h1.5v-0.62H113.829z
			 M113.829,39.008v0.62h1.5v-0.62H113.829z M116.765,38.063h1.549v-0.62h-1.549V38.063z M116.765,39.628h1.549v-0.62h-1.549V39.628
			z M119.977,41.243v0.358c0.588-0.478,1.093-0.967,1.518-1.468c-0.447-1.663-0.74-3.805-0.881-6.425h-3.67v0.734h3.05v1.386h-3.05
			v0.652h2.821v4.11h-2.834v0.652H119.977z M126.582,30.903l-1.565,1.077c-0.382-0.663-1.05-1.462-2.003-2.397l1.465-0.962
			C125.479,29.533,126.181,30.294,126.582,30.903z"/>
		<path d="M141.536,30.772l0.395,2.087c-1.001,0.272-1.937,0.495-2.808,0.669c0.739,1.555,1.451,2.963,2.136,4.224l-1.174,1.256
			c-1.271-0.261-2.522-0.462-3.751-0.604l0.181-1.712c0.14,0.011,0.458,0.044,0.944,0.098c0.489,0.054,0.826,0.087,1.014,0.098
			c-0.164-0.337-0.649-1.348-1.453-3.033c-2.022,0.207-4.345,0.207-6.964,0l-0.082-2.12c2.261,0.283,4.322,0.337,6.182,0.163
			c-0.099-0.196-0.213-0.457-0.343-0.783c-0.258-0.587-0.533-1.114-0.815-1.582l2.332-0.457c0.25,0.794,0.57,1.636,0.962,2.528
			C139.433,31.398,140.515,31.121,141.536,30.772z M130.757,37.263l2.137,0.18c-0.305,0.837-0.457,1.495-0.457,1.973
			c0,0.652,0.217,1.153,0.652,1.5c0.435,0.348,1.201,0.521,2.3,0.521c0.717,0,1.377-0.027,1.981-0.082
			c0.603-0.054,1.026-0.103,1.272-0.146s0.665-0.125,1.263-0.245l-0.049,2.185c-1.457,0.261-2.946,0.392-4.468,0.392
			c-1.664,0-2.931-0.305-3.8-0.913c-0.868-0.609-1.305-1.489-1.305-2.642C130.284,39.313,130.44,38.405,130.757,37.263z"/>
		<path d="M154.779,29.647h2.234c-0.041,0.195-0.077,0.668-0.099,1.418c-0.011,0.577-0.026,1.174-0.049,1.794
			c0.652-0.043,1.072-0.07,1.256-0.082c0.054,0,0.282-0.016,0.685-0.049s0.701-0.054,0.897-0.065v2.038
			c-0.283-0.021-0.813-0.016-1.599,0.017c-0.619,0.033-1.044,0.054-1.271,0.065c-0.065,1.675-0.147,2.772-0.245,3.294
			c-0.075,0.414-0.223,0.699-0.44,0.856s-0.549,0.236-0.993,0.236c-0.684,0-1.517-0.082-2.496-0.245l0.049-1.827
			c0.695,0.13,1.201,0.196,1.517,0.196c0.173,0,0.299-0.024,0.375-0.073c0.075-0.049,0.124-0.149,0.146-0.302
			c0.054-0.402,0.092-1.065,0.116-1.99c-1.514,0.12-3.009,0.256-4.486,0.408c-0.022,2.033-0.022,3.284,0,3.751
			c0.013,0.37,0.032,0.647,0.064,0.832c0.033,0.185,0.092,0.37,0.18,0.555c0.087,0.185,0.231,0.31,0.435,0.375
			c0.199,0.065,0.454,0.12,0.768,0.163c0.306,0.044,0.717,0.065,1.228,0.065c1.696,0,3.344-0.147,4.941-0.44l-0.081,2.267
			c-1.599,0.185-3.17,0.277-4.713,0.277c-0.871,0-1.588-0.044-2.153-0.13c-0.565-0.087-1.029-0.209-1.395-0.367
			c-0.364-0.157-0.636-0.399-0.823-0.726c-0.186-0.326-0.313-0.677-0.384-1.052c-0.07-0.375-0.111-0.873-0.122-1.492
			c-0.011-0.467-0.014-1.75-0.014-3.849l-1.126,0.114c-0.034,0-0.697,0.098-1.991,0.294l-0.212-2.12
			c0.555,0,1.245-0.033,2.071-0.098l1.258-0.114v-1.663c0-0.598-0.043-1.212-0.133-1.843h2.332
			c-0.065,0.554-0.098,1.125-0.098,1.712c0,0.631-0.006,1.163-0.015,1.598c0.227-0.021,0.887-0.084,1.98-0.188
			c1.092-0.103,1.932-0.182,2.519-0.237v-1.875C154.893,30.604,154.854,30.104,154.779,29.647z"/>
		<path d="M162.443,33.512l-0.195-2.267c0.564-0.011,1.103-0.043,1.614-0.098c0.25-0.021,2.626-0.228,7.127-0.62
			c1.837-0.141,3.399-0.239,4.681-0.293l0.016,2.136c-1.479,0-2.538,0.071-3.18,0.212c-0.979,0.261-1.805,0.848-2.479,1.761
			c-0.675,0.913-1.012,1.87-1.012,2.87c0,0.652,0.145,1.226,0.432,1.721c0.289,0.495,0.688,0.886,1.199,1.174
			c0.513,0.289,1.07,0.509,1.68,0.661c0.608,0.152,1.287,0.25,2.022,0.293l-0.767,2.283c-0.892-0.055-1.734-0.218-2.527-0.489
			c-0.791-0.271-1.509-0.636-2.145-1.093c-0.637-0.457-1.142-1.038-1.518-1.745c-0.371-0.707-0.562-1.489-0.562-2.349
			c0-1.098,0.247-2.104,0.742-3.017c0.494-0.913,1.062-1.609,1.703-2.087C166.08,32.893,163.805,33.208,162.443,33.512z"/>
		<path d="M184.264,31.343h-1.791v10.095c0,0.511-0.059,0.911-0.174,1.199c-0.113,0.288-0.317,0.508-0.611,0.661
			c-0.489,0.25-1.419,0.364-2.789,0.342c-0.076-0.631-0.269-1.266-0.587-1.908c0.521,0.021,1.152,0.032,1.894,0.032
			c0.22-0.011,0.324-0.125,0.324-0.342V31.343h-2.299v-1.859h6.033V31.343z M193.221,40.835h-6.266l1.533,1.06
			c-0.533,0.413-1.193,0.818-1.982,1.215c-0.785,0.396-1.557,0.726-2.307,0.986c-0.27-0.402-0.675-0.859-1.207-1.37
			c0.688-0.217,1.388-0.502,2.105-0.856c0.716-0.353,1.275-0.698,1.678-1.035h-1.696v-8.791h2.597l0.241-1.174h-3.376v-1.664h9.198
			v1.664h-3.588c-0.044,0.12-0.116,0.313-0.221,0.579c-0.103,0.267-0.177,0.465-0.22,0.595h3.51V40.835z M186.907,33.496v1.043
			h4.386v-1.043H186.907z M186.907,35.894v1.06h4.386v-1.06H186.907z M186.907,38.34v1.06h4.386v-1.06H186.907z M189.336,41.927
			l1.469-1.06c1.467,0.794,2.569,1.496,3.31,2.104l-1.582,1.174C191.913,43.569,190.848,42.83,189.336,41.927z"/>
		<path d="M196.643,29.5l2.462,0.245c-0.229,0.718-0.358,1.164-0.392,1.337c-0.717,3.262-0.902,5.713-0.554,7.355
			c0.054-0.119,0.174-0.41,0.358-0.873c0.185-0.462,0.33-0.807,0.424-1.036l1.044,0.652c-0.479,1.402-0.854,2.751-1.125,4.044
			c-0.077,0.283-0.114,0.549-0.114,0.799l0.049,0.685l-1.843,0.18c-0.229-0.641-0.446-1.462-0.652-2.462
			c-0.205-1-0.31-1.962-0.31-2.887c0-2.076,0.184-4.278,0.554-6.605C196.611,30.556,196.643,30.077,196.643,29.5z M209.723,32.403
			l-0.018,2.153c-0.805,0.098-1.62,0.168-2.446,0.212v0.685c0,0.88-0.019,1.612-0.057,2.193c-0.039,0.582-0.125,1.193-0.261,1.834
			c-0.137,0.642-0.332,1.194-0.594,1.656c-0.263,0.462-0.613,0.927-1.055,1.394c-0.439,0.467-0.986,0.908-1.639,1.321l-1.907-1.517
			c0.814-0.358,1.456-0.793,1.924-1.305c0.608-0.63,1.02-1.354,1.23-2.169c0.213-0.815,0.321-1.951,0.321-3.408V34.85
			c-0.829,0.022-1.448,0.033-1.861,0.033c-0.348,0-1.202-0.027-2.561-0.082v-2.104c0.771,0.109,1.608,0.163,2.513,0.163
			c0.403,0,1.026-0.011,1.874-0.032c-0.008-0.75-0.043-1.489-0.098-2.218c-0.044-0.511-0.104-0.891-0.18-1.142h2.432
			c-0.034,0.163-0.062,0.538-0.083,1.125c-0.022,0.5-0.032,1.207-0.032,2.12C208.14,32.648,208.973,32.545,209.723,32.403z"/>
		<path d="M220.615,31.034l0.049,1.924c-0.989,0.261-1.943,0.451-2.87,0.571c-0.392,1.174-0.913,2.414-1.565,3.718
			s-1.311,2.425-1.974,3.359l-2.022-1.011c0.631-0.761,1.25-1.682,1.859-2.764c0.611-1.082,1.114-2.112,1.517-3.09
			c-0.186,0.011-0.47,0.016-0.864,0.016c-0.663,0-1.354-0.016-2.071-0.049l-0.146-1.94c0.675,0.076,1.407,0.114,2.201,0.114
			c0.479,0,0.973-0.016,1.484-0.049c0.271-1.098,0.427-2.022,0.457-2.772l2.283,0.245c-0.283,1.153-0.468,1.903-0.555,2.25
			C219.095,31.436,219.832,31.262,220.615,31.034z M220.746,34.442h2.087c-0.022,0.337-0.022,1.044,0,2.12
			c0.021,0.718,0.056,1.414,0.098,2.087c1.24,0.468,2.382,1.174,3.425,2.12l-1.105,1.777c-0.852-0.783-1.597-1.37-2.234-1.761v0.147
			c0,0.827-0.253,1.49-0.762,1.99c-0.505,0.5-1.313,0.75-2.422,0.75c-1.076,0-1.959-0.236-2.649-0.709
			c-0.69-0.473-1.036-1.149-1.036-2.03c0-0.826,0.332-1.511,0.995-2.055s1.555-0.815,2.675-0.815c0.261,0,0.63,0.022,1.114,0.065
			C220.931,37.997,220.865,36.769,220.746,34.442z M221.007,40.231v-0.31c-0.489-0.108-0.936-0.163-1.338-0.163
			c-0.468,0-0.845,0.09-1.134,0.269c-0.287,0.18-0.432,0.416-0.432,0.709c0,0.315,0.125,0.568,0.375,0.758
			c0.252,0.19,0.598,0.286,1.044,0.286C220.514,41.781,221.007,41.264,221.007,40.231z M226.845,33.578l-1.174,1.745
			c-0.457-0.37-1.08-0.786-1.884-1.248c-0.799-0.462-1.498-0.829-2.096-1.101l1.076-1.631c0.609,0.272,1.34,0.639,2.193,1.101
			C225.815,32.906,226.442,33.284,226.845,33.578z"/>
		<path d="M229.617,30.772l2.528,0.033c-0.131,0.674-0.196,1.343-0.196,2.006c-0.02,1.305,0.011,2.474,0.098,3.506
			c0.262,2.675,0.857,4.012,1.778,4.012c0.348,0,0.677-0.331,0.986-0.995c0.311-0.663,0.563-1.413,0.759-2.25l1.68,2.006
			c-0.545,1.402-1.087,2.4-1.631,2.993c-0.545,0.592-1.158,0.889-1.843,0.889c-0.979,0-1.811-0.486-2.495-1.459
			c-0.684-0.973-1.142-2.509-1.37-4.607c-0.12-1.239-0.18-2.729-0.18-4.468C229.731,31.718,229.693,31.164,229.617,30.772z
			 M238.31,31.849l2.104-0.702c0.751,0.925,1.419,2.234,2.006,3.931c0.588,1.696,0.93,3.208,1.028,4.534l-2.202,0.832
			c-0.138-1.576-0.459-3.169-0.954-4.778C239.796,34.056,239.139,32.784,238.31,31.849z"/>
		<path d="M245.909,33.545l-0.212-2.267c0.598-0.011,1.136-0.043,1.614-0.098c0.402-0.033,0.963-0.082,1.68-0.146
			c0.718-0.065,1.617-0.144,2.7-0.237c1.081-0.092,2.002-0.171,2.764-0.236c1.859-0.141,3.419-0.239,4.684-0.293l0.013,2.136
			c-1.435,0-2.495,0.077-3.179,0.229c-0.991,0.261-1.822,0.845-2.496,1.753c-0.672,0.908-1.012,1.862-1.012,2.862
			c0,0.652,0.145,1.226,0.435,1.72c0.286,0.495,0.686,0.889,1.198,1.183c0.509,0.293,1.072,0.517,1.686,0.668
			c0.615,0.152,1.291,0.245,2.031,0.277l-0.767,2.283c-0.89-0.055-1.731-0.215-2.527-0.481c-0.794-0.266-1.507-0.628-2.145-1.084
			c-0.637-0.457-1.142-1.039-1.518-1.745c-0.374-0.707-0.559-1.495-0.559-2.365c0-1.098,0.241-2.101,0.731-3.009
			c0.488-0.908,1.063-1.601,1.711-2.08C249.493,32.953,247.214,33.263,245.909,33.545z M255.598,34.523l1.238-0.505
			c0.608,0.902,1.054,1.658,1.337,2.267l-1.271,0.571C256.455,35.888,256.021,35.11,255.598,34.523z M257.488,33.806l1.207-0.57
			c0.489,0.674,0.956,1.418,1.402,2.234l-1.239,0.587C258.434,35.22,257.978,34.469,257.488,33.806z"/>
		<path d="M264.729,29.468l2.674,0.033c-0.12,0.761-0.19,1.495-0.212,2.202c-0.142,3.077-0.212,5.588-0.212,7.534
			c0,1.468,0.761,2.202,2.284,2.202c2.293,0,4.18-1.125,5.658-3.375l1.5,1.859c-0.304,0.446-0.658,0.868-1.068,1.264
			c-0.407,0.397-0.904,0.794-1.492,1.19c-0.587,0.396-1.28,0.714-2.078,0.954c-0.801,0.239-1.645,0.358-2.537,0.358
			c-1.413,0-2.511-0.326-3.294-0.979c-0.783-0.652-1.174-1.658-1.174-3.017c0-0.805,0.026-2.237,0.081-4.297
			c0.055-2.06,0.082-3.292,0.082-3.694C264.941,30.843,264.87,30.099,264.729,29.468z"/>
		<path d="M291.36,41.536l-1.125,1.794c-0.946-0.946-1.87-1.664-2.772-2.153v0.408c0,0.685-0.226,1.248-0.677,1.688
			c-0.45,0.44-1.188,0.66-2.208,0.66c-1.057,0-1.933-0.226-2.628-0.677s-1.043-1.089-1.043-1.916c0-0.804,0.338-1.443,1.002-1.916
			c0.67-0.473,1.596-0.709,2.781-0.709c0.154,0,0.369,0.011,0.654,0.032c-0.057-1.543-0.081-2.424-0.081-2.642v-2.349
			c0-0.652-0.052-1.195-0.149-1.631h2.251c-0.099,0.468-0.145,1.006-0.145,1.615v0.767c1.501-0.043,2.77-0.12,3.813-0.229
			l0.049,1.843c-0.936,0.087-2.223,0.152-3.862,0.196c0,0.065,0.043,1.011,0.128,2.837C288.849,39.655,290.187,40.449,291.36,41.536
			z M285.424,40.917v-0.473c-0.348-0.054-0.68-0.082-0.993-0.082c-1.077,0-1.616,0.293-1.616,0.881c0,0.25,0.139,0.454,0.417,0.611
			c0.276,0.158,0.638,0.236,1.084,0.236C285.055,42.09,285.424,41.699,285.424,40.917z"/>
		<path d="M305.957,37.198c0-0.576-0.209-1.052-0.629-1.427c-0.418-0.375-1.003-0.557-1.753-0.546c-0.293,0-0.598,0.017-0.913,0.049
			c-0.314,0.033-0.585,0.065-0.807,0.098c-0.224,0.033-0.495,0.087-0.815,0.163c-0.318,0.076-0.542,0.13-0.661,0.163
			c-0.12,0.033-0.332,0.095-0.636,0.188c-0.305,0.093-0.463,0.139-0.474,0.139c-0.185,0.054-0.465,0.152-0.848,0.293
			c-0.381,0.142-0.636,0.234-0.767,0.277l-0.601-2.349c0.464-0.043,1.063-0.141,1.793-0.293c0.085-0.021,0.344-0.079,0.772-0.171
			c0.43-0.092,0.762-0.163,0.998-0.212c0.231-0.049,0.55-0.106,0.951-0.171c0.403-0.065,0.788-0.114,1.158-0.147
			s0.739-0.049,1.108-0.049c1.338,0,2.418,0.362,3.239,1.084c0.82,0.723,1.234,1.72,1.234,2.993c0,1.718-0.722,3.128-2.156,4.232
			c-1.431,1.104-3.345,1.818-5.723,2.145l-1.193-2.071C303.716,41.074,305.957,39.612,305.957,37.198z M299.156,31.262l0.326-2.006
			c0.916,0.207,2.145,0.383,3.693,0.53c1.55,0.146,2.798,0.22,3.744,0.22l-0.343,2.039
			C303.455,31.838,300.984,31.577,299.156,31.262z"/>
		<path d="M316.541,29.305l2.446,0.245c-0.152,0.674-0.25,1.131-0.293,1.37c-0.033,0.185-0.091,0.479-0.169,0.88
			c-0.085,0.403-0.142,0.68-0.174,0.832l1.386-0.082c1.99,0,2.986,1.055,2.986,3.164c0,2.751-0.312,4.762-0.931,6.034
			c-0.262,0.555-0.612,0.946-1.061,1.174c-0.446,0.228-0.996,0.342-1.663,0.342c-0.62,0-1.274-0.082-1.97-0.245l-0.362-2.185
			c0.848,0.239,1.521,0.358,2.022,0.358c0.619,0,1.032-0.239,1.239-0.717c0.456-0.881,0.685-2.392,0.685-4.534
			c0-0.62-0.125-1.024-0.375-1.215c-0.251-0.19-0.669-0.286-1.253-0.286c-0.123,0-0.498,0.022-1.125,0.065
			c-0.979,3.86-2.102,6.806-3.361,8.839l-2.17-0.864c1.305-1.75,2.413-4.327,3.326-7.73c-0.641,0.076-1.114,0.136-1.418,0.179
			c-0.512,0.055-1.12,0.136-1.822,0.245l-0.2-2.234c0.293,0.022,0.881,0.022,1.761,0c0.523-0.021,1.233-0.065,2.138-0.13
			C316.433,31.398,316.552,30.229,316.541,29.305z M322.689,31.947l2.006-0.848c0.467,0.664,0.995,1.639,1.582,2.927
			c0.587,1.289,1.021,2.362,1.305,3.221l-2.088,0.995c-0.239-1.011-0.628-2.142-1.165-3.392
			C323.79,33.6,323.244,32.632,322.689,31.947z"/>
		<path d="M337.205,38.405h-2.154c-0.064-0.489,0-0.938,0.196-1.345c0.197-0.408,0.456-0.753,0.785-1.036
			c0.323-0.283,0.652-0.549,0.984-0.799c0.334-0.25,0.623-0.516,0.863-0.799c0.246-0.283,0.368-0.571,0.368-0.864
			c0-0.489-0.188-0.873-0.563-1.15c-0.37-0.277-0.889-0.416-1.541-0.416c-1,0-1.892,0.44-2.671,1.321l-1.373-1.272
			c1.165-1.358,2.598-2.039,4.306-2.039c1.249,0,2.264,0.289,3.033,0.865c0.771,0.576,1.157,1.402,1.157,2.479
			c0,0.446-0.122,0.856-0.372,1.231s-0.552,0.693-0.899,0.954c-0.349,0.261-0.691,0.522-1.027,0.783
			c-0.338,0.261-0.615,0.568-0.832,0.921C337.247,37.592,337.16,37.981,337.205,38.405z M334.897,42.376
			c-0.332-0.31-0.499-0.704-0.499-1.183c0-0.478,0.167-0.872,0.499-1.182c0.331-0.31,0.746-0.465,1.246-0.465
			s0.914,0.155,1.24,0.465s0.489,0.704,0.489,1.182c0,0.479-0.163,0.873-0.489,1.183c-0.326,0.31-0.74,0.465-1.24,0.465
			S335.229,42.686,334.897,42.376z"/>
	</g>
	<g>
		<path d="M133.146,311.078h-1.83v1.5h1.684v1.843h-1.684v3.49c0,0.521-0.06,0.924-0.177,1.207c-0.123,0.282-0.345,0.5-0.668,0.652
			c-0.512,0.217-1.471,0.326-2.873,0.326c-0.065-0.609-0.268-1.268-0.604-1.974c0.554,0.022,1.223,0.032,2.006,0.032
			c0.141-0.01,0.236-0.032,0.285-0.064c0.05-0.033,0.073-0.104,0.073-0.213v-3.457h-3.49c0.946,0.946,1.615,1.772,2.006,2.479
			l-1.598,1.027c-0.316-0.694-0.946-1.57-1.892-2.625l1.437-0.881h-2.023v-0.881c-0.163,0.055-0.408,0.131-0.734,0.229
			s-0.57,0.175-0.733,0.229v6.132h-1.827v-5.577c-0.174,0.054-0.562,0.169-1.164,0.342c-0.604,0.175-1.054,0.305-1.348,0.393
			l-0.456-1.908c0.395-0.087,1.38-0.338,2.968-0.75v-3.066h-1.125c-0.142,0.695-0.349,1.402-0.62,2.12
			c-0.391-0.326-0.858-0.625-1.402-0.897c0.457-1.141,0.777-2.936,0.962-5.381l1.647,0.26c-0.065,0.676-0.146,1.343-0.242,2.006
			h0.78v-3.114h1.827v3.114h1.386v1.566h3.669v-1.419h-2.951v-1.794h2.951v-1.484h1.974v1.484h3.066v1.794h-3.066v1.419h3.787
			V311.078z M129.358,312.578v-1.5h-5.937v-1.517h-1.092v2.561l1.532-0.44l0.131,0.896H129.358z"/>
		<path d="M136.354,305.729l2.316,0.211c-0.099,0.25-0.229,0.739-0.392,1.469c-0.544,2.642-0.814,4.664-0.814,6.066
			c0,0.391,0.021,0.744,0.064,1.06c0.086-0.217,0.221-0.513,0.401-0.89c0.178-0.373,0.294-0.632,0.349-0.773l1.027,0.799
			c-0.643,1.871-1.039,3.225-1.19,4.061c-0.062,0.305-0.098,0.561-0.098,0.767c0.01,0.065,0.019,0.177,0.024,0.334
			c0.005,0.158,0.012,0.274,0.012,0.351l-1.912,0.131c-0.421-1.5-0.636-3.305-0.636-5.414c0-0.576,0.03-1.226,0.093-1.949
			c0.057-0.723,0.113-1.297,0.168-1.721c0.054-0.424,0.136-0.994,0.246-1.712c0.106-0.718,0.167-1.103,0.178-1.157
			C136.3,306.577,136.354,306.034,136.354,305.729z M140.644,313.915l1.911,0.18c-0.144,0.588-0.215,1.05-0.215,1.387
			c0,0.783,0.771,1.174,2.315,1.174c1.326,0,2.708-0.146,4.143-0.44l0.05,2.251c-1.197,0.217-2.621,0.326-4.273,0.326
			c-1.393,0-2.441-0.24-3.145-0.718c-0.707-0.478-1.063-1.146-1.063-2.006C140.366,315.503,140.458,314.786,140.644,313.915z
			 M141.23,309.153l-0.016-2.137c1.09,0.131,2.302,0.191,3.646,0.18c1.342-0.01,2.496-0.07,3.465-0.18v2.137
			C145.977,309.36,143.612,309.36,141.23,309.153z"/>
		<path d="M164.473,317.585h-2.514c1.805,0.587,3.271,1.125,4.403,1.615l-2.197,0.945c-1.026-0.533-2.517-1.12-4.474-1.762
			l1.272-0.799h-4.45l1.319,0.604c-1.349,0.793-3.089,1.457-5.219,1.989c-0.424-0.532-0.902-1.006-1.434-1.419
			c1.792-0.305,3.265-0.695,4.418-1.174h-2.267v-4.957c-0.521,0.108-0.936,0.184-1.24,0.228c-0.185-0.478-0.494-0.995-0.929-1.55
			c1.935-0.238,3.255-0.646,3.963-1.223h-1.452l-0.064,0.146l-1.811-0.113c0.326-0.718,0.674-1.723,1.046-3.018h3.178v-0.668h-3.783
			v-1.158h3.783v-0.718h1.811v0.718h1.843v-0.718h1.892v0.718h3.539v2.984h-3.539v0.652h4.632c-0.012,0.229-0.019,0.402-0.033,0.521
			c-0.076,1.076-0.234,1.74-0.473,1.99c-0.239,0.239-0.561,0.369-0.962,0.391c-0.022,0-0.063,0.003-0.123,0.008
			c-0.06,0.006-0.105,0.009-0.136,0.009V317.585z M154.326,308.257l-0.244,0.652h1.826c0.065-0.195,0.098-0.413,0.098-0.652H154.326
			z M162.448,312.97v-0.652h-7.176v0.652H162.448z M162.448,314.698v-0.668h-7.176v0.668H162.448z M155.272,315.774v0.686h7.176
			v-0.686H155.272z M159.676,310.083h-2.218c-0.186,0.413-0.457,0.777-0.815,1.093h3.033V310.083z M159.676,308.909v-0.652h-1.843
			c0,0.076-0.005,0.185-0.017,0.326c-0.011,0.142-0.022,0.25-0.032,0.326H159.676z M157.833,306.431v0.668h1.843v-0.668H157.833z
			 M163.313,306.431h-1.745v0.668h1.745V306.431z M164.242,310.083h-2.675v1.093h1.451c-0.044-0.173-0.108-0.358-0.195-0.555
			c0.456,0.056,0.761,0.077,0.913,0.065c0.163,0,0.282-0.043,0.358-0.131C164.165,310.47,164.209,310.312,164.242,310.083z"/>
		<path d="M182.148,305.647v12.133c0,0.544-0.068,0.959-0.203,1.248c-0.137,0.288-0.374,0.502-0.71,0.645
			c-0.545,0.261-1.609,0.38-3.196,0.358c-0.065-0.501-0.275-1.137-0.637-1.908c0.413,0.022,1.192,0.032,2.332,0.032
			c0.294,0,0.44-0.13,0.44-0.391v-2.512h-3.522v4.664h-2.006v-4.664h-3.408c-0.349,2.164-1.05,3.816-2.104,4.957
			c-0.162-0.195-0.411-0.432-0.743-0.709c-0.331-0.277-0.604-0.47-0.821-0.578c0.433-0.479,0.789-1.02,1.068-1.623
			c0.275-0.604,0.474-1.253,0.594-1.949c0.119-0.695,0.198-1.313,0.239-1.851c0.035-0.539,0.054-1.166,0.054-1.884v-5.969H182.148z
			 M171.452,313.378h3.194v-2.055h-3.147v0.309C171.499,312.177,171.482,312.758,171.452,313.378z M174.646,307.539h-3.147v1.94
			h3.147V307.539z M180.175,309.479v-1.94h-3.522v1.94H180.175z M176.652,313.378h3.522v-2.055h-3.522V313.378z"/>
		<path d="M199.797,313.589h-3.33v0.996h2.821v1.68h-2.821v1.793c0,0.501-0.065,0.884-0.195,1.15
			c-0.131,0.266-0.37,0.47-0.717,0.611c-0.5,0.195-1.464,0.293-2.888,0.293c-0.098-0.467-0.337-1.087-0.718-1.859
			c0.565,0.023,1.273,0.033,2.12,0.033c0.229,0,0.345-0.086,0.345-0.261v-1.761h-4.96c0.924,0.695,1.601,1.337,2.022,1.924
			l-1.531,1.239c-0.502-0.782-1.345-1.62-2.526-2.511l0.879-0.652h-3.067v-1.68h9.184v-0.996h-9.819v-1.695h6.523v-0.946h-4.827
			v-1.63h4.827v-0.816h1.011c-0.088-0.054-0.198-0.121-0.343-0.204c-0.142-0.081-0.261-0.151-0.355-0.211
			c-0.101-0.06-0.188-0.112-0.264-0.155c0.141-0.109,0.336-0.299,0.587-0.57h-2.234c0.261,0.488,0.43,0.837,0.506,1.043
			l-1.713,0.701c-0.076-0.314-0.332-0.896-0.766-1.744h-0.163c-0.469,0.674-0.985,1.305-1.55,1.891
			c-0.62-0.488-1.169-0.853-1.647-1.092c1.099-0.902,1.979-2.158,2.643-3.768l1.908,0.506c-0.075,0.184-0.213,0.463-0.408,0.832
			h3.67v1.354c0.685-0.783,1.2-1.68,1.549-2.691l1.908,0.489c-0.054,0.175-0.175,0.456-0.358,0.849h4.614v1.631h-2.771
			c0.325,0.488,0.538,0.837,0.636,1.043l-1.713,0.718c-0.183-0.489-0.527-1.076-1.027-1.761h-0.652
			c-0.315,0.488-0.646,0.918-0.994,1.287v0.67h5.074v1.63h-5.074v0.946h6.607V313.589z"/>
		<path d="M213.431,312.04h-1.536v1.893h3.556v1.826h-3.556v1.793c0,0.305,0.03,0.498,0.09,0.58c0.06,0.08,0.209,0.121,0.448,0.121
			h1.29c0.216,0,0.359-0.116,0.431-0.35c0.073-0.233,0.122-0.748,0.155-1.541c0.499,0.381,1.093,0.642,1.777,0.782
			c-0.098,1.099-0.302,1.851-0.611,2.259c-0.311,0.407-0.835,0.611-1.574,0.611h-1.811c-0.892,0-1.489-0.172-1.801-0.514
			c-0.311-0.343-0.466-0.986-0.466-1.932v-1.811h-2.201c-0.207,0.979-0.658,1.843-1.354,2.593c-0.696,0.75-1.762,1.364-3.196,1.843
			c-0.316-0.576-0.74-1.104-1.272-1.582c1.989-0.608,3.229-1.561,3.719-2.854h-3.312v-1.826h3.588v-1.893h-1.402v-0.538
			c-0.598,0.446-1.343,0.886-2.234,1.321c-0.313-0.555-0.712-1.061-1.186-1.518c1.028-0.434,1.952-1.006,2.768-1.712
			c-0.413-0.413-0.968-0.886-1.663-1.419l1.256-1.043c0.608,0.435,1.142,0.848,1.598,1.238c0.435-0.51,0.791-1.01,1.061-1.5h-3.408
			v-1.695h4.355l0.357-0.082l1.337,0.619c-0.565,1.708-1.474,3.191-2.719,4.453h6.029c-1.25-1.348-2.258-3.055-3.033-5.121
			l1.794-0.489c0.217,0.609,0.494,1.202,0.832,1.777c0.543-0.5,1.037-1.017,1.483-1.549l1.501,1.076
			c-0.74,0.663-1.452,1.251-2.137,1.761c0.195,0.262,0.445,0.55,0.75,0.865c0.892-0.762,1.517-1.359,1.879-1.795l1.448,1.028
			c-0.78,0.707-1.517,1.31-2.197,1.81c0.756,0.62,1.615,1.125,2.572,1.518c-0.531,0.467-0.988,1.043-1.37,1.729
			c-0.739-0.359-1.419-0.777-2.035-1.256V312.04z M209.823,313.933v-1.893h-2.055v1.893H209.823z"/>
		<path d="M226.653,317.716h6.475v1.94h-15.019v-1.94h6.457v-3.359h-4.534v-1.925h4.534v-2.936h-3.455
			c-0.557,1.032-1.079,1.838-1.568,2.413c-0.707-0.532-1.299-0.924-1.777-1.174c0.63-0.685,1.207-1.563,1.729-2.634
			c0.522-1.071,0.93-2.188,1.227-3.351l2.052,0.456c-0.159,0.587-0.424,1.37-0.782,2.349h2.576v-3.001h2.087v3.001h5.628v1.94
			h-5.628v2.936h4.99v1.925h-4.99V317.716z"/>
		<path d="M249.909,309.415h-0.913c-0.424,2.599-1.088,4.686-1.99,6.262c0.849,1.207,1.925,2.115,3.229,2.724
			c-0.521,0.468-0.979,1.049-1.37,1.745c-1.25-0.675-2.294-1.576-3.131-2.707c-0.979,1.109-2.221,2.017-3.734,2.723
			c-0.219-0.554-0.577-1.136-1.077-1.744c-0.879,0.142-2.082,0.326-3.604,0.555s-2.39,0.358-2.609,0.391l-0.277-2.021
			c0.098-0.011,1.076-0.126,2.938-0.343v-1.94h-2.433v-1.795h2.433v-1.598h1.905v1.598h2.528v1.795h-2.528v1.663
			c0.314-0.032,1.282-0.163,2.904-0.392l0.063,1.354c0.914-0.521,1.706-1.207,2.381-2.055c-0.521-1.043-0.951-2.239-1.288-3.588
			c-0.186,0.305-0.414,0.626-0.685,0.963c-0.675-0.62-1.222-1.066-1.647-1.338l-0.195,0.098c-0.087-0.25-0.17-0.461-0.245-0.636
			c-1.49,0.13-3.474,0.305-5.952,0.522l-0.212-1.827l1.19-0.065c0.382-0.957,0.674-1.794,0.882-2.512h-1.894v-1.81h7.602v1.81
			h-3.605c-0.359,0.893-0.718,1.691-1.076,2.398l2.254-0.131c-0.092-0.152-0.216-0.364-0.379-0.637
			c-0.163-0.271-0.267-0.439-0.31-0.506l1.549-0.733c0.598,0.837,1.087,1.647,1.468,2.431c0.793-1.49,1.358-3.332,1.699-5.529
			l2.052,0.311c-0.131,0.75-0.337,1.658-0.62,2.723h4.697V309.415z M244.609,309.415l-0.015,0.016
			c0.294,1.588,0.699,2.975,1.221,4.158c0.511-1.13,0.886-2.521,1.126-4.174H244.609z"/>
		<path d="M254.182,305.452l2.675,0.032c-0.12,0.761-0.19,1.495-0.212,2.202c-0.142,3.076-0.212,5.588-0.212,7.533
			c0,1.469,0.761,2.202,2.283,2.202c2.293,0,4.181-1.125,5.659-3.376l1.5,1.859c-0.304,0.446-0.66,0.867-1.068,1.264
			c-0.407,0.396-0.905,0.795-1.492,1.191s-1.28,0.714-2.079,0.953c-0.8,0.24-1.646,0.359-2.536,0.359
			c-1.414,0-2.512-0.326-3.294-0.979c-0.783-0.652-1.175-1.658-1.175-3.018c0-0.805,0.027-2.236,0.082-4.297
			c0.054-2.06,0.081-3.291,0.081-3.693C254.394,306.827,254.322,306.083,254.182,305.452z"/>
		<path d="M281.906,316.899l-1.19,1.859c-1.034-0.979-2.147-1.739-3.344-2.283c0.011,0.143,0.017,0.338,0.017,0.588
			c0,0.738-0.277,1.34-0.831,1.801c-0.556,0.463-1.36,0.693-2.414,0.693c-1.316,0-2.318-0.238-3.005-0.717
			c-0.695-0.479-1.04-1.158-1.04-2.039c0-0.848,0.367-1.533,1.101-2.055c0.734-0.521,1.732-0.783,2.993-0.783
			c0.35,0,0.685,0.018,1.011,0.05c-0.022-0.326-0.044-0.826-0.064-1.501h-0.849c-1.445,0-2.772-0.07-3.979-0.211l0.017-1.957
			c1.032,0.195,2.364,0.293,3.995,0.293h0.783v-1.713h-0.783c-1.337,0-2.533-0.081-3.588-0.244l-0.013-1.892
			c1.083,0.206,2.282,0.31,3.585,0.31h0.815v-0.75c0-0.489-0.027-0.864-0.082-1.125h2.251c-0.065,0.412-0.104,0.799-0.11,1.158
			l-0.021,0.652c1.163-0.043,2.479-0.174,3.946-0.393l0.05,1.893c-2.099,0.186-3.434,0.293-4.013,0.326l-0.016,1.712
			c1.271-0.054,2.739-0.179,4.403-0.375v1.957c-1.621,0.175-3.077,0.283-4.371,0.326c0.054,0.936,0.093,1.577,0.114,1.925
			C278.973,314.894,280.514,315.726,281.906,316.899z M275.285,316.492c0-0.282-0.007-0.517-0.017-0.701
			c-0.512-0.076-0.962-0.114-1.354-0.114c-0.565,0-1.006,0.096-1.32,0.285c-0.316,0.19-0.474,0.433-0.474,0.727
			c0,0.315,0.146,0.565,0.44,0.75c0.293,0.186,0.718,0.277,1.271,0.277c0.479,0,0.841-0.092,1.084-0.277
			C275.165,317.254,275.285,316.938,275.285,316.492z"/>
		<path d="M294.528,305.631h2.235c-0.042,0.196-0.077,0.669-0.099,1.419c-0.012,0.576-0.026,1.174-0.049,1.794
			c0.652-0.044,1.072-0.07,1.256-0.081c0.054,0,0.282-0.017,0.685-0.049c0.401-0.033,0.701-0.055,0.897-0.066v2.039
			c-0.284-0.021-0.813-0.016-1.599,0.017c-0.62,0.032-1.044,0.054-1.272,0.065c-0.064,1.674-0.146,2.771-0.244,3.294
			c-0.075,0.413-0.224,0.698-0.44,0.855c-0.218,0.158-0.55,0.237-0.993,0.237c-0.684,0-1.517-0.082-2.497-0.245l0.049-1.826
			c0.695,0.13,1.202,0.196,1.517,0.196c0.174,0,0.299-0.025,0.376-0.074c0.075-0.049,0.124-0.148,0.146-0.302
			c0.054-0.401,0.092-1.065,0.115-1.989c-1.513,0.12-3.008,0.256-4.486,0.408c-0.022,2.033-0.022,3.282,0,3.75
			c0.014,0.37,0.033,0.647,0.065,0.832c0.033,0.186,0.092,0.37,0.18,0.555c0.087,0.186,0.23,0.31,0.435,0.375
			c0.198,0.064,0.454,0.119,0.768,0.163c0.306,0.044,0.716,0.065,1.228,0.065c1.696,0,3.343-0.146,4.941-0.44l-0.081,2.267
			c-1.599,0.185-3.17,0.277-4.714,0.277c-0.87,0-1.588-0.044-2.152-0.131c-0.565-0.088-1.03-0.209-1.395-0.367
			c-0.364-0.157-0.636-0.398-0.823-0.725c-0.186-0.326-0.313-0.678-0.384-1.052c-0.07-0.376-0.111-0.873-0.122-1.493
			c-0.011-0.468-0.014-1.75-0.014-3.849l-1.126,0.114c-0.034,0-0.698,0.098-1.991,0.293l-0.212-2.119
			c0.555,0,1.245-0.033,2.071-0.098l1.258-0.115v-1.663c0-0.599-0.043-1.212-0.133-1.843h2.332
			c-0.065,0.555-0.098,1.125-0.098,1.713c0,0.631-0.006,1.162-0.015,1.598c0.227-0.021,0.887-0.084,1.979-0.188
			c1.092-0.104,1.933-0.182,2.52-0.236v-1.875C294.643,306.588,294.604,306.088,294.528,305.631z"/>
		<path d="M308.114,305.175l2.349,0.945c-0.044,0.055-0.224,0.311-0.538,0.767c-0.411,0.599-1.376,2.245-2.887,4.941
			c0.587-0.337,1.217-0.505,1.895-0.505c0.617,0,1.106,0.192,1.465,0.578c0.358,0.387,0.555,0.922,0.587,1.606
			c0,0.099,0.003,0.515,0.008,1.247c0.006,0.734,0.03,1.238,0.074,1.51c0.043,0.598,0.392,0.896,1.043,0.896
			c0.663,0,1.229-0.367,1.696-1.102c0.467-0.732,0.834-1.671,1.097-2.813l1.794,1.451c-0.939,3.154-2.587,4.729-4.944,4.729
			c-0.86,0-1.523-0.22-1.987-0.661c-0.471-0.439-0.721-0.986-0.75-1.639c-0.025-0.314-0.042-0.826-0.06-1.533
			c-0.018-0.705-0.031-1.162-0.042-1.369c-0.054-0.619-0.381-0.93-0.979-0.93c-0.532,0-1.021,0.232-1.468,0.693
			c-0.446,0.462-0.827,1.063-1.158,1.802c-0.359,0.761-0.778,1.984-1.254,3.669l-2.351-0.782c0.543-1.456,1.457-3.515,2.74-6.173
			s2.229-4.542,2.839-5.65c0.042-0.087,0.165-0.32,0.367-0.701C307.851,305.772,308.005,305.446,308.114,305.175z"/>
		<path d="M327.007,318.368c-0.331,0.305-0.741,0.456-1.23,0.456s-0.899-0.151-1.231-0.456s-0.497-0.696-0.497-1.175
			c0-0.468,0.165-0.86,0.497-1.182s0.742-0.481,1.231-0.481s0.899,0.16,1.23,0.481c0.332,0.321,0.498,0.714,0.498,1.182
			C327.505,317.672,327.339,318.063,327.007,318.368z M324.931,314.389l-0.606-5.708l-0.064-2.495h3.05l-0.082,2.495l-0.587,5.708
			H324.931z"/>
		<path d="M94.817,335.851v0.588c1.155-0.283,2.212-0.424,3.181-0.424c1.307,0,2.386,0.326,3.245,0.979
			c0.858,0.652,1.288,1.532,1.288,2.642c0,2.12-1.21,3.479-3.637,4.077c-0.619,0.131-1.34,0.217-2.169,0.261l-0.767-2.12
			c0.902,0,1.582-0.037,2.039-0.114c0.717-0.119,1.297-0.358,1.736-0.718c0.441-0.358,0.661-0.826,0.661-1.402
			c0-0.555-0.224-0.989-0.669-1.305c-0.446-0.314-1.033-0.473-1.762-0.473c-0.966,0-2.006,0.152-3.114,0.457
			c0.01,0.326,0.021,0.733,0.032,1.223s0.021,0.892,0.032,1.207c0.011,0.314,0.017,0.555,0.017,0.717
			c0,0.968-0.155,1.643-0.461,2.022c-0.313,0.38-0.762,0.571-1.349,0.571c-0.881,0-1.753-0.316-2.618-0.946
			c-0.863-0.63-1.296-1.358-1.296-2.185c0-0.695,0.35-1.395,1.056-2.097c0.696-0.7,1.581-1.28,2.646-1.736
			c-0.011-0.261-0.016-0.646-0.016-1.157v-1.387c-0.414,0.021-0.708,0.032-0.88,0.032c-0.937,0-1.703-0.026-2.301-0.081
			l-0.032-2.006c0.825,0.098,1.587,0.146,2.283,0.146c0.195,0,0.511-0.01,0.945-0.033c0.011-0.391,0.017-0.842,0.017-1.354
			c0-0.51-0.037-0.994-0.114-1.451h2.267c-0.043,0.392-0.087,0.871-0.129,1.436c-0.023,0.5-0.037,0.892-0.05,1.174
			c1.087-0.141,2.104-0.348,3.052-0.619l0.047,2.07c-0.881,0.207-1.936,0.381-3.164,0.522
			C94.823,334.704,94.817,335.198,94.817,335.851z M92.473,341.804c0.344,0,0.519-0.24,0.519-0.718c0-0.489-0.017-1.168-0.049-2.038
			c-0.512,0.261-0.92,0.549-1.221,0.864c-0.308,0.315-0.458,0.62-0.458,0.913c0,0.239,0.14,0.463,0.426,0.668
			C91.972,341.7,92.229,341.804,92.473,341.804z M98.895,333.177l0.913-1.615c1.733,0.838,3.083,1.609,4.062,2.316l-0.995,1.713
			c-0.358-0.315-0.96-0.721-1.803-1.216C100.229,333.88,99.503,333.481,98.895,333.177z"/>
		<path d="M107.181,335.622h10.681c-0.044,4.773,0.343,7.16,1.158,7.16c0.195-0.012,0.31-0.756,0.342-2.234
			c0.5,0.576,0.93,0.99,1.289,1.239c-0.077,1.099-0.237,1.868-0.481,2.308c-0.244,0.441-0.677,0.66-1.297,0.66
			c-0.587,0-1.082-0.179-1.483-0.537c-0.403-0.359-0.708-0.9-0.922-1.623c-0.212-0.723-0.364-1.495-0.454-2.316
			c-0.095-0.82-0.152-1.818-0.174-2.992h-8.95v-1.387l-0.148,0.147c-0.6-0.499-1.198-0.919-1.793-1.256
			c0.805-0.608,1.512-1.415,2.126-2.421s1.09-2.102,1.427-3.287l2.071,0.424c-0.088,0.283-0.227,0.696-0.424,1.24h9.866v1.646h-10.6
			c-0.099,0.195-0.245,0.457-0.439,0.783h9.522v1.614h-9.638v-1.402C108.315,334.269,107.755,335.015,107.181,335.622z
			 M112.61,337.384l1.907,0.62c-0.564,1.011-1.152,1.876-1.761,2.593c1.076,0.729,1.957,1.436,2.642,2.12l-1.598,1.501
			c-0.501-0.555-1.321-1.272-2.463-2.153c-1.272,1.163-2.719,2.142-4.338,2.936c-0.349-0.478-0.845-0.995-1.5-1.55
			c1.598-0.619,3.014-1.456,4.239-2.511c-0.739-0.5-1.68-1.077-2.821-1.729l1.436-1.305c0.902,0.479,1.832,1.023,2.789,1.631
			C111.686,338.917,112.175,338.199,112.61,337.384z"/>
		<path d="M135.687,329.833l1.271,0.473c-0.5,1.827-1.332,3.355-2.494,4.583c0.901,0.587,1.95,1.022,3.149,1.305
			c-0.492,0.446-0.89,0.979-1.193,1.599c-1.305-0.381-2.43-0.936-3.376-1.664c-0.957,0.707-2.131,1.283-3.522,1.729
			c-0.108-0.238-0.349-0.636-0.717-1.189v2.707h-2.512v1.011h2.756v1.729h-2.756v2.626h-1.762v-2.626h-2.772v-1.729h2.772v-1.011
			h-2.414v-6.018h2.414v-0.93h-2.576v-1.713h2.576v-1.565h1.762v1.565h2.625v1.713h-2.625v0.93h2.512v2.837
			c1.032-0.282,2-0.733,2.886-1.354c-0.675-0.793-1.245-1.756-1.712-2.886l1.305-0.359h-1.925v-1.696h5.986L135.687,329.833z
			 M123.536,334.726v0.995h1.19v-0.995H123.536z M123.536,336.993v1.011h1.19v-1.011H123.536z M127.321,335.721v-0.995h-1.24v0.995
			H127.321z M127.321,338.004v-1.011h-1.24v1.011H127.321z M134.039,340.532v2.087h3.327v1.761h-8.69v-1.761h3.408v-2.087h-2.529
			v-1.664h2.529v-1.859h1.955v1.859h2.576v1.664H134.039z M134.479,331.595h-2.835c0.377,0.815,0.842,1.517,1.384,2.104
			C133.625,333.068,134.109,332.366,134.479,331.595z"/>
		<path d="M140.529,330.339l2.318,0.212c-0.1,0.25-0.23,0.739-0.394,1.468c-0.544,2.643-0.814,4.664-0.814,6.066
			c0,0.392,0.021,0.745,0.064,1.061c0.087-0.217,0.221-0.514,0.398-0.89c0.181-0.374,0.297-0.632,0.352-0.774l1.027,0.8
			c-0.642,1.87-1.038,3.224-1.19,4.061c-0.063,0.305-0.098,0.56-0.098,0.767c0.01,0.064,0.019,0.177,0.027,0.334
			c0.003,0.158,0.007,0.274,0.007,0.351l-1.91,0.131c-0.424-1.501-0.636-3.306-0.636-5.415c0-0.575,0.03-1.225,0.093-1.949
			c0.057-0.723,0.114-1.295,0.168-1.72c0.055-0.424,0.136-0.995,0.245-1.712c0.107-0.718,0.168-1.104,0.179-1.158
			C140.475,331.187,140.529,330.644,140.529,330.339z M144.818,338.525l1.908,0.18c-0.141,0.587-0.212,1.05-0.212,1.386
			c0,0.783,0.771,1.175,2.316,1.175c1.325,0,2.707-0.147,4.142-0.44l0.049,2.25c-1.196,0.218-2.62,0.326-4.272,0.326
			c-1.393,0-2.441-0.239-3.147-0.717c-0.707-0.479-1.06-1.146-1.06-2.006C144.542,340.113,144.634,339.396,144.818,338.525z
			 M145.406,333.764l-0.017-2.136c1.087,0.13,2.302,0.189,3.646,0.179c1.342-0.011,2.497-0.07,3.465-0.179v2.136
			C150.151,333.971,147.787,333.971,145.406,333.764z"/>
		<path d="M157.147,338.167l2.169,0.195c-0.185,0.762-0.276,1.316-0.276,1.664c0,0.555,0.276,0.997,0.831,1.328
			c0.56,0.332,1.402,0.498,2.544,0.498c2.316,0,4.257-0.217,5.822-0.652l0.017,2.332c-1.631,0.37-3.55,0.555-5.757,0.555
			c-1.87,0-3.284-0.305-4.24-0.914c-0.957-0.607-1.436-1.483-1.436-2.625C156.821,340.026,156.931,339.233,157.147,338.167z
			 M166.378,330.127l1.321-0.538c0.467,0.674,0.913,1.439,1.337,2.299l-1.354,0.571c-0.043-0.087-0.12-0.233-0.228-0.44
			s-0.191-0.363-0.245-0.473v1.989c-1.849,0.131-3.441,0.196-4.778,0.196c-1.37,0-2.87-0.061-4.501-0.18v-2.201
			c1.217,0.13,2.712,0.195,4.484,0.195c1.544,0,3.104-0.07,4.683-0.213C166.856,330.866,166.618,330.464,166.378,330.127z
			 M168.352,329.377l1.321-0.538c0.511,0.695,0.962,1.457,1.354,2.283l-1.321,0.555
			C169.184,330.655,168.731,329.888,168.352,329.377z"/>
		<path d="M175.739,335.622v5.334c0.598,1.032,1.774,1.582,3.524,1.646c2.792,0.109,5.543,0.061,8.25-0.146
			c-0.291,0.608-0.497,1.256-0.619,1.94c-2.708,0.131-5.256,0.147-7.649,0.049c-1.018-0.044-1.875-0.206-2.556-0.489
			c-0.689-0.282-1.276-0.738-1.766-1.369c-0.74,0.717-1.474,1.386-2.201,2.006l-0.93-1.974c0.771-0.501,1.461-1.011,2.07-1.533
			v-3.637h-1.875v-1.827H175.739z M176.196,332.214l-1.631,1.256c-0.477-0.814-1.316-1.738-2.511-2.771l1.516-1.143
			C174.787,330.546,175.663,331.432,176.196,332.214z M180.632,342.212v-1.55h-4.354v-1.614h4.354v-0.734h-3.49v-5.676h3.49v-0.684
			h-4.159v-1.615h4.159v-1.174h1.94v1.174h4.371v1.615h-4.371v0.684h3.638v5.676h-3.638v0.734h4.583v1.614h-4.583v1.55H180.632z
			 M178.952,334.024v0.799h1.68v-0.799H178.952z M178.952,336.944h1.68v-0.832h-1.68V336.944z M184.317,334.024h-1.745v0.799h1.745
			V334.024z M184.317,336.944v-0.832h-1.745v0.832H184.317z"/>
		<path d="M189.193,338.917l1.631,0.277c-0.195,1.826-0.527,3.262-0.995,4.305c-0.532-0.314-1.043-0.554-1.531-0.717
			C188.73,341.901,189.03,340.613,189.193,338.917z M202.191,330.551l1.239,0.669c-0.609,1.565-1.468,2.94-2.577,4.126
			c1.099,0.75,2.3,1.343,3.604,1.777c-0.468,0.382-0.89,0.908-1.272,1.582l-0.032-0.017v5.985h-1.94v-0.62h-3.637v0.686h-1.843
			v-5.855l-0.277,0.115c-0.088-0.196-0.261-0.463-0.522-0.8l-1.105,0.489c-0.065-0.304-0.134-0.582-0.199-0.832l-0.848,0.066v6.832
			h-1.727v-6.719l-2.416,0.163l-0.163-1.729l1.19-0.049c0.392-0.501,0.658-0.853,0.8-1.06c-0.489-0.707-1.147-1.469-1.974-2.283
			l0.946-1.354l0.391,0.342c0.5-0.956,0.902-1.924,1.207-2.902l1.729,0.636c-0.859,1.631-1.484,2.745-1.876,3.343
			c0.087,0.098,0.277,0.321,0.57,0.669c0.588-0.957,1.082-1.853,1.484-2.69l1.615,0.75c-1.087,1.719-2.127,3.213-3.112,4.484
			l1.595-0.064c-0.12-0.283-0.313-0.686-0.587-1.207l1.321-0.555c0.543,0.979,0.946,1.854,1.207,2.625
			c1.228-0.499,2.271-1.081,3.131-1.744c-0.544-0.566-1.001-1.088-1.37-1.566c-0.424,0.457-0.887,0.887-1.386,1.289
			c-0.137-0.206-0.346-0.443-0.62-0.709c-0.272-0.267-0.512-0.461-0.718-0.58c0.87-0.641,1.612-1.372,2.226-2.192
			c0.615-0.821,1.085-1.649,1.411-2.487l1.941,0.293c-0.142,0.349-0.333,0.74-0.57,1.174h2.869L202.191,330.551z M192.813,339.21
			l1.403-0.424c0.49,1.088,0.831,2.088,1.027,3.001l-1.468,0.538C193.623,341.478,193.305,340.439,192.813,339.21z M196.891,338.347
			h5.447c-1.022-0.49-1.963-1.07-2.821-1.746C198.723,337.276,197.848,337.856,196.891,338.347z M197.576,342.358h3.637v-2.316
			h-3.637V342.358z M197.983,332.312l-0.114,0.18c0.436,0.62,0.957,1.202,1.566,1.745c0.554-0.587,1.037-1.228,1.453-1.925H197.983z
			"/>
		<path d="M211.291,331.937h-1.794v10.096c0,0.51-0.057,0.91-0.172,1.199c-0.113,0.287-0.317,0.508-0.61,0.66
			c-0.489,0.249-1.419,0.363-2.789,0.342c-0.076-0.631-0.269-1.267-0.587-1.908c0.521,0.021,1.151,0.033,1.894,0.033
			c0.22-0.012,0.324-0.125,0.324-0.343v-10.079h-2.3v-1.858h6.034V331.937z M220.244,341.429h-6.262l1.532,1.06
			c-0.532,0.413-1.192,0.818-1.981,1.215c-0.788,0.396-1.557,0.726-2.308,0.987c-0.271-0.402-0.671-0.859-1.206-1.37
			c0.685-0.218,1.388-0.503,2.104-0.856c0.718-0.354,1.277-0.698,1.682-1.035h-1.698v-8.791h2.597l0.241-1.174h-3.376v-1.663h9.198
			v1.663h-3.586c-0.046,0.119-0.119,0.313-0.223,0.58c-0.104,0.266-0.177,0.464-0.22,0.594h3.506V341.429z M213.934,334.09v1.044
			h4.387v-1.044H213.934z M213.934,336.487v1.06h4.387v-1.06H213.934z M213.934,338.934v1.06h4.387v-1.06H213.934z M216.363,342.521
			l1.468-1.06c1.468,0.794,2.57,1.495,3.311,2.104l-1.582,1.174C218.939,344.163,217.874,343.423,216.363,342.521z"/>
		<path d="M223.669,330.095l2.463,0.244c-0.229,0.718-0.359,1.164-0.392,1.338c-0.718,3.262-0.903,5.713-0.555,7.354
			c0.055-0.119,0.175-0.41,0.359-0.873c0.185-0.462,0.327-0.807,0.427-1.035l1.042,0.652c-0.48,1.402-0.855,2.751-1.125,4.044
			c-0.078,0.283-0.116,0.55-0.116,0.8l0.05,0.685l-1.843,0.18c-0.229-0.641-0.447-1.463-0.652-2.463
			c-0.207-1-0.311-1.962-0.311-2.887c0-2.076,0.185-4.277,0.555-6.604C223.639,331.149,223.669,330.671,223.669,330.095z
			 M236.748,332.997l-0.016,2.152c-0.803,0.098-1.621,0.17-2.446,0.213v0.685c0,0.88-0.02,1.612-0.057,2.194
			c-0.039,0.582-0.126,1.192-0.258,1.834c-0.14,0.641-0.333,1.193-0.599,1.655c-0.262,0.462-0.609,0.927-1.053,1.394
			c-0.439,0.467-0.986,0.908-1.639,1.321l-1.908-1.517c0.815-0.358,1.457-0.793,1.925-1.305c0.608-0.63,1.022-1.354,1.232-2.169
			c0.211-0.815,0.316-1.95,0.316-3.408v-0.604c-0.826,0.021-1.446,0.032-1.858,0.032c-0.349,0-1.202-0.026-2.561-0.081v-2.104
			c0.771,0.109,1.608,0.164,2.512,0.164c0.403,0,1.026-0.012,1.875-0.033c-0.012-0.75-0.043-1.488-0.098-2.218
			c-0.044-0.511-0.104-0.892-0.18-1.142h2.432c-0.034,0.163-0.062,0.538-0.083,1.125c-0.022,0.501-0.033,1.207-0.033,2.121
			C235.166,333.241,235.998,333.139,236.748,332.997z"/>
		<path d="M254.019,340.01l0.277,2.332c-0.859,0.827-1.892,1.239-3.099,1.239c-0.631,0-1.134-0.22-1.508-0.66
			c-0.376-0.439-0.563-1.053-0.563-1.835c0-0.631,0.098-1.623,0.294-2.976c0.194-1.354,0.293-2.27,0.293-2.748
			c0-0.816-0.369-1.224-1.109-1.224c-0.576,0-1.257,0.291-2.046,0.873s-1.564,1.291-2.325,2.128
			c-0.021,0.631-0.032,1.076-0.032,1.337c0,1.827,0.032,3.257,0.098,4.289c0.011,0.12,0.033,0.351,0.068,0.694
			c0.029,0.341,0.046,0.534,0.046,0.578h-2.267c0.034-0.359,0.049-0.767,0.049-1.224c0.011-0.445,0.021-1.049,0.032-1.81
			s0.021-1.37,0.036-1.827c-1.178,1.74-1.873,2.757-2.091,3.05l-1.305-1.826c1.395-1.707,2.571-3.283,3.539-4.729l0.065-1.158
			c-0.261,0.032-0.748,0.095-1.459,0.188c-0.709,0.093-1.225,0.161-1.541,0.204l-0.196-2.12c0.467,0.011,0.946,0.005,1.435-0.017
			c0.479-0.032,1.109-0.103,1.893-0.212c0.01-0.173,0.021-0.354,0.035-0.546c0.007-0.19,0.019-0.345,0.029-0.465
			c0.014-0.119,0.017-0.206,0.017-0.262c0-0.641-0.027-1.13-0.081-1.467l2.43,0.064c-0.131,0.643-0.256,1.426-0.374,2.349
			l0.618,0.783c-0.215,0.283-0.5,0.701-0.847,1.255c0,0.088-0.013,0.207-0.034,0.359c1.881-1.643,3.486-2.463,4.812-2.463
			c0.858,0,1.508,0.227,1.949,0.677c0.44,0.452,0.66,1.042,0.66,1.771c0,0.564-0.092,1.537-0.277,2.918
			c-0.186,1.382-0.276,2.36-0.276,2.936c0,0.479,0.211,0.719,0.635,0.719C252.551,341.185,253.258,340.792,254.019,340.01z"/>
		<path d="M256.824,330.453l2.283,0.179c-0.088,0.229-0.219,0.723-0.392,1.484c-0.153,0.674-0.323,1.721-0.514,3.139
			c-0.188,1.42-0.285,2.504-0.285,3.254c0,0.315,0.026,0.674,0.081,1.077c0.075-0.229,0.206-0.541,0.395-0.938
			c0.184-0.396,0.296-0.654,0.339-0.774l1.031,0.815c-0.634,1.816-1.037,3.131-1.208,3.947c-0.057,0.25-0.082,0.505-0.082,0.766
			c0,0.315,0.004,0.549,0.015,0.701l-1.843,0.115c-0.446-1.414-0.669-3.164-0.669-5.252c0-1.358,0.229-3.658,0.686-6.898
			C256.759,331.361,256.813,330.823,256.824,330.453z M269.577,332.851v2.07c-0.686,0.099-1.539,0.186-2.561,0.262
			c0.021,0.979,0.081,2.326,0.18,4.045c1.043,0.435,2.11,1.146,3.196,2.136l-1.109,1.761c-0.718-0.662-1.392-1.217-2.02-1.663
			c-0.058,0.838-0.345,1.498-0.867,1.981c-0.521,0.484-1.315,0.727-2.381,0.727c-1.142,0-2.041-0.237-2.699-0.709
			c-0.657-0.475-0.986-1.14-0.986-1.999c0-0.848,0.333-1.535,0.995-2.063c0.662-0.527,1.554-0.79,2.674-0.79
			c0.425,0,0.783,0.021,1.077,0.065c-0.063-1.305-0.104-2.426-0.114-3.359c-0.142,0-0.34,0.002-0.595,0.008
			c-0.256,0.006-0.449,0.008-0.58,0.008c-0.805,0-1.767-0.037-2.886-0.114l-0.017-1.974c0.945,0.099,1.913,0.147,2.902,0.147
			c0.511,0,0.897-0.005,1.161-0.017c0-0.304-0.006-0.662-0.012-1.076c-0.005-0.413-0.006-0.662-0.006-0.75
			c0-0.305-0.042-0.663-0.126-1.076h2.378c-0.044,0.293-0.079,0.642-0.101,1.043c-0.033,0.75-0.047,1.327-0.047,1.729
			C267.815,333.166,268.664,333.036,269.577,332.851z M265.157,340.694v-0.277c-0.456-0.119-0.894-0.18-1.321-0.18
			c-0.468,0-0.848,0.091-1.141,0.27c-0.294,0.18-0.44,0.422-0.44,0.727c0,0.315,0.141,0.554,0.426,0.717
			c0.28,0.163,0.655,0.244,1.124,0.244c0.478,0,0.823-0.122,1.034-0.365C265.055,341.583,265.157,341.205,265.157,340.694z
			 M269.463,332.019l-1.175,0.392c-0.326-1.065-0.607-1.838-0.848-2.315l1.142-0.343
			C268.931,330.48,269.224,331.235,269.463,332.019z M271.224,331.48l-1.157,0.375c-0.346-1.022-0.647-1.788-0.897-2.3l1.126-0.342
			C270.686,330.029,270.996,330.785,271.224,331.48z"/>
		<path d="M283.882,331.644l1.139,1.924c-0.619,0.359-1.164,0.652-1.631,0.881c-0.108,0.055-0.413,0.207-0.913,0.457
			c-0.499,0.25-0.916,0.46-1.247,0.629c-0.332,0.168-0.737,0.383-1.215,0.643c-0.479,0.262-0.893,0.506-1.24,0.734
			c-1.532,0.99-2.299,1.99-2.299,3.001c0,1.218,1.146,1.826,3.44,1.826c1.807,0,3.609-0.2,5.415-0.604l-0.033,2.382
			c-1.673,0.271-3.447,0.407-5.316,0.407c-3.849,0-5.773-1.251-5.773-3.751c0-1.555,0.914-3.012,2.74-4.371
			c-0.74-1.369-1.517-3.012-2.332-4.925l2.088-0.848c0.543,1.456,1.233,2.984,2.07,4.583c0.522-0.305,1.212-0.686,2.073-1.143
			c0.856-0.456,1.362-0.728,1.515-0.814C283.112,332.198,283.618,331.861,283.882,331.644z"/>
		<path d="M290.647,343.793l-1.794-0.995c0.741-0.955,1.32-2.244,1.745-3.864l1.81,0.652
			C291.845,341.542,291.256,342.945,290.647,343.793z M294.577,338.852l1.175-1.093h-5.235v-7.909h11.971v7.909h-6.328
			c1.359,0.686,2.392,1.392,3.099,2.121l-1.419,1.354c-0.325-0.359-0.802-0.768-1.427-1.224S295.175,339.167,294.577,338.852z
			 M292.393,331.562v1.402h3.147v-1.402H292.393z M292.393,334.563v1.484h3.147v-1.484H292.393z M295.915,342.636h2.364
			c0.348,0,0.581-0.115,0.693-0.343c0.113-0.229,0.192-0.751,0.236-1.565c0.467,0.337,1.061,0.582,1.777,0.733
			c-0.108,1.175-0.34,1.966-0.693,2.372c-0.353,0.409-0.965,0.612-1.834,0.612h-2.772c-1.088,0-1.819-0.169-2.193-0.505
			c-0.376-0.338-0.563-0.957-0.563-1.859v-2.74h2.006v2.724c0,0.25,0.058,0.407,0.171,0.474
			C295.223,342.603,295.491,342.636,295.915,342.636z M300.514,332.964v-1.402h-3.066v1.402H300.514z M300.514,336.047v-1.484
			h-3.066v1.484H300.514z M300.334,339.569l1.778-0.734c1.151,1.566,1.886,2.909,2.205,4.029l-1.941,0.831
			c-0.134-0.555-0.392-1.212-0.778-1.974C301.212,340.962,300.791,340.244,300.334,339.569z"/>
		<path d="M306.744,331.366l2.528,0.033c-0.131,0.674-0.196,1.343-0.196,2.006c-0.021,1.305,0.011,2.473,0.099,3.506
			c0.261,2.675,0.856,4.012,1.777,4.012c0.348,0,0.677-0.331,0.986-0.994c0.311-0.663,0.563-1.414,0.759-2.251l1.68,2.006
			c-0.545,1.402-1.087,2.401-1.631,2.993c-0.545,0.592-1.158,0.889-1.843,0.889c-0.979,0-1.811-0.487-2.495-1.461
			c-0.685-0.973-1.142-2.508-1.37-4.606c-0.12-1.239-0.18-2.729-0.18-4.468C306.858,332.312,306.82,331.758,306.744,331.366z
			 M315.437,332.442l2.104-0.701c0.751,0.925,1.419,2.234,2.006,3.931c0.588,1.696,0.93,3.208,1.028,4.534l-2.202,0.831
			c-0.138-1.575-0.459-3.169-0.954-4.778S316.265,333.378,315.437,332.442z"/>
		<path d="M336.182,341.511l-1.191,1.858c-1.033-0.979-2.147-1.739-3.343-2.283c0.01,0.142,0.016,0.337,0.016,0.587
			c0,0.739-0.277,1.34-0.83,1.802c-0.556,0.462-1.359,0.694-2.415,0.694c-1.315,0-2.318-0.24-3.006-0.719
			c-0.69-0.478-1.038-1.157-1.038-2.038c0-0.849,0.367-1.532,1.1-2.055c0.735-0.522,1.733-0.782,2.993-0.782
			c0.351,0,0.686,0.016,1.012,0.049c-0.022-0.326-0.044-0.826-0.065-1.501h-0.849c-1.446,0-2.772-0.07-3.979-0.212l0.016-1.957
			c1.033,0.195,2.365,0.293,3.997,0.293h0.781v-1.712h-0.781c-1.339,0-2.535-0.081-3.589-0.245l-0.017-1.891
			c1.087,0.207,2.286,0.31,3.588,0.31h0.815v-0.751c0-0.488-0.027-0.863-0.081-1.125h2.25c-0.065,0.413-0.104,0.799-0.111,1.158
			l-0.019,0.652c1.163-0.043,2.479-0.174,3.946-0.392l0.05,1.892c-2.1,0.186-3.437,0.294-4.013,0.326l-0.017,1.713
			c1.272-0.055,2.74-0.18,4.403-0.375v1.957c-1.62,0.174-3.077,0.283-4.37,0.326c0.054,0.936,0.092,1.576,0.113,1.924
			C333.247,339.504,334.789,340.336,336.182,341.511z M329.56,341.103c0-0.283-0.004-0.518-0.017-0.701
			c-0.511-0.076-0.962-0.114-1.354-0.114c-0.565,0-1.006,0.095-1.32,0.284c-0.313,0.191-0.474,0.434-0.474,0.727
			c0,0.316,0.147,0.566,0.44,0.75c0.294,0.186,0.72,0.277,1.272,0.277c0.478,0,0.84-0.092,1.084-0.277
			C329.44,341.864,329.56,341.549,329.56,341.103z"/>
		<path d="M353.843,331.79l-0.017,1.957c-1.108-0.054-2.705-0.081-4.794-0.081c0.01,0.554,0.016,1.375,0.016,2.462
			c0.413,0.609,0.62,1.37,0.62,2.283c0,0.457-0.048,0.906-0.153,1.346c-0.105,0.441-0.287,0.9-0.548,1.378
			c-0.262,0.479-0.588,0.919-0.979,1.321c-0.39,0.402-0.896,0.78-1.515,1.134c-0.622,0.353-1.322,0.639-2.106,0.855l-1.761-1.777
			c1.902-0.413,3.25-1.044,4.044-1.892c-0.305,0.064-0.552,0.098-0.75,0.098c-0.718,0-1.371-0.271-1.966-0.815
			c-0.592-0.544-0.888-1.288-0.888-2.234c0-0.913,0.32-1.655,0.962-2.226c0.642-0.571,1.424-0.856,2.351-0.856
			c0.236,0,0.454,0.017,0.65,0.049l-0.033-1.108c-2.109,0.032-4.475,0.119-7.094,0.26l-0.049-2.006c0.739,0,2.041-0.019,3.905-0.057
			c1.865-0.037,2.933-0.057,3.207-0.057c0-0.262-0.008-0.43-0.016-0.506c-0.047-0.75-0.096-1.229-0.149-1.436h2.413
			c-0.043,0.219-0.087,0.69-0.13,1.42c0,0.031-0.003,0.104-0.009,0.211c-0.005,0.109-0.008,0.201-0.008,0.277H353.843z
			 M345.036,337.792c0,0.369,0.124,0.668,0.375,0.896c0.253,0.229,0.545,0.343,0.881,0.343c0.38,0,0.683-0.161,0.904-0.481
			c0.226-0.32,0.286-0.813,0.189-1.476c-0.219-0.392-0.58-0.587-1.094-0.587c-0.336,0-0.628,0.113-0.881,0.342
			C345.16,337.058,345.036,337.379,345.036,337.792z"/>
		<path d="M358.229,339.146c0.75,0,1.389,0.266,1.916,0.799s0.791,1.169,0.791,1.908c0,0.74-0.264,1.375-0.791,1.908
			s-1.166,0.799-1.916,0.799c-0.736,0-1.372-0.266-1.9-0.799c-0.527-0.533-0.79-1.168-0.79-1.908c0-0.739,0.263-1.375,0.79-1.908
			C356.857,339.411,357.493,339.146,358.229,339.146z M358.229,343.337c0.413,0,0.767-0.144,1.061-0.432
			c0.293-0.289,0.439-0.639,0.439-1.053c0-0.413-0.146-0.767-0.439-1.061c-0.294-0.293-0.647-0.439-1.061-0.439
			c-0.402,0-0.753,0.146-1.049,0.439c-0.302,0.294-0.451,0.647-0.451,1.061c0,0.414,0.149,0.764,0.451,1.053
			C357.477,343.193,357.827,343.337,358.229,343.337z"/>
	</g>
	<path fill="#F7931E" d="M27.637,59.575c6.528,5.494,13.679,9.875,21.755,12.691c1.832,0.639,2.612-2.26,0.798-2.893
		c-7.581-2.643-14.305-6.764-20.432-11.919C28.288,56.217,26.154,58.328,27.637,59.575L27.637,59.575z"/>
	<path fill="#F7931E" d="M6.244,136.428c9.155-1.655,18.485-0.875,27.729-0.825c1.935,0.01,1.934-2.99,0-3
		c-9.532-0.051-19.088-0.774-28.527,0.933C3.544,133.879,4.353,136.77,6.244,136.428L6.244,136.428z"/>
	<path fill="#F7931E" d="M8.663,201.962c5.569-5.066,13.865-4.888,20.913-5.713c1.897-0.222,1.919-3.225,0-3
		c-7.947,0.93-16.772,0.896-23.034,6.592C5.108,201.146,7.236,203.261,8.663,201.962L8.663,201.962z"/>
	<path fill="#F7931E" d="M22.727,270.519c6.361-7.963,14.381-14.404,23.948-18.072c1.787-0.686,1.012-3.586-0.798-2.893
		c-10.063,3.857-18.563,10.448-25.271,18.844C19.411,269.893,21.519,272.03,22.727,270.519L22.727,270.519z"/>
	<path fill="#F7931E" d="M378.515,74.078c11.712-1.367,14.038-13.89,23.606-18.662c1.731-0.864,0.212-3.451-1.514-2.591
		c-8.73,4.354-11.769,17.048-22.093,18.253C376.617,71.299,376.596,74.302,378.515,74.078L378.515,74.078z"/>
	<path fill="#F7931E" d="M383.785,135.603c11.408-0.837,22.746-1.219,33.798-4.448c1.854-0.542,1.064-3.437-0.797-2.893
		c-10.791,3.153-21.866,3.524-33.001,4.341C381.868,132.743,381.854,135.744,383.785,135.603L383.785,135.603z"/>
	<path fill="#F7931E" d="M385.063,190.922c9.07-1.683,19.164-2.061,28.208,0c1.883,0.43,2.684-2.463,0.797-2.893
		c-9.624-2.193-20.146-1.791-29.802,0C382.365,188.382,383.172,191.272,385.063,190.922L385.063,190.922z"/>
	<path fill="#F7931E" d="M379.391,262.169c12.538,1.307,21.543,11.595,32.643,16.494c1.752,0.774,3.28-1.811,1.514-2.59
		c-11.717-5.173-20.892-15.521-34.156-16.904C377.467,258.969,377.486,261.971,379.391,262.169L379.391,262.169z"/>
</g>
</svg>
