<?xml version="1.0" encoding="utf-8"?>
<!-- Generator: Adobe Illustrator 16.0.0, SVG Export Plug-In . SVG Version: 6.00 Build 0)  -->
<!DOCTYPE svg PUBLIC "-//W3C//DTD SVG 1.1//EN" "http://www.w3.org/Graphics/SVG/1.1/DTD/svg11.dtd">
<svg version="1.1" id="レイヤー_1" xmlns="http://www.w3.org/2000/svg" xmlns:xlink="http://www.w3.org/1999/xlink" x="0px"
	 y="0px" width="512.6px" height="371.8px" viewBox="0 0 512.6 371.8" style="enable-background:new 0 0 512.6 371.8;"
	 xml:space="preserve">
<style type="text/css">
<![CDATA[
	.st0{filter:url(#Adobe_OpacityMaskFilter);}
	.st1{fill:none;stroke:#CCCCCC;stroke-miterlimit:10;}
	.st2{fill:none;stroke:#E6E6E6;stroke-miterlimit:10;}
	.st3{fill:#8CC63F;}
	.st4{fill:#F7931E;}
	.st5{clip-path:url(#SVGID_2_);}
	.st6{mask:url(#SVGID_5_);}
	.st7{mask:url(#SVGID_6_);}
	.st8{mask:url(#SVGID_7_);}
	.st9{mask:url(#SVGID_8_);}
	.st10{fill:#FBB03B;}
	.st11{fill-rule:evenodd;clip-rule:evenodd;}
	.st12{fill:#FF7BAC;}
	.st13{fill:#FFFFFF;}
	.st14{fill:#FFFFFF;stroke:#231815;stroke-miterlimit:10;}
	.st15{fill:#333333;}
	.st16{fill:#3FA9F5;}
	.st17{filter:url(#Adobe_OpacityMaskFilter_1_);}
	.st18{filter:url(#Adobe_OpacityMaskFilter_2_);}
	.st19{filter:url(#Adobe_OpacityMaskFilter_3_);}
]]>
</style>
<g>
	<g id="_x32_.psd">
		<defs>
			<rect id="SVGID_9_" x="126.1" y="59.8" width="250" height="180"/>
		</defs>
		<clipPath id="SVGID_2_">
			<use xlink:href="#SVGID_9_"  style="overflow:visible;"/>
		</clipPath>
		<g class="st5">
			
				<image style="overflow:visible;" width="250" height="180" id="背景" xlink:href="E981AA2.jpg"  transform="matrix(1 0 0 1 126.1348 59.7578)">
			</image>
		</g>
		<g class="st5">
			
				<image style="overflow:visible;" width="250" height="180" id="レイヤー_1_1_" xlink:href="E981AA6.png"  transform="matrix(1 0 0 1 126.1348 59.7578)">
			</image>
		</g>
	</g>
	<g>
		<g>
			<path d="M126.3,59.2c-1,61.3-1.9,122.6-1.9,184c0,1.1,1.7,1.1,1.7,0c0-61.3,0.9-122.7,1.9-184C128,58.1,126.3,58.1,126.3,59.2
				L126.3,59.2z"/>
		</g>
	</g>
	<g>
		<g>
			<path d="M127.1,59.6c40.4-2.4,80.9-2.9,121.4-3c42.7-0.1,85.5-0.3,128.2,1.4c1.1,0,1.1-1.7,0-1.7c-42.1-1.7-84.2-1.5-126.3-1.5
				c-41.1,0.1-82.3,0.6-123.3,3C126,58,126,59.7,127.1,59.6L127.1,59.6z"/>
		</g>
	</g>
	<g>
		<g>
			<path d="M375.4,57.1c-0.8,30.2-0.5,60.3-1,90.5c-0.6,31.2-0.9,62.4-0.9,93.6c0,1.1,1.7,1.1,1.7,0c0-31.2,0.3-62.4,0.9-93.6
				c0.6-30.2,0.3-60.3,1-90.5C377.1,56,375.4,56,375.4,57.1L375.4,57.1z"/>
		</g>
	</g>
	<g>
		<g>
			<path d="M374.1,240.8c-45.2,1.7-90.2,2.2-135.4,2c-23.5-0.1-46.9-0.1-70.4,0.2c-9.4,0.1-18.9,0.8-28.3,0.5
				c-5.3-0.2-10.6-0.6-15.8-0.7c-1.1,0-1.1,1.7,0,1.7c5.3,0.1,10.6,0.5,15.8,0.7c9.4,0.4,18.9-0.3,28.3-0.5
				c23.5-0.4,46.9-0.3,70.4-0.2c45.2,0.2,90.3-0.3,135.4-2C375.3,242.6,375.3,240.8,374.1,240.8L374.1,240.8z"/>
		</g>
	</g>
	<g>
		<g>
			<path d="M387,262.8c0-44.9,0.5-89.7,1.2-134.5c0.3-17.8,1-35.7,0.7-53.6c-0.1-5.9-0.3-11.9-0.5-17.8c-0.1-3.9,0.2-8.3-0.8-12.1
				c-0.3-1.1-1.9-0.6-1.6,0.5c0.9,3.6,0.6,7.9,0.7,11.6c0.2,5.9,0.4,11.9,0.5,17.8c0.4,17.8-0.4,35.7-0.7,53.6
				c-0.7,44.8-1.2,89.7-1.2,134.5C385.3,263.9,387,263.9,387,262.8L387,262.8z"/>
		</g>
	</g>
	<g>
		<g>
			<path d="M113.7,47.8c22.2,0.4,44.4-0.4,66.6-1.1c22.6-0.7,45.2-0.9,67.8-1.2c46.2-0.5,92.5-3.2,138.6,0.3c1.1,0.1,1.1-1.6,0-1.7
				c-45.4-3.5-91.1-0.9-136.6-0.3c-22.7,0.3-45.3,0.4-68,1.1c-22.8,0.7-45.6,1.6-68.4,1.2C112.6,46.1,112.6,47.8,113.7,47.8
				L113.7,47.8z"/>
		</g>
	</g>
	<g>
		<g>
			<path d="M113.9,47.7c-1.5,24.3-0.5,48.5-0.6,72.8c-0.1,15.4-0.2,30.8-0.3,46.2c-0.3,31.4,0.2,63.1-1.6,94.4
				c-0.1,1.1,1.6,1.1,1.7,0c1.8-31.4,1.3-63,1.6-94.4c0.1-15.2,0.3-30.4,0.3-45.6c0.1-24.5-0.9-49,0.6-73.4
				C115.7,46.6,114,46.6,113.9,47.7L113.9,47.7z"/>
		</g>
	</g>
	<g>
		<g>
			<path d="M112.1,262c42.4,0,84.7-0.3,127.1-0.4c26.9,0,53.9-0.4,80.8,0.1c22,0.4,44.1,1.8,66.1,1.9c1.1,0,1.1-1.7,0-1.7
				c-22.1-0.1-44.1-1.3-66.1-1.9c-26.9-0.6-53.9-0.1-80.8-0.1c-42.4,0.1-84.7,0.4-127.1,0.4C111,260.3,111,262,112.1,262L112.1,262z
				"/>
		</g>
	</g>
	<g>
		<g>
			<path d="M363.7,255.7c-2.2,0.6-3.9-0.3-4.4-2.5c-0.2-0.8-0.1-1.7,0.3-2.4c0.5-1.1,1.9-1.4,3-1.5c1.8-0.1,3.2,0.9,3.6,2.6
				c0.4,1.8-1.2,3.2-2.8,3.7c-0.9,0.3-0.5,1.7,0.4,1.4c2.5-0.8,4.2-2.9,3.8-5.6c-0.4-2.6-3.1-4-5.5-3.6c-1.5,0.2-2.9,0.6-3.7,2
				c-0.7,1.1-0.7,2.5-0.5,3.7c0.5,3.1,3.4,4.3,6.2,3.6C365,256.9,364.6,255.4,363.7,255.7L363.7,255.7z"/>
		</g>
	</g>
	<g>
		<g>
			<path d="M195.6,262c0,3.3,0,6.6,0,10c0,0.8,1.2,0.8,1.2,0c0-3.3,0-6.6,0-10C196.8,261.2,195.6,261.2,195.6,262L195.6,262z"/>
		</g>
	</g>
	<g>
		<g>
			<path d="M295,261.4c0,3-0.1,6.1-0.8,9c-0.2,0.8,1,1.1,1.2,0.3c0.7-3.1,0.8-6.2,0.8-9.4C296.2,260.6,295,260.6,295,261.4
				L295,261.4z"/>
		</g>
	</g>
	<g>
		<g>
			<path d="M167.8,272.3c26.3,0,52.5-1.7,78.7-1.8c26.6-0.1,53.2,0.3,79.8,0.3c1,0,1-1.5,0-1.5c-25.9,0-51.9-0.3-77.8-0.3
				c-26.9,0-53.8,1.8-80.7,1.8C166.9,270.8,166.9,272.3,167.8,272.3L167.8,272.3z"/>
		</g>
	</g>
	<g>
		<g>
			<path d="M325.6,270.8c0,1.5,0,3.1,0,4.6c0,1,1.5,1,1.5,0c0-1.5,0-3.1,0-4.6C327.1,269.9,325.6,269.9,325.6,270.8L325.6,270.8z"/>
		</g>
	</g>
	<g>
		<g>
			<path d="M167.1,273.4c0,1.8,0,3.6,0,5.4c0,1,1.5,1,1.5,0c0-1.8,0-3.6,0-5.4C168.6,272.4,167.1,272.4,167.1,273.4L167.1,273.4z"/>
		</g>
	</g>
	<g>
		<g>
			<path d="M167.8,280.3c26.4-0.7,52.9-1.6,79.3-2.2c26.2-0.6,52.3,0.2,78.4-0.2c1,0,1-1.5,0-1.5c-26.2,0.3-52.3-0.4-78.4,0.2
				c-26.4,0.6-52.9,1.5-79.3,2.2C166.9,278.9,166.8,280.4,167.8,280.3L167.8,280.3z"/>
		</g>
	</g>
	<g>
		<g>
			<path class="st4" d="M24.9,79.3c6.5,5.5,13.7,9.9,21.8,12.7c1.8,0.6,2.6-2.3,0.8-2.9c-7.6-2.6-14.3-6.8-20.4-11.9
				C25.6,75.9,23.4,78,24.9,79.3L24.9,79.3z"/>
		</g>
	</g>
	<g>
		<g>
			<path class="st4" d="M3.5,132.1c9.2-1.7,18.5-0.9,27.7-0.8c1.9,0,1.9-3,0-3c-9.5-0.1-19.1-0.8-28.5,0.9
				C0.8,129.6,1.6,132.5,3.5,132.1L3.5,132.1z"/>
		</g>
	</g>
	<g>
		<g>
			<path class="st4" d="M6,181.7c5.6-5.1,13.9-4.9,20.9-5.7c1.9-0.2,1.9-3.2,0-3c-7.9,0.9-16.8,0.9-23,6.6
				C2.4,180.9,4.5,183,6,181.7L6,181.7z"/>
		</g>
	</g>
	<g>
		<g>
			<path class="st4" d="M20,228.2c6.4-8,14.4-14.4,23.9-18.1c1.8-0.7,1-3.6-0.8-2.9c-10.1,3.9-18.6,10.4-25.3,18.8
				C16.7,227.6,18.8,229.7,20,228.2L20,228.2z"/>
		</g>
	</g>
	<g>
		<g>
			<path class="st4" d="M452.8,97.8c11.7-1.4,14-13.9,23.6-18.7c1.7-0.9,0.2-3.5-1.5-2.6c-8.7,4.4-11.8,17-22.1,18.3
				C450.9,95,450.9,98,452.8,97.8L452.8,97.8z"/>
		</g>
	</g>
	<g>
		<g>
			<path class="st4" d="M458.1,137.3c11.4-0.8,22.7-1.2,33.8-4.4c1.9-0.5,1.1-3.4-0.8-2.9c-10.8,3.2-21.9,3.5-33,4.3
				C456.2,134.4,456.1,137.5,458.1,137.3L458.1,137.3z"/>
		</g>
	</g>
	<g>
		<g>
			<path class="st4" d="M459.4,178.6c9.1-1.7,19.2-2.1,28.2,0c1.9,0.4,2.7-2.5,0.8-2.9c-9.6-2.2-20.1-1.8-29.8,0
				C456.7,176.1,457.5,179,459.4,178.6L459.4,178.6z"/>
		</g>
	</g>
	<g>
		<g>
			<path class="st4" d="M453.7,209.9c12.5,1.3,21.5,11.6,32.6,16.5c1.8,0.8,3.3-1.8,1.5-2.6c-11.7-5.2-20.9-15.5-34.2-16.9
				C451.8,206.7,451.8,209.7,453.7,209.9L453.7,209.9z"/>
		</g>
	</g>
	<g>
		<path d="M8.8,10.2l2.6,0.9c-0.4,1.7-1,2.9-2,3.7c-0.9,0.8-2.1,1.2-3.5,1.2c-1.7,0-3.2-0.7-4.3-2.1C0.6,12.6,0,10.8,0,8.4
			c0-2.5,0.6-4.5,1.7-5.9c1.1-1.4,2.6-2.1,4.4-2.1C7.7,0.4,9,0.9,10,2c0.6,0.7,1,1.6,1.3,2.8L8.7,5.5c-0.2-0.8-0.5-1.4-1-1.9
			C7.3,3.2,6.7,3,6,3C5,3,4.2,3.4,3.6,4.2S2.7,6.3,2.7,8.1c0,1.9,0.3,3.3,0.9,4.1c0.6,0.8,1.4,1.2,2.3,1.2c0.7,0,1.3-0.3,1.8-0.8
			C8.2,12.2,8.6,11.3,8.8,10.2z"/>
		<path d="M16.6,0.6v5.6c0.8-1.1,1.8-1.6,2.9-1.6c0.6,0,1.1,0.1,1.6,0.4c0.5,0.2,0.8,0.6,1,1c0.2,0.4,0.4,0.8,0.5,1.3
			c0.1,0.5,0.1,1.2,0.1,2.2v6.5h-2.5V10c0-1.2,0-1.9-0.1-2.2c-0.1-0.3-0.3-0.6-0.5-0.7c-0.2-0.2-0.5-0.3-0.9-0.3
			c-0.4,0-0.8,0.1-1.1,0.4S17,7.7,16.8,8.2c-0.2,0.5-0.2,1.2-0.2,2.1v5.5h-2.5V0.6H16.6z"/>
		<path d="M31.9,15.8v-1.6c-0.3,0.6-0.8,1.1-1.4,1.4c-0.6,0.3-1.2,0.5-1.8,0.5c-0.6,0-1.2-0.2-1.7-0.5c-0.5-0.3-0.9-0.8-1.1-1.4
			c-0.2-0.6-0.3-1.4-0.3-2.4v-7h2.5v5.1c0,1.5,0,2.5,0.1,2.8c0.1,0.3,0.3,0.6,0.5,0.8c0.2,0.2,0.6,0.3,0.9,0.3
			c0.4,0,0.8-0.1,1.2-0.4c0.3-0.3,0.6-0.6,0.7-1s0.2-1.4,0.2-3V4.8h2.5v11H31.9z M28.7,3.5l1.2-3.1h2.8l-2.5,3.1H28.7z"/>
		<path d="M45.9,15.8h-2.5v-5.6c0-1.2-0.1-2-0.2-2.3c-0.1-0.3-0.3-0.6-0.5-0.8s-0.5-0.3-0.9-0.3c-0.4,0-0.8,0.1-1.2,0.4
			c-0.3,0.3-0.6,0.6-0.7,1.1c-0.1,0.5-0.2,1.3-0.2,2.5v5h-2.5v-11h2.3v1.6c0.8-1.2,1.9-1.9,3.1-1.9c0.6,0,1.1,0.1,1.5,0.3
			c0.5,0.2,0.8,0.5,1,0.9c0.2,0.4,0.4,0.8,0.5,1.2c0.1,0.5,0.1,1.1,0.1,2V15.8z"/>
		<path d="M48.7,16.6l2.9,0.4c0,0.4,0.2,0.7,0.3,0.8c0.2,0.2,0.6,0.3,1.1,0.3c0.7,0,1.1-0.1,1.5-0.3c0.2-0.2,0.4-0.4,0.5-0.7
			c0.1-0.2,0.1-0.7,0.1-1.3V14c-0.7,1.2-1.7,1.8-2.8,1.8c-1.3,0-2.3-0.6-3-1.9c-0.6-1-0.9-2.2-0.9-3.7c0-1.8,0.4-3.3,1.1-4.2
			s1.7-1.5,2.8-1.5c1.2,0,2.1,0.6,2.9,1.8V4.8h2.3v9.9c0,1.3-0.1,2.3-0.3,2.9c-0.2,0.6-0.4,1.1-0.8,1.5s-0.8,0.7-1.3,0.9
			c-0.6,0.2-1.3,0.3-2.1,0.3c-1.6,0-2.7-0.3-3.4-1c-0.7-0.6-1-1.5-1-2.4C48.7,16.8,48.7,16.7,48.7,16.6z M50.9,10.1
			c0,1.2,0.2,2,0.6,2.6c0.4,0.5,0.9,0.8,1.4,0.8c0.6,0,1.1-0.3,1.6-0.8c0.4-0.6,0.6-1.4,0.6-2.5c0-1.1-0.2-2-0.6-2.5
			c-0.4-0.6-0.9-0.8-1.5-0.8c-0.6,0-1.1,0.3-1.5,0.8C51.1,8.2,50.9,9,50.9,10.1z"/>
		<path d="M70.4,4.8v2.3h-1.7v4.4c0,0.9,0,1.4,0,1.6c0,0.1,0.1,0.3,0.2,0.4c0.1,0.1,0.3,0.1,0.4,0.1c0.2,0,0.6-0.1,1-0.3l0.2,2.3
			c-0.6,0.3-1.2,0.4-2,0.4c-0.5,0-0.9-0.1-1.2-0.3c-0.4-0.2-0.6-0.4-0.8-0.7s-0.3-0.7-0.4-1.1c-0.1-0.3-0.1-1-0.1-2.1V7.1H65V4.8
			h1.2V2.6l2.5-1.7v3.9H70.4z"/>
		<path d="M72,10.2c0-1,0.2-1.9,0.6-2.8c0.4-0.9,1-1.6,1.7-2.1c0.8-0.5,1.6-0.7,2.5-0.7c1.4,0,2.6,0.5,3.5,1.6s1.4,2.4,1.4,4.1
			c0,1.7-0.5,3-1.4,4.1c-0.9,1.1-2.1,1.6-3.5,1.6c-0.9,0-1.7-0.2-2.5-0.7c-0.8-0.5-1.4-1.1-1.8-2C72.2,12.5,72,11.4,72,10.2z
			 M73.9,3.4l1.9-3.1h2.3l1.8,3.1h-2l-1-1.5l-1,1.5H73.9z M74.6,10.3c0,1.1,0.2,1.9,0.7,2.5s1,0.9,1.6,0.9c0.7,0,1.2-0.3,1.6-0.9
			c0.4-0.6,0.7-1.4,0.7-2.5c0-1.1-0.2-1.9-0.7-2.5c-0.4-0.6-1-0.9-1.6-0.9c-0.7,0-1.2,0.3-1.6,0.9C74.8,8.4,74.6,9.2,74.6,10.3z"/>
		<path d="M84.2,3.3V0.6h2.5v2.7H84.2z M84.2,15.8v-11h2.5v11H84.2z"/>
		<path d="M95.3,15.8V0.6h2.5v15.2H95.3z"/>
		<path d="M107.1,15.8v-1.6c-0.3,0.6-0.8,1.1-1.4,1.4c-0.6,0.3-1.2,0.5-1.8,0.5c-0.6,0-1.2-0.2-1.7-0.5c-0.5-0.3-0.9-0.8-1.1-1.4
			c-0.2-0.6-0.3-1.4-0.3-2.4v-7h2.5v5.1c0,1.5,0,2.5,0.1,2.8c0.1,0.3,0.3,0.6,0.5,0.8c0.2,0.2,0.6,0.3,0.9,0.3
			c0.4,0,0.8-0.1,1.2-0.4c0.3-0.3,0.6-0.6,0.7-1s0.2-1.4,0.2-3V4.8h2.5v11H107.1z"/>
		<path d="M111.9,10.2c0-1,0.2-1.9,0.6-2.8c0.4-0.9,1-1.6,1.7-2.1c0.8-0.5,1.6-0.7,2.5-0.7c1.4,0,2.6,0.5,3.5,1.6s1.4,2.4,1.4,4.1
			c0,1.7-0.5,3-1.4,4.1c-0.9,1.1-2.1,1.6-3.5,1.6c-0.9,0-1.7-0.2-2.5-0.7c-0.8-0.5-1.4-1.1-1.8-2C112.1,12.5,111.9,11.4,111.9,10.2z
			 M113.7,3.4l1.9-3.1h2.3l1.8,3.1h-2l-1-1.5l-1,1.5H113.7z M114.4,10.3c0,1.1,0.2,1.9,0.7,2.5s1,0.9,1.6,0.9c0.7,0,1.2-0.3,1.6-0.9
			c0.4-0.6,0.7-1.4,0.7-2.5c0-1.1-0.2-1.9-0.7-2.5c-0.4-0.6-1-0.9-1.6-0.9c-0.7,0-1.2,0.3-1.6,0.9C114.6,8.4,114.4,9.2,114.4,10.3z"
			/>
		<path d="M132.7,15.8h-2.5v-5.6c0-1.2-0.1-2-0.2-2.3c-0.1-0.3-0.3-0.6-0.5-0.8s-0.5-0.3-0.9-0.3c-0.4,0-0.8,0.1-1.2,0.4
			c-0.3,0.3-0.6,0.6-0.7,1.1c-0.1,0.5-0.2,1.3-0.2,2.5v5H124v-11h2.3v1.6c0.8-1.2,1.9-1.9,3.1-1.9c0.6,0,1.1,0.1,1.5,0.3
			c0.5,0.2,0.8,0.5,1,0.9c0.2,0.4,0.4,0.8,0.5,1.2c0.1,0.5,0.1,1.1,0.1,2V15.8z"/>
		<path d="M149.5,8.1L147,8.6c-0.1-0.6-0.3-1-0.6-1.3c-0.3-0.3-0.7-0.4-1.1-0.4c-0.6,0-1.1,0.3-1.5,0.8c-0.4,0.5-0.6,1.3-0.6,2.5
			c0,1.3,0.2,2.2,0.6,2.8c0.4,0.5,0.9,0.8,1.5,0.8c0.5,0,0.9-0.2,1.2-0.5s0.5-0.9,0.6-1.6l2.5,0.5c-0.3,1.3-0.7,2.3-1.5,3
			s-1.7,1-2.9,1c-1.4,0-2.5-0.5-3.3-1.5c-0.8-1-1.2-2.4-1.2-4.2c0-1.8,0.4-3.2,1.2-4.2c0.8-1,1.9-1.5,3.4-1.5c1.2,0,2.1,0.3,2.8,0.9
			C148.7,6,149.2,6.9,149.5,8.1z"/>
		<path d="M154.3,0.6v5.6c0.8-1.1,1.8-1.6,2.9-1.6c0.6,0,1.1,0.1,1.6,0.4c0.5,0.2,0.8,0.6,1,1c0.2,0.4,0.4,0.8,0.5,1.3
			c0.1,0.5,0.1,1.2,0.1,2.2v6.5h-2.5V10c0-1.2,0-1.9-0.1-2.2c-0.1-0.3-0.3-0.6-0.5-0.7c-0.2-0.2-0.5-0.3-0.9-0.3
			c-0.4,0-0.8,0.1-1.1,0.4s-0.6,0.6-0.7,1.1c-0.2,0.5-0.2,1.2-0.2,2.1v5.5h-2.5V0.6H154.3z"/>
		<path d="M165.3,8.2L163,7.7c0.3-1.1,0.7-1.9,1.3-2.4c0.6-0.5,1.6-0.8,2.8-0.8c1.1,0,2,0.2,2.5,0.5s0.9,0.7,1.2,1.2
			c0.2,0.5,0.3,1.3,0.3,2.6l0,3.4c0,1,0,1.7,0.1,2.1s0.2,1,0.5,1.5h-2.5c-0.1-0.2-0.1-0.5-0.2-0.9c0-0.2-0.1-0.3-0.1-0.3
			c-0.4,0.5-0.9,0.8-1.4,1.1s-1,0.4-1.6,0.4c-1,0-1.7-0.3-2.3-0.9c-0.6-0.6-0.8-1.4-0.8-2.3c0-0.6,0.1-1.2,0.4-1.7
			c0.3-0.5,0.6-0.9,1.1-1.1c0.5-0.3,1.1-0.5,2-0.7c1.2-0.3,2-0.5,2.4-0.7V8.3c0-0.6-0.1-1-0.4-1.2c-0.2-0.2-0.7-0.4-1.3-0.4
			c-0.4,0-0.8,0.1-1,0.3C165.7,7.3,165.5,7.7,165.3,8.2z M168.5,3.5h-1.6l-2.5-3.1h2.8L168.5,3.5z M168.6,10.5
			c-0.3,0.1-0.8,0.3-1.5,0.4c-0.7,0.2-1.2,0.3-1.4,0.5c-0.3,0.3-0.5,0.6-0.5,1c0,0.4,0.1,0.8,0.4,1.1c0.3,0.3,0.6,0.4,1,0.4
			c0.5,0,0.9-0.2,1.3-0.5c0.3-0.3,0.5-0.6,0.6-1c0.1-0.2,0.1-0.7,0.1-1.4V10.5z"/>
		<path d="M173.5,10.2c0-1,0.2-1.9,0.6-2.8c0.4-0.9,1-1.6,1.7-2.1c0.8-0.5,1.6-0.7,2.5-0.7c1.4,0,2.6,0.5,3.5,1.6s1.4,2.4,1.4,4.1
			c0,1.7-0.5,3-1.4,4.1c-0.9,1.1-2.1,1.6-3.5,1.6c-0.9,0-1.7-0.2-2.5-0.7c-0.8-0.5-1.4-1.1-1.8-2C173.7,12.5,173.5,11.4,173.5,10.2z
			 M176,10.3c0,1.1,0.2,1.9,0.7,2.5s1,0.9,1.6,0.9c0.7,0,1.2-0.3,1.6-0.9c0.4-0.6,0.7-1.4,0.7-2.5c0-1.1-0.2-1.9-0.7-2.5
			c-0.4-0.6-1-0.9-1.6-0.9c-0.7,0-1.2,0.3-1.6,0.9C176.3,8.4,176,9.2,176,10.3z"/>
		<path d="M197.4,3.6h-2.7V1.7h2.7V0.6h2.5v1.1h1v1.9h-1v12.2h-2.3v-1.6c-0.4,0.6-0.8,1.1-1.4,1.4s-1.1,0.5-1.6,0.5
			c-1.1,0-2-0.5-2.8-1.5c-0.8-1-1.2-2.4-1.2-4.3c0-1.9,0.4-3.3,1.1-4.3c0.8-1,1.7-1.5,2.9-1.5c1.1,0,2,0.5,2.7,1.5V3.6z M193.2,10.1
			c0,1.2,0.1,2,0.4,2.6c0.4,0.8,1,1.1,1.7,1.1c0.6,0,1.1-0.3,1.5-0.9c0.4-0.6,0.6-1.4,0.6-2.6c0-1.3-0.2-2.2-0.6-2.7
			c-0.4-0.6-0.9-0.8-1.5-0.8c-0.6,0-1.1,0.3-1.5,0.8S193.2,9,193.2,10.1z"/>
		<path d="M202.2,10.2c0-1,0.2-1.9,0.6-2.8c0.4-0.9,1-1.6,1.7-2.1c0.8-0.5,1.6-0.7,2.5-0.7c1.4,0,2.6,0.5,3.5,1.6s1.4,2.4,1.4,4.1
			c0,1.7-0.5,3-1.4,4.1c-0.9,1.1-2.1,1.6-3.5,1.6c-0.9,0-1.7-0.2-2.5-0.7c-0.8-0.5-1.4-1.1-1.8-2C202.4,12.5,202.2,11.4,202.2,10.2z
			 M204.8,10.3c0,1.1,0.2,1.9,0.7,2.5s1,0.9,1.6,0.9c0.7,0,1.2-0.3,1.6-0.9c0.4-0.6,0.7-1.4,0.7-2.5c0-1.1-0.2-1.9-0.7-2.5
			c-0.4-0.6-1-0.9-1.6-0.9c-0.7,0-1.2,0.3-1.6,0.9C205,8.4,204.8,9.2,204.8,10.3z M205.8,3.5l1.2-3.1h2.8l-2.5,3.1H205.8z"/>
		<path d="M223,15.8h-2.5v-5.6c0-1.2-0.1-2-0.2-2.3c-0.1-0.3-0.3-0.6-0.5-0.8s-0.5-0.3-0.9-0.3c-0.4,0-0.8,0.1-1.2,0.4
			c-0.3,0.3-0.6,0.6-0.7,1.1c-0.1,0.5-0.2,1.3-0.2,2.5v5h-2.5v-11h2.3v1.6c0.8-1.2,1.9-1.9,3.1-1.9c0.6,0,1.1,0.1,1.5,0.3
			c0.5,0.2,0.8,0.5,1,0.9c0.2,0.4,0.4,0.8,0.5,1.2c0.1,0.5,0.1,1.1,0.1,2V15.8z"/>
		<path d="M230.7,12.7l2.5-0.4c0.1,0.6,0.3,1,0.7,1.3c0.3,0.3,0.8,0.4,1.4,0.4c0.6,0,1.1-0.1,1.5-0.4c0.2-0.2,0.3-0.5,0.3-0.8
			c0-0.2-0.1-0.4-0.2-0.5c-0.1-0.1-0.4-0.3-0.8-0.4c-2-0.5-3.3-1-3.8-1.4C231.4,9.8,231,9,231,7.9c0-1,0.3-1.8,1-2.4s1.7-1,3-1
			c1.3,0,2.3,0.2,2.9,0.7c0.6,0.5,1.1,1.2,1.3,2.2L236.8,8c-0.1-0.4-0.3-0.8-0.6-1c-0.3-0.2-0.7-0.3-1.2-0.3c-0.7,0-1.1,0.1-1.4,0.3
			c-0.2,0.2-0.3,0.3-0.3,0.6c0,0.2,0.1,0.4,0.3,0.5c0.2,0.2,1,0.5,2.3,0.8s2.3,0.8,2.8,1.3c0.5,0.5,0.8,1.2,0.8,2.2
			c0,1-0.4,1.9-1.1,2.6s-1.8,1.1-3.2,1.1c-1.3,0-2.3-0.3-3.1-0.9C231.4,14.6,230.9,13.7,230.7,12.7z"/>
		<path d="M251.6,4.8h2.5v2.1c0,0.9-0.1,1.5-0.2,2c-0.1,0.5-0.4,0.9-0.7,1.3c-0.5,0.6-1.3,1-2.5,1.2v4.4h-2.3v-1.6
			c-0.7,1.3-1.8,1.9-3.1,1.9c-1.4,0-2.3-0.6-2.8-1.9c-0.2-0.6-0.3-1.4-0.3-2.4v-7h2.5v5.1c0,1.5,0,2.4,0.1,2.8
			c0.1,0.3,0.2,0.6,0.5,0.8c0.2,0.2,0.6,0.3,0.9,0.3c0.4,0,0.8-0.1,1.1-0.4s0.6-0.6,0.7-1c0.1-0.4,0.2-1.4,0.2-3V4.8h2.5v5.4
			c0.8-0.2,1.4-0.6,1.7-1.1c0.2-0.3,0.3-0.8,0.3-1.4h-1.2V4.8z M244.9,20v-2.9h2.5V20H244.9z"/>
		<path d="M263.9,0.6v5.6c0.8-1.1,1.8-1.6,2.9-1.6c0.6,0,1.1,0.1,1.6,0.4c0.5,0.2,0.8,0.6,1,1c0.2,0.4,0.4,0.8,0.5,1.3
			c0.1,0.5,0.1,1.2,0.1,2.2v6.5h-2.5V10c0-1.2,0-1.9-0.1-2.2c-0.1-0.3-0.3-0.6-0.5-0.7c-0.2-0.2-0.5-0.3-0.9-0.3
			c-0.4,0-0.8,0.1-1.1,0.4s-0.6,0.6-0.7,1.1c-0.2,0.5-0.2,1.2-0.2,2.1v5.5h-2.5V0.6H263.9z"/>
		<path d="M282.2,4.8h2.5v2.1c0,0.9-0.1,1.5-0.2,2c-0.1,0.5-0.4,0.9-0.7,1.3c-0.4,0.5-0.9,0.8-1.6,1.1c-0.1,1.2-0.6,2.3-1.3,3.2
			c-0.9,1.1-2.1,1.6-3.5,1.6c-0.9,0-1.7-0.2-2.5-0.7c-0.8-0.5-1.4-1.2-1.8-2s-0.6-1.9-0.6-3.2c0-1,0.2-1.9,0.6-2.8
			c0.4-0.9,1-1.6,1.8-2.1c0.7-0.5,1.6-0.7,2.5-0.7c1.4,0,2.6,0.5,3.5,1.6c0.8,1,1.3,2.2,1.4,3.6c0.8-0.4,1.2-1.1,1.2-2.1h-1.2V4.8z
			 M275,10.3c0,1.1,0.2,1.9,0.7,2.5c0.4,0.6,1,0.9,1.6,0.9s1.2-0.3,1.6-0.9c0.4-0.6,0.7-1.5,0.7-2.5c0-1.1-0.2-1.9-0.7-2.5
			c-0.4-0.6-1-0.9-1.6-0.9s-1.2,0.3-1.6,0.9C275.2,8.4,275,9.3,275,10.3z M275.9,20v-2.9h2.5V20H275.9z"/>
		<path d="M286.4,4.8h2.3v1.6c0.3-0.6,0.7-1,1.2-1.3c0.5-0.3,1.1-0.5,1.7-0.5c1.1,0,2,0.5,2.8,1.5c0.8,1,1.2,2.4,1.2,4.2
			c0,1.8-0.4,3.3-1.2,4.3c-0.8,1-1.7,1.5-2.8,1.5c-0.5,0-1-0.1-1.4-0.4s-0.9-0.7-1.3-1.2V20h-2.5V4.8z M288.8,10.1
			c0,1.2,0.2,2.2,0.6,2.7c0.4,0.6,0.9,0.9,1.5,0.9c0.6,0,1.1-0.3,1.5-0.8c0.4-0.5,0.6-1.4,0.6-2.7c0-1.2-0.2-2-0.6-2.6
			c-0.4-0.6-0.9-0.8-1.5-0.8c-0.6,0-1.1,0.3-1.5,0.8C289,8.2,288.8,9.1,288.8,10.1z"/>
		<path d="M307.9,4.8v2.3h-1.7v4.4c0,0.9,0,1.4,0,1.6c0,0.1,0.1,0.3,0.2,0.4c0.1,0.1,0.3,0.1,0.4,0.1c0.2,0,0.6-0.1,1-0.3l0.2,2.3
			c-0.6,0.3-1.2,0.4-2,0.4c-0.5,0-0.9-0.1-1.2-0.3c-0.4-0.2-0.6-0.4-0.8-0.7s-0.3-0.7-0.4-1.1c-0.1-0.3-0.1-1-0.1-2.1V7.1h-1.2V4.8
			h1.2V2.6l2.5-1.7v3.9H307.9z"/>
		<path d="M312,8.2l-2.3-0.5c0.3-1.1,0.7-1.9,1.3-2.4c0.6-0.5,1.6-0.8,2.8-0.8c1.1,0,2,0.2,2.5,0.5s0.9,0.7,1.2,1.2
			c0.2,0.5,0.3,1.3,0.3,2.6l0,3.4c0,1,0,1.7,0.1,2.1s0.2,1,0.5,1.5h-2.5c-0.1-0.2-0.1-0.5-0.2-0.9c0-0.2-0.1-0.3-0.1-0.3
			c-0.4,0.5-0.9,0.8-1.4,1.1s-1,0.4-1.6,0.4c-1,0-1.7-0.3-2.3-0.9c-0.6-0.6-0.8-1.4-0.8-2.3c0-0.6,0.1-1.2,0.4-1.7
			c0.3-0.5,0.6-0.9,1.1-1.1c0.5-0.3,1.1-0.5,2-0.7c1.2-0.3,2-0.5,2.4-0.7V8.3c0-0.6-0.1-1-0.4-1.2c-0.2-0.2-0.7-0.4-1.3-0.4
			c-0.4,0-0.8,0.1-1,0.3C312.4,7.3,312.1,7.7,312,8.2z M315.3,10.5c-0.3,0.1-0.8,0.3-1.5,0.4c-0.7,0.2-1.2,0.3-1.4,0.5
			c-0.3,0.3-0.5,0.6-0.5,1c0,0.4,0.1,0.8,0.4,1.1c0.3,0.3,0.6,0.4,1,0.4c0.5,0,0.9-0.2,1.3-0.5c0.3-0.3,0.5-0.6,0.6-1
			c0.1-0.2,0.1-0.7,0.1-1.4V10.5z M312.6,3.5l1.2-3.1h2.8l-2.5,3.1H312.6z"/>
		<path d="M329,8.1l-2.5,0.5c-0.1-0.6-0.3-1-0.6-1.3c-0.3-0.3-0.7-0.4-1.1-0.4c-0.6,0-1.1,0.3-1.5,0.8c-0.4,0.5-0.6,1.3-0.6,2.5
			c0,1.3,0.2,2.2,0.6,2.8c0.4,0.5,0.9,0.8,1.5,0.8c0.5,0,0.9-0.2,1.2-0.5s0.5-0.9,0.6-1.6l2.5,0.5c-0.3,1.3-0.7,2.3-1.5,3
			s-1.7,1-2.9,1c-1.4,0-2.5-0.5-3.3-1.5c-0.8-1-1.2-2.4-1.2-4.2c0-1.8,0.4-3.2,1.2-4.2c0.8-1,1.9-1.5,3.4-1.5c1.2,0,2.1,0.3,2.8,0.9
			C328.2,6,328.7,6.9,329,8.1z"/>
		<path d="M345.1,8.1l-2.5,0.5c-0.1-0.6-0.3-1-0.6-1.3c-0.3-0.3-0.7-0.4-1.1-0.4c-0.6,0-1.1,0.3-1.5,0.8c-0.4,0.5-0.6,1.3-0.6,2.5
			c0,1.3,0.2,2.2,0.6,2.8c0.4,0.5,0.9,0.8,1.5,0.8c0.5,0,0.9-0.2,1.2-0.5s0.5-0.9,0.6-1.6l2.5,0.5c-0.3,1.3-0.7,2.3-1.5,3
			s-1.7,1-2.9,1c-1.4,0-2.5-0.5-3.3-1.5c-0.8-1-1.2-2.4-1.2-4.2c0-1.8,0.4-3.2,1.2-4.2c0.8-1,1.9-1.5,3.4-1.5c1.2,0,2.1,0.3,2.8,0.9
			C344.4,6,344.8,6.9,345.1,8.1z"/>
		<path d="M353.7,15.8v-1.6c-0.3,0.6-0.8,1.1-1.4,1.4c-0.6,0.3-1.2,0.5-1.8,0.5c-0.6,0-1.2-0.2-1.7-0.5c-0.5-0.3-0.9-0.8-1.1-1.4
			c-0.2-0.6-0.3-1.4-0.3-2.4v-7h2.5v5.1c0,1.5,0,2.5,0.1,2.8c0.1,0.3,0.3,0.6,0.5,0.8c0.2,0.2,0.6,0.3,0.9,0.3
			c0.4,0,0.8-0.1,1.2-0.4c0.3-0.3,0.6-0.6,0.7-1s0.2-1.4,0.2-3V4.8h2.5v11H353.7z M352,2.2c0.3-0.1,0.5-0.2,0.5-0.5
			c0-0.2-0.1-0.3-0.3-0.4c-0.2-0.2-0.6-0.2-1.2-0.2c-0.2,0-0.5,0-0.8,0l-0.1-1.1c0.2-0.1,0.7-0.1,1.3-0.1c0.7,0,1.3,0.1,1.8,0.4
			c0.5,0.3,0.8,0.7,0.8,1.2c0,0.7-0.5,1.2-1.6,1.3v0.5h-1V2.3C351.6,2.3,351.9,2.2,352,2.2z"/>
		<path d="M361,8.2l-2.3-0.5c0.3-1.1,0.7-1.9,1.3-2.4c0.6-0.5,1.6-0.8,2.8-0.8c1.1,0,2,0.2,2.5,0.5s0.9,0.7,1.2,1.2
			c0.2,0.5,0.3,1.3,0.3,2.6l0,3.4c0,1,0,1.7,0.1,2.1s0.2,1,0.5,1.5h-2.5c-0.1-0.2-0.1-0.5-0.2-0.9c0-0.2-0.1-0.3-0.1-0.3
			c-0.4,0.5-0.9,0.8-1.4,1.1s-1,0.4-1.6,0.4c-1,0-1.7-0.3-2.3-0.9c-0.6-0.6-0.8-1.4-0.8-2.3c0-0.6,0.1-1.2,0.4-1.7
			c0.3-0.5,0.6-0.9,1.1-1.1c0.5-0.3,1.1-0.5,2-0.7c1.2-0.3,2-0.5,2.4-0.7V8.3c0-0.6-0.1-1-0.4-1.2c-0.2-0.2-0.7-0.4-1.3-0.4
			c-0.4,0-0.8,0.1-1,0.3C361.3,7.3,361.1,7.7,361,8.2z M364.3,10.5c-0.3,0.1-0.8,0.3-1.5,0.4c-0.7,0.2-1.2,0.3-1.4,0.5
			c-0.3,0.3-0.5,0.6-0.5,1c0,0.4,0.1,0.8,0.4,1.1c0.3,0.3,0.6,0.4,1,0.4c0.5,0,0.9-0.2,1.3-0.5c0.3-0.3,0.5-0.6,0.6-1
			c0.1-0.2,0.1-0.7,0.1-1.4V10.5z"/>
		<path d="M381.4,20v-5.5c-0.3,0.5-0.7,0.9-1.2,1.2c-0.5,0.3-1,0.4-1.6,0.4c-1.1,0-2-0.5-2.7-1.4c-0.8-1.1-1.2-2.6-1.2-4.5
			c0-1.8,0.4-3.2,1.2-4.1c0.8-1,1.7-1.5,2.9-1.5c0.6,0,1.2,0.2,1.6,0.5c0.5,0.3,0.9,0.8,1.2,1.4V4.8h2.3V20H381.4z M381.5,10.2
			c0-1.1-0.2-2-0.6-2.5c-0.4-0.5-0.9-0.8-1.5-0.8c-0.6,0-1.1,0.3-1.5,0.8s-0.6,1.4-0.6,2.7c0,1.2,0.2,2.1,0.6,2.6
			c0.4,0.5,0.9,0.8,1.5,0.8s1.1-0.3,1.5-0.9C381.3,12.3,381.5,11.4,381.5,10.2z"/>
		<path d="M393.1,15.8v-1.6c-0.3,0.6-0.8,1.1-1.4,1.4c-0.6,0.3-1.2,0.5-1.8,0.5c-0.6,0-1.2-0.2-1.7-0.5c-0.5-0.3-0.9-0.8-1.1-1.4
			c-0.2-0.6-0.3-1.4-0.3-2.4v-7h2.5v5.1c0,1.5,0,2.5,0.1,2.8c0.1,0.3,0.3,0.6,0.5,0.8c0.2,0.2,0.6,0.3,0.9,0.3
			c0.4,0,0.8-0.1,1.2-0.4c0.3-0.3,0.6-0.6,0.7-1s0.2-1.4,0.2-3V4.8h2.5v11H393.1z"/>
		<path d="M397.3,4.8h2.7l2.3,7.8l2.2-7.8h2.6l-3.3,10.6l-0.6,1.9c-0.2,0.6-0.4,1.1-0.6,1.5c-0.2,0.3-0.4,0.6-0.7,0.8
			c-0.3,0.2-0.6,0.4-1,0.5c-0.4,0.1-0.8,0.2-1.3,0.2c-0.5,0-1-0.1-1.4-0.2l-0.2-2.3c0.4,0.1,0.7,0.1,1.1,0.1c0.6,0,1-0.2,1.3-0.6
			c0.3-0.4,0.5-0.9,0.6-1.5L397.3,4.8z M400.9,3.5l1.2-3.1h2.8l-2.5,3.1H400.9z"/>
		<path d="M417.2,15.8l-3.8-11h2.6l1.8,5.6l0.5,1.9c0.1-0.5,0.2-0.8,0.3-0.9c0.1-0.3,0.2-0.6,0.3-0.9l1.8-5.6h2.6l-3.8,11H417.2z"/>
		<path d="M425.2,3.3V0.6h2.5v2.7H425.2z M425.2,15.8v-11h2.5v11H425.2z M425.3,20v-2.9h2.5V20H425.3z"/>
		<path d="M444.6,8.1l-2.5,0.5c-0.1-0.6-0.3-1-0.6-1.3c-0.3-0.3-0.7-0.4-1.1-0.4c-0.6,0-1.1,0.3-1.5,0.8c-0.4,0.5-0.6,1.3-0.6,2.5
			c0,1.3,0.2,2.2,0.6,2.8c0.4,0.5,0.9,0.8,1.5,0.8c0.5,0,0.9-0.2,1.2-0.5s0.5-0.9,0.6-1.6l2.5,0.5c-0.3,1.3-0.7,2.3-1.5,3
			s-1.7,1-2.9,1c-1.4,0-2.5-0.5-3.3-1.5c-0.8-1-1.2-2.4-1.2-4.2c0-1.8,0.4-3.2,1.2-4.2c0.8-1,1.9-1.5,3.4-1.5c1.2,0,2.1,0.3,2.8,0.9
			C443.8,6,444.3,6.9,444.6,8.1z"/>
		<path d="M449.4,0.6v5.6c0.8-1.1,1.8-1.6,2.9-1.6c0.6,0,1.1,0.1,1.6,0.4c0.5,0.2,0.8,0.6,1,1c0.2,0.4,0.4,0.8,0.5,1.3
			c0.1,0.5,0.1,1.2,0.1,2.2v6.5H453V10c0-1.2,0-1.9-0.1-2.2c-0.1-0.3-0.3-0.6-0.5-0.7c-0.2-0.2-0.5-0.3-0.9-0.3
			c-0.4,0-0.8,0.1-1.1,0.4s-0.6,0.6-0.7,1.1c-0.2,0.5-0.2,1.2-0.2,2.1v5.5h-2.5V0.6H449.4z"/>
		<path d="M464.8,15.8v-1.6c-0.3,0.6-0.8,1.1-1.4,1.4c-0.6,0.3-1.2,0.5-1.8,0.5c-0.6,0-1.2-0.2-1.7-0.5c-0.5-0.3-0.9-0.8-1.1-1.4
			c-0.2-0.6-0.3-1.4-0.3-2.4v-7h2.5v5.1c0,1.5,0,2.5,0.1,2.8c0.1,0.3,0.3,0.6,0.5,0.8c0.2,0.2,0.6,0.3,0.9,0.3
			c0.4,0,0.8-0.1,1.2-0.4c0.3-0.3,0.6-0.6,0.7-1s0.2-1.4,0.2-3V4.8h2.5v11H464.8z M463,2.2c0.3-0.1,0.5-0.2,0.5-0.5
			c0-0.2-0.1-0.3-0.3-0.4c-0.2-0.2-0.6-0.2-1.2-0.2c-0.2,0-0.5,0-0.8,0l-0.1-1.1c0.2-0.1,0.7-0.1,1.3-0.1c0.7,0,1.3,0.1,1.8,0.4
			c0.5,0.3,0.8,0.7,0.8,1.2c0,0.7-0.5,1.2-1.6,1.3v0.5h-1V2.3C462.7,2.3,462.9,2.2,463,2.2z"/>
		<path d="M484.3,15.8h-2.5v-5.6c0-1.2-0.1-2-0.2-2.3c-0.1-0.3-0.3-0.6-0.5-0.8s-0.5-0.3-0.9-0.3c-0.4,0-0.8,0.1-1.2,0.4
			c-0.3,0.3-0.6,0.6-0.7,1.1c-0.1,0.5-0.2,1.3-0.2,2.5v5h-2.5v-11h2.3v1.6c0.8-1.2,1.9-1.9,3.1-1.9c0.6,0,1.1,0.1,1.5,0.3
			c0.5,0.2,0.8,0.5,1,0.9c0.2,0.4,0.4,0.8,0.5,1.2c0.1,0.5,0.1,1.1,0.1,2V15.8z"/>
		<path d="M489.8,0.6v5.6c0.8-1.1,1.8-1.6,2.9-1.6c0.6,0,1.1,0.1,1.6,0.4c0.5,0.2,0.8,0.6,1,1c0.2,0.4,0.4,0.8,0.5,1.3
			c0.1,0.5,0.1,1.2,0.1,2.2v6.5h-2.5V10c0-1.2,0-1.9-0.1-2.2c-0.1-0.3-0.3-0.6-0.5-0.7c-0.2-0.2-0.5-0.3-0.9-0.3
			c-0.4,0-0.8,0.1-1.1,0.4s-0.6,0.6-0.7,1.1c-0.2,0.5-0.2,1.2-0.2,2.1v5.5h-2.5V0.6H489.8z"/>
		<path d="M500.8,8.2l-2.3-0.5c0.3-1.1,0.7-1.9,1.3-2.4c0.6-0.5,1.6-0.8,2.8-0.8c1.1,0,2,0.2,2.5,0.5s0.9,0.7,1.2,1.2
			c0.2,0.5,0.3,1.3,0.3,2.6l0,3.4c0,1,0,1.7,0.1,2.1s0.2,1,0.5,1.5h-2.5c-0.1-0.2-0.1-0.5-0.2-0.9c0-0.2-0.1-0.3-0.1-0.3
			c-0.4,0.5-0.9,0.8-1.4,1.1s-1,0.4-1.6,0.4c-1,0-1.7-0.3-2.3-0.9c-0.6-0.6-0.8-1.4-0.8-2.3c0-0.6,0.1-1.2,0.4-1.7
			c0.3-0.5,0.6-0.9,1.1-1.1c0.5-0.3,1.1-0.5,2-0.7c1.2-0.3,2-0.5,2.4-0.7V8.3c0-0.6-0.1-1-0.4-1.2c-0.2-0.2-0.7-0.4-1.3-0.4
			c-0.4,0-0.8,0.1-1,0.3C501.1,7.3,500.9,7.7,500.8,8.2z M504,3.5h-1.6l-2.5-3.1h2.8L504,3.5z M504.1,10.5c-0.3,0.1-0.8,0.3-1.5,0.4
			c-0.7,0.2-1.2,0.3-1.4,0.5c-0.3,0.3-0.5,0.6-0.5,1c0,0.4,0.1,0.8,0.4,1.1c0.3,0.3,0.6,0.4,1,0.4c0.5,0,0.9-0.2,1.3-0.5
			c0.3-0.3,0.5-0.6,0.6-1c0.1-0.2,0.1-0.7,0.1-1.4V10.5z"/>
		<path d="M510.5,11.9l-0.7-7.7V0.6h2.7v3.6l-0.6,7.7H510.5z M510,15.8v-2.9h2.5v2.9H510z"/>
	</g>
	<g>
		<path d="M42.8,306.2l2.6,0.9c-0.4,1.7-1,2.9-2,3.7c-0.9,0.8-2.1,1.2-3.5,1.2c-1.7,0-3.2-0.7-4.3-2.1c-1.1-1.4-1.7-3.3-1.7-5.7
			c0-2.5,0.6-4.5,1.7-5.9c1.1-1.4,2.6-2.1,4.4-2.1c1.6,0,2.9,0.5,3.9,1.6c0.6,0.7,1,1.6,1.3,2.8l-2.6,0.7c-0.2-0.8-0.5-1.4-1-1.9
			c-0.5-0.5-1.1-0.7-1.8-0.7c-1,0-1.8,0.4-2.4,1.2s-0.9,2.1-0.9,3.9c0,1.9,0.3,3.3,0.9,4.1c0.6,0.8,1.4,1.2,2.3,1.2
			c0.7,0,1.3-0.3,1.8-0.8C42.2,308.2,42.6,307.3,42.8,306.2z"/>
		<path d="M50.6,296.6v5.6c0.8-1.1,1.8-1.6,2.9-1.6c0.6,0,1.1,0.1,1.6,0.4c0.5,0.2,0.8,0.6,1,1c0.2,0.4,0.4,0.8,0.5,1.3
			c0.1,0.5,0.1,1.2,0.1,2.2v6.5h-2.5V306c0-1.2,0-1.9-0.1-2.2c-0.1-0.3-0.3-0.6-0.5-0.7c-0.2-0.2-0.5-0.3-0.9-0.3
			c-0.4,0-0.8,0.1-1.1,0.4s-0.6,0.6-0.7,1.1c-0.2,0.5-0.2,1.2-0.2,2.1v5.5h-2.5v-15.2H50.6z"/>
		<path d="M65.9,311.8v-1.6c-0.3,0.6-0.8,1.1-1.4,1.4c-0.6,0.3-1.2,0.5-1.8,0.5c-0.6,0-1.2-0.2-1.7-0.5c-0.5-0.3-0.9-0.8-1.1-1.4
			c-0.2-0.6-0.3-1.4-0.3-2.4v-7h2.5v5.1c0,1.5,0,2.5,0.1,2.8c0.1,0.3,0.3,0.6,0.5,0.8c0.2,0.2,0.6,0.3,0.9,0.3
			c0.4,0,0.8-0.1,1.2-0.4c0.3-0.3,0.6-0.6,0.7-1s0.2-1.4,0.2-3v-4.6h2.5v11H65.9z M62.7,299.5l1.2-3.1h2.8l-2.5,3.1H62.7z"/>
		<path d="M79.9,311.8h-2.5v-5.6c0-1.2-0.1-2-0.2-2.3c-0.1-0.3-0.3-0.6-0.5-0.8s-0.5-0.3-0.9-0.3c-0.4,0-0.8,0.1-1.2,0.4
			c-0.3,0.3-0.6,0.6-0.7,1.1c-0.1,0.5-0.2,1.3-0.2,2.5v5h-2.5v-11h2.3v1.6c0.8-1.2,1.9-1.9,3.1-1.9c0.6,0,1.1,0.1,1.5,0.3
			c0.5,0.2,0.8,0.5,1,0.9c0.2,0.4,0.4,0.8,0.5,1.2c0.1,0.5,0.1,1.1,0.1,2V311.8z"/>
		<path d="M82.7,312.6l2.9,0.4c0,0.4,0.2,0.7,0.3,0.8c0.2,0.2,0.6,0.3,1.1,0.3c0.7,0,1.1-0.1,1.5-0.3c0.2-0.2,0.4-0.4,0.5-0.7
			c0.1-0.2,0.1-0.7,0.1-1.3V310c-0.7,1.2-1.7,1.8-2.8,1.8c-1.3,0-2.3-0.6-3-1.9c-0.6-1-0.9-2.2-0.9-3.7c0-1.8,0.4-3.3,1.1-4.2
			s1.7-1.5,2.8-1.5c1.2,0,2.1,0.6,2.9,1.8v-1.5h2.3v9.9c0,1.3-0.1,2.3-0.3,2.9c-0.2,0.6-0.4,1.1-0.8,1.5s-0.8,0.7-1.3,0.9
			c-0.6,0.2-1.3,0.3-2.1,0.3c-1.6,0-2.7-0.3-3.4-1c-0.7-0.6-1-1.5-1-2.4C82.7,312.8,82.7,312.7,82.7,312.6z M84.9,306.1
			c0,1.2,0.2,2,0.6,2.6c0.4,0.5,0.9,0.8,1.4,0.8c0.6,0,1.1-0.3,1.6-0.8c0.4-0.6,0.6-1.4,0.6-2.5c0-1.1-0.2-2-0.6-2.5
			c-0.4-0.6-0.9-0.8-1.5-0.8c-0.6,0-1.1,0.3-1.5,0.8C85.1,304.2,84.9,305,84.9,306.1z"/>
		<path d="M104.4,300.8v2.3h-1.7v4.4c0,0.9,0,1.4,0,1.6c0,0.1,0.1,0.3,0.2,0.4c0.1,0.1,0.3,0.1,0.4,0.1c0.2,0,0.6-0.1,1-0.3l0.2,2.3
			c-0.6,0.3-1.2,0.4-2,0.4c-0.5,0-0.9-0.1-1.2-0.3c-0.4-0.2-0.6-0.4-0.8-0.7s-0.3-0.7-0.4-1.1c-0.1-0.3-0.1-1-0.1-2.1v-4.8H99v-2.3
			h1.2v-2.2l2.5-1.7v3.9H104.4z"/>
		<path d="M106,306.2c0-1,0.2-1.9,0.6-2.8c0.4-0.9,1-1.6,1.7-2.1c0.8-0.5,1.6-0.7,2.5-0.7c1.4,0,2.6,0.5,3.5,1.6s1.4,2.4,1.4,4.1
			c0,1.7-0.5,3-1.4,4.1c-0.9,1.1-2.1,1.6-3.5,1.6c-0.9,0-1.7-0.2-2.5-0.7c-0.8-0.5-1.4-1.1-1.8-2C106.2,308.5,106,307.4,106,306.2z
			 M107.9,299.4l1.9-3.1h2.3l1.8,3.1h-2l-1-1.5l-1,1.5H107.9z M108.6,306.3c0,1.1,0.2,1.9,0.7,2.5s1,0.9,1.6,0.9
			c0.7,0,1.2-0.3,1.6-0.9c0.4-0.6,0.7-1.4,0.7-2.5c0-1.1-0.2-1.9-0.7-2.5c-0.4-0.6-1-0.9-1.6-0.9c-0.7,0-1.2,0.3-1.6,0.9
			C108.8,304.4,108.6,305.2,108.6,306.3z"/>
		<path d="M118.2,299.3v-2.7h2.5v2.7H118.2z M118.2,311.8v-11h2.5v11H118.2z"/>
		<path d="M129.2,311.8v-15.2h2.5v8.1l2.9-3.9h3.1l-3.2,4l3.5,7h-2.7l-2.4-4.9l-1.2,1.4v3.5H129.2z"/>
		<path d="M142.4,296.6v5.6c0.8-1.1,1.8-1.6,2.9-1.6c0.6,0,1.1,0.1,1.6,0.4c0.5,0.2,0.8,0.6,1,1c0.2,0.4,0.4,0.8,0.5,1.3
			c0.1,0.5,0.1,1.2,0.1,2.2v6.5H146V306c0-1.2,0-1.9-0.1-2.2c-0.1-0.3-0.3-0.6-0.5-0.7c-0.2-0.2-0.5-0.3-0.9-0.3
			c-0.4,0-0.8,0.1-1.1,0.4s-0.6,0.6-0.7,1.1c-0.2,0.5-0.2,1.2-0.2,2.1v5.5h-2.5v-15.2H142.4z"/>
		<path d="M150.9,306.2c0-1,0.2-1.9,0.6-2.8c0.4-0.9,1-1.6,1.7-2.1c0.8-0.5,1.6-0.7,2.5-0.7c1.4,0,2.6,0.5,3.5,1.6s1.4,2.4,1.4,4.1
			c0,1.7-0.5,3-1.4,4.1c-0.9,1.1-2.1,1.6-3.5,1.6c-0.9,0-1.7-0.2-2.5-0.7c-0.8-0.5-1.4-1.1-1.8-2
			C151.1,308.5,150.9,307.4,150.9,306.2z M152.8,299.4l1.9-3.1h2.3l1.8,3.1h-2l-1-1.5l-1,1.5H152.8z M153.5,306.3
			c0,1.1,0.2,1.9,0.7,2.5s1,0.9,1.6,0.9c0.7,0,1.2-0.3,1.6-0.9c0.4-0.6,0.7-1.4,0.7-2.5c0-1.1-0.2-1.9-0.7-2.5
			c-0.4-0.6-1-0.9-1.6-0.9c-0.7,0-1.2,0.3-1.6,0.9C153.7,304.4,153.5,305.2,153.5,306.3z"/>
		<path d="M171.7,311.8h-2.5v-5.6c0-1.2-0.1-2-0.2-2.3c-0.1-0.3-0.3-0.6-0.5-0.8s-0.5-0.3-0.9-0.3c-0.4,0-0.8,0.1-1.2,0.4
			c-0.3,0.3-0.6,0.6-0.7,1.1c-0.1,0.5-0.2,1.3-0.2,2.5v5h-2.5v-11h2.3v1.6c0.8-1.2,1.9-1.9,3.1-1.9c0.6,0,1.1,0.1,1.5,0.3
			c0.5,0.2,0.8,0.5,1,0.9c0.2,0.4,0.4,0.8,0.5,1.2c0.1,0.5,0.1,1.1,0.1,2V311.8z"/>
		<path d="M174.5,312.6l2.9,0.4c0,0.4,0.2,0.7,0.3,0.8c0.2,0.2,0.6,0.3,1.1,0.3c0.7,0,1.1-0.1,1.5-0.3c0.2-0.2,0.4-0.4,0.5-0.7
			c0.1-0.2,0.1-0.7,0.1-1.3V310c-0.7,1.2-1.7,1.8-2.8,1.8c-1.3,0-2.3-0.6-3-1.9c-0.6-1-0.9-2.2-0.9-3.7c0-1.8,0.4-3.3,1.1-4.2
			s1.7-1.5,2.8-1.5c1.2,0,2.1,0.6,2.9,1.8v-1.5h2.3v9.9c0,1.3-0.1,2.3-0.3,2.9c-0.2,0.6-0.4,1.1-0.8,1.5s-0.8,0.7-1.3,0.9
			c-0.6,0.2-1.3,0.3-2.1,0.3c-1.6,0-2.7-0.3-3.4-1c-0.7-0.6-1-1.5-1-2.4C174.5,312.8,174.5,312.7,174.5,312.6z M176.8,306.1
			c0,1.2,0.2,2,0.6,2.6c0.4,0.5,0.9,0.8,1.4,0.8c0.6,0,1.1-0.3,1.6-0.8c0.4-0.6,0.6-1.4,0.6-2.5c0-1.1-0.2-2-0.6-2.5
			c-0.4-0.6-0.9-0.8-1.5-0.8c-0.6,0-1.1,0.3-1.5,0.8C176.9,304.2,176.8,305,176.8,306.1z"/>
		<path d="M196.2,300.8v2.3h-1.7v4.4c0,0.9,0,1.4,0,1.6c0,0.1,0.1,0.3,0.2,0.4c0.1,0.1,0.3,0.1,0.4,0.1c0.2,0,0.6-0.1,1-0.3l0.2,2.3
			c-0.6,0.3-1.2,0.4-2,0.4c-0.5,0-0.9-0.1-1.2-0.3c-0.4-0.2-0.6-0.4-0.8-0.7s-0.3-0.7-0.4-1.1c-0.1-0.3-0.1-1-0.1-2.1v-4.8h-1.2
			v-2.3h1.2v-2.2l2.5-1.7v3.9H196.2z"/>
		<path d="M200.9,296.6v5.6c0.8-1.1,1.8-1.6,2.9-1.6c0.6,0,1.1,0.1,1.6,0.4c0.5,0.2,0.8,0.6,1,1c0.2,0.4,0.4,0.8,0.5,1.3
			c0.1,0.5,0.1,1.2,0.1,2.2v6.5h-2.5V306c0-1.2,0-1.9-0.1-2.2c-0.1-0.3-0.3-0.6-0.5-0.7c-0.2-0.2-0.5-0.3-0.9-0.3
			c-0.4,0-0.8,0.1-1.1,0.4s-0.6,0.6-0.7,1.1c-0.2,0.5-0.2,1.2-0.2,2.1v5.5h-2.5v-15.2H200.9z"/>
		<path d="M216.3,311.8v-1.6c-0.3,0.6-0.8,1.1-1.4,1.4c-0.6,0.3-1.2,0.5-1.8,0.5c-0.6,0-1.2-0.2-1.7-0.5c-0.5-0.3-0.9-0.8-1.1-1.4
			c-0.2-0.6-0.3-1.4-0.3-2.4v-7h2.5v5.1c0,1.5,0,2.5,0.1,2.8c0.1,0.3,0.3,0.6,0.5,0.8c0.2,0.2,0.6,0.3,0.9,0.3
			c0.4,0,0.8-0.1,1.2-0.4c0.3-0.3,0.6-0.6,0.7-1s0.2-1.4,0.2-3v-4.6h2.5v11H216.3z"/>
		<path d="M227.1,311.8v-15.2h2.5v5.5c0.8-1,1.7-1.5,2.7-1.5c1.2,0,2.1,0.5,2.9,1.5c0.8,1,1.1,2.4,1.1,4.2c0,1.9-0.4,3.3-1.2,4.3
			s-1.7,1.5-2.8,1.5c-0.5,0-1.1-0.2-1.6-0.5c-0.5-0.3-1-0.8-1.4-1.4v1.6H227.1z M229.6,306.1c0,1.1,0.2,2,0.5,2.5
			c0.4,0.8,1,1.2,1.7,1.2c0.6,0,1-0.3,1.4-0.8c0.4-0.5,0.6-1.4,0.6-2.6c0-1.3-0.2-2.2-0.6-2.7c-0.4-0.6-0.9-0.8-1.5-0.8
			c-0.6,0-1.1,0.3-1.5,0.8C229.8,304.2,229.6,305,229.6,306.1z"/>
		<path d="M240.7,304.2l-2.3-0.5c0.3-1.1,0.7-1.9,1.3-2.4c0.6-0.5,1.6-0.8,2.8-0.8c1.1,0,2,0.2,2.5,0.5s0.9,0.7,1.2,1.2
			c0.2,0.5,0.3,1.3,0.3,2.6l0,3.4c0,1,0,1.7,0.1,2.1s0.2,1,0.5,1.5h-2.5c-0.1-0.2-0.1-0.5-0.2-0.9c0-0.2-0.1-0.3-0.1-0.3
			c-0.4,0.5-0.9,0.8-1.4,1.1s-1,0.4-1.6,0.4c-1,0-1.7-0.3-2.3-0.9c-0.6-0.6-0.8-1.4-0.8-2.3c0-0.6,0.1-1.2,0.4-1.7
			c0.3-0.5,0.6-0.9,1.1-1.1c0.5-0.3,1.1-0.5,2-0.7c1.2-0.3,2-0.5,2.4-0.7v-0.3c0-0.6-0.1-1-0.4-1.2c-0.2-0.2-0.7-0.4-1.3-0.4
			c-0.4,0-0.8,0.1-1,0.3C241,303.3,240.8,303.7,240.7,304.2z M239.6,299.4l1.9-3.1h2.3l1.8,3.1h-2l-1-1.5l-1,1.5H239.6z M244,306.5
			c-0.3,0.1-0.8,0.3-1.5,0.4c-0.7,0.2-1.2,0.3-1.4,0.5c-0.3,0.3-0.5,0.6-0.5,1c0,0.4,0.1,0.8,0.4,1.1c0.3,0.3,0.6,0.4,1,0.4
			c0.5,0,0.9-0.2,1.3-0.5c0.3-0.3,0.5-0.6,0.6-1c0.1-0.2,0.1-0.7,0.1-1.4V306.5z M241.4,295.8l1.2-2.9h2.8l-2.4,2.9H241.4z"/>
		<path d="M253.8,300.8v2.3H252v4.4c0,0.9,0,1.4,0,1.6c0,0.1,0.1,0.3,0.2,0.4c0.1,0.1,0.3,0.1,0.4,0.1c0.2,0,0.6-0.1,1-0.3l0.2,2.3
			c-0.6,0.3-1.2,0.4-2,0.4c-0.5,0-0.9-0.1-1.2-0.3c-0.4-0.2-0.6-0.4-0.8-0.7s-0.3-0.7-0.4-1.1c-0.1-0.3-0.1-1-0.1-2.1v-4.8h-1.2
			v-2.3h1.2v-2.2l2.5-1.7v3.9H253.8z"/>
		<path d="M261.4,311.8v-15.2h2.5v8.1l2.9-3.9h3.1l-3.2,4l3.5,7h-2.7l-2.4-4.9l-1.2,1.4v3.5H261.4z"/>
		<path d="M270.9,300.8h2.7l2.3,7.8l2.2-7.8h2.6l-3.3,10.6l-0.6,1.9c-0.2,0.6-0.4,1.1-0.6,1.5c-0.2,0.3-0.4,0.6-0.7,0.8
			c-0.3,0.2-0.6,0.4-1,0.5c-0.4,0.1-0.8,0.2-1.3,0.2c-0.5,0-1-0.1-1.4-0.2l-0.2-2.3c0.4,0.1,0.7,0.1,1.1,0.1c0.6,0,1-0.2,1.3-0.6
			c0.3-0.4,0.5-0.9,0.6-1.5L270.9,300.8z M277.2,299.5h-1.6l-2.5-3.1h2.8L277.2,299.5z"/>
		<path d="M296.5,304.1l-2.5,0.5c-0.1-0.6-0.3-1-0.6-1.3c-0.3-0.3-0.7-0.4-1.1-0.4c-0.6,0-1.1,0.3-1.5,0.8c-0.4,0.5-0.6,1.3-0.6,2.5
			c0,1.3,0.2,2.2,0.6,2.8c0.4,0.5,0.9,0.8,1.5,0.8c0.5,0,0.9-0.2,1.2-0.5s0.5-0.9,0.6-1.6l2.5,0.5c-0.3,1.3-0.7,2.3-1.5,3
			s-1.7,1-2.9,1c-1.4,0-2.5-0.5-3.3-1.5c-0.8-1-1.2-2.4-1.2-4.2c0-1.8,0.4-3.2,1.2-4.2c0.8-1,1.9-1.5,3.4-1.5c1.2,0,2.1,0.3,2.8,0.9
			C295.7,302,296.2,302.9,296.5,304.1z"/>
		<path d="M301.4,296.6v5.6c0.8-1.1,1.8-1.6,2.9-1.6c0.6,0,1.1,0.1,1.6,0.4c0.5,0.2,0.8,0.6,1,1c0.2,0.4,0.4,0.8,0.5,1.3
			c0.1,0.5,0.1,1.2,0.1,2.2v6.5H305V306c0-1.2,0-1.9-0.1-2.2c-0.1-0.3-0.3-0.6-0.5-0.7c-0.2-0.2-0.5-0.3-0.9-0.3
			c-0.4,0-0.8,0.1-1.1,0.4s-0.6,0.6-0.7,1.1c-0.2,0.5-0.2,1.2-0.2,2.1v5.5h-2.5v-15.2H301.4z"/>
		<path d="M310.5,299.3v-2.7h2.5v2.7H310.5z M310.5,311.8v-11h2.5v11H310.5z"/>
		<path d="M321.5,300.8h2.3v1.6c0.3-0.6,0.7-1,1.2-1.3c0.5-0.3,1.1-0.5,1.7-0.5c1.1,0,2,0.5,2.8,1.5c0.8,1,1.2,2.4,1.2,4.2
			c0,1.8-0.4,3.3-1.2,4.3c-0.8,1-1.7,1.5-2.8,1.5c-0.5,0-1-0.1-1.4-0.4s-0.9-0.7-1.3-1.2v5.5h-2.5V300.8z M323.9,306.1
			c0,1.2,0.2,2.2,0.6,2.7c0.4,0.6,0.9,0.9,1.5,0.9c0.6,0,1.1-0.3,1.5-0.8c0.4-0.5,0.6-1.4,0.6-2.7c0-1.2-0.2-2-0.6-2.6
			c-0.4-0.6-0.9-0.8-1.5-0.8c-0.6,0-1.1,0.3-1.5,0.8C324.1,304.2,323.9,305.1,323.9,306.1z"/>
		<path d="M335.7,296.6v5.6c0.8-1.1,1.8-1.6,2.9-1.6c0.6,0,1.1,0.1,1.6,0.4c0.5,0.2,0.8,0.6,1,1c0.2,0.4,0.4,0.8,0.5,1.3
			c0.1,0.5,0.1,1.2,0.1,2.2v6.5h-2.5V306c0-1.2,0-1.9-0.1-2.2c-0.1-0.3-0.3-0.6-0.5-0.7c-0.2-0.2-0.5-0.3-0.9-0.3
			c-0.4,0-0.8,0.1-1.1,0.4s-0.6,0.6-0.7,1.1c-0.2,0.5-0.2,1.2-0.2,2.1v5.5h-2.5v-15.2H335.7z"/>
		<path d="M344.6,299.5l1.2-3.1h2.8l-2.5,3.1H344.6z M344.8,311.8v-11h2.5v11H344.8z"/>
		<path d="M362,316v-5.5c-0.3,0.5-0.7,0.9-1.2,1.2c-0.5,0.3-1,0.4-1.6,0.4c-1.1,0-2-0.5-2.7-1.4c-0.8-1.1-1.2-2.6-1.2-4.5
			c0-1.8,0.4-3.2,1.2-4.1c0.8-1,1.7-1.5,2.9-1.5c0.6,0,1.2,0.2,1.6,0.5c0.5,0.3,0.9,0.8,1.2,1.4v-1.6h2.3V316H362z M362.1,306.2
			c0-1.1-0.2-2-0.6-2.5c-0.4-0.5-0.9-0.8-1.5-0.8c-0.6,0-1.1,0.3-1.5,0.8s-0.6,1.4-0.6,2.7c0,1.2,0.2,2.1,0.6,2.6
			c0.4,0.5,0.9,0.8,1.5,0.8s1.1-0.3,1.5-0.9C361.9,308.3,362.1,307.4,362.1,306.2z"/>
		<path d="M373.7,311.8v-1.6c-0.3,0.6-0.8,1.1-1.4,1.4c-0.6,0.3-1.2,0.5-1.8,0.5c-0.6,0-1.2-0.2-1.7-0.5c-0.5-0.3-0.9-0.8-1.1-1.4
			c-0.2-0.6-0.3-1.4-0.3-2.4v-7h2.5v5.1c0,1.5,0,2.5,0.1,2.8c0.1,0.3,0.3,0.6,0.5,0.8c0.2,0.2,0.6,0.3,0.9,0.3
			c0.4,0,0.8-0.1,1.2-0.4c0.3-0.3,0.6-0.6,0.7-1s0.2-1.4,0.2-3v-4.6h2.5v11H373.7z"/>
		<path d="M380.9,304.2l-2.3-0.5c0.3-1.1,0.7-1.9,1.3-2.4c0.6-0.5,1.6-0.8,2.8-0.8c1.1,0,2,0.2,2.5,0.5s0.9,0.7,1.2,1.2
			c0.2,0.5,0.3,1.3,0.3,2.6l0,3.4c0,1,0,1.7,0.1,2.1s0.2,1,0.5,1.5h-2.5c-0.1-0.2-0.1-0.5-0.2-0.9c0-0.2-0.1-0.3-0.1-0.3
			c-0.4,0.5-0.9,0.8-1.4,1.1s-1,0.4-1.6,0.4c-1,0-1.7-0.3-2.3-0.9c-0.6-0.6-0.8-1.4-0.8-2.3c0-0.6,0.1-1.2,0.4-1.7
			c0.3-0.5,0.6-0.9,1.1-1.1c0.5-0.3,1.1-0.5,2-0.7c1.2-0.3,2-0.5,2.4-0.7v-0.3c0-0.6-0.1-1-0.4-1.2c-0.2-0.2-0.7-0.4-1.3-0.4
			c-0.4,0-0.8,0.1-1,0.3C381.3,303.3,381.1,303.7,380.9,304.2z M384.3,306.5c-0.3,0.1-0.8,0.3-1.5,0.4c-0.7,0.2-1.2,0.3-1.4,0.5
			c-0.3,0.3-0.5,0.6-0.5,1c0,0.4,0.1,0.8,0.4,1.1c0.3,0.3,0.6,0.4,1,0.4c0.5,0,0.9-0.2,1.3-0.5c0.3-0.3,0.5-0.6,0.6-1
			c0.1-0.2,0.1-0.7,0.1-1.4V306.5z M382.9,298.2c0.3-0.1,0.5-0.2,0.5-0.5c0-0.2-0.1-0.3-0.3-0.4c-0.2-0.2-0.6-0.2-1.2-0.2
			c-0.2,0-0.5,0-0.8,0l-0.1-1.1c0.2-0.1,0.7-0.1,1.3-0.1c0.7,0,1.3,0.1,1.8,0.4c0.5,0.3,0.8,0.7,0.8,1.2c0,0.7-0.5,1.2-1.6,1.3v0.5
			h-1v-1.1C382.6,298.3,382.8,298.2,382.9,298.2z"/>
		<path d="M398.3,311.8h-2.5v-5.6c0-1.2-0.1-2-0.2-2.3c-0.1-0.3-0.3-0.6-0.5-0.8s-0.5-0.3-0.9-0.3c-0.4,0-0.8,0.1-1.2,0.4
			c-0.3,0.3-0.6,0.6-0.7,1.1c-0.1,0.5-0.2,1.3-0.2,2.5v5h-2.5v-11h2.3v1.6c0.8-1.2,1.9-1.9,3.1-1.9c0.6,0,1.1,0.1,1.5,0.3
			c0.5,0.2,0.8,0.5,1,0.9c0.2,0.4,0.4,0.8,0.5,1.2c0.1,0.5,0.1,1.1,0.1,2V311.8z"/>
		<path d="M401.1,312.6l2.9,0.4c0,0.4,0.2,0.7,0.3,0.8c0.2,0.2,0.6,0.3,1.1,0.3c0.7,0,1.1-0.1,1.5-0.3c0.2-0.2,0.4-0.4,0.5-0.7
			c0.1-0.2,0.1-0.7,0.1-1.3V310c-0.7,1.2-1.7,1.8-2.8,1.8c-1.3,0-2.3-0.6-3-1.9c-0.6-1-0.9-2.2-0.9-3.7c0-1.8,0.4-3.3,1.1-4.2
			s1.7-1.5,2.8-1.5c1.2,0,2.1,0.6,2.9,1.8v-1.5h2.3v9.9c0,1.3-0.1,2.3-0.3,2.9c-0.2,0.6-0.4,1.1-0.8,1.5s-0.8,0.7-1.3,0.9
			c-0.6,0.2-1.3,0.3-2.1,0.3c-1.6,0-2.7-0.3-3.4-1c-0.7-0.6-1-1.5-1-2.4C401,312.8,401,312.7,401.1,312.6z M403.3,306.1
			c0,1.2,0.2,2,0.6,2.6c0.4,0.5,0.9,0.8,1.4,0.8c0.6,0,1.1-0.3,1.6-0.8c0.4-0.6,0.6-1.4,0.6-2.5c0-1.1-0.2-2-0.6-2.5
			c-0.4-0.6-0.9-0.8-1.5-0.8c-0.6,0-1.1,0.3-1.5,0.8C403.5,304.2,403.3,305,403.3,306.1z"/>
		<path d="M426.7,304.1l-2.5,0.5c-0.1-0.6-0.3-1-0.6-1.3c-0.3-0.3-0.7-0.4-1.1-0.4c-0.6,0-1.1,0.3-1.5,0.8c-0.4,0.5-0.6,1.3-0.6,2.5
			c0,1.3,0.2,2.2,0.6,2.8c0.4,0.5,0.9,0.8,1.5,0.8c0.5,0,0.9-0.2,1.2-0.5s0.5-0.9,0.6-1.6l2.5,0.5c-0.3,1.3-0.7,2.3-1.5,3
			s-1.7,1-2.9,1c-1.4,0-2.5-0.5-3.3-1.5c-0.8-1-1.2-2.4-1.2-4.2c0-1.8,0.4-3.2,1.2-4.2c0.8-1,1.9-1.5,3.4-1.5c1.2,0,2.1,0.3,2.8,0.9
			C425.9,302,426.4,302.9,426.7,304.1z"/>
		<path d="M430.9,304.2l-2.3-0.5c0.3-1.1,0.7-1.9,1.3-2.4c0.6-0.5,1.6-0.8,2.8-0.8c1.1,0,2,0.2,2.5,0.5s0.9,0.7,1.2,1.2
			c0.2,0.5,0.3,1.3,0.3,2.6l0,3.4c0,1,0,1.7,0.1,2.1s0.2,1,0.5,1.5h-2.5c-0.1-0.2-0.1-0.5-0.2-0.9c0-0.2-0.1-0.3-0.1-0.3
			c-0.4,0.5-0.9,0.8-1.4,1.1s-1,0.4-1.6,0.4c-1,0-1.7-0.3-2.3-0.9c-0.6-0.6-0.8-1.4-0.8-2.3c0-0.6,0.1-1.2,0.4-1.7
			c0.3-0.5,0.6-0.9,1.1-1.1c0.5-0.3,1.1-0.5,2-0.7c1.2-0.3,2-0.5,2.4-0.7v-0.3c0-0.6-0.1-1-0.4-1.2c-0.2-0.2-0.7-0.4-1.3-0.4
			c-0.4,0-0.8,0.1-1,0.3C431.3,303.3,431.1,303.7,430.9,304.2z M434.3,306.5c-0.3,0.1-0.8,0.3-1.5,0.4c-0.7,0.2-1.2,0.3-1.4,0.5
			c-0.3,0.3-0.5,0.6-0.5,1c0,0.4,0.1,0.8,0.4,1.1c0.3,0.3,0.6,0.4,1,0.4c0.5,0,0.9-0.2,1.3-0.5c0.3-0.3,0.5-0.6,0.6-1
			c0.1-0.2,0.1-0.7,0.1-1.4V306.5z M431.6,299.5l1.2-3.1h2.8l-2.5,3.1H431.6z"/>
		<path d="M439.1,306.2c0-1,0.2-1.9,0.6-2.8c0.4-0.9,1-1.6,1.7-2.1c0.8-0.5,1.6-0.7,2.5-0.7c1.4,0,2.6,0.5,3.5,1.6s1.4,2.4,1.4,4.1
			c0,1.7-0.5,3-1.4,4.1c-0.9,1.1-2.1,1.6-3.5,1.6c-0.9,0-1.7-0.2-2.5-0.7c-0.8-0.5-1.4-1.1-1.8-2
			C439.3,308.5,439.1,307.4,439.1,306.2z M441.6,306.3c0,1.1,0.2,1.9,0.7,2.5s1,0.9,1.6,0.9c0.7,0,1.2-0.3,1.6-0.9
			c0.4-0.6,0.7-1.4,0.7-2.5c0-1.1-0.2-1.9-0.7-2.5c-0.4-0.6-1-0.9-1.6-0.9c-0.7,0-1.2,0.3-1.6,0.9
			C441.9,304.4,441.6,305.2,441.6,306.3z"/>
		<path d="M465.4,311.8h-2.5v-5.6c0-1.2-0.1-2-0.2-2.3c-0.1-0.3-0.3-0.6-0.5-0.8s-0.5-0.3-0.9-0.3c-0.4,0-0.8,0.1-1.2,0.4
			c-0.3,0.3-0.6,0.6-0.7,1.1c-0.1,0.5-0.2,1.3-0.2,2.5v5h-2.5v-11h2.3v1.6c0.8-1.2,1.9-1.9,3.1-1.9c0.6,0,1.1,0.1,1.5,0.3
			c0.5,0.2,0.8,0.5,1,0.9c0.2,0.4,0.4,0.8,0.5,1.2c0.1,0.5,0.1,1.1,0.1,2V311.8z"/>
		<path d="M470.3,304.2l-2.3-0.5c0.3-1.1,0.7-1.9,1.3-2.4c0.6-0.5,1.6-0.8,2.8-0.8c1.1,0,2,0.2,2.5,0.5s0.9,0.7,1.2,1.2
			c0.2,0.5,0.3,1.3,0.3,2.6l0,3.4c0,1,0,1.7,0.1,2.1s0.2,1,0.5,1.5h-2.5c-0.1-0.2-0.1-0.5-0.2-0.9c0-0.2-0.1-0.3-0.1-0.3
			c-0.4,0.5-0.9,0.8-1.4,1.1s-1,0.4-1.6,0.4c-1,0-1.7-0.3-2.3-0.9c-0.6-0.6-0.8-1.4-0.8-2.3c0-0.6,0.1-1.2,0.4-1.7
			c0.3-0.5,0.6-0.9,1.1-1.1c0.5-0.3,1.1-0.5,2-0.7c1.2-0.3,2-0.5,2.4-0.7v-0.3c0-0.6-0.1-1-0.4-1.2c-0.2-0.2-0.7-0.4-1.3-0.4
			c-0.4,0-0.8,0.1-1,0.3C470.6,303.3,470.4,303.7,470.3,304.2z M473.5,299.5h-1.6l-2.5-3.1h2.8L473.5,299.5z M473.6,306.5
			c-0.3,0.1-0.8,0.3-1.5,0.4c-0.7,0.2-1.2,0.3-1.4,0.5c-0.3,0.3-0.5,0.6-0.5,1c0,0.4,0.1,0.8,0.4,1.1c0.3,0.3,0.6,0.4,1,0.4
			c0.5,0,0.9-0.2,1.3-0.5c0.3-0.3,0.5-0.6,0.6-1c0.1-0.2,0.1-0.7,0.1-1.4V306.5z"/>
		<path d="M478.5,306.2c0-1,0.2-1.9,0.6-2.8c0.4-0.9,1-1.6,1.7-2.1c0.8-0.5,1.6-0.7,2.5-0.7c1.4,0,2.6,0.5,3.5,1.6s1.4,2.4,1.4,4.1
			c0,1.7-0.5,3-1.4,4.1c-0.9,1.1-2.1,1.6-3.5,1.6c-0.9,0-1.7-0.2-2.5-0.7c-0.8-0.5-1.4-1.1-1.8-2
			C478.7,308.5,478.5,307.4,478.5,306.2z M481,306.3c0,1.1,0.2,1.9,0.7,2.5s1,0.9,1.6,0.9c0.7,0,1.2-0.3,1.6-0.9
			c0.4-0.6,0.7-1.4,0.7-2.5c0-1.1-0.2-1.9-0.7-2.5c-0.4-0.6-1-0.9-1.6-0.9c-0.7,0-1.2,0.3-1.6,0.9C481.2,304.4,481,305.2,481,306.3z
			"/>
		<path d="M490.6,311.8v-2.9h2.5v2.9H490.6z"/>
		<path d="M33.1,339.6l4.5-7.9l-4-7.3h3.1l2.6,4.9l2.6-4.9h3.1l-4.1,7.4l4.5,7.8h-3.2l-2.9-5.3l-2.9,5.3H33.1z"/>
		<path d="M47.1,327.1v-2.7h2.5v2.7H47.1z M47.1,339.6v-11h2.5v11H47.1z"/>
		<path d="M61.2,339.6h-2.5V334c0-1.2-0.1-2-0.2-2.3c-0.1-0.3-0.3-0.6-0.5-0.8s-0.5-0.3-0.9-0.3c-0.4,0-0.8,0.1-1.2,0.4
			c-0.3,0.3-0.6,0.6-0.7,1.1c-0.1,0.5-0.2,1.3-0.2,2.5v5h-2.5v-11h2.3v1.6c0.8-1.2,1.9-1.9,3.1-1.9c0.6,0,1.1,0.1,1.5,0.3
			c0.5,0.2,0.8,0.5,1,0.9c0.2,0.4,0.4,0.8,0.5,1.2c0.1,0.5,0.1,1.1,0.1,2V339.6z"/>
		<path d="M69.8,339.6v-15.2h2.5v15.2H69.8z"/>
		<path d="M75.3,327.1v-2.7h2.5v2.7H75.3z M75.3,339.6v-11h2.5v11H75.3z"/>
		<path d="M86.3,336.1l2.5,0.5c-0.3,1.1-0.8,1.9-1.5,2.4c-0.7,0.6-1.6,0.8-2.6,0.8c-1.6,0-2.9-0.6-3.7-1.9c-0.6-1-0.9-2.3-0.9-3.8
			c0-1.8,0.4-3.3,1.2-4.3c0.8-1,1.9-1.5,3.1-1.5c1.4,0,2.5,0.5,3.3,1.6s1.2,2.7,1.2,5h-6.3c0,0.9,0.2,1.5,0.6,2
			c0.4,0.5,0.9,0.7,1.4,0.7c0.4,0,0.7-0.1,1-0.4C86,337,86.2,336.6,86.3,336.1z M81.5,327.2l1.9-3.1h2.3l1.8,3.1h-2l-1-1.5l-1,1.5
			H81.5z M86.5,333.1c0-0.8-0.2-1.5-0.6-1.9c-0.4-0.4-0.8-0.7-1.3-0.7c-0.5,0-1,0.2-1.4,0.7c-0.4,0.5-0.5,1.1-0.5,1.9H86.5z"/>
		<path d="M100.1,339.6h-2.5V334c0-1.2-0.1-2-0.2-2.3c-0.1-0.3-0.3-0.6-0.5-0.8s-0.5-0.3-0.9-0.3c-0.4,0-0.8,0.1-1.2,0.4
			c-0.3,0.3-0.6,0.6-0.7,1.1c-0.1,0.5-0.2,1.3-0.2,2.5v5h-2.5v-11h2.3v1.6c0.8-1.2,1.9-1.9,3.1-1.9c0.6,0,1.1,0.1,1.5,0.3
			c0.5,0.2,0.8,0.5,1,0.9c0.2,0.4,0.4,0.8,0.5,1.2c0.1,0.5,0.1,1.1,0.1,2V339.6z"/>
		<path d="M111.1,324.4v5.6c0.8-1.1,1.8-1.6,2.9-1.6c0.6,0,1.1,0.1,1.6,0.4c0.5,0.2,0.8,0.6,1,1c0.2,0.4,0.4,0.8,0.5,1.3
			c0.1,0.5,0.1,1.2,0.1,2.2v6.5h-2.5v-5.8c0-1.2,0-1.9-0.1-2.2c-0.1-0.3-0.3-0.6-0.5-0.7c-0.2-0.2-0.5-0.3-0.9-0.3
			c-0.4,0-0.8,0.1-1.1,0.4s-0.6,0.6-0.7,1.1c-0.2,0.5-0.2,1.2-0.2,2.1v5.5h-2.5v-15.2H111.1z"/>
		<path d="M125.7,336.1l2.5,0.5c-0.3,1.1-0.8,1.9-1.5,2.4c-0.7,0.6-1.6,0.8-2.6,0.8c-1.6,0-2.9-0.6-3.7-1.9c-0.6-1-0.9-2.3-0.9-3.8
			c0-1.8,0.4-3.3,1.2-4.3c0.8-1,1.9-1.5,3.1-1.5c1.4,0,2.5,0.5,3.3,1.6s1.2,2.7,1.2,5H122c0,0.9,0.2,1.5,0.6,2
			c0.4,0.5,0.9,0.7,1.4,0.7c0.4,0,0.7-0.1,1-0.4C125.3,337,125.5,336.6,125.7,336.1z M120.9,327.2l1.9-3.1h2.3l1.8,3.1h-2l-1-1.5
			l-1,1.5H120.9z M125.8,333.1c0-0.8-0.2-1.5-0.6-1.9c-0.4-0.4-0.8-0.7-1.3-0.7c-0.5,0-1,0.2-1.4,0.7c-0.4,0.5-0.5,1.1-0.5,1.9
			H125.8z M122.7,343.8v-2.9h2.5v2.9H122.7z"/>
		<path d="M138.9,339.6l-3.8-11h2.6l1.8,5.6l0.5,1.9c0.1-0.5,0.2-0.8,0.3-0.9c0.1-0.3,0.2-0.6,0.3-0.9l1.8-5.6h2.6l-3.8,11H138.9z"
			/>
		<path d="M156.1,328.6h2.5v2.1c0,0.9-0.1,1.5-0.2,2c-0.1,0.5-0.4,0.9-0.7,1.3c-0.4,0.5-0.9,0.8-1.6,1.1c-0.1,1.2-0.6,2.3-1.3,3.2
			c-0.9,1.1-2.1,1.6-3.5,1.6c-0.9,0-1.7-0.2-2.5-0.7c-0.8-0.5-1.4-1.2-1.8-2s-0.6-1.9-0.6-3.2c0-1,0.2-1.9,0.6-2.8
			c0.4-0.9,1-1.6,1.8-2.1c0.7-0.5,1.6-0.7,2.5-0.7c1.4,0,2.6,0.5,3.5,1.6c0.8,1,1.3,2.2,1.4,3.6c0.8-0.4,1.2-1.1,1.2-2.1h-1.2V328.6
			z M148.9,334.1c0,1.1,0.2,1.9,0.7,2.5c0.4,0.6,1,0.9,1.6,0.9s1.2-0.3,1.6-0.9c0.4-0.6,0.7-1.5,0.7-2.5c0-1.1-0.2-1.9-0.7-2.5
			c-0.4-0.6-1-0.9-1.6-0.9s-1.2,0.3-1.6,0.9C149.2,332.2,148.9,333,148.9,334.1z M150,327.2l1.2-3.1h2.8l-2.5,3.1H150z"/>
		<path d="M160.4,327.1v-2.7h2.5v2.7H160.4z M160.4,339.6v-11h2.5v11H160.4z"/>
		<path d="M179.7,331.8l-2.5,0.5c-0.1-0.6-0.3-1-0.6-1.3c-0.3-0.3-0.7-0.4-1.1-0.4c-0.6,0-1.1,0.3-1.5,0.8c-0.4,0.5-0.6,1.3-0.6,2.5
			c0,1.3,0.2,2.2,0.6,2.8c0.4,0.5,0.9,0.8,1.5,0.8c0.5,0,0.9-0.2,1.2-0.5s0.5-0.9,0.6-1.6l2.5,0.5c-0.3,1.3-0.7,2.3-1.5,3
			s-1.7,1-2.9,1c-1.4,0-2.5-0.5-3.3-1.5c-0.8-1-1.2-2.4-1.2-4.2c0-1.8,0.4-3.2,1.2-4.2c0.8-1,1.9-1.5,3.4-1.5c1.2,0,2.1,0.3,2.8,0.9
			C178.9,329.8,179.4,330.7,179.7,331.8z"/>
		<path d="M184.6,324.4v5.6c0.8-1.1,1.8-1.6,2.9-1.6c0.6,0,1.1,0.1,1.6,0.4c0.5,0.2,0.8,0.6,1,1c0.2,0.4,0.4,0.8,0.5,1.3
			c0.1,0.5,0.1,1.2,0.1,2.2v6.5h-2.5v-5.8c0-1.2,0-1.9-0.1-2.2c-0.1-0.3-0.3-0.6-0.5-0.7c-0.2-0.2-0.5-0.3-0.9-0.3
			c-0.4,0-0.8,0.1-1.1,0.4s-0.6,0.6-0.7,1.1c-0.2,0.5-0.2,1.2-0.2,2.1v5.5h-2.5v-15.2H184.6z"/>
		<path d="M199.9,339.6V338c-0.3,0.6-0.8,1.1-1.4,1.4c-0.6,0.3-1.2,0.5-1.8,0.5c-0.6,0-1.2-0.2-1.7-0.5c-0.5-0.3-0.9-0.8-1.1-1.4
			c-0.2-0.6-0.3-1.4-0.3-2.4v-7h2.5v5.1c0,1.5,0,2.5,0.1,2.8c0.1,0.3,0.3,0.6,0.5,0.8c0.2,0.2,0.6,0.3,0.9,0.3
			c0.4,0,0.8-0.1,1.2-0.4c0.3-0.3,0.6-0.6,0.7-1s0.2-1.4,0.2-3v-4.6h2.5v11H199.9z M196.7,327.2l1.2-3.1h2.8l-2.5,3.1H196.7z"/>
		<path d="M213.9,339.6h-2.5V334c0-1.2-0.1-2-0.2-2.3c-0.1-0.3-0.3-0.6-0.5-0.8s-0.5-0.3-0.9-0.3c-0.4,0-0.8,0.1-1.2,0.4
			c-0.3,0.3-0.6,0.6-0.7,1.1c-0.1,0.5-0.2,1.3-0.2,2.5v5h-2.5v-11h2.3v1.6c0.8-1.2,1.9-1.9,3.1-1.9c0.6,0,1.1,0.1,1.5,0.3
			c0.5,0.2,0.8,0.5,1,0.9c0.2,0.4,0.4,0.8,0.5,1.2c0.1,0.5,0.1,1.1,0.1,2V339.6z"/>
		<path d="M216.7,340.3l2.9,0.4c0,0.4,0.2,0.7,0.3,0.8c0.2,0.2,0.6,0.3,1.1,0.3c0.7,0,1.1-0.1,1.5-0.3c0.2-0.2,0.4-0.4,0.5-0.7
			c0.1-0.2,0.1-0.7,0.1-1.3v-1.6c-0.7,1.2-1.7,1.8-2.8,1.8c-1.3,0-2.3-0.6-3-1.9c-0.6-1-0.9-2.2-0.9-3.7c0-1.8,0.4-3.3,1.1-4.2
			s1.7-1.5,2.8-1.5c1.2,0,2.1,0.6,2.9,1.8v-1.5h2.3v9.9c0,1.3-0.1,2.3-0.3,2.9c-0.2,0.6-0.4,1.1-0.8,1.5s-0.8,0.7-1.3,0.9
			c-0.6,0.2-1.3,0.3-2.1,0.3c-1.6,0-2.7-0.3-3.4-1c-0.7-0.6-1-1.5-1-2.4C216.7,340.6,216.7,340.5,216.7,340.3z M218.9,333.9
			c0,1.2,0.2,2,0.6,2.6c0.4,0.5,0.9,0.8,1.4,0.8c0.6,0,1.1-0.3,1.6-0.8c0.4-0.6,0.6-1.4,0.6-2.5c0-1.1-0.2-2-0.6-2.5
			c-0.4-0.6-0.9-0.8-1.5-0.8c-0.6,0-1.1,0.3-1.5,0.8C219.1,331.9,218.9,332.8,218.9,333.9z"/>
		<path d="M238.4,328.6v2.3h-1.7v4.4c0,0.9,0,1.4,0,1.6c0,0.1,0.1,0.3,0.2,0.4c0.1,0.1,0.3,0.1,0.4,0.1c0.2,0,0.6-0.1,1-0.3l0.2,2.3
			c-0.6,0.3-1.2,0.4-2,0.4c-0.5,0-0.9-0.1-1.2-0.3c-0.4-0.2-0.6-0.4-0.8-0.7s-0.3-0.7-0.4-1.1c-0.1-0.3-0.1-1-0.1-2.1v-4.8H233v-2.3
			h1.2v-2.2l2.5-1.7v3.9H238.4z"/>
		<path d="M240,333.9c0-1,0.2-1.9,0.6-2.8c0.4-0.9,1-1.6,1.7-2.1c0.8-0.5,1.6-0.7,2.5-0.7c1.4,0,2.6,0.5,3.5,1.6s1.4,2.4,1.4,4.1
			c0,1.7-0.5,3-1.4,4.1c-0.9,1.1-2.1,1.6-3.5,1.6c-0.9,0-1.7-0.2-2.5-0.7c-0.8-0.5-1.4-1.1-1.8-2C240.2,336.3,240,335.2,240,333.9z
			 M241.9,327.2l1.9-3.1h2.3l1.8,3.1h-2l-1-1.5l-1,1.5H241.9z M242.6,334.1c0,1.1,0.2,1.9,0.7,2.5s1,0.9,1.6,0.9
			c0.7,0,1.2-0.3,1.6-0.9c0.4-0.6,0.7-1.4,0.7-2.5c0-1.1-0.2-1.9-0.7-2.5c-0.4-0.6-1-0.9-1.6-0.9c-0.7,0-1.2,0.3-1.6,0.9
			C242.8,332.2,242.6,333,242.6,334.1z"/>
		<path d="M252.2,327.1v-2.7h2.5v2.7H252.2z M252.2,339.6v-11h2.5v11H252.2z"/>
		<path d="M262.4,336.5l2.5-0.4c0.1,0.6,0.3,1,0.7,1.3c0.3,0.3,0.8,0.4,1.4,0.4c0.6,0,1.1-0.1,1.5-0.4c0.2-0.2,0.3-0.5,0.3-0.8
			c0-0.2-0.1-0.4-0.2-0.5c-0.1-0.1-0.4-0.3-0.8-0.4c-2-0.5-3.3-1-3.8-1.4c-0.7-0.6-1.1-1.4-1.1-2.5c0-1,0.3-1.8,1-2.4s1.7-1,3-1
			c1.3,0,2.3,0.2,2.9,0.7c0.6,0.5,1.1,1.2,1.3,2.2l-2.4,0.5c-0.1-0.4-0.3-0.8-0.6-1c-0.3-0.2-0.7-0.3-1.2-0.3
			c-0.7,0-1.1,0.1-1.4,0.3c-0.2,0.2-0.3,0.3-0.3,0.6c0,0.2,0.1,0.4,0.3,0.5c0.2,0.2,1,0.5,2.3,0.8s2.3,0.8,2.8,1.3
			c0.5,0.5,0.8,1.2,0.8,2.2c0,1-0.4,1.9-1.1,2.6s-1.8,1.1-3.2,1.1c-1.3,0-2.3-0.3-3.1-0.9C263.1,338.3,262.6,337.5,262.4,336.5z"/>
		<path d="M283.1,328.6h2.5v2.1c0,0.9-0.1,1.5-0.2,2c-0.1,0.5-0.4,0.9-0.7,1.3c-0.4,0.5-0.9,0.8-1.6,1.1c-0.1,1.2-0.6,2.3-1.3,3.2
			c-0.9,1.1-2.1,1.6-3.5,1.6c-0.9,0-1.7-0.2-2.5-0.7c-0.8-0.5-1.4-1.2-1.8-2s-0.6-1.9-0.6-3.2c0-1,0.2-1.9,0.6-2.8
			c0.4-0.9,1-1.6,1.8-2.1c0.7-0.5,1.6-0.7,2.5-0.7c1.4,0,2.6,0.5,3.5,1.6c0.8,1,1.3,2.2,1.4,3.6c0.8-0.4,1.2-1.1,1.2-2.1h-1.2V328.6
			z M275.9,334.1c0,1.1,0.2,1.9,0.7,2.5c0.4,0.6,1,0.9,1.6,0.9s1.2-0.3,1.6-0.9c0.4-0.6,0.7-1.5,0.7-2.5c0-1.1-0.2-1.9-0.7-2.5
			c-0.4-0.6-1-0.9-1.6-0.9s-1.2,0.3-1.6,0.9C276.1,332.2,275.9,333,275.9,334.1z M276.9,327.2l1.2-3.1h2.8l-2.5,3.1H276.9z"/>
		<path d="M287.1,328.6h2.3v1.5c0.8-1.2,1.8-1.8,3-1.8c0.6,0,1.1,0.1,1.6,0.4c0.4,0.3,0.8,0.7,1.1,1.3c0.4-0.6,0.9-1,1.3-1.3
			c0.5-0.3,1-0.4,1.5-0.4c0.7,0,1.3,0.2,1.8,0.5c0.5,0.3,0.8,0.8,1.1,1.4c0.2,0.5,0.3,1.2,0.3,2.3v7h-2.5v-6.3
			c0-1.1-0.1-1.8-0.3-2.1c-0.2-0.4-0.6-0.6-1.1-0.6c-0.4,0-0.7,0.1-1,0.4c-0.3,0.2-0.5,0.6-0.7,1.1c-0.1,0.5-0.2,1.2-0.2,2.3v5.3
			h-2.5v-6c0-1.1,0-1.8-0.1-2.1c-0.1-0.3-0.2-0.5-0.4-0.7c-0.2-0.2-0.4-0.2-0.8-0.2c-0.4,0-0.7,0.1-1,0.4c-0.3,0.2-0.5,0.6-0.7,1
			s-0.2,1.2-0.2,2.3v5.4h-2.5V328.6z"/>
		<path d="M315.7,327.4H313v-1.9h2.7v-1.1h2.5v1.1h1v1.9h-1v12.2h-2.3V338c-0.4,0.6-0.8,1.1-1.4,1.4s-1.1,0.5-1.6,0.5
			c-1.1,0-2-0.5-2.8-1.5c-0.8-1-1.2-2.4-1.2-4.3c0-1.9,0.4-3.3,1.1-4.3c0.8-1,1.7-1.5,2.9-1.5c1.1,0,2,0.5,2.7,1.5V327.4z
			 M311.6,333.9c0,1.2,0.1,2,0.4,2.6c0.4,0.8,1,1.1,1.7,1.1c0.6,0,1.1-0.3,1.5-0.9c0.4-0.6,0.6-1.4,0.6-2.6c0-1.3-0.2-2.2-0.6-2.7
			c-0.4-0.6-0.9-0.8-1.5-0.8c-0.6,0-1.1,0.3-1.5,0.8S311.6,332.8,311.6,333.9z"/>
		<path d="M326.7,336.1l2.5,0.5c-0.3,1.1-0.8,1.9-1.5,2.4c-0.7,0.6-1.6,0.8-2.6,0.8c-1.6,0-2.9-0.6-3.7-1.9c-0.6-1-0.9-2.3-0.9-3.8
			c0-1.8,0.4-3.3,1.2-4.3c0.8-1,1.9-1.5,3.1-1.5c1.4,0,2.5,0.5,3.3,1.6s1.2,2.7,1.2,5H323c0,0.9,0.2,1.5,0.6,2
			c0.4,0.5,0.9,0.7,1.4,0.7c0.4,0,0.7-0.1,1-0.4C326.3,337,326.5,336.6,326.7,336.1z M321.9,327.2l1.9-3.1h2.3l1.8,3.1h-2l-1-1.5
			l-1,1.5H321.9z M326.8,333.1c0-0.8-0.2-1.5-0.6-1.9c-0.4-0.4-0.8-0.7-1.3-0.7c-0.5,0-1,0.2-1.4,0.7c-0.4,0.5-0.5,1.1-0.5,1.9
			H326.8z M325,322.6c0.3-0.1,0.5-0.2,0.5-0.5c0-0.2-0.1-0.3-0.3-0.4c-0.2-0.2-0.6-0.2-1.2-0.2c-0.2,0-0.5,0-0.8,0l-0.1-1.1
			c0.2-0.1,0.7-0.1,1.3-0.1c0.7,0,1.3,0.1,1.8,0.4c0.5,0.3,0.8,0.7,0.8,1.2c0,0.7-0.5,1.2-1.6,1.3v0.5h-1v-1.1
			C324.7,322.7,324.9,322.6,325,322.6z"/>
		<path d="M345.9,339.6h-2.5V334c0-1.2-0.1-2-0.2-2.3c-0.1-0.3-0.3-0.6-0.5-0.8s-0.5-0.3-0.9-0.3c-0.4,0-0.8,0.1-1.2,0.4
			c-0.3,0.3-0.6,0.6-0.7,1.1c-0.1,0.5-0.2,1.3-0.2,2.5v5h-2.5v-11h2.3v1.6c0.8-1.2,1.9-1.9,3.1-1.9c0.6,0,1.1,0.1,1.5,0.3
			c0.5,0.2,0.8,0.5,1,0.9c0.2,0.4,0.4,0.8,0.5,1.2c0.1,0.5,0.1,1.1,0.1,2V339.6z"/>
		<path d="M351.4,324.4v5.6c0.8-1.1,1.8-1.6,2.9-1.6c0.6,0,1.1,0.1,1.6,0.4c0.5,0.2,0.8,0.6,1,1c0.2,0.4,0.4,0.8,0.5,1.3
			c0.1,0.5,0.1,1.2,0.1,2.2v6.5H355v-5.8c0-1.2,0-1.9-0.1-2.2c-0.1-0.3-0.3-0.6-0.5-0.7c-0.2-0.2-0.5-0.3-0.9-0.3
			c-0.4,0-0.8,0.1-1.1,0.4s-0.6,0.6-0.7,1.1c-0.2,0.5-0.2,1.2-0.2,2.1v5.5h-2.5v-15.2H351.4z"/>
		<path d="M362.4,331.9l-2.3-0.5c0.3-1.1,0.7-1.9,1.3-2.4c0.6-0.5,1.6-0.8,2.8-0.8c1.1,0,2,0.2,2.5,0.5s0.9,0.7,1.2,1.2
			c0.2,0.5,0.3,1.3,0.3,2.6l0,3.4c0,1,0,1.7,0.1,2.1s0.2,1,0.5,1.5h-2.5c-0.1-0.2-0.1-0.5-0.2-0.9c0-0.2-0.1-0.3-0.1-0.3
			c-0.4,0.5-0.9,0.8-1.4,1.1s-1,0.4-1.6,0.4c-1,0-1.7-0.3-2.3-0.9c-0.6-0.6-0.8-1.4-0.8-2.3c0-0.6,0.1-1.2,0.4-1.7
			c0.3-0.5,0.6-0.9,1.1-1.1c0.5-0.3,1.1-0.5,2-0.7c1.2-0.3,2-0.5,2.4-0.7v-0.3c0-0.6-0.1-1-0.4-1.2c-0.2-0.2-0.7-0.4-1.3-0.4
			c-0.4,0-0.8,0.1-1,0.3C362.8,331.1,362.6,331.4,362.4,331.9z M365.6,327.2H364l-2.5-3.1h2.8L365.6,327.2z M365.8,334.3
			c-0.3,0.1-0.8,0.3-1.5,0.4c-0.7,0.2-1.2,0.3-1.4,0.5c-0.3,0.3-0.5,0.6-0.5,1c0,0.4,0.1,0.8,0.4,1.1c0.3,0.3,0.6,0.4,1,0.4
			c0.5,0,0.9-0.2,1.3-0.5c0.3-0.3,0.5-0.6,0.6-1c0.1-0.2,0.1-0.7,0.1-1.4V334.3z"/>
		<path d="M385,331.8l-2.5,0.5c-0.1-0.6-0.3-1-0.6-1.3c-0.3-0.3-0.7-0.4-1.1-0.4c-0.6,0-1.1,0.3-1.5,0.8c-0.4,0.5-0.6,1.3-0.6,2.5
			c0,1.3,0.2,2.2,0.6,2.8c0.4,0.5,0.9,0.8,1.5,0.8c0.5,0,0.9-0.2,1.2-0.5s0.5-0.9,0.6-1.6l2.5,0.5c-0.3,1.3-0.7,2.3-1.5,3
			s-1.7,1-2.9,1c-1.4,0-2.5-0.5-3.3-1.5c-0.8-1-1.2-2.4-1.2-4.2c0-1.8,0.4-3.2,1.2-4.2c0.8-1,1.9-1.5,3.4-1.5c1.2,0,2.1,0.3,2.8,0.9
			C384.2,329.8,384.7,330.7,385,331.8z"/>
		<path d="M393.5,339.6V338c-0.3,0.6-0.8,1.1-1.4,1.4c-0.6,0.3-1.2,0.5-1.8,0.5c-0.6,0-1.2-0.2-1.7-0.5c-0.5-0.3-0.9-0.8-1.1-1.4
			c-0.2-0.6-0.3-1.4-0.3-2.4v-7h2.5v5.1c0,1.5,0,2.5,0.1,2.8c0.1,0.3,0.3,0.6,0.5,0.8c0.2,0.2,0.6,0.3,0.9,0.3
			c0.4,0,0.8-0.1,1.2-0.4c0.3-0.3,0.6-0.6,0.7-1s0.2-1.4,0.2-3v-4.6h2.5v11H393.5z M391.8,326c0.3-0.1,0.5-0.2,0.5-0.5
			c0-0.2-0.1-0.3-0.3-0.4c-0.2-0.2-0.6-0.2-1.2-0.2c-0.2,0-0.5,0-0.8,0l-0.1-1.1c0.2-0.1,0.7-0.1,1.3-0.1c0.7,0,1.3,0.1,1.8,0.4
			c0.5,0.3,0.8,0.7,0.8,1.2c0,0.7-0.5,1.2-1.6,1.3v0.5h-1v-1.1C391.5,326.1,391.7,326,391.8,326z"/>
		<path d="M400.8,331.9l-2.3-0.5c0.3-1.1,0.7-1.9,1.3-2.4c0.6-0.5,1.6-0.8,2.8-0.8c1.1,0,2,0.2,2.5,0.5s0.9,0.7,1.2,1.2
			c0.2,0.5,0.3,1.3,0.3,2.6l0,3.4c0,1,0,1.7,0.1,2.1s0.2,1,0.5,1.5h-2.5c-0.1-0.2-0.1-0.5-0.2-0.9c0-0.2-0.1-0.3-0.1-0.3
			c-0.4,0.5-0.9,0.8-1.4,1.1s-1,0.4-1.6,0.4c-1,0-1.7-0.3-2.3-0.9c-0.6-0.6-0.8-1.4-0.8-2.3c0-0.6,0.1-1.2,0.4-1.7
			c0.3-0.5,0.6-0.9,1.1-1.1c0.5-0.3,1.1-0.5,2-0.7c1.2-0.3,2-0.5,2.4-0.7v-0.3c0-0.6-0.1-1-0.4-1.2c-0.2-0.2-0.7-0.4-1.3-0.4
			c-0.4,0-0.8,0.1-1,0.3C401.2,331.1,400.9,331.4,400.8,331.9z M404.1,334.3c-0.3,0.1-0.8,0.3-1.5,0.4c-0.7,0.2-1.2,0.3-1.4,0.5
			c-0.3,0.3-0.5,0.6-0.5,1c0,0.4,0.1,0.8,0.4,1.1c0.3,0.3,0.6,0.4,1,0.4c0.5,0,0.9-0.2,1.3-0.5c0.3-0.3,0.5-0.6,0.6-1
			c0.1-0.2,0.1-0.7,0.1-1.4V334.3z"/>
		<path d="M421.3,343.8v-5.5c-0.3,0.5-0.7,0.9-1.2,1.2c-0.5,0.3-1,0.4-1.6,0.4c-1.1,0-2-0.5-2.7-1.4c-0.8-1.1-1.2-2.6-1.2-4.5
			c0-1.8,0.4-3.2,1.2-4.1c0.8-1,1.7-1.5,2.9-1.5c0.6,0,1.2,0.2,1.6,0.5c0.5,0.3,0.9,0.8,1.2,1.4v-1.6h2.3v15.2H421.3z M421.3,334
			c0-1.1-0.2-2-0.6-2.5c-0.4-0.5-0.9-0.8-1.5-0.8c-0.6,0-1.1,0.3-1.5,0.8s-0.6,1.4-0.6,2.7c0,1.2,0.2,2.1,0.6,2.6
			c0.4,0.5,0.9,0.8,1.5,0.8s1.1-0.3,1.5-0.9C421.1,336,421.3,335.1,421.3,334z"/>
		<path d="M432.9,339.6V338c-0.3,0.6-0.8,1.1-1.4,1.4c-0.6,0.3-1.2,0.5-1.8,0.5c-0.6,0-1.2-0.2-1.7-0.5c-0.5-0.3-0.9-0.8-1.1-1.4
			c-0.2-0.6-0.3-1.4-0.3-2.4v-7h2.5v5.1c0,1.5,0,2.5,0.1,2.8c0.1,0.3,0.3,0.6,0.5,0.8c0.2,0.2,0.6,0.3,0.9,0.3
			c0.4,0,0.8-0.1,1.2-0.4c0.3-0.3,0.6-0.6,0.7-1s0.2-1.4,0.2-3v-4.6h2.5v11H432.9z"/>
		<path d="M437.1,328.6h2.7l2.3,7.8l2.2-7.8h2.6l-3.3,10.6l-0.6,1.9c-0.2,0.6-0.4,1.1-0.6,1.5c-0.2,0.3-0.4,0.6-0.7,0.8
			c-0.3,0.2-0.6,0.4-1,0.5c-0.4,0.1-0.8,0.2-1.3,0.2c-0.5,0-1-0.1-1.4-0.2l-0.2-2.3c0.4,0.1,0.7,0.1,1.1,0.1c0.6,0,1-0.2,1.3-0.6
			c0.3-0.4,0.5-0.9,0.6-1.5L437.1,328.6z M440.7,327.2l1.2-3.1h2.8l-2.5,3.1H440.7z"/>
		<path d="M37,367.4l-3.8-11h2.6l1.8,5.6l0.5,1.9c0.1-0.5,0.2-0.8,0.3-0.9c0.1-0.3,0.2-0.6,0.3-0.9l1.8-5.6h2.6l-3.8,11H37z"/>
		<path d="M45.1,354.9v-2.7h2.5v2.7H45.1z M45.1,367.4v-11h2.5v11H45.1z M45.1,371.5v-2.9h2.5v2.9H45.1z"/>
		<path d="M64.7,367.4h-2.5v-5.6c0-1.2-0.1-2-0.2-2.3c-0.1-0.3-0.3-0.6-0.5-0.8s-0.5-0.3-0.9-0.3c-0.4,0-0.8,0.1-1.2,0.4
			c-0.3,0.3-0.6,0.6-0.7,1.1c-0.1,0.5-0.2,1.3-0.2,2.5v5h-2.5v-11h2.3v1.6c0.8-1.2,1.9-1.9,3.1-1.9c0.6,0,1.1,0.1,1.5,0.3
			c0.5,0.2,0.8,0.5,1,0.9c0.2,0.4,0.4,0.8,0.5,1.2c0.1,0.5,0.1,1.1,0.1,2V367.4z"/>
		<path d="M70.2,352.2v5.6c0.8-1.1,1.8-1.6,2.9-1.6c0.6,0,1.1,0.1,1.6,0.4c0.5,0.2,0.8,0.6,1,1c0.2,0.4,0.4,0.8,0.5,1.3
			c0.1,0.5,0.1,1.2,0.1,2.2v6.5h-2.5v-5.8c0-1.2,0-1.9-0.1-2.2c-0.1-0.3-0.3-0.6-0.5-0.7c-0.2-0.2-0.5-0.3-0.9-0.3
			c-0.4,0-0.8,0.1-1.1,0.4s-0.6,0.6-0.7,1.1c-0.2,0.5-0.2,1.2-0.2,2.1v5.5h-2.5v-15.2H70.2z"/>
		<path d="M81.2,359.7l-2.3-0.5c0.3-1.1,0.7-1.9,1.3-2.4c0.6-0.5,1.6-0.8,2.8-0.8c1.1,0,2,0.2,2.5,0.5s0.9,0.7,1.2,1.2
			c0.2,0.5,0.3,1.3,0.3,2.6l0,3.4c0,1,0,1.7,0.1,2.1s0.2,1,0.5,1.5h-2.5c-0.1-0.2-0.1-0.5-0.2-0.9c0-0.2-0.1-0.3-0.1-0.3
			c-0.4,0.5-0.9,0.8-1.4,1.1s-1,0.4-1.6,0.4c-1,0-1.7-0.3-2.3-0.9c-0.6-0.6-0.8-1.4-0.8-2.3c0-0.6,0.1-1.2,0.4-1.7
			c0.3-0.5,0.6-0.9,1.1-1.1c0.5-0.3,1.1-0.5,2-0.7c1.2-0.3,2-0.5,2.4-0.7v-0.3c0-0.6-0.1-1-0.4-1.2c-0.2-0.2-0.7-0.4-1.3-0.4
			c-0.4,0-0.8,0.1-1,0.3C81.6,358.8,81.4,359.2,81.2,359.7z M84.6,362.1c-0.3,0.1-0.8,0.3-1.5,0.4c-0.7,0.2-1.2,0.3-1.4,0.5
			c-0.3,0.3-0.5,0.6-0.5,1c0,0.4,0.1,0.8,0.4,1.1c0.3,0.3,0.6,0.4,1,0.4c0.5,0,0.9-0.2,1.3-0.5c0.3-0.3,0.5-0.6,0.6-1
			c0.1-0.2,0.1-0.7,0.1-1.4V362.1z"/>
		<path d="M98.6,367.4h-2.5v-5.6c0-1.2-0.1-2-0.2-2.3c-0.1-0.3-0.3-0.6-0.5-0.8s-0.5-0.3-0.9-0.3c-0.4,0-0.8,0.1-1.2,0.4
			c-0.3,0.3-0.6,0.6-0.7,1.1c-0.1,0.5-0.2,1.3-0.2,2.5v5h-2.5v-11h2.3v1.6c0.8-1.2,1.9-1.9,3.1-1.9c0.6,0,1.1,0.1,1.5,0.3
			c0.5,0.2,0.8,0.5,1,0.9c0.2,0.4,0.4,0.8,0.5,1.2c0.1,0.5,0.1,1.1,0.1,2V367.4z"/>
		<path d="M104.1,352.2v5.6c0.8-1.1,1.8-1.6,2.9-1.6c0.6,0,1.1,0.1,1.6,0.4c0.5,0.2,0.8,0.6,1,1c0.2,0.4,0.4,0.8,0.5,1.3
			c0.1,0.5,0.1,1.2,0.1,2.2v6.5h-2.5v-5.8c0-1.2,0-1.9-0.1-2.2c-0.1-0.3-0.3-0.6-0.5-0.7c-0.2-0.2-0.5-0.3-0.9-0.3
			c-0.4,0-0.8,0.1-1.1,0.4s-0.6,0.6-0.7,1.1c-0.2,0.5-0.2,1.2-0.2,2.1v5.5h-2.5v-15.2H104.1z"/>
		<path d="M127,359.6l-2.5,0.5c-0.1-0.6-0.3-1-0.6-1.3c-0.3-0.3-0.7-0.4-1.1-0.4c-0.6,0-1.1,0.3-1.5,0.8c-0.4,0.5-0.6,1.3-0.6,2.5
			c0,1.3,0.2,2.2,0.6,2.8c0.4,0.5,0.9,0.8,1.5,0.8c0.5,0,0.9-0.2,1.2-0.5s0.5-0.9,0.6-1.6l2.5,0.5c-0.3,1.3-0.7,2.3-1.5,3
			s-1.7,1-2.9,1c-1.4,0-2.5-0.5-3.3-1.5c-0.8-1-1.2-2.4-1.2-4.2c0-1.8,0.4-3.2,1.2-4.2c0.8-1,1.9-1.5,3.4-1.5c1.2,0,2.1,0.3,2.8,0.9
			C126.2,357.6,126.7,358.4,127,359.6z"/>
		<path d="M131.8,352.2v5.6c0.8-1.1,1.8-1.6,2.9-1.6c0.6,0,1.1,0.1,1.6,0.4c0.5,0.2,0.8,0.6,1,1c0.2,0.4,0.4,0.8,0.5,1.3
			c0.1,0.5,0.1,1.2,0.1,2.2v6.5h-2.5v-5.8c0-1.2,0-1.9-0.1-2.2c-0.1-0.3-0.3-0.6-0.5-0.7c-0.2-0.2-0.5-0.3-0.9-0.3
			c-0.4,0-0.8,0.1-1.1,0.4s-0.6,0.6-0.7,1.1c-0.2,0.5-0.2,1.2-0.2,2.1v5.5h-2.5v-15.2H131.8z"/>
		<path d="M140.4,361.7c0-1,0.2-1.9,0.6-2.8c0.4-0.9,1-1.6,1.7-2.1c0.8-0.5,1.6-0.7,2.5-0.7c1.4,0,2.6,0.5,3.5,1.6s1.4,2.4,1.4,4.1
			c0,1.7-0.5,3-1.4,4.1c-0.9,1.1-2.1,1.6-3.5,1.6c-0.9,0-1.7-0.2-2.5-0.7c-0.8-0.5-1.4-1.1-1.8-2C140.6,364,140.4,363,140.4,361.7z
			 M142.9,361.9c0,1.1,0.2,1.9,0.7,2.5s1,0.9,1.6,0.9c0.7,0,1.2-0.3,1.6-0.9c0.4-0.6,0.7-1.4,0.7-2.5c0-1.1-0.2-1.9-0.7-2.5
			c-0.4-0.6-1-0.9-1.6-0.9c-0.7,0-1.2,0.3-1.6,0.9C143.2,359.9,142.9,360.8,142.9,361.9z M144,355l1.2-3.1h2.8l-2.5,3.1H144z"/>
		<path d="M161.2,367.4h-2.5v-5.6c0-1.2-0.1-2-0.2-2.3c-0.1-0.3-0.3-0.6-0.5-0.8s-0.5-0.3-0.9-0.3c-0.4,0-0.8,0.1-1.2,0.4
			c-0.3,0.3-0.6,0.6-0.7,1.1c-0.1,0.5-0.2,1.3-0.2,2.5v5h-2.5v-11h2.3v1.6c0.8-1.2,1.9-1.9,3.1-1.9c0.6,0,1.1,0.1,1.5,0.3
			c0.5,0.2,0.8,0.5,1,0.9c0.2,0.4,0.4,0.8,0.5,1.2c0.1,0.5,0.1,1.1,0.1,2V367.4z"/>
		<path d="M163.9,368.1l2.9,0.4c0,0.4,0.2,0.7,0.3,0.8c0.2,0.2,0.6,0.3,1.1,0.3c0.7,0,1.1-0.1,1.5-0.3c0.2-0.2,0.4-0.4,0.5-0.7
			c0.1-0.2,0.1-0.7,0.1-1.3v-1.6c-0.7,1.2-1.7,1.8-2.8,1.8c-1.3,0-2.3-0.6-3-1.9c-0.6-1-0.9-2.2-0.9-3.7c0-1.8,0.4-3.3,1.1-4.2
			s1.7-1.5,2.8-1.5c1.2,0,2.1,0.6,2.9,1.8v-1.5h2.3v9.9c0,1.3-0.1,2.3-0.3,2.9c-0.2,0.6-0.4,1.1-0.8,1.5s-0.8,0.7-1.3,0.9
			c-0.6,0.2-1.3,0.3-2.1,0.3c-1.6,0-2.7-0.3-3.4-1c-0.7-0.6-1-1.5-1-2.4C163.9,368.4,163.9,368.2,163.9,368.1z M166.2,361.6
			c0,1.2,0.2,2,0.6,2.6c0.4,0.5,0.9,0.8,1.4,0.8c0.6,0,1.1-0.3,1.6-0.8c0.4-0.6,0.6-1.4,0.6-2.5c0-1.1-0.2-2-0.6-2.5
			c-0.4-0.6-0.9-0.8-1.5-0.8c-0.6,0-1.1,0.3-1.5,0.8C166.4,359.7,166.2,360.5,166.2,361.6z"/>
		<path d="M187.5,355.2h-2.7v-1.9h2.7v-1.1h2.5v1.1h1v1.9h-1v12.2h-2.3v-1.6c-0.4,0.6-0.8,1.1-1.4,1.4s-1.1,0.5-1.6,0.5
			c-1.1,0-2-0.5-2.8-1.5c-0.8-1-1.2-2.4-1.2-4.3c0-1.9,0.4-3.3,1.1-4.3c0.8-1,1.7-1.5,2.9-1.5c1.1,0,2,0.5,2.7,1.5V355.2z
			 M183.3,361.6c0,1.2,0.1,2,0.4,2.6c0.4,0.8,1,1.1,1.7,1.1c0.6,0,1.1-0.3,1.5-0.9c0.4-0.6,0.6-1.4,0.6-2.6c0-1.3-0.2-2.2-0.6-2.7
			c-0.4-0.6-0.9-0.8-1.5-0.8c-0.6,0-1.1,0.3-1.5,0.8S183.3,360.5,183.3,361.6z"/>
		<path d="M202.3,356.4h2.5v2.1c0,0.9-0.1,1.5-0.2,2c-0.1,0.5-0.4,0.9-0.7,1.3c-0.5,0.6-1.3,1-2.5,1.2v4.4h-2.3v-1.6
			c-0.7,1.3-1.8,1.9-3.1,1.9c-1.4,0-2.3-0.6-2.8-1.9c-0.2-0.6-0.3-1.4-0.3-2.4v-7h2.5v5.1c0,1.5,0,2.4,0.1,2.8
			c0.1,0.3,0.2,0.6,0.5,0.8c0.2,0.2,0.6,0.3,0.9,0.3c0.4,0,0.8-0.1,1.1-0.4s0.6-0.6,0.7-1c0.1-0.4,0.2-1.4,0.2-3v-4.6h2.5v5.4
			c0.8-0.2,1.4-0.6,1.7-1.1c0.2-0.3,0.3-0.8,0.3-1.4h-1.2V356.4z"/>
		<path d="M215.8,356.4h2.5v2.1c0,0.9-0.1,1.5-0.2,2c-0.1,0.5-0.4,0.9-0.7,1.3c-0.4,0.5-0.9,0.8-1.6,1.1c-0.1,1.2-0.6,2.3-1.3,3.2
			c-0.9,1.1-2.1,1.6-3.5,1.6c-0.9,0-1.7-0.2-2.5-0.7c-0.8-0.5-1.4-1.2-1.8-2s-0.6-1.9-0.6-3.2c0-1,0.2-1.9,0.6-2.8
			c0.4-0.9,1-1.6,1.8-2.1c0.7-0.5,1.6-0.7,2.5-0.7c1.4,0,2.6,0.5,3.5,1.6c0.8,1,1.3,2.2,1.4,3.6c0.8-0.4,1.2-1.1,1.2-2.1h-1.2V356.4
			z M208.6,361.9c0,1.1,0.2,1.9,0.7,2.5c0.4,0.6,1,0.9,1.6,0.9s1.2-0.3,1.6-0.9c0.4-0.6,0.7-1.5,0.7-2.5c0-1.1-0.2-1.9-0.7-2.5
			c-0.4-0.6-1-0.9-1.6-0.9s-1.2,0.3-1.6,0.9C208.8,360,208.6,360.8,208.6,361.9z M209.6,371.5v-2.9h2.5v2.9H209.6z"/>
		<path d="M228.3,359.6l-2.5,0.5c-0.1-0.6-0.3-1-0.6-1.3c-0.3-0.3-0.7-0.4-1.1-0.4c-0.6,0-1.1,0.3-1.5,0.8c-0.4,0.5-0.6,1.3-0.6,2.5
			c0,1.3,0.2,2.2,0.6,2.8c0.4,0.5,0.9,0.8,1.5,0.8c0.5,0,0.9-0.2,1.2-0.5s0.5-0.9,0.6-1.6l2.5,0.5c-0.3,1.3-0.7,2.3-1.5,3
			s-1.7,1-2.9,1c-1.4,0-2.5-0.5-3.3-1.5c-0.8-1-1.2-2.4-1.2-4.2c0-1.8,0.4-3.2,1.2-4.2c0.8-1,1.9-1.5,3.4-1.5c1.2,0,2.1,0.3,2.8,0.9
			C227.5,357.6,228,358.4,228.3,359.6z"/>
		<path d="M244.5,359.6l-2.5,0.5c-0.1-0.6-0.3-1-0.6-1.3c-0.3-0.3-0.7-0.4-1.1-0.4c-0.6,0-1.1,0.3-1.5,0.8c-0.4,0.5-0.6,1.3-0.6,2.5
			c0,1.3,0.2,2.2,0.6,2.8c0.4,0.5,0.9,0.8,1.5,0.8c0.5,0,0.9-0.2,1.2-0.5s0.5-0.9,0.6-1.6l2.5,0.5c-0.3,1.3-0.7,2.3-1.5,3
			s-1.7,1-2.9,1c-1.4,0-2.5-0.5-3.3-1.5c-0.8-1-1.2-2.4-1.2-4.2c0-1.8,0.4-3.2,1.2-4.2c0.8-1,1.9-1.5,3.4-1.5c1.2,0,2.1,0.3,2.8,0.9
			C243.7,357.6,244.2,358.4,244.5,359.6z"/>
		<path d="M249.3,352.2v5.6c0.8-1.1,1.8-1.6,2.9-1.6c0.6,0,1.1,0.1,1.6,0.4c0.5,0.2,0.8,0.6,1,1c0.2,0.4,0.4,0.8,0.5,1.3
			c0.1,0.5,0.1,1.2,0.1,2.2v6.5h-2.5v-5.8c0-1.2,0-1.9-0.1-2.2c-0.1-0.3-0.3-0.6-0.5-0.7c-0.2-0.2-0.5-0.3-0.9-0.3
			c-0.4,0-0.8,0.1-1.1,0.4s-0.6,0.6-0.7,1.1c-0.2,0.5-0.2,1.2-0.2,2.1v5.5h-2.5v-15.2H249.3z"/>
		<path d="M257.9,361.7c0-1,0.2-1.9,0.6-2.8c0.4-0.9,1-1.6,1.7-2.1c0.8-0.5,1.6-0.7,2.5-0.7c1.4,0,2.6,0.5,3.5,1.6s1.4,2.4,1.4,4.1
			c0,1.7-0.5,3-1.4,4.1c-0.9,1.1-2.1,1.6-3.5,1.6c-0.9,0-1.7-0.2-2.5-0.7c-0.8-0.5-1.4-1.1-1.8-2C258.1,364,257.9,363,257.9,361.7z
			 M260.4,361.9c0,1.1,0.2,1.9,0.7,2.5s1,0.9,1.6,0.9c0.7,0,1.2-0.3,1.6-0.9c0.4-0.6,0.7-1.4,0.7-2.5c0-1.1-0.2-1.9-0.7-2.5
			c-0.4-0.6-1-0.9-1.6-0.9c-0.7,0-1.2,0.3-1.6,0.9C260.6,359.9,260.4,360.8,260.4,361.9z"/>
		<path d="M279.9,356.4v2.3h-1.7v4.4c0,0.9,0,1.4,0,1.6c0,0.1,0.1,0.3,0.2,0.4c0.1,0.1,0.3,0.1,0.4,0.1c0.2,0,0.6-0.1,1-0.3l0.2,2.3
			c-0.6,0.3-1.2,0.4-2,0.4c-0.5,0-0.9-0.1-1.2-0.3c-0.4-0.2-0.6-0.4-0.8-0.7s-0.3-0.7-0.4-1.1c-0.1-0.3-0.1-1-0.1-2.1v-4.8h-1.2
			v-2.3h1.2v-2.2l2.5-1.7v3.9H279.9z"/>
		<path d="M284.6,352.2v5.6c0.8-1.1,1.8-1.6,2.9-1.6c0.6,0,1.1,0.1,1.6,0.4c0.5,0.2,0.8,0.6,1,1c0.2,0.4,0.4,0.8,0.5,1.3
			c0.1,0.5,0.1,1.2,0.1,2.2v6.5h-2.5v-5.8c0-1.2,0-1.9-0.1-2.2c-0.1-0.3-0.3-0.6-0.5-0.7c-0.2-0.2-0.5-0.3-0.9-0.3
			c-0.4,0-0.8,0.1-1.1,0.4s-0.6,0.6-0.7,1.1c-0.2,0.5-0.2,1.2-0.2,2.1v5.5h-2.5v-15.2H284.6z"/>
		<path d="M300,367.4v-1.6c-0.3,0.6-0.8,1.1-1.4,1.4c-0.6,0.3-1.2,0.5-1.8,0.5c-0.6,0-1.2-0.2-1.7-0.5c-0.5-0.3-0.9-0.8-1.1-1.4
			c-0.2-0.6-0.3-1.4-0.3-2.4v-7h2.5v5.1c0,1.5,0,2.5,0.1,2.8c0.1,0.3,0.3,0.6,0.5,0.8c0.2,0.2,0.6,0.3,0.9,0.3
			c0.4,0,0.8-0.1,1.2-0.4c0.3-0.3,0.6-0.6,0.7-1s0.2-1.4,0.2-3v-4.6h2.5v11H300z"/>
		<path d="M310.8,363.9l2.5,0.5c-0.3,1.1-0.8,1.9-1.5,2.4c-0.7,0.6-1.6,0.8-2.6,0.8c-1.6,0-2.9-0.6-3.7-1.9c-0.6-1-0.9-2.3-0.9-3.8
			c0-1.8,0.4-3.3,1.2-4.3c0.8-1,1.9-1.5,3.1-1.5c1.4,0,2.5,0.5,3.3,1.6s1.2,2.7,1.2,5h-6.3c0,0.9,0.2,1.5,0.6,2
			c0.4,0.5,0.9,0.7,1.4,0.7c0.4,0,0.7-0.1,1-0.4C310.5,364.8,310.7,364.4,310.8,363.9z M306,355l1.9-3.1h2.3l1.8,3.1h-2l-1-1.5
			l-1,1.5H306z M311,360.9c0-0.8-0.2-1.5-0.6-1.9c-0.4-0.4-0.8-0.7-1.3-0.7c-0.5,0-1,0.2-1.4,0.7c-0.4,0.5-0.5,1.1-0.5,1.9H311z"/>
		<path d="M316.9,363.5l-0.7-7.7v-3.6h2.7v3.6l-0.6,7.7H316.9z M316.4,367.4v-2.9h2.5v2.9H316.4z"/>
	</g>
</g>
</svg>
