<?xml version="1.0" encoding="utf-8"?>
<!-- Generator: Adobe Illustrator 16.0.0, SVG Export Plug-In . SVG Version: 6.00 Build 0)  -->
<!DOCTYPE svg PUBLIC "-//W3C//DTD SVG 1.1//EN" "http://www.w3.org/Graphics/SVG/1.1/DTD/svg11.dtd">
<svg version="1.1" id="レイヤー_1" xmlns="http://www.w3.org/2000/svg" xmlns:xlink="http://www.w3.org/1999/xlink" x="0px"
	 y="0px" width="542.5px" height="341.2px" viewBox="0 0 542.5 341.2" style="enable-background:new 0 0 542.5 341.2;"
	 xml:space="preserve">
<style type="text/css">
<![CDATA[
	.st0{filter:url(#Adobe_OpacityMaskFilter);}
	.st1{fill:none;stroke:#CCCCCC;stroke-miterlimit:10;}
	.st2{fill:none;stroke:#E6E6E6;stroke-miterlimit:10;}
	.st3{fill:#8CC63F;}
	.st4{fill:#F7931E;}
	.st5{clip-path:url(#SVGID_2_);}
	.st6{mask:url(#SVGID_5_);}
	.st7{mask:url(#SVGID_6_);}
	.st8{mask:url(#SVGID_7_);}
	.st9{mask:url(#SVGID_8_);}
	.st10{fill:#FBB03B;}
	.st11{fill-rule:evenodd;clip-rule:evenodd;}
	.st12{fill:#FF7BAC;}
	.st13{fill:#FFFFFF;}
	.st14{fill:#FFFFFF;stroke:#231815;stroke-miterlimit:10;}
	.st15{fill:#333333;}
	.st16{fill:#3FA9F5;}
	.st17{filter:url(#Adobe_OpacityMaskFilter_1_);}
	.st18{filter:url(#Adobe_OpacityMaskFilter_2_);}
	.st19{filter:url(#Adobe_OpacityMaskFilter_3_);}
]]>
</style>
<g>
	<g id="_x32_.psd">
		<defs>
			<rect id="SVGID_9_" x="142.7" y="56.1" width="250" height="180"/>
		</defs>
		<clipPath id="SVGID_2_">
			<use xlink:href="#SVGID_9_"  style="overflow:visible;"/>
		</clipPath>
		<g class="st5">
			
				<image style="overflow:visible;" width="250" height="180" id="背景" xlink:href="7966E091.jpg"  transform="matrix(1 0 0 1 142.6802 56.1348)">
			</image>
		</g>
		<g class="st5">
			
				<image style="overflow:visible;" width="250" height="180" id="レイヤー_1_1_" xlink:href="7966E093.png"  transform="matrix(1 0 0 1 142.6802 56.1348)">
			</image>
		</g>
	</g>
	<g>
		<g>
			<path d="M142.8,55.5c-1,61.3-1.9,122.6-1.9,184c0,1.1,1.7,1.1,1.7,0c0-61.3,0.9-122.7,1.9-184C144.5,54.4,142.8,54.4,142.8,55.5
				L142.8,55.5z"/>
		</g>
	</g>
	<g>
		<g>
			<path d="M143.7,56c40.4-2.4,80.9-2.9,121.4-3c42.7-0.1,85.5-0.3,128.2,1.4c1.1,0,1.1-1.7,0-1.7c-42.1-1.7-84.2-1.5-126.3-1.5
				c-41.1,0.1-82.3,0.6-123.3,3C142.6,54.3,142.6,56.1,143.7,56L143.7,56z"/>
		</g>
	</g>
	<g>
		<g>
			<path d="M391.9,53.5c-0.8,30.2-0.5,60.3-1,90.5c-0.6,31.2-0.9,62.4-0.9,93.6c0,1.1,1.7,1.1,1.7,0c0-31.2,0.3-62.4,0.9-93.6
				c0.6-30.2,0.3-60.3,1-90.5C393.7,52.4,392,52.4,391.9,53.5L391.9,53.5z"/>
		</g>
	</g>
	<g>
		<g>
			<path d="M390.7,237.2c-45.2,1.7-90.2,2.2-135.4,2c-23.5-0.1-46.9-0.1-70.4,0.2c-9.4,0.1-18.9,0.8-28.3,0.5
				c-5.3-0.2-10.6-0.6-15.8-0.7c-1.1,0-1.1,1.7,0,1.7c5.3,0.1,10.6,0.5,15.8,0.7c9.4,0.4,18.9-0.3,28.3-0.5
				c23.5-0.4,46.9-0.3,70.4-0.2c45.2,0.2,90.3-0.3,135.4-2C391.8,238.9,391.8,237.2,390.7,237.2L390.7,237.2z"/>
		</g>
	</g>
	<g>
		<g>
			<path d="M403.6,259.1c0-44.9,0.5-89.7,1.2-134.5c0.3-17.8,1-35.7,0.7-53.6c-0.1-5.9-0.3-11.9-0.5-17.8c-0.1-3.9,0.2-8.3-0.8-12.1
				c-0.3-1.1-1.9-0.6-1.6,0.5c0.9,3.6,0.6,7.9,0.7,11.6c0.2,5.9,0.4,11.9,0.5,17.8c0.4,17.8-0.4,35.7-0.7,53.6
				c-0.7,44.8-1.2,89.7-1.2,134.5C401.9,260.2,403.6,260.2,403.6,259.1L403.6,259.1z"/>
		</g>
	</g>
	<g>
		<g>
			<path d="M130.3,44.2c22.2,0.4,44.4-0.4,66.6-1.1c22.6-0.7,45.2-0.9,67.8-1.2c46.2-0.5,92.5-3.2,138.6,0.3c1.1,0.1,1.1-1.6,0-1.7
				c-45.4-3.5-91.1-0.9-136.6-0.3c-22.7,0.3-45.3,0.4-68,1.1c-22.8,0.7-45.6,1.6-68.4,1.2C129.2,42.4,129.2,44.2,130.3,44.2
				L130.3,44.2z"/>
		</g>
	</g>
	<g>
		<g>
			<path d="M130.4,44.1c-1.5,24.3-0.5,48.5-0.6,72.8c-0.1,15.4-0.2,30.8-0.3,46.2c-0.3,31.4,0.2,63.1-1.6,94.4
				c-0.1,1.1,1.6,1.1,1.7,0c1.8-31.4,1.3-63,1.6-94.4c0.1-15.2,0.3-30.4,0.3-45.6c0.1-24.5-0.9-49,0.6-73.4
				C132.2,43,130.5,43,130.4,44.1L130.4,44.1z"/>
		</g>
	</g>
	<g>
		<g>
			<path d="M128.7,258.4c42.4,0,84.7-0.3,127.1-0.4c26.9,0,53.9-0.4,80.8,0.1c22,0.4,44.1,1.8,66.1,1.9c1.1,0,1.1-1.7,0-1.7
				c-22.1-0.1-44.1-1.3-66.1-1.9c-26.9-0.6-53.9-0.1-80.8-0.1c-42.4,0.1-84.7,0.4-127.1,0.4C127.6,256.7,127.6,258.4,128.7,258.4
				L128.7,258.4z"/>
		</g>
	</g>
	<g>
		<g>
			<path d="M380.2,252.1c-2.2,0.6-3.9-0.3-4.4-2.5c-0.2-0.8-0.1-1.7,0.3-2.4c0.5-1.1,1.9-1.4,3-1.5c1.8-0.1,3.2,0.9,3.6,2.6
				c0.4,1.8-1.2,3.2-2.8,3.7c-0.9,0.3-0.5,1.7,0.4,1.4c2.5-0.8,4.2-2.9,3.8-5.6c-0.4-2.6-3.1-4-5.5-3.6c-1.5,0.2-2.9,0.6-3.7,2
				c-0.7,1.1-0.7,2.5-0.5,3.7c0.5,3.1,3.4,4.3,6.2,3.6C381.6,253.3,381.2,251.8,380.2,252.1L380.2,252.1z"/>
		</g>
	</g>
	<g>
		<g>
			<path d="M212.1,258.4c0,3.3,0,6.6,0,10c0,0.8,1.2,0.8,1.2,0c0-3.3,0-6.6,0-10C213.4,257.6,212.1,257.6,212.1,258.4L212.1,258.4z"
				/>
		</g>
	</g>
	<g>
		<g>
			<path d="M311.6,257.8c0,3-0.1,6.1-0.8,9c-0.2,0.8,1,1.1,1.2,0.3c0.7-3.1,0.8-6.2,0.8-9.4C312.8,257,311.6,257,311.6,257.8
				L311.6,257.8z"/>
		</g>
	</g>
	<g>
		<g>
			<path d="M184.4,268.7c26.3,0,52.5-1.7,78.7-1.8c26.6-0.1,53.2,0.3,79.8,0.3c1,0,1-1.5,0-1.5c-25.9,0-51.9-0.3-77.8-0.3
				c-26.9,0-53.8,1.8-80.7,1.8C183.4,267.2,183.4,268.7,184.4,268.7L184.4,268.7z"/>
		</g>
	</g>
	<g>
		<g>
			<path d="M342.2,267.2c0,1.5,0,3.1,0,4.6c0,1,1.5,1,1.5,0c0-1.5,0-3.1,0-4.6C343.7,266.2,342.2,266.2,342.2,267.2L342.2,267.2z"/>
		</g>
	</g>
	<g>
		<g>
			<path d="M183.6,269.7c0,1.8,0,3.6,0,5.4c0,1,1.5,1,1.5,0c0-1.8,0-3.6,0-5.4C185.1,268.8,183.6,268.8,183.6,269.7L183.6,269.7z"/>
		</g>
	</g>
	<g>
		<g>
			<path d="M184.4,276.7c26.4-0.7,52.9-1.6,79.3-2.2c26.2-0.6,52.3,0.2,78.4-0.2c1,0,1-1.5,0-1.5c-26.2,0.3-52.3-0.4-78.4,0.2
				c-26.4,0.6-52.9,1.5-79.3,2.2C183.4,275.2,183.4,276.7,184.4,276.7L184.4,276.7z"/>
		</g>
	</g>
	<g>
		<g>
			<path class="st4" d="M41.5,75.7c6.5,5.5,13.7,9.9,21.8,12.7c1.8,0.6,2.6-2.3,0.8-2.9c-7.6-2.6-14.3-6.8-20.4-11.9
				C42.1,72.3,40,74.4,41.5,75.7L41.5,75.7z"/>
		</g>
	</g>
	<g>
		<g>
			<path class="st4" d="M20.1,128.5c9.2-1.7,18.5-0.9,27.7-0.8c1.9,0,1.9-3,0-3c-9.5-0.1-19.1-0.8-28.5,0.9
				C17.4,126,18.2,128.9,20.1,128.5L20.1,128.5z"/>
		</g>
	</g>
	<g>
		<g>
			<path class="st4" d="M22.5,178c5.6-5.1,13.9-4.9,20.9-5.7c1.9-0.2,1.9-3.2,0-3c-7.9,0.9-16.8,0.9-23,6.6
				C18.9,177.2,21.1,179.3,22.5,178L22.5,178z"/>
		</g>
	</g>
	<g>
		<g>
			<path class="st4" d="M36.6,224.6c6.4-8,14.4-14.4,23.9-18.1c1.8-0.7,1-3.6-0.8-2.9c-10.1,3.9-18.6,10.4-25.3,18.8
				C33.2,224,35.4,226.1,36.6,224.6L36.6,224.6z"/>
		</g>
	</g>
	<g>
		<g>
			<path class="st4" d="M469.3,94.2c11.7-1.4,14-13.9,23.6-18.7c1.7-0.9,0.2-3.5-1.5-2.6c-8.7,4.4-11.8,17-22.1,18.3
				C467.5,91.4,467.4,94.4,469.3,94.2L469.3,94.2z"/>
		</g>
	</g>
	<g>
		<g>
			<path class="st4" d="M474.6,133.7c11.4-0.8,22.7-1.2,33.8-4.4c1.9-0.5,1.1-3.4-0.8-2.9c-10.8,3.2-21.9,3.5-33,4.3
				C472.7,130.8,472.7,133.8,474.6,133.7L474.6,133.7z"/>
		</g>
	</g>
	<g>
		<g>
			<path class="st4" d="M475.9,175c9.1-1.7,19.2-2.1,28.2,0c1.9,0.4,2.7-2.5,0.8-2.9c-9.6-2.2-20.1-1.8-29.8,0
				C473.2,172.5,474,175.4,475.9,175L475.9,175z"/>
		</g>
	</g>
	<g>
		<g>
			<path class="st4" d="M470.2,206.3c12.5,1.3,21.5,11.6,32.6,16.5c1.8,0.8,3.3-1.8,1.5-2.6c-11.7-5.2-20.9-15.5-34.2-16.9
				C468.3,203.1,468.3,206.1,470.2,206.3L470.2,206.3z"/>
		</g>
	</g>
	<g>
		<path d="M0,0h4.8c1.1,0,1.9,0.1,2.5,0.3c0.8,0.3,1.4,0.7,2,1.4c0.5,0.7,1,1.5,1.2,2.5c0.3,1,0.4,2.2,0.4,3.6
			c0,1.3-0.1,2.3-0.4,3.2c-0.3,1.1-0.8,2-1.4,2.7c-0.5,0.5-1.1,0.9-1.9,1.2c-0.6,0.2-1.4,0.3-2.3,0.3H0V0z M2.6,2.6v10.1h2
			c0.7,0,1.3,0,1.6-0.1c0.4-0.1,0.8-0.3,1.1-0.6c0.3-0.3,0.5-0.8,0.7-1.5c0.2-0.7,0.3-1.6,0.3-2.8c0-1.2-0.1-2.1-0.3-2.7
			C7.8,4.3,7.5,3.8,7.2,3.4C6.9,3.1,6.5,2.8,6,2.7C5.6,2.6,4.9,2.6,3.8,2.6H2.6z"/>
		<path d="M13.1,9.5c0-1,0.2-1.9,0.6-2.8c0.4-0.9,1-1.6,1.7-2.1c0.8-0.5,1.6-0.7,2.5-0.7c1.4,0,2.6,0.5,3.5,1.6s1.4,2.4,1.4,4.1
			c0,1.7-0.5,3-1.4,4.1c-0.9,1.1-2.1,1.6-3.5,1.6c-0.9,0-1.7-0.2-2.5-0.7c-0.8-0.5-1.4-1.1-1.8-2C13.3,11.9,13.1,10.8,13.1,9.5z
			 M15.6,9.7c0,1.1,0.2,1.9,0.7,2.5s1,0.9,1.6,0.9c0.7,0,1.2-0.3,1.6-0.9c0.4-0.6,0.7-1.4,0.7-2.5c0-1.1-0.2-1.9-0.7-2.5
			c-0.4-0.6-1-0.9-1.6-0.9c-0.7,0-1.2,0.3-1.6,0.9C15.9,7.8,15.6,8.6,15.6,9.7z"/>
		<path d="M39.4,15.2h-2.5V9.6c0-1.2-0.1-2-0.2-2.3c-0.1-0.3-0.3-0.6-0.5-0.8s-0.5-0.3-0.9-0.3c-0.4,0-0.8,0.1-1.2,0.4
			c-0.3,0.3-0.6,0.6-0.7,1.1c-0.1,0.5-0.2,1.3-0.2,2.5v5h-2.5v-11h2.3v1.6c0.8-1.2,1.9-1.9,3.1-1.9c0.6,0,1.1,0.1,1.5,0.3
			c0.5,0.2,0.8,0.5,1,0.9c0.2,0.4,0.4,0.8,0.5,1.2c0.1,0.5,0.1,1.1,0.1,2V15.2z"/>
		<path d="M41.8,9.5c0-1,0.2-1.9,0.6-2.8c0.4-0.9,1-1.6,1.7-2.1c0.8-0.5,1.6-0.7,2.5-0.7c1.4,0,2.6,0.5,3.5,1.6s1.4,2.4,1.4,4.1
			c0,1.7-0.5,3-1.4,4.1c-0.9,1.1-2.1,1.6-3.5,1.6c-0.9,0-1.7-0.2-2.5-0.7c-0.8-0.5-1.4-1.1-1.8-2C42,11.9,41.8,10.8,41.8,9.5z
			 M44.4,9.7c0,1.1,0.2,1.9,0.7,2.5s1,0.9,1.6,0.9c0.7,0,1.2-0.3,1.6-0.9c0.4-0.6,0.7-1.4,0.7-2.5c0-1.1-0.2-1.9-0.7-2.5
			c-0.4-0.6-1-0.9-1.6-0.9c-0.7,0-1.2,0.3-1.6,0.9C44.6,7.8,44.4,8.6,44.4,9.7z"/>
		<path d="M58.4,4.2v2.3h-1.7V11c0,0.9,0,1.4,0,1.6c0,0.1,0.1,0.3,0.2,0.4C57,13,57.2,13,57.3,13c0.2,0,0.6-0.1,1-0.3l0.2,2.3
			c-0.6,0.3-1.2,0.4-2,0.4c-0.5,0-0.9-0.1-1.2-0.3c-0.4-0.2-0.6-0.4-0.8-0.7s-0.3-0.7-0.4-1.1c-0.1-0.3-0.1-1-0.1-2.1V6.5H53V4.2
			h1.2V2l2.5-1.7v3.9H58.4z"/>
		<path d="M68.6,0v5.6c0.8-1.1,1.8-1.6,2.9-1.6c0.6,0,1.1,0.1,1.6,0.4c0.5,0.2,0.8,0.6,1,1c0.2,0.4,0.4,0.8,0.5,1.3
			c0.1,0.5,0.1,1.2,0.1,2.2v6.5h-2.5V9.4c0-1.2,0-1.9-0.1-2.2c-0.1-0.3-0.3-0.6-0.5-0.7c-0.2-0.2-0.5-0.3-0.9-0.3
			c-0.4,0-0.8,0.1-1.1,0.4S69,7.1,68.8,7.6c-0.2,0.5-0.2,1.2-0.2,2.1v5.5h-2.5V0H68.6z"/>
		<path d="M83.2,11.7l2.5,0.5c-0.3,1.1-0.8,1.9-1.5,2.4c-0.7,0.6-1.6,0.8-2.6,0.8c-1.6,0-2.9-0.6-3.7-1.9c-0.6-1-0.9-2.3-0.9-3.8
			c0-1.8,0.4-3.3,1.2-4.3c0.8-1,1.9-1.5,3.1-1.5c1.4,0,2.5,0.5,3.3,1.6s1.2,2.7,1.2,5h-6.3c0,0.9,0.2,1.5,0.6,2
			c0.4,0.5,0.9,0.7,1.4,0.7c0.4,0,0.7-0.1,1-0.4C82.8,12.7,83,12.3,83.2,11.7z M83.3,8.8c0-0.8-0.2-1.5-0.6-1.9
			c-0.4-0.4-0.8-0.7-1.3-0.7c-0.5,0-1,0.2-1.4,0.7c-0.4,0.5-0.5,1.1-0.5,1.9H83.3z"/>
		<path d="M87.4,12.1l2.5-0.4c0.1,0.6,0.3,1,0.7,1.3c0.3,0.3,0.8,0.4,1.4,0.4c0.6,0,1.1-0.1,1.5-0.4c0.2-0.2,0.3-0.5,0.3-0.8
			c0-0.2-0.1-0.4-0.2-0.5c-0.1-0.1-0.4-0.3-0.8-0.4c-2-0.5-3.3-1-3.8-1.4c-0.7-0.6-1.1-1.4-1.1-2.5c0-1,0.3-1.8,1-2.4s1.7-1,3-1
			c1.3,0,2.3,0.2,2.9,0.7c0.6,0.5,1.1,1.2,1.3,2.2l-2.4,0.5c-0.1-0.4-0.3-0.8-0.6-1C92.7,6.2,92.3,6,91.8,6c-0.7,0-1.1,0.1-1.4,0.3
			c-0.2,0.2-0.3,0.3-0.3,0.6c0,0.2,0.1,0.4,0.3,0.5c0.2,0.2,1,0.5,2.3,0.8s2.3,0.8,2.8,1.3c0.5,0.5,0.8,1.2,0.8,2.2
			c0,1-0.4,1.9-1.1,2.6s-1.8,1.1-3.2,1.1c-1.3,0-2.3-0.3-3.1-0.9C88.1,13.9,87.7,13.1,87.4,12.1z"/>
		<path d="M98.9,2.7V0h2.5v2.7H98.9z M98.9,15.2v-11h2.5v11H98.9z"/>
		<path d="M108.8,4.2v2.3h-1.7V11c0,0.9,0,1.4,0,1.6c0,0.1,0.1,0.3,0.2,0.4c0.1,0.1,0.3,0.1,0.4,0.1c0.2,0,0.6-0.1,1-0.3L109,15
			c-0.6,0.3-1.2,0.4-2,0.4c-0.5,0-0.9-0.1-1.2-0.3c-0.4-0.2-0.6-0.4-0.8-0.7s-0.3-0.7-0.4-1.1c-0.1-0.3-0.1-1-0.1-2.1V6.5h-1.2V4.2
			h1.2V2l2.5-1.7v3.9H108.8z"/>
		<path d="M112.9,7.5l-2.3-0.5c0.3-1.1,0.7-1.9,1.3-2.4c0.6-0.5,1.6-0.8,2.8-0.8c1.1,0,2,0.2,2.5,0.5s0.9,0.7,1.2,1.2
			c0.2,0.5,0.3,1.3,0.3,2.6l0,3.4c0,1,0,1.7,0.1,2.1s0.2,1,0.5,1.5h-2.5c-0.1-0.2-0.1-0.5-0.2-0.9c0-0.2-0.1-0.3-0.1-0.3
			c-0.4,0.5-0.9,0.8-1.4,1.1s-1,0.4-1.6,0.4c-1,0-1.7-0.3-2.3-0.9c-0.6-0.6-0.8-1.4-0.8-2.3c0-0.6,0.1-1.2,0.4-1.7
			c0.3-0.5,0.6-0.9,1.1-1.1c0.5-0.3,1.1-0.5,2-0.7c1.2-0.3,2-0.5,2.4-0.7V7.7c0-0.6-0.1-1-0.4-1.2c-0.2-0.2-0.7-0.4-1.3-0.4
			c-0.4,0-0.8,0.1-1,0.3C113.2,6.7,113,7,112.9,7.5z M116.2,9.9c-0.3,0.1-0.8,0.3-1.5,0.4c-0.7,0.2-1.2,0.3-1.4,0.5
			c-0.3,0.3-0.5,0.6-0.5,1c0,0.4,0.1,0.8,0.4,1.1c0.3,0.3,0.6,0.4,1,0.4c0.5,0,0.9-0.2,1.3-0.5c0.3-0.3,0.5-0.6,0.6-1
			c0.1-0.2,0.1-0.7,0.1-1.4V9.9z"/>
		<path d="M126,4.2v2.3h-1.7V11c0,0.9,0,1.4,0,1.6c0,0.1,0.1,0.3,0.2,0.4c0.1,0.1,0.3,0.1,0.4,0.1c0.2,0,0.6-0.1,1-0.3l0.2,2.3
			c-0.6,0.3-1.2,0.4-2,0.4c-0.5,0-0.9-0.1-1.2-0.3c-0.4-0.2-0.6-0.4-0.8-0.7s-0.3-0.7-0.4-1.1c-0.1-0.3-0.1-1-0.1-2.1V6.5h-1.2V4.2
			h1.2V2l2.5-1.7v3.9H126z"/>
		<path d="M133.6,11.7l2.5,0.5c-0.3,1.1-0.8,1.9-1.5,2.4c-0.7,0.6-1.6,0.8-2.6,0.8c-1.6,0-2.9-0.6-3.7-1.9c-0.6-1-0.9-2.3-0.9-3.8
			c0-1.8,0.4-3.3,1.2-4.3c0.8-1,1.9-1.5,3.1-1.5c1.4,0,2.5,0.5,3.3,1.6s1.2,2.7,1.2,5H130c0,0.9,0.2,1.5,0.6,2
			c0.4,0.5,0.9,0.7,1.4,0.7c0.4,0,0.7-0.1,1-0.4C133.3,12.7,133.5,12.3,133.6,11.7z M133.8,8.8c0-0.8-0.2-1.5-0.6-1.9
			c-0.4-0.4-0.8-0.7-1.3-0.7c-0.5,0-1,0.2-1.4,0.7C130.2,7.3,130,8,130,8.8H133.8z"/>
		<path d="M148.6,4.2v2.3h-1.7V11c0,0.9,0,1.4,0,1.6c0,0.1,0.1,0.3,0.2,0.4c0.1,0.1,0.3,0.1,0.4,0.1c0.2,0,0.6-0.1,1-0.3l0.2,2.3
			c-0.6,0.3-1.2,0.4-2,0.4c-0.5,0-0.9-0.1-1.2-0.3c-0.4-0.2-0.6-0.4-0.8-0.7s-0.3-0.7-0.4-1.1c-0.1-0.3-0.1-1-0.1-2.1V6.5h-1.2V4.2
			h1.2V2l2.5-1.7v3.9H148.6z"/>
		<path d="M150.3,9.5c0-1,0.2-1.9,0.6-2.8c0.4-0.9,1-1.6,1.7-2.1c0.8-0.5,1.6-0.7,2.5-0.7c1.4,0,2.6,0.5,3.5,1.6S160,8,160,9.7
			c0,1.7-0.5,3-1.4,4.1c-0.9,1.1-2.1,1.6-3.5,1.6c-0.9,0-1.7-0.2-2.5-0.7c-0.8-0.5-1.4-1.1-1.8-2C150.5,11.9,150.3,10.8,150.3,9.5z
			 M152.8,9.7c0,1.1,0.2,1.9,0.7,2.5s1,0.9,1.6,0.9c0.7,0,1.2-0.3,1.6-0.9c0.4-0.6,0.7-1.4,0.7-2.5c0-1.1-0.2-1.9-0.7-2.5
			c-0.4-0.6-1-0.9-1.6-0.9c-0.7,0-1.2,0.3-1.6,0.9C153,7.8,152.8,8.6,152.8,9.7z"/>
		<path d="M169.9,7.5l-2.3-0.5c0.3-1.1,0.7-1.9,1.3-2.4c0.6-0.5,1.6-0.8,2.8-0.8c1.1,0,2,0.2,2.5,0.5s0.9,0.7,1.2,1.2
			c0.2,0.5,0.3,1.3,0.3,2.6l0,3.4c0,1,0,1.7,0.1,2.1s0.2,1,0.5,1.5h-2.5c-0.1-0.2-0.1-0.5-0.2-0.9c0-0.2-0.1-0.3-0.1-0.3
			c-0.4,0.5-0.9,0.8-1.4,1.1s-1,0.4-1.6,0.4c-1,0-1.7-0.3-2.3-0.9c-0.6-0.6-0.8-1.4-0.8-2.3c0-0.6,0.1-1.2,0.4-1.7
			c0.3-0.5,0.6-0.9,1.1-1.1c0.5-0.3,1.1-0.5,2-0.7c1.2-0.3,2-0.5,2.4-0.7V7.7c0-0.6-0.1-1-0.4-1.2c-0.2-0.2-0.7-0.4-1.3-0.4
			c-0.4,0-0.8,0.1-1,0.3C170.2,6.7,170,7,169.9,7.5z M173.2,9.9c-0.3,0.1-0.8,0.3-1.5,0.4c-0.7,0.2-1.2,0.3-1.4,0.5
			c-0.3,0.3-0.5,0.6-0.5,1c0,0.4,0.1,0.8,0.4,1.1c0.3,0.3,0.6,0.4,1,0.4c0.5,0,0.9-0.2,1.3-0.5c0.3-0.3,0.5-0.6,0.6-1
			c0.1-0.2,0.1-0.7,0.1-1.4V9.9z"/>
		<path d="M187.3,15.2H185v-1.6c-0.4,0.6-0.8,1.1-1.4,1.4s-1.1,0.5-1.6,0.5c-1.1,0-2-0.5-2.8-1.5c-0.8-1-1.2-2.4-1.2-4.3
			c0-1.9,0.4-3.3,1.1-4.3c0.8-1,1.7-1.5,2.9-1.5c1.1,0,2,0.5,2.7,1.5V0h2.5V15.2z M180.6,9.5c0,1.2,0.1,2,0.4,2.6
			c0.4,0.8,1,1.1,1.7,1.1c0.6,0,1.1-0.3,1.5-0.9c0.4-0.6,0.6-1.4,0.6-2.6c0-1.3-0.2-2.2-0.6-2.7c-0.4-0.6-0.9-0.8-1.5-0.8
			c-0.6,0-1.1,0.3-1.5,0.8S180.6,8.4,180.6,9.5z"/>
		<path d="M192.8,15.2l-3.8-11h2.6l1.8,5.6l0.5,1.9c0.1-0.5,0.2-0.8,0.3-0.9c0.1-0.3,0.2-0.6,0.3-0.9l1.8-5.6h2.6l-3.8,11H192.8z"/>
		<path d="M206.3,11.7l2.5,0.5c-0.3,1.1-0.8,1.9-1.5,2.4c-0.7,0.6-1.6,0.8-2.6,0.8c-1.6,0-2.9-0.6-3.7-1.9c-0.6-1-0.9-2.3-0.9-3.8
			c0-1.8,0.4-3.3,1.2-4.3c0.8-1,1.9-1.5,3.1-1.5c1.4,0,2.5,0.5,3.3,1.6s1.2,2.7,1.2,5h-6.3c0,0.9,0.2,1.5,0.6,2
			c0.4,0.5,0.9,0.7,1.4,0.7c0.4,0,0.7-0.1,1-0.4C206,12.7,206.2,12.3,206.3,11.7z M206.4,8.8c0-0.8-0.2-1.5-0.6-1.9
			c-0.4-0.4-0.8-0.7-1.3-0.7c-0.5,0-1,0.2-1.4,0.7c-0.4,0.5-0.5,1.1-0.5,1.9H206.4z"/>
		<path d="M213.8,15.2h-2.5v-11h2.3v1.6c0.4-0.7,0.8-1.2,1.1-1.5c0.3-0.2,0.7-0.4,1.1-0.4c0.6,0,1.1,0.2,1.6,0.5L216.7,7
			c-0.4-0.3-0.8-0.5-1.2-0.5c-0.4,0-0.6,0.1-0.9,0.3c-0.2,0.2-0.4,0.6-0.6,1.2c-0.1,0.6-0.2,1.8-0.2,3.7V15.2z"/>
		<path d="M223.3,4.2v2.3h-1.7V11c0,0.9,0,1.4,0,1.6c0,0.1,0.1,0.3,0.2,0.4c0.1,0.1,0.3,0.1,0.4,0.1c0.2,0,0.6-0.1,1-0.3l0.2,2.3
			c-0.6,0.3-1.2,0.4-2,0.4c-0.5,0-0.9-0.1-1.2-0.3c-0.4-0.2-0.6-0.4-0.8-0.7s-0.3-0.7-0.4-1.1c-0.1-0.3-0.1-1-0.1-2.1V6.5H218V4.2
			h1.2V2l2.5-1.7v3.9H223.3z"/>
		<path d="M225.5,2.7V0h2.5v2.7H225.5z M225.5,15.2v-11h2.5v11H225.5z"/>
		<path d="M230.2,12.1l2.5-0.4c0.1,0.6,0.3,1,0.7,1.3c0.3,0.3,0.8,0.4,1.4,0.4c0.6,0,1.1-0.1,1.5-0.4c0.2-0.2,0.3-0.5,0.3-0.8
			c0-0.2-0.1-0.4-0.2-0.5c-0.1-0.1-0.4-0.3-0.8-0.4c-2-0.5-3.3-1-3.8-1.4c-0.7-0.6-1.1-1.4-1.1-2.5c0-1,0.3-1.8,1-2.4s1.7-1,3-1
			c1.3,0,2.3,0.2,2.9,0.7c0.6,0.5,1.1,1.2,1.3,2.2l-2.4,0.5c-0.1-0.4-0.3-0.8-0.6-1c-0.3-0.2-0.7-0.3-1.2-0.3
			c-0.7,0-1.1,0.1-1.4,0.3c-0.2,0.2-0.3,0.3-0.3,0.6c0,0.2,0.1,0.4,0.3,0.5c0.2,0.2,1,0.5,2.3,0.8s2.3,0.8,2.8,1.3
			c0.5,0.5,0.8,1.2,0.8,2.2c0,1-0.4,1.9-1.1,2.6s-1.8,1.1-3.2,1.1c-1.3,0-2.3-0.3-3.1-0.9C230.9,13.9,230.4,13.1,230.2,12.1z"/>
		<path d="M247.2,11.7l2.5,0.5c-0.3,1.1-0.8,1.9-1.5,2.4c-0.7,0.6-1.6,0.8-2.6,0.8c-1.6,0-2.9-0.6-3.7-1.9c-0.6-1-0.9-2.3-0.9-3.8
			c0-1.8,0.4-3.3,1.2-4.3c0.8-1,1.9-1.5,3.1-1.5c1.4,0,2.5,0.5,3.3,1.6s1.2,2.7,1.2,5h-6.3c0,0.9,0.2,1.5,0.6,2
			c0.4,0.5,0.9,0.7,1.4,0.7c0.4,0,0.7-0.1,1-0.4C246.8,12.7,247,12.3,247.2,11.7z M247.3,8.8c0-0.8-0.2-1.5-0.6-1.9
			c-0.4-0.4-0.8-0.7-1.3-0.7c-0.5,0-1,0.2-1.4,0.7c-0.4,0.5-0.5,1.1-0.5,1.9H247.3z"/>
		<path d="M256.6,4.2h2.7l2.3,7.8l2.2-7.8h2.6L263,14.8l-0.6,1.9c-0.2,0.6-0.4,1.1-0.6,1.5c-0.2,0.3-0.4,0.6-0.7,0.8
			c-0.3,0.2-0.6,0.4-1,0.5c-0.4,0.1-0.8,0.2-1.3,0.2c-0.5,0-1-0.1-1.4-0.2l-0.2-2.3c0.4,0.1,0.7,0.1,1.1,0.1c0.6,0,1-0.2,1.3-0.6
			c0.3-0.4,0.5-0.9,0.6-1.5L256.6,4.2z"/>
		<path d="M267.9,9.5c0-1,0.2-1.9,0.6-2.8c0.4-0.9,1-1.6,1.7-2.1c0.8-0.5,1.6-0.7,2.5-0.7c1.4,0,2.6,0.5,3.5,1.6s1.4,2.4,1.4,4.1
			c0,1.7-0.5,3-1.4,4.1c-0.9,1.1-2.1,1.6-3.5,1.6c-0.9,0-1.7-0.2-2.5-0.7c-0.8-0.5-1.4-1.1-1.8-2C268.1,11.9,267.9,10.8,267.9,9.5z
			 M270.4,9.7c0,1.1,0.2,1.9,0.7,2.5s1,0.9,1.6,0.9c0.7,0,1.2-0.3,1.6-0.9c0.4-0.6,0.7-1.4,0.7-2.5c0-1.1-0.2-1.9-0.7-2.5
			c-0.4-0.6-1-0.9-1.6-0.9c-0.7,0-1.2,0.3-1.6,0.9C270.7,7.8,270.4,8.6,270.4,9.7z"/>
		<path d="M286.3,15.2v-1.6c-0.3,0.6-0.8,1.1-1.4,1.4c-0.6,0.3-1.2,0.5-1.8,0.5c-0.6,0-1.2-0.2-1.7-0.5c-0.5-0.3-0.9-0.8-1.1-1.4
			c-0.2-0.6-0.3-1.4-0.3-2.4v-7h2.5v5.1c0,1.5,0,2.5,0.1,2.8c0.1,0.3,0.3,0.6,0.5,0.8c0.2,0.2,0.6,0.3,0.9,0.3
			c0.4,0,0.8-0.1,1.2-0.4c0.3-0.3,0.6-0.6,0.7-1s0.2-1.4,0.2-3V4.2h2.5v11H286.3z"/>
		<path d="M294.1,15.2h-2.5v-11h2.3v1.6c0.4-0.7,0.8-1.2,1.1-1.5c0.3-0.2,0.7-0.4,1.1-0.4c0.6,0,1.1,0.2,1.6,0.5L296.9,7
			c-0.4-0.3-0.8-0.5-1.2-0.5c-0.4,0-0.6,0.1-0.9,0.3c-0.2,0.2-0.4,0.6-0.6,1.2c-0.1,0.6-0.2,1.8-0.2,3.7V15.2z"/>
		<path d="M304.7,4.2h2.3v1.6c0.3-0.6,0.7-1,1.2-1.3c0.5-0.3,1.1-0.5,1.7-0.5c1.1,0,2,0.5,2.8,1.5c0.8,1,1.2,2.4,1.2,4.2
			c0,1.8-0.4,3.3-1.2,4.3c-0.8,1-1.7,1.5-2.8,1.5c-0.5,0-1-0.1-1.4-0.4s-0.9-0.7-1.3-1.2v5.5h-2.5V4.2z M307.2,9.5
			c0,1.2,0.2,2.2,0.6,2.7c0.4,0.6,0.9,0.9,1.5,0.9c0.6,0,1.1-0.3,1.5-0.8c0.4-0.5,0.6-1.4,0.6-2.7c0-1.2-0.2-2-0.6-2.6
			c-0.4-0.6-0.9-0.8-1.5-0.8c-0.6,0-1.1,0.3-1.5,0.8C307.4,7.6,307.2,8.4,307.2,9.5z"/>
		<path d="M318.8,15.2h-2.5v-11h2.3v1.6c0.4-0.7,0.8-1.2,1.1-1.5c0.3-0.2,0.7-0.4,1.1-0.4c0.6,0,1.1,0.2,1.6,0.5L321.6,7
			c-0.4-0.3-0.8-0.5-1.2-0.5c-0.4,0-0.6,0.1-0.9,0.3c-0.2,0.2-0.4,0.6-0.6,1.2c-0.1,0.6-0.2,1.8-0.2,3.7V15.2z"/>
		<path d="M323.4,9.5c0-1,0.2-1.9,0.6-2.8c0.4-0.9,1-1.6,1.7-2.1c0.8-0.5,1.6-0.7,2.5-0.7c1.4,0,2.6,0.5,3.5,1.6s1.4,2.4,1.4,4.1
			c0,1.7-0.5,3-1.4,4.1c-0.9,1.1-2.1,1.6-3.5,1.6c-0.9,0-1.7-0.2-2.5-0.7c-0.8-0.5-1.4-1.1-1.8-2C323.6,11.9,323.4,10.8,323.4,9.5z
			 M325.9,9.7c0,1.1,0.2,1.9,0.7,2.5s1,0.9,1.6,0.9c0.7,0,1.2-0.3,1.6-0.9c0.4-0.6,0.7-1.4,0.7-2.5c0-1.1-0.2-1.9-0.7-2.5
			c-0.4-0.6-1-0.9-1.6-0.9c-0.7,0-1.2,0.3-1.6,0.9C326.2,7.8,325.9,8.6,325.9,9.7z"/>
		<path d="M335.5,4.2h2.3v1.6c0.3-0.6,0.7-1,1.2-1.3c0.5-0.3,1.1-0.5,1.7-0.5c1.1,0,2,0.5,2.8,1.5c0.8,1,1.2,2.4,1.2,4.2
			c0,1.8-0.4,3.3-1.2,4.3c-0.8,1-1.7,1.5-2.8,1.5c-0.5,0-1-0.1-1.4-0.4s-0.9-0.7-1.3-1.2v5.5h-2.5V4.2z M338,9.5
			c0,1.2,0.2,2.2,0.6,2.7c0.4,0.6,0.9,0.9,1.5,0.9c0.6,0,1.1-0.3,1.5-0.8c0.4-0.5,0.6-1.4,0.6-2.7c0-1.2-0.2-2-0.6-2.6
			c-0.4-0.6-0.9-0.8-1.5-0.8c-0.6,0-1.1,0.3-1.5,0.8C338.2,7.6,338,8.4,338,9.5z"/>
		<path d="M352.7,11.7l2.5,0.5c-0.3,1.1-0.8,1.9-1.5,2.4c-0.7,0.6-1.6,0.8-2.6,0.8c-1.6,0-2.9-0.6-3.7-1.9c-0.6-1-0.9-2.3-0.9-3.8
			c0-1.8,0.4-3.3,1.2-4.3c0.8-1,1.9-1.5,3.1-1.5c1.4,0,2.5,0.5,3.3,1.6s1.2,2.7,1.2,5H349c0,0.9,0.2,1.5,0.6,2
			c0.4,0.5,0.9,0.7,1.4,0.7c0.4,0,0.7-0.1,1-0.4C352.3,12.7,352.5,12.3,352.7,11.7z M352.8,8.8c0-0.8-0.2-1.5-0.6-1.9
			c-0.4-0.4-0.8-0.7-1.3-0.7c-0.5,0-1,0.2-1.4,0.7c-0.4,0.5-0.5,1.1-0.5,1.9H352.8z"/>
		<path d="M360.2,15.2h-2.5v-11h2.3v1.6c0.4-0.7,0.8-1.2,1.1-1.5c0.3-0.2,0.7-0.4,1.1-0.4c0.6,0,1.1,0.2,1.6,0.5L363,7
			c-0.4-0.3-0.8-0.5-1.2-0.5c-0.4,0-0.6,0.1-0.9,0.3c-0.2,0.2-0.4,0.6-0.6,1.2c-0.1,0.6-0.2,1.8-0.2,3.7V15.2z"/>
		<path d="M369.7,4.2v2.3H368V11c0,0.9,0,1.4,0,1.6c0,0.1,0.1,0.3,0.2,0.4c0.1,0.1,0.3,0.1,0.4,0.1c0.2,0,0.6-0.1,1-0.3l0.2,2.3
			c-0.6,0.3-1.2,0.4-2,0.4c-0.5,0-0.9-0.1-1.2-0.3c-0.4-0.2-0.6-0.4-0.8-0.7s-0.3-0.7-0.4-1.1c-0.1-0.3-0.1-1-0.1-2.1V6.5h-1.2V4.2
			h1.2V2l2.5-1.7v3.9H369.7z"/>
		<path d="M371.9,2.7V0h2.5v2.7H371.9z M371.9,15.2v-11h2.5v11H371.9z"/>
		<path d="M382.9,11.7l2.5,0.5c-0.3,1.1-0.8,1.9-1.5,2.4c-0.7,0.6-1.6,0.8-2.6,0.8c-1.6,0-2.9-0.6-3.7-1.9c-0.6-1-0.9-2.3-0.9-3.8
			c0-1.8,0.4-3.3,1.2-4.3c0.8-1,1.9-1.5,3.1-1.5c1.4,0,2.5,0.5,3.3,1.6s1.2,2.7,1.2,5h-6.3c0,0.9,0.2,1.5,0.6,2
			c0.4,0.5,0.9,0.7,1.4,0.7c0.4,0,0.7-0.1,1-0.4C382.6,12.7,382.8,12.3,382.9,11.7z M383.1,8.8c0-0.8-0.2-1.5-0.6-1.9
			c-0.4-0.4-0.8-0.7-1.3-0.7c-0.5,0-1,0.2-1.4,0.7c-0.4,0.5-0.5,1.1-0.5,1.9H383.1z"/>
		<path d="M387.2,12.1l2.5-0.4c0.1,0.6,0.3,1,0.7,1.3c0.3,0.3,0.8,0.4,1.4,0.4c0.6,0,1.1-0.1,1.5-0.4c0.2-0.2,0.3-0.5,0.3-0.8
			c0-0.2-0.1-0.4-0.2-0.5c-0.1-0.1-0.4-0.3-0.8-0.4c-2-0.5-3.3-1-3.8-1.4c-0.7-0.6-1.1-1.4-1.1-2.5c0-1,0.3-1.8,1-2.4s1.7-1,3-1
			c1.3,0,2.3,0.2,2.9,0.7c0.6,0.5,1.1,1.2,1.3,2.2l-2.4,0.5c-0.1-0.4-0.3-0.8-0.6-1c-0.3-0.2-0.7-0.3-1.2-0.3
			c-0.7,0-1.1,0.1-1.4,0.3c-0.2,0.2-0.3,0.3-0.3,0.6c0,0.2,0.1,0.4,0.3,0.5c0.2,0.2,1,0.5,2.3,0.8s2.3,0.8,2.8,1.3
			c0.5,0.5,0.8,1.2,0.8,2.2c0,1-0.4,1.9-1.1,2.6s-1.8,1.1-3.2,1.1c-1.3,0-2.3-0.3-3.1-0.9C387.9,13.9,387.4,13.1,387.2,12.1z"/>
		<path d="M403.6,9.5c0-1,0.2-1.9,0.6-2.8c0.4-0.9,1-1.6,1.7-2.1c0.8-0.5,1.6-0.7,2.5-0.7c1.4,0,2.6,0.5,3.5,1.6s1.4,2.4,1.4,4.1
			c0,1.7-0.5,3-1.4,4.1c-0.9,1.1-2.1,1.6-3.5,1.6c-0.9,0-1.7-0.2-2.5-0.7c-0.8-0.5-1.4-1.1-1.8-2C403.8,11.9,403.6,10.8,403.6,9.5z
			 M406.2,9.7c0,1.1,0.2,1.9,0.7,2.5s1,0.9,1.6,0.9c0.7,0,1.2-0.3,1.6-0.9c0.4-0.6,0.7-1.4,0.7-2.5c0-1.1-0.2-1.9-0.7-2.5
			c-0.4-0.6-1-0.9-1.6-0.9c-0.7,0-1.2,0.3-1.6,0.9C406.4,7.8,406.2,8.6,406.2,9.7z"/>
		<path d="M424.4,15.2h-2.5V9.6c0-1.2-0.1-2-0.2-2.3c-0.1-0.3-0.3-0.6-0.5-0.8s-0.5-0.3-0.9-0.3c-0.4,0-0.8,0.1-1.2,0.4
			c-0.3,0.3-0.6,0.6-0.7,1.1c-0.1,0.5-0.2,1.3-0.2,2.5v5h-2.5v-11h2.3v1.6c0.8-1.2,1.9-1.9,3.1-1.9c0.6,0,1.1,0.1,1.5,0.3
			c0.5,0.2,0.8,0.5,1,0.9c0.2,0.4,0.4,0.8,0.5,1.2c0.1,0.5,0.1,1.1,0.1,2V15.2z"/>
		<path d="M432.4,9.5c0-1,0.2-1.9,0.6-2.8c0.4-0.9,1-1.6,1.7-2.1c0.8-0.5,1.6-0.7,2.5-0.7c1.4,0,2.6,0.5,3.5,1.6s1.4,2.4,1.4,4.1
			c0,1.7-0.5,3-1.4,4.1c-0.9,1.1-2.1,1.6-3.5,1.6c-0.9,0-1.7-0.2-2.5-0.7c-0.8-0.5-1.4-1.1-1.8-2C432.6,11.9,432.4,10.8,432.4,9.5z
			 M434.9,9.7c0,1.1,0.2,1.9,0.7,2.5s1,0.9,1.6,0.9c0.7,0,1.2-0.3,1.6-0.9c0.4-0.6,0.7-1.4,0.7-2.5c0-1.1-0.2-1.9-0.7-2.5
			c-0.4-0.6-1-0.9-1.6-0.9c-0.7,0-1.2,0.3-1.6,0.9C435.2,7.8,434.9,8.6,434.9,9.7z"/>
		<path d="M450.8,15.2v-1.6c-0.3,0.6-0.8,1.1-1.4,1.4c-0.6,0.3-1.2,0.5-1.8,0.5c-0.6,0-1.2-0.2-1.7-0.5c-0.5-0.3-0.9-0.8-1.1-1.4
			c-0.2-0.6-0.3-1.4-0.3-2.4v-7h2.5v5.1c0,1.5,0,2.5,0.1,2.8c0.1,0.3,0.3,0.6,0.5,0.8c0.2,0.2,0.6,0.3,0.9,0.3
			c0.4,0,0.8-0.1,1.2-0.4c0.3-0.3,0.6-0.6,0.7-1s0.2-1.4,0.2-3V4.2h2.5v11H450.8z"/>
		<path d="M458.6,15.2h-2.5v-11h2.3v1.6c0.4-0.7,0.8-1.2,1.1-1.5c0.3-0.2,0.7-0.4,1.1-0.4c0.6,0,1.1,0.2,1.6,0.5L461.4,7
			c-0.4-0.3-0.8-0.5-1.2-0.5c-0.4,0-0.6,0.1-0.9,0.3c-0.2,0.2-0.4,0.6-0.6,1.2c-0.1,0.6-0.2,1.8-0.2,3.7V15.2z"/>
		<path d="M471,15.2l-3-11h2.4l1.8,7.2l1.6-7.2h2.4l1.6,7.2l1.8-7.2h2.5l-3,11h-2.4l-1.6-7.1l-1.6,7.1H471z"/>
		<path d="M489.4,11.7l2.5,0.5c-0.3,1.1-0.8,1.9-1.5,2.4c-0.7,0.6-1.6,0.8-2.6,0.8c-1.6,0-2.9-0.6-3.7-1.9c-0.6-1-0.9-2.3-0.9-3.8
			c0-1.8,0.4-3.3,1.2-4.3c0.8-1,1.9-1.5,3.1-1.5c1.4,0,2.5,0.5,3.3,1.6s1.2,2.7,1.2,5h-6.3c0,0.9,0.2,1.5,0.6,2
			c0.4,0.5,0.9,0.7,1.4,0.7c0.4,0,0.7-0.1,1-0.4C489.1,12.7,489.3,12.3,489.4,11.7z M489.6,8.8c0-0.8-0.2-1.5-0.6-1.9
			c-0.4-0.4-0.8-0.7-1.3-0.7c-0.5,0-1,0.2-1.4,0.7c-0.4,0.5-0.5,1.1-0.5,1.9H489.6z"/>
		<path d="M494.4,15.2V0h2.5v5.5c0.8-1,1.7-1.5,2.7-1.5c1.2,0,2.1,0.5,2.9,1.5c0.8,1,1.1,2.4,1.1,4.2c0,1.9-0.4,3.3-1.2,4.3
			s-1.7,1.5-2.8,1.5c-0.5,0-1.1-0.2-1.6-0.5c-0.5-0.3-1-0.8-1.4-1.4v1.6H494.4z M496.9,9.5c0,1.1,0.2,2,0.5,2.5
			c0.4,0.8,1,1.2,1.7,1.2c0.6,0,1-0.3,1.4-0.8c0.4-0.5,0.6-1.4,0.6-2.6c0-1.3-0.2-2.2-0.6-2.7c-0.4-0.6-0.9-0.8-1.5-0.8
			c-0.6,0-1.1,0.3-1.5,0.8C497.1,7.5,496.9,8.4,496.9,9.5z"/>
		<path d="M505.3,12.1l2.5-0.4c0.1,0.6,0.3,1,0.7,1.3c0.3,0.3,0.8,0.4,1.4,0.4c0.6,0,1.1-0.1,1.5-0.4c0.2-0.2,0.3-0.5,0.3-0.8
			c0-0.2-0.1-0.4-0.2-0.5c-0.1-0.1-0.4-0.3-0.8-0.4c-2-0.5-3.3-1-3.8-1.4c-0.7-0.6-1.1-1.4-1.1-2.5c0-1,0.3-1.8,1-2.4s1.7-1,3-1
			c1.3,0,2.3,0.2,2.9,0.7c0.6,0.5,1.1,1.2,1.3,2.2l-2.4,0.5c-0.1-0.4-0.3-0.8-0.6-1c-0.3-0.2-0.7-0.3-1.2-0.3
			c-0.7,0-1.1,0.1-1.4,0.3c-0.2,0.2-0.3,0.3-0.3,0.6c0,0.2,0.1,0.4,0.3,0.5c0.2,0.2,1,0.5,2.3,0.8s2.3,0.8,2.8,1.3
			c0.5,0.5,0.8,1.2,0.8,2.2c0,1-0.4,1.9-1.1,2.6s-1.8,1.1-3.2,1.1c-1.3,0-2.3-0.3-3.1-0.9C506,13.9,505.5,13.1,505.3,12.1z"/>
		<path d="M516.8,2.7V0h2.5v2.7H516.8z M516.8,15.2v-11h2.5v11H516.8z"/>
		<path d="M526.6,4.2v2.3h-1.7V11c0,0.9,0,1.4,0,1.6c0,0.1,0.1,0.3,0.2,0.4c0.1,0.1,0.3,0.1,0.4,0.1c0.2,0,0.6-0.1,1-0.3l0.2,2.3
			c-0.6,0.3-1.2,0.4-2,0.4c-0.5,0-0.9-0.1-1.2-0.3c-0.4-0.2-0.6-0.4-0.8-0.7s-0.3-0.7-0.4-1.1c-0.1-0.3-0.1-1-0.1-2.1V6.5h-1.2V4.2
			h1.2V2l2.5-1.7v3.9H526.6z"/>
		<path d="M534.3,11.7l2.5,0.5c-0.3,1.1-0.8,1.9-1.5,2.4c-0.7,0.6-1.6,0.8-2.6,0.8c-1.6,0-2.9-0.6-3.7-1.9c-0.6-1-0.9-2.3-0.9-3.8
			c0-1.8,0.4-3.3,1.2-4.3c0.8-1,1.9-1.5,3.1-1.5c1.4,0,2.5,0.5,3.3,1.6s1.2,2.7,1.2,5h-6.3c0,0.9,0.2,1.5,0.6,2
			c0.4,0.5,0.9,0.7,1.4,0.7c0.4,0,0.7-0.1,1-0.4C534,12.7,534.2,12.3,534.3,11.7z M534.5,8.8c0-0.8-0.2-1.5-0.6-1.9
			c-0.4-0.4-0.8-0.7-1.3-0.7c-0.5,0-1,0.2-1.4,0.7c-0.4,0.5-0.5,1.1-0.5,1.9H534.5z"/>
		<path d="M540.4,11.3l-0.7-7.7V0h2.7v3.6l-0.6,7.7H540.4z M539.9,15.2v-2.9h2.5v2.9H539.9z"/>
	</g>
	<g>
		<path d="M103.9,313.2l-3.1-15.2h2.7l2,10.4l2.4-10.4h3.1l2.3,10.6l2-10.6h2.7l-3.2,15.2h-2.8l-2.6-11.4l-2.6,11.4H103.9z"/>
		<path d="M125.2,309.7l2.5,0.5c-0.3,1.1-0.8,1.9-1.5,2.4c-0.7,0.6-1.6,0.8-2.6,0.8c-1.6,0-2.9-0.6-3.7-1.9c-0.6-1-0.9-2.3-0.9-3.8
			c0-1.8,0.4-3.3,1.2-4.3c0.8-1,1.9-1.5,3.1-1.5c1.4,0,2.5,0.5,3.3,1.6s1.2,2.7,1.2,5h-6.3c0,0.9,0.2,1.5,0.6,2
			c0.4,0.5,0.9,0.7,1.4,0.7c0.4,0,0.7-0.1,1-0.4C124.8,310.7,125,310.3,125.2,309.7z M125.3,306.8c0-0.8-0.2-1.5-0.6-1.9
			c-0.4-0.4-0.8-0.7-1.3-0.7c-0.5,0-1,0.2-1.4,0.7c-0.4,0.5-0.5,1.1-0.5,1.9H125.3z"/>
		<path d="M144.5,313.2h-2.3v-1.6c-0.4,0.6-0.8,1.1-1.4,1.4s-1.1,0.5-1.6,0.5c-1.1,0-2-0.5-2.8-1.5c-0.8-1-1.2-2.4-1.2-4.3
			c0-1.9,0.4-3.3,1.1-4.3c0.8-1,1.7-1.5,2.9-1.5c1.1,0,2,0.5,2.7,1.5V298h2.5V313.2z M137.8,307.5c0,1.2,0.1,2,0.4,2.6
			c0.4,0.8,1,1.1,1.7,1.1c0.6,0,1.1-0.3,1.5-0.9c0.4-0.6,0.6-1.4,0.6-2.6c0-1.3-0.2-2.2-0.6-2.7c-0.4-0.6-0.9-0.8-1.5-0.8
			c-0.6,0-1.1,0.3-1.5,0.8S137.8,306.4,137.8,307.5z"/>
		<path d="M146.9,307.5c0-1,0.2-1.9,0.6-2.8c0.4-0.9,1-1.6,1.7-2.1c0.8-0.5,1.6-0.7,2.5-0.7c1.4,0,2.6,0.5,3.5,1.6s1.4,2.4,1.4,4.1
			c0,1.7-0.5,3-1.4,4.1c-0.9,1.1-2.1,1.6-3.5,1.6c-0.9,0-1.7-0.2-2.5-0.7c-0.8-0.5-1.4-1.1-1.8-2
			C147.1,309.9,146.9,308.8,146.9,307.5z M149.4,307.7c0,1.1,0.2,1.9,0.7,2.5s1,0.9,1.6,0.9c0.7,0,1.2-0.3,1.6-0.9
			c0.4-0.6,0.7-1.4,0.7-2.5c0-1.1-0.2-1.9-0.7-2.5c-0.4-0.6-1-0.9-1.6-0.9c-0.7,0-1.2,0.3-1.6,0.9
			C149.7,305.8,149.4,306.6,149.4,307.7z"/>
		<path d="M173.2,313.2h-2.5v-5.6c0-1.2-0.1-2-0.2-2.3c-0.1-0.3-0.3-0.6-0.5-0.8s-0.5-0.3-0.9-0.3c-0.4,0-0.8,0.1-1.2,0.4
			c-0.3,0.3-0.6,0.6-0.7,1.1c-0.1,0.5-0.2,1.3-0.2,2.5v5h-2.5v-11h2.3v1.6c0.8-1.2,1.9-1.9,3.1-1.9c0.6,0,1.1,0.1,1.5,0.3
			c0.5,0.2,0.8,0.5,1,0.9c0.2,0.4,0.4,0.8,0.5,1.2c0.1,0.5,0.1,1.1,0.1,2V313.2z"/>
		<path d="M175.6,307.5c0-1,0.2-1.9,0.6-2.8c0.4-0.9,1-1.6,1.7-2.1c0.8-0.5,1.6-0.7,2.5-0.7c1.4,0,2.6,0.5,3.5,1.6s1.4,2.4,1.4,4.1
			c0,1.7-0.5,3-1.4,4.1c-0.9,1.1-2.1,1.6-3.5,1.6c-0.9,0-1.7-0.2-2.5-0.7c-0.8-0.5-1.4-1.1-1.8-2
			C175.8,309.9,175.6,308.8,175.6,307.5z M178.2,307.7c0,1.1,0.2,1.9,0.7,2.5s1,0.9,1.6,0.9c0.7,0,1.2-0.3,1.6-0.9
			c0.4-0.6,0.7-1.4,0.7-2.5c0-1.1-0.2-1.9-0.7-2.5c-0.4-0.6-1-0.9-1.6-0.9c-0.7,0-1.2,0.3-1.6,0.9
			C178.4,305.8,178.2,306.6,178.2,307.7z"/>
		<path d="M192.2,302.2v2.3h-1.7v4.4c0,0.9,0,1.4,0,1.6c0,0.1,0.1,0.3,0.2,0.4c0.1,0.1,0.3,0.1,0.4,0.1c0.2,0,0.6-0.1,1-0.3l0.2,2.3
			c-0.6,0.3-1.2,0.4-2,0.4c-0.5,0-0.9-0.1-1.2-0.3c-0.4-0.2-0.6-0.4-0.8-0.7s-0.3-0.7-0.4-1.1c-0.1-0.3-0.1-1-0.1-2.1v-4.8h-1.2
			v-2.3h1.2V300l2.5-1.7v3.9H192.2z"/>
		<path d="M208.1,305.4l-2.5,0.5c-0.1-0.6-0.3-1-0.6-1.3c-0.3-0.3-0.7-0.4-1.1-0.4c-0.6,0-1.1,0.3-1.5,0.8c-0.4,0.5-0.6,1.3-0.6,2.5
			c0,1.3,0.2,2.2,0.6,2.8c0.4,0.5,0.9,0.8,1.5,0.8c0.5,0,0.9-0.2,1.2-0.5s0.5-0.9,0.6-1.6l2.5,0.5c-0.3,1.3-0.7,2.3-1.5,3
			s-1.7,1-2.9,1c-1.4,0-2.5-0.5-3.3-1.5c-0.8-1-1.2-2.4-1.2-4.2c0-1.8,0.4-3.2,1.2-4.2c0.8-1,1.9-1.5,3.4-1.5c1.2,0,2.1,0.3,2.8,0.9
			C207.4,303.4,207.8,304.3,208.1,305.4z"/>
		<path d="M213,298v5.6c0.8-1.1,1.8-1.6,2.9-1.6c0.6,0,1.1,0.1,1.6,0.4c0.5,0.2,0.8,0.6,1,1c0.2,0.4,0.4,0.8,0.5,1.3
			c0.1,0.5,0.1,1.2,0.1,2.2v6.5h-2.5v-5.8c0-1.2,0-1.9-0.1-2.2c-0.1-0.3-0.3-0.6-0.5-0.7c-0.2-0.2-0.5-0.3-0.9-0.3
			c-0.4,0-0.8,0.1-1.1,0.4s-0.6,0.6-0.7,1.1c-0.2,0.5-0.2,1.2-0.2,2.1v5.5h-2.5V298H213z"/>
		<path d="M224,305.5l-2.3-0.5c0.3-1.1,0.7-1.9,1.3-2.4c0.6-0.5,1.6-0.8,2.8-0.8c1.1,0,2,0.2,2.5,0.5s0.9,0.7,1.2,1.2
			c0.2,0.5,0.3,1.3,0.3,2.6l0,3.4c0,1,0,1.7,0.1,2.1s0.2,1,0.5,1.5h-2.5c-0.1-0.2-0.1-0.5-0.2-0.9c0-0.2-0.1-0.3-0.1-0.3
			c-0.4,0.5-0.9,0.8-1.4,1.1s-1,0.4-1.6,0.4c-1,0-1.7-0.3-2.3-0.9c-0.6-0.6-0.8-1.4-0.8-2.3c0-0.6,0.1-1.2,0.4-1.7
			c0.3-0.5,0.6-0.9,1.1-1.1c0.5-0.3,1.1-0.5,2-0.7c1.2-0.3,2-0.5,2.4-0.7v-0.3c0-0.6-0.1-1-0.4-1.2c-0.2-0.2-0.7-0.4-1.3-0.4
			c-0.4,0-0.8,0.1-1,0.3C224.3,304.7,224.1,305,224,305.5z M227.3,307.9c-0.3,0.1-0.8,0.3-1.5,0.4c-0.7,0.2-1.2,0.3-1.4,0.5
			c-0.3,0.3-0.5,0.6-0.5,1c0,0.4,0.1,0.8,0.4,1.1c0.3,0.3,0.6,0.4,1,0.4c0.5,0,0.9-0.2,1.3-0.5c0.3-0.3,0.5-0.6,0.6-1
			c0.1-0.2,0.1-0.7,0.1-1.4V307.9z"/>
		<path d="M235.1,313.2h-2.5v-11h2.3v1.6c0.4-0.7,0.8-1.2,1.1-1.5c0.3-0.2,0.7-0.4,1.1-0.4c0.6,0,1.1,0.2,1.6,0.5L238,305
			c-0.4-0.3-0.8-0.5-1.2-0.5c-0.4,0-0.6,0.1-0.9,0.3c-0.2,0.2-0.4,0.6-0.6,1.2c-0.1,0.6-0.2,1.8-0.2,3.7V313.2z"/>
		<path d="M240.1,313.9l2.9,0.4c0,0.4,0.2,0.7,0.3,0.8c0.2,0.2,0.6,0.3,1.1,0.3c0.7,0,1.1-0.1,1.5-0.3c0.2-0.2,0.4-0.4,0.5-0.7
			c0.1-0.2,0.1-0.7,0.1-1.3v-1.6c-0.7,1.2-1.7,1.8-2.8,1.8c-1.3,0-2.3-0.6-3-1.9c-0.6-1-0.9-2.2-0.9-3.7c0-1.8,0.4-3.3,1.1-4.2
			s1.7-1.5,2.8-1.5c1.2,0,2.1,0.6,2.9,1.8v-1.5h2.3v9.9c0,1.3-0.1,2.3-0.3,2.9c-0.2,0.6-0.4,1.1-0.8,1.5s-0.8,0.7-1.3,0.9
			c-0.6,0.2-1.3,0.3-2.1,0.3c-1.6,0-2.7-0.3-3.4-1c-0.7-0.6-1-1.5-1-2.4C240.1,314.2,240.1,314.1,240.1,313.9z M242.3,307.5
			c0,1.2,0.2,2,0.6,2.6c0.4,0.5,0.9,0.8,1.4,0.8c0.6,0,1.1-0.3,1.6-0.8c0.4-0.6,0.6-1.4,0.6-2.5c0-1.1-0.2-2-0.6-2.5
			c-0.4-0.6-0.9-0.8-1.5-0.8c-0.6,0-1.1,0.3-1.5,0.8C242.5,305.5,242.3,306.4,242.3,307.5z"/>
		<path d="M257.4,309.7l2.5,0.5c-0.3,1.1-0.8,1.9-1.5,2.4c-0.7,0.6-1.6,0.8-2.6,0.8c-1.6,0-2.9-0.6-3.7-1.9c-0.6-1-0.9-2.3-0.9-3.8
			c0-1.8,0.4-3.3,1.2-4.3c0.8-1,1.9-1.5,3.1-1.5c1.4,0,2.5,0.5,3.3,1.6s1.2,2.7,1.2,5h-6.3c0,0.9,0.2,1.5,0.6,2
			c0.4,0.5,0.9,0.7,1.4,0.7c0.4,0,0.7-0.1,1-0.4C257.1,310.7,257.3,310.3,257.4,309.7z M257.5,306.8c0-0.8-0.2-1.5-0.6-1.9
			c-0.4-0.4-0.8-0.7-1.3-0.7c-0.5,0-1,0.2-1.4,0.7c-0.4,0.5-0.5,1.1-0.5,1.9H257.5z"/>
		<path d="M269.9,305.5l-2.3-0.5c0.3-1.1,0.7-1.9,1.3-2.4c0.6-0.5,1.6-0.8,2.8-0.8c1.1,0,2,0.2,2.5,0.5s0.9,0.7,1.2,1.2
			c0.2,0.5,0.3,1.3,0.3,2.6l0,3.4c0,1,0,1.7,0.1,2.1s0.2,1,0.5,1.5h-2.5c-0.1-0.2-0.1-0.5-0.2-0.9c0-0.2-0.1-0.3-0.1-0.3
			c-0.4,0.5-0.9,0.8-1.4,1.1s-1,0.4-1.6,0.4c-1,0-1.7-0.3-2.3-0.9c-0.6-0.6-0.8-1.4-0.8-2.3c0-0.6,0.1-1.2,0.4-1.7
			c0.3-0.5,0.6-0.9,1.1-1.1c0.5-0.3,1.1-0.5,2-0.7c1.2-0.3,2-0.5,2.4-0.7v-0.3c0-0.6-0.1-1-0.4-1.2c-0.2-0.2-0.7-0.4-1.3-0.4
			c-0.4,0-0.8,0.1-1,0.3C270.3,304.7,270.1,305,269.9,305.5z M273.3,307.9c-0.3,0.1-0.8,0.3-1.5,0.4c-0.7,0.2-1.2,0.3-1.4,0.5
			c-0.3,0.3-0.5,0.6-0.5,1c0,0.4,0.1,0.8,0.4,1.1c0.3,0.3,0.6,0.4,1,0.4c0.5,0,0.9-0.2,1.3-0.5c0.3-0.3,0.5-0.6,0.6-1
			c0.1-0.2,0.1-0.7,0.1-1.4V307.9z"/>
		<path d="M287.3,313.2h-2.5v-5.6c0-1.2-0.1-2-0.2-2.3c-0.1-0.3-0.3-0.6-0.5-0.8s-0.5-0.3-0.9-0.3c-0.4,0-0.8,0.1-1.2,0.4
			c-0.3,0.3-0.6,0.6-0.7,1.1c-0.1,0.5-0.2,1.3-0.2,2.5v5h-2.5v-11h2.3v1.6c0.8-1.2,1.9-1.9,3.1-1.9c0.6,0,1.1,0.1,1.5,0.3
			c0.5,0.2,0.8,0.5,1,0.9c0.2,0.4,0.4,0.8,0.5,1.2c0.1,0.5,0.1,1.1,0.1,2V313.2z"/>
		<path d="M289.1,302.2h2.7l2.3,7.8l2.2-7.8h2.6l-3.3,10.6l-0.6,1.9c-0.2,0.6-0.4,1.1-0.6,1.5c-0.2,0.3-0.4,0.6-0.7,0.8
			c-0.3,0.2-0.6,0.4-1,0.5c-0.4,0.1-0.8,0.2-1.3,0.2c-0.5,0-1-0.1-1.4-0.2l-0.2-2.3c0.4,0.1,0.7,0.1,1.1,0.1c0.6,0,1-0.2,1.3-0.6
			c0.3-0.4,0.5-0.9,0.6-1.5L289.1,302.2z"/>
		<path d="M308.3,305.5l-2.3-0.5c0.3-1.1,0.7-1.9,1.3-2.4c0.6-0.5,1.6-0.8,2.8-0.8c1.1,0,2,0.2,2.5,0.5s0.9,0.7,1.2,1.2
			c0.2,0.5,0.3,1.3,0.3,2.6l0,3.4c0,1,0,1.7,0.1,2.1s0.2,1,0.5,1.5h-2.5c-0.1-0.2-0.1-0.5-0.2-0.9c0-0.2-0.1-0.3-0.1-0.3
			c-0.4,0.5-0.9,0.8-1.4,1.1s-1,0.4-1.6,0.4c-1,0-1.7-0.3-2.3-0.9c-0.6-0.6-0.8-1.4-0.8-2.3c0-0.6,0.1-1.2,0.4-1.7
			c0.3-0.5,0.6-0.9,1.1-1.1c0.5-0.3,1.1-0.5,2-0.7c1.2-0.3,2-0.5,2.4-0.7v-0.3c0-0.6-0.1-1-0.4-1.2c-0.2-0.2-0.7-0.4-1.3-0.4
			c-0.4,0-0.8,0.1-1,0.3C308.7,304.7,308.5,305,308.3,305.5z M311.7,307.9c-0.3,0.1-0.8,0.3-1.5,0.4c-0.7,0.2-1.2,0.3-1.4,0.5
			c-0.3,0.3-0.5,0.6-0.5,1c0,0.4,0.1,0.8,0.4,1.1c0.3,0.3,0.6,0.4,1,0.4c0.5,0,0.9-0.2,1.3-0.5c0.3-0.3,0.5-0.6,0.6-1
			c0.1-0.2,0.1-0.7,0.1-1.4V307.9z"/>
		<path d="M325.7,313.2h-2.3v-1.6c-0.4,0.6-0.8,1.1-1.4,1.4s-1.1,0.5-1.6,0.5c-1.1,0-2-0.5-2.8-1.5c-0.8-1-1.2-2.4-1.2-4.3
			c0-1.9,0.4-3.3,1.1-4.3c0.8-1,1.7-1.5,2.9-1.5c1.1,0,2,0.5,2.7,1.5V298h2.5V313.2z M319,307.5c0,1.2,0.1,2,0.4,2.6
			c0.4,0.8,1,1.1,1.7,1.1c0.6,0,1.1-0.3,1.5-0.9c0.4-0.6,0.6-1.4,0.6-2.6c0-1.3-0.2-2.2-0.6-2.7c-0.4-0.6-0.9-0.8-1.5-0.8
			c-0.6,0-1.1,0.3-1.5,0.8S319,306.4,319,307.5z"/>
		<path d="M331.3,313.2l-3.8-11h2.6l1.8,5.6l0.5,1.9c0.1-0.5,0.2-0.8,0.3-0.9c0.1-0.3,0.2-0.6,0.3-0.9l1.8-5.6h2.6l-3.8,11H331.3z"
			/>
		<path d="M344.8,309.7l2.5,0.5c-0.3,1.1-0.8,1.9-1.5,2.4c-0.7,0.6-1.6,0.8-2.6,0.8c-1.6,0-2.9-0.6-3.7-1.9c-0.6-1-0.9-2.3-0.9-3.8
			c0-1.8,0.4-3.3,1.2-4.3c0.8-1,1.9-1.5,3.1-1.5c1.4,0,2.5,0.5,3.3,1.6s1.2,2.7,1.2,5h-6.3c0,0.9,0.2,1.5,0.6,2
			c0.4,0.5,0.9,0.7,1.4,0.7c0.4,0,0.7-0.1,1-0.4C344.4,310.7,344.6,310.3,344.8,309.7z M344.9,306.8c0-0.8-0.2-1.5-0.6-1.9
			c-0.4-0.4-0.8-0.7-1.3-0.7c-0.5,0-1,0.2-1.4,0.7c-0.4,0.5-0.5,1.1-0.5,1.9H344.9z"/>
		<path d="M352.3,313.2h-2.5v-11h2.3v1.6c0.4-0.7,0.8-1.2,1.1-1.5c0.3-0.2,0.7-0.4,1.1-0.4c0.6,0,1.1,0.2,1.6,0.5l-0.8,2.5
			c-0.4-0.3-0.8-0.5-1.2-0.5c-0.4,0-0.6,0.1-0.9,0.3c-0.2,0.2-0.4,0.6-0.6,1.2c-0.1,0.6-0.2,1.8-0.2,3.7V313.2z"/>
		<path d="M361.8,302.2v2.3h-1.7v4.4c0,0.9,0,1.4,0,1.6c0,0.1,0.1,0.3,0.2,0.4c0.1,0.1,0.3,0.1,0.4,0.1c0.2,0,0.6-0.1,1-0.3l0.2,2.3
			c-0.6,0.3-1.2,0.4-2,0.4c-0.5,0-0.9-0.1-1.2-0.3c-0.4-0.2-0.6-0.4-0.8-0.7s-0.3-0.7-0.4-1.1c-0.1-0.3-0.1-1-0.1-2.1v-4.8h-1.2
			v-2.3h1.2V300l2.5-1.7v3.9H361.8z"/>
		<path d="M364,300.7V298h2.5v2.7H364z M364,313.2v-11h2.5v11H364z"/>
		<path d="M368.6,310.1l2.5-0.4c0.1,0.6,0.3,1,0.7,1.3c0.3,0.3,0.8,0.4,1.4,0.4c0.6,0,1.1-0.1,1.5-0.4c0.2-0.2,0.3-0.5,0.3-0.8
			c0-0.2-0.1-0.4-0.2-0.5c-0.1-0.1-0.4-0.3-0.8-0.4c-2-0.5-3.3-1-3.8-1.4c-0.7-0.6-1.1-1.4-1.1-2.5c0-1,0.3-1.8,1-2.4s1.7-1,3-1
			c1.3,0,2.3,0.2,2.9,0.7c0.6,0.5,1.1,1.2,1.3,2.2l-2.4,0.5c-0.1-0.4-0.3-0.8-0.6-1c-0.3-0.2-0.7-0.3-1.2-0.3
			c-0.7,0-1.1,0.1-1.4,0.3c-0.2,0.2-0.3,0.3-0.3,0.6c0,0.2,0.1,0.4,0.3,0.5c0.2,0.2,1,0.5,2.3,0.8s2.3,0.8,2.8,1.3
			c0.5,0.5,0.8,1.2,0.8,2.2c0,1-0.4,1.9-1.1,2.6s-1.8,1.1-3.2,1.1c-1.3,0-2.3-0.3-3.1-0.9C369.4,311.9,368.9,311.1,368.6,310.1z"/>
		<path d="M380.1,300.7V298h2.5v2.7H380.1z M380.1,313.2v-11h2.5v11H380.1z"/>
		<path d="M394.3,313.2h-2.5v-5.6c0-1.2-0.1-2-0.2-2.3c-0.1-0.3-0.3-0.6-0.5-0.8s-0.5-0.3-0.9-0.3c-0.4,0-0.8,0.1-1.2,0.4
			c-0.3,0.3-0.6,0.6-0.7,1.1c-0.1,0.5-0.2,1.3-0.2,2.5v5h-2.5v-11h2.3v1.6c0.8-1.2,1.9-1.9,3.1-1.9c0.6,0,1.1,0.1,1.5,0.3
			c0.5,0.2,0.8,0.5,1,0.9c0.2,0.4,0.4,0.8,0.5,1.2c0.1,0.5,0.1,1.1,0.1,2V313.2z"/>
		<path d="M397.1,313.9l2.9,0.4c0,0.4,0.2,0.7,0.3,0.8c0.2,0.2,0.6,0.3,1.1,0.3c0.7,0,1.1-0.1,1.5-0.3c0.2-0.2,0.4-0.4,0.5-0.7
			c0.1-0.2,0.1-0.7,0.1-1.3v-1.6c-0.7,1.2-1.7,1.8-2.8,1.8c-1.3,0-2.3-0.6-3-1.9c-0.6-1-0.9-2.2-0.9-3.7c0-1.8,0.4-3.3,1.1-4.2
			s1.7-1.5,2.8-1.5c1.2,0,2.1,0.6,2.9,1.8v-1.5h2.3v9.9c0,1.3-0.1,2.3-0.3,2.9c-0.2,0.6-0.4,1.1-0.8,1.5s-0.8,0.7-1.3,0.9
			c-0.6,0.2-1.3,0.3-2.1,0.3c-1.6,0-2.7-0.3-3.4-1c-0.7-0.6-1-1.5-1-2.4C397,314.2,397,314.1,397.1,313.9z M399.3,307.5
			c0,1.2,0.2,2,0.6,2.6c0.4,0.5,0.9,0.8,1.4,0.8c0.6,0,1.1-0.3,1.6-0.8c0.4-0.6,0.6-1.4,0.6-2.5c0-1.1-0.2-2-0.6-2.5
			c-0.4-0.6-0.9-0.8-1.5-0.8c-0.6,0-1.1,0.3-1.5,0.8C399.5,305.5,399.3,306.4,399.3,307.5z"/>
		<path d="M413.3,302.2h1.4v-0.8c0-0.9,0.1-1.6,0.3-2.1s0.5-0.8,0.9-1.1c0.5-0.3,1-0.4,1.7-0.4c0.7,0,1.4,0.1,2.1,0.4l-0.3,2
			c-0.4-0.1-0.8-0.2-1.2-0.2c-0.4,0-0.6,0.1-0.8,0.3c-0.2,0.2-0.2,0.6-0.2,1.1v0.8h1.9v2.3h-1.9v8.7h-2.5v-8.7h-1.4V302.2z"/>
		<path d="M426.5,309.7l2.5,0.5c-0.3,1.1-0.8,1.9-1.5,2.4c-0.7,0.6-1.6,0.8-2.6,0.8c-1.6,0-2.9-0.6-3.7-1.9c-0.6-1-0.9-2.3-0.9-3.8
			c0-1.8,0.4-3.3,1.2-4.3c0.8-1,1.9-1.5,3.1-1.5c1.4,0,2.5,0.5,3.3,1.6s1.2,2.7,1.2,5h-6.3c0,0.9,0.2,1.5,0.6,2
			c0.4,0.5,0.9,0.7,1.4,0.7c0.4,0,0.7-0.1,1-0.4C426.1,310.7,426.3,310.3,426.5,309.7z M426.6,306.8c0-0.8-0.2-1.5-0.6-1.9
			c-0.4-0.4-0.8-0.7-1.3-0.7c-0.5,0-1,0.2-1.4,0.7c-0.4,0.5-0.5,1.1-0.5,1.9H426.6z"/>
		<path d="M437.1,309.7l2.5,0.5c-0.3,1.1-0.8,1.9-1.5,2.4c-0.7,0.6-1.6,0.8-2.6,0.8c-1.6,0-2.9-0.6-3.7-1.9c-0.6-1-0.9-2.3-0.9-3.8
			c0-1.8,0.4-3.3,1.2-4.3c0.8-1,1.9-1.5,3.1-1.5c1.4,0,2.5,0.5,3.3,1.6s1.2,2.7,1.2,5h-6.3c0,0.9,0.2,1.5,0.6,2
			c0.4,0.5,0.9,0.7,1.4,0.7c0.4,0,0.7-0.1,1-0.4C436.7,310.7,436.9,310.3,437.1,309.7z M437.2,306.8c0-0.8-0.2-1.5-0.6-1.9
			c-0.4-0.4-0.8-0.7-1.3-0.7c-0.5,0-1,0.2-1.4,0.7c-0.4,0.5-0.5,1.1-0.5,1.9H437.2z"/>
		<path d="M442.2,313.2v-2.9h2.5v2.9H442.2z"/>
		<path d="M102,341v-15.2h9v2.6h-6.3v3.6h5.5v2.6h-5.5v6.5H102z"/>
		<path d="M119.1,337.5l2.5,0.5c-0.3,1.1-0.8,1.9-1.5,2.4c-0.7,0.6-1.6,0.8-2.6,0.8c-1.6,0-2.9-0.6-3.7-1.9c-0.6-1-0.9-2.3-0.9-3.8
			c0-1.8,0.4-3.3,1.2-4.3c0.8-1,1.9-1.5,3.1-1.5c1.4,0,2.5,0.5,3.3,1.6s1.2,2.7,1.2,5h-6.3c0,0.9,0.2,1.5,0.6,2
			c0.4,0.5,0.9,0.7,1.4,0.7c0.4,0,0.7-0.1,1-0.4C118.8,338.4,119,338,119.1,337.5z M119.2,334.5c0-0.8-0.2-1.5-0.6-1.9
			c-0.4-0.4-0.8-0.7-1.3-0.7c-0.5,0-1,0.2-1.4,0.7c-0.4,0.5-0.5,1.1-0.5,1.9H119.2z"/>
		<path d="M129.7,337.5l2.5,0.5c-0.3,1.1-0.8,1.9-1.5,2.4c-0.7,0.6-1.6,0.8-2.6,0.8c-1.6,0-2.9-0.6-3.7-1.9c-0.6-1-0.9-2.3-0.9-3.8
			c0-1.8,0.4-3.3,1.2-4.3c0.8-1,1.9-1.5,3.1-1.5c1.4,0,2.5,0.5,3.3,1.6s1.2,2.7,1.2,5h-6.3c0,0.9,0.2,1.5,0.6,2
			c0.4,0.5,0.9,0.7,1.4,0.7c0.4,0,0.7-0.1,1-0.4C129.4,338.4,129.6,338,129.7,337.5z M129.8,334.5c0-0.8-0.2-1.5-0.6-1.9
			c-0.4-0.4-0.8-0.7-1.3-0.7c-0.5,0-1,0.2-1.4,0.7c-0.4,0.5-0.5,1.1-0.5,1.9H129.8z"/>
		<path d="M134.8,341v-15.2h2.5V341H134.8z"/>
		<path d="M144.8,330h1.4v-0.8c0-0.9,0.1-1.6,0.3-2.1s0.5-0.8,0.9-1.1c0.5-0.3,1-0.4,1.7-0.4c0.7,0,1.4,0.1,2.1,0.4l-0.3,2
			c-0.4-0.1-0.8-0.2-1.2-0.2c-0.4,0-0.6,0.1-0.8,0.3c-0.2,0.2-0.2,0.6-0.2,1.1v0.8h1.9v2.3h-1.9v8.7h-2.5v-8.7h-1.4V330z"/>
		<path d="M154.8,341h-2.5v-11h2.3v1.6c0.4-0.7,0.8-1.2,1.1-1.5c0.3-0.2,0.7-0.4,1.1-0.4c0.6,0,1.1,0.2,1.6,0.5l-0.8,2.5
			c-0.4-0.3-0.8-0.5-1.2-0.5c-0.4,0-0.6,0.1-0.9,0.3c-0.2,0.2-0.4,0.6-0.6,1.2c-0.1,0.6-0.2,1.8-0.2,3.7V341z"/>
		<path d="M165.5,337.5l2.5,0.5c-0.3,1.1-0.8,1.9-1.5,2.4c-0.7,0.6-1.6,0.8-2.6,0.8c-1.6,0-2.9-0.6-3.7-1.9c-0.6-1-0.9-2.3-0.9-3.8
			c0-1.8,0.4-3.3,1.2-4.3c0.8-1,1.9-1.5,3.1-1.5c1.4,0,2.5,0.5,3.3,1.6s1.2,2.7,1.2,5h-6.3c0,0.9,0.2,1.5,0.6,2
			c0.4,0.5,0.9,0.7,1.4,0.7c0.4,0,0.7-0.1,1-0.4C165.1,338.4,165.3,338,165.5,337.5z M165.6,334.5c0-0.8-0.2-1.5-0.6-1.9
			c-0.4-0.4-0.8-0.7-1.3-0.7c-0.5,0-1,0.2-1.4,0.7c-0.4,0.5-0.5,1.1-0.5,1.9H165.6z"/>
		<path d="M176.1,337.5l2.5,0.5c-0.3,1.1-0.8,1.9-1.5,2.4c-0.7,0.6-1.6,0.8-2.6,0.8c-1.6,0-2.9-0.6-3.7-1.9c-0.6-1-0.9-2.3-0.9-3.8
			c0-1.8,0.4-3.3,1.2-4.3c0.8-1,1.9-1.5,3.1-1.5c1.4,0,2.5,0.5,3.3,1.6s1.2,2.7,1.2,5h-6.3c0,0.9,0.2,1.5,0.6,2
			c0.4,0.5,0.9,0.7,1.4,0.7c0.4,0,0.7-0.1,1-0.4C175.8,338.4,176,338,176.1,337.5z M176.2,334.5c0-0.8-0.2-1.5-0.6-1.9
			c-0.4-0.4-0.8-0.7-1.3-0.7c-0.5,0-1,0.2-1.4,0.7c-0.4,0.5-0.5,1.1-0.5,1.9H176.2z"/>
		<path d="M191.1,330v2.3h-1.7v4.4c0,0.9,0,1.4,0,1.6c0,0.1,0.1,0.3,0.2,0.4c0.1,0.1,0.3,0.1,0.4,0.1c0.2,0,0.6-0.1,1-0.3l0.2,2.3
			c-0.6,0.3-1.2,0.4-2,0.4c-0.5,0-0.9-0.1-1.2-0.3c-0.4-0.2-0.6-0.4-0.8-0.7s-0.3-0.7-0.4-1.1c-0.1-0.3-0.1-1-0.1-2.1v-4.8h-1.2V330
			h1.2v-2.2l2.5-1.7v3.9H191.1z"/>
		<path d="M192.7,335.3c0-1,0.2-1.9,0.6-2.8c0.4-0.9,1-1.6,1.7-2.1c0.8-0.5,1.6-0.7,2.5-0.7c1.4,0,2.6,0.5,3.5,1.6s1.4,2.4,1.4,4.1
			c0,1.7-0.5,3-1.4,4.1c-0.9,1.1-2.1,1.6-3.5,1.6c-0.9,0-1.7-0.2-2.5-0.7c-0.8-0.5-1.4-1.1-1.8-2
			C192.9,337.7,192.7,336.6,192.7,335.3z M195.3,335.5c0,1.1,0.2,1.9,0.7,2.5s1,0.9,1.6,0.9c0.7,0,1.2-0.3,1.6-0.9
			c0.4-0.6,0.7-1.4,0.7-2.5c0-1.1-0.2-1.9-0.7-2.5c-0.4-0.6-1-0.9-1.6-0.9c-0.7,0-1.2,0.3-1.6,0.9
			C195.5,333.5,195.3,334.4,195.3,335.5z"/>
		<path d="M218.7,333.2l-2.5,0.5c-0.1-0.6-0.3-1-0.6-1.3c-0.3-0.3-0.7-0.4-1.1-0.4c-0.6,0-1.1,0.3-1.5,0.8c-0.4,0.5-0.6,1.3-0.6,2.5
			c0,1.3,0.2,2.2,0.6,2.8c0.4,0.5,0.9,0.8,1.5,0.8c0.5,0,0.9-0.2,1.2-0.5s0.5-0.9,0.6-1.6l2.5,0.5c-0.3,1.3-0.7,2.3-1.5,3
			s-1.7,1-2.9,1c-1.4,0-2.5-0.5-3.3-1.5c-0.8-1-1.2-2.4-1.2-4.2c0-1.8,0.4-3.2,1.2-4.2c0.8-1,1.9-1.5,3.4-1.5c1.2,0,2.1,0.3,2.8,0.9
			C217.9,331.2,218.4,332,218.7,333.2z"/>
		<path d="M220.5,335.3c0-1,0.2-1.9,0.6-2.8c0.4-0.9,1-1.6,1.7-2.1c0.8-0.5,1.6-0.7,2.5-0.7c1.4,0,2.6,0.5,3.5,1.6s1.4,2.4,1.4,4.1
			c0,1.7-0.5,3-1.4,4.1c-0.9,1.1-2.1,1.6-3.5,1.6c-0.9,0-1.7-0.2-2.5-0.7c-0.8-0.5-1.4-1.1-1.8-2
			C220.7,337.7,220.5,336.6,220.5,335.3z M223,335.5c0,1.1,0.2,1.9,0.7,2.5s1,0.9,1.6,0.9c0.7,0,1.2-0.3,1.6-0.9
			c0.4-0.6,0.7-1.4,0.7-2.5c0-1.1-0.2-1.9-0.7-2.5c-0.4-0.6-1-0.9-1.6-0.9c-0.7,0-1.2,0.3-1.6,0.9C223.3,333.5,223,334.4,223,335.5z
			"/>
		<path d="M241.3,341h-2.5v-5.6c0-1.2-0.1-2-0.2-2.3c-0.1-0.3-0.3-0.6-0.5-0.8s-0.5-0.3-0.9-0.3c-0.4,0-0.8,0.1-1.2,0.4
			c-0.3,0.3-0.6,0.6-0.7,1.1c-0.1,0.5-0.2,1.3-0.2,2.5v5h-2.5v-11h2.3v1.6c0.8-1.2,1.9-1.9,3.1-1.9c0.6,0,1.1,0.1,1.5,0.3
			c0.5,0.2,0.8,0.5,1,0.9c0.2,0.4,0.4,0.8,0.5,1.2c0.1,0.5,0.1,1.1,0.1,2V341z"/>
		<path d="M248.6,330v2.3h-1.7v4.4c0,0.9,0,1.4,0,1.6c0,0.1,0.1,0.3,0.2,0.4c0.1,0.1,0.3,0.1,0.4,0.1c0.2,0,0.6-0.1,1-0.3l0.2,2.3
			c-0.6,0.3-1.2,0.4-2,0.4c-0.5,0-0.9-0.1-1.2-0.3c-0.4-0.2-0.6-0.4-0.8-0.7s-0.3-0.7-0.4-1.1c-0.1-0.3-0.1-1-0.1-2.1v-4.8h-1.2V330
			h1.2v-2.2l2.5-1.7v3.9H248.6z"/>
		<path d="M252.7,333.3l-2.3-0.5c0.3-1.1,0.7-1.9,1.3-2.4c0.6-0.5,1.6-0.8,2.8-0.8c1.1,0,2,0.2,2.5,0.5s0.9,0.7,1.2,1.2
			c0.2,0.5,0.3,1.3,0.3,2.6l0,3.4c0,1,0,1.7,0.1,2.1s0.2,1,0.5,1.5h-2.5c-0.1-0.2-0.1-0.5-0.2-0.9c0-0.2-0.1-0.3-0.1-0.3
			c-0.4,0.5-0.9,0.8-1.4,1.1s-1,0.4-1.6,0.4c-1,0-1.7-0.3-2.3-0.9c-0.6-0.6-0.8-1.4-0.8-2.3c0-0.6,0.1-1.2,0.4-1.7
			c0.3-0.5,0.6-0.9,1.1-1.1c0.5-0.3,1.1-0.5,2-0.7c1.2-0.3,2-0.5,2.4-0.7v-0.3c0-0.6-0.1-1-0.4-1.2c-0.2-0.2-0.7-0.4-1.3-0.4
			c-0.4,0-0.8,0.1-1,0.3C253.1,332.5,252.9,332.8,252.7,333.3z M256.1,335.7c-0.3,0.1-0.8,0.3-1.5,0.4c-0.7,0.2-1.2,0.3-1.4,0.5
			c-0.3,0.3-0.5,0.6-0.5,1c0,0.4,0.1,0.8,0.4,1.1c0.3,0.3,0.6,0.4,1,0.4c0.5,0,0.9-0.2,1.3-0.5c0.3-0.3,0.5-0.6,0.6-1
			c0.1-0.2,0.1-0.7,0.1-1.4V335.7z"/>
		<path d="M269.7,333.2l-2.5,0.5c-0.1-0.6-0.3-1-0.6-1.3c-0.3-0.3-0.7-0.4-1.1-0.4c-0.6,0-1.1,0.3-1.5,0.8c-0.4,0.5-0.6,1.3-0.6,2.5
			c0,1.3,0.2,2.2,0.6,2.8c0.4,0.5,0.9,0.8,1.5,0.8c0.5,0,0.9-0.2,1.2-0.5s0.5-0.9,0.6-1.6l2.5,0.5c-0.3,1.3-0.7,2.3-1.5,3
			s-1.7,1-2.9,1c-1.4,0-2.5-0.5-3.3-1.5c-0.8-1-1.2-2.4-1.2-4.2c0-1.8,0.4-3.2,1.2-4.2c0.8-1,1.9-1.5,3.4-1.5c1.2,0,2.1,0.3,2.8,0.9
			C268.9,331.2,269.4,332,269.7,333.2z"/>
		<path d="M276.4,330v2.3h-1.7v4.4c0,0.9,0,1.4,0,1.6c0,0.1,0.1,0.3,0.2,0.4c0.1,0.1,0.3,0.1,0.4,0.1c0.2,0,0.6-0.1,1-0.3l0.2,2.3
			c-0.6,0.3-1.2,0.4-2,0.4c-0.5,0-0.9-0.1-1.2-0.3c-0.4-0.2-0.6-0.4-0.8-0.7s-0.3-0.7-0.4-1.1c-0.1-0.3-0.1-1-0.1-2.1v-4.8H271V330
			h1.2v-2.2l2.5-1.7v3.9H276.4z"/>
		<path d="M290.4,341v-1.6c-0.3,0.6-0.8,1.1-1.4,1.4c-0.6,0.3-1.2,0.5-1.8,0.5c-0.6,0-1.2-0.2-1.7-0.5c-0.5-0.3-0.9-0.8-1.1-1.4
			c-0.2-0.6-0.3-1.4-0.3-2.4v-7h2.5v5.1c0,1.5,0,2.5,0.1,2.8c0.1,0.3,0.3,0.6,0.5,0.8c0.2,0.2,0.6,0.3,0.9,0.3
			c0.4,0,0.8-0.1,1.2-0.4c0.3-0.3,0.6-0.6,0.7-1s0.2-1.4,0.2-3V330h2.5v11H290.4z"/>
		<path d="M294.9,337.8l2.5-0.4c0.1,0.6,0.3,1,0.7,1.3c0.3,0.3,0.8,0.4,1.4,0.4c0.6,0,1.1-0.1,1.5-0.4c0.2-0.2,0.3-0.5,0.3-0.8
			c0-0.2-0.1-0.4-0.2-0.5c-0.1-0.1-0.4-0.3-0.8-0.4c-2-0.5-3.3-1-3.8-1.4c-0.7-0.6-1.1-1.4-1.1-2.5c0-1,0.3-1.8,1-2.4s1.7-1,3-1
			c1.3,0,2.3,0.2,2.9,0.7c0.6,0.5,1.1,1.2,1.3,2.2l-2.4,0.5c-0.1-0.4-0.3-0.8-0.6-1c-0.3-0.2-0.7-0.3-1.2-0.3
			c-0.7,0-1.1,0.1-1.4,0.3c-0.2,0.2-0.3,0.3-0.3,0.6c0,0.2,0.1,0.4,0.3,0.5c0.2,0.2,1,0.5,2.3,0.8s2.3,0.8,2.8,1.3
			c0.5,0.5,0.8,1.2,0.8,2.2c0,1-0.4,1.9-1.1,2.6s-1.8,1.1-3.2,1.1c-1.3,0-2.3-0.3-3.1-0.9C295.6,339.7,295.1,338.9,294.9,337.8z"/>
		<path d="M306.4,341v-2.9h2.5v2.9H306.4z"/>
	</g>
</g>
</svg>
