<?xml version="1.0" encoding="utf-8"?>
<!-- Generator: Adobe Illustrator 16.0.0, SVG Export Plug-In . SVG Version: 6.00 Build 0)  -->
<!DOCTYPE svg PUBLIC "-//W3C//DTD SVG 1.1//EN" "http://www.w3.org/Graphics/SVG/1.1/DTD/svg11.dtd">
<svg version="1.1" id="Layer_1" xmlns="http://www.w3.org/2000/svg" xmlns:xlink="http://www.w3.org/1999/xlink" x="0px" y="0px"
	 width="81px" height="54px" viewBox="0 0 81 54" enable-background="new 0 0 81 54" xml:space="preserve">
<rect fill="#998675" width="81" height="54"/>
<g>
	<path d="M38.5,39.3c-5.9,0-10.6-4.8-10.6-10.6c0-5.9,4.8-10.6,10.6-10.6c5.9,0,10.6,4.8,10.6,10.6C49.1,34.6,44.3,39.3,38.5,39.3z
		 M28.5,28.6c0,5.5,4.4,9.9,9.9,9.9c5.5,0,9.9-4.4,9.9-9.9c0-5.5-4.4-9.9-9.9-9.9C32.9,18.7,28.5,23.2,28.5,28.6z M38,24.1L38,24.1
		l-2,1.1L35.7,24l2.4-1.2h1.4v11.8H38V24.1z"/>
</g>
</svg>
