<?xml version="1.0" encoding="utf-8"?>
<!-- Generator: Adobe Illustrator 16.0.0, SVG Export Plug-In . SVG Version: 6.00 Build 0)  -->
<!DOCTYPE svg PUBLIC "-//W3C//DTD SVG 1.1//EN" "http://www.w3.org/Graphics/SVG/1.1/DTD/svg11.dtd">
<svg version="1.1" id="Layer_1" xmlns="http://www.w3.org/2000/svg" xmlns:xlink="http://www.w3.org/1999/xlink" x="0px" y="0px"
	 width="22px" height="22px" viewBox="0 0 22 22" enable-background="new 0 0 22 22" xml:space="preserve">
<path fill="#FFFFFF" d="M21.056,17.887l-3.939-3.939c0.736-1.301,1.162-2.8,1.162-4.398c0-4.945-4.024-8.969-8.97-8.969
	c-4.946,0-8.97,4.023-8.97,8.969s4.024,8.971,8.97,8.971c1.85,0,3.57-0.564,4.999-1.527l3.821,3.822
	c0.404,0.404,0.936,0.605,1.465,0.605s1.059-0.201,1.463-0.605C21.864,20.006,21.864,18.695,21.056,17.887z M3.098,9.549
	c0-3.424,2.785-6.209,6.21-6.209c3.424,0,6.209,2.785,6.209,6.209c0,3.426-2.785,6.211-6.209,6.211
	C5.883,15.76,3.098,12.975,3.098,9.549z"/>
</svg>
