<?xml version="1.0" encoding="utf-8"?>
<!-- Generator: Adobe Illustrator 16.0.0, SVG Export Plug-In . SVG Version: 6.00 Build 0)  -->
<!DOCTYPE svg PUBLIC "-//W3C//DTD SVG 1.1//EN" "http://www.w3.org/Graphics/SVG/1.1/DTD/svg11.dtd">
<svg version="1.1" id="Layer_1" xmlns="http://www.w3.org/2000/svg" xmlns:xlink="http://www.w3.org/1999/xlink" x="0px" y="0px"
	 width="203.238px" height="119.703px" viewBox="0 0 203.238 119.703" enable-background="new 0 0 203.238 119.703"
	 xml:space="preserve">
<g>
	<g>
		<path fill="#F6EB16" d="M98.203,47.563c0,0,11.04-13.801,18.926-12.618c0,0,7.492,19.715,22.87,4.337
			c0,0,11.04,0.788,16.167,13.801l-11.436,3.549l-5.126,36.276l-42.979-0.789c0,0,20.504-38.642,19.321-45.345
			s-5.629,6.891-5.629,6.891c2.114-0.961,2.69-4.42,3.459-7.109"/>
	</g>
	<g>
		<g>
			<path fill="#010101" d="M2.365,39.651c20.176,0.028,40.41,0.896,60.171,5.267c0.754,0.167,1.074-0.99,0.318-1.157
				c-19.863-4.394-40.206-5.281-60.489-5.31C1.592,38.45,1.592,39.65,2.365,39.651L2.365,39.651z"/>
		</g>
	</g>
	<g>
		<g>
			<path fill="#010101" d="M0.006,39.93c3.104,24.34,4.001,49.133,4.035,73.655c0.001,0.774,1.2,0.774,1.199,0
				C5.207,89.063,4.311,64.271,1.205,39.93C1.109,39.173-0.093,39.164,0.006,39.93L0.006,39.93z"/>
		</g>
	</g>
	<g>
		<g>
			<path fill="#010101" d="M62.33,44.805c-0.012,24.482-0.456,48.962-0.467,73.444c-0.001,0.774,1.199,0.774,1.199,0
				c0.012-24.482,0.456-48.962,0.467-73.444C63.53,44.031,62.33,44.031,62.33,44.805L62.33,44.805z"/>
		</g>
	</g>
	<g>
		<g>
			<path fill="#010101" d="M3.965,114.397c19.164,4.155,38.853,2.801,58.214,5.299c0.766,0.099,0.757-1.103,0-1.2
				c-19.256-2.483-38.835-1.123-57.896-5.256C3.529,113.077,3.208,114.233,3.965,114.397L3.965,114.397z"/>
		</g>
	</g>
	<g>
		<g>
			<path fill="#010101" d="M63.354,44.53c3.562-2.759,8.503-2.832,12.469-4.803c0.693-0.344,0.085-1.379-0.605-1.036
				c-4.098,2.036-9.011,2.124-12.711,4.99C61.895,44.155,62.75,44.998,63.354,44.53L63.354,44.53z"/>
		</g>
	</g>
	<g>
		<g>
			<path fill="#010101" d="M0.908,40.448c6.913-4.292,15.563-5.547,23.297-7.707c0.744-0.208,0.428-1.366-0.318-1.157
				c-7.845,2.191-16.565,3.471-23.584,7.828C-0.354,39.819,0.249,40.857,0.908,40.448L0.908,40.448z"/>
		</g>
	</g>
	<g>
		<g>
			<path fill="#010101" d="M24.926,32.116c16.86,0.923,34.304,1.374,50.201,7.672c0.72,0.285,1.029-0.875,0.318-1.157
				c-15.986-6.333-33.568-6.786-50.52-7.715C24.152,30.874,24.156,32.074,24.926,32.116L24.926,32.116z"/>
		</g>
	</g>
	<g>
		<g>
			<path fill="#010101" d="M74.773,39.93c0.927,18.894-2.087,37.964-2.186,56.869c-0.005,0.774,1.195,0.773,1.199,0
				c0.1-18.905,3.113-37.976,2.186-56.869C75.936,39.16,74.735,39.156,74.773,39.93L74.773,39.93z"/>
		</g>
	</g>
	<g>
		<g>
			<path fill="#010101" d="M62.697,119.399c3.84-7.543,7.55-15.147,11.242-22.764c0.336-0.693-0.699-1.302-1.037-0.605
				c-3.691,7.616-7.401,15.221-11.242,22.764C61.311,119.481,62.346,120.089,62.697,119.399L62.697,119.399z"/>
		</g>
	</g>
	<g>
		<g>
			<path fill="#010101" d="M2.15,55.644c19.973,3.851,40.537,3.518,60.779,4.45c0.774,0.036,0.771-1.165,0-1.2
				c-20.131-0.927-40.599-0.578-60.461-4.407C1.713,54.341,1.391,55.497,2.15,55.644L2.15,55.644z"/>
		</g>
	</g>
	<g>
		<g>
			<path fill="#010101" d="M42.719,104.613c-10.029,2.462-20.351,0.073-25.136-9.776c-3.946-8.124-1.688-18.638,5.77-23.854
				c9.578-6.699,22.218-2.469,28.221,6.696c6.75,10.304,3.627,23.548-8.905,26.764c-0.749,0.192-0.432,1.35,0.318,1.157
				c12.398-3.182,16.033-15.027,10.975-26.081c-5.229-11.422-18.696-16.131-29.853-10.393c-8.916,4.586-11.378,15.921-8.201,24.793
				c4.111,11.481,16.272,14.516,27.13,11.85C43.789,105.586,43.47,104.429,42.719,104.613L42.719,104.613z"/>
		</g>
	</g>
	<g>
		<g>
			<path fill="#010101" d="M44.468,78.421c-4.491-5.316-11.296-6.31-16.888-2.015c-4.979,3.824-6.456,10.578-3.232,15.969
				c3.807,6.367,13.646,10.231,20.15,5.905c6.77-4.502,4.816-13.822,0.512-19.191c-0.483-0.604-1.327,0.251-0.848,0.849
				c4.214,5.256,5.497,13.471-0.85,17.692c-6.088,4.049-15.037-1.023-18.308-6.494c-2.925-4.893-0.5-10.867,3.687-14.083
				c4.988-3.832,11.074-2.346,14.929,2.216C44.12,79.861,44.964,79.008,44.468,78.421L44.468,78.421z"/>
		</g>
	</g>
	<g>
		<g>
			<path fill="#010101" d="M45.042,80.848c-4.137,5.133-3.831,11.285-1.913,17.298c0.233,0.734,1.393,0.42,1.156-0.319
				c-1.768-5.544-2.254-11.342,1.604-16.13C46.371,81.1,45.527,80.245,45.042,80.848L45.042,80.848z"/>
		</g>
	</g>
	<g>
		<g>
			<path fill="#010101" d="M7.48,46.861c0.468,0.565,0.196,1.858,0.127,2.516c-0.085,0.806-0.276,1.612-0.303,2.423
				c-0.026,0.774,1.174,0.772,1.199,0c0.059-1.761,1.096-4.255-0.176-5.788C7.834,45.417,6.99,46.271,7.48,46.861L7.48,46.861z"/>
		</g>
	</g>
	<g>
		<g>
			<path fill="#010101" d="M7.831,46.837c3.626-0.654,7.082-0.17,10.64,0.646c0.753,0.173,1.073-0.984,0.318-1.157
				c-3.772-0.865-7.435-1.338-11.276-0.646C6.752,45.817,7.075,46.973,7.831,46.837L7.831,46.837z"/>
		</g>
	</g>
	<g>
		<g>
			<path fill="#010101" d="M17.331,47.137c0.018,1.707,0.248,3.401,0.267,5.108c0.008,0.773,1.208,0.774,1.199,0
				c-0.018-1.707-0.248-3.401-0.267-5.108C18.522,46.364,17.322,46.363,17.331,47.137L17.331,47.137z"/>
		</g>
	</g>
	<g>
		<g>
			<path fill="#010101" d="M7.831,52.612c3.379-0.967,7.119-0.031,10.565,0.021c0.774,0.012,0.773-1.188,0-1.2
				c-3.57-0.054-7.379-0.982-10.884,0.021C6.77,51.667,7.086,52.826,7.831,52.612L7.831,52.612z"/>
		</g>
	</g>
	<g>
		<g>
			<path fill="#010101" d="M31.993,52.154c-1.082,0.349-2.086,0.165-2.646-0.889c-0.462-0.871-0.195-2.02,0.635-2.544
				c2.492-1.574,5.063,2.682,2.011,3.667c-0.733,0.236-0.42,1.396,0.318,1.157c1.835-0.592,2.793-2.331,2.046-4.169
				c-0.737-1.813-2.873-2.641-4.66-1.847c-1.517,0.673-2.073,2.384-1.57,3.908c0.599,1.812,2.475,2.426,4.185,1.875
				C33.045,53.075,32.731,51.917,31.993,52.154L31.993,52.154z"/>
		</g>
	</g>
	<g>
		<g>
			<path fill="#010101" d="M20.361,46.904c0.224,1.936,0.233,3.882,0.234,5.829c0,0.774,1.2,0.774,1.199,0
				c0-1.947-0.01-3.893-0.234-5.829C21.473,46.145,20.272,46.136,20.361,46.904L20.361,46.904z"/>
		</g>
	</g>
	<g>
		<g>
			<path fill="#010101" d="M21.036,47.25c1.362,0.249,2.742,0.253,4.122,0.254c0.773,0,0.773-1.2,0-1.2
				c-1.269,0-2.551,0.018-3.804-0.211C20.599,45.955,20.275,47.111,21.036,47.25L21.036,47.25z"/>
		</g>
	</g>
	<g>
		<g>
			<path fill="#010101" d="M25.047,46.744c-0.661,1.947-0.504,3.967-0.488,5.989c0.005,0.773,1.205,0.774,1.199,0
				c-0.014-1.916-0.181-3.824,0.445-5.669C26.453,46.329,25.294,46.016,25.047,46.744L25.047,46.744z"/>
		</g>
	</g>
	<g>
		<g>
			<path fill="#010101" d="M21.428,54.032c1.011,0,2.021,0,3.031,0c0.773,0,0.773-1.2,0-1.2c-1.011,0-2.021,0-3.031,0
				C20.654,52.832,20.654,54.032,21.428,54.032L21.428,54.032z"/>
		</g>
	</g>
	<g>
		<g>
			<path fill="#010101" d="M93.268,5.785c1.616,4.873,10.394,7.774,14.46,9.637c10.449,4.786,21.334,8.656,32.202,12.363
				c11.557,3.942,23.234,7.564,35.017,10.772c6.25,1.702,13.526,4.41,20.11,4.18c0.771-0.027,0.774-1.227,0-1.2
				c-6.2,0.217-13.052-2.333-18.951-3.91c-11.035-2.951-21.954-6.353-32.788-9.964c-10.772-3.59-21.493-7.429-31.927-11.92
				c-3.836-1.652-7.637-3.42-11.266-5.492c-1.85-1.057-4.972-2.587-5.701-4.784C94.182,4.735,93.022,5.048,93.268,5.785
				L93.268,5.785z"/>
		</g>
	</g>
	<g>
		<g>
			<path fill="#010101" d="M113.582,47.163c-3.704,14.055-6.41,32.132-19.324,40.954c-0.635,0.434-0.035,1.474,0.605,1.036
				c13.237-9.043,16.084-27.279,19.875-41.671C114.937,46.733,113.778,46.416,113.582,47.163L113.582,47.163z"/>
		</g>
	</g>
	<g>
		<g>
			<path fill="#010101" d="M93.687,88.889c15.047,3.524,30.606,1.846,45.899,1.78c0.773-0.003,0.774-1.204,0-1.2
				c-15.18,0.065-30.644,1.761-45.581-1.737C93.252,87.555,92.933,88.712,93.687,88.889L93.687,88.889z"/>
		</g>
	</g>
	<g>
		<g>
			<path fill="#010101" d="M140.701,89.597c-1.145-12.586-0.854-25.941,2.98-38.072c0.234-0.74-0.925-1.054-1.156-0.319
				c-3.866,12.23-4.177,25.71-3.023,38.391C139.571,90.361,140.771,90.368,140.701,89.597L140.701,89.597z"/>
		</g>
	</g>
	<g>
		<g>
			<path fill="#010101" d="M137.227,37.292c-0.189,5.306-4.917,7.582-9.716,6.804c-5.184-0.841-8.072-5.272-7.557-10.323
				c0.079-0.77-1.122-0.762-1.199,0c-0.602,5.877,3.168,10.93,9.176,11.596c5.415,0.6,10.29-2.32,10.495-8.076
				C138.454,36.518,137.254,36.521,137.227,37.292L137.227,37.292z"/>
		</g>
	</g>
	<g>
		<g>
			<path fill="#010101" d="M119.573,35.604c6.355,1.035,14.335-4.295,14.612-11.083c0.107-2.61-2.482-4.891-5.037-4.891
				c-3.479,0-4.781,4.125-2.346,6.213c0.584,0.5,1.437-0.344,0.848-0.849c-3.018-2.588,0.868-4.366,2.574-3.892
				c1.193,0.332,2.164,1.143,2.597,2.306c0.626,1.682-0.339,3.653-1.183,5.059c-2.335,3.888-7.18,6.723-11.747,5.979
				C119.135,34.323,118.811,35.479,119.573,35.604L119.573,35.604z"/>
		</g>
	</g>
	<g>
		<g>
			<path fill="#010101" d="M128.27,33.046c2.886,2.125,6.027,3.604,9.223,5.188c0.69,0.342,1.299-0.692,0.605-1.036
				c-3.195-1.583-6.337-3.062-9.223-5.188C128.251,31.55,127.653,32.592,128.27,33.046L128.27,33.046z"/>
		</g>
	</g>
	<g>
		<g>
			<path fill="#010101" d="M119.156,33.272c-3.706-0.329-8.298-0.458-11.748,1.211c-1.172,0.567-2.601,1.338-3.121,2.624
				c-0.635,1.567-0.77,3.146-1.657,4.645c-0.817,1.378-1.996,2.53-2.822,3.923c-0.396,0.667,0.643,1.271,1.037,0.605
				c1.039-1.753,2.418-3.241,3.458-4.996c1.381-2.331-0.14-3.435,2.95-5.396c3.217-2.041,8.261-1.739,11.903-1.416
				C119.928,34.541,119.921,33.34,119.156,33.272L119.156,33.272z"/>
		</g>
	</g>
	<g>
		<g>
			<path fill="#010101" d="M99.782,46.557c3.76,1.159,7.004,4.635,9.728,7.34c0.549,0.545,1.397-0.303,0.848-0.849
				c-2.865-2.847-6.292-6.426-10.257-7.648C99.359,45.171,99.045,46.33,99.782,46.557L99.782,46.557z"/>
		</g>
	</g>
	<g>
		<g>
			<path fill="#010101" d="M138.213,37.91c3.995,0.878,8.981,3.404,11.362,6.833c2.57,3.699,1.815,8.307,5.282,11.651
				c0.557,0.537,1.406-0.311,0.848-0.849c-3.811-3.676-2.896-9.537-6.632-13.206c-2.729-2.681-6.817-4.768-10.542-5.587
				C137.777,36.587,137.457,37.744,138.213,37.91L138.213,37.91z"/>
		</g>
	</g>
	<g>
		<g>
			<path fill="#010101" d="M155.281,55.37c-1.804,0.097-3.461,0.679-5.211,1.07c-2.363,0.527-4.853-0.037-7.246,0.489
				c-0.756,0.166-0.436,1.323,0.318,1.157c2.107-0.462,4.237-0.243,6.374-0.362c1.971-0.11,3.775-1.046,5.765-1.153
				C156.051,56.529,156.055,55.329,155.281,55.37L155.281,55.37z"/>
		</g>
	</g>
	<g>
		<g>
			<path fill="#010101" d="M141.336,55.911c0.671,0.35,1.093,0.815,1.262,1.563c0.17,0.754,1.327,0.435,1.156-0.319
				c-0.232-1.03-0.884-1.797-1.813-2.28C141.256,54.518,140.649,55.554,141.336,55.911L141.336,55.911z"/>
		</g>
	</g>
	<g>
		<g>
			<path fill="#010101" d="M119.541,38.893c5.706,0.105,11.256,1.481,16.909,2.112c0.769,0.085,0.76-1.115,0-1.2
				c-5.658-0.631-11.196-2.007-16.909-2.112C118.767,37.678,118.769,38.878,119.541,38.893L119.541,38.893z"/>
		</g>
	</g>
	<g>
		<g>
			<path fill="#010101" d="M131.07,56.57c2.553-0.113,4.974,0.717,7.494,0.961c0.771,0.075,0.763-1.126,0-1.2
				c-2.527-0.245-4.93-1.075-7.494-0.961C130.3,55.404,130.296,56.604,131.07,56.57L131.07,56.57z"/>
		</g>
	</g>
	<g>
		<g>
			<path fill="#010101" d="M129.895,55.97c0.526,4.016-2.728,11.578,4.149,11.644c4.357,0.042,4.04-7.174,4.714-9.947
				c0.184-0.752-0.974-1.071-1.156-0.319c-0.602,2.469-0.159,7.872-3.053,8.973c-2.809,1.069-4.042-2.202-3.936-4.322
				c0.102-2.016,0.747-4,0.48-6.029C130.995,55.214,129.794,55.205,129.895,55.97L129.895,55.97z"/>
		</g>
	</g>
	<g>
		<g>
			<path fill="#010101" d="M195.475,41.94c-1.111,0.179-2.328-1.223-2.874-2.014c-0.331-0.478-0.584-1.025-0.572-1.614
				c0.006-0.313,0.441-1.145,0.81-1.171c0.666-0.046,1.297,1.802,1.47,2.244c0.316,0.811,0.595,1.666,0.748,2.524
				c0.136,0.761,1.292,0.438,1.156-0.319c-0.265-1.484-1.77-6.994-4.187-5.38c-3.208,2.14,0.775,7.369,3.768,6.887
				C196.556,42.975,196.231,41.818,195.475,41.94L195.475,41.94z"/>
		</g>
	</g>
	<g>
		<g>
			<path fill="#010101" d="M196.404,42.486c0.39-1.343,3.55-5.987,5.241-4.509c1.772,1.549-4.984,3.44-5.979,3.58
				c-0.764,0.107-0.438,1.263,0.318,1.157c1.771-0.249,9.421-2.388,6.657-5.423c-2.573-2.825-6.736,2.605-7.395,4.875
				C195.031,42.912,196.189,43.228,196.404,42.486L196.404,42.486z"/>
		</g>
	</g>
	<g>
		<g>
			<path fill="#010101" d="M194.649,43.095c-0.001,0.973,0.006,1.956-0.171,2.916c-0.141,0.756,1.017,1.08,1.156,0.319
				c0.198-1.069,0.214-2.151,0.214-3.235C195.85,42.321,194.649,42.321,194.649,43.095L194.649,43.095z"/>
		</g>
	</g>
	<g>
		<g>
			<path fill="#010101" d="M196.018,43.695c0.781,0.027,1.122,0.842,1.344,1.481c0.251,0.727,1.41,0.414,1.156-0.319
				c-0.412-1.191-1.115-2.313-2.5-2.362C195.243,42.468,195.246,43.668,196.018,43.695L196.018,43.695z"/>
		</g>
	</g>
	<g>
		<g>
			<path fill="#010101" d="M93.135,5.301c-1.003-0.433-2.783-2.738-2.188-3.893c0.099-0.192,0.624-0.263,0.767-0.147
				c0.35,0.284,0.48,0.867,0.602,1.275c0.269,0.911,0.428,1.95,0.302,2.898c-0.103,0.765,1.099,0.755,1.199,0
				c0.177-1.328-0.119-2.976-0.691-4.179c-0.529-1.111-1.766-1.7-2.854-0.852c-1.867,1.453,0.689,5.256,2.26,5.934
				C93.231,6.64,93.844,5.606,93.135,5.301L93.135,5.301z"/>
		</g>
	</g>
	<g>
		<g>
			<path fill="#010101" d="M93.794,6.042c-0.354-2.082,4.151-2.28,5.147-1.145c-0.031-0.242-0.063-0.485-0.095-0.727
				c-1.02,1.57-4.063,0.874-5.631,0.855c-0.774-0.009-0.773,1.191,0,1.2c2.148,0.025,5.278,0.689,6.668-1.45
				c0.152-0.235,0.078-0.53-0.095-0.727c-1.845-2.104-7.729-1.069-7.151,2.313C92.767,7.123,93.924,6.799,93.794,6.042L93.794,6.042
				z"/>
		</g>
	</g>
	<g>
		<g>
			<path fill="#010101" d="M93.375,5.816c-1.562-0.377-2.999,0.174-4.305,1.021c-0.646,0.419-0.046,1.459,0.605,1.036
				c1.021-0.663,2.14-1.2,3.381-0.9C93.809,7.155,94.127,5.998,93.375,5.816L93.375,5.816z"/>
		</g>
	</g>
	<g>
		<g>
			<path fill="#010101" d="M93.001,6.011c-0.217,1.708-0.748,3.355-1.132,5.028c-0.174,0.753,0.983,1.073,1.156,0.319
				c0.41-1.783,0.945-3.527,1.175-5.347C94.298,5.245,93.097,5.254,93.001,6.011L93.001,6.011z"/>
		</g>
	</g>
</g>
</svg>
