<?xml version="1.0" encoding="utf-8"?>
<!-- Generator: Adobe Illustrator 16.0.0, SVG Export Plug-In . SVG Version: 6.00 Build 0)  -->
<!DOCTYPE svg PUBLIC "-//W3C//DTD SVG 1.1//EN" "http://www.w3.org/Graphics/SVG/1.1/DTD/svg11.dtd">
<svg version="1.1" id="Layer_1" xmlns="http://www.w3.org/2000/svg" xmlns:xlink="http://www.w3.org/1999/xlink" x="0px" y="0px"
	 width="157.835px" height="147.484px" viewBox="0 0 157.835 147.484" enable-background="new 0 0 157.835 147.484"
	 xml:space="preserve">
<g>
	<g>
		<defs>
			<filter id="Adobe_OpacityMaskFilter" filterUnits="userSpaceOnUse" x="15.114" y="56.943" width="44.867" height="40.509">
				<feFlood  style="flood-color:white;flood-opacity:1" result="back"/>
				<feBlend  in="SourceGraphic" in2="back" mode="normal"/>
			</filter>
		</defs>
		<mask maskUnits="userSpaceOnUse" x="15.114" y="56.943" width="44.867" height="40.509" id="SVGID_1_">
			<g filter="url(#Adobe_OpacityMaskFilter)">
				
					<image overflow="visible" width="204" height="186" xlink:href="A035C7E7.jpg"  transform="matrix(0.24 0 0 0.24 13.1143 54.9429)">
				</image>
			</g>
		</mask>
		<g mask="url(#SVGID_1_)">
			<ellipse fill="#55A4DB" cx="37.548" cy="77.197" rx="22.434" ry="20.254"/>
		</g>
	</g>
	<g>
		<defs>
			<filter id="Adobe_OpacityMaskFilter_1_" filterUnits="userSpaceOnUse" x="56.114" y="58.943" width="44.867" height="40.509">
				<feFlood  style="flood-color:white;flood-opacity:1" result="back"/>
				<feBlend  in="SourceGraphic" in2="back" mode="normal"/>
			</filter>
		</defs>
		<mask maskUnits="userSpaceOnUse" x="56.114" y="58.943" width="44.867" height="40.509" id="SVGID_2_">
			<g filter="url(#Adobe_OpacityMaskFilter_1_)">
				
					<image overflow="visible" width="204" height="186" xlink:href="A035C7E5.jpg"  transform="matrix(0.24 0 0 0.24 54.1143 56.9429)">
				</image>
			</g>
		</mask>
		<g mask="url(#SVGID_2_)">
			<ellipse fill="#F27BAA" cx="78.548" cy="79.197" rx="22.434" ry="20.254"/>
		</g>
	</g>
	<g>
		<defs>
			<filter id="Adobe_OpacityMaskFilter_2_" filterUnits="userSpaceOnUse" x="95.114" y="31.943" width="44.867" height="40.509">
				<feFlood  style="flood-color:white;flood-opacity:1" result="back"/>
				<feBlend  in="SourceGraphic" in2="back" mode="normal"/>
			</filter>
		</defs>
		<mask maskUnits="userSpaceOnUse" x="95.114" y="31.943" width="44.867" height="40.509" id="SVGID_3_">
			<g filter="url(#Adobe_OpacityMaskFilter_2_)">
				
					<image overflow="visible" width="204" height="186" xlink:href="A035C7EB.jpg"  transform="matrix(0.24 0 0 0.24 93.1143 29.9429)">
				</image>
			</g>
		</mask>
		<g mask="url(#SVGID_3_)">
			<ellipse fill="#FBB03C" cx="117.548" cy="52.197" rx="22.434" ry="20.254"/>
		</g>
	</g>
	<g>
		<defs>
			<filter id="Adobe_OpacityMaskFilter_3_" filterUnits="userSpaceOnUse" x="43.114" y="17.943" width="44.867" height="40.509">
				<feFlood  style="flood-color:white;flood-opacity:1" result="back"/>
				<feBlend  in="SourceGraphic" in2="back" mode="normal"/>
			</filter>
		</defs>
		<mask maskUnits="userSpaceOnUse" x="43.114" y="17.943" width="44.867" height="40.509" id="SVGID_4_">
			<g filter="url(#Adobe_OpacityMaskFilter_3_)">
				
					<image overflow="visible" width="204" height="186" xlink:href="A035C7ED.jpg"  transform="matrix(0.24 0 0 0.24 41.1143 15.9429)">
				</image>
			</g>
		</mask>
		<g mask="url(#SVGID_4_)">
			<ellipse fill="#8DC641" cx="65.548" cy="38.197" rx="22.434" ry="20.254"/>
		</g>
	</g>
	
		<text transform="matrix(0.9838 -0.1794 0.1794 0.9838 32.5537 57.3506)" fill="#010101" font-family="'BokutachinoGothic'" font-size="12.315" glyph-orientation-vertical="0" writing-mode="tb">プール</text>
	
		<text transform="matrix(1 0 0 1 67.459 23.9736)" fill="#010101" font-family="'BokutachinoGothic'" font-size="12.315" glyph-orientation-vertical="0" writing-mode="tb">ジム</text>
	
		<text transform="matrix(0.9887 0.15 -0.15 0.9887 117.9717 35.707)" fill="#010101" font-family="'BokutachinoGothic'" font-size="12.315" glyph-orientation-vertical="0" writing-mode="tb">光熱費</text>
	<text transform="matrix(1 0 0 1 85.9316 66.3066)" writing-mode="tb"><tspan x="0" y="0" fill="#010101" font-family="'BokutachinoGothic'" font-size="12.315" glyph-orientation-vertical="0">掃除</tspan><tspan x="-16.933" y="0" fill="#010101" font-family="'BokutachinoGothic'" font-size="12.315" glyph-orientation-vertical="0">洗濯</tspan></text>
	<g>
		<g>
			<path fill="#010101" d="M80.848,109.661c-13.384-8.36-25.89-17.663-23.131-35.365c2.327-14.933,20.474-21.857,33.471-15.749
				c9.175,4.312,9.938,15.996,8.563,24.718c-1.527,9.69-6.081,19.6-13.13,26.499c-0.554,0.542,0.295,1.39,0.848,0.849
				c12.19-11.931,24.471-47.219,0.986-54.387C74.63,52.006,59.479,59.731,56.56,73.977c-3.688,17.989,10.281,28.35,23.683,36.72
				C80.9,111.108,81.502,110.069,80.848,109.661L80.848,109.661z"/>
		</g>
	</g>
	<g>
		<g>
			<path fill="#010101" d="M84.911,56.604c9.118-16.034,5.955-39.37-15.197-42.321c-21.356-2.979-36.52,20.021-23.555,37.702
				c0.453,0.617,1.495,0.02,1.037-0.605c-13.098-17.861,2.967-38.622,23.479-35.761c19.896,2.775,21.281,26.168,13.198,40.379
				C83.491,56.671,84.528,57.276,84.911,56.604L84.911,56.604z"/>
		</g>
	</g>
	<g>
		<g>
			<path fill="#010101" d="M61.528,63.732c-6.552-18.762-34.417-15.2-43.235-0.536c-5.479,9.112-4.73,21.701,2.366,29.614
				c7.566,8.437,20.564,9.354,30.797,6.401c0.742-0.214,0.427-1.372-0.318-1.157c-9.575,2.763-20.205,1.933-28.088-4.611
				c-8.667-7.194-8.734-20.332-3.72-29.642c7.729-14.351,35.012-17.017,41.042,0.25C60.625,64.777,61.784,64.465,61.528,63.732
				L61.528,63.732z"/>
		</g>
	</g>
	<g>
		<g>
			<path fill="#010101" d="M95.769,60.919c0.026-9.681,0.379-20.802,7.219-28.386c8.213-9.106,24.243-5.292,31.834,2.557
				c9.254,9.57,8.384,23.232,0.58,33.171c-6.881,8.764-17.993,14.26-28.846,15.939c-0.764,0.118-0.438,1.274,0.318,1.157
				c23.734-3.671,47.945-28.31,28.796-51.116c-7.272-8.66-22.541-10.795-31.639-4.245c-9.16,6.595-9.436,20.818-9.462,30.922
				C94.566,61.693,95.767,61.693,95.769,60.919L95.769,60.919z"/>
		</g>
	</g>
	<g>
		<g>
			<path fill="#010101" d="M79.967,111.878c0.342,1.243,0.685,2.486,1.027,3.73c0.094,0.342,0.415,0.469,0.737,0.419
				c1.824-0.281,3.648-0.561,5.472-0.842c0.764-0.117,0.438-1.273-0.318-1.157c-1.824,0.281-3.648,0.561-5.472,0.842
				c0.246,0.14,0.492,0.279,0.737,0.419c-0.342-1.243-0.685-2.486-1.027-3.73C80.918,110.813,79.761,111.13,79.967,111.878
				L79.967,111.878z"/>
		</g>
	</g>
	<g>
		<g>
			<path fill="#010101" d="M86.104,110.701c0.351,0.826,0.487,1.641,0.654,2.51c0.139,0.726,0.623,1.305,1.124,1.819
				c0.54,0.556,1.388-0.294,0.848-0.849c-0.5-0.514-0.77-0.948-0.876-1.653c-0.129-0.855-0.376-1.637-0.713-2.434
				C86.84,109.385,85.807,109.998,86.104,110.701L86.104,110.701z"/>
		</g>
	</g>
	<g>
		<g>
			<path fill="#010101" d="M106.115,85.549c0,1.283,0,2.566,0,3.849c0,0.774,1.199,0.774,1.199,0c0-1.283,0-2.566,0-3.849
				C107.314,84.775,106.115,84.775,106.115,85.549L106.115,85.549z"/>
		</g>
	</g>
	<g>
		<g>
			<path fill="#010101" d="M100.557,89.998c2.291-0.017,4.358-0.124,6.387,1.137c0.659,0.41,1.261-0.629,0.605-1.036
				c-2.214-1.376-4.474-1.32-6.992-1.301C99.783,88.803,99.782,90.003,100.557,89.998L100.557,89.998z"/>
		</g>
	</g>
	<g>
		<g>
			<path fill="#010101" d="M50.778,98.936c1.234,1.877,2.144,3.813,2.859,5.94c0.245,0.729,1.404,0.417,1.156-0.319
				c-0.748-2.223-1.688-4.262-2.979-6.226C51.392,97.687,50.353,98.287,50.778,98.936L50.778,98.936z"/>
		</g>
	</g>
	<g>
		<g>
			<path fill="#010101" d="M54.64,105.982c1.544-1.473,3.087-2.946,4.63-4.419c0.562-0.535-0.289-1.382-0.848-0.849
				c-1.544,1.473-3.087,2.946-4.63,4.419C53.23,105.668,54.081,106.516,54.64,105.982L54.64,105.982z"/>
		</g>
	</g>
	<g>
		<g>
			<path fill="#010101" d="M54.842,96.843c1.445,0.772,2.159,2.225,2.863,3.633c0.347,0.692,1.382,0.084,1.037-0.605
				c-0.8-1.597-1.662-3.191-3.295-4.063C54.765,95.442,54.159,96.478,54.842,96.843L54.842,96.843z"/>
		</g>
	</g>
	<g>
		<g>
			<path fill="#010101" d="M55.304,97.673c2.385-0.873,3.544-3.005,5.229-4.738c0.54-0.555-0.308-1.404-0.848-0.849
				c-1.495,1.537-2.584,3.654-4.699,4.429C54.265,96.779,54.576,97.939,55.304,97.673L55.304,97.673z"/>
		</g>
	</g>
	<g>
		<g>
			<path fill="#010101" d="M101.807,89.354c0.804,6.064-1.813,11.355-3.564,17c-1.953,6.292-3.211,12.953-4.201,19.457
				c-0.115,0.757,1.041,1.082,1.156,0.319c1.001-6.573,2.515-13.03,4.201-19.457c1.555-5.922,4.442-11.021,3.607-17.318
				C102.906,88.599,101.705,88.589,101.807,89.354L101.807,89.354z"/>
		</g>
	</g>
	<g>
		<g>
			<path fill="#010101" d="M84.427,115.966c3.556,1.641,5.665,6.617,6.669,10.163c0.21,0.743,1.368,0.427,1.156-0.319
				c-1.09-3.854-3.356-9.097-7.22-10.88C84.335,114.608,83.725,115.643,84.427,115.966L84.427,115.966z"/>
		</g>
	</g>
	<g>
		<g>
			<path fill="#010101" d="M55.807,104.393c3.446,1.937,5.387,5.67,8.151,8.383c2.618,2.568,6.435,4.263,9.602,6.025
				c6.523,3.63,12.965,8.237,20.64,8.611c0.773,0.038,0.771-1.163,0-1.2c-8.263-0.402-15.909-6.089-22.924-10.071
				c-3.524-2.001-6.646-4.118-9.227-7.266c-1.712-2.088-3.25-4.176-5.637-5.518C55.736,102.977,55.132,104.014,55.807,104.393
				L55.807,104.393z"/>
		</g>
	</g>
	<g>
		<g>
			<path fill="#010101" d="M71.259,105.351c3.104,3.811,4.648,8.562,7.997,12.205c3.405,3.705,7.853,6.697,12.325,8.932
				c0.69,0.345,1.298-0.69,0.605-1.036c-4.854-2.425-9.255-5.668-12.932-9.667c-3.01-3.275-4.332-7.824-7.148-11.282
				C71.618,103.902,70.774,104.757,71.259,105.351L71.259,105.351z"/>
		</g>
	</g>
	<g>
		<g>
			<path fill="#010101" d="M94.358,126.864c-2.04-0.348-10.103,0.107-9.431,3.588c0.43,2.222,2.975,2.875,4.854,2.33
				c2.313-0.672,4.872-2.855,5.627-5.18c0.24-0.738-0.919-1.052-1.156-0.319c-0.573,1.763-2.372,3.141-3.935,3.983
				c-0.956,0.516-2.142,0.811-3.14,0.262c-0.545-0.299-1.332-1.08-0.945-1.733c0.617-1.041,2.693-1.319,3.75-1.524
				c1.271-0.248,2.764-0.47,4.058-0.25C94.797,128.15,95.12,126.994,94.358,126.864L94.358,126.864z"/>
		</g>
	</g>
	<g>
		<g>
			<path fill="#010101" d="M95.254,127.867c1.623-1.785,4.845-3.97,7.298-4.117c0.888-0.053,0.745,0.871,0.631,1.478
				c-0.242,1.283-1.332,1.689-2.481,1.914c-1.907,0.373-4.069-0.004-5.923-0.488c-0.749-0.196-1.066,0.962-0.318,1.157
				c2.412,0.63,5.196,1.005,7.61,0.218c1.832-0.598,3.045-2.89,2.118-4.694c-1.549-3.015-8.532,2.308-9.782,3.684
				C93.887,127.589,94.732,128.44,95.254,127.867L95.254,127.867z"/>
		</g>
	</g>
	<g>
		<g>
			<path fill="#010101" d="M94.252,127.602c0.662,2.575,1.587,5.144,1.451,7.838c-0.039,0.774,1.16,0.77,1.199,0
				c0.143-2.803-0.805-5.479-1.494-8.157C95.216,126.534,94.059,126.852,94.252,127.602L94.252,127.602z"/>
		</g>
	</g>
	<g>
		<g>
			<path fill="#010101" d="M94.738,129.013c2.747,1.974,3.354,6.726,7.616,5.953c0.761-0.138,0.438-1.294-0.318-1.157
				c-3.284,0.596-4.468-4.234-6.692-5.832C94.714,127.524,94.116,128.566,94.738,129.013L94.738,129.013z"/>
		</g>
	</g>
	<g>
		<g>
			<path fill="#010101" d="M120.21,134.757c-11.616,4.742-23.3,10.221-35.943,11.386c-13.604,1.253-27.655-3.628-39.755-9.407
				c-12.01-5.736-22.854-14.13-30.987-24.687C5.555,101.707,2.078,89.754,1.446,76.865C0.263,52.711,5.598,23.954,28.233,11.108
				c10.344-5.869,22.595-7.979,34.28-9.068c11.011-1.025,22.509-1.447,33.53-0.438c25.051,2.294,47.24,17.569,55.702,41.598
				c2.902,8.243,5.619,17.885,4.724,26.709c-1.039,10.247-4.633,20.411-6.37,30.575c-0.13,0.757,1.026,1.081,1.156,0.319
				c1.683-9.839,4.589-19.439,6.196-29.271c1.2-7.341-0.637-14.617-2.539-21.674C149.264,28.897,136.194,13.038,115.784,5
				C105.58,0.981,94.802-0.042,83.934,0.001C73.092,0.044,62.241,0.472,51.529,2.24C41.111,3.959,30.883,7.351,22.227,13.508
				C13.935,19.407,8.901,27.791,5.591,37.237C0.357,52.171-1.248,69.59,0.97,85.243c2.378,16.789,12.127,30.701,25.07,41.264
				c13.123,10.71,30.239,18.177,47.002,20.524c16.825,2.355,32.313-4.922,47.486-11.116
				C121.235,135.626,120.927,134.465,120.21,134.757L120.21,134.757z"/>
		</g>
	</g>
	
		<text transform="matrix(0.831 0.5562 -0.5562 0.831 147.9658 106.3096)" fill="#010101" font-family="'BokutachinoGothic'" font-size="16" glyph-orientation-vertical="0" writing-mode="tb">家賃</text>
</g>
</svg>
