<?xml version="1.0" encoding="utf-8"?>
<!-- Generator: Adobe Illustrator 16.0.0, SVG Export Plug-In . SVG Version: 6.00 Build 0)  -->
<!DOCTYPE svg PUBLIC "-//W3C//DTD SVG 1.1//EN" "http://www.w3.org/Graphics/SVG/1.1/DTD/svg11.dtd">
<svg version="1.1" id="Layer_1" xmlns="http://www.w3.org/2000/svg" xmlns:xlink="http://www.w3.org/1999/xlink" x="0px" y="0px"
	 width="189.596px" height="134.817px" viewBox="0 0 189.596 134.817" enable-background="new 0 0 189.596 134.817"
	 xml:space="preserve">
<g>
	<g>
		<g>
			<path fill="#333333" d="M0.045,4.543c-0.464,22.869,2.832,45.606,2.153,68.483c-0.596,20.087-1.335,40.199-0.791,60.295
				c0.021,0.772,1.221,0.774,1.199,0c-0.543-20.096,0.192-40.209,0.792-60.295C4.082,50.149,0.78,27.413,1.244,4.543
				C1.261,3.769,0.061,3.771,0.045,4.543L0.045,4.543z"/>
		</g>
	</g>
	<g>
		<g>
			<path fill="#333333" d="M1.182,134.577c31.104,0.005,62.207,0.256,93.311,0.239c31.514-0.018,63.017-1.023,94.523-1.023
				c0.773,0,0.773-1.2,0-1.2c-30.866,0-61.729,0.979-92.602,1.021c-31.744,0.043-63.488-0.231-95.232-0.237
				C0.408,133.377,0.408,134.577,1.182,134.577L1.182,134.577z"/>
		</g>
	</g>
	<g>
		<g>
			<path fill="#333333" d="M188.27,4.402c-3.291,42.595-1.544,85.33-0.568,127.979c0.018,0.772,1.218,0.774,1.199,0
				c-0.976-42.649-2.723-85.384,0.568-127.979C189.528,3.63,188.328,3.635,188.27,4.402L188.27,4.402z"/>
		</g>
	</g>
	<g>
		<g>
			<path fill="#010101" d="M97.158,17.191c-6.248,0.035-12.018,2.217-16.011,7.146c-4.578,5.651-3.177,12.531-0.633,18.646
				c0.292,0.704,1.454,0.395,1.156-0.319c-2.69-6.469-3.563-12.679,1.183-18.536c3.377-4.168,9.187-5.708,14.305-5.736
				C97.932,18.387,97.933,17.187,97.158,17.191L97.158,17.191z"/>
		</g>
	</g>
	<g>
		<path d="M97.158,13.605c4.109,0,8.032-0.934,8.22-5.978c0-3.362-3.363-7.098-6.726-7.098s-6.725,2.242-7.099,5.604
			c-0.561,4.109,2.055,5.978,5.044,8.033"/>
		<g>
			<path fill="#010101" d="M97.158,14.205c3.5-0.047,6.928-0.714,8.409-4.225c1.51-3.576-1.15-8.272-4.627-9.556
				c-3.424-1.264-8.357,0.354-9.592,4.081c-1.565,4.729,1.315,7.667,4.946,10.178c0.638,0.441,1.237-0.599,0.605-1.036
				c-2.476-1.712-4.742-3.405-4.819-6.667c-0.095-3.992,4.287-6.46,7.843-5.656c3.581,0.81,5.429,5.107,4.487,8.337
				c-0.878,3.011-4.687,3.309-7.253,3.343C96.385,13.016,96.384,14.215,97.158,14.205L97.158,14.205z"/>
		</g>
	</g>
	<g>
		<g>
			<path fill="#010101" d="M81.822,42.983c1.275,8.149,6.854,16.944,15.896,17.066c12.062,0.162,14.783-10.395,16.456-20.242
				c0.129-0.757-1.027-1.081-1.156-0.319c-0.585,3.44-1.172,6.839-2.227,10.172c-1.961,6.198-6.926,8.797-13.073,9.188
				c-8.462,0.539-13.626-9.07-14.74-16.185C82.859,41.901,81.703,42.226,81.822,42.983L81.822,42.983z"/>
		</g>
	</g>
	<g>
		<g>
			<path fill="#010101" d="M81.942,42.262c-1.228-0.233-2.402,0.262-3.125,1.303c-0.863,1.244-0.913,2.456-0.476,3.864
				c0.822,2.64,2.776,4.229,5.525,3.072c0.702-0.296,0.395-1.458-0.318-1.157c-1.784,0.751-2.955,0.217-3.769-1.486
				c-0.35-0.73-0.642-1.65-0.517-2.457c0.165-1.071,1.208-2.2,2.36-1.981C82.38,43.563,82.702,42.406,81.942,42.262L81.942,42.262z"
				/>
		</g>
	</g>
	<g>
		<g>
			<path fill="#010101" d="M113.756,40.787c2.485-0.805,3.903,1.024,3.884,3.385c-0.021,2.794-2.205,4.288-4.817,3.491
				c-0.742-0.227-1.057,0.932-0.318,1.157c3.371,1.028,6.035-0.979,6.326-4.423c0.271-3.214-2.155-5.816-5.393-4.767
				C112.704,39.867,113.018,41.026,113.756,40.787L113.756,40.787z"/>
		</g>
	</g>
	<g>
		<g>
			<path fill="#010101" d="M95.515,49.159c1.211,1.644,3.783,1.771,5.127,0.182c0.497-0.587-0.348-1.44-0.848-0.849
				c-0.795,0.94-2.459,1.125-3.242,0.062C96.098,47.937,95.056,48.535,95.515,49.159L95.515,49.159z"/>
		</g>
	</g>
	<g>
		<g>
			<path fill="#010101" d="M90.878,51.934c4.923,2.925,10.582,2.216,15.023-1.025c0.618-0.451,0.021-1.493-0.605-1.036
				c-4.097,2.989-9.238,3.744-13.813,1.025C90.816,50.501,90.214,51.539,90.878,51.934L90.878,51.934z"/>
		</g>
	</g>
	<g>
		<path d="M92.675,43.01c-1.308,0.747-0.561,2.055,0.934,2.055c0.791-0.934,0.461-1.557-0.473-2.117"/>
		<g>
			<path fill="#010101" d="M92.372,42.492c-0.603,0.372-1.092,0.974-0.942,1.724c0.145,0.727,0.791,1.172,1.465,1.362
				c0.308,0.087,0.902,0.205,1.138-0.089c0.275-0.343,0.527-0.697,0.596-1.142c0.136-0.881-0.503-1.489-1.189-1.918
				c-0.658-0.411-1.261,0.627-0.605,1.036c0.545,0.34,0.8,0.615,0.352,1.175c0.141-0.059,0.282-0.117,0.424-0.176
				c-0.611-0.018-1.446-0.434-0.631-0.937C93.635,43.123,93.032,42.084,92.372,42.492L92.372,42.492z"/>
		</g>
	</g>
	<g>
		<path d="M102.98,42.787c-3.551,0.861,1.8,4.317,0.539,0.114"/>
		<g>
			<path fill="#010101" d="M102.821,42.208c-0.809,0.207-1.561,0.626-1.675,1.518c-0.08,0.627,0.438,1.208,0.921,1.522
				c0.538,0.35,1.274,0.419,1.784-0.011c0.703-0.594,0.466-1.74,0.246-2.495c-0.215-0.742-1.373-0.426-1.156,0.319
				c0.089,0.309,0.166,0.615,0.175,0.938c0.004,0.129-0.01,0.192-0.021,0.245c-0.023,0.102-0.068,0.133-0.028,0.087
				c0.003-0.002-0.059,0.027,0.02,0c-0.156,0.056,0.079,0.012-0.092,0.011c-0.067-0.005-0.059-0.003,0.026,0.007
				c-0.046-0.007-0.091-0.02-0.136-0.032c-0.135-0.038-0.004,0.016-0.169-0.078c-0.139-0.078-0.146-0.082-0.299-0.26
				c0.088,0.103-0.045-0.083-0.063-0.12c0.041,0.08-0.014-0.102-0.01-0.044c-0.011-0.165-0.032,0.055,0.022-0.104
				c-0.021,0.058,0.018-0.004,0.088-0.069c0.106-0.097,0.464-0.218,0.686-0.275C103.89,43.174,103.571,42.016,102.821,42.208
				L102.821,42.208z"/>
		</g>
	</g>
	<g>
		<g>
			<path fill="#010101" d="M97.729,59.478c-0.432,0.676-0.579,1.343-0.471,2.135c0.104,0.757,1.148,0.836,1.764,0.795
				c1.395-0.094,2.163-1.309,2.05-2.627c-0.065-0.765-1.266-0.771-1.199,0c0.04,0.472,0.011,0.985-0.42,1.272
				c-0.423,0.282-0.976,0.158-1.418,0.003c0.14,0.14,0.279,0.279,0.419,0.419c-0.113-0.534,0.024-0.942,0.311-1.392
				C99.183,59.429,98.144,58.828,97.729,59.478L97.729,59.478z"/>
		</g>
	</g>
	<g>
		<g>
			<path fill="#010101" d="M97.902,59.388c-0.982,0.35-2.219,1.057-2.073,2.287c0.121,1.015,0.983,1.763,1.872,2.157
				c0.954,0.423,2.139,0.559,3.05-0.044c1.246-0.825,1.243-2.48,1.041-3.795c-0.116-0.763-1.272-0.438-1.156,0.319
				c0.117,0.771,0.169,1.963-0.49,2.44c-0.523,0.378-1.211,0.277-1.845,0.04c-0.549-0.205-1.123-0.68-1.258-1.112
				c-0.056-0.18-0.056-0.265,0.117-0.515c0.187-0.269,0.708-0.493,1.061-0.618C98.944,60.287,98.633,59.127,97.902,59.388
				L97.902,59.388z"/>
		</g>
	</g>
	<g>
		<g>
			<path fill="#010101" d="M100.685,60.359c1.296,0.402,2.408,1.216,3.444,2.071c0.592,0.488,1.445-0.355,0.848-0.849
				c-1.2-0.991-2.471-1.914-3.974-2.38C100.262,58.972,99.947,60.131,100.685,60.359L100.685,60.359z"/>
		</g>
	</g>
	<g>
		<g>
			<path fill="#010101" d="M97.319,59.551c-1.847,0.064-3.241,1.151-4.504,2.402c-0.551,0.545,0.298,1.393,0.848,0.849
				c1.022-1.012,2.147-1.998,3.656-2.05C98.091,60.725,98.094,59.524,97.319,59.551L97.319,59.551z"/>
		</g>
	</g>
	<g>
		<g>
			<path fill="#010101" d="M92.269,61.635c0.129,2.441,0.803,4.616,3.198,5.61c2.332,0.968,5.381,0.148,7.762-0.209
				c0.764-0.115,0.438-1.271-0.318-1.157c-1.917,0.288-3.84,0.638-5.785,0.506c-2.679-0.182-3.531-2.367-3.657-4.75
				C93.428,60.866,92.228,60.862,92.269,61.635L92.269,61.635z"/>
		</g>
	</g>
	<g>
		<g>
			<path fill="#010101" d="M103.953,61.635c0.01,0.896,0.707,4.729-0.91,4.429c-0.756-0.141-1.079,1.016-0.318,1.157
				c3.194,0.593,2.45-3.697,2.428-5.586C105.144,60.862,103.943,60.861,103.953,61.635L103.953,61.635z"/>
		</g>
	</g>
	<g>
		<g>
			<path fill="#010101" d="M104.579,62.028c0.965,0.196,1.559,0.378,1.558,1.433c0,1.249-0.177,2.485-0.144,3.738
				c0.02,0.772,1.22,0.774,1.199,0c-0.039-1.5,0.301-3.063,0.081-4.55c-0.171-1.166-1.38-1.576-2.376-1.778
				C104.143,60.718,103.82,61.875,104.579,62.028L104.579,62.028z"/>
		</g>
	</g>
	<g>
		<g>
			<path fill="#010101" d="M93.356,60.932c-3.651-2.083-2.938,5.577-2.757,7.009c0.095,0.757,1.296,0.767,1.199,0
				c-0.08-0.641-0.715-6.924,0.952-5.973C93.424,62.352,94.028,61.315,93.356,60.932L93.356,60.932z"/>
		</g>
	</g>
	<g>
		<g>
			<path fill="#010101" d="M91.034,68.086c0.941,5.728,0.483,11.531-0.124,17.269c-0.629,5.949-5.377,9.921-7.071,15.48
				c-0.227,0.742,0.932,1.057,1.156,0.319c1.55-5.082,6.329-8.969,6.947-14.344c0.729-6.327,1.287-12.723,0.248-19.044
				C92.065,67.004,90.909,67.329,91.034,68.086L91.034,68.086z"/>
		</g>
	</g>
	<g>
		<g>
			<path fill="#010101" d="M105.985,67.118c0.249,6.095,2.254,11.898,2.899,17.953c0.612,5.734,1.296,11.453,2.247,17.142
				c0.127,0.762,1.283,0.438,1.156-0.319c-1.038-6.212-1.738-12.464-2.406-18.725c-0.578-5.427-2.473-10.565-2.697-16.051
				C107.153,66.347,105.953,66.344,105.985,67.118L105.985,67.118z"/>
		</g>
	</g>
	<g>
		<g>
			<path fill="#010101" d="M84.267,101.665c2.519,1.409,6.195,1.071,8.979,1.322c2.895,0.261,5.612,1.095,8.54,1.257
				c3.241,0.179,6.651-0.652,9.813-1.208c0.762-0.134,0.438-1.29-0.318-1.157c-3.157,0.555-6.282,1.069-9.495,1.165
				c-2.731,0.082-5.34-0.83-8.016-1.187c-2.771-0.37-6.415,0.161-8.898-1.229C84.196,100.25,83.591,101.287,84.267,101.665
				L84.267,101.665z"/>
		</g>
	</g>
	<g>
		<g>
			<path fill="#010101" d="M91.184,84.692c2.218,0.574,4.434,1.031,6.658,0.27c-0.246-0.14-0.491-0.279-0.737-0.419
				c0.322,2.371,0.246,4.867,0.016,7.24c-0.193,1.989-0.643,3.874-3.242,3.275c-2.167-0.5-2.051-3.691-1.936-5.414
				c0.052-0.773-1.148-0.768-1.199,0c-0.127,1.898-0.085,4.653,1.529,5.941c1.239,0.989,3.982,1.338,5.021-0.149
				c1.002-1.436,1.046-3.495,1.146-5.178c0.118-1.996,0.093-4.051-0.178-6.035c-0.042-0.311-0.458-0.515-0.737-0.419
				c-2.026,0.693-4.012,0.25-6.021-0.27C90.753,83.341,90.435,84.498,91.184,84.692L91.184,84.692z"/>
		</g>
	</g>
	<g>
		<g>
			<path fill="#010101" d="M101.435,84.557c2.613,0.48,5.066-0.229,7.603-0.81c0.755-0.173,0.435-1.33-0.318-1.157
				c-2.297,0.526-4.593,1.246-6.966,0.81C100.997,83.261,100.674,84.417,101.435,84.557L101.435,84.557z"/>
		</g>
	</g>
	<g>
		<g>
			<path fill="#010101" d="M101.129,83.979c-0.021,3.745-0.573,9.311,3.47,11.249c3.748,1.796,4.974-3.625,6.012-5.956
				c0.312-0.7-0.723-1.312-1.037-0.605c-0.886,1.991-1.706,6.801-4.796,5.321c-3.169-1.519-2.465-7.146-2.449-10.008
				C102.333,83.205,101.133,83.205,101.129,83.979L101.129,83.979z"/>
		</g>
	</g>
	<g>
		<g>
			<path fill="#010101" d="M93.846,102.862c-0.002,2.657-0.002,5.314-0.373,7.951c-0.241,1.719-0.303,3.75,0.259,5.427
				c0.621,1.858,4.08,0.649,5.435,0.576c0.77-0.042,0.773-1.242,0-1.2c-0.948,0.051-1.889,0.227-2.833,0.328
				c-1.616,0.172-1.507-0.844-1.745-2.169c-0.315-1.758,0.205-3.623,0.341-5.396c0.141-1.832,0.115-3.68,0.116-5.516
				C95.046,102.088,93.846,102.088,93.846,102.862L93.846,102.862z"/>
		</g>
	</g>
	<g>
		<g>
			<path fill="#010101" d="M99.128,103.832c0.485,1.897,0.568,3.928,0.671,5.875c0.067,1.294,0.622,5.54-0.666,6.396
				c-0.642,0.426-0.041,1.466,0.605,1.036c1.592-1.057,1.311-4.139,1.309-5.751c-0.004-2.577-0.119-5.364-0.763-7.875
				C100.093,102.763,98.936,103.081,99.128,103.832L99.128,103.832z"/>
		</g>
	</g>
	<g>
		<g>
			<path fill="#010101" d="M103.152,103.807c0,4.046,0,8.093,0,12.14c0,0.774,1.199,0.774,1.199,0c0-4.046,0-8.093,0-12.14
				C104.352,103.033,103.152,103.033,103.152,103.807L103.152,103.807z"/>
		</g>
	</g>
	<g>
		<g>
			<path fill="#010101" d="M107.469,103.402c0.1,3.66,2.275,8.199,0.831,11.71c-0.295,0.716,0.866,1.024,1.156,0.319
				c1.496-3.635-0.686-8.297-0.788-12.03C108.647,102.629,107.447,102.627,107.469,103.402L107.469,103.402z"/>
		</g>
	</g>
	<g>
		<g>
			<path fill="#010101" d="M103.482,117.086c1.753-0.038,3.469-0.509,5.15-0.966c0.746-0.203,0.429-1.36-0.318-1.157
				c-1.578,0.429-3.188,0.887-4.832,0.923C102.71,115.903,102.708,117.103,103.482,117.086L103.482,117.086z"/>
		</g>
	</g>
	<g>
		<g>
			<path fill="#010101" d="M94.825,115.907c-1.273,0.198-8.172,2.625-5.023,4.655c3.363,2.168,9.303,1.053,9.829-3.402
				c0.091-0.768-1.11-0.759-1.199,0c-0.416,3.516-4.821,3.585-7.409,2.693c-1.646-0.567,0.362-1.476,1.088-1.825
				c0.943-0.455,1.996-0.803,3.033-0.964C95.907,116.946,95.582,115.79,94.825,115.907L94.825,115.907z"/>
		</g>
	</g>
	<g>
		<g>
			<path fill="#010101" d="M102.964,117.193c0.926,1.394,1.362,2.549,3.035,3.125c2.019,0.695,4.315,1.025,6.174-0.22
				c1.22-0.817,1.417-2.226,0.882-3.494c-0.624-1.478-2.433-2.121-3.907-2.067c-0.771,0.028-0.774,1.228,0,1.2
				c1.21-0.044,2.26,0.389,2.871,1.473c0.932,1.653-1.485,2.504-2.656,2.543c-1.179,0.039-2.784-0.351-3.821-0.931
				c-0.704-0.395-1.112-1.59-1.54-2.234C103.574,115.947,102.535,116.547,102.964,117.193L102.964,117.193z"/>
		</g>
	</g>
	<g>
		<g>
			<path fill="#010101" d="M106.744,118.144c1.811-0.323,3.045-1.779,4.966-1.732c0.774,0.019,0.772-1.181,0-1.2
				c-0.952-0.023-1.798,0.174-2.654,0.584c-0.894,0.428-1.63,1.012-2.63,1.19C105.665,117.122,105.988,118.278,106.744,118.144
				L106.744,118.144z"/>
		</g>
	</g>
	<g>
		<g>
			<path fill="#010101" d="M92.422,117.896c1.186,0.043,2.249,0.673,3.348,1.057c0.732,0.256,1.044-0.904,0.318-1.157
				c-1.22-0.426-2.348-1.052-3.666-1.1C91.647,116.667,91.65,117.868,92.422,117.896L92.422,117.896z"/>
		</g>
	</g>
	<g>
		<g>
			<path fill="#010101" d="M90.792,52.503c0.243-0.616,0.635-1.095,1.199-1.436c0.661-0.399,0.059-1.437-0.605-1.036
				c-0.847,0.511-1.39,1.238-1.75,2.152C89.352,52.905,90.512,53.214,90.792,52.503L90.792,52.503z"/>
		</g>
	</g>
	<g>
		<g>
			<path fill="#010101" d="M104.599,49.932c0.586,0.292,0.87,0.657,0.898,1.315c0.032,0.771,1.232,0.774,1.199,0
				c-0.044-1.065-0.527-1.871-1.492-2.352C104.514,48.552,103.906,49.587,104.599,49.932L104.599,49.932z"/>
		</g>
	</g>
	<g>
		<g>
			<path fill="#010101" d="M90.521,64.824c-2.81,1.883-5.505,3.717-8.724,4.845c-4.206,1.475-9.058,1.826-13.451,2.461
				c-0.764,0.11-0.438,1.267,0.318,1.157c4.478-0.648,9.105-1.188,13.452-2.461c3.319-0.973,6.176-3.067,9.01-4.966
				C91.766,65.432,91.165,64.392,90.521,64.824L90.521,64.824z"/>
		</g>
	</g>
	<g>
		<g>
			<path fill="#010101" d="M67.494,72.869c0.418,2.247,1.041,4.341,2.289,6.275c0.419,0.647,1.458,0.047,1.037-0.605
				c-1.195-1.851-1.77-3.841-2.17-5.989C68.51,71.79,67.353,72.112,67.494,72.869L67.494,72.869z"/>
		</g>
	</g>
	<g>
		<g>
			<path fill="#010101" d="M70.022,79.634c4.63,0.198,9.437-2.415,13.67-4.051c3.748-1.449,6-4.859,8.299-7.947
				c0.462-0.622-0.58-1.219-1.037-0.605c-2.491,3.347-4.623,6.252-8.642,7.805c-3.783,1.462-8.172,3.775-12.29,3.598
				C69.248,78.401,69.252,79.601,70.022,79.634L70.022,79.634z"/>
		</g>
	</g>
	<g>
		<g>
			<path fill="#010101" d="M106.337,64.126c3.503,1.501,6.693,3.73,9.696,6.053c2.056,1.59,3.333,3.43,1.021,5.524
				c-1.461,1.322-3.329,2.232-4.926,3.379c-0.622,0.447-0.024,1.489,0.605,1.036c2.47-1.774,7.766-3.851,6.892-7.691
				c-0.425-1.868-2.867-3.209-4.273-4.264c-2.609-1.957-5.404-3.787-8.409-5.074C106.239,62.789,105.627,63.822,106.337,64.126
				L106.337,64.126z"/>
		</g>
	</g>
	<g>
		<g>
			<path fill="#010101" d="M106.337,67.376c1.341,0.773,2.5,2.061,3.527,3.2c0.719,0.797,1.168,1.686,0.959,2.798
				c-0.209,1.114-1.654,1.788-2.536,2.283c-0.675,0.379-0.069,1.416,0.605,1.036c2.084-1.171,4.104-2.975,2.815-5.588
				c-0.896-1.822-3.019-3.758-4.766-4.766C106.271,65.953,105.667,66.99,106.337,67.376L106.337,67.376z"/>
		</g>
	</g>
	<g>
		<g>
			<path fill="#010101" d="M112.576,79.125c-1.081-0.635-2.231-1.113-3.394-1.578c-0.719-0.288-1.028,0.874-0.318,1.157
				c1.066,0.427,2.114,0.874,3.106,1.457C112.64,80.553,113.243,79.516,112.576,79.125L112.576,79.125z"/>
		</g>
	</g>
	<g>
		<g>
			<path fill="#010101" d="M110.612,80.019c0.108,0.658-0.282,1.045-0.882,1.212c-0.745,0.207-0.429,1.364,0.318,1.157
				c1.28-0.355,1.937-1.383,1.72-2.688C111.643,78.938,110.486,79.262,110.612,80.019L110.612,80.019z"/>
		</g>
	</g>
	<g>
		<g>
			<path fill="#010101" d="M61.785,73.374c-1.757,0.103-1.954,2.063-1.736,3.438c0.274,1.731,1.54,3.331,3.417,3.063
				c0.764-0.109,0.438-1.265-0.318-1.157c-1.855,0.265-2.739-4.064-1.362-4.145C62.554,74.528,62.559,73.328,61.785,73.374
				L61.785,73.374z"/>
		</g>
	</g>
	<g>
		<g>
			<path fill="#010101" d="M63.048,73.358c-0.693-4.462-1.262-8.943-1.743-13.433c-0.081-0.761-1.282-0.769-1.199,0
				c0.492,4.597,1.076,9.184,1.786,13.752C62.01,74.44,63.166,74.115,63.048,73.358L63.048,73.358z"/>
		</g>
	</g>
	<g>
		<g>
			<path fill="#010101" d="M62.268,59.716c0.225,4.546,1.094,9.033,1.503,13.562c0.068,0.764,1.27,0.771,1.199,0
				c-0.408-4.529-1.278-9.016-1.503-13.562C63.429,58.946,62.229,58.942,62.268,59.716L62.268,59.716z"/>
		</g>
	</g>
	<g>
		<g>
			<path fill="#010101" d="M62.707,78.004c1.686,14.281,3.265,28.578,4.872,42.873c0.085,0.76,1.286,0.769,1.199,0
				c-1.607-14.294-3.186-28.592-4.872-42.873C63.817,77.245,62.616,77.236,62.707,78.004L62.707,78.004z"/>
		</g>
	</g>
	<g>
		<g>
			<path fill="#010101" d="M68.069,121.329c0.423,0.253,0.883,0.442,1.385,0.411c0.705-0.044,1.201-0.528,1.604-1.06
				c0.468-0.617-0.575-1.214-1.037-0.605c-0.414,0.546-0.804,0.542-1.347,0.218C68.009,119.895,67.405,120.933,68.069,121.329
				L68.069,121.329z"/>
		</g>
	</g>
	<g>
		<g>
			<path fill="#010101" d="M64.456,77.472c1.62,14.536,3.358,28.956,5.496,43.43c0.112,0.763,1.269,0.438,1.156-0.319
				c-2.12-14.359-3.845-28.688-5.453-43.11C65.571,76.711,64.37,76.703,64.456,77.472L64.456,77.472z"/>
		</g>
	</g>
	<g>
		<g>
			<path fill="#010101" d="M51.3,47.873c0.096,5.82,2.745,13.67,10.065,12.644c6.589-0.924,7.179-8.435,6.295-13.752
				c-0.126-0.762-1.282-0.438-1.156,0.319c0.732,4.411,0.568,10.872-4.744,12.175c-6.82,1.674-9.177-6.307-9.261-11.386
				C52.486,47.1,51.287,47.098,51.3,47.873L51.3,47.873z"/>
		</g>
	</g>
	<g>
		<g>
			<path fill="#010101" d="M52.373,48.235c4.96,0.029,10.052,0.471,14.868-0.97c0.74-0.221,0.425-1.379-0.318-1.157
				c-4.709,1.409-9.701,0.956-14.55,0.927C51.599,47.031,51.6,48.231,52.373,48.235L52.373,48.235z"/>
		</g>
	</g>
	<g>
		<g>
			<path fill="#010101" d="M55.569,39.095c0,1.186,0,2.373,0,3.559c0,0.774,1.199,0.774,1.199,0c0-1.186,0-2.373,0-3.559
				C56.769,38.321,55.569,38.321,55.569,39.095L55.569,39.095z"/>
		</g>
	</g>
	<g>
		<g>
			<path fill="#010101" d="M61.522,38.224c-0.282,1.143-0.48,2.302-0.496,3.481c-0.011,0.774,1.188,0.773,1.199,0
				c0.016-1.076,0.197-2.12,0.453-3.162C62.864,37.792,61.707,37.473,61.522,38.224L61.522,38.224z"/>
		</g>
	</g>
	<g>
		<g>
			<path fill="#010101" d="M67.861,47.256c1.016-4.319,2.911-8.425,4.909-12.372c0.118-0.235,0.111-0.537-0.095-0.727
				c-3.923-3.619-9.873-4.255-15-4.524c-6.671-0.351-12.649,2.31-17.257,7.021c-0.542,0.553,0.307,1.402,0.848,0.849
				c7.42-7.586,16.982-7.586,26.635-4.877c4.687,1.315,3.727,1.756,2.165,5.139c-1.365,2.957-2.615,5.998-3.361,9.173
				C66.527,47.69,67.685,48.009,67.861,47.256L67.861,47.256z"/>
		</g>
	</g>
	<g>
		<g>
			<path fill="#010101" d="M52.399,48.132c1.83-5.762-6.859-10.297-11.169-11.717c-0.736-0.243-1.05,0.916-0.318,1.157
				c3.679,1.212,11.896,5.309,10.331,10.24C51.008,48.552,52.167,48.866,52.399,48.132L52.399,48.132z"/>
		</g>
	</g>
	<g>
		<g>
			<path fill="#010101" d="M59.516,42.238c-0.187-1.006-0.206-2.022-0.207-3.042c0-0.774-1.2-0.774-1.199,0
				c0,1.13,0.042,2.248,0.25,3.362C58.5,43.317,59.656,42.994,59.516,42.238L59.516,42.238z"/>
		</g>
	</g>
	<g>
		<g>
			<path fill="#010101" d="M63.685,78.446c0.417-0.188,1.036-0.23,1.508-0.454c0.695-0.331,1-1.015,1.092-1.738
				c0.121-0.952-0.19-2.327-1.016-2.882c-0.814-0.547-2.045-0.246-2.951-0.227c-0.772,0.017-0.774,1.217,0,1.2
				c0.725-0.016,1.469-0.17,2.185,0c0.626,0.148,0.667,1.649,0.521,2.162c-0.198,0.692-1.401,0.658-1.943,0.902
				C62.375,77.728,62.985,78.761,63.685,78.446L63.685,78.446z"/>
		</g>
	</g>
	<g>
		<g>
			<path fill="#010101" d="M67.792,72.391c-0.91-0.655-1.7-1.473-2.889-1.527c-0.774-0.035-0.771,1.165,0,1.2
				c0.885,0.04,1.606,0.875,2.283,1.363C67.815,73.88,68.414,72.838,67.792,72.391L67.792,72.391z"/>
		</g>
	</g>
	<g>
		<g>
			<path fill="#010101" d="M65.595,79.191c1.289-0.326,2.276-1.343,3.23-2.207c0.575-0.521-0.276-1.367-0.848-0.849
				c-0.797,0.722-1.625,1.626-2.701,1.898C64.526,78.224,64.845,79.381,65.595,79.191L65.595,79.191z"/>
		</g>
	</g>
	<g>
		<path d="M98.744,24.533c-0.728,6.878-9.453,17.508-14.786,19.07c-5.574,1.563-4.362-9.066-4.362-14.381
			c0.242-15.006,15.755-18.445,25.208-15.944c6.303,1.563,10.181,4.064,10.908,11.88c0.727,6.565,2.424,11.567-2.666,15.006"/>
		<g>
			<path fill="#010101" d="M98.166,24.374c-0.695,4.455-3.184,8.313-5.936,11.79c-1.958,2.473-9.801,11.074-11.723,4.078
				c-1.955-7.115-0.667-17.609,4.809-22.646c5.686-5.229,14.652-5.207,21.576-3.099c5.236,1.594,7.574,5.43,8.22,10.663
				c0.646,5.242,2.325,10.842-2.49,14.582c-0.611,0.474,0.245,1.317,0.848,0.849c5.123-3.979,3.534-9.758,2.842-15.431
				c-0.603-4.944-2.374-8.699-6.944-10.981c-8.282-4.138-19.929-2.768-26.362,4.009c-3.627,3.82-3.93,8.921-4.068,13.882
				c-0.082,2.933-0.938,9.519,2.025,11.583c3.228,2.247,7.252-1.661,9.462-3.734c4.179-3.918,8.003-9.484,8.898-15.225
				C99.44,23.936,98.284,23.611,98.166,24.374L98.166,24.374z"/>
		</g>
	</g>
	<g>
		<g>
			<path fill="#010101" d="M99.846,26.722c6.078,2.625,10.897,7.749,15.508,12.356c0.548,0.547,1.396-0.301,0.848-0.849
				c-4.668-4.666-9.588-9.883-15.75-12.544C99.749,25.383,99.137,26.416,99.846,26.722L99.846,26.722z"/>
		</g>
	</g>
	<g>
		<path fill="#F79421" d="M157.645,15.106c-1.146,2.862-5.345,3.452-8.372,3.452c5.299,1.514,7.132,4.033,6.056,11.354
			c2.095-6.17,6.169-10.023,10.598-9.841c-7.839-1.865-5.299-6.813-5.299-10.598c-0.546,1.602-0.813,2.531-2.097,4.392"/>
		<g>
			<path fill="#010101" d="M157.126,14.803c-1.56,2.865-4.972,3.095-7.854,3.154c-0.685,0.014-0.808,0.978-0.159,1.179
				c5.552,1.718,6.297,5.464,5.615,10.776c-0.093,0.716,0.96,0.746,1.178,0.16c1.684-4.524,4.664-9.275,10.02-9.4
				c0.675-0.016,0.82-0.994,0.159-1.179c-6.021-1.682-5.02-5.149-4.858-10.019c0.023-0.706-0.968-0.778-1.178-0.16
				c-0.526,1.543-1.153,2.884-2.036,4.249c-0.423,0.651,0.617,1.252,1.035,0.605c0.951-1.468,1.597-2.89,2.157-4.535
				c-0.393-0.053-0.785-0.106-1.178-0.16c-0.192,5.763-0.809,9.348,5.739,11.176c0.053-0.393,0.106-0.786,0.159-1.179
				c-5.935,0.139-9.288,5.208-11.176,10.281c0.393,0.053,0.785,0.106,1.178,0.16c0.776-6.044-0.425-10.054-6.496-11.933
				c-0.053,0.393-0.106,0.786-0.159,1.179c3.358-0.069,7.135-0.525,8.891-3.749C158.532,14.729,157.497,14.124,157.126,14.803
				L157.126,14.803z"/>
		</g>
	</g>
	<g>
		<path fill="#F79421" d="M25.026,88.474c3.043,3.198,2.607,8.316,0.435,12.154c3.799-3.621,6.113,0.945,8.259,3.838
			c-1.814-3.903-1.865-7.721-1.305-12.793c-2.366,3.763-4.223-0.055-5.65-1.919"/>
		<g>
			<path fill="#010101" d="M24.603,88.898c2.845,3.387,2.263,7.74,0.34,11.427c-0.327,0.627,0.424,1.156,0.942,0.727
				c3.596-2.971,5.666,1.427,7.316,3.716c0.459,0.636,1.342,0.102,1.037-0.605c-1.747-4.051-1.665-8.188-1.224-12.491
				c0.068-0.663-0.805-0.721-1.118-0.303c-2.119,2.832-3.527-0.426-4.613-1.919c-0.451-0.619-1.493-0.021-1.037,0.605
				c1.979,2.718,4.01,5.496,6.688,1.919c-0.373-0.101-0.746-0.202-1.118-0.303c-0.47,4.567-0.453,8.83,1.386,13.096
				c0.346-0.202,0.691-0.404,1.037-0.605c-2.438-3.381-5.008-7.424-9.201-3.959c0.313,0.242,0.628,0.485,0.942,0.727
				c2.193-4.208,2.675-9.067-0.529-12.881C24.952,87.456,24.107,88.31,24.603,88.898L24.603,88.898z"/>
		</g>
	</g>
	<g>
		<path fill="#F79421" d="M21.926,106.474c5.273,3.767,4.52,9.793,0.753,14.313c6.584-4.265,10.596,1.113,14.313,4.52
			c-3.145-4.597-3.233-9.093-2.26-15.066c-4.103,4.431-7.32-0.065-9.794-2.26"/>
		<g>
			<path fill="#010101" d="M21.502,106.898c4.699,3.743,4.195,9.025,0.753,13.465c-0.396,0.51,0.093,1.308,0.727,0.942
				c5.888-3.395,9.514,0.603,13.587,4.426c0.484,0.456,1.319-0.136,0.942-0.727c-2.944-4.614-3-9.351-2.2-14.604
				c0.088-0.575-0.532-1.023-1.002-0.584c-3.755,3.505-6.266,0.229-8.946-2.26c-0.565-0.525-1.416,0.321-0.848,0.849
				c3.426,3.181,6.492,6.134,10.642,2.26c-0.334-0.195-0.668-0.389-1.002-0.584c-0.853,5.596-0.8,10.639,2.319,15.529
				c0.314-0.242,0.629-0.485,0.942-0.727c-4.597-4.315-8.7-8.27-15.04-4.613c0.242,0.314,0.484,0.628,0.727,0.942
				c3.848-4.961,4.504-10.976-0.753-15.162C21.751,105.573,20.896,106.416,21.502,106.898L21.502,106.898z"/>
		</g>
	</g>
</g>
</svg>
