<?xml version="1.0" encoding="utf-8"?>
<!-- Generator: Adobe Illustrator 16.0.0, SVG Export Plug-In . SVG Version: 6.00 Build 0)  -->
<!DOCTYPE svg PUBLIC "-//W3C//DTD SVG 1.1//EN" "http://www.w3.org/Graphics/SVG/1.1/DTD/svg11.dtd">
<svg version="1.1" id="Layer_1" xmlns="http://www.w3.org/2000/svg" xmlns:xlink="http://www.w3.org/1999/xlink" x="0px" y="0px"
	 width="104.022px" height="134.868px" viewBox="0 0 104.022 134.868" enable-background="new 0 0 104.022 134.868"
	 xml:space="preserve">
<g>
	<g>
		<path fill="#010101" d="M59.44,58.458c-5.167,20.833-24.167,48.333,5.333,44.999c8.248-0.932,3.471-19.826,2.5-26.416
			c-0.494-5.178,8.25-12.75-5.484-18.988"/>
		<g>
			<path fill="#010101" d="M58.862,58.298c-2.856,11.098-9.114,21.616-10.575,33.037c-1.231,9.63,4.668,13.26,13.739,12.952
				c11.133-0.378,8.18-13.692,6.872-21.407c-0.42-2.473-1.341-5.223-0.86-7.725c0.462-2.411,1.641-4.606,2.037-7.05
				c0.867-5.354-3.792-8.511-7.983-10.569c-0.691-0.34-1.3,0.695-0.605,1.036c6.227,3.057,8.605,6.718,6.347,13.261
				c-0.964,2.792-1.273,4.708-0.765,7.6c0.788,4.478,1.607,8.935,1.836,13.484c0.111,2.221-0.038,4.445-0.637,6.591
				c-1.1,3.941-5.38,3.629-8.689,3.618c-11.536-0.038-11.098-9.594-8.592-18.116c2.627-8.93,6.708-17.36,9.032-26.392
				C60.212,57.868,59.055,57.549,58.862,58.298L58.862,58.298z"/>
		</g>
	</g>
	<g>
		<path fill="#010101" d="M28.471,24.254c-3.015,1.508,5.521,5.527,8.035,6.028c8.538,2.009,12.557-6.53,20.592-8.036
			c20.088-4.019,22.596,18.583,41.182,17.075c-14.059-2.511-3.011-15.067-7.029-23.605C86.731,6.677,71.664,2.659,65.132,11.7
			C67.646,1.153,48.06-2.865,42.029,3.663c-8.038,8.54,4.02,20.09-13.559,20.09c0.503,1.005,1.004,1.508,1.505,2.51"/>
		<g>
			<path fill="#010101" d="M28.168,23.736c-3.678,2.7,5.199,6.119,6.894,6.751c8.662,3.236,14.492-5.833,22.195-7.662
				c9.45-2.244,16.221,3.513,22.707,9.384c5.316,4.812,10.933,8.114,18.315,7.712c0.649-0.036,0.851-1.03,0.159-1.179
				c-8.778-1.895-6.837-8.356-5.881-15.179c0.599-4.265-0.093-7.695-2.754-11.088c-5.971-7.612-18.874-8.988-25.096-1.2
				c0.334,0.195,0.668,0.389,1.002,0.584C67.579,1.538,53.669-1.418,46.133,0.592c-4.513,1.204-7.067,5.246-7.72,9.653
				c-0.325,2.198-0.119,4.453-0.186,6.665c-0.167,5.547-5.209,6.146-9.757,6.243c-0.448,0.01-0.757,0.505-0.519,0.903
				c0.502,0.837,1.004,1.673,1.505,2.51c0.397,0.663,1.436,0.06,1.037-0.605c-1.557-2.596,2.403-1.843,4.395-2.419
				c1.278-0.37,2.731-1.246,3.415-2.425c1.716-2.957,1.027-6.591,1.206-9.857c0.803-14.716,27.339-12.397,25.044,0.282
				c-0.095,0.523,0.589,1.102,1.002,0.584c4.572-5.723,11.808-5.904,18.063-2.958c6.285,2.959,8.559,8.538,7.642,15.08
				c-1.053,7.501-2.13,13.713,6.859,15.654c0.053-0.393,0.106-0.786,0.159-1.179C84.532,39.47,79.058,25.959,67.281,21.987
				c-5.809-1.959-12.153-0.479-17.166,2.719c-3.572,2.279-6.608,5.009-11.054,5.281c-1.48,0.091-11.818-4.091-10.288-5.214
				C29.391,24.32,28.793,23.278,28.168,23.736L28.168,23.736z"/>
		</g>
	</g>
	<g>
		<g>
			<path fill="#010101" d="M81.494,28.709c-4.682,7.769-6.867,16.627-9.278,25.287c-0.354,1.274-0.716,5.601-2.875,5.153
				c-3.035-0.63-6.085-1.186-9.14-1.715c-4.901-0.851-9.835-1.497-14.779-2.037c-0.769-0.084-0.761,1.117,0,1.2
				c8.56,0.935,17.027,2.345,25.456,4.094c0.328,0.068,0.636-0.092,0.737-0.419c3.24-10.428,5.212-21.494,10.914-30.958
				C82.931,28.65,81.893,28.047,81.494,28.709L81.494,28.709z"/>
		</g>
	</g>
	<g>
		<g>
			<path fill="#010101" d="M43.471,26.106c-1.497,5.153-1.113,11.196-0.979,16.486c0.094,3.7-0.352,11.616,2.963,14.288
				c0.596,0.481,1.451-0.363,0.848-0.849c-3.242-2.614-2.545-10.853-2.639-14.533c-0.123-4.818-0.396-10.392,0.963-15.073
				C44.844,25.681,43.686,25.365,43.471,26.106L43.471,26.106z"/>
		</g>
	</g>
	<g>
		<g>
			<path fill="#010101" d="M57.65,35.712c-0.745,3.055-1.323,6.151-2.286,9.148c-0.104,0.324,0.119,0.639,0.419,0.738
				c1.828,0.606,3.708,1.291,5.647,1.394c0.335,0.018,0.59-0.287,0.6-0.6c0.052-1.539,0.391-3.04,0.456-4.576
				c0.033-0.774-1.167-0.771-1.199,0c-0.066,1.536-0.405,3.036-0.456,4.576c0.199-0.2,0.399-0.4,0.6-0.6
				c-1.817-0.097-3.614-0.782-5.329-1.351c0.14,0.246,0.279,0.492,0.419,0.738c0.964-2.998,1.542-6.094,2.286-9.148
				C58.99,35.279,57.833,34.96,57.65,35.712L57.65,35.712z"/>
		</g>
	</g>
	<g>
		<g>
			<path fill="#010101" d="M42.525,33.921c-1.174-0.486-2.485-0.428-3.66-0.916c-0.284-0.118-0.684,0.125-0.737,0.419
				c-0.479,2.62-0.477,5.28-0.477,7.934c-0.001,0.337,0.273,0.586,0.6,0.6c1.457,0.06,2.832,0.356,4.274-0.021
				c0.748-0.196,0.431-1.354-0.318-1.157c-1.329,0.348-2.617,0.034-3.956-0.021c0.2,0.2,0.4,0.4,0.6,0.6
				c0.001-2.542-0.024-5.104,0.434-7.615c-0.245,0.14-0.491,0.279-0.737,0.419c1.174,0.487,2.485,0.429,3.66,0.916
				C42.922,35.375,43.23,34.213,42.525,33.921L42.525,33.921z"/>
		</g>
	</g>
	<g>
		<g>
			<path fill="#010101" d="M63.606,35.787c0.01,0.304,0.096,0.62,0.368,0.792c0.266,0.168,0.676,0.069,0.821-0.215
				c0.353-0.686-0.683-1.512-1.083-1.916c-0.367-0.371-1.026-0.098-1.023,0.424c0.003,0.621,0.063,1.417,0.594,1.821
				c0.511,0.39,1.213-0.152,1.684-0.388c0.298-0.149,0.365-0.549,0.215-0.821c-0.296-0.538-0.793-1.03-1.441-1.055
				c-0.795-0.03-0.824,0.873-0.414,1.324c0.521,0.574,1.367-0.277,0.848-0.849c0.707,0.778-0.818,0.522-0.384,0.757
				c0.17,0.091,0.267,0.267,0.356,0.429c0.071-0.273,0.143-0.547,0.215-0.821c-0.305,0.152-0.609,0.305-0.914,0.458
				c0.154-0.02,0.309-0.041,0.462-0.061c0.08,0.011,0.143,0.208,0.077,0.007c-0.031-0.095-0.053-0.2-0.065-0.3
				c-0.021-0.166-0.031-0.334-0.032-0.501c-0.341,0.142-0.683,0.283-1.023,0.424c0.262,0.264,0.518,0.533,0.752,0.823
				c0.085,0.105,0.123,0.297,0.084,0.098c0.02-0.154,0.04-0.308,0.06-0.462c0,0-0.001,0.001-0.001,0.002
				c0.273-0.072,0.547-0.144,0.821-0.215c0.089,0.056,0.229,0.264,0.231,0.271c-0.053-0.148-0.002,0.097-0.007-0.027
				C64.781,35.015,63.581,35.012,63.606,35.787L63.606,35.787z"/>
		</g>
	</g>
	<g>
		<g>
			<path fill="#010101" d="M54.742,35.185c0.528,0,1.338,0.095,1.532-0.552c0.201-0.67-0.812-1.184-1.34-1.076
				c-0.976,0.199-1.023,1.33-0.771,2.103c0.221,0.678,1.101,0.496,1.178-0.16c-0.013,0.108,0.134-0.147,0.157-0.176
				c0.118-0.148,0.233-0.293,0.313-0.464c0.2-0.426,0.097-0.806-0.191-1.155c-0.282,0.283-0.565,0.566-0.848,0.849
				c0.293,0.291,0.664,0.637,1.104,0.392c0.445-0.249,0.378-0.843,0.378-1.274c0.001-0.476-0.504-0.72-0.902-0.518
				c-0.53,0.269-1.693,0.785-1.268,1.584c0.279,0.525,1.072,0.447,1.57,0.448c0.773,0,0.773-1.2,0-1.2
				c-0.237,0-0.63-0.005-0.743-0.031c0.238,0.098,0.313,0.328,0.228,0.689c-0.045,0.095,0.003,0.011,0.044-0.019
				c0.24-0.171,0.513-0.302,0.774-0.435c-0.301-0.173-0.602-0.345-0.902-0.518c-0.001,0.147,0.013,0.409-0.003,0.507
				c0.302-0.362,0.563-0.451,0.781-0.268c-0.075-0.063-0.144-0.136-0.213-0.205c-0.56-0.555-1.331,0.262-0.848,0.849
				c-0.158-0.192,0.038-0.286-0.122-0.078c-0.076,0.098-0.156,0.192-0.229,0.293c-0.167,0.23-0.246,0.451-0.279,0.732
				c0.393-0.053,0.785-0.106,1.178-0.16c-0.044-0.136-0.078-0.281-0.089-0.403c-0.006-0.057-0.015-0.214-0.002-0.244
				c-0.022,0.051-0.152,0.047-0.18,0.033c0.373,0.192-0.071,0.048,0.059-0.383c0.092-0.119,0.184-0.239,0.275-0.358
				c0.032-0.024,0.173-0.022-0.057-0.008c-0.194,0.012-0.391,0.007-0.585,0.007C53.969,33.985,53.969,35.185,54.742,35.185
				L54.742,35.185z"/>
		</g>
	</g>
	<g>
		<g>
			<path fill="#010101" d="M81.149,41.728c-1.193-0.58-2.448-0.935-3.731-1.257c-0.75-0.188-1.068,0.969-0.318,1.157
				c1.178,0.296,2.347,0.604,3.444,1.136C81.236,43.1,81.846,42.065,81.149,41.728L81.149,41.728z"/>
		</g>
	</g>
	<g>
		<g>
			<path fill="#010101" d="M80.568,42.683c-0.603,2.027-1.489,3.954-2.094,5.98c-0.223,0.744,0.936,1.059,1.156,0.319
				c0.605-2.026,1.492-3.953,2.094-5.98C81.946,42.258,80.788,41.943,80.568,42.683L80.568,42.683z"/>
		</g>
	</g>
	<g>
		<g>
			<path fill="#010101" d="M79.212,48.842c-1.423-0.303-2.778-0.826-4.183-1.197c-0.749-0.198-1.066,0.96-0.318,1.157
				c1.403,0.371,2.76,0.893,4.183,1.197C79.648,50.16,79.969,49.003,79.212,48.842L79.212,48.842z"/>
		</g>
	</g>
	<g>
		<g>
			<path fill="#010101" d="M27.721,104.188c-6.101,3.342-6.436,11.313-7.634,17.379c0.031-0.158-4.311-2.193-4.864-2.499
				c0.102,0.056,0.649-4.075,0.759-4.854c0.748-5.373,3.489-11.276,8.679-13.655c0.703-0.322,0.093-1.356-0.605-1.036
				c-7.745,3.551-9.041,12.466-9.964,19.935c-0.025,0.2,0.131,0.424,0.297,0.518c1.897,1.069,3.843,2.034,5.821,2.942
				c0.334,0.154,0.788,0.049,0.881-0.358c1.344-5.88,1.232-14.046,7.236-17.335C29.005,104.852,28.399,103.815,27.721,104.188
				L27.721,104.188z"/>
		</g>
	</g>
	<g>
		<g>
			<path fill="#010101" d="M74.029,111.047c-0.817,6.008-0.381,12.118-0.355,18.16c0.003,0.773,1.203,0.774,1.199,0
				c-0.024-5.925-0.488-11.948,0.313-17.84C75.289,110.61,74.133,110.283,74.029,111.047L74.029,111.047z"/>
		</g>
	</g>
	<g>
		<g>
			<path fill="#010101" d="M71.424,100.042c-0.111,3.056-3.612,5.954-5.849,7.46c-7.391,4.977-16.096,2.953-23.415-0.812
				c-0.687-0.354-1.294,0.682-0.605,1.036c7.806,4.015,15.577,5.495,23.707,1.354c3.035-1.546,7.226-5.291,7.361-9.038
				C72.651,99.267,71.451,99.27,71.424,100.042L71.424,100.042z"/>
		</g>
	</g>
	<g>
		<g>
			<path fill="#010101" d="M26.602,106.216c7.877,11.3,25.898,12.553,38.215,9.769c7.688-1.738,12.975-6.146,14.872-13.876
				c1.728-7.038-6.221-11.193-11.998-11.25c-0.774-0.007-0.773,1.192,0,1.2c4.62,0.045,8.846,2.079,10.638,6.534
				c1.491,3.71-1.612,8.991-4.038,11.518c-3.738,3.895-10.374,5.116-15.52,5.613c-10.514,1.015-24.62-0.771-31.132-10.112
				C27.199,104.98,26.158,105.579,26.602,106.216L26.602,106.216z"/>
		</g>
	</g>
	<g>
		<g>
			<path fill="#010101" d="M66.44,96.642c1.285-0.12,2.618-0.115,3.743,0.595c1.249,0.788,1.326,2.497,1.24,3.805
				c-0.052,0.773,1.148,0.768,1.199,0c0.108-1.637-0.134-3.329-1.387-4.497c-1.259-1.173-3.184-1.253-4.796-1.103
				C65.677,95.513,65.67,96.713,66.44,96.642L66.44,96.642z"/>
		</g>
	</g>
	<g>
		<g>
			<path fill="#010101" d="M29.394,110.334c-0.179,3.994,1.594,6.871,4.789,9.149c1.807,1.288,4.052,1.702,6.133,2.311
				c4.162,1.216,3.922,6.375,4.396,9.804c0.104,0.764,1.261,0.437,1.156-0.319c-0.427-3.096-0.254-7.956-3.445-9.792
				c-1.484-0.853-3.079-1.203-4.719-1.664c-4.346-1.222-7.311-4.982-7.11-9.49C30.628,109.56,29.428,109.563,29.394,110.334
				L29.394,110.334z"/>
		</g>
	</g>
	<g>
		<g>
			<path fill="#010101" d="M45.471,132.308c8.865,4.021,21.414,3.378,29.195-2.449c0.611-0.458,0.015-1.5-0.605-1.036
				c-7.372,5.521-19.503,6.295-27.984,2.449C45.377,130.955,44.767,131.989,45.471,132.308L45.471,132.308z"/>
		</g>
	</g>
	<g>
		<g>
			<path fill="#010101" d="M79.269,96.715c-1.484-7.74-1.203-15.745-0.512-23.566c0.346-3.915,1.021-7.793,2.146-11.558
				c0.481-1.608,1.193-3.131,1.989-4.603c3.386-2.549,5.221-2.573,5.504-0.072c0.252,0.923,0.478,1.853,0.677,2.789
				c1.766,7.662,1.277,16.18,0.221,23.922c-0.382,2.8-4.773,20.036-9.634,16.313c-0.614-0.471-1.211,0.572-0.605,1.036
				c4.987,3.82,9.45-8.525,10.404-11.844c2.907-10.108,2.719-22.452,0.095-32.534c-0.747-2.868-1.711-3.972-4.701-3.153
				c-3.276,0.897-4.677,6.395-5.496,9.133c-3.162,10.57-3.306,23.715-1.244,34.458C78.258,97.794,79.414,97.472,79.269,96.715
				L79.269,96.715z"/>
		</g>
	</g>
	<g>
		<g>
			<path fill="#010101" d="M90.434,62.562c5.582-0.106,11.369-1.344,12.15,6.23c0.565,5.483-0.521,11.138-0.939,16.598
				c-0.679,8.845-1.225,17.609-1.731,26.464c0.041-0.713-0.006-0.408-1.434-0.407c-1.521,0-3.04,0.001-4.561,0.001
				c-1.851,0.001-3.7,0.066-5.55,0.115c-1.431,0.038-2.861,0.076-4.292,0.113c-1.282,0.034-0.42,0.914-0.318-0.543
				c0.261-3.719,0.493-7.447,0.531-11.176c0.009-0.774-1.191-0.773-1.199,0c-0.043,4.119-0.313,8.238-0.614,12.345
				c-0.023,0.32,0.29,0.608,0.6,0.6c5.813-0.154,11.61-0.255,17.426-0.257c0.342,0,0.581-0.273,0.6-0.6
				c0.69-11.683,1.429-23.241,2.496-34.911c0.417-4.555,1.333-10.844-2.176-14.454c-2.505-2.578-7.913-1.377-10.988-1.319
				C89.661,61.376,89.659,62.576,90.434,62.562L90.434,62.562z"/>
		</g>
	</g>
	<g>
		<g>
			<path fill="#010101" d="M91.151,72.569c3.966-0.127,7.908-0.083,11.833-0.735c0.763-0.126,0.438-1.283-0.318-1.157
				c-3.816,0.634-7.66,0.568-11.515,0.692C90.38,71.394,90.377,72.594,91.151,72.569L91.151,72.569z"/>
		</g>
	</g>
	<g>
		<g>
			<path fill="#010101" d="M77.404,107.42c2.296-0.263,3.787,2.883,4.709,4.543c0.376,0.676,1.413,0.071,1.037-0.605
				c-1.139-2.048-2.932-5.459-5.746-5.138C76.645,106.307,76.637,107.508,77.404,107.42L77.404,107.42z"/>
		</g>
	</g>
	<g>
		<g>
			<path fill="#010101" d="M95.764,76.231c-1.946-0.309-3.546,0.654-4.128,2.552c-0.491,1.601,0.138,3.576,1.873,4.027
				c0.749,0.195,1.067-0.962,0.318-1.157c-1.061-0.276-1.269-1.426-1.078-2.375c0.263-1.316,1.374-2.099,2.696-1.889
				C96.202,77.508,96.526,76.352,95.764,76.231L95.764,76.231z"/>
		</g>
	</g>
	<g>
		<g>
			<path fill="#010101" d="M95.571,77.531c0.963,0.031,1.445,1.05,1.636,1.866c0.258,1.106-0.232,2.067-1.375,2.256
				c-0.763,0.126-0.438,1.282,0.318,1.157c3.487-0.576,2.742-6.371-0.579-6.479C94.797,76.306,94.8,77.506,95.571,77.531
				L95.571,77.531z"/>
		</g>
	</g>
	<g>
		<g>
			<path fill="#010101" d="M93.232,82.319c-0.129,1.022-0.385,2.023-0.529,3.043c-0.108,0.757,1.048,1.083,1.156,0.319
				c0.161-1.126,0.431-2.233,0.572-3.363C94.528,81.553,93.327,81.563,93.232,82.319L93.232,82.319z"/>
		</g>
	</g>
	<g>
		<g>
			<path fill="#010101" d="M94.832,82.391c0.179,1.163,0.172,2.346,0.173,3.519c0,0.774,1.2,0.774,1.199,0
				c0-1.286-0.02-2.565-0.216-3.838C95.871,81.309,94.715,81.634,94.832,82.391L94.832,82.391z"/>
		</g>
	</g>
	<g>
		<g>
			<path fill="#010101" d="M93.28,86.569c0.807,0.002,1.612,0.039,2.419,0.042c0.774,0.003,0.773-1.197,0-1.2
				c-0.807-0.003-1.612-0.041-2.419-0.042C92.506,85.367,92.507,86.567,93.28,86.569L93.28,86.569z"/>
		</g>
	</g>
	<g>
		<g>
			<path fill="#010101" d="M64.029,94.784c0.661,4.073,0.174,8.648-3.478,11.246c-2.104,1.498-5.188,1.458-7.621,1.555
				c-5.137,0.204-9.204-0.307-14.008-2.257c-3.083-1.252-11.202-4.154-12.394,0.804c-0.182,0.752,0.976,1.071,1.156,0.319
				c1.138-4.733,11.786,0.398,14.071,1.287c4.484,1.745,9.294,1.187,13.99,0.91c7.817-0.461,10.575-7.184,9.438-14.183
				C65.063,93.702,63.906,94.027,64.029,94.784L64.029,94.784z"/>
		</g>
	</g>
	<g>
		<g>
			<path fill="#010101" d="M55.674,93.707c-0.522,7.044-15.588,4.924-19.916,5.162c-3.738,0.205-8.862-1.042-12.287,0.82
				c-0.68,0.37-0.074,1.406,0.605,1.036c2.92-1.587,8.484-0.566,11.682-0.656c3.961-0.111,7.844-0.347,11.818-0.223
				c4.577,0.143,8.896-0.715,9.297-6.138C56.931,92.935,55.73,92.94,55.674,93.707L55.674,93.707z"/>
		</g>
	</g>
	<g>
		<g>
			<path fill="#010101" d="M33.023,95.94c-8.047-0.564-15.423-1.639-19.248,6.55c-2.178,4.66-3.586,9.647-5.08,14.557
				c-0.076,0.25,0.045,0.553,0.275,0.678c1.871,1.016,3.435,1.95,5.561,2.311c0.757,0.128,1.08-1.028,0.318-1.157
				c-1.127-0.191-2.11-0.473-3.112-1.017c-0.852-0.462-1.638-1.308-1.853-0.604c0.715-2.348,1.451-4.688,2.206-7.022
				c0.923-2.857,1.999-5.595,3.271-8.319c3.009-6.44,11.756-5.19,17.661-4.776C33.796,97.195,33.791,95.994,33.023,95.94
				L33.023,95.94z"/>
		</g>
	</g>
	<g>
		<g>
			<path fill="#010101" d="M32.607,96.974c7.074-0.064,14.027,0.458,21.083,0.583c0.774,0.014,0.772-1.187,0-1.2
				c-7.056-0.125-14.009-0.647-21.083-0.583C31.834,95.781,31.833,96.981,32.607,96.974L32.607,96.974z"/>
		</g>
	</g>
	<g>
		<g>
			<path fill="#010101" d="M56.94,93.391c0.773,0,0.773-1.2,0-1.2S56.167,93.391,56.94,93.391L56.94,93.391z"/>
		</g>
	</g>
	<g>
		<path fill="#FFFFFF" d="M35.857,96.042c5.75-1.583,7.916-8,11.833-11.75c1.5-1.5,3.333-2.5,4.667-4.167
			c1.083-1.417,2.333-3.083,3.25-4.583c1.666-2.583,6-9.667,8.833-10.583c1.167-0.333,3.083,1.167,3.75,2.167
			c0.5,0.833-1.694,5.78-2.167,6.583c-1.666,2.833-2.666,5.25-4.75,7.75c-4.083,4.833-9.666,8.167-13.75,12.917
			c-1.75,2.083-4.5,6-6.916,7.417c-2.917,1.833-2.834-3.583-4.5-5.667"/>
		<g>
			<path fill="#010101" d="M36.017,96.62c2.716-0.961,4.783-2.525,6.555-4.819c2.888-3.742,5.494-7.046,9.129-10.108
				c2.527-2.128,4.18-5.486,5.954-8.224c1.095-1.69,2.259-3.322,3.513-4.898c0.484-0.595,1.001-1.161,1.548-1.699
				c1.342-1.391,5.239-1.439,4.88,1.169c-1.151,8.36-8.831,15.449-14.827,20.5c-3.369,2.838-6.078,5.998-8.877,9.369
				c-1.594,1.921-4.345,5.349-5.741,1.479c-0.455-1.263-0.802-2.424-1.523-3.566c-0.413-0.652-1.452-0.05-1.037,0.605
				c0.728,1.148,1.536,6.187,3.591,6.278c3.666,0.163,6.794-5.487,8.768-7.907c3.979-4.876,9.561-8.215,13.75-12.917
				c2.896-3.25,4.992-7.706,6.529-11.774c1.116-2.954,0.408-4.192-2.499-5.611c-2.41-1.176-5.206,2.883-6.277,4.319
				c-3.217,4.314-5.631,9.528-9.788,13.03c-4.862,4.096-7.823,11.444-13.964,13.617C34.974,95.719,35.285,96.879,36.017,96.62
				L36.017,96.62z"/>
		</g>
	</g>
	<g>
		<path fill="#FFFFFF" d="M31.273,98.042c-1,0-5.5-0.083-4.5-2c0.834-1.75,4.917-0.083,6.584-0.167c0.75-0.083,2-0.5,2.666,0.167
			c0.667,0.667,0.5,2.083-0.166,2.5c-0.75,0.5-5.25,0.833-5.417,0.25c0-0.25,0-0.333,0.083-0.5"/>
		<g>
			<path fill="#010101" d="M31.273,97.441c-1.196-0.006-2.496-0.031-3.611-0.504c-1.39-0.589,0.913-1.106,1.47-1.075
				c0.92,0.052,1.841,0.294,2.745,0.459c0.489,0.089,0.982,0.152,1.48,0.153c0.428,0.001,0.958-0.151,1.364-0.198
				c1.66-0.19,1.216,1.673,0.372,1.908c-0.602,0.167-4.017,0.34-3.992,0.267c0.245-0.737-0.914-1.05-1.156-0.319
				c-0.828,2.494,4.341,1.46,5.468,1.209c1.254-0.279,1.728-1.376,1.586-2.585c-0.176-1.499-1.669-1.815-2.925-1.602
				c-2.303,0.392-6.77-2.038-7.989,1.001c-0.946,2.359,4.035,2.48,5.188,2.486C32.048,98.645,32.047,97.445,31.273,97.441
				L31.273,97.441z"/>
		</g>
	</g>
	<g>
		<path fill="#FFFFFF" d="M32.273,101.042c-1,0-5.5-0.083-4.5-2c0.834-1.75,4.917-0.083,6.584-0.167c0.75-0.083,2-0.5,2.666,0.167
			c0.667,0.667,0.5,2.083-0.166,2.5c-0.75,0.5-5.25,0.833-5.417,0.25c0-0.25,0-0.333,0.083-0.5"/>
		<g>
			<path fill="#010101" d="M32.273,100.441c-1.196-0.006-2.496-0.031-3.611-0.504c-1.39-0.589,0.913-1.106,1.47-1.075
				c0.92,0.052,1.841,0.294,2.745,0.459c0.489,0.089,0.982,0.152,1.48,0.153c0.428,0.001,0.958-0.151,1.364-0.198
				c1.66-0.19,1.216,1.673,0.372,1.908c-0.602,0.167-4.017,0.34-3.992,0.267c0.245-0.737-0.914-1.05-1.156-0.319
				c-0.828,2.494,4.341,1.46,5.468,1.209c1.254-0.279,1.728-1.376,1.586-2.585c-0.176-1.499-1.669-1.815-2.925-1.602
				c-2.303,0.392-6.77-2.038-7.989,1.001c-0.946,2.359,4.035,2.48,5.188,2.486C33.048,101.645,33.047,100.445,32.273,100.441
				L32.273,100.441z"/>
		</g>
	</g>
	<g>
		<g>
			<path fill="#010101" d="M51.684,76.534c-0.753,0.715-0.626,0.563-1.146,1.497c-1.094,1.962-2.507,3.187-4.316,4.493
				c-2.938,2.122-5.582,4.587-8.717,6.44c-1.372,0.811-3.232,1.018-3.854,2.618c-0.478,1.231,1.471,3.521,2.021,4.429
				c0.401,0.661,1.439,0.058,1.037-0.605c-1.136-1.871-2.457-3.607,0.301-4.836c2.021-0.9,3.924-2.296,5.637-3.68
				c2.009-1.622,4.154-3.104,6.117-4.772c1.651-1.404,2.257-3.298,3.768-4.735C53.094,76.848,52.243,76.001,51.684,76.534
				L51.684,76.534z"/>
		</g>
	</g>
	<g>
		<g>
			<path fill="#010101" d="M91.341,117.122c-0.007,0.882-0.019,1.726-0.224,2.588c-0.472,1.991-1.583,2.472-3.526,2.55
				c-1.597,0.064-3.215,0.131-4.775,0.501c-2.996,0.71-2.592,4.732-2.642,7.026c-0.018,0.774,1.183,0.772,1.199,0
				c0.041-1.857-0.474-5.096,1.761-5.87c1.757-0.608,3.864-0.382,5.692-0.534c3.295-0.272,3.695-3.542,3.714-6.263
				C92.546,116.348,91.346,116.348,91.341,117.122L91.341,117.122z"/>
		</g>
	</g>
	<g>
		<g>
			<path fill="#010101" d="M87.279,117.198c0.221,1.356-5.155,0.954-6.147,0.999c-1.146,0.052-2.531,0.442-3.24,1.42
				c-2.077,2.866-1.479,6.835-1.551,10.171c-0.017,0.774,1.183,0.772,1.199,0c0.036-1.68,0.007-3.327,0.088-5.011
				c0.07-1.461,0.28-2.693,0.913-4.022c0.776-1.63,3.079-1.402,4.516-1.376c2.159,0.038,5.864,0.466,5.379-2.5
				C88.312,116.116,87.155,116.441,87.279,117.198L87.279,117.198z"/>
		</g>
	</g>
	<g>
		<g>
			<path fill="#010101" d="M86.523,115.554c2.255,0.183,4.491,0.375,6.743,0.062c0.764-0.106,0.438-1.262-0.318-1.157
				c-2.133,0.296-4.292,0.069-6.425-0.104C85.752,114.292,85.758,115.492,86.523,115.554L86.523,115.554z"/>
		</g>
	</g>
	<g>
		<g>
			<path fill="#010101" d="M85.695,114.961c-0.161,0.635-0.035,1.209,0.167,1.819c0.241,0.731,1.4,0.418,1.156-0.319
				c-0.129-0.392-0.271-0.767-0.167-1.181C87.041,114.529,85.884,114.211,85.695,114.961L85.695,114.961z"/>
		</g>
	</g>
	<g>
		<g>
			<path fill="#010101" d="M92.674,115.371c0.001,0.393,0.023,0.774,0.105,1.16c0.16,0.757,1.316,0.436,1.156-0.319
				c-0.059-0.279-0.062-0.556-0.063-0.84C93.872,114.597,92.672,114.597,92.674,115.371L92.674,115.371z"/>
		</g>
	</g>
	<g>
		<g>
			<path fill="#010101" d="M86.933,117.533c2.142-0.357,4.291,0.349,6.417-0.25c0.744-0.209,0.428-1.367-0.318-1.157
				c-2.097,0.59-4.284-0.105-6.417,0.25C85.852,116.502,86.176,117.659,86.933,117.533L86.933,117.533z"/>
		</g>
	</g>
	<g>
		<g>
			<path fill="#010101" d="M28.422,105.091c5.271,8.412,18.773,10.335,27.964,9.933c9.554-0.417,18.505-3.807,23.155-12.683
				c0.359-0.685-0.677-1.291-1.035-0.605c-4.373,8.346-12.713,11.643-21.699,12.071c-8.784,0.418-22.31-1.28-27.348-9.321
				C29.049,103.832,28.01,104.433,28.422,105.091L28.422,105.091z"/>
		</g>
	</g>
	<g>
		<g>
			<path fill="#010101" d="M88.686,114.462c-0.052-0.269-0.133-0.532-0.202-0.796c-0.039-0.145-0.179-0.508-0.108-0.658
				c0.328-0.696-0.706-1.305-1.035-0.605c-0.37,0.783,0.037,1.593,0.189,2.379C87.676,115.541,88.832,115.218,88.686,114.462
				L88.686,114.462z"/>
		</g>
	</g>
	<g>
		<g>
			<path fill="#010101" d="M92.207,115.288c0-0.75,0-1.5,0-2.25c0-0.774-1.199-0.774-1.199,0c0,0.75,0,1.5,0,2.25
				C91.008,116.062,92.207,116.062,92.207,115.288L92.207,115.288z"/>
		</g>
	</g>
	<g>
		<g>
			<path fill="#010101" d="M76.94,130.638c1.197,0.146,2.388,0.007,3.583-0.083c0.767-0.058,0.772-1.259,0-1.2
				c-1.195,0.091-2.386,0.23-3.583,0.083C76.174,129.344,76.183,130.545,76.94,130.638L76.94,130.638z"/>
		</g>
	</g>
	<g>
		<g>
			<path fill="#010101" d="M17.674,121.873c0.103,1.647-0.614,3.192-0.666,4.833c-0.025,0.774,1.175,0.772,1.199,0
				c0.053-1.644,0.77-3.173,0.666-4.833C18.825,121.104,17.625,121.1,17.674,121.873L17.674,121.873z"/>
		</g>
	</g>
	<g>
		<g>
			<path fill="#010101" d="M15.758,120.707c0.017,1.745-0.853,3.333-0.834,5.083c0.008,0.773,1.208,0.774,1.199,0
				c-0.018-1.741,0.852-3.332,0.834-5.083C16.949,119.933,15.75,119.933,15.758,120.707L15.758,120.707z"/>
		</g>
	</g>
	<g>
		<g>
			<path fill="#010101" d="M13.091,119.623c0.02,1.67,0.317,3.411-0.312,5.007c-0.284,0.721,0.876,1.03,1.156,0.319
				c0.671-1.7,0.376-3.549,0.354-5.327C14.281,118.85,13.081,118.849,13.091,119.623L13.091,119.623z"/>
		</g>
	</g>
	<g>
		<g>
			<path fill="#010101" d="M15.107,125.523c-0.854-0.052-1.584,0.336-2.303,0.749c-0.671,0.385-0.066,1.422,0.605,1.036
				c0.54-0.31,1.054-0.625,1.697-0.585C15.881,126.771,15.876,125.57,15.107,125.523L15.107,125.523z"/>
		</g>
	</g>
	<g>
		<g>
			<path fill="#010101" d="M16.862,126.783c0.097,0.469,0.103,0.935-0.346,1.198c-0.45,0.265-1.077,0.231-1.576,0.209
				c-0.774-0.034-0.771,1.166,0,1.2c0.849,0.037,1.768-0.03,2.463-0.567c0.739-0.572,0.791-1.51,0.615-2.359
				C17.863,125.706,16.706,126.027,16.862,126.783L16.862,126.783z"/>
		</g>
	</g>
	<g>
		<g>
			<path fill="#010101" d="M11.612,126.2c0.312,0.799,0.741,1.463,1.366,2.052c0.607,0.573,1.264,1.053,1.788,1.712
				c0.481,0.605,1.324-0.25,0.848-0.849c-0.91-1.145-2.293-1.82-2.846-3.235C12.49,125.168,11.33,125.478,11.612,126.2L11.612,126.2
				z"/>
		</g>
	</g>
	<g>
		<g>
			<path fill="#010101" d="M12.183,125.294c-3.963-1.436-7.703-0.05-9.362,3.853c-1.428,3.358,1.333,4.337,4.08,4.254
				c2.354-0.072,4.516,0.269,6.819-0.392c1.403-0.402,2.8-1.251,4.012-2.031c1.761-1.134,3.218-3.072,0.845-4.374
				c-0.679-0.372-1.284,0.664-0.605,1.036c1.861,1.021-1.728,2.854-2.31,3.176c-1.798,0.997-3.59,1.491-5.664,1.486
				c-1.725-0.004-3.794,0.108-5.486-0.234c-2.615-0.529,0.491-4.332,0.986-4.868c1.604-1.739,4.41-1.459,6.367-0.75
				C12.594,126.716,12.904,125.556,12.183,125.294L12.183,125.294z"/>
		</g>
	</g>
	<g>
		<g>
			<path fill="#010101" d="M13.023,124.023c-0.931-0.086-1.795-0.019-2.636,0.416c-0.688,0.355-0.081,1.391,0.605,1.036
				c0.646-0.333,1.324-0.317,2.03-0.251C13.794,125.294,13.787,124.094,13.023,124.023L13.023,124.023z"/>
		</g>
	</g>
	<g>
		<g>
			<path fill="#010101" d="M11.364,124.199c-2.813-2.724-7.513-1.338-9.857,1.348c-1.955,2.24-2.459,5.706,1.267,6.01
				c0.771,0.063,0.766-1.138,0-1.2c-3.089-0.252-1.073-3.389,0.211-4.623c1.893-1.819,5.502-2.651,7.532-0.686
				C11.072,125.585,11.922,124.738,11.364,124.199L11.364,124.199z"/>
		</g>
	</g>
</g>
</svg>
