<?xml version="1.0" encoding="utf-8"?>
<!-- Generator: Adobe Illustrator 16.0.0, SVG Export Plug-In . SVG Version: 6.00 Build 0)  -->
<!DOCTYPE svg PUBLIC "-//W3C//DTD SVG 1.0//EN" "http://www.w3.org/TR/2001/REC-SVG-20010904/DTD/svg10.dtd">
<svg version="1.0" id="Layer_1" xmlns="http://www.w3.org/2000/svg"  x="0px" y="0px"
	 width="200.604px" height="36.477px" viewBox="0 0 200.604 36.477" enable-background="new 0 0 200.604 36.477"
	 xml:space="preserve">
<g>
	<g>
		<path d="M62.604,27.064c-0.547,0.346-1.123,0.662-1.729,0.922c-1.324,0.547-2.734,0.835-4.174,0.835
			c-1.44,0-2.852-0.288-4.146-0.835c-1.296-0.547-2.419-1.324-3.398-2.304c-0.979-0.979-1.756-2.102-2.303-3.397
			s-0.835-2.707-0.835-4.146s0.288-2.85,0.835-4.175c0.547-1.267,1.324-2.419,2.303-3.397c0.979-0.979,2.103-1.756,3.398-2.275
			c1.295-0.575,2.706-0.834,4.146-0.834c1.439,0,2.85,0.259,4.174,0.834c0.145,0.059,0.317,0.145,0.461,0.202v3.944
			c-1.295-1.064-2.908-1.641-4.635-1.641c-1.959,0-3.801,0.748-5.184,2.159c-1.382,1.382-2.159,3.226-2.159,5.183
			c0,1.958,0.777,3.801,2.159,5.184c1.383,1.381,3.225,2.159,5.184,2.159c1.957,0,3.801-0.778,5.182-2.159
			c0.26-0.26,0.49-0.519,0.721-0.807V27.064z"/>
		<path d="M72.248,27.986c-1.295-0.547-2.418-1.324-3.397-2.304s-1.757-2.102-2.304-3.397s-0.835-2.707-0.835-4.146
			s0.288-2.85,0.835-4.175c0.547-1.267,1.324-2.39,2.304-3.397c0.979-0.979,2.103-1.728,3.397-2.275
			c1.296-0.547,2.707-0.834,4.146-0.834s2.851,0.287,4.175,0.834c1.267,0.548,2.39,1.297,3.397,2.275
			c0.979,1.008,1.729,2.131,2.275,3.397c0.547,1.325,0.834,2.735,0.834,4.175s-0.287,2.851-0.834,4.146s-1.297,2.418-2.275,3.397
			c-1.008,0.979-2.131,1.757-3.397,2.304c-1.324,0.547-2.735,0.835-4.175,0.835S73.544,28.533,72.248,27.986z M71.211,12.956
			c-1.381,1.382-2.158,3.226-2.158,5.183c0,1.958,0.777,3.801,2.158,5.184c1.383,1.381,3.226,2.159,5.184,2.159
			s3.801-0.778,5.183-2.159c1.382-1.383,2.159-3.226,2.159-5.184c0-1.957-0.777-3.801-2.159-5.183s-3.225-2.159-5.183-2.159
			S72.594,11.574,71.211,12.956z"/>
		<path d="M94.188,15.086v13.734h-3.34V6.449l13.418,14.713V7.457h3.369V29.8L94.188,15.086z"/>
		<path d="M125.831,10.451h-5.874v18.37h-3.369v-18.37h-5.873V7.457h15.116V10.451z"/>
		<path d="M143.854,28.821h-3.771l-5.385-7.228h-2.447v7.228h-3.34V7.457h2.821h3.513c2.822,0,4.463,1.151,5.327,2.131
			c1.123,1.238,1.728,2.965,1.728,4.952c0,1.958-0.604,3.686-1.728,4.923c-0.519,0.576-1.324,1.238-2.477,1.642L143.854,28.821z
			 M135.245,18.599c1.383,0,2.419-0.402,3.081-1.152c0.807-0.863,0.95-2.072,0.95-2.907c0-0.864-0.144-2.073-0.95-2.937
			c-0.662-0.749-1.698-1.123-3.081-1.123h-2.994v8.119H135.245z"/>
		<path d="M158.941,24.243h-7.601l-1.814,4.578h-3.686l9.301-22.344l9.271,22.344h-3.657L158.941,24.243z M157.732,21.248
			l-2.591-6.507l-2.592,6.507H157.732z"/>
		<path d="M183.07,27.064c-0.547,0.346-1.123,0.662-1.728,0.922c-1.325,0.547-2.735,0.835-4.176,0.835
			c-1.439,0-2.85-0.288-4.146-0.835s-2.419-1.324-3.397-2.304c-0.979-0.979-1.757-2.102-2.304-3.397s-0.835-2.707-0.835-4.146
			s0.288-2.85,0.835-4.175c0.547-1.267,1.324-2.419,2.304-3.397c0.979-0.979,2.102-1.756,3.397-2.275
			c1.296-0.575,2.706-0.834,4.146-0.834c1.44,0,2.851,0.259,4.176,0.834c0.144,0.059,0.316,0.145,0.46,0.202v3.944
			c-1.295-1.064-2.907-1.641-4.636-1.641c-1.957,0-3.8,0.748-5.183,2.159c-1.382,1.382-2.159,3.226-2.159,5.183
			c0,1.958,0.777,3.801,2.159,5.184c1.383,1.381,3.226,2.159,5.183,2.159c1.958,0,3.801-0.778,5.184-2.159
			c0.259-0.26,0.489-0.519,0.72-0.807V27.064z"/>
		<path d="M200.604,10.451h-5.874v18.37h-3.369v-18.37h-5.873V7.457h15.116V10.451z"/>
	</g>
	<g>
		<path d="M17.328,36.477v-6.071H0L22.746,0v24.988h3.27v5.418h-3.27v6.071H17.328z M17.328,24.988v-8.641l-6.445,8.641H17.328z"/>
	</g>
</g>
</svg>
