<?xml version="1.0" encoding="utf-8"?>
<!-- Generator: Adobe Illustrator 16.0.0, SVG Export Plug-In . SVG Version: 6.00 Build 0)  -->
<!DOCTYPE svg PUBLIC "-//W3C//DTD SVG 1.0//EN" "http://www.w3.org/TR/2001/REC-SVG-20010904/DTD/svg10.dtd">
<svg version="1.0" id="Layer_1" xmlns="http://www.w3.org/2000/svg"  x="0px" y="0px"
	 width="357.365px" height="34.656px" viewBox="0 0 357.365 34.656" enable-background="new 0 0 357.365 34.656"
	 xml:space="preserve">
<g>
	<g>
		<path d="M45.638,27.73V7.12h4.161v8.112h8.154V7.12h4.161v20.61h-4.161v-9.012h-8.154v9.012H45.638z"/>
		<path d="M65.475,20.054c0-1.312,0.323-2.582,0.97-3.81c0.646-1.228,1.563-2.165,2.749-2.812c1.186-0.647,2.509-0.97,3.972-0.97
			c2.258,0,4.109,0.733,5.553,2.2c1.443,1.467,2.165,3.32,2.165,5.561c0,2.259-0.729,4.131-2.187,5.616
			c-1.457,1.486-3.292,2.229-5.504,2.229c-1.368,0-2.673-0.31-3.915-0.928s-2.187-1.525-2.833-2.721
			C65.798,23.224,65.475,21.769,65.475,20.054z M68.385,5.981c-0.01-0.956,0.25-1.729,0.78-2.32c0.529-0.59,1.221-0.886,2.073-0.886
			c0.581,0,1.373,0.253,2.376,0.759c0.553,0.281,0.993,0.422,1.321,0.422c0.572,0,0.914-0.408,1.026-1.223h1.828
			c-0.057,2.137-0.975,3.205-2.756,3.205c-0.59,0-1.368-0.262-2.334-0.787c-0.628-0.337-1.087-0.506-1.377-0.506
			c-0.731,0-1.088,0.445-1.069,1.335H68.385z M68.413,10.916l2.952-4.147h3.655l2.91,4.147h-3.178l-1.631-2.095l-1.518,2.095H68.413
			z M69.523,20.265c0,1.481,0.352,2.615,1.055,3.402c0.702,0.787,1.569,1.181,2.601,1.181s1.896-0.394,2.594-1.181
			s1.048-1.931,1.048-3.43c0-1.462-0.35-2.587-1.048-3.375c-0.698-0.787-1.563-1.181-2.594-1.181s-1.898,0.394-2.601,1.181
			C69.875,17.65,69.523,18.784,69.523,20.265z"/>
		<path d="M98.821,12.799v3.149h-2.699v6.017c0,1.219,0.025,1.929,0.077,2.13c0.052,0.202,0.169,0.368,0.352,0.499
			c0.183,0.131,0.405,0.197,0.668,0.197c0.365,0,0.895-0.126,1.589-0.379l0.337,3.065c-0.918,0.394-1.959,0.591-3.121,0.591
			c-0.712,0-1.354-0.12-1.926-0.359c-0.571-0.239-0.991-0.548-1.258-0.928c-0.268-0.379-0.453-0.893-0.556-1.539
			c-0.084-0.459-0.127-1.387-0.127-2.784v-6.509h-1.813v-3.149h1.813V9.833l3.965-2.306v5.272H98.821z"/>
		<path d="M105.345,27.73h-3.95V12.799h3.669v2.123c0.628-1.003,1.192-1.664,1.694-1.982c0.501-0.318,1.07-0.478,1.708-0.478
			c0.899,0,1.767,0.249,2.601,0.745l-1.223,3.444c-0.666-0.431-1.284-0.646-1.856-0.646c-0.553,0-1.021,0.152-1.405,0.457
			c-0.385,0.305-0.687,0.855-0.907,1.652c-0.22,0.797-0.33,2.465-0.33,5.005V27.73z"/>
		<path d="M127.221,12.799h3.95v2.826c0,1.162-0.101,2.071-0.302,2.727c-0.202,0.656-0.574,1.242-1.118,1.757
			c-0.628,0.609-1.485,1.087-2.573,1.434c-0.234,1.678-0.933,3.107-2.095,4.288c-1.462,1.49-3.299,2.236-5.511,2.236
			c-1.415,0-2.718-0.31-3.908-0.928c-1.266-0.656-2.217-1.572-2.854-2.749c-0.637-1.176-0.956-2.622-0.956-4.337
			c0-1.35,0.324-2.62,0.971-3.81c0.675-1.246,1.598-2.188,2.77-2.826c1.172-0.637,2.488-0.956,3.95-0.956
			c2.259,0,4.11,0.731,5.554,2.193c1.303,1.331,2.02,2.976,2.15,4.935c1.219-0.497,1.847-1.443,1.885-2.84h-1.912V12.799z
			 M115.903,20.265c0,1.434,0.352,2.568,1.054,3.402c0.666,0.787,1.533,1.181,2.602,1.181s1.931-0.394,2.587-1.181
			c0.702-0.834,1.054-1.978,1.054-3.43c0-1.425-0.352-2.549-1.054-3.375c-0.656-0.787-1.519-1.181-2.587-1.181
			s-1.936,0.394-2.602,1.181C116.255,17.697,115.903,18.831,115.903,20.265z M117.421,33.368v-3.95h3.951v3.95H117.421z"/>
		<path d="M139.845,23.47l3.965-0.604c0.169,0.769,0.511,1.352,1.026,1.75c0.515,0.399,1.237,0.598,2.165,0.598
			c1.021,0,1.79-0.188,2.306-0.563c0.347-0.262,0.52-0.614,0.52-1.054c0-0.3-0.094-0.548-0.281-0.745
			c-0.196-0.188-0.637-0.361-1.321-0.52c-3.187-0.703-5.206-1.345-6.06-1.926c-1.181-0.806-1.771-1.926-1.771-3.36
			c0-1.293,0.511-2.381,1.533-3.262c1.021-0.881,2.605-1.322,4.752-1.322c2.043,0,3.562,0.333,4.555,0.998
			c0.993,0.666,1.678,1.65,2.053,2.953l-3.726,0.689c-0.159-0.581-0.462-1.026-0.907-1.336c-0.445-0.309-1.08-0.464-1.904-0.464
			c-1.041,0-1.786,0.146-2.235,0.436c-0.301,0.206-0.45,0.473-0.45,0.801c0,0.281,0.131,0.52,0.394,0.717
			c0.356,0.263,1.586,0.633,3.69,1.111s3.573,1.064,4.407,1.757c0.825,0.703,1.237,1.683,1.237,2.938
			c0,1.369-0.571,2.544-1.715,3.529c-1.144,0.984-2.836,1.477-5.075,1.477c-2.034,0-3.644-0.413-4.829-1.238
			C140.985,26.005,140.21,24.885,139.845,23.47z"/>
		<path d="M160.201,17.354l-3.585-0.646c0.403-1.443,1.097-2.512,2.081-3.206c0.984-0.693,2.446-1.041,4.387-1.041
			c1.762,0,3.074,0.209,3.937,0.625c0.862,0.417,1.469,0.947,1.82,1.589s0.527,1.821,0.527,3.536l-0.042,4.611
			c0,1.313,0.063,2.28,0.189,2.903c0.127,0.624,0.363,1.291,0.71,2.003h-3.908c-0.104-0.262-0.229-0.651-0.38-1.167
			c-0.065-0.234-0.112-0.389-0.141-0.464c-0.675,0.656-1.396,1.148-2.165,1.476c-0.769,0.328-1.589,0.493-2.46,0.493
			c-1.537,0-2.749-0.417-3.635-1.252c-0.886-0.834-1.328-1.888-1.328-3.163c0-0.843,0.201-1.596,0.604-2.256
			s0.968-1.167,1.694-1.519c0.726-0.351,1.773-0.658,3.142-0.921c1.847-0.347,3.126-0.67,3.838-0.97v-0.394
			c0-0.759-0.188-1.301-0.562-1.624c-0.375-0.323-1.083-0.485-2.123-0.485c-0.703,0-1.251,0.138-1.646,0.415
			C160.764,16.176,160.445,16.661,160.201,17.354z M165.487,20.56c-0.506,0.168-1.307,0.37-2.403,0.604s-1.813,0.464-2.151,0.689
			c-0.516,0.365-0.773,0.829-0.773,1.392c0,0.553,0.206,1.031,0.619,1.434c0.412,0.403,0.937,0.604,1.574,0.604
			c0.712,0,1.392-0.234,2.039-0.703c0.478-0.356,0.791-0.792,0.941-1.307c0.104-0.337,0.154-0.979,0.154-1.926V20.56z"/>
		<path d="M183.089,27.73v-2.235c-0.543,0.797-1.258,1.425-2.144,1.884s-1.82,0.689-2.805,0.689c-1.003,0-1.903-0.221-2.699-0.661
			c-0.797-0.44-1.373-1.059-1.729-1.856c-0.356-0.796-0.534-1.898-0.534-3.304v-9.448h3.95v6.861c0,2.1,0.072,3.386,0.218,3.859
			s0.41,0.848,0.795,1.125c0.384,0.276,0.871,0.415,1.462,0.415c0.675,0,1.279-0.185,1.813-0.555c0.534-0.37,0.899-0.83,1.097-1.378
			c0.197-0.548,0.295-1.891,0.295-4.028v-6.298h3.951V27.73H183.089z"/>
		<path d="M198.709,27.73V7.12h3.951v10.938l4.625-5.258h4.864l-5.104,5.455l5.469,9.476h-4.26l-3.753-6.706l-1.842,1.926v4.78
			H198.709z"/>
		<path d="M218.799,7.12v7.578c1.274-1.49,2.798-2.235,4.569-2.235c0.909,0,1.729,0.169,2.46,0.506
			c0.731,0.337,1.282,0.769,1.652,1.293s0.623,1.106,0.759,1.743c0.136,0.638,0.204,1.626,0.204,2.966v8.759h-3.95v-7.887
			c0-1.565-0.075-2.559-0.226-2.98c-0.149-0.421-0.414-0.757-0.794-1.005c-0.38-0.249-0.855-0.373-1.427-0.373
			c-0.656,0-1.242,0.159-1.758,0.478c-0.516,0.318-0.893,0.799-1.132,1.441c-0.238,0.642-0.358,1.591-0.358,2.847v7.479h-3.95V7.12
			H218.799z"/>
		<path d="M232.45,10.775V7.12h3.951v3.655H232.45z M232.45,27.73V12.799h3.951V27.73H232.45z"/>
		<path d="M262.143,27.73h-3.669v-2.193c-0.609,0.853-1.329,1.488-2.158,1.905s-1.666,0.626-2.51,0.626
			c-1.715,0-3.185-0.691-4.407-2.074c-1.223-1.382-1.835-3.311-1.835-5.785c0-2.531,0.596-4.454,1.786-5.771
			c1.189-1.317,2.694-1.976,4.513-1.976c1.668,0,3.111,0.694,4.33,2.081V7.12h3.95V27.73z M251.599,19.941
			c0,1.593,0.22,2.746,0.661,3.458c0.637,1.031,1.527,1.546,2.671,1.546c0.909,0,1.683-0.387,2.319-1.16
			c0.638-0.773,0.956-1.928,0.956-3.466c0-1.715-0.309-2.95-0.928-3.705c-0.618-0.754-1.41-1.131-2.376-1.131
			c-0.938,0-1.722,0.373-2.354,1.118S251.599,18.46,251.599,19.941z"/>
		<path d="M265.123,20.054c0-1.312,0.324-2.582,0.971-3.81c0.646-1.228,1.563-2.165,2.748-2.812c1.186-0.647,2.51-0.97,3.972-0.97
			c2.259,0,4.11,0.733,5.554,2.2c1.443,1.467,2.165,3.32,2.165,5.561c0,2.259-0.729,4.131-2.187,5.616
			c-1.457,1.486-3.292,2.229-5.504,2.229c-1.368,0-2.674-0.31-3.915-0.928c-1.242-0.619-2.187-1.525-2.833-2.721
			C265.447,23.224,265.123,21.769,265.123,20.054z M269.173,20.265c0,1.481,0.352,2.615,1.054,3.402
			c0.703,0.787,1.57,1.181,2.602,1.181c1.03,0,1.896-0.394,2.594-1.181s1.047-1.931,1.047-3.43c0-1.462-0.349-2.587-1.047-3.375
			c-0.698-0.787-1.563-1.181-2.594-1.181c-1.031,0-1.898,0.394-2.602,1.181C269.524,17.65,269.173,18.784,269.173,20.265z
			 M270.69,33.368v-3.95h3.951v3.95H270.69z"/>
		<path d="M297.206,27.73h-3.95v-7.62c0-1.612-0.085-2.654-0.253-3.128c-0.169-0.473-0.443-0.841-0.823-1.104
			c-0.379-0.262-0.836-0.394-1.37-0.394c-0.685,0-1.299,0.188-1.842,0.562c-0.544,0.375-0.916,0.872-1.118,1.49
			c-0.201,0.619-0.302,1.762-0.302,3.431v6.762h-3.951V12.799h3.67v2.193c1.303-1.687,2.942-2.531,4.921-2.531
			c0.871,0,1.668,0.157,2.39,0.471s1.268,0.715,1.638,1.202s0.628,1.04,0.773,1.659s0.218,1.504,0.218,2.657V27.73z"/>
		<path d="M322.794,27.73h-3.95v-7.62c0-1.612-0.085-2.654-0.253-3.128c-0.169-0.473-0.443-0.841-0.823-1.104
			c-0.379-0.262-0.836-0.394-1.37-0.394c-0.685,0-1.299,0.188-1.842,0.562c-0.544,0.375-0.916,0.872-1.118,1.49
			c-0.201,0.619-0.302,1.762-0.302,3.431v6.762h-3.951V12.799h3.67v2.193c1.303-1.687,2.942-2.531,4.921-2.531
			c0.871,0,1.668,0.157,2.39,0.471s1.268,0.715,1.638,1.202s0.628,1.04,0.773,1.659s0.218,1.504,0.218,2.657V27.73z"/>
		<path d="M330.737,7.12v7.578c1.274-1.49,2.798-2.235,4.569-2.235c0.909,0,1.729,0.169,2.46,0.506
			c0.731,0.337,1.282,0.769,1.652,1.293s0.623,1.106,0.759,1.743c0.136,0.638,0.204,1.626,0.204,2.966v8.759h-3.95v-7.887
			c0-1.565-0.075-2.559-0.226-2.98c-0.149-0.421-0.414-0.757-0.794-1.005c-0.38-0.249-0.855-0.373-1.427-0.373
			c-0.656,0-1.242,0.159-1.758,0.478c-0.516,0.318-0.893,0.799-1.132,1.441c-0.238,0.642-0.358,1.591-0.358,2.847v7.479h-3.95V7.12
			H330.737z"/>
		<path d="M347.341,17.354l-3.585-0.646c0.403-1.443,1.097-2.512,2.081-3.206c0.984-0.693,2.446-1.041,4.387-1.041
			c1.762,0,3.074,0.209,3.937,0.625c0.862,0.417,1.469,0.947,1.82,1.589s0.527,1.821,0.527,3.536l-0.042,4.611
			c0,1.313,0.063,2.28,0.189,2.903c0.127,0.624,0.363,1.291,0.71,2.003h-3.908c-0.104-0.262-0.229-0.651-0.38-1.167
			c-0.065-0.234-0.112-0.389-0.141-0.464c-0.675,0.656-1.396,1.148-2.165,1.476c-0.769,0.328-1.589,0.493-2.46,0.493
			c-1.537,0-2.749-0.417-3.635-1.252c-0.886-0.834-1.328-1.888-1.328-3.163c0-0.843,0.201-1.596,0.604-2.256
			s0.968-1.167,1.694-1.519c0.726-0.351,1.773-0.658,3.142-0.921c1.847-0.347,3.126-0.67,3.838-0.97v-0.394
			c0-0.759-0.188-1.301-0.562-1.624c-0.375-0.323-1.083-0.485-2.123-0.485c-0.703,0-1.251,0.138-1.646,0.415
			C347.903,16.176,347.585,16.661,347.341,17.354z M352.347,10.972h-2.489l-3.88-4.204h4.429L352.347,10.972z M352.627,20.56
			c-0.506,0.168-1.307,0.37-2.403,0.604s-1.813,0.464-2.151,0.689c-0.516,0.365-0.773,0.829-0.773,1.392
			c0,0.553,0.206,1.031,0.619,1.434c0.412,0.403,0.937,0.604,1.574,0.604c0.712,0,1.392-0.234,2.039-0.703
			c0.478-0.356,0.791-0.792,0.941-1.307c0.104-0.337,0.154-0.979,0.154-1.926V20.56z"/>
	</g>
	<g>
		<path d="M11.069,34.656c-3.551-0.14-7.287-1.542-11.07-4.157l3.035-4.483c2.943,2.008,5.791,3.129,8.268,3.222
			c1.916,0.093,3.598-0.421,4.857-1.495c0.982-0.792,1.682-1.914,2.008-3.128c0.281-1.215,0.234-2.429-0.232-3.503
			c-0.607-1.308-1.775-2.382-3.41-3.036c-2.195-0.934-5.184-1.121-8.641-0.654l-3.502,0.514L4.622,0h16.535v5.372H9.388L8.593,11.77
			c3.037-0.093,5.697,0.374,7.988,1.308c2.941,1.215,5.137,3.223,6.258,5.838c1.963,4.437,0.654,9.808-3.223,12.984
			c-2.195,1.821-4.904,2.756-7.941,2.756C11.489,34.656,11.255,34.656,11.069,34.656z"/>
	</g>
</g>
</svg>
