<?xml version="1.0" encoding="utf-8"?>
<!-- Generator: Adobe Illustrator 16.0.0, SVG Export Plug-In . SVG Version: 6.00 Build 0)  -->
<!DOCTYPE svg PUBLIC "-//W3C//DTD SVG 1.1//EN" "http://www.w3.org/Graphics/SVG/1.1/DTD/svg11.dtd">
<svg version="1.1" id="Layer_1" xmlns="http://www.w3.org/2000/svg" xmlns:xlink="http://www.w3.org/1999/xlink" x="0px" y="0px"
	 width="165.7px" height="34.7px" viewBox="0 0 165.7 34.7" enable-background="new 0 0 165.7 34.7" xml:space="preserve">
<g>
	<path fill="#FFFFFF" stroke="#231815" stroke-miterlimit="10" d="M44.5,19.8v4.3c0,0.5,0.1,0.8,0.4,1s0.7,0.4,1.3,0.5
		c0.6,0.1,1.5,0.1,2.8,0.1c1.5,0,3.1-0.1,4.9-0.3c1.8-0.2,3.2-0.4,4.2-0.7v4.6c-2.6,0.4-5.7,0.5-9.4,0.5c-1.7,0-3.2-0.1-4.5-0.3
		c-1.2-0.2-2.2-0.7-2.8-1.4s-1-1.6-1-2.8V11.3c0-1-0.1-2-0.2-3h4.6c-0.2,1.1-0.2,2.1-0.2,3v4.4c3.2-0.8,6-1.7,8.5-2.7
		c1.1-0.4,2.1-0.9,3.1-1.5l1.7,4c-0.3,0.1-0.8,0.3-1.6,0.7c-0.8,0.3-1.4,0.6-1.8,0.7C51.7,17.8,48.4,18.8,44.5,19.8z"/>
	<path fill="#FFFFFF" stroke="#231815" stroke-miterlimit="10" d="M84,9.1l2.5,2.3c-0.6,0.8-1,1.3-1.2,1.5c-0.8,1.3-1.7,2.6-2.8,3.9
		c-1.1,1.4-2.2,2.4-3.3,3.2l-3.3-2.6c0.9-0.6,1.8-1.3,2.6-2.1c0.8-0.8,1.4-1.6,1.7-2.2H67.4c-0.6,0-1.7,0.1-3.3,0.2V9.1
		c1.3,0.2,2.4,0.3,3.3,0.3h13.5C82.3,9.4,83.3,9.3,84,9.1z M71.2,15h4.6c0,0.1,0,0.2,0,0.4c0,0.9,0,1.5,0,2c0,0.4,0,1.1-0.1,1.9
		c0,0.8-0.1,1.5-0.2,1.9c-0.1,0.5-0.2,1.1-0.4,1.8c-0.2,0.7-0.4,1.3-0.6,1.8c-0.2,0.5-0.5,1-0.9,1.6c-0.4,0.6-0.8,1.2-1.3,1.6
		c-0.5,0.5-1,0.9-1.7,1.4c-0.6,0.5-1.4,1-2.1,1.4l-3.7-3c1-0.4,2-0.9,3-1.6c1.4-1,2.3-2.2,2.8-3.4s0.7-3,0.7-5.2
		C71.4,16.7,71.3,15.8,71.2,15z"/>
	<path fill="#FFFFFF" stroke="#231815" stroke-miterlimit="10" d="M92,8.8h4.7c-0.1,0.9-0.1,1.6-0.1,2.1v8.8c0,0.7,0,1.5,0.1,2.4
		h-4.7c0-0.1,0-0.3,0-0.6c0-0.3,0-0.7,0.1-1c0-0.3,0-0.6,0-0.8v-8.8C92.1,10.1,92,9.4,92,8.8z M103.9,8.6h4.7c-0.1,1-0.1,2-0.1,2.8
		v5.7c0,2.5-0.3,4.5-0.8,6c-0.5,1.5-1.3,2.8-2.4,3.9c-0.8,0.8-1.8,1.6-3,2.2c-1.2,0.7-2.3,1.2-3.4,1.5l-3.3-3.5
		c2.8-0.6,5-1.7,6.4-3.2c0.8-0.9,1.4-1.9,1.7-2.9c0.3-1,0.4-2.5,0.4-4.4v-5.4C104.1,10.6,104,9.6,103.9,8.6z"/>
	<path fill="#FFFFFF" stroke="#231815" stroke-miterlimit="10" d="M118.6,30.3l-2.7-4.2c3.7-0.5,6.9-1.5,9.7-3.2
		c2.3-1.3,4.2-2.9,6-4.7c1.7-1.9,3.1-3.7,4-5.7L138,17c-1,1.8-2.5,3.6-4.2,5.4s-3.7,3.2-5.9,4.5C124.8,28.6,121.7,29.8,118.6,30.3z
		 M116.8,12l3-3.2c1,0.7,2.2,1.6,3.6,2.7c1.4,1.1,2.5,2.1,3.2,2.9l-3.2,3.3c-0.7-0.8-1.7-1.7-3.1-2.9
		C118.8,13.6,117.7,12.7,116.8,12z"/>
	<path fill="#FFFFFF" stroke="#231815" stroke-miterlimit="10" d="M161.8,11l-2,0.8l2.6,1.7c-0.5,0.9-0.8,1.6-1,2.1
		c-1.1,3.3-2.6,6.2-4.5,8.5c-1.3,1.6-2.8,3-4.5,4.2c-1.7,1.2-3.7,2.3-6.1,3.3l-3.8-3.3c2.6-0.8,4.7-1.7,6.3-2.7c1.6-1,3-2.3,4.3-3.7
		c0.8-0.9,1.5-2,2.2-3.2s1.1-2.4,1.2-3.3h-6.5c-2,2.5-4.2,4.5-6.6,6.2L140,19c1.4-0.9,2.7-1.9,3.9-2.9c1.2-1.1,2-2,2.5-2.7
		s1.1-1.5,1.7-2.5c0.6-1,1.1-2,1.4-3.1l4.6,1.5c-0.6,0.8-1.1,1.6-1.6,2.6h4.2c0.9,0,1.7-0.1,2.4-0.3c-0.7-1.4-1.2-2.4-1.7-3.1l2.4-1
		C160.4,8.4,161.1,9.5,161.8,11z M160.5,7.2l2.4-1c0.8,1.1,1.4,2.3,2.1,3.5l-2.5,1C161.8,9.3,161.2,8.1,160.5,7.2z"/>
</g>
<g>
	<path fill="#010101" d="M24.3,29.2v5.5H0l3.4-4.4c6.4-8.5,9.2-12.2,12.8-17c1-1.4,1.7-2.8,1.9-3.9c0.1-0.8,0-1.5-0.4-2.1
		c-0.7-1.3-2.5-2-4.3-1.7c-1,0.2-2,0.6-2.7,1.3c-0.8,0.8-1.5,1.9-1.8,3.3L4,7.3C4.6,5.5,5.7,4,7,2.8c1.5-1.4,3.5-2.3,5.6-2.7
		c4-0.6,8,1.1,9.9,4.3c1,1.7,1.4,3.6,1.1,5.7c-0.3,2.1-1.3,4.3-2.9,6.4c-2.9,3.9-5.3,7.1-9.5,12.7H24.3z"/>
</g>
<g>
</g>
<g>
</g>
<g>
</g>
<g>
</g>
<g>
</g>
<g>
</g>
</svg>
