<?xml version="1.0" encoding="utf-8"?>
<!-- Generator: Adobe Illustrator 16.0.0, SVG Export Plug-In . SVG Version: 6.00 Build 0)  -->
<!DOCTYPE svg PUBLIC "-//W3C//DTD SVG 1.0//EN" "http://www.w3.org/TR/2001/REC-SVG-20010904/DTD/svg10.dtd">
<svg version="1.0" id="Layer_1" xmlns="http://www.w3.org/2000/svg"  x="0px" y="0px"
	 width="333.379px" height="34.657px" viewBox="0 0 333.379 34.657" enable-background="new 0 0 333.379 34.657"
	 xml:space="preserve">
<g>
	<g>
		<path d="M7.519,34.657V10.79l-4.297,3.223l-3.223-4.344L12.937,0v34.657H7.519z"/>
	</g>
	<g>
		<path d="M40.333,28.452V8.011h4.162v16.969h10.347v3.473H40.333z"/>
		<path d="M57.781,11.497V7.842h3.95v3.655H57.781z M57.781,28.452V13.521h3.95v14.931H57.781z"/>
		<path d="M74.427,23.7l3.937,0.661c-0.507,1.444-1.306,2.542-2.397,3.297c-1.092,0.755-2.458,1.132-4.098,1.132
			c-2.597,0-4.519-0.848-5.765-2.544c-0.984-1.359-1.476-3.074-1.476-5.146c0-2.474,0.646-4.412,1.939-5.813
			c1.294-1.401,2.929-2.102,4.907-2.102c2.221,0,3.974,0.733,5.258,2.2c1.284,1.467,1.897,3.714,1.842,6.741h-9.897
			c0.027,1.172,0.347,2.083,0.956,2.734c0.608,0.652,1.368,0.978,2.277,0.978c0.618,0,1.139-0.169,1.561-0.506
			S74.211,24.45,74.427,23.7z M66.849,11.638l2.952-4.147h3.655l2.91,4.147h-3.177l-1.631-2.095l-1.519,2.095H66.849z
			 M74.651,19.708c-0.028-1.144-0.323-2.013-0.886-2.608s-1.246-0.893-2.053-0.893c-0.862,0-1.574,0.314-2.137,0.942
			s-0.839,1.481-0.829,2.559H74.651z"/>
		<path d="M95.374,28.452h-3.95v-7.62c0-1.612-0.085-2.654-0.253-3.128c-0.169-0.473-0.443-0.841-0.823-1.104
			c-0.379-0.262-0.836-0.394-1.37-0.394c-0.685,0-1.299,0.188-1.842,0.562c-0.544,0.375-0.916,0.872-1.118,1.49
			c-0.201,0.619-0.302,1.762-0.302,3.431v6.762h-3.95V13.521h3.669v2.193c1.303-1.687,2.942-2.531,4.921-2.531
			c0.871,0,1.668,0.157,2.39,0.471s1.268,0.715,1.638,1.202s0.628,1.04,0.773,1.659s0.218,1.504,0.218,2.657V28.452z"/>
		<path d="M107.381,28.452V7.842h3.951v20.61H107.381z"/>
		<path d="M118.333,18.077l-3.585-0.646c0.403-1.443,1.097-2.512,2.081-3.206c0.984-0.693,2.446-1.041,4.387-1.041
			c1.762,0,3.074,0.209,3.937,0.625c0.862,0.417,1.469,0.947,1.82,1.589s0.527,1.821,0.527,3.536l-0.042,4.611
			c0,1.313,0.063,2.28,0.189,2.903c0.127,0.624,0.363,1.291,0.71,2.003h-3.908c-0.104-0.262-0.229-0.651-0.38-1.167
			c-0.065-0.234-0.112-0.389-0.141-0.464c-0.675,0.656-1.396,1.148-2.165,1.476c-0.769,0.328-1.589,0.492-2.46,0.492
			c-1.537,0-2.749-0.417-3.635-1.251c-0.886-0.834-1.328-1.888-1.328-3.163c0-0.843,0.201-1.596,0.604-2.256
			s0.968-1.167,1.694-1.519c0.726-0.351,1.773-0.658,3.142-0.921c1.847-0.347,3.126-0.67,3.838-0.97v-0.394
			c0-0.759-0.188-1.301-0.562-1.624c-0.375-0.323-1.083-0.485-2.123-0.485c-0.703,0-1.251,0.138-1.646,0.415
			C118.896,16.898,118.577,17.383,118.333,18.077z M123.619,21.282c-0.506,0.168-1.307,0.37-2.403,0.604s-1.813,0.464-2.151,0.689
			c-0.516,0.365-0.773,0.829-0.773,1.392c0,0.553,0.206,1.031,0.619,1.434c0.412,0.403,0.937,0.604,1.574,0.604
			c0.712,0,1.392-0.234,2.039-0.703c0.478-0.356,0.791-0.792,0.941-1.307c0.104-0.337,0.154-0.979,0.154-1.926V21.282z
			 M118.77,34.09v-3.951h3.95v3.951H118.77z"/>
		<path d="M144.412,17.936l-3.895,0.703c-0.131-0.778-0.429-1.364-0.893-1.757c-0.464-0.394-1.066-0.591-1.807-0.591
			c-0.983,0-1.769,0.34-2.354,1.02s-0.879,1.816-0.879,3.409c0,1.771,0.298,3.022,0.893,3.754c0.596,0.731,1.395,1.097,2.397,1.097
			c0.75,0,1.363-0.213,1.842-0.64c0.478-0.426,0.815-1.16,1.012-2.2l3.881,0.661c-0.403,1.781-1.177,3.126-2.32,4.035
			c-1.144,0.909-2.676,1.364-4.597,1.364c-2.185,0-3.925-0.689-5.223-2.066c-1.299-1.378-1.947-3.285-1.947-5.722
			c0-2.465,0.651-4.384,1.954-5.757c1.303-1.373,3.064-2.06,5.286-2.06c1.818,0,3.264,0.392,4.337,1.174
			C143.173,15.141,143.943,16.333,144.412,17.936z"/>
		<path d="M159.512,28.452l-6.018-14.931h4.147l2.813,7.62l0.815,2.544c0.215-0.646,0.351-1.073,0.407-1.279
			c0.131-0.422,0.271-0.843,0.422-1.265l2.84-7.62h4.063l-5.933,14.931H159.512z"/>
		<path d="M185.872,13.521h3.95v2.826c0,1.162-0.101,2.071-0.302,2.727c-0.202,0.656-0.574,1.242-1.118,1.757
			c-0.628,0.609-1.485,1.087-2.573,1.434c-0.234,1.678-0.933,3.107-2.095,4.288c-1.462,1.49-3.299,2.235-5.511,2.235
			c-1.415,0-2.718-0.309-3.908-0.928c-1.266-0.656-2.217-1.572-2.854-2.749c-0.637-1.176-0.956-2.622-0.956-4.337
			c0-1.35,0.324-2.62,0.971-3.81c0.675-1.246,1.598-2.188,2.77-2.826c1.172-0.637,2.488-0.956,3.95-0.956
			c2.259,0,4.11,0.731,5.554,2.193c1.303,1.331,2.02,2.976,2.15,4.935c1.219-0.497,1.847-1.443,1.885-2.84h-1.912V13.521z
			 M174.555,20.987c0,1.434,0.352,2.568,1.054,3.402c0.666,0.787,1.533,1.181,2.602,1.181s1.931-0.394,2.587-1.181
			c0.702-0.834,1.054-1.978,1.054-3.43c0-1.425-0.352-2.549-1.054-3.375c-0.656-0.787-1.519-1.181-2.587-1.181
			s-1.936,0.394-2.602,1.181C174.906,18.419,174.555,19.553,174.555,20.987z M176.213,11.694l1.94-4.204h4.429l-3.866,4.204H176.213
			z"/>
		<path d="M191.889,11.497V7.842h3.951v3.655H191.889z M191.889,28.452V13.521h3.951v14.931H191.889z"/>
		<path d="M220.907,17.936l-3.895,0.703c-0.131-0.778-0.429-1.364-0.893-1.757c-0.464-0.394-1.066-0.591-1.807-0.591
			c-0.983,0-1.769,0.34-2.354,1.02s-0.879,1.816-0.879,3.409c0,1.771,0.298,3.022,0.893,3.754c0.596,0.731,1.395,1.097,2.397,1.097
			c0.75,0,1.363-0.213,1.842-0.64c0.478-0.426,0.815-1.16,1.012-2.2l3.881,0.661c-0.403,1.781-1.177,3.126-2.32,4.035
			c-1.144,0.909-2.676,1.364-4.597,1.364c-2.185,0-3.925-0.689-5.223-2.066c-1.299-1.378-1.947-3.285-1.947-5.722
			c0-2.465,0.651-4.384,1.954-5.757c1.303-1.373,3.064-2.06,5.286-2.06c1.818,0,3.264,0.392,4.337,1.174
			C219.668,15.141,220.438,16.333,220.907,17.936z"/>
		<path d="M227.838,7.842v7.578c1.274-1.49,2.798-2.235,4.569-2.235c0.909,0,1.729,0.169,2.46,0.506
			c0.731,0.337,1.282,0.769,1.652,1.293s0.623,1.106,0.759,1.743c0.136,0.638,0.204,1.626,0.204,2.966v8.759h-3.95v-7.887
			c0-1.565-0.075-2.559-0.226-2.98c-0.149-0.421-0.414-0.757-0.794-1.005c-0.38-0.249-0.855-0.373-1.427-0.373
			c-0.656,0-1.242,0.159-1.758,0.478c-0.516,0.318-0.893,0.799-1.132,1.441c-0.238,0.642-0.358,1.591-0.358,2.847v7.479h-3.95V7.842
			H227.838z"/>
		<path d="M251.316,28.452v-2.235c-0.543,0.797-1.258,1.425-2.144,1.884s-1.82,0.689-2.805,0.689c-1.003,0-1.903-0.22-2.699-0.661
			c-0.797-0.44-1.373-1.059-1.729-1.856c-0.356-0.796-0.534-1.898-0.534-3.304v-9.448h3.95v6.861c0,2.1,0.072,3.386,0.218,3.859
			s0.41,0.848,0.795,1.125c0.384,0.276,0.871,0.415,1.462,0.415c0.675,0,1.279-0.185,1.813-0.555c0.534-0.37,0.899-0.83,1.097-1.378
			c0.197-0.548,0.295-1.891,0.295-4.028v-6.298h3.951v14.931H251.316z M246.199,11.694l1.94-4.204h4.429l-3.866,4.204H246.199z"/>
		<path d="M272.658,28.452h-3.95v-7.62c0-1.612-0.085-2.654-0.253-3.128c-0.169-0.473-0.443-0.841-0.823-1.104
			c-0.379-0.262-0.836-0.394-1.37-0.394c-0.685,0-1.299,0.188-1.842,0.562c-0.544,0.375-0.916,0.872-1.118,1.49
			C263.101,18.878,263,20.021,263,21.69v6.762h-3.951V13.521h3.67v2.193c1.303-1.687,2.942-2.531,4.921-2.531
			c0.871,0,1.668,0.157,2.39,0.471s1.268,0.715,1.638,1.202s0.628,1.04,0.773,1.659s0.218,1.504,0.218,2.657V28.452z"/>
		<path d="M276.3,29.436l4.513,0.548c0.075,0.525,0.248,0.886,0.521,1.083c0.375,0.281,0.965,0.422,1.771,0.422
			c1.03,0,1.804-0.155,2.319-0.464c0.347-0.206,0.609-0.539,0.787-0.998c0.122-0.328,0.184-0.933,0.184-1.813v-2.179
			c-1.182,1.612-2.672,2.418-4.472,2.418c-2.005,0-3.594-0.848-4.766-2.544c-0.919-1.34-1.378-3.009-1.378-5.005
			c0-2.502,0.603-4.415,1.807-5.736c1.204-1.322,2.702-1.982,4.492-1.982c1.846,0,3.369,0.811,4.569,2.432v-2.095h3.697V26.92
			c0,1.762-0.146,3.079-0.436,3.95c-0.291,0.872-0.699,1.556-1.224,2.053c-0.525,0.497-1.226,0.886-2.102,1.167
			c-0.877,0.281-1.985,0.422-3.325,0.422c-2.53,0-4.325-0.434-5.385-1.301c-1.059-0.867-1.588-1.966-1.588-3.297
			C276.286,29.783,276.29,29.624,276.3,29.436z M279.828,20.678c0,1.584,0.308,2.744,0.921,3.479
			c0.614,0.736,1.371,1.104,2.271,1.104c0.966,0,1.781-0.377,2.446-1.132c0.666-0.754,0.998-1.872,0.998-3.353
			c0-1.546-0.318-2.694-0.955-3.444c-0.638-0.75-1.444-1.125-2.419-1.125c-0.946,0-1.727,0.368-2.341,1.104
			C280.136,18.046,279.828,19.168,279.828,20.678z"/>
		<path d="M309.099,13.521v3.149h-2.699v6.017c0,1.219,0.025,1.929,0.077,2.13c0.052,0.202,0.169,0.368,0.352,0.499
			c0.183,0.131,0.405,0.197,0.668,0.197c0.365,0,0.895-0.126,1.589-0.379l0.337,3.065c-0.918,0.394-1.959,0.59-3.121,0.59
			c-0.712,0-1.354-0.12-1.926-0.358c-0.571-0.239-0.991-0.548-1.258-0.928c-0.268-0.379-0.453-0.893-0.556-1.539
			c-0.084-0.459-0.127-1.387-0.127-2.784v-6.509h-1.813v-3.149h1.813v-2.966l3.965-2.306v5.272H309.099z"/>
		<path d="M310.926,20.776c0-1.312,0.324-2.582,0.971-3.81c0.646-1.228,1.563-2.165,2.748-2.812c1.186-0.647,2.51-0.97,3.972-0.97
			c2.259,0,4.11,0.733,5.554,2.2c1.443,1.467,2.165,3.32,2.165,5.561c0,2.259-0.729,4.131-2.187,5.616
			c-1.457,1.486-3.292,2.229-5.504,2.229c-1.368,0-2.674-0.309-3.915-0.928c-1.242-0.619-2.187-1.525-2.833-2.721
			C311.25,23.946,310.926,22.491,310.926,20.776z M313.864,11.638l2.953-4.147h3.655l2.91,4.147h-3.178l-1.631-2.095l-1.519,2.095
			H313.864z M314.976,20.987c0,1.481,0.352,2.615,1.054,3.402c0.703,0.787,1.57,1.181,2.602,1.181c1.03,0,1.896-0.394,2.594-1.181
			s1.047-1.931,1.047-3.43c0-1.462-0.349-2.587-1.047-3.375c-0.698-0.787-1.563-1.181-2.594-1.181c-1.031,0-1.898,0.394-2.602,1.181
			C315.327,18.372,314.976,19.506,314.976,20.987z"/>
		<path d="M329.428,11.497V7.842h3.951v3.655H329.428z M329.428,28.452V13.521h3.951v14.931H329.428z"/>
	</g>
</g>
</svg>
