<?xml version="1.0" encoding="utf-8"?>
<!-- Generator: Adobe Illustrator 16.0.0, SVG Export Plug-In . SVG Version: 6.00 Build 0)  -->
<!DOCTYPE svg PUBLIC "-//W3C//DTD SVG 1.1//EN" "http://www.w3.org/Graphics/SVG/1.1/DTD/svg11.dtd">
<svg version="1.1" id="Layer_1" xmlns="http://www.w3.org/2000/svg" xmlns:xlink="http://www.w3.org/1999/xlink" x="0px" y="0px"
	 width="85.7px" height="34.7px" viewBox="0 0 85.7 34.7" enable-background="new 0 0 85.7 34.7" xml:space="preserve">
<g>
	<path fill="#FFFFFF" stroke="#010101" stroke-miterlimit="10" d="M57.7,10.4v16.3c0,1-0.1,1.7-0.3,2.3s-0.6,1-1.2,1.3
		c-0.5,0.3-1.2,0.4-2,0.5s-1.8,0.1-3.2,0.1c-0.2-1.2-0.6-2.4-1.2-3.7c0.9,0.1,2.1,0.1,3.6,0.1c0.4,0,0.7-0.2,0.7-0.6v-3.5l-2.8,2.1
		c-0.8-1.2-2.1-2.8-4.1-4.7c-1.1,2.2-2.8,4-5.1,5.4c-0.4-0.6-1.2-1.5-2.3-2.5v7.4h-3.8V10.4h8.9V6.1h3.9v4.3H57.7z M39.7,14.1v8.8
		c1-0.5,1.8-1.2,2.5-1.9c0.7-0.7,1.2-1.5,1.6-2.3c0.3-0.8,0.6-1.6,0.7-2.3s0.2-1.5,0.3-2.3H39.7z M53.9,14.1h-5.3
		c-0.1,0.8-0.2,1.7-0.3,2.7c2.8,2.6,4.6,4.5,5.6,5.6V14.1z"/>
	<path fill="#FFFFFF" stroke="#010101" stroke-miterlimit="10" d="M78.4,27.7H81c0.4,0,0.6-0.1,0.8-0.3s0.2-0.8,0.3-1.6
		c0.8,0.5,1.9,0.9,3.1,1.1c-0.2,1.4-0.5,2.4-1.1,2.9s-1.4,0.8-2.7,0.8h-3.5c-1.7,0-2.9-0.3-3.4-0.8s-0.9-1.4-0.9-2.8v-0.7h-2.3
		C71,27.2,70.6,28,70,28.5c-0.6,0.6-1.5,1-2.8,1.4s-3.1,0.7-5.3,0.9c-0.1-0.4-0.3-0.9-0.6-1.4c-0.3-0.6-0.6-1-1-1.4
		c2.5-0.1,4.2-0.3,5.2-0.5s1.6-0.6,1.9-1.2h-3.2v-9.1h16.9v9.1h-4V27c0,0.3,0.1,0.5,0.2,0.6S77.9,27.7,78.4,27.7z M73.3,14.7v2H61.8
		V6.9h11v2h-3.3v0.6h3.1v2.1c1.1-1.4,2-3.3,2.5-5.6l3.4,0.8c-0.2,0.6-0.3,1.2-0.5,1.8h6.8v2.8h-8c-0.3,0.6-0.7,1.2-1.1,1.8H84v2.8
		h-8.7v-2.5c-0.1,0.1-0.1,0.1-0.2,0.2C75.1,13.9,75,14,75,14.1c-0.9-0.7-1.7-1.3-2.4-1.7V14h-3.1v0.7H73.3z M66.5,8.9h-1.3v0.6h1.3
		V8.9z M69.3,11.4h-4.2v0.7h4.2V11.4z M65.2,14v0.7h1.3V14H65.2z M67.9,19.1v0.6h9.5v-0.6H67.9z M67.9,21.5V22h9.5v-0.6H67.9z
		 M67.9,23.8v0.6h9.5v-0.6H67.9z"/>
</g>
<g>
	<path fill="#010101" d="M10.9,34.7C7.4,34.4,3.7,33,0,30.5L3.1,26c5.1,3.6,10,4.2,13.3,1.8c2.3-1.8,3.5-4.9,2.6-7.4
		c-0.4-1.2-1.2-2.1-2.3-2.8c-1.4-0.9-3.4-1.3-5.8-1.3l-4.6,0l6-11H2.2V0h19.1l-6.2,11.3c1.6,0.4,3.1,0.9,4.4,1.7
		c2.2,1.4,3.8,3.3,4.6,5.7c0.8,2.3,0.7,4.9,0,7.3c-0.8,2.4-2.4,4.6-4.4,6.1c-2.2,1.7-5,2.6-7.9,2.6C11.4,34.7,11.2,34.7,10.9,34.7z"
		/>
</g>
<g>
</g>
<g>
</g>
<g>
</g>
<g>
</g>
<g>
</g>
<g>
</g>
</svg>
