<?xml version="1.0" encoding="utf-8"?>
<!-- Generator: Adobe Illustrator 16.0.0, SVG Export Plug-In . SVG Version: 6.00 Build 0)  -->
<!DOCTYPE svg PUBLIC "-//W3C//DTD SVG 1.0//EN" "http://www.w3.org/TR/2001/REC-SVG-20010904/DTD/svg10.dtd">
<svg version="1.0" id="Layer_1" xmlns="http://www.w3.org/2000/svg"  x="0px" y="0px"
	 width="262.164px" height="34.657px" viewBox="0 0 262.164 34.657" enable-background="new 0 0 262.164 34.657"
	 xml:space="preserve">
<g>
	<g>
		<path d="M46.065,7.481h7.592c1.743,0,3.065,0.136,3.965,0.408c1.219,0.366,2.259,1.01,3.121,1.933
			c0.862,0.923,1.512,2.041,1.947,3.353c0.436,1.313,0.653,2.934,0.653,4.864c0,1.697-0.241,3.227-0.724,4.59s-1.192,2.5-2.13,3.409
			c-0.722,0.685-1.692,1.223-2.91,1.617c-0.919,0.291-2.151,0.436-3.697,0.436h-7.817v-8.998h-2.137v-2.615h2.137V7.481z
			 M50.213,10.968v5.511h4.415v2.615h-4.415v5.525h3.121c1.378,0,2.371-0.112,2.98-0.337c0.807-0.281,1.42-0.796,1.842-1.546
			c0.591-1.059,0.886-2.676,0.886-4.85c0-1.547-0.124-2.739-0.372-3.578c-0.249-0.839-0.614-1.516-1.097-2.032
			c-0.483-0.515-1.113-0.876-1.892-1.083c-0.6-0.15-1.795-0.225-3.585-0.225H50.213z"/>
		<path d="M66.831,11.136V7.481h3.95v3.655H66.831z M66.831,28.091V13.161h3.95v14.931H66.831z"/>
		<path d="M80.932,28.091l5.385-7.69l-5.16-7.24h4.822l2.644,4.105l2.783-4.105h4.64l-5.062,7.072l5.525,7.859h-4.851l-3.036-4.625
			l-3.065,4.625H80.932z"/>
		<path d="M107.488,23.339L111.425,24c-0.506,1.444-1.306,2.542-2.397,3.297c-1.092,0.755-2.458,1.132-4.098,1.132
			c-2.597,0-4.518-0.848-5.765-2.544c-0.983-1.359-1.476-3.074-1.476-5.146c0-2.474,0.646-4.412,1.939-5.813
			c1.294-1.401,2.93-2.102,4.907-2.102c2.221,0,3.974,0.733,5.258,2.2c1.284,1.467,1.897,3.714,1.842,6.741h-9.897
			c0.028,1.172,0.347,2.083,0.956,2.734c0.609,0.652,1.368,0.978,2.277,0.978c0.618,0,1.139-0.169,1.561-0.506
			S107.272,24.089,107.488,23.339z M107.713,19.347c-0.027-1.144-0.323-2.013-0.886-2.608c-0.562-0.595-1.246-0.893-2.052-0.893
			c-0.863,0-1.575,0.314-2.138,0.942s-0.839,1.481-0.829,2.559H107.713z"/>
		<path d="M114.56,13.161h3.642v2.039c1.302-1.583,2.854-2.376,4.653-2.376c0.956,0,1.785,0.197,2.488,0.591
			c0.703,0.394,1.279,0.989,1.729,1.785c0.655-0.796,1.363-1.392,2.122-1.785c0.76-0.394,1.57-0.591,2.433-0.591
			c1.097,0,2.024,0.223,2.784,0.668c0.759,0.445,1.326,1.099,1.7,1.961c0.272,0.638,0.408,1.668,0.408,3.093v9.546h-3.95v-8.534
			c0-1.481-0.137-2.437-0.408-2.868c-0.365-0.563-0.928-0.843-1.687-0.843c-0.554,0-1.074,0.168-1.561,0.506
			c-0.488,0.337-0.839,0.832-1.055,1.483s-0.323,1.68-0.323,3.086v7.17h-3.951v-8.182c0-1.453-0.07-2.39-0.211-2.812
			s-0.358-0.735-0.653-0.942c-0.295-0.206-0.696-0.309-1.202-0.309c-0.609,0-1.157,0.164-1.645,0.492
			c-0.487,0.328-0.837,0.802-1.048,1.42c-0.211,0.619-0.316,1.645-0.316,3.079v7.254h-3.95V13.161z"/>
		<path d="M155.303,13.161v3.149h-2.699v6.017c0,1.219,0.025,1.929,0.077,2.13c0.052,0.202,0.169,0.368,0.352,0.499
			c0.183,0.131,0.405,0.197,0.668,0.197c0.365,0,0.895-0.126,1.589-0.379l0.337,3.065c-0.918,0.394-1.959,0.59-3.121,0.59
			c-0.712,0-1.354-0.12-1.926-0.358c-0.571-0.239-0.991-0.548-1.258-0.928c-0.268-0.379-0.453-0.893-0.556-1.539
			c-0.084-0.459-0.127-1.387-0.127-2.784V16.31h-1.813v-3.149h1.813v-2.966l3.965-2.306v5.272H155.303z"/>
		<path d="M161.826,28.091h-3.95V13.161h3.669v2.123c0.628-1.003,1.192-1.664,1.694-1.982c0.501-0.318,1.07-0.478,1.708-0.478
			c0.899,0,1.767,0.249,2.601,0.745l-1.223,3.444c-0.666-0.431-1.284-0.646-1.856-0.646c-0.553,0-1.021,0.152-1.405,0.457
			c-0.385,0.305-0.687,0.855-0.907,1.652c-0.22,0.797-0.33,2.465-0.33,5.005V28.091z"/>
		<path d="M184.081,13.161h3.951v2.826c0,1.162-0.102,2.071-0.303,2.727c-0.201,0.656-0.574,1.242-1.117,1.757
			c-0.835,0.806-2.123,1.35-3.866,1.631v5.989h-3.67v-2.235c-1.172,1.715-2.821,2.573-4.948,2.573c-2.203,0-3.679-0.839-4.429-2.517
			c-0.356-0.796-0.534-1.898-0.534-3.304v-9.448h3.95v6.861c0,1.968,0.075,3.252,0.226,3.852c0.103,0.45,0.365,0.825,0.787,1.125
			c0.384,0.281,0.871,0.421,1.462,0.421c0.665,0,1.268-0.183,1.807-0.548c0.539-0.365,0.906-0.824,1.104-1.377
			s0.295-1.898,0.295-4.035v-6.298h3.951V20.5c1.303-0.262,2.216-0.75,2.741-1.462c0.318-0.431,0.487-1.073,0.506-1.926h-1.912
			V13.161z M173.622,33.729v-3.951h3.95v3.951H173.622z"/>
		<path d="M203.117,17.575l-3.895,0.703c-0.131-0.778-0.429-1.364-0.893-1.757c-0.464-0.394-1.066-0.591-1.807-0.591
			c-0.983,0-1.769,0.34-2.354,1.02s-0.879,1.816-0.879,3.409c0,1.771,0.298,3.022,0.893,3.754c0.596,0.731,1.395,1.097,2.397,1.097
			c0.75,0,1.363-0.213,1.842-0.64c0.478-0.426,0.815-1.16,1.012-2.2l3.881,0.661c-0.403,1.781-1.177,3.126-2.32,4.035
			c-1.144,0.909-2.676,1.364-4.597,1.364c-2.185,0-3.925-0.689-5.223-2.066c-1.299-1.378-1.947-3.285-1.947-5.722
			c0-2.465,0.651-4.384,1.954-5.757c1.303-1.373,3.064-2.06,5.286-2.06c1.818,0,3.264,0.392,4.337,1.174
			C201.878,14.78,202.648,15.973,203.117,17.575z"/>
		<path d="M220.957,13.161v3.149h-2.699v6.017c0,1.219,0.025,1.929,0.077,2.13c0.052,0.202,0.169,0.368,0.352,0.499
			c0.183,0.131,0.405,0.197,0.668,0.197c0.365,0,0.895-0.126,1.589-0.379l0.337,3.065c-0.918,0.394-1.959,0.59-3.121,0.59
			c-0.712,0-1.354-0.12-1.926-0.358c-0.571-0.239-0.991-0.548-1.258-0.928c-0.268-0.379-0.453-0.893-0.556-1.539
			c-0.084-0.459-0.127-1.387-0.127-2.784V16.31h-1.813v-3.149h1.813v-2.966l3.965-2.306v5.272H220.957z"/>
		<path d="M223.698,11.136V7.481h3.951v3.655H223.698z M223.698,28.091V13.161h3.951v14.931H223.698z"/>
		<path d="M240.345,23.339L244.281,24c-0.506,1.444-1.306,2.542-2.397,3.297c-1.092,0.755-2.458,1.132-4.098,1.132
			c-2.597,0-4.518-0.848-5.765-2.544c-0.983-1.359-1.476-3.074-1.476-5.146c0-2.474,0.646-4.412,1.939-5.813
			c1.294-1.401,2.93-2.102,4.907-2.102c2.221,0,3.974,0.733,5.258,2.2c1.284,1.467,1.897,3.714,1.842,6.741h-9.897
			c0.028,1.172,0.347,2.083,0.956,2.734c0.609,0.652,1.368,0.978,2.277,0.978c0.618,0,1.139-0.169,1.561-0.506
			S240.129,24.089,240.345,23.339z M232.767,11.277l2.953-4.147h3.655l2.91,4.147h-3.178l-1.631-2.095l-1.519,2.095H232.767z
			 M240.569,19.347c-0.027-1.144-0.323-2.013-0.886-2.608c-0.562-0.595-1.246-0.893-2.052-0.893c-0.863,0-1.575,0.314-2.138,0.942
			s-0.839,1.481-0.829,2.559H240.569z M235.663,6.37l1.813-3.964h4.429l-3.739,3.964H235.663z"/>
		<path d="M247.599,13.161h3.684v2.193c0.478-0.75,1.125-1.359,1.94-1.828s1.72-0.703,2.713-0.703c1.734,0,3.205,0.68,4.415,2.039
			c1.209,1.359,1.813,3.252,1.813,5.68c0,2.494-0.609,4.431-1.828,5.813c-1.219,1.383-2.694,2.074-4.429,2.074
			c-0.824,0-1.572-0.164-2.242-0.492c-0.67-0.328-1.375-0.89-2.116-1.687v7.521h-3.95V13.161z M251.507,20.373
			c0,1.678,0.333,2.917,0.998,3.718c0.666,0.802,1.477,1.202,2.433,1.202c0.918,0,1.683-0.368,2.292-1.104
			c0.608-0.736,0.913-1.942,0.913-3.62c0-1.565-0.313-2.728-0.941-3.487c-0.628-0.759-1.406-1.139-2.334-1.139
			c-0.966,0-1.767,0.373-2.404,1.118S251.507,18.911,251.507,20.373z"/>
	</g>
	<g>
		<path d="M10.93,34.657C7.379,34.423,3.736,33.022,0,30.453l3.082-4.437c5.139,3.596,9.996,4.204,13.266,1.775
			c2.334-1.775,3.455-4.858,2.615-7.38c-0.42-1.168-1.168-2.102-2.336-2.803c-1.447-0.887-3.41-1.308-5.838-1.308l-4.625,0.047
			l5.979-10.976H2.195V0h19.104l-6.213,11.303c1.635,0.374,3.082,0.934,4.391,1.682c2.195,1.354,3.783,3.316,4.576,5.698
			c0.795,2.289,0.748,4.904-0.045,7.333c-0.842,2.382-2.383,4.577-4.391,6.072c-2.242,1.682-4.951,2.569-7.895,2.569
			C11.443,34.657,11.162,34.657,10.93,34.657z"/>
	</g>
</g>
</svg>
