<?xml version="1.0" encoding="utf-8"?>
<!-- Generator: Adobe Illustrator 16.0.0, SVG Export Plug-In . SVG Version: 6.00 Build 0)  -->
<!DOCTYPE svg PUBLIC "-//W3C//DTD SVG 1.1//EN" "http://www.w3.org/Graphics/SVG/1.1/DTD/svg11.dtd">
<svg version="1.1" id="Layer_1" xmlns="http://www.w3.org/2000/svg"  x="0px" y="0px"
	 width="160.3px" height="34.7px" viewBox="0 0 160.3 34.7" enable-background="new 0 0 160.3 34.7" xml:space="preserve">
<g>
	<path fill="#FFFFFF" stroke="#010101" stroke-miterlimit="10" d="M55.8,26.3h-4.6l0-1.3H39.8c-1.3,0-2.5,0.1-3.6,0.2v-4.5
		c1.4,0.1,2.5,0.2,3.4,0.2h11.6V11H40c-1.2,0-2.3,0-3.4,0.1V6.7c1.2,0.1,2.4,0.2,3.4,0.2h13.3c0.9,0,1.7,0,2.5-0.1
		c-0.1,1.3-0.1,2.1-0.1,2.6v13.5C55.6,24.1,55.7,25.2,55.8,26.3z"/>
	<path fill="#FFFFFF" stroke="#010101" stroke-miterlimit="10" d="M64,26.8l-2.7-4.2c3.7-0.5,6.9-1.5,9.7-3.2c2.3-1.3,4.2-2.9,6-4.7
		c1.7-1.9,3.1-3.7,4-5.7l2.4,4.4c-1,1.8-2.5,3.6-4.2,5.4s-3.7,3.2-5.9,4.5C70.3,25.1,67.2,26.3,64,26.8z M62.2,8.6l3-3.2
		c1,0.7,2.2,1.6,3.6,2.7c1.4,1.1,2.5,2.1,3.2,2.9l-3.2,3.3c-0.7-0.8-1.7-1.7-3.1-2.9C64.3,10.1,63.1,9.2,62.2,8.6z"/>
	<path fill="#FFFFFF" stroke="#010101" stroke-miterlimit="10" d="M105.3,7l3.2,2c-0.5,0.8-0.8,1.5-1,2.1c-0.9,2.4-2,4.7-3.5,6.7
		c1.1,0.7,1.9,1.2,2.5,1.7l-2.9,3.7c-0.5-0.5-1.3-1.1-2.4-1.9c-2.6,2.8-5.7,4.9-9.2,6.2l-3.7-3.2c3.8-1.2,6.9-3,9.4-5.5
		c-1.5-1-2.9-1.9-4.4-2.7l2.7-3c2.3,1.2,3.7,2,4.4,2.4c1.3-1.8,2-3.4,2.4-4.8H96c-2.1,2.8-4.4,5-6.8,6.7l-3.4-2.6
		c1.1-0.7,2.1-1.4,3-2.2s1.7-1.5,2.4-2.3c0.7-0.8,1.2-1.5,1.6-2s0.8-1.2,1.3-1.9c0.6-1,1.1-2,1.4-3.1l4.5,1.4
		c-0.5,0.7-1,1.5-1.5,2.5h4.3C103.7,7.3,104.6,7.2,105.3,7z"/>
	<path fill="#FFFFFF" stroke="#010101" stroke-miterlimit="10" d="M131.3,7.4l3.2,2c-0.5,0.9-0.8,1.6-1,2.1
		c-1.1,3.4-2.6,6.2-4.5,8.5c-1.3,1.6-2.8,3-4.5,4.2s-3.7,2.3-6.1,3.3l-3.7-3.3c2.6-0.8,4.7-1.7,6.2-2.7s3-2.2,4.3-3.7
		c0.8-0.9,1.5-2,2.2-3.3c0.7-1.3,1.1-2.4,1.3-3.3h-6.5c-2,2.5-4.2,4.5-6.6,6.2l-3.6-2.6c1.4-0.9,2.7-1.9,3.9-2.9
		c1.2-1.1,2-2,2.5-2.7c0.5-0.7,1.1-1.6,1.7-2.5c0.6-1,1.1-2,1.4-3.1l4.6,1.5c-0.5,0.6-1,1.5-1.6,2.6h4.2
		C129.7,7.8,130.5,7.7,131.3,7.4z"/>
	<path fill="#FFFFFF" stroke="#010101" stroke-miterlimit="10" d="M159.6,15.6l-1.8,4.4c-2.3-1.2-5.2-2.4-8.9-3.7v6.7
		c0,0.9,0.1,2.2,0.3,3.9h-4.9c0.2-1.3,0.3-2.6,0.3-3.9V8.1c0-1.3-0.1-2.4-0.3-3.4h4.9c-0.2,1.7-0.3,2.8-0.3,3.4v3.6
		c1.7,0.5,3.7,1.2,5.9,1.9C156.9,14.4,158.5,15,159.6,15.6z"/>
</g>
<g>
	<path fill="#010101" d="M7.5,34.7V10.8L3.2,14L0,9.7L12.9,0v34.7H7.5z"/>
</g>
<g>
</g>
<g>
</g>
<g>
</g>
<g>
</g>
<g>
</g>
<g>
</g>
</svg>
