<?xml version="1.0" encoding="utf-8"?>
<!-- Generator: Adobe Illustrator 16.0.0, SVG Export Plug-In . SVG Version: 6.00 Build 0)  -->
<!DOCTYPE svg PUBLIC "-//W3C//DTD SVG 1.1//EN" "http://www.w3.org/Graphics/SVG/1.1/DTD/svg11.dtd">
<svg version="1.1" id="Layer_1" xmlns="http://www.w3.org/2000/svg" xmlns:xlink="http://www.w3.org/1999/xlink" x="0px" y="0px"
	 width="85px" height="36.5px" viewBox="0 0 85 36.5" enable-background="new 0 0 85 36.5" xml:space="preserve">
<g>
	<path fill="none" stroke="#231815" stroke-miterlimit="10" d="M58.4,25.7H50c0.8,1,2,1.7,3.5,2.2s3.4,0.8,5.7,0.8
		c-0.9,1-1.7,2.2-2.3,3.6c-2.4-0.3-4.4-0.7-5.9-1.5c-1.5-0.7-2.8-1.8-3.7-3.1c-1.7,2.4-5.3,3.9-10.8,4.6c-0.5-1-1.2-2.1-2.2-3.2
		c5.3-0.6,8.5-1.8,9.7-3.5h-9v-3.1h9.5v-1.3h3.9v1.3h10.1V25.7z M54.5,11.7h-2.2C52.2,14,51.7,16,51,17.5c-0.7,1.5-1.9,2.8-3.6,3.7
		c-0.3-0.7-0.9-1.5-1.6-2.2l0,0.9c-4.1,0.5-7.7,0.8-10.9,1.2l-0.3-3.1c0.5,0,1.9-0.1,4.3-0.3v-1.7h-3.3v-2.8h3.3V12H35V9.2h3.8V7.6
		h3.5v1.6h3.4V12h-3.4v1.1h3v2.8h-3v1.4l3.4-0.3l0,1.3c1.1-0.7,1.9-1.6,2.3-2.6c0.4-1,0.7-2.4,0.8-4h-2.6V8.5h11.9
		c0,0.6,0,1.1,0,1.4c-0.1,3.1-0.2,5.4-0.4,6.8c-0.2,1.4-0.4,2.3-0.8,2.8c-0.5,0.7-1.1,1.1-2,1.2c-0.6,0.1-1.5,0.2-2.9,0.2
		c-0.1-1.2-0.4-2.3-1-3.4c0.5,0.1,1.2,0.1,1.9,0.1c0.4,0,0.6-0.1,0.8-0.4C54.2,16.8,54.4,15,54.5,11.7z"/>
	<path fill="none" stroke="#231815" stroke-miterlimit="10" d="M76,11.8h8.5c0,0.8,0,1.4,0,1.7c-0.2,5.8-0.4,9.9-0.6,12.3
		c-0.2,2.4-0.6,3.9-1.1,4.6c-0.4,0.5-0.8,0.9-1.2,1.1c-0.4,0.2-0.9,0.4-1.5,0.5c-0.8,0.2-2.2,0.2-4.1,0.1c0-0.6-0.2-1.2-0.4-1.9
		c-0.2-0.7-0.5-1.3-0.9-1.9c1.1,0.1,2.3,0.1,3.7,0.1c0.5,0,0.8-0.2,1.1-0.5c0.4-0.4,0.7-1.5,0.9-3.5c0.2-1.9,0.4-5,0.5-9.2h-6.4
		c-0.7,1.3-1.4,2.4-2.1,3.2c-0.4-0.4-1.3-1-2.5-1.8c1,1.9,1.6,3.5,1.9,4.7l-2.8,1.3c-0.1-0.5-0.2-1-0.3-1.3l-1,0.1v2l2.3-0.7
		c0.8,1.8,1.3,3.4,1.7,4.9l-2.9,1.1c-0.2-0.8-0.5-2.1-1-3.8v7.2h-3.3v-8c-0.3,2.6-0.7,4.7-1.4,6.2c-0.9-0.6-1.9-1-2.8-1.4
		c0.6-1.3,1-3.3,1.2-6l3,0.5v-1.7l-3.7,0.3L60.2,19l2.1-0.1l0.9-1.2c-0.7-1.1-1.7-2.3-3-3.5l1.8-2.6l0.5,0.5c0.7-1.5,1.3-3,1.7-4.4
		l3.3,1.1c-1.4,2.6-2.4,4.4-3,5.3c0.1,0.1,0.1,0.2,0.3,0.3c0.1,0.2,0.2,0.3,0.3,0.3c0.8-1.3,1.5-2.7,2.2-4l3.2,1.3
		c-1.3,2-2.5,3.7-3.5,5l2.2-1c1.9-2,3.2-4.9,4.1-8.6l3.9,0.9C76.9,9.3,76.5,10.4,76,11.8z M65.6,18.7l1.8-0.1
		c-0.3-0.7-0.5-1.2-0.6-1.4C66.3,17.9,65.9,18.4,65.6,18.7z M78.5,24l-3.3,1.7c-0.5-1.7-1.4-3.6-3-6l3-1.5
		C76.9,20.5,78,22.5,78.5,24z"/>
</g>
<g>
	<path fill="#010101" d="M17.3,36.5v-6.1H0L22.7,0v25H26v5.4h-3.3v6.1H17.3z M17.3,25v-8.6L10.9,25H17.3z"/>
</g>
<g>
</g>
<g>
</g>
<g>
</g>
<g>
</g>
<g>
</g>
<g>
</g>
</svg>
