<?xml version="1.0" encoding="utf-8"?>
<!-- Generator: Adobe Illustrator 16.0.0, SVG Export Plug-In . SVG Version: 6.00 Build 0)  -->
<!DOCTYPE svg PUBLIC "-//W3C//DTD SVG 1.1//EN" "http://www.w3.org/Graphics/SVG/1.1/DTD/svg11.dtd">
<svg version="1.1" xmlns="http://www.w3.org/2000/svg" xmlns:xlink="http://www.w3.org/1999/xlink" x="0px" y="0px"
	 width="128.288px" height="93.761px" viewBox="0 0 128.288 93.761" enable-background="new 0 0 128.288 93.761"
	 xml:space="preserve">
<g id="_x31_0_x3000_特集一覧_x3000_category">
</g>
<g id="_x31_1_x3000_特集個別_x3000_">
</g>
<g id="_x31_2_x3000_サポート_x3000_suport">
	<path d="M78.105,46.638l0.41,1.606c-0.499,0.233-1.123,0.351-1.872,0.351c-1.08,0-1.992-0.226-2.736-0.677
		c-0.745-0.451-1.314-1.067-1.709-1.848c-1.111-0.218-1.992-0.743-2.64-1.577s-0.972-1.891-0.972-3.171
		c0-1.474,0.423-2.629,1.269-3.467c0.846-0.838,1.957-1.257,3.334-1.257s2.492,0.419,3.346,1.257
		c0.853,0.837,1.281,1.993,1.281,3.467c0,1.208-0.293,2.219-0.876,3.032c-0.584,0.813-1.375,1.357-2.374,1.631
		c0.209,0.29,0.537,0.507,0.985,0.652c0.447,0.145,0.903,0.217,1.371,0.217C77.275,46.855,77.67,46.783,78.105,46.638z
		 M71.467,43.563c0.423,0.536,0.997,0.803,1.722,0.803c0.725,0,1.302-0.269,1.733-0.809c0.431-0.539,0.646-1.284,0.646-2.234
		c0-0.878-0.217-1.571-0.652-2.078c-0.435-0.507-1.011-0.761-1.728-0.761c-0.725,0-1.299,0.254-1.722,0.761s-0.634,1.2-0.634,2.078
		C70.833,42.281,71.044,43.028,71.467,43.563z"/>
	<path d="M102.29,47.857l-0.71-2.472h-3.807l-0.696,2.472h-2.785l3.723-10.882h3.353l3.808,10.882H102.29z M98.326,43.383h2.699
		l-0.271-0.938c-0.359-1.203-0.715-2.382-1.065-3.538h-0.057c-0.247,0.881-0.592,2.06-1.038,3.538L98.326,43.383z"/>
	<g>
		<path fill="#FBB03B" d="M90.927,51.162h-2.344l-1.017-0.951c-0.821,0.757-1.782,1.136-2.881,1.136c-1.033,0-1.854-0.25-2.464-0.75
			c-0.61-0.5-0.915-1.165-0.915-1.994c0-1.056,0.562-1.886,1.686-2.487c-0.47-0.343-0.794-0.668-0.972-0.975
			c-0.177-0.307-0.266-0.654-0.266-1.041c0-0.622,0.266-1.133,0.798-1.534c0.532-0.401,1.271-0.601,2.215-0.601
			c0.873,0,1.562,0.175,2.066,0.526c0.504,0.351,0.756,0.817,0.756,1.399c0,1.084-0.662,1.846-1.985,2.284l1.974,1.806
			c0.04-0.115,0.06-0.833,0.06-2.152h1.919v0.646c0,0.973-0.277,1.814-0.831,2.523l2.2,2.003V51.162z M86.67,49.35l-2.756-2.529
			c-0.394,0.327-0.592,0.809-0.592,1.447c0,0.51,0.167,0.922,0.502,1.235s0.761,0.469,1.28,0.469
			C85.741,49.972,86.263,49.765,86.67,49.35z M85.666,44.106c0-0.682-0.331-1.022-0.993-1.022c-0.271,0-0.5,0.088-0.688,0.263
			c-0.188,0.175-0.281,0.415-0.281,0.717c0,0.455,0.371,0.941,1.112,1.459C85.382,45.204,85.666,44.732,85.666,44.106z"/>
	</g>
	<path fill="none" stroke="#B3B3B3" stroke-width="2" stroke-miterlimit="10" d="M123.874,38.484
		c0,14.638-13.683,21.927-30.378,21.927c-16.694,0-30.079-7.289-30.079-21.927c0-14.639,13.496-27.972,30.19-27.972
		C110.303,10.512,123.874,23.845,123.874,38.484z"/>
	<g>
		<path fill="#B3B3B3" d="M104.43,60.461c1.848,5.576,6.071,9.743,8.158,15.14c0.113,0.355,0.227,0.71,0.34,1.066
			c1.062,2.503,0.11,2.866-2.853,1.087c-0.604-0.875-1.061-1.88-1.551-2.821c-1.378-2.646-2.775-5.316-4.262-7.903
			c-0.388-0.676-1.355-0.342-1.397,0.378c-0.373,6.309,0.652,12.476,1.356,18.726c0.174,1.539,0.126,3.141-0.161,4.66
			c-1.672-0.226-2.533-1.036-2.583-2.431c-0.189-0.855-0.27-1.743-0.396-2.609c-0.066-0.451-0.741-0.72-1.102-0.448
			c-1.798,1.351-3.867,1.43-6.043,1.337c-6.426-0.274-7.551-7.068-5.39-11.788c1.883-4.113,3.493-8.269,5.117-12.493
			c0.349-0.904-1.103-1.292-1.446-0.398c-1.763,4.582-4.074,9.091-5.676,13.698c-1.134,3.26-0.802,5.813,0.803,8.854
			c1.078,2.042,3.172,3.185,5.392,3.472c1.74,0.225,3.339,0.204,5.065-0.044c0.44-0.066,0.86-0.189,1.262-0.368
			c1.291-0.58,0.624-1.081,0.802,0.192c0.313,2.236,2.565,8.121,5.297,4.348c1.061-1.466,0.671-4.326,0.559-5.981
			c-0.427-6.306-1.732-12.362-1.356-18.726c-0.466,0.126-0.932,0.252-1.397,0.378c0.857,1.493,6.949,16.674,10.767,13.359
			c2-1.737,0.715-4.87-0.083-6.933c-1.959-5.067-6.031-8.886-7.775-14.15C105.574,59.149,104.125,59.54,104.43,60.461L104.43,60.461
			z"/>
	</g>
	<g>
		<path fill="#B3B3B3" d="M88.852,60.353c-3.405,0.571-6.777,0.916-10.227,0.981c-1.791,0.034-3.154,0.056-4.833,0.756
			c-1.137,0.474-2.434,2.106-1.227,3.221c2.333,2.156,4.501,1.775,7.538,1.255c4.136-0.708,8.827-1.561,12.767-2.958
			c0.905-0.321,0.516-1.771-0.398-1.446c-4.543,1.612-10.201,2.702-14.99,3.287c-0.66,0.081-5.554-0.968-2.499-2.241
			c1.564-0.652,3.495-0.371,5.14-0.401c3.064-0.059,6.112-0.5,9.13-1.007C90.203,61.639,89.798,60.194,88.852,60.353L88.852,60.353z
			"/>
	</g>
	<g>
		<path fill="#B3B3B3" d="M91.476,86.314c-1.49,0.589-2.549,2.085-3.55,3.27c-0.608,0.719-2.84,2.546-1.646,3.6
			c1.279,1.127,3.554,0.362,4.889-0.265c1.906-0.896,3.41-2.723,3.852-4.777c0.203-0.943-1.242-1.344-1.446-0.398
			c-0.325,1.508-1.233,2.641-2.495,3.499c-0.575,0.392-1.221,0.642-1.887,0.827c-0.234,0.065-1.532,0.025-1.624,0.192
			c0.455-0.834,1.446-1.657,2.066-2.38c0.599-0.698,1.354-1.77,2.238-2.12C92.763,87.409,92.376,85.958,91.476,86.314L91.476,86.314
			z"/>
	</g>
	<g>
		<path fill="#FFFFFF" stroke="#B3B3B3" stroke-width="2" stroke-miterlimit="10" d="M36.201,12.839
			c1.846,3.77,2.607,8.674,2.177,14.699c-0.068,0.544-0.152,1.197-0.25,1.958c-0.34,2.72-0.379,5.202-0.017,7.568
			c0.5,3.049,1.584,5.837,3.269,8.261c-1.021,0.203-2.688,0.71-4.526,2.136c-1.715,1.331-2.609,2.712-3.011,3.709
			c-2.476-3.574-4.078-7.533-4.725-12.036c-0.498-3.049-0.474-6.305-0.094-9.739c0.128-0.592,0.196-1.136,0.24-1.462
			c0.248-3.727,0.027-6.793-0.832-9.169c-0.799-2.422-2.267-3.933-4.136-4.447c-1.544-0.471-3.4-0.208-5.326,0.599
			c-0.939,0.435-1.892,0.976-2.75,1.642c-0.919,0.712-1.743,1.549-2.351,2.412c-1.184,1.506-1.887,3.132-1.984,4.778
			c-0.14,1.971,0.438,3.979,1.849,5.926L6.199,35.52c-2.396-3.343-3.588-7.03-3.447-10.771c0.128-3.631,1.464-7.219,3.91-10.393
			c1.262-1.664,2.724-3.192,4.381-4.476c5.146-3.992,11.479-5.568,16.712-4.133C31.387,6.758,34.39,9.239,36.201,12.839z
			 M46.98,52.168c1.759,2.268,1.346,5.532-0.921,7.291c-2.267,1.759-5.53,1.345-7.29-0.923c-1.757-2.267-1.346-5.529,0.921-7.289
			C41.958,49.489,45.223,49.902,46.98,52.168z"/>
	</g>
</g>
<g id="_x31_3_x3000_住居エリア情報_area">
</g>
<g id="_x31_4_x3000_物件タイプ情報_x3000_style">
</g>
<g id="_x31_5_x3000_内覧_x30FB_入居フロー_x3000_step">
</g>
<g id="_x31_6_x3000_よくある質問_x3000_help">
</g>
<g id="_x31_7_x3000_便利なリンク集_x3000_link">
</g>
<g id="_x31_8_x3000_不動産オーナー様へ_x3000_owner">
</g>
<g id="mouse-over" display="none">
</g>
</svg>
