<?xml version="1.0" encoding="utf-8"?>
<!-- Generator: Adobe Illustrator 16.0.0, SVG Export Plug-In . SVG Version: 6.00 Build 0)  -->
<!DOCTYPE svg PUBLIC "-//W3C//DTD SVG 1.1//EN" "http://www.w3.org/Graphics/SVG/1.1/DTD/svg11.dtd">
<svg version="1.1" xmlns="http://www.w3.org/2000/svg" xmlns:xlink="http://www.w3.org/1999/xlink" x="0px" y="0px" width="198px"
	 height="73.223px" viewBox="0 0 198 73.223" enable-background="new 0 0 198 73.223" xml:space="preserve">
<g id="_x31_0_x3000_特集一覧_x3000_category">
</g>
<g id="_x31_1_x3000_特集個別_x3000_">
</g>
<g id="_x31_2_x3000_サポート_x3000_suport">
	<polyline fill="none" stroke="#CCCCCC" stroke-width="2" stroke-miterlimit="10" points="0,72.223 26,72.223 26,25.521 
		45.184,10.479 65,25.521 65,72.223 74,72.223 74,17.521 96.997,1.226 120,17.521 120,72.223 130,72.223 130,23.521 136.863,16.223 
		157.659,16.223 165,23.521 165,72.223 198,72.223 	"/>
	<line stroke="#CCCCCC" stroke-width="2" stroke-miterlimit="10" x1="75" y1="38.223" x2="120" y2="38.223"/>
	<line stroke="#CCCCCC" stroke-width="2" stroke-miterlimit="10" x1="75" y1="56.223" x2="121" y2="56.223"/>
	<polyline fill="none" stroke="#CCCCCC" stroke-width="2" stroke-miterlimit="10" points="80,55.223 80,60.223 84,60.223 84,63.6 
		89,63.564 89,68.317 93,68.334 93,72.223 	"/>
	<polyline fill="none" stroke="#CCCCCC" stroke-width="2" stroke-miterlimit="10" points="93,37.223 93,42.223 89,42.223 89,45.809 
		84,45.774 84,50.527 80,50.542 80,55.223 	"/>
</g>
<g id="_x31_3_x3000_住居エリア情報_area">
</g>
<g id="_x31_4_x3000_物件タイプ情報_x3000_style">
</g>
<g id="_x31_5_x3000_内覧_x30FB_入居フロー_x3000_step">
</g>
<g id="_x31_6_x3000_よくある質問_x3000_help">
</g>
<g id="_x31_7_x3000_便利なリンク集_x3000_link">
</g>
<g id="_x31_8_x3000_不動産オーナー様へ_x3000_owner">
</g>
<g id="mouse-over" display="none">
</g>
</svg>
