<?xml version="1.0" encoding="utf-8"?>
<!-- Generator: Adobe Illustrator 16.0.0, SVG Export Plug-In . SVG Version: 6.00 Build 0)  -->
<!DOCTYPE svg PUBLIC "-//W3C//DTD SVG 1.1//EN" "http://www.w3.org/Graphics/SVG/1.1/DTD/svg11.dtd">
<svg version="1.1" xmlns="http://www.w3.org/2000/svg" xmlns:xlink="http://www.w3.org/1999/xlink" x="0px" y="0px"
	 width="243.051px" height="71.06px" viewBox="0 0 243.051 71.06" enable-background="new 0 0 243.051 71.06" xml:space="preserve">
<g id="_x31_0_x3000_特集一覧_x3000_category">
</g>
<g id="_x31_1_x3000_特集個別_x3000_">
</g>
<g id="_x31_2_x3000_サポート_x3000_suport">
	<g>
		<path fill="#B3B3B3" d="M104.209,29.343c1.336,0.668-2.443,2.446-3.558,2.668c-3.78,0.89-5.56-2.891-9.117-3.557
			c-8.895-1.78-10.006,8.229-18.235,7.561c6.226-1.112,1.334-6.671,3.113-10.452c2.001-4.002,8.672-5.782,11.563-1.779
			c-1.112-4.67,7.561-6.449,10.23-3.559c3.56,3.781-1.779,8.895,6.003,8.895c-0.222,0.444-0.443,0.667-0.667,1.112"/>
		<g>
			<path fill="#B3B3B3" d="M103.997,29.555c1.226,1.506-5.861,2.108-5.531,2.154c-1.24-0.17-2.652-1.389-3.675-2.098
				c-1.74-1.204-3.515-1.607-5.599-1.665c-3.353-0.091-5.987,2.526-8.274,4.6c-1.858,1.686-4.572,2.966-6.292,3.424
				c0.836-0.223,1.894-1.083,2.069-1.985c0.248-1.274,0.106-2.434-0.099-3.706c-1.008-6.248,6.176-11.812,11.167-6.284
				c0.166,0.184,0.54,0.05,0.512-0.212c-0.463-4.289,4.701-4.977,7.655-4.458c3.927,0.689,3.181,4.747,3.469,7.483
				c0.138,1.307,3.842,3.339,3.883,3.271c-0.2,0.333,0.319,0.634,0.518,0.303c0.223-0.371,0.445-0.741,0.667-1.112
				c0.122-0.204-0.037-0.44-0.259-0.451c-7.265-0.374-1.889-8.032-7.274-9.796c-3.206-1.05-7.616-0.454-9.179,2.898
				c-0.789,1.693-0.304,0.056-2.446-0.402c-2.114-0.452-3.838-0.183-5.805,0.653c-1.805,0.767-3.082,2.407-3.683,4.21
				c-1.059,3.177,3.048,7.834-2.604,9.341c-0.332,0.088-0.256,0.582,0.08,0.589c7.528,0.168,10.387-8.696,18.155-7.571
				c3.609,0.522,5.286,4.009,9.197,3.568c1.379-0.155,3.483-1.182,4.099-2.47c0.063-0.133,0.045-0.25-0.047-0.364
				c-0.094-0.115-0.188-0.231-0.282-0.346C104.177,28.831,103.755,29.258,103.997,29.555L103.997,29.555z"/>
		</g>
	</g>
	<g>
		<g>
			<path fill="#B3B3B3" d="M78.378,32.608c2.73,4.638,3.74,9.961,5.305,15.05c0.05,0.164,0.205,0.244,0.369,0.209
				c4.1-0.846,8.213-1.529,12.375-1.991c0.38-0.042,0.384-0.643,0-0.6c-2.11,0.234-4.209,0.515-6.307,0.844
				c-2.19,0.343-5.684,2.04-6.504-0.779c-1.3-4.465-2.338-8.993-4.72-13.037C78.7,31.973,78.181,32.274,78.378,32.608L78.378,32.608
				z"/>
		</g>
	</g>
	<g>
		<g>
			<path fill="#B3B3B3" d="M96.805,31.202c0.615,2.182,0.491,4.692,0.475,6.936c-0.014,1.91,0.343,6.067-1.287,7.45
				c-0.296,0.25,0.131,0.673,0.424,0.424c1.542-1.308,1.349-4.775,1.43-6.563c0.122-2.688,0.277-5.782-0.463-8.406
				C97.278,30.67,96.699,30.829,96.805,31.202L96.805,31.202z"/>
		</g>
	</g>
	<g>
		<g>
			<path fill="#B3B3B3" d="M89.91,35.872c0.361,1.485,0.644,2.991,1.112,4.448c0.069-0.123,0.14-0.246,0.209-0.369
				c-0.832,0.277-1.706,0.61-2.589,0.657c0.1,0.1,0.2,0.2,0.3,0.3c-0.024-0.749-0.189-1.478-0.222-2.225
				c-0.017-0.385-0.616-0.387-0.6,0c0.032,0.747,0.196,1.477,0.222,2.225c0.005,0.157,0.132,0.309,0.3,0.3
				c0.944-0.05,1.859-0.382,2.749-0.679c0.149-0.05,0.261-0.207,0.209-0.369c-0.469-1.458-0.75-2.963-1.112-4.448
				C90.397,35.336,89.818,35.496,89.91,35.872L89.91,35.872z"/>
		</g>
	</g>
	<g>
		<g>
			<path fill="#B3B3B3" d="M97.992,35.415c0.57-0.236,1.208-0.208,1.779-0.445c-0.123-0.07-0.246-0.14-0.369-0.209
				c0.223,1.22,0.21,2.465,0.211,3.7c0.1-0.1,0.2-0.2,0.3-0.3c-0.65,0.027-1.276,0.18-1.921,0.011
				c-0.375-0.099-0.534,0.48-0.16,0.578c0.703,0.185,1.372,0.04,2.081,0.011c0.163-0.006,0.3-0.131,0.3-0.3
				c0-1.291,0.001-2.585-0.232-3.859c-0.026-0.147-0.227-0.269-0.369-0.209c-0.57,0.236-1.208,0.208-1.779,0.445
				C97.48,34.982,97.634,35.563,97.992,35.415L97.992,35.415z"/>
		</g>
	</g>
	<g>
		<g>
			<path fill="#B3B3B3" d="M84.563,36.237c0-0.012,0.025-0.046,0.008-0.02c0.086-0.05,0.172-0.099,0.259-0.149
				c-0.001,0-0.002,0-0.003,0c0.097,0.126,0.193,0.253,0.29,0.38c-0.03,0.1,0.026-0.026,0.038-0.043
				c0.102-0.147,0.242-0.274,0.366-0.401c-0.17-0.07-0.341-0.141-0.512-0.212c-0.001,0.041-0.003,0.081-0.005,0.122
				c-0.003,0.06-0.01,0.119-0.021,0.178c-0.065,0.14,0.013,0.173,0.233,0.099c-0.142-0.071-0.284-0.142-0.425-0.212
				c0.036,0.137,0.072,0.273,0.107,0.41c0.176-0.167,0.167-0.362-0.026-0.585c-0.24,0.298,0.182,0.726,0.424,0.424
				c0.158-0.196,0.236-0.541-0.087-0.635c-0.361-0.106-0.661,0.218-0.828,0.494c-0.081,0.133-0.037,0.338,0.107,0.41
				c0.231,0.116,0.54,0.361,0.803,0.207c0.29-0.17,0.314-0.614,0.317-0.911c0.003-0.261-0.329-0.398-0.512-0.212
				c-0.191,0.194-0.476,0.434-0.559,0.708c-0.059,0.195,0.1,0.37,0.289,0.38c0.242,0.013,0.324-0.241,0.336-0.432
				C85.188,35.85,84.588,35.853,84.563,36.237L84.563,36.237z"/>
		</g>
	</g>
	<g>
		<g>
			<path fill="#B3B3B3" d="M92.867,34.381c-0.154,0-0.345-0.094-0.205,0.094c0,0.101,0,0.202,0,0.303
				c-0.006,0.009-0.029,0.002-0.047,0.117c-0.008,0.051-0.021,0.102-0.037,0.151c0.192,0,0.386,0,0.578,0
				c-0.013-0.057-0.242-0.45-0.251-0.437c0.191-0.291-0.232-0.598-0.471-0.363c-0.177,0.128-0.079,0.209,0.292,0.244
				c-0.003-0.084-0.005-0.169-0.004-0.253c-0.15,0.086-0.301,0.173-0.451,0.259c0.098,0.048,0.194,0.1,0.288,0.155
				c0.153,0.142,0.218,0.049,0.194-0.278c-0.109,0.014-0.221,0.008-0.331,0.009c-0.387,0-0.387,0.601,0,0.6
				c0.246,0,0.622,0.035,0.769-0.216c0.228-0.39-0.369-0.659-0.618-0.788c-0.198-0.103-0.452,0.022-0.451,0.259
				c0,0.202-0.031,0.499,0.176,0.62c0.221,0.129,0.409-0.039,0.559-0.187c-0.157-0.121-0.314-0.242-0.471-0.363
				c-0.265,0.403,0.11,0.542,0.19,0.898c0.067,0.304,0.493,0.27,0.578,0c0.084-0.265,0.103-0.561-0.039-0.808
				c-0.225-0.394-0.763-0.229-0.973,0.078c-0.055,0.08-0.059,0.224,0,0.303c0.176,0.236,0.452,0.202,0.723,0.203
				C93.254,34.982,93.254,34.382,92.867,34.381L92.867,34.381z"/>
		</g>
	</g>
	<g>
		<path fill="#B3B3B3" d="M127.95,21.708c-2.038-5.617-8.817-4.947-12.571-1.381c-2.737,2.325-3.197,9.215-7.972,5.923
			c2.771,7.255,18.206,4.132,19.208-1.9c-0.049,1.829,0.334,3.39-0.063,5.14c1.592,1.098,2.833,2.115,4.424,3.213
			c0.128-2.181,1.271-13.703-2.834-10.217"/>
		<g>
			<path fill="#B3B3B3" d="M128.209,21.557c-1.618-3.594-4.658-4.75-8.435-3.994c-2.003,0.4-3.761,1.692-5.162,3.115
				c-1.813,1.841-2.645,7.864-7.054,5.314c-0.277-0.161-0.532,0.149-0.41,0.41c1.85,3.967,6.609,4.861,10.605,4.17
				c2.313-0.399,4.847-1.083,6.708-2.606c0.809-0.662,1.441-1.334,1.986-2.219c0.101-0.227,0.199-0.454,0.295-0.683
				c-0.379,1.492-0.324,2.865-0.491,4.426c-0.012,0.109,0.067,0.202,0.148,0.259c1.485,1.057,2.939,2.156,4.424,3.214
				c0.199,0.142,0.438-0.053,0.451-0.259c0.123-1.86,1.438-13.858-3.285-10.476c-0.312,0.224-0.013,0.744,0.303,0.519
				c3.127-2.24,2.586,6.667,2.531,7.723c-0.067,1.302,0.404,2.047-0.836,1.165c-2.83-2.017-2.977-3.926-3.073-7.284
				c-0.009-0.333-0.504-0.415-0.589-0.08c-1.096,4.31-6.681,5.646-10.511,5.877c-1.99,0.12-3.951-0.307-5.715-1.22
				c0.308,0.16-3.221-2.636-1.885-1.863c0.296,0.171,0.649,0.303,0.993,0.316c2.202,0.084,3.107-1.565,4.068-3.336
				c2.829-5.216,10.999-9.772,14.415-2.185C127.85,22.212,128.367,21.907,128.209,21.557L128.209,21.557z"/>
		</g>
	</g>
	<g>
		<g>
			<path fill="#B3B3B3" d="M130.082,31.58c0.094,0.831,0.301,2.208,0.359,2.872c0.012,0.132,0.083,0.255,0.22,0.289
				c2.465,0.293,2.278,1.537-0.559,3.731c-0.188-0.032-0.382,0.079-0.38,0.289c0.027,3.367,0.412,5.755-2.938,7.58
				c-2.918,1.589-7.332,1.547-10.566,1.319c-9.587-0.676-6.63-12.609-2.5-17.305c0.255-0.289-0.168-0.715-0.424-0.424
				c-2.975,3.381-5.63,9.112-3.608,13.613c2.59,5.765,9.19,5.063,14.427,4.209c2.144-0.349,4.281-1.193,5.625-2.975
				c1.264-1.675-0.559-5.554,1.906-5.581c1.386-0.015,2.251-1.137,2.278-2.41c0.014-0.653-0.479-1.196-0.879-1.639
				c-1.423-1.572-2.068-0.965-2.363-3.57C130.639,31.2,130.038,31.195,130.082,31.58L130.082,31.58z"/>
		</g>
	</g>
	<g>
		<g>
			<path fill="#B3B3B3" d="M120.835,38.972c0.09,0.091,0.186,0.179,0.259,0.285c0.034,0.075,0.045,0.036,0.036-0.117
				c-0.135,0.047-0.3,0.036-0.441,0.039c0.051,0.186,0.101,0.373,0.151,0.559c0.297-0.191,0.938-0.384,0.419-0.83
				c-0.292-0.251-0.718,0.171-0.424,0.424c0.255,0.219,0.718,0.31,0.86-0.087c0.072-0.2-0.123-0.394-0.313-0.399
				c-0.302-0.007-0.607,0.221-0.846,0.375c-0.243,0.156-0.159,0.565,0.151,0.559c0.28-0.005,0.936,0.001,1-0.401
				c0.057-0.356-0.196-0.594-0.43-0.828C120.985,38.274,120.561,38.699,120.835,38.972L120.835,38.972z"/>
		</g>
	</g>
	<g>
		<g>
			<path fill="#B3B3B3" d="M114.014,38.613c0.09,0.091,0.186,0.18,0.259,0.285c0.033,0.075,0.045,0.035,0.034-0.118
				c-0.136,0.047-0.301,0.036-0.441,0.039c0.051,0.186,0.101,0.373,0.151,0.559c0.296-0.19,0.94-0.385,0.421-0.829
				c-0.292-0.25-0.718,0.172-0.424,0.424c0.253,0.217,0.72,0.31,0.859-0.088c0.071-0.201-0.122-0.394-0.313-0.398
				c-0.302-0.008-0.608,0.22-0.847,0.374c-0.243,0.156-0.158,0.565,0.151,0.559c0.281-0.005,0.936,0.001,1.001-0.401
				c0.058-0.356-0.195-0.595-0.429-0.829C114.164,37.915,113.74,38.339,114.014,38.613L114.014,38.613z"/>
		</g>
	</g>
	<g>
		<path fill="#B3B3B3" d="M120.732,34.545c1.841,0.596,3.999,1.926,5.428,3.58l0.688-0.828c-1.061-3.217-4.509-4.685-7.128-2.661"/>
		<g>
			<path fill="#B3B3B3" d="M120.652,34.834c2.037,0.706,3.85,1.905,5.296,3.503c0.103,0.113,0.323,0.122,0.424,0
				c0.173-0.208,0.887-0.786,0.765-1.119c-0.42-1.145-1.039-2.086-2-2.845c-1.67-1.319-3.891-1.188-5.568,0.005
				c-0.313,0.223-0.013,0.743,0.303,0.519c1.452-1.033,3.064-1.141,4.612-0.249c0.811,0.467,1.379,1.255,1.807,2.064
				c0.344,0.652,0.115,0.651-0.342,1.202c0.141,0,0.283,0,0.424,0c-1.515-1.675-3.427-2.918-5.56-3.657
				C120.445,34.128,120.289,34.708,120.652,34.834L120.652,34.834z"/>
		</g>
	</g>
	<g>
		<path fill="#B3B3B3" d="M114.348,33.467c-1.839,0.596-4.001,1.927-5.429,3.582l-0.688-0.829c1.06-3.216,4.511-4.685,7.128-2.66"/>
		<g>
			<path fill="#B3B3B3" d="M114.268,33.178c-2.132,0.739-4.046,1.982-5.561,3.659c0.141,0,0.283,0,0.424,0
				c-0.212-0.256-0.425-0.512-0.637-0.768c-0.183-0.22,1.405-1.957,1.595-2.13c1.479-1.35,3.566-1.224,5.118-0.12
				c0.316,0.225,0.615-0.295,0.303-0.518c-1.676-1.194-3.897-1.325-5.567-0.006c-0.818,0.646-1.5,1.478-1.863,2.468
				c-0.266,0.725,0.153,0.927,0.627,1.498c0.101,0.122,0.321,0.113,0.424,0c1.445-1.599,3.26-2.798,5.297-3.504
				C114.791,33.63,114.635,33.05,114.268,33.178L114.268,33.178z"/>
		</g>
	</g>
	<g>
		<path fill="#B3B3B3" d="M189.096,59.649c0-4.453-0.01-8.909-0.243-13.355c-0.213-4.06-0.414-8.124-0.393-12.191
			c0.021-3.423,0.43-6.994-0.655-10.308c-0.051-0.154-0.154-0.246-0.271-0.292c-0.343-2.021-1.675-3.807-2.522-5.634
			c-1.079-2.319-0.874-4.932-2.855-6.82c-0.15-0.145-0.326-0.504-0.478-0.449c-0.077-0.114-0.206-0.54-0.391-0.54h-6.997
			c-2.161,0-4.343-0.086-6.496,0.105c-0.433,0.039-0.56,0.691-0.373,0.955c-1.239,2.436-2.144,5.121-3.155,7.669
			c-0.074-0.063-0.172-0.062-0.297-0.063c-3.003-0.026-6.004-0.166-9.006-0.194c-1.526-0.014-3.414-0.242-4.745,0.662
			c-0.173-0.033-0.36,0.031-0.472,0.232c-0.679,1.22-1.259,2.489-1.771,3.785c-0.185,0.048-0.331,0.196-0.313,0.445
			c0.007,0.099,0.022,0.193,0.043,0.283c-0.731,1.967-1.317,3.991-1.833,6.019c-0.033,0.135-0.012,0.253,0.046,0.346
			c-0.156,0.064-0.274,0.203-0.274,0.419c-0.011,13.259-0.621,26.509-0.637,39.767c-0.279,0.209-0.301,0.736,0.14,0.854
			c2.52,0.676,5.189,0.455,7.773,0.442c3.513-0.018,7.014-0.604,10.536-0.636c8.301,0.021,16.597,0.411,24.898,0.423
			c0.026,0.561,0.924,0.542,0.953-0.053C189.505,67.561,189.096,63.606,189.096,59.649z M186.496,23.16
			c-0.272-0.031-0.546-0.056-0.818-0.083c-0.04-0.066-0.092-0.121-0.165-0.152c-0.271-0.119-0.389-0.274-0.476-0.543
			c-0.044-0.138-0.085-0.273-0.137-0.403c0.335-0.125,0.65-0.314,0.908-0.572C186.097,21.975,186.345,22.557,186.496,23.16z
			 M185.355,20.559c-0.065,0.033-0.118,0.08-0.169,0.147c-0.442,0.574-2.107,0.859-2.018-0.095c0.002-0.008-0.056-0.015-0.055-0.022
			c0.005-0.048-0.032-0.098-0.032-0.153v-0.001c0.598-0.308,1.031-0.987,1.271-1.61C184.645,19.407,185.032,19.981,185.355,20.559z
			 M169.747,22.459c-0.063-0.136-0.092-0.288-0.127-0.433c-0.012-0.051-0.031-0.099-0.047-0.148
			c0.427-0.041,0.825-0.149,1.123-0.331c0.183,0.581,0.448,1.034,1.118,1.196c0.124,0.029,0.186,0.045,0.186,0.052v0.01
			c0,0.024-1.543,0.05-2.407,0.076C169.644,22.75,169.812,22.598,169.747,22.459z M168.586,20.954
			c0.469-0.157,0.881-0.418,1.159-0.797c0.129,0.152,0.28,0.281,0.449,0.388c0.002,0.003,0.002,0.004,0.002,0.007
			c0.077,0.135,0.101,0.127-0.052,0.227c-0.218,0.144-0.51,0.183-0.764,0.206C169.161,21.002,168.865,21.003,168.586,20.954z
			 M168.907,22.907c-0.974,0.028-1.948,0.054-2.922,0.074c0.053-0.105,0.105-0.21,0.163-0.314c0.035-0.063,0.072-0.125,0.113-0.186
			c0.016-0.021,0.021-0.031,0.023-0.035c0.014-0.016,0.027-0.031,0.042-0.046c0.056-0.058,0.092-0.127,0.113-0.2
			c0.369-0.207,0.715-0.47,1.01-0.754c0.304,0.198,0.694,0.327,1.107,0.394c0.01,0.048,0.024,0.097,0.046,0.144
			c0.063,0.136,0.093,0.288,0.129,0.433C168.774,22.588,168.839,22.748,168.907,22.907z M174.292,16.134
			c0.007,0.017,0.012,0.036,0.018,0.054c-0.159,0.627-0.396,1.255-0.848,1.708c-0.854,0.856-1.717-0.837-1.74-1.612
			c0.748-0.269,1.102-0.928,1.423-1.617c0.263,0.513,0.631,0.954,1.133,1.195C174.257,15.941,174.257,16.032,174.292,16.134z
			 M179.554,16.286c0.432-0.234,0.778-0.616,1.021-1.068c0.351,0.356,0.826,0.596,1.315,0.66
			C181.601,17.201,179.786,18.031,179.554,16.286z M182.089,17.507c0.046,0.173,0.104,0.346,0.182,0.513
			c0.224,0.488,0.632,0.736,1.093,0.828c-0.254,0.531-0.637,0.93-1.313,0.681c-0.442-0.162-0.553-0.706-0.65-1.197
			c0.019-0.083,0.034-0.167,0.047-0.254c0.003-0.024,0-0.047,0-0.07C181.69,17.876,181.905,17.707,182.089,17.507z M180.423,18.293
			c0.002,0.003,0.003,0.007,0.003,0.01c-0.454,1.08-3.052,2.061-3.267,0.918c0.743-0.286,1.447-0.963,1.854-1.708
			C179.322,17.988,179.792,18.308,180.423,18.293z M176.337,18.408c-0.713,0.047-0.886-1.457-1.045-2.223
			c0.013-0.054,0.025-0.108,0.037-0.161c0.497-0.099,0.879-0.47,1.162-0.934c0.267,0.703,0.706,1.247,1.704,1.415
			c0.066,0.011,0.13,0.019,0.193,0.024C178.199,17.419,177.179,18.352,176.337,18.408z M175.852,19.258
			c-0.347,0.574-0.843,1.03-1.493,1.237c-0.055,0.008-0.107,0.022-0.157,0.045c-0.013,0.002-0.026,0.008-0.039,0.011
			c-0.82,0.188-1.103-0.465-1.16-1.126c0.043-0.126,0.077-0.256,0.104-0.387c0.06-0.005,0.119-0.007,0.182-0.021
			c0.668-0.143,1.121-0.628,1.44-1.223C174.922,18.45,175.217,19.027,175.852,19.258z M172.062,18.772
			c-0.009,0.032-0.015,0.067-0.017,0.104c-0.012,0.146-0.015,0.293-0.01,0.44c-0.14,0.303-0.38,0.538-0.761,0.573
			c-0.582,0.055-0.953-0.395-1.091-0.901c0.516-0.126,0.875-0.498,1.115-0.975C171.505,18.322,171.767,18.585,172.062,18.772z
			 M169.669,18.073c-0.688-0.14-0.662-1.565-0.654-2.223c0.253-0.15,0.47-0.359,0.658-0.604c0.249,0.474,0.624,0.888,1.084,1.059
			C170.711,17.031,170.496,18.24,169.669,18.073z M172.25,21.821c-0.549-0.094-0.717-0.521-0.7-1
			c0.285-0.05,0.536-0.166,0.747-0.336c0.224,0.47,0.6,0.828,1.154,0.973C173.126,21.743,172.688,21.895,172.25,21.821z M173,22.632
			c0-0.172,0.958-0.462,1.251-0.821c0.388,0.415,1.01,0.605,1.597,0.627c0.02,0.036,0.083,0.07,0.108,0.103
			c0,0.001,0.021,0.003,0.021,0.005c-0.04-0.039,0.007,0.024,0.011,0.013c0.006,0.031,0.021,0.069,0.024,0.079
			c0.004,0.032-0.153,0.063-0.152,0.095c-0.899,0.011-1.86,0.026-2.86,0.049V22.632z M175.142,21.233
			c0.533-0.275,0.998-0.71,1.348-1.202c0.347,0.431,0.949,0.603,1.571,0.611C177.378,21.28,175.824,21.919,175.142,21.233z
			 M178.85,21.2c0.374,0.497,0.76,0.911,1.474,0.991c-0.013,0.191-0.037,0.381-0.095,0.561c-1.083-0.026-2.165-0.035-3.25-0.028
			c-0.006-0.134-0.021-0.268-0.056-0.392C177.68,22.143,178.4,21.731,178.85,21.2z M179.434,20.396
			c0.507-0.194,0.977-0.498,1.338-0.893c0.017,0.048,0.03,0.098,0.052,0.144c0.228,0.514,0.781,0.776,1.295,0.905
			c-0.253,0.361-0.597,0.575-1.016,0.663c-0.182-0.131-0.465-0.119-0.629,0.034C179.95,21.188,179.715,20.794,179.434,20.396z
			 M181.276,22.151c0.475-0.095,0.91-0.306,1.263-0.63c0.308,0.409,0.817,0.612,1.369,0.627c0.021,0.032,0.042,0.063,0.07,0.093
			c-0.054-0.058,0.004,0.018,0.022,0.044c-0.003,0.004,0.044,0.117,0.053,0.136c0.043,0.147,0.084,0.294,0.142,0.437
			c0.015,0.033,0.032,0.061,0.046,0.092c-1.011-0.077-2.024-0.133-3.039-0.168C181.242,22.575,181.266,22.364,181.276,22.151z
			 M183.965,17.831c0.014,0.036,0.028,0.071,0.042,0.107c-1.212,0.166-1.129-1.338-1.126-2.193c0.148-0.067,0.293-0.153,0.426-0.27
			C183.5,16.263,183.68,17.063,183.965,17.831z M181.869,12.147c0.566,0.682,0.896,1.459,1.15,2.276
			c-0.057,0.026-0.11,0.069-0.158,0.13c-0.574,0.732-1.715,0.311-1.873-0.511C181.532,13.641,181.773,12.868,181.869,12.147z
			 M179.198,11.72c0.016-0.045,0.024-0.239,0.026-0.239h1.736c-0.027,1.193-0.14,1.585-0.713,1.765
			c-0.524,0.166-0.957-0.614-1.199-1.182C179.106,11.95,179.155,11.834,179.198,11.72z M179.932,14.304
			c-0.229,0.859-0.928,1.453-1.919,1.184c-0.681-0.186-0.821-1.021-0.935-1.727c0.517-0.066,0.98-0.338,1.351-0.713
			C178.777,13.664,179.269,14.209,179.932,14.304z M177.949,11.481c-0.027,0-0.029,0.29,0.009,0.397
			c0.013,0.035,0.026,0.127,0.038,0.164c-0.258,0.355-0.627,0.644-1.076,0.742c-0.085,0.019-0.163,0.038-0.235,0.032
			c-0.005,0-0.01-0.104-0.014-0.105c-0.498-0.048-0.635-0.634-0.644-1.23H177.949z M175.283,12.948
			c0.168,0.294,0.639,0.533,0.639,0.678v0.001c0,0.654-0.41,1.467-1.097,1.463c-0.617-0.003-0.976-0.833-1.168-1.463
			C174.357,13.756,174.895,13.441,175.283,12.948z M174.29,11.06h0.703c-0.231,3-0.605,1.482-1.354,1.234
			c-0.467-0.155-0.847-0.717-1.137-1.151C173.1,11.187,173.696,11.06,174.29,11.06z M172.028,12.562
			c0.201,0.231,0.43,0.434,0.677,0.608c-0.021,0.072-0.027,0.153-0.009,0.243c-0.289,0.55-0.473,1.16-0.857,1.653
			c-0.687,0.877-1.497-0.204-1.547-0.958C171.263,14.116,171.732,13.377,172.028,12.562z M171.35,11.538
			c0,0.003,0.003,0.004,0.003,0.005c-0.143,0.613-0.301,1.396-0.919,1.587c-1.009,0.313-1.57-0.918-1.854-1.703
			C169.501,11.402,170.425,11.464,171.35,11.538z M167.944,12.368c0.321,0.674,0.759,1.249,1.417,1.541
			c-0.005,0.017-0.01,0.035-0.014,0.053c-0.221,0.447-0.478,0.99-0.974,1.144c-0.622,0.192-1.228-0.261-1.127-0.884
			c0.015-0.094,0.003-0.177-0.025-0.254C167.453,13.431,167.688,12.894,167.944,12.368z M166.629,15.404
			c0.276,0.338,0.715,0.553,1.279,0.642c-0.411,1.056-1.057,1.833-2.26,1.876C165.972,17.082,166.294,16.239,166.629,15.404z
			 M168.213,17.485c0.145,0.627,0.426,1.184,0.962,1.425c-0.009,1.822-3.482,1.626-3.657-0.034
			C166.745,18.897,167.612,18.344,168.213,17.485z M164.874,19.891c0.354,0.558,0.968,0.928,1.653,1.107
			c-0.68,0.575-1.587,1.007-2.238,0.282C164.489,20.82,164.687,20.357,164.874,19.891z M165.1,22.612
			c0,0.002-0.002,0.005-0.002,0.006c-0.062,0.122-0.073,0.258-0.04,0.38c-0.524,0.009-1.051,0.014-1.577,0.018
			c0.134-0.268,0.265-0.538,0.39-0.809C164.246,22.513,164.667,22.627,165.1,22.612z M160.777,21.31
			c0.313,0.758,0.943,1.307,1.866,1.248c-0.118,0.236-0.238,0.471-0.363,0.705c-0.101,0.189-0.065,0.368,0.036,0.502
			c-0.021,0.121-0.033,0.241-0.05,0.362c-0.067-0.012-0.146-0.006-0.229,0.025c-0.71,0.266-1.464,0.412-1.969-0.275
			c-0.336-0.459-0.509-1.037-0.658-1.598C159.985,22.187,160.446,21.803,160.777,21.31z M152.897,29.217
			c-0.008,0.006-0.017,0.012-0.025,0.018c-0.064,0.044-0.129,0.084-0.195,0.125c-0.13,0.08-0.262-0.144-0.388-0.057
			c-0.027,0.021-0.053-0.243-0.079-0.243c-0.04,0-0.077,0-0.113,0c-0.683,0-1.014-0.897-1.257-1.648
			c0.848,0.031,1.621-0.276,2.218-0.897c0.163,0.416,0.493,0.815,0.983,0.976c0.006,0.028,0.015,0.094,0.027,0.123
			C153.817,28.219,153.361,28.75,152.897,29.217z M150.409,26.685c-0.07-0.101-0.181-0.168-0.316-0.17
			c-0.391-0.306-0.572-0.866-0.643-1.402c0.123-0.014,0.248-0.039,0.378-0.076c0.784-0.229,1.29-1.063,1.784-1.784
			c0.175,0.856,0.56,1.678,1.317,2.007c-0.466,0.792-1.161,1.492-2.135,1.487C150.652,26.747,150.524,26.723,150.409,26.685z
			 M150.765,29.722c-0.351,0.025-0.704,0.052-1.056,0.083c0.22-0.305,0.417-0.622,0.559-0.951
			C150.407,29.163,150.569,29.458,150.765,29.722z M154.513,28.808c0.088,0.367,0.16,0.735,0.289,1.08
			c-0.089-0.017-0.178-0.035-0.268-0.05c-0.263-0.048-0.53-0.082-0.802-0.108C154.014,29.438,154.282,29.135,154.513,28.808z
			 M154.781,26.724c-0.784,0.046-1.108-0.546-0.81-1.232c0.018-0.042,0.027-0.081,0.035-0.122c0.77-0.159,1.199-0.862,1.503-1.644
			c0.156,0.585,0.432,1.111,0.892,1.416C156.204,25.953,155.685,26.67,154.781,26.724z M156.631,26.77
			c0.23,0.508,0.648,0.888,1.299,0.999c0.206,0.876-0.737,1.918-1.309,2.507c-0.172-0.034-0.34-0.067-0.508-0.104
			c-0.024-0.027-0.052-0.052-0.083-0.075c-0.43-0.322-0.502-0.926-0.6-1.416c-0.072-0.359-0.162-0.706-0.301-1.038
			C155.729,27.542,156.244,27.22,156.631,26.77z M157.364,25.405c0.777-0.054,1.244-0.892,1.501-1.783
			c0.157,0.369,0.351,0.722,0.612,1.039c0.138,0.167,0.296,0.297,0.465,0.398c-0.272,0.612-0.665,1.202-1.204,1.586
			C157.772,27.333,157.267,26.224,157.364,25.405z M158.474,29.453c0.159,0.36,0.378,0.687,0.657,0.96
			c-0.451,0.069-0.91,0.072-1.372,0.032C158.014,30.145,158.269,29.808,158.474,29.453z M159.131,27.557
			c0.339-0.189,0.643-0.471,0.907-0.804c0.024,0.214,0.06,0.427,0.121,0.637c0.244,0.846,0.938,1.252,1.748,1.343
			c-0.263,0.576-0.691,1.271-1.337,1.296c-0.093,0.003-0.167,0.03-0.231,0.068c-0.004,0-0.004-0.001-0.004-0.002
			C159.369,29.637,159.037,28.562,159.131,27.557z M160.912,25.322c0.422,0.015,0.859-0.069,1.265-0.208
			c-0.044,0.896,0.012,1.796,0.081,2.698c-0.029-0.007-0.061-0.011-0.094-0.013C160.798,27.757,160.943,26.388,160.912,25.322z
			 M160.423,19.568c-0.105,0.744-0.432,1.592-1.244,1.773c-0.868,0.195-0.882-1.172-0.84-1.67c0.009-0.08-0.003-0.147-0.026-0.206
			C159.019,19.487,159.722,19.526,160.423,19.568z M158.173,22.001c-0.02,0.43-0.11,0.851-0.229,1.264
			c-0.083,0.297-0.316,1.158-0.72,1.188c-0.79,0.06-0.927-1.387-0.951-2.127c0.609-0.143,1.009-0.594,1.299-1.139
			C157.7,21.517,157.896,21.801,158.173,22.001z M156.437,19.46c0.263-0.009,0.523-0.011,0.785-0.012
			c-0.204,0.644-0.375,1.467-0.968,1.858c-1.001,0.661-1.251-1.027-1.262-1.635c-0.001-0.103-0.031-0.187-0.076-0.256
			C155.48,19.444,156.011,19.473,156.437,19.46z M155.042,22.153c-0.25,0.838-0.464,2.036-1.291,2.282
			c-0.942,0.279-1.222-1.173-1.29-2.013c0.752-0.229,1.324-0.803,1.763-1.484C154.374,21.441,154.633,21.895,155.042,22.153z
			 M150.625,20.232c0.032-0.068,0.048-0.137,0.05-0.201c0.011-0.008,0.022-0.012,0.033-0.02c0.748-0.592,2.021-0.666,3.265-0.634
			c-0.011,0.018-0.021,0.033-0.03,0.054c-0.321,0.726-0.703,1.464-1.373,1.925C151.806,21.88,150.084,21.372,150.625,20.232z
			 M149.799,21.427c0.235,0.464,0.668,0.829,1.22,1c-0.267,0.351-0.515,0.718-0.787,1.062c-0.187,0.234-0.393,0.458-0.647,0.615
			c-0.076,0.047-0.155,0.078-0.236,0.092c-0.115-0.184-0.36-0.244-0.564-0.179c-0.021-0.021-0.043-0.042-0.06-0.066
			C149.05,23.097,149.403,22.252,149.799,21.427z M148.372,24.904c0.032,0.019,0.064,0.035,0.1,0.051
			c0.052,0.709,0.257,1.402,0.677,1.92c-0.489,0.216-1.002,0.392-1.49,0.22C147.881,26.359,148.115,25.628,148.372,24.904z
			 M147.393,27.997c0.77,0.226,1.425-0.006,2.135-0.283c0.063,0.752-0.449,1.381-0.93,1.979c-0.055,0.07-0.086,0.145-0.101,0.219
			c-0.557,0.046-1.11,0.087-1.652,0.107C147.018,29.343,147.202,28.669,147.393,27.997z M158.197,63.734
			c-0.093,2.229-0.019,4.475-0.019,6.706c-1.553,0.113-3.104,0.245-4.659,0.35c-0.728,0.049-1.481,0.093-2.242,0.12
			c0.037-4.478,0.543-8.94,0.434-13.419c1.948-0.524,4.042-0.238,6.03-0.001c0.004,0.042,0.014,0.085,0.03,0.132
			C158.521,59.554,158.277,61.708,158.197,63.734z M159.135,70.374c-0.001-2.352-0.062-4.712,0.033-7.062
			c0.08-1.979,0.258-4.06-0.473-5.945c-0.013-0.025-0.025-0.047-0.037-0.069c0.099-0.27-0.045-0.665-0.426-0.708
			c-2.192-0.248-4.497-0.607-6.667-0.051c-0.268-0.266-0.842-0.164-0.823,0.317c0.179,4.698-0.383,9.378-0.421,14.073
			c-1.479,0.013-2.967-0.07-4.358-0.375c0.013-13.193,0.617-26.379,0.634-39.573c2.868-0.061,5.843-0.604,8.673-0.035
			c1.058,0.212,2.096,0.424,3.178,0.465c1.343,0.052,2.635-0.545,3.969-0.63c-0.369,13.143,0.406,26.278,0.437,39.421
			C161.612,70.227,160.372,70.292,159.135,70.374z M162.674,21.602c-1.069,0.2-1.242-1.165-1.147-1.93
			c0.003-0.014,0-0.028,0.003-0.042c0.796,0.046,1.594,0.087,2.392,0.094c-0.271,0.662-0.557,1.318-0.858,1.966
			C162.962,21.613,162.83,21.573,162.674,21.602z M188.381,70.616c-8.192-0.011-16.38-0.391-24.573-0.421
			c-0.03-13.199-0.812-26.392-0.43-39.593c0.004-0.03,0.008-0.06,0.007-0.092c0-0.032-0.002-0.064-0.003-0.096
			c0.002-0.039,0.002-0.078,0.003-0.116c0.002-0.036-0.004-0.066-0.009-0.098c-0.073-2.068-0.496-4.178-0.128-6.226
			c3.13-0.01,6.258-0.134,9.385-0.217c0.14,0.059,0.308,0.055,0.441-0.011c2.381-0.061,4.764-0.094,7.141-0.037
			c0.161,0.109,0.383,0.138,0.554,0.017c1.963,0.059,3.924,0.18,5.883,0.409c0.015,0.253,0.189,0.402,0.386,0.446
			c0.895,3.211,0.483,6.677,0.464,9.965c-0.022,4.11,0.21,8.222,0.426,12.325c0.224,4.253,0.211,8.52,0.213,12.778
			C188.14,63.304,188.483,66.959,188.381,70.616z"/>
		<path fill="#B3B3B3" d="M183.979,29.32c-0.071-0.272-0.299-0.792-0.515-0.759c-0.072-0.045-0.157-0.5-0.265-0.5h-10.306
			c-1.986,0-4.399-0.385-6.177,0.828c-0.283-0.114-0.679,0.198-0.677,0.596c0.016,1.703,0.198,3.485,0.214,5.188
			c0,0.048,0.008,0.145,0.019,0.185c-0.028,0.304,0.209,0.665,0.586,0.549c5.51-1.674,11.287,1.481,16.786-0.412
			c0.119-0.041,0.202-0.107,0.255-0.192c0.254,0.02,0.521-0.133,0.521-0.471C184.421,32.738,184.409,30.954,183.979,29.32z
			 M167.199,34.35c-0.033-1.4-0.15-2.798-0.188-4.198c0.057-0.011,0.114-0.363,0.175-0.403c1.749-1.208,4.88-0.689,6.904-0.689
			h9.035c0.316,1,0.337,3.118,0.339,4.601c-0.024,0.005-0.049,0.213-0.074,0.222C178.11,35.7,172.542,33.051,167.199,34.35z"/>
		<path fill="#B3B3B3" d="M185,42.837c0-0.002,0-0.002,0-0.004c0-0.929,0.44-6.162-1.576-4.985c-0.076-0.1-0.18-0.167-0.346-0.167
			c-2.649,0.012-5.289,0.163-7.937,0.037c-2.604-0.125-5.09-0.436-7.69-0.021c-0.04,0.006-0.074,0.016-0.105,0.029
			c-0.321-0.122-0.772,0.127-0.652,0.56c0.561,1.992-0.451,4.15,0.474,6.064c0.157,0.325,0.505,0.292,0.713,0.098
			c0.076,0.084,0.19,0.139,0.339,0.138c2.713-0.018,5.414-0.254,8.118-0.471c2.817-0.226,5.615-0.144,8.426-0.378
			C185.267,43.694,185,43.038,185,42.837z M168.219,43.63c-0.116,0-0.212,0.037-0.285,0.094c-0.648-1.54,0.016-3.425-0.203-5.107
			c2.677-0.422,5.298-0.044,7.978,0.084c2.458,0.118,4.927-0.052,7.385-0.064c0.016,0,0.028-0.003,0.044-0.004
			c0.165,0.184,0.513,0.272,0.764,0.077c0.023-0.018,0.1-0.032,0.1-0.045c0,0.004,0,0.006,0,0.008c0,0.126,0.056,0.295,0.089,0.437
			c0.105,0.472,0.083,0.973,0.09,1.453c0.013,0.758-0.059,1.511-0.066,2.267c-2.392,0.155-4.799,0.104-7.193,0.284
			C174.024,43.331,171.127,43.61,168.219,43.63z"/>
		<path fill="#B3B3B3" d="M185.04,48.018c-0.009-0.037-0.021-0.069-0.036-0.1c0.111-0.281-0.028-0.674-0.424-0.676
			c-2.919-0.011-5.834-0.177-8.754-0.211c-2.662-0.03-5.531,0.898-8.117,0.015c-0.272-0.093,0.557,0.059,0.48,0.266
			C168.063,47.388,169,47.523,169,47.72v5.418c0,0.245-0.888,0.396-0.714,0.451c0.819,1.731,3.868,1.336,5.291,1.247
			c1.258-0.079,2.254-0.246,3.5-0.426c2.658-0.386,5.163-0.474,7.844-0.474c0.339,0,0.426-0.292,0.391-0.552
			c0.013-0.042-0.011-0.088-0.011-0.14C185.316,51.501,185.475,49.729,185.04,48.018z M174.978,53.698
			c-1.239,0.151-5.554,1.043-5.886-0.793C169.07,52.788,170,52.703,170,52.647v-4.544c0,0.593,3.563,0.016,5.832-0.109
			c3.09-0.169,5.702,0.153,8.8,0.197c0.004,0.025-0.258,0.052-0.251,0.081c0.39,1.536,0.098,3.143,0.068,4.713
			C181.296,53.015,178.11,53.321,174.978,53.698z"/>
		<path fill="#B3B3B3" d="M184.852,62.833c0.047-1.685,0.378-3.422-0.236-5.042c-0.002-0.002-0.003-0.006-0.005-0.01
			c0.039-0.262-0.112-0.555-0.455-0.553c-2.982,0.013-5.951,0.212-8.925,0.425c-2.334,0.165-4.964,0.202-7.236-0.392
			c-0.264-0.442-1.056-0.189-0.872,0.359c0.519,1.568,0.268,3.176,0.206,4.788c-0.187,0.086-0.308,0.273-0.206,0.524
			c0.851,2.117,4.347,1.617,6.112,1.482c3.784-0.29,7.549-0.686,11.346-0.706C185.086,63.707,185.176,63.062,184.852,62.833z
			 M168.234,62.987c0.022-0.054,0.037-0.113,0.038-0.18c0.022-1.514,0.252-3.019,0-4.5c2.036,0.43,4.157,0.345,6.227,0.31
			c3.083-0.053,6.156-0.384,9.245-0.425c0.499,1.469,0.206,3.046,0.152,4.57c-3.011,0.041-6.035,0.245-9.028,0.543
			C173.606,63.432,169.356,64.254,168.234,62.987z"/>
		<path fill="#B3B3B3" d="M158.969,38.117c-0.006-0.835-0.04-1.672-0.045-2.507c-0.004-0.278-0.218-0.457-0.477-0.479
			c-2.267-0.192-4.534-0.015-6.803,0c-0.043,0-0.082,0.006-0.12,0.015c-0.301-0.037-0.65,0.203-0.554,0.589
			c0.423,1.67-0.382,3.495-0.441,5.185c-0.009,0.266,0.225,0.47,0.478,0.479c2.338,0.067,4.591,0.989,6.926,0.408
			c0.042-0.011,0.079-0.025,0.114-0.042c0.245,0.115,0.574,0.049,0.648-0.292c0.17-0.801,0.24-1.608,0.263-2.418
			C159.453,38.982,159.456,38.219,158.969,38.117z M157.974,36.056c0.015,0.666,0.038,1.334,0.046,2.002
			c-0.813-0.066-1.638-0.186-2.464-0.264c-0.011-0.516-0.028-1.032-0.033-1.548c0-0.096-0.026-0.174-0.064-0.241
			C156.297,35.995,157.136,36.003,157.974,36.056z M154.621,36.02c-0.034,0.063-0.053,0.138-0.053,0.226
			c0.001,0.493,0.022,0.988,0.036,1.483c-0.917-0.034-1.824,0.034-2.701,0.336c0.104-0.664,0.17-1.328,0.098-1.983
			C152.874,36.07,153.748,36.041,154.621,36.02z M151.518,40.473c0.043-0.466,0.126-0.936,0.211-1.407
			c0.076,0.018,0.161,0.015,0.257-0.021c0.847-0.323,1.734-0.399,2.634-0.37c-0.004,0.75-0.051,1.495-0.226,2.228
			C153.435,40.756,152.476,40.552,151.518,40.473z M157.834,40.873c-0.049-0.003-0.1,0-0.154,0.012
			c-0.778,0.194-1.557,0.205-2.336,0.135c0.166-0.754,0.216-1.516,0.222-2.281c0.82,0.079,1.641,0.203,2.445,0.274
			C157.991,39.635,157.941,40.256,157.834,40.873z"/>
		<path fill="#B3B3B3" d="M158.624,45.562c-0.053-0.018-0.111-0.025-0.177-0.02c-1.141,0.097-2.173-0.214-3.288-0.347
			c-1.149-0.135-2.264,0.305-3.387,0.153c-0.076-0.011-0.146-0.005-0.21,0.013c-0.271-0.06-0.864,0.088-0.873,0.448
			C150.647,47.592,150,49.329,150,51.12v0.638c0,0.26,0.482,0.48,0.743,0.478c2.479-0.015,5.092-0.19,7.569,0
			c0.262,0.021,0.543-0.232,0.543-0.478c0.021-1.915,0.226-3.822,0.247-5.738C159.106,45.695,158.876,45.543,158.624,45.562z
			 M158.147,46.508c-0.017,0.674-0.06,1.348-0.105,2.021c-0.869,0.037-1.759,0.139-2.648,0.196c0.048-0.847,0.099-1.693,0.119-2.541
			C156.391,46.315,157.241,46.531,158.147,46.508z M151.804,46.299c0.917,0.036,1.823-0.228,2.756-0.204
			c-0.017,0.89-0.074,1.778-0.123,2.668c-0.979,0.011-1.944-0.083-2.863-0.437C151.664,47.652,151.756,46.978,151.804,46.299z
			 M151,51.273V51.12c0-0.613,0.215-1.221,0.285-1.827c0.949,0.341,2.02,0.434,3.021,0.422c-0.019,0.397,0.01,0.795,0.007,1.193
			c0,0.126-0.102,0.225-0.041,0.299C153.241,51.226,152,51.259,151,51.273z M155.211,51.197c0.061-0.072,0.099-0.168,0.099-0.289
			c0.005-0.411,0.018-0.821,0.037-1.23c0.882-0.055,1.766-0.151,2.633-0.189c-0.039,0.588-0.075,1.176-0.088,1.764
			C157.001,51.199,156.109,51.189,155.211,51.197z"/>
		<path fill="#B3B3B3" d="M153.822,64.506c0.003-0.045-0.006-0.004-0.018-0.047c0.042-0.278-0.141-0.474-0.459-0.474h-0.032
			c-0.019-0.596-0.032-0.135-0.057-0.158c-0.177-0.19-0.493-0.221-0.675-0.042c-0.188,0.19-0.177,0.465,0,0.655
			c0.018,0.018,0.027,0.017,0.034,0.022c0.001,0.006,0.006,0.011,0.021,0.035c-0.042-0.072,0.01,0.037,0.014,0.054
			c0,0.003,0,0.002,0.002,0.005c0,0.006,0,0.018,0,0.035c0.003,0.042,0.003,0.085,0.003,0.127c0,0.441,0.626,0.658,0.863,0.276
			C153.715,64.91,153.813,64.717,153.822,64.506z"/>
	</g>
	<g>
		<path fill="#B3B3B3" d="M27.356,55.408c-0.235-2.45-0.443-4.916-0.392-7.378c0.041-2.164,0.472-4.241,0.022-6.38
			c0.084-0.102,0.131-0.237,0.107-0.398c-0.372-2.406-1.326-4.609-2.231-6.853c-0.817-2.027-1.465-4.126-2.598-6.01
			c-0.154-0.257-0.431-0.273-0.635-0.162c-0.069-0.046-0.152-0.074-0.256-0.074c-4.267-0.033-8.696-0.833-12.877,0.335
			c-0.111,0.031-0.192,0.089-0.248,0.163c-0.173,0.016-0.337,0.118-0.401,0.331c-0.711,2.26-2.002,4.273-2.71,6.534
			c-0.57,1.816-1.653,3.383-1.891,5.291c-0.272,0.184-0.23,0.695,0.117,0.848c-0.036,4.644-0.61,9.264-0.636,13.908
			c-0.027,5.206,0,10.412,0,15.618c0,0.026,0.003,0.048,0.007,0.072c0,0.169,0.09,0.324,0.292,0.375
			c0.01,0.004,0.021,0.007,0.032,0.009c0.008,0.001,0.015,0.004,0.02,0.004c7.854,1.199,15.823-1.812,23.587,0.319
			c0.303,0.083,0.516-0.116,0.575-0.352c0.28,0.106,0.667-0.036,0.667-0.428C27.909,65.908,27.86,60.659,27.356,55.408z
			 M21.375,29.108c0.068,0,0.127-0.014,0.181-0.034c1.115,1.924,1.778,4.07,2.606,6.125c0.728,1.807,1.461,3.584,1.859,5.484
			c-1.278-0.371-2.592-0.572-3.92-0.671c-0.867-1.465-0.583-3.432-0.842-5.065c-0.311-1.967-0.862-3.938-1.354-5.879
			C20.397,29.088,20.889,29.104,21.375,29.108z M17.537,28.943c0.458,0.027,0.915,0.054,1.373,0.078
			c0.565,2.256,1.278,4.591,1.502,6.898c0.128,1.316,0.082,2.784,0.595,4.033c-1.412-0.053-2.832-0.014-4.236,0.037
			C16.861,36.295,17.453,32.636,17.537,28.943z M14.823,28.917c0.014-0.034,0.022-0.067,0.026-0.098
			c0.578,0.015,1.155,0.04,1.732,0.071c-0.078,3.723-0.679,7.41-0.768,11.133c-0.173,0.006-0.344,0.012-0.516,0.019
			c-0.987,0.033-1.978,0.117-2.967,0.218C13.078,36.455,13.454,32.569,14.823,28.917z M12.311,28.968
			c0.045-0.04,0.076-0.082,0.101-0.126c0.479-0.027,0.958-0.034,1.438-0.035c-1.359,3.704-1.721,7.642-2.497,11.489
			c-0.005,0.024-0.006,0.045-0.007,0.069c-1.211,0.132-2.426,0.274-3.64,0.363c0.92-1.618,1.336-3.49,1.891-5.256
			C10.243,33.418,10.657,30.447,12.311,28.968z M6.059,35.769c0.87-2.099,1.945-4.184,2.647-6.352
			c0.018-0.002,0.031-0.003,0.048-0.008c0.748-0.21,1.506-0.353,2.271-0.447c-1.011,1.338-1.364,3.162-1.829,4.727
			c-0.688,2.321-1.274,5.066-2.652,7.106c-0.779,0.034-1.559,0.037-2.337-0.005C4.433,39.029,5.392,37.386,6.059,35.769z
			 M11.696,70.821c-0.006-0.063-0.019-0.131-0.048-0.208c-0.04-2.449,0.383-4.862,0.602-7.295c0.248-2.751-0.152-5.493,0.414-8.217
			c2.069,0.134,4.317,0.143,6.175,0.144c0.087,2.646,0.656,5.238,0.902,7.871c0.224,2.39,0.15,4.813,0.826,7.136
			C17.618,70.237,14.657,70.591,11.696,70.821z M26.921,71.037c-1.788-0.49-3.584-0.707-5.384-0.768
			c0.004-0.054-0.001-0.11-0.021-0.172c-0.678-2.254-0.657-4.652-0.817-6.982c-0.191-2.747-0.868-5.428-0.917-8.19
			c0-0.183-0.092-0.312-0.213-0.386c-0.071-0.143-0.21-0.25-0.424-0.25c-2.231,0-4.492,0.001-6.772-0.16
			c-0.29-0.021-0.402,0.182-0.419,0.405c-0.075,0.056-0.116,0.141-0.142,0.265c-0.52,2.447-0.388,4.906-0.459,7.389
			c-0.082,2.823-0.709,5.589-0.669,8.417c-0.007,0.042-0.002,0.088,0.005,0.137c0.003,0.051-0.261,0.101-0.258,0.151
			C8.038,71.049,5,71.089,3,70.745V56.186c0-4.823,0.931-9.618,0.975-14.438c0.734,0.037,1.599,0.029,2.333-0.003
			c0.175,0.103,0.48,0.114,0.659-0.032c2.594-0.164,5.215-0.621,7.804-0.7c0.397-0.012,0.815-0.026,1.216-0.042
			c0.17,0.102,0.414,0.095,0.576-0.021c3.167-0.12,6.417-0.212,9.451,0.726c0.543,2.276,0.028,4.574-0.017,6.874
			c-0.052,2.482,0.222,4.985,0.459,7.452c0.479,5.006,0.497,10.024,0.498,15.047C26.942,71.046,26.932,71.04,26.921,71.037z"/>
		<path fill="#B3B3B3" d="M14.735,63.556c0.001-0.008-0.103-0.018-0.103-0.025c0-0.005,0-0.009,0-0.014
			c0-0.011,0.103-0.022,0.101-0.035c-0.014-0.335-0.257-0.576-0.582-0.589c-0.253-0.01-0.437,0.211-0.449,0.455
			c-0.124,0.107-0.206,0.239-0.256,0.411c-0.119,0.419,0.198,0.76,0.51,0.98c0.312,0.221,0.71-0.078,0.723-0.413
			c0.006-0.101,0.045-0.209,0.081-0.323c0.042-0.127,0.012-0.261,0.021-0.394C14.784,63.592,14.733,63.574,14.735,63.556z"/>
		<path fill="#B3B3B3" d="M11.674,45.171c-0.276-0.549-0.941-0.632-1.48-0.639c-1.251-0.018-2.529,0.016-3.766,0.211
			c-0.269,0.042-0.369,0.246-0.343,0.453c-0.115,0.105-0.186,0.261-0.151,0.453c0.423,2.338-0.135,4.698-0.173,7.044
			c-0.008,0.255,0.218,0.486,0.476,0.478c1.693-0.051,3.483-0.612,5.131-0.017c0.36,0.129,0.589-0.171,0.58-0.471
			c0.015-0.046,0.024-0.094,0.025-0.149C11.996,50.296,12.722,47.243,11.674,45.171z M9.432,46.06c0.228,0,0.494-0.292,0.722-0.299
			c0.758-0.028,0.897,0.761,0.948,1.352c0.031,0.367,0.056,0.666,0.061,1.034c-0.61,0.02-0.928,0.054-1.538,0.095
			C9.643,47.343,10,46.409,10,45.522c0-0.002,0,0.538,0,0.538S9.402,46.06,9.432,46.06z M8.467,45.533
			c-0.009,0.911-0.06,1.832-0.079,2.752c-0.467,0.022-0.959-0.005-1.176-0.232c-0.06-0.064-0.128-0.103-0.195-0.125
			c0.02-0.762-0.004-1.524-0.123-2.289C7.418,45.57,7.94,45.547,8.467,45.533z M6.729,52.188c0.045-1.061,0.164-2.115,0.234-3.17
			c0.43,0.184,0.961,0.19,1.422,0.184c0.015,0.939,0.094,1.872,0.32,2.787C8.047,52.047,7.385,52.14,6.729,52.188z M9.686,51.94
			c-0.25-0.907-0.336-1.836-0.351-2.774c0.61-0.043,1.218-0.109,1.83-0.13c-0.029,1.01-0.107,2.021-0.137,3.026
			C10.584,51.967,10.136,51.938,9.686,51.94z"/>
		<path fill="#B3B3B3" d="M24.101,45.391c-0.753-1.641-3.313-0.496-4.671-0.967c-0.311-0.107-0.524,0.104-0.569,0.354
			c-0.176,0.058-0.326,0.2-0.354,0.425c-0.296,2.397-0.296,4.775,0,7.171c0.031,0.256,0.192,0.482,0.479,0.478
			c1.234-0.016,2.48-0.138,3.697,0.142c0.144,0.033,0.266,0.005,0.363-0.058c0.315,0.179,0.683-0.022,0.72-0.402
			C23.967,50.489,25.009,47.362,24.101,45.391z M23.372,46.986c0.022,0.415,0.016,0.829-0.011,1.243
			c-0.605-0.012-1.213-0.062-1.815-0.082c0.025-0.911,0.146-1.805,0.473-2.638C22.77,45.535,23.306,45.787,23.372,46.986z
			 M19.438,45.424c0.518,0.135,1.018,0.138,1.57,0.113c-0.265,0.849-0.365,1.728-0.39,2.617c-0.461,0.025-0.918,0.092-1.37,0.234
			C19.263,47.401,19.323,46.414,19.438,45.424z M19.41,51.889c-0.089-0.847-0.143-1.692-0.159-2.535
			c0.058,0.002,0.114-0.003,0.179-0.025c0.391-0.129,0.788-0.191,1.188-0.22c0.021,0.922,0.089,1.848,0.113,2.757
			C20.29,51.866,19.852,51.878,19.41,51.889z M22.885,51.895c-0.115,0.005-0.204,0.049-0.266,0.116
			c-0.31-0.056-0.621-0.09-0.932-0.112c-0.028-0.907-0.115-1.858-0.142-2.804c0.575,0.019,1.151,0.07,1.726,0.087
			C23.162,50.089,23.001,50.994,22.885,51.895z"/>
	</g>
	<g>
		<path fill="#B3B3B3" d="M64.967,71.093c-2.345-8.039-2.175-16.471-3.152-24.721c-0.503-4.243-1.199-8.461-1.693-12.708
			c-0.377-3.228-0.559-6.444-1.979-9.389c0.019-0.044,0.027-0.092,0.029-0.141c1.396,1.73,2.729,3.492,3.377,5.673
			c0.174,0.59,1.098,0.338,0.922-0.254c-0.876-2.953-2.927-5.227-4.813-7.583c-1.059-1.323-1.875-2.705-2.664-4.196
			c-0.796-1.499-1.854-2.847-2.771-4.272c-0.075-0.117-0.176-0.181-0.282-0.207c-0.044-0.192-0.191-0.354-0.449-0.349
			c-2.441,0.058-4.958,0.909-7.361,0.177c-0.196-0.06-0.354,0.003-0.457,0.118c-0.112-0.006-0.23,0.04-0.327,0.165
			c-1.909,2.408-3.369,5.087-4.896,7.744c-0.094,0.164-0.19,0.326-0.286,0.489c-0.14,0.074-0.236,0.209-0.226,0.387
			c-0.582,0.979-1.188,1.939-1.841,2.876c-0.849,1.214-1.515,2.549-2.389,3.739c-0.366,0.498,0.464,0.974,0.824,0.483
			c0.653-0.888,1.264-1.805,1.851-2.74c-0.19,7.269-1.457,14.453-1.789,21.718c-0.176,3.885-0.326,7.761-0.67,11.636
			c-0.316,3.596-0.387,7.262-1.539,10.717c-0.128,0.381,0.218,0.618,0.528,0.579c0.006,0.003,0.014,0.006,0.018,0.01
			c1.706,0.687,3.82,0.172,5.589,0.043c2.659-0.195,5.409,0.108,8.065,0.28c5.908,0.385,11.784,0.772,17.709,0.542
			c0.208-0.007,0.344-0.123,0.411-0.271C64.902,71.556,65.046,71.359,64.967,71.093z M57.73,23.586
			c-0.031-0.003-0.064-0.007-0.1-0.003c-0.12-0.03-0.25-0.004-0.359,0.063c-0.762,0.144-1.526,0.241-2.293,0.309
			c0.511-0.694,0.862-1.658,1.143-2.44c0.067,0.099,0.138,0.197,0.21,0.295C56.781,22.412,57.255,22.999,57.73,23.586z
			 M46.999,22.689c0.232,0.51,0.548,0.971,0.933,1.315c-0.642-0.022-1.286-0.051-1.922-0.102
			C46.427,23.604,46.754,23.172,46.999,22.689z M44.85,23.347c-1.665,0.458-2.241-1.463-2.277-2.679
			c0.558-0.247,1.105-0.623,1.549-1.097c0.359,0.94,1.246,1.653,2.398,1.485c0.007-0.002,0.009-0.003,0.012-0.003
			C46.423,22.069,45.9,23.058,44.85,23.347z M47.521,20.683c0.827-0.543,1.273-1.553,1.669-2.53c0.202,0.957,0.571,1.87,1.53,2.232
			c0.142,0.054,0.285,0.079,0.43,0.086c-0.266,1.049-0.62,2.427-1.531,3.055C48.466,24.318,47.647,21.844,47.521,20.683z
			 M51.509,22.49c0.108,0.584,0.288,1.151,0.573,1.584c-0.418,0.001-0.837,0-1.256-0.008c-0.093-0.001-0.188-0.002-0.28-0.004
			C50.952,23.664,51.266,23.086,51.509,22.49z M55.472,20.521c-0.435,1.068-0.767,2.605-1.766,3.286
			c-1.183,0.806-1.412-2.947-1.418-3.529c0-0.048-0.007-0.091-0.02-0.132c0.773-0.457,1.462-1.3,1.849-1.987
			C54.582,18.95,55.003,19.745,55.472,20.521z M52.361,15.436c0.398,0.589,0.792,1.182,1.175,1.783
			c-0.024,0.031-0.047,0.065-0.066,0.108c-0.361,0.813-1.453,2.35-2.494,2.137c-0.736-0.152-0.923-1.514-1.025-2.415
			C50.985,16.99,51.823,16.296,52.361,15.436z M51.358,13.908c0.012,0.025,0.022,0.051,0.04,0.077
			c0.12,0.187,0.243,0.373,0.369,0.558c-0.856,1.908-3.349,2.098-3.958-0.13c-0.016-0.055-0.037-0.099-0.063-0.141
			C48.949,14.154,50.156,13.949,51.358,13.908z M48.71,16.839c-0.398,0.916-0.68,1.909-1.317,2.689
			c-0.097,0.121-0.205,0.213-0.315,0.292c-0.158,0.001-0.324,0.072-0.427,0.209c-0.954,0.266-1.998-0.605-1.741-1.671
			c0.033-0.086,0.063-0.173,0.089-0.262c0.019-0.042,0.031-0.084,0.055-0.127c0.065-0.125,0.073-0.246,0.042-0.353
			c0.005-0.053,0.014-0.106,0.018-0.16c0.934-0.311,1.627-1.094,2.102-1.97C47.552,16.111,48.058,16.582,48.71,16.839z
			 M44.02,14.083c0.885,0.248,1.776,0.3,2.671,0.265c-0.294,0.777-0.769,1.519-1.449,2.005c-0.836,0.596-2.217,0.137-2.194-0.973
			C43.361,14.942,43.684,14.508,44.02,14.083z M42.338,16.399c0.354,0.646,1.05,1.097,1.802,1.173
			c-0.013,0.086-0.037,0.17-0.06,0.255c-0.013,0.031-0.02,0.064-0.029,0.095c-0.249,0.725-0.896,1.313-1.53,1.705
			c-0.388,0.238-0.829,0.407-1.288,0.385c-0.484-0.023-0.44-0.683-0.42-1.011c0.007-0.062-0.001-0.116-0.016-0.166
			C41.293,18.011,41.802,17.195,42.338,16.399z M42.543,23.424c-0.326-0.054-0.662-0.104-1.005-0.145
			c0.161-0.269,0.284-0.564,0.395-0.87C42.081,22.792,42.281,23.135,42.543,23.424z M40.042,20.113
			c0.261,0.534,0.771,0.82,1.398,0.823c-0.22,0.617-0.384,1.254-0.701,1.829c-0.087,0.158-0.214,0.314-0.359,0.427
			c-0.273-0.007-0.541-0.002-0.803,0.018c-0.336-0.271-0.506-0.755-0.644-1.165C39.301,21.399,39.671,20.754,40.042,20.113z
			 M38.352,23.062c0.059,0.112,0.123,0.22,0.19,0.326c-0.159,0.045-0.318,0.096-0.469,0.161
			C38.167,23.386,38.26,23.224,38.352,23.062z M47.762,70.489c-0.701-0.047-1.401-0.093-2.102-0.136
			c0.255-0.857,0.213-1.734,0.203-2.633c-0.011-1.214,0.201-2.371,0.316-3.579c0.266-2.793,0.624-5.776,0.682-8.326
			c0.004-0.319,0.006,0,0.006,0c2.08-0.312,4.144-0.368,6.225-0.248c0.032,5.087,0.289,10.169,0.309,15.257
			C51.522,70.732,49.645,70.616,47.762,70.489z M54.358,70.87c-0.02-5.338-0.304-10.672-0.316-16.011
			c-0.001-0.501-0.63-0.595-0.868-0.283c-2.108-0.125-4.2-0.007-6.304,0.143c-0.161,0.011-0.278,0.077-0.354,0.18
			c-0.27-0.06-0.597,0.084-0.602,0.443c-0.032,2.544-0.338,5.082-0.584,7.614c-0.125,1.285-0.245,2.57-0.372,3.856
			c-0.114,1.164,0.111,2.366-0.285,3.485c-1.816-0.104-3.633-0.185-5.451-0.192c-1.83-0.008-3.967,0.684-5.759,0.113
			c0.929-3.055,1.093-6.286,1.336-9.453c0.292-3.822,0.542-7.632,0.7-11.464c0.336-8.084,1.796-16.081,1.859-24.175
			c0.133-0.01,0.265-0.069,0.362-0.2c0.356-0.466,0.959-0.666,1.623-0.73c0.352,0.192,0.761,0.235,1.234-0.001
			c0,0,0.002-0.002,0.006-0.002c0.497,0.035,0.971,0.1,1.343,0.138c1.309,0.139,2.578,0.394,3.893,0.464
			c3.8,0.206,7.66,0.496,11.427-0.175c1.654,3.337,1.709,7.231,2.132,10.875c0.489,4.21,1.228,8.39,1.673,12.602
			c0.81,7.649,0.791,15.414,2.89,22.866C60.737,71.075,57.549,71.012,54.358,70.87z"/>
		<path fill="#B3B3B3" d="M43.522,31.592c-1.164,0.146-2.337,0.016-3.505,0c-0.353-0.006-0.503,0.306-0.453,0.575
			c-0.024,0.062-0.036,0.135-0.025,0.222c0.291,2.282-0.127,4.568-0.159,6.853c-0.004,0.341,0.307,0.502,0.605,0.46
			c0.677-0.095,1.358-0.134,2.033-0.211c0.185,0.09,0.423-0.018,0.573-0.157c0.304-0.049,0.603-0.273,0.901-0.273h0.032
			c0.248,0,0.475,0.025,0.475-0.297v-6.694C44,31.834,43.784,31.559,43.522,31.592z M44,32.593v2.982
			c-1,0.003-0.747,0.01-0.881,0.016c-0.032-0.994,0.176-1.987,0.166-2.981C43.444,32.605,43,32.603,44,32.593z M41.615,32.603
			c0.009,1.015,0.04,2.032,0.072,3.046c-0.383,0.03-0.764,0.057-1.146,0.072c0.063-1.054,0.089-2.107-0.029-3.161
			C40.88,32.573,41.246,32.591,41.615,32.603z M40.354,38.707c0.025-0.675,0.075-1.352,0.125-2.027
			c0.413-0.015,0.826-0.044,1.236-0.075c0.021,0.654,0.039,1.309,0.048,1.964C41.294,38.623,40.821,38.659,40.354,38.707z
			 M43.467,38.35c-0.597,0.028-0.43,0.045-0.54,0.067c-0.01-0.624,0.078-1.247,0.059-1.87c0.126-0.006-0.115-0.014,0.481-0.016
			V38.35z"/>
		<path fill="#B3B3B3" d="M49.579,32.069c-0.011-0.278-0.21-0.453-0.479-0.478c-0.873-0.082-1.68,0.109-2.549,0.16
			c-0.239,0.014-0.385,0.168-0.438,0.351c-0.192,0.044-0.357,0.191-0.359,0.445c-0.011,1.178-0.074,2.351-0.124,3.528
			c-0.042,0.973-0.19,2.078,0.053,3.033c0.279,1.099,1.752,0.886,2.641,0.664c0.275,0.194,0.769,0.07,0.776-0.372
			C49.146,36.944,49.682,34.534,49.579,32.069z M48.093,32.557c0.178-0.015,0.356-0.025,0.536-0.026
			c0.01,0.865-0.051,1.724-0.131,2.583c-0.166,0.009-0.334,0.022-0.502,0.039c-0.021-0.771,0.017-1.543,0.133-2.318
			C48.144,32.73,48.127,32.637,48.093,32.557z M47.197,32.649c-0.124,0.868-0.164,1.73-0.142,2.589
			c-0.115,0.008-0.229,0.018-0.345,0.02c-0.034,0-0.066,0.005-0.098,0.011c0.039-0.857,0.083-1.714,0.094-2.573
			C46.874,32.683,47.036,32.666,47.197,32.649z M46.985,38.988c-0.654,0.025-0.433-1.569-0.429-1.866
			c0.002-0.308,0.012-0.617,0.021-0.925c0.04,0.01,0.085,0.017,0.133,0.017c0.135-0.001,0.266-0.012,0.402-0.021
			c0.074,0.848,0.212,1.694,0.411,2.539c0.021,0.082,0.055,0.146,0.098,0.198C47.413,38.959,47.202,38.98,46.985,38.988z
			 M48.258,37.566c-0.089-0.487-0.155-0.976-0.201-1.464c0.114-0.011,0.231-0.02,0.35-0.027
			C48.354,36.571,48.303,37.068,48.258,37.566z"/>
		<path fill="#B3B3B3" d="M55.635,32.069c-0.032-0.25-0.192-0.487-0.478-0.478c-1.119,0.035-2.228,0.276-3.347,0.16
			c-0.424-0.044-0.551,0.397-0.39,0.696c-0.029,0.039-0.054,0.081-0.071,0.133c-0.688,1.971-0.205,4.148-0.175,6.182
			c0.002,0.256,0.214,0.483,0.476,0.478c1.065-0.02,2.123-0.139,3.188-0.16c0.065-0.001,0.124-0.015,0.176-0.036
			c0.274,0.073,0.617-0.073,0.621-0.441C55.658,36.422,55.923,34.244,55.635,32.069z M52.271,32.834
			c0.013-0.034,0.02-0.066,0.024-0.099c0.2,0.005,0.401,0,0.601-0.009c-0.233,0.703-0.359,1.452-0.38,2.209
			c-0.182,0.002-0.363,0.003-0.546,0.003c-0.013,0-0.024,0.003-0.036,0.003C51.948,34.222,52.034,33.513,52.271,32.834z
			 M51.949,35.893c0.008,0,0.014,0.001,0.021,0.001c0.193,0,0.384-0.002,0.575-0.005c0.066,0.799,0.24,1.589,0.508,2.327
			c-0.312,0.02-0.626,0.039-0.94,0.052C52.076,37.489,51.988,36.688,51.949,35.893z M54.688,38.131
			c-0.211,0.005-0.424,0.015-0.634,0.025c-0.302-0.716-0.488-1.502-0.554-2.304c0.427-0.026,0.853-0.066,1.279-0.131
			C54.751,36.525,54.709,37.328,54.688,38.131z M54.804,34.82c-0.075-0.027-0.159-0.038-0.252-0.023
			c-0.357,0.055-0.717,0.086-1.077,0.107c0.03-0.714,0.158-1.419,0.391-2.069c0.024-0.068,0.032-0.131,0.029-0.189
			c0.278-0.028,0.558-0.056,0.834-0.075C54.801,33.32,54.813,34.07,54.804,34.82z"/>
		<path fill="#B3B3B3" d="M44.537,43.921c-0.281-1.908-3.662-1.057-4.877-1.015C39.346,42.917,39,43.171,39,43.416v0.001
			c-1,2.069,0.47,4.39-0.279,6.374c-0.146,0.385,0.315,0.622,0.637,0.569c0.069,0.13,0.25,0.219,0.451,0.196
			c0.348-0.04,0.725-0.04,1.07-0.026c0.17,0.209,0.539,0.224,0.735,0.043c0.672,0.048,1.352,0.094,2.04-0.034
			c0.21-0.039,0.342-0.262,0.348-0.461C44.067,48.023,44.843,45.991,44.537,43.921z M42,43.689c2-0.03,1.531,0.125,1.525,1.233
			c-0.002,0.339,0,0.677-0.026,1.012c-0.543,0.002-1.064,0.014-1.596,0.049c0.045-0.678,0.06-1.356,0.146-2.031
			C42.091,43.886,42,43.804,42,43.704V43.689z M40.29,43.838c0.319-0.023,0.642-0.053,0.96-0.081
			c-0.098,0.769-0.174,1.541-0.238,2.314c-0.278,0.037-0.558,0.083-0.832,0.139C40.155,45.41,40.146,44.611,40.29,43.838z
			 M40.829,49.583c-0.281-0.013-0.562-0.017-0.842,0.008c0.208-0.779,0.232-1.593,0.219-2.413c0.243-0.055,0.489-0.1,0.732-0.137
			C40.883,47.889,40.845,48.737,40.829,49.583z M41.783,49.652c0.014-0.903,0.033-1.807,0.073-2.709
			c0.518-0.038,1.036-0.048,1.56-0.051c-0.121,0.923-0.275,1.841-0.343,2.768C42.64,49.704,42.21,49.684,41.783,49.652z"/>
		<path fill="#B3B3B3" d="M50.695,43.065c-0.016-0.339-0.291-0.504-0.604-0.46c-0.965,0.132-1.93,0.141-2.902,0.143
			c-0.199,0-0.334,0.102-0.403,0.237c-0.247-0.132-0.602-0.075-0.694,0.274c-0.522,1.954-0.662,4.269-0.228,6.252
			c0.367,1.658,2.298,0.951,3.431,1.346c0.222,0.079,0.553-0.086,0.587-0.333C50.231,48.042,50.805,45.586,50.695,43.065z
			 M48.962,43.723c0.025-0.024,0.047-0.047,0.065-0.072c0.239-0.016,0.479-0.034,0.718-0.058c0.005,0.8-0.053,1.593-0.143,2.383
			c-0.377,0.025-0.752,0.032-1.13,0.036C48.43,45.146,48.456,44.176,48.962,43.723z M46.977,43.657
			c0.062,0.03,0.132,0.047,0.212,0.047c0.219,0,0.436-0.003,0.652-0.006c-0.242,0.576-0.257,1.273-0.274,1.872
			c-0.004,0.152-0.003,0.306-0.002,0.46c-0.285,0.01-0.568,0.029-0.854,0.065c-0.031,0.003-0.061,0.011-0.088,0.019
			C46.665,45.282,46.777,44.456,46.977,43.657z M47.401,49.662c-0.387-0.128-0.664-0.414-0.724-1.08
			c-0.045-0.505-0.069-1.016-0.072-1.529c0.032,0.003,0.069,0.003,0.105-0.002c0.293-0.036,0.59-0.054,0.885-0.065
			C47.633,47.893,47.657,48.813,47.401,49.662z M49.026,49.82c-0.219-0.027-0.444-0.036-0.661-0.042
			c0.224-0.845,0.188-1.753,0.175-2.619c-0.002-0.06-0.004-0.124-0.007-0.191c0.313-0.004,0.629-0.011,0.942-0.028
			C49.338,47.9,49.172,48.859,49.026,49.82z"/>
		<path fill="#B3B3B3" d="M57.386,43.487c-0.237-0.505-0.547-0.718-1.096-0.781c-1.026-0.117-2.168,0.042-3.206,0.042
			c-0.172,0-0.293,0.077-0.372,0.185c-0.267-0.052-0.583,0.097-0.583,0.452c0,1.383,0.07,2.783-0.06,4.162
			c-0.064,0.687-0.323,1.962,0.199,2.551c1.132,1.267,3.533,0.351,4.96,0.299c0.264-0.01,0.476-0.21,0.479-0.477
			C57.73,47.924,58.269,45.368,57.386,43.487z M56.699,44.534c0.131,0.561,0.184,1.141,0.196,1.729
			c-0.455,0.011-0.908,0.031-1.362,0.055c0.096-0.875,0.133-1.75-0.021-2.622C56.348,43.677,56.484,43.621,56.699,44.534z
			 M54.543,43.06c0.191,0,0.157,2.089,0.055,2.983c-0.452,0.024-0.902,0.205-1.353,0.208c-0.053,0-0.099-0.23-0.142-0.218
			c0.036-0.906-0.004-2.973-0.013-2.973C53.574,43.06,54.06,43.06,54.543,43.06z M52.991,49.409
			c-0.205-0.59-0.047-1.407,0.043-2.084c0.061,0.029,0.129,0.045,0.211,0.044c0.407-0.003,0.815-0.02,1.223-0.04
			c-0.121,0.814-0.249,1.628-0.267,2.43c0,0.023,0.003,0.045,0.005,0.067C53.595,49.836,53.104,49.739,52.991,49.409z
			 M55.157,49.751c0.021-0.823,0.142-1.647,0.255-2.471c0.49-0.026,0.982-0.049,1.473-0.061c-0.03,0.765-0.095,1.534-0.121,2.278
			C56.339,49.563,55.748,49.676,55.157,49.751z"/>
		<path fill="#B3B3B3" d="M43.787,55.682c-0.201-1.47-2.778-0.709-3.61-0.664c-0.302,0.016-0.454,0.256-0.46,0.491
			c-0.104,0.026-0.201,0.096-0.271,0.224c-1.063,1.99-0.741,4.458-0.544,6.615c0.02,0.202,0.131,0.418,0.353,0.461
			c1.373,0.272,2.726,0.048,4.109,0.017c0.316-0.007,0.471-0.264,0.463-0.509c0.009-0.039,0.017-0.082,0.017-0.128
			C43.843,60.061,44.076,57.792,43.787,55.682z M42.268,55.786c0.77-0.062,0.625,0.518,0.62,1.083
			c-0.004,0.552-0.002,1.104-0.004,1.656c-0.51,0.001-1.02,0.013-1.523,0.044c0.089-0.944,0.233-1.883,0.251-2.72
			C41.83,55.827,42.052,55.805,42.268,55.786z M40.271,56.215c0.046-0.087,0.063-0.173,0.058-0.252
			c0.107-0.006,0.214-0.02,0.321-0.027c-0.023,0.869-0.146,1.793-0.222,2.718c-0.26,0.032-0.521,0.073-0.779,0.124
			C39.691,57.87,39.857,56.99,40.271,56.215z M39.818,61.936c-0.068-0.7-0.147-1.441-0.174-2.182
			c0.243-0.054,0.486-0.098,0.73-0.133c-0.021,0.816,0.036,1.621,0.275,2.375C40.373,61.99,40.096,61.973,39.818,61.936z
			 M41.648,61.97c-0.313-0.737-0.383-1.578-0.354-2.443c0.526-0.036,1.055-0.044,1.586-0.046c0.002,0.803,0.005,1.607,0.006,2.41
			C42.474,61.912,42.061,61.946,41.648,61.97z"/>
		<path fill="#B3B3B3" d="M51.491,57.568c-0.002-0.261-0.214-0.478-0.478-0.478c-0.898,0.001-1.788,0.023-2.677,0.176
			c-0.137,0.023-0.227,0.09-0.282,0.174c-0.261,0.038-0.485,0.255-0.371,0.573c0.493,1.358,0.01,2.933-0.014,4.335
			c-0.008,0.254,0.22,0.489,0.475,0.479c0.917-0.035,1.799-0.277,2.708-0.318c0.23-0.011,0.387-0.143,0.464-0.351
			C51.85,60.71,51.513,59.07,51.491,57.568z M50.496,61.579c-0.619,0.059-1.228,0.185-1.847,0.252
			c0.09-1.212,0.356-2.481,0.076-3.661c0.606-0.094,1.215-0.117,1.828-0.122C50.615,59.214,50.8,60.456,50.496,61.579z"/>
		<path fill="#B3B3B3" d="M51.65,65.058c-0.002-0.23-0.147-0.384-0.35-0.462c-1.108-0.425-2.026-0.162-3.124,0.16
			c-0.077,0.023-0.141,0.061-0.192,0.107c-0.221,0.012-0.444,0.083-0.478,0.362c-0.146,1.273-0.157,2.834-0.157,3.834h0.956
			c0-1,0.011-2.336,0.122-3.451c0.002-0.001,0.002,0.034,0.002,0.034c0.815-0.238,1.484-0.443,2.273-0.25
			c0.025,0.829,0.089,1.674-0.085,2.491c-0.209,0.985-0.984,0.738-1.704,0.533c-0.598-0.168-0.851,0.756-0.259,0.924
			c0.858,0.243,1.874,0.496,2.483-0.356C51.936,67.879,51.666,66.335,51.65,65.058z"/>
		<path fill="#B3B3B3" d="M52.767,63.146c0-0.241-0.218-0.503-0.479-0.479c-0.454,0.045-0.636,0.37-0.638,0.797
			c0,0.605,0.919,0.615,0.953,0.031C52.702,63.414,52.767,63.296,52.767,63.146z"/>
	</g>
	<g>
		<path fill="#B3B3B3" d="M237.679,70.16c0.032-0.682,0.133-1.361,0.167-2.042c0.009-0.232,0.033-0.571-0.017-0.877
			c0.029-0.063,0.048-0.136,0.048-0.222c-0.002-8.605-0.188-17.177-0.211-25.768c-0.022-8.576-0.814-17.095-1.276-25.652
			c-0.014-0.255-0.188-0.402-0.384-0.446c-1.609-3.144-2.481-6.605-4.143-9.729c-0.129-0.242-0.363-0.281-0.558-0.203
			c-0.051-0.021-0.108-0.034-0.175-0.034c-2.311-0.028-4.702-0.414-6.916,0.411c-0.208-0.134-0.507-0.131-0.668,0.145
			c-0.268,0.458-0.519,0.924-0.757,1.396c-0.166,0.089-0.259,0.292-0.242,0.487c-0.599,1.214-1.148,2.449-1.777,3.652
			c-0.808,1.537-1.813,2.901-2.212,4.62c-0.039,0.165,0.006,0.302,0.09,0.404c0.014,9.146,0.302,18.289,0.164,27.435
			c-0.14,9.25-0.58,18.492-0.59,27.746c0,0.21,0.111,0.347,0.259,0.414c0.095,0.056,0.211,0.079,0.347,0.047
			c3.028-0.721,6.065,0.098,9.121,0.032c3.239-0.069,6.42-0.818,9.662-0.864C238.203,71.103,238.226,70.22,237.679,70.16z
			 M224.142,6.636c0.036-0.006,0.069-0.016,0.105-0.03c2.191-0.906,4.581-0.49,6.884-0.462c0.009,0,0.018-0.001,0.026-0.001
			c0.164,0.318,0.318,0.64,0.469,0.963c-2.592,0.074-5.272,0.78-7.829,0.193C223.911,7.077,224.021,6.854,224.142,6.636z
			 M223.353,8.176c2.754,0.715,5.622-0.066,8.415-0.12c0.1-0.002,0.182-0.03,0.25-0.073c0.215,0.499,0.414,1,0.613,1.505
			c-1.667-0.011-3.354-0.079-5.014,0.044c-1.668,0.125-3.352,0.598-5.008,0.207C222.859,9.218,223.102,8.695,223.353,8.176z
			 M221.822,11.326c0.123-0.235,0.244-0.473,0.361-0.712c1.497,0.412,3.03,0.172,4.547-0.023c2.071-0.269,4.188-0.146,6.271-0.144
			c0.235,0.618,0.473,1.234,0.713,1.85c-2.232,0.527-4.69,0.161-6.969,0.324c-1.094,0.078-2.191,0.024-3.285,0.073
			c-0.803,0.037-1.656,0.315-2.435,0.044C221.298,12.27,221.571,11.804,221.822,11.326z M220.551,13.576
			c0.544,0.227,1.096,0.241,1.722,0.201c1.303-0.082,2.586-0.134,3.89-0.172c1.371-0.041,2.708-0.179,4.081-0.135
			c1.308,0.041,2.567,0.038,3.831-0.279c0.254,0.617,0.515,1.228,0.802,1.83c-1.141,0.162-2.271-0.07-3.426-0.111
			c-1.317-0.047-2.653,0.119-3.968,0.185c-2.575,0.128-5.166,0.044-7.741,0.201C219.959,14.698,220.243,14.131,220.551,13.576z
			 M227.346,71.031c-1.136,0.025-2.253-0.073-3.363-0.165c0.054-0.053,0.096-0.122,0.121-0.212c0.876-3.309,0.456-10.14,5.896-9.126
			c3.267,0.609,2.887,6.599,2.884,8.999c0,0.005,0.002,0.01,0.002,0.013C231.043,70.757,229.202,70.991,227.346,71.031z
			 M236.883,67.404c0.01,0.103,0.013,0.21,0.014,0.314c0.009,0.329-0.021,0.66-0.045,0.989c-0.037,0.493-0.106,0.987-0.132,1.481
			c-0.963,0.045-1.921,0.138-2.879,0.243c0.007-3.149,0.226-8.752-3.588-9.826c-2.109-0.595-4.46,0.785-5.495,2.563
			c-1.246,2.143-0.961,4.898-1.576,7.231c-0.047,0.169-0.003,0.309,0.083,0.41c-1.355-0.101-2.709-0.15-4.082,0.088
			c0.025-9.057,0.437-18.105,0.587-27.16c0.151-9.161-0.152-18.319-0.165-27.479c2.616-0.171,5.261-0.118,7.878-0.207
			c1.486-0.052,2.965-0.222,4.455-0.168c1.164,0.042,2.239,0.234,3.38,0.021c0.008,0.015,0.013,0.029,0.021,0.043
			c0.034,0.064,0.076,0.113,0.124,0.15c0.464,8.39,1.234,16.746,1.248,25.155c0.012,8.465,0.198,16.913,0.208,25.392
			C236.684,66.827,236.633,67.224,236.883,67.404z"/>
		<path fill="#B3B3B3" d="M226.19,20.06h-3.665c-0.081,0-0.151,0.072-0.213,0.101c-0.162,0.056-0.286,0.226-0.266,0.457
			c0.125,1.343-0.286,2.662-0.318,3.999c-0.005,0.226,0.152,0.395,0.352,0.468c1.037,0.377,2.971,0.634,3.812-0.28
			c0.448-0.486,0.52-1.343,0.607-1.959c0.104-0.729,0.165-1.52,0.171-2.254C226.671,20.33,226.45,20.06,226.19,20.06z
			 M225.703,21.027c-0.01,0.596-0.04,0.809-0.081,1.188c-0.06-0.015-0.124,0.006-0.195,0.018c-0.296,0.045-0.593,0.085-0.891,0.106
			c0.021-0.303,0.042-0.647,0.063-0.952c0.007-0.137-0.035-0.36-0.104-0.36H225.703z M223.787,21.027
			c-0.08,0-0.137,0.229-0.146,0.367c-0.021,0.316-0.043,0.658-0.063,0.976c-0.214,0.002-0.43-0.032-0.642-0.032
			c0.053-0.424,0.093-0.714,0.091-1.311H223.787z M222.705,24.282c0.02-0.312,0.059-0.622,0.101-0.931
			c0.014,0.001,0.024,0.004,0.038,0.004c0.227,0,0.451-0.002,0.676-0.007c-0.018,0.364-0.034,0.727-0.037,1.09
			C223.202,24.401,222.931,24.344,222.705,24.282z M224.438,24.457c0.002-0.382,0.018-0.766,0.04-1.151
			c0.334-0.022,0.668-0.055,1.003-0.102c-0.047,0.225-0.103,0.448-0.167,0.665C225.205,24.232,224.861,24.401,224.438,24.457z"/>
		<path fill="#B3B3B3" d="M232.405,19.06h-2.549c-0.268,0-0.42,0.576-0.456,0.779c-0.292-0.125-0.692,0.207-0.659,0.61
			c0.106,1.343-0.396,2.724,0.016,4.049c0.077,0.243,0.333,0.461,0.589,0.384c0.951-0.289,1.915-0.275,2.9-0.277
			c0.284,0,0.447-0.208,0.479-0.467c0.147-1.271,0.159-2.933,0.159-4.212C232.884,19.666,232.666,19.06,232.405,19.06z
			 M231.925,20.642c-0.001,0.5-0.005,0.738-0.013,1.066c-0.078-0.028-0.17,0.006-0.271,0.03c-0.019,0.005-0.039-0.051-0.061-0.047
			c-0.032-0.332-0.091-0.549-0.199-1.049H231.925z M229.856,20.43h0.516c0.007,0,0.015,0.243,0.027,0.27
			c0.161,0.35,0.231,0.815,0.262,1.193c-0.317,0.053-0.639,0.135-0.964,0.139c-0.024,0.001-0.046,0.03-0.068,0.032
			c0.049-0.434,0.095-1.046,0.075-1.484C229.75,20.595,229.8,20.43,229.856,20.43z M229.575,23.885
			c-0.044-0.291-0.046-0.581-0.031-0.872c0.045,0.014,0.096,0.023,0.153,0.022c0.327-0.005,0.652-0.039,0.977-0.088
			c-0.008,0.244-0.019,0.487-0.021,0.727c0,0.018,0.002,0.035,0.005,0.052C230.295,23.758,229.934,23.807,229.575,23.885z
			 M231.61,23.681c0-0.002,0-0.005,0-0.006c0.002-0.308,0.009-0.61,0.011-0.91c0.085-0.021,0.172-0.039,0.257-0.06
			c-0.018,0.324-0.037,0.648-0.066,0.971C231.744,23.676,231.677,23.68,231.61,23.681z"/>
		<path fill="#B3B3B3" d="M226.19,27.499c-0.944,0.017-3.001,0.041-3.673,0.912c-0.273-0.208-0.783-0.088-0.789,0.362
			c-0.013,1.277-0.146,2.549-0.159,3.824c-0.003,0.284,0.221,0.449,0.478,0.479c0.657,0.075,1.314,0.115,1.973,0.136
			c0.052,0.009,0.103,0.009,0.158,0.003c0.562,0.015,1.129,0.021,1.694,0.021c0.263,0,0.475-0.218,0.478-0.479
			c0.024-1.599,0.295-3.181,0.32-4.781C226.673,27.719,226.449,27.494,226.19,27.499z M224.626,28.617
			c0.351-0.066,0.709-0.104,1.071-0.131c-0.024,0.522-0.068,1.043-0.115,1.564c-0.011,0-0.02-0.002-0.029-0.002
			c-0.277,0.005-0.562,0.038-0.851,0.07c-0.014-0.502-0.072-1-0.229-1.479C224.532,28.63,224.584,28.624,224.626,28.617z
			 M222.673,29.203c0.199,0.087,0.444,0.057,0.585-0.188c0.043-0.076,0.143-0.135,0.271-0.183c0.151,0.439,0.21,0.898,0.226,1.364
			c-0.323,0.003-0.639-0.025-0.942-0.13c-0.064-0.022-0.123-0.028-0.177-0.026C222.647,29.76,222.664,29.482,222.673,29.203z
			 M222.538,32.165c0.012-0.39,0.033-0.779,0.053-1.169c0.374,0.123,0.757,0.155,1.144,0.146c-0.022,0.367-0.054,0.734-0.073,1.095
			C223.287,32.219,222.912,32.198,222.538,32.165z M224.613,32.268c0.02-0.396,0.051-0.798,0.074-1.2
			c0.271-0.028,0.541-0.053,0.811-0.062c-0.036,0.423-0.069,0.846-0.089,1.271C225.146,32.276,224.878,32.273,224.613,32.268z"/>
		<path fill="#B3B3B3" d="M233.043,27.06h-3.505c-0.257,0-0.403,0.224-0.448,0.416c-0.214,0.074-0.394,0.31-0.333,0.598
			c0.304,1.421-0.475,2.826,0.323,4.192c0.442,0.761,1.593,0.489,2.301,0.481c0.705-0.007,1.602-0.111,1.852-0.896
			c0.131-0.404,0.126-0.836,0.131-1.256c0.007-0.979,0.157-2.014,0.159-2.998C233.522,27.336,233.304,27.06,233.043,27.06z
			 M232.551,27.589c-0.016,0.597-0.042,1.027-0.068,1.403c-0.016,0.001-0.028,0.137-0.045,0.14c-0.191,0.035-0.38-0.124-0.567-0.077
			c-0.016-0.426-0.062-0.869-0.183-1.465H232.551z M230.68,27.589c0.177,0.597,0.234,1.257,0.243,1.765
			c-0.424,0.093-0.852,0.012-1.289-0.027c0.059-0.532,0.146-1.141,0.09-1.737H230.68z M230.297,31.833
			c-0.474,0.024-0.497-0.199-0.618-0.636c-0.045-0.167-0.065-0.337-0.078-0.506c0.438,0.045,0.866,0.001,1.29-0.082
			c-0.026,0.404-0.061,0.81-0.072,1.207C230.645,31.819,230.471,31.824,230.297,31.833z M231.774,31.767
			c0.015-0.457,0.054-0.921,0.08-1.385c0.188-0.048,0.378-0.093,0.567-0.134c-0.008,0.186-0.017,0.373-0.017,0.559
			C232.399,31.494,232.274,31.698,231.774,31.767z"/>
		<path fill="#B3B3B3" d="M226.032,37.06h-1.594c-0.148,0-0.85-0.143-1.055-0.156c-0.195-0.282-0.659-0.462-0.805-0.136
			c-0.236-0.087-0.555-0.079-0.674,0.224c-0.543,1.372-0.651,2.944-0.495,4.401c0.026,0.26,0.196,0.462,0.479,0.463
			c1.41,0.01,2.665,0.168,4.015-0.345c0.202-0.075,0.096-0.239,0.096-0.468V37.06C226,36.799,226.292,37.06,226.032,37.06z
			 M225.271,37.549v0.81c-0.317,0.08-0.638,0.125-0.956,0.159v-0.82c0-0.037-0.003-0.072-0.01-0.104
			C224.645,37.581,224.953,37.561,225.271,37.549z M222.715,37.396c0.142,0.106,0.281,0.159,0.512,0.181
			c0.086,0.008,0.263,0.009,0.354,0.012c-0.009,0.035,0.073,0.071,0.073,0.109v0.934c-0.596,0.057-0.858,0.148-1.237,0.315
			C222.496,38.417,222.537,37.896,222.715,37.396z M222.333,40.894c-0.021-0.33-0.065-0.664-0.052-0.995
			c0.11,0.037,0.302,0.034,0.434-0.035c0.281-0.147,0.343-0.234,0.938-0.292v1.349C223.058,40.92,222.742,40.904,222.333,40.894z
			 M224.251,40.876v-1.428c0-0.028,0.597-0.058,1.193-0.116v1.361C224.848,40.788,224.251,40.842,224.251,40.876z"/>
		<path fill="#B3B3B3" d="M233.402,38.314c0.003-0.737-0.035-1.473-0.039-2.211c-0.002-0.257-0.217-0.482-0.479-0.477
			c-0.959,0.018-1.909,0.141-2.868,0.159c-0.383,0.007-0.558,0.379-0.465,0.657c-0.252-0.02-0.551,0.132-0.551,0.459v3.824
			c0,0.195,0.172,0.429,0.381,0.461c1.073,0.17,3.289,0.565,3.828-0.743C233.464,39.822,233.4,38.969,233.402,38.314z
			 M232.395,36.602c0.009,0.464,0.027,0.929,0.036,1.394c-0.074-0.085-0.191-0.143-0.344-0.138c-0.15,0.003-0.307,0.024-0.463,0.049
			c-0.008-0.417-0.014-0.836-0.014-1.255C231.872,36.632,232.134,36.614,232.395,36.602z M229.789,36.74
			c0.011,0,0.118,0.002,0.127,0.001c0.228-0.004,0.48-0.015,0.708-0.027c0.003,0.448,0.021,0.895,0.031,1.343
			c-0.179,0.013-0.465,0.011-0.636-0.023c-0.11-0.023,0.197-0.01-0.399,0.024v-1.157C229.62,36.841,229.808,36.788,229.789,36.74z
			 M229.62,40.318v-1.373c0,0.003,0.138,0.009,0.151,0.01c0.275,0.057,0.604,0.054,0.872,0.028c0.022,0.476-0.038,0.951,0.007,1.425
			C230.337,40.397,230.217,40.361,229.62,40.318z M232.419,39.387c-0.028,0.569-0.08,0.805-0.66,0.948
			c-0.002,0-0.006,0.001-0.011,0.001c-0.044-0.496-0.073-0.99-0.095-1.486c0.144-0.019,0.288-0.033,0.434-0.037
			c0.157-0.004,0.274-0.069,0.351-0.163C232.437,38.896,232.432,39.141,232.419,39.387z"/>
		<path fill="#B3B3B3" d="M226.67,45.824c-0.025-0.261-0.199-0.474-0.479-0.477c-1.224-0.013-2.44-0.145-3.665-0.16
			c-0.044,0-0.083,0.005-0.121,0.014c-0.229-0.24-0.709-0.238-0.817,0.178c-0.333,1.288-0.336,2.63-0.336,3.951
			c0,0.28,0.219,0.454,0.478,0.479c1.383,0.132,2.76,0.011,4.144,0c0.27-0.003,0.47-0.216,0.478-0.479
			C226.39,48.152,226.783,47.012,226.67,45.824z M225.732,46.289c0,0.057-0.003,0.114-0.006,0.171c-0.045,0-0.091,0.004-0.141,0.02
			c-0.465,0.143-0.964,0.216-1.465,0.229c0.017-0.165,0.04-0.332,0.076-0.496C224.708,46.241,225.222,46.272,225.732,46.289z
			 M222.525,46.144c0.236,0.003,0.471,0.011,0.707,0.021c-0.031,0.166-0.051,0.329-0.063,0.496
			c-0.282-0.039-0.559-0.098-0.821-0.178c0.018-0.119,0.029-0.239,0.053-0.356C222.438,46.137,222.48,46.143,222.525,46.144z
			 M222.208,48.888c0-0.481,0.007-0.963,0.036-1.444c0.293,0.079,0.591,0.138,0.895,0.175c0.006,0.356,0.021,0.713,0.025,1.074
			c0,0.084,0.021,0.156,0.052,0.218C222.881,48.912,222.543,48.907,222.208,48.888z M224.079,48.897
			c0.025-0.058,0.041-0.126,0.04-0.204c-0.004-0.343-0.021-0.686-0.028-1.026c0.524-0.009,1.044-0.081,1.538-0.211
			c-0.068,0.468-0.154,0.934-0.202,1.403C224.978,48.87,224.527,48.886,224.079,48.897z"/>
		<path fill="#B3B3B3" d="M233.84,44.868c0-0.257-0.216-0.479-0.477-0.478c-1.285,0.015-2.553,0.161-3.825,0.32
			c-0.293,0.037-0.443,0.278-0.454,0.51c-0.188,0.046-0.348,0.193-0.343,0.446c0.013,1.17,0.145,2.334,0.159,3.505
			c0.003,0.202,0.144,0.417,0.35,0.461c0.872,0.184,1.744,0.174,2.631,0.183c0.458,0.002,0.925-0.051,1.237-0.421
			c0.375-0.444,0.391-1.173,0.521-1.712C233.855,46.77,233.84,45.8,233.84,44.868z M232.87,45.364
			c-0.014,0.45-0.045,0.893-0.091,1.334c-0.096-0.055-0.21-0.083-0.342-0.06c-0.212,0.038-0.428,0.086-0.645,0.137
			c-0.017-0.447-0.059-0.893-0.154-1.334C232.049,45.408,232.458,45.379,232.87,45.364z M230.645,45.532
			c0.114,0.469,0.177,0.945,0.186,1.424c-0.289,0.035-0.57,0.045-0.856,0.001c-0.086-0.014-0.196-0.004-0.269,0.018
			c-0.023-0.436-0.085-0.872-0.085-1.309c0-0.007,0-0.013,0-0.019C230.217,45.605,230.314,45.568,230.645,45.532z M229.846,48.775
			c-0.012-0.296-0.024-0.592-0.046-0.888c0.353,0.048,0.7,0.044,1.044,0.008c-0.01,0.338-0.025,0.676-0.029,1.012
			C230.452,48.874,230.1,48.821,229.846,48.775z M231.769,48.918c0.007-0.393,0.021-0.787,0.028-1.18
			c0.288-0.058,0.576-0.119,0.868-0.172c-0.055,0.327-0.11,0.653-0.185,0.982C232.431,48.776,232.145,48.881,231.769,48.918z"/>
		<path fill="#B3B3B3" d="M225.84,52.694c-1.171-0.371-2.558-0.676-3.715-0.111c-0.211,0.104-0.271,0.286-0.234,0.458
			c-0.327-0.106-0.758,0.139-0.622,0.56c0.45,1.396,0.163,2.897,0.142,4.335c-0.005,0.277,0.222,0.454,0.479,0.477
			c1.087,0.098,2.104-0.274,3.186-0.318c0.204-0.008,0.416-0.139,0.462-0.352c0.321-1.513,0.483-3.051,0.653-4.589
			C226.215,52.942,226.027,52.753,225.84,52.694z M225.196,53.497c-0.041,0.37-0.083,0.739-0.13,1.108
			c-0.317,0.013-0.637,0.038-0.951,0.074c-0.038-0.492-0.104-0.98-0.232-1.458C224.33,53.258,224.783,53.374,225.196,53.497z
			 M222.607,53.409c0.098-0.048,0.198-0.085,0.302-0.115c0.149,0.495,0.22,0.999,0.261,1.507c-0.239,0.037-0.477,0.075-0.716,0.115
			c-0.024-0.503-0.094-1.001-0.244-1.491C222.328,53.476,222.465,53.479,222.607,53.409z M222.381,57.469
			c0.023-0.54,0.063-1.083,0.08-1.626c0.058,0.013,0.123,0.016,0.191,0.004c0.189-0.032,0.381-0.062,0.568-0.091
			c0.021,0.515,0.038,1.031,0.103,1.542c0.003,0.026,0.009,0.049,0.016,0.071C223.021,57.42,222.703,57.462,222.381,57.469z
			 M224.271,57.225c-0.061-0.528-0.08-1.063-0.103-1.596c0.257-0.029,0.513-0.049,0.771-0.063c-0.075,0.536-0.161,1.07-0.266,1.604
			C224.541,57.185,224.405,57.205,224.271,57.225z"/>
		<path fill="#B3B3B3" d="M233.982,52.391c-0.035-0.203-0.265-0.356-0.46-0.351c-1.107,0.031-2.281,0.484-3.378,0.336
			c-0.04-0.012-0.084-0.019-0.129-0.017c-0.521,0.022-0.957,0.393-1.082,0.883c-0.112,0.078-0.192,0.207-0.192,0.391
			c0,0.956-0.179,2.192,0.111,3.2c0.291,1.011,1.806,0.646,2.568,0.688c1.02,0.058,2.535,0.212,2.924-1.01
			C234.736,55.289,234.192,53.61,233.982,52.391z M233.286,53.958c-0.465,0.017-0.925,0.083-1.381,0.169
			c-0.051-0.304-0.104-0.609-0.15-0.914c0.458-0.069,0.914-0.149,1.372-0.19C233.182,53.334,233.234,53.645,233.286,53.958z
			 M229.578,53.826c0.093-0.088,0.042-0.213,0.042-0.352c0,0,0-0.002,0-0.003c0-0.01,0.126-0.017,0.126-0.024
			c0.009-0.016,0.077-0.033,0.089-0.049c0.005-0.005,0.038-0.009,0.052-0.024c0.014-0.013,0.033-0.017,0.038-0.021
			c0.016-0.011,0.04-0.354,0.058-0.362c0.006-0.002,0.021-0.342,0.03-0.342h0.003c0.01,0,0.02,0.332,0.029,0.331
			c0.261,0.026,0.521,0.19,0.781,0.174c-0.003,0.039-0.003,0.163,0.004,0.206c0.043,0.292,0.095,0.629,0.142,0.923
			c-0.425,0.095-0.91,0.211-1.341,0.283C229.634,54.299,229.577,54.062,229.578,53.826z M230.032,56.505
			c-0.427-0.004-0.324-0.261-0.333-0.63c-0.002-0.113-0.002-0.229-0.002-0.343c0.038,0.004,0.08,0.004,0.126-0.002
			c0.431-0.068,0.858-0.165,1.284-0.261c0.048,0.414,0.07,0.827,0.045,1.245C230.78,56.496,230.406,56.509,230.032,56.505z
			 M232.785,56.549c-0.224,0.026-0.451,0.026-0.679,0.019c0.032-0.503,0.002-1.003-0.06-1.502c0.436-0.083,0.872-0.146,1.316-0.157
			c0.018,0,0.034-0.004,0.053-0.006c0.024,0.239,0.043,0.48,0.053,0.722C233.487,56.191,233.393,56.48,232.785,56.549z"/>
		<path fill="#B3B3B3" d="M227.147,67.019c0-0.038-0.006,0.008-0.015-0.028c0.021-0.267-0.159-0.443-0.463-0.443h-0.161
			c-0.105,0-0.215-0.039-0.301,0.03c-0.012,0.009-0.024-0.025-0.035-0.015c-0.003,0.003-0.006-0.014-0.009-0.01
			c-0.019,0.018-0.044,0.025-0.058,0.046c-0.059,0.077-0.091,0.161-0.091,0.261v0.318c0,0.454,0.673,0.674,0.894,0.248
			C227.046,67.341,227.147,67.186,227.147,67.019z"/>
	</g>
	<path fill="#B3B3B3" d="M212.617,38.698c0.103-1.588,0.497-3.105,0.343-4.716c-0.147-1.518-0.922-2.871-1.703-4.142
		c-0.04-0.063-0.085-0.11-0.135-0.146c0.314-3.603-0.942-6.575-3.765-8.876c-0.034-0.027-0.072-0.049-0.108-0.066
		c-0.307-2.828-2.583-4.967-5.059-6.156c-0.101-0.078-0.237-0.112-0.398-0.062c-2.906,0.895-3.655,4.571-3.939,7.249
		c-2.281,2.254-4.431,4.368-3.669,7.786c-1.469,2.339-2.894,5.968-0.702,8.258c-1.321,2.795-2.126,5.932,0.258,8.34
		c-1.991,2.681-2.346,7.722,1.467,8.809c0.022,0.006,0.046,0.009,0.068,0.013c0.026,2.467,2.431,4.296,4.585,2.829
		c-0.162,0.773-0.331,1.543-0.501,2.312c-0.784,3.521-0.843,7.151-2.313,10.506c-0.184,0.419,0.234,0.798,0.56,0.722
		c1.896,0.684,4.252,0.281,6.142-0.232c0.021-0.006,0.039-0.015,0.058-0.023c0.333,0.193,0.863-0.218,0.653-0.681
		c-1.525-3.362-0.401-7.513-0.354-11.064c0.009-0.537,0.036-1.077,0.076-1.616c2.314-0.108,4.404-0.846,4.396-3.426
		c2.737-0.438,4.48-4.618,3.097-6.963C214.226,45.53,214.138,41.207,212.617,38.698z M202.946,48.906
		c0.89,2.462,0.723,5.229,0.478,7.935c-0.327,0.143-0.353,0.639-0.077,0.835c-0.097,1.042-0.191,2.07-0.227,3.062
		c-0.11,3.16-0.837,6.459,0.244,9.501c-1.625,0.431-3.599,0.773-5.248,0.283c1.21-3.112,1.322-6.363,2.046-9.604
		c0.855-3.845,1.757-7.749,1.599-11.713c-0.015-0.323-0.28-0.474-0.53-0.46c-1.416-0.763-1.96-3.028-2.385-4.423
		c-0.336-1.1-0.618-2.236-0.825-3.38c0.904,1.906,1.934,3.74,3.062,5.53c0.308,0.487,1.054,0.097,0.874-0.386
		c0.026-0.132-0.003-0.278-0.123-0.406c-0.408-0.431,0.184-3.487,0.252-4.272c0.093-1.062,0.156-2.133,0.203-3.204
		c0.509,2.308,1.094,4.602,1.28,6.964c0.045,0.602,0.975,0.613,0.952,0.023c0.941-0.754,1.22-1.902,1.518-3.044
		c0.1,1.193,0.186,2.394-0.034,3.545c-0.249,1.304-1.851,1.828-2.839,2.462c-0.174,0.111-0.232,0.278-0.218,0.439
		C202.909,48.681,202.901,48.786,202.946,48.906z M210.789,47.752c1.118,1.89-0.342,5.667-2.709,5.649
		c-0.243-0.002-0.499,0.218-0.478,0.478c0.208,2.354-1.487,2.826-3.35,2.906c0.229-2.683,0.551-5.379-0.334-7.972
		c1.1-0.659,2.317-1.185,2.858-2.424c0.807-1.852,0.114-4.376,0.081-6.32c0-0.035-0.004-0.066-0.009-0.097
		c0.136-0.472-0.587-0.84-0.88-0.356c-0.736,1.207-0.711,3.175-1.574,4.352c-0.407-3.146-1.371-6.191-1.803-9.337
		c-0.02-0.157-0.099-0.254-0.199-0.306c0.001-0.067,0.006-0.136,0.006-0.205c0.005-0.618-0.95-0.617-0.959,0
		c-0.026,2.65-0.138,5.329-0.371,7.97c-0.042,0.477-0.203,1.267-0.278,2.056c-1.008-1.737-1.921-3.523-2.707-5.381
		c-0.098-0.226-0.287-0.282-0.464-0.233c-0.258-0.328-0.901-0.244-0.853,0.263c0.193,2.086,0.66,4.155,1.27,6.157
		c0.479,1.57,1.176,3.869,2.775,4.66c0.056,2.459-0.293,4.887-0.767,7.296c-0.17-0.104-0.397-0.123-0.59,0.035
		c-1.688,1.39-3.32-0.45-3.221-2.212c0.019-0.326-0.241-0.477-0.496-0.456c-0.051-0.098-0.142-0.178-0.28-0.217
		c-3.314-0.945-2.466-5.739-0.638-7.7c0.323-0.347-0.004-0.827-0.363-0.823c-2.191-2.197-1.207-5.075,0.011-7.56
		c0.131-0.266,0.008-0.512-0.185-0.639c-0.021-0.053-0.054-0.104-0.101-0.153c-1.928-1.98-0.318-5.352,0.924-7.283
		c0.095-0.148,0.095-0.292,0.04-0.412c-0.792-3.203,1.423-5.09,3.498-7.141c0.109-0.108,0.149-0.232,0.141-0.35
		c0.215-2.169,0.757-5.615,3.108-6.479c2.205,1.106,4.329,3.026,4.433,5.641c0.014,0.306,0.259,0.461,0.498,0.461
		c2.589,2.174,3.669,4.861,3.328,8.25c-0.022,0.233,0.103,0.377,0.268,0.433c0.004,0.007,0.005,0.014,0.011,0.021
		c0.805,1.308,1.469,2.586,1.617,4.139c0.135,1.39-0.267,2.771-0.382,4.156c-0.038,0.085-0.051,0.183-0.019,0.287
		c0,0.034-0.007,0.067-0.008,0.1c-0.01,0.239,0.128,0.384,0.302,0.438c1.219,2.312,1.233,6.169-1.339,7.437
		C210.152,47.101,210.388,47.687,210.789,47.752z"/>
	<g>
		<g>
			<path fill="#B3B3B3" d="M89.147,57.156c0.123,1.954,0.038,3.743-0.589,5.619c-0.766,2.29-2.136,3.892-3.271,5.929
				c-0.188,0.338,0.33,0.641,0.518,0.303c1.026-1.84,2.267-3.262,3.051-5.271c0.857-2.197,1.038-4.243,0.891-6.58
				C89.723,56.771,89.123,56.769,89.147,57.156L89.147,57.156z"/>
		</g>
	</g>
	<g>
		<g>
			<path fill="#B3B3B3" d="M91.922,56.555c0.003,2.117-0.058,4.466,0.903,6.421c0.47,0.955,1.015,1.745,1.725,2.528
				c0.951,1.048,1.274,2.433,2.334,3.338c0.292,0.25,0.719-0.172,0.424-0.424c-0.833-0.712-1.177-1.825-1.786-2.71
				c-0.573-0.833-1.331-1.503-1.858-2.382c-1.205-2.009-1.139-4.515-1.143-6.771C92.521,56.168,91.921,56.167,91.922,56.555
				L91.922,56.555z"/>
		</g>
	</g>
	<g>
		<g>
			<path fill="#B3B3B3" d="M90.422,57.681c-0.029,3.353-0.717,12.42-5.92,11.185c-0.376-0.089-0.536,0.489-0.16,0.578
				c5.802,1.378,6.647-7.964,6.68-11.763C91.025,57.293,90.425,57.294,90.422,57.681L90.422,57.681z"/>
		</g>
	</g>
	<g>
		<g>
			<path fill="#B3B3B3" d="M90.422,58.43c0.201,3.149,1.035,5.218,2.637,7.9c1.333,2.232,1.488,3.408,4.192,2.739
				c0.375-0.093,0.216-0.671-0.16-0.578c-2.493,0.616-3.124-1.927-4.235-3.612c-1.334-2.024-1.682-4.066-1.834-6.449
				C90.997,58.045,90.397,58.043,90.422,58.43L90.422,58.43z"/>
		</g>
	</g>
	<g>
		<g>
			<path fill="#B3B3B3" d="M95.157,69.534c0.325,0.853,0.301,1.793,1.459,1.617c1.575-0.239,3.144-0.57,4.606-1.212
				c0.354-0.155,0.048-0.672-0.303-0.519c-1.079,0.474-2.159,0.686-3.299,0.938c-0.312,0.069-0.626,0.126-0.94,0.181
				c-0.783,0.136-0.741-0.63-0.945-1.164C95.599,69.017,95.019,69.172,95.157,69.534L95.157,69.534z"/>
		</g>
	</g>
	<g>
		<g>
			<path fill="#B3B3B3" d="M97.323,69.155c0.895-0.037,3.915-1.412,3.749,0.299c-0.038,0.385,0.563,0.381,0.6,0
				c0.243-2.503-3.136-0.95-4.349-0.899C96.938,68.572,96.937,69.171,97.323,69.155L97.323,69.155z"/>
		</g>
	</g>
	<g>
		<g>
			<path fill="#B3B3B3" d="M85.166,69.669c0.726,0.283,1.543,0.377,2.29,0.603c0.443,0.134,0.888,0.289,1.279,0.541
				c0.412,0.266,0.038,0.465-0.264,0.633c-0.338,0.188-0.036,0.706,0.303,0.518c0.372-0.207,0.859-0.542,0.761-1.038
				c-0.093-0.467-0.605-0.72-0.997-0.896c-1.03-0.461-2.172-0.534-3.211-0.939C84.965,68.95,84.81,69.531,85.166,69.669
				L85.166,69.669z"/>
		</g>
	</g>
	<g>
		<g>
			<path fill="#B3B3B3" d="M83.821,69.529c-0.053,0.41-0.189,0.785-0.409,1.124c-0.09,0.16-0.015,0.401,0.179,0.44
				c1.599,0.327,3.182,0.729,4.806,0.911c0.384,0.043,0.38-0.558,0-0.6c-1.569-0.175-3.102-0.574-4.646-0.889
				c0.06,0.146,0.119,0.293,0.179,0.44c0.268-0.476,0.43-0.887,0.491-1.427C84.465,69.146,83.865,69.149,83.821,69.529
				L83.821,69.529z"/>
		</g>
	</g>
	<g>
		<g>
			<path fill="#B3B3B3" d="M89.672,46.956c-0.478,3.979-2.226,8.847-4.459,12.148c-0.102,0.15-0.007,0.41,0.179,0.44
				c1.738,0.292,2.801,0.011,3.52-1.709c1.219-2.915,2.628-6.328,1.35-9.384c-0.146-0.352-0.728-0.198-0.578,0.159
				c0.875,2.093,0.369,3.898-0.299,5.991c-0.389,1.216-0.704,2.388-1.295,3.535c-0.668,1.109-1.304,1.31-1.904,0.6
				c0.291-0.467,0.555-0.949,0.791-1.445c1.567-3.06,2.887-6.924,3.296-10.334C90.317,46.572,89.717,46.576,89.672,46.956
				L89.672,46.956z"/>
		</g>
	</g>
	<g>
		<g>
			<path fill="#B3B3B3" d="M85.284,59.251c-0.804,0.387-2.006,0.47-2.886,0.502c-0.184,0.006-0.356,0.188-0.289,0.379
				c0.856,2.441,4.513,0.674,5.56-0.693c0.235-0.307-0.286-0.605-0.518-0.303c-0.717,0.936-3.828,2.648-4.464,0.837
				c-0.096,0.126-0.192,0.253-0.289,0.379c1.001-0.036,2.281-0.147,3.188-0.583C85.936,59.602,85.631,59.084,85.284,59.251
				L85.284,59.251z"/>
		</g>
	</g>
	<g>
		<g>
			<path fill="#B3B3B3" d="M117.298,48.019c-1.983,1.664-2.066,4.183-2.776,6.507c0.167-0.044,0.334-0.088,0.501-0.132
				c-0.718-0.823-1.205-1.729-2.161-2.297c-0.182-0.108-0.369,0.004-0.44,0.18c-0.379,0.923-1.018,1.779-1.846,2.356
				c-0.158,0.11-0.403,0.29-0.407,0.512c-0.017,0.906,0.632,1.194,1.281,1.772c1.456,1.297,4.516,2.764,6.058,0.74
				c1.268-1.664,3.555-8.609,0.383-9.491c-0.374-0.104-0.532,0.475-0.16,0.578c2.532,0.704,0.291,7.054-0.606,8.434
				c-1.048,1.613-3.133,0.685-4.325-0.032c-0.728-0.438-2.385-1.311-1.448-2.329c0.542-0.588,1.042-1.132,1.425-1.836
				c0.186-0.343,1.505,1.471,1.824,1.836c0.154,0.177,0.439,0.071,0.501-0.132c0.674-2.205,0.731-4.655,2.622-6.242
				C118.019,48.193,117.592,47.771,117.298,48.019L117.298,48.019z"/>
		</g>
	</g>
	<g>
		<g>
			<path fill="#B3B3B3" d="M123.672,48.142c3.496,4.024,5.691,10.865,0.662,14.53c-0.31,0.225-0.011,0.746,0.303,0.518
				c5.373-3.914,3.285-11.068-0.541-15.471C123.842,47.425,123.419,47.851,123.672,48.142L123.672,48.142z"/>
		</g>
	</g>
	<g>
		<g>
			<path fill="#B3B3B3" d="M117.438,60.247c3.176,0.174,6.344-0.184,9.52-0.075c0.387,0.014,0.386-0.586,0-0.6
				c-3.176-0.109-6.344,0.249-9.52,0.075C117.052,59.625,117.054,60.226,117.438,60.247L117.438,60.247z"/>
		</g>
	</g>
	<g>
		<g>
			<path fill="#B3B3B3" d="M111.887,52.696c-0.715-0.392-1.128-1.267-1.87-1.679c-0.861-0.479-1.188,0.409-1.208,1.113
				c0.126-0.096,0.253-0.193,0.38-0.289c-0.534-0.174-2.466-1.18-2.393,0.109c0.087,1.523,2.267,2.662,3.438,3.215
				c0.348,0.165,0.652-0.353,0.303-0.518c-0.994-0.47-2.165-1.119-2.823-2.021c-0.058-0.08-0.354-0.734-0.364-0.73
				c0.14-0.058,0.393,0.057,0.527,0.097c0.392,0.119,0.762,0.3,1.151,0.427c0.191,0.063,0.375-0.102,0.38-0.289
				c0.01-0.341-0.015-0.773,0.406-0.539c0.299,0.167,0.551,0.436,0.792,0.676c0.305,0.303,0.594,0.737,0.978,0.947
				C111.923,53.4,112.226,52.881,111.887,52.696L111.887,52.696z"/>
		</g>
	</g>
	<g>
		<g>
			<path fill="#B3B3B3" d="M116.202,58.882c1.107,1.918,1.79,4.111,3.205,5.838c1.362,1.662,3.796,1.979,5.242,3.596
				c0.258,0.289,0.681-0.137,0.424-0.424c-1.144-1.279-2.726-1.866-4.17-2.729c-2.229-1.331-2.95-4.45-4.183-6.584
				C116.526,58.244,116.008,58.546,116.202,58.882L116.202,58.882z"/>
		</g>
	</g>
	<g>
		<g>
			<path fill="#B3B3B3" d="M122.323,60.591c1.074,1.356,2.19,2.674,3.328,3.978c0.508,0.583,1.022,1.161,1.536,1.739
				c0.655,0.737-1.992,1.258-2.252,1.272c-0.385,0.021-0.387,0.622,0,0.6c1.201-0.067,2.399-0.484,3.108-1.499
				c0.08-0.114,0.038-0.268-0.047-0.363c-1.792-2.015-3.575-4.036-5.25-6.15C122.507,59.864,122.085,60.292,122.323,60.591
				L122.323,60.591z"/>
		</g>
	</g>
	<g>
		<g>
			<path fill="#B3B3B3" d="M127.997,66.967c0.883-0.769,1.482-1.764,2.563-2.278c-0.137-0.036-0.273-0.071-0.41-0.107
				c0.18,0.337,0.376,0.665,0.546,1.007c0.421,0.85-0.29,1.284-0.963,1.658c-0.396,0.219-0.724,0.597-1.108,0.846
				c-0.792,0.514-0.917-0.146-1.152-0.743c-0.14-0.356-0.72-0.201-0.578,0.159c0.187,0.476,0.282,1.278,0.911,1.359
				c0.813,0.106,1.438-0.453,2.026-0.934c0.699-0.572,1.525-0.768,1.627-1.78c0.065-0.64-0.507-1.345-0.792-1.876
				c-0.082-0.153-0.267-0.176-0.41-0.107c-1.136,0.54-1.758,1.564-2.685,2.372C127.281,66.797,127.707,67.22,127.997,66.967
				L127.997,66.967z"/>
		</g>
	</g>
	<g>
		<g>
			<path fill="#B3B3B3" d="M118.377,63.454c-0.507,1.112-0.893,2.275-1.426,3.375c-0.106,0.218,0.026,0.426,0.259,0.451
				c0.975,0.108,2.141,0.432,3.113,0.201c0.59-0.14,0.887-0.963,1.196-1.399c0.225-0.316-0.296-0.616-0.518-0.303
				c-0.256,0.36-0.51,1.094-1.001,1.155c-0.888,0.112-1.908-0.156-2.791-0.254c0.086,0.15,0.173,0.301,0.259,0.451
				c0.534-1.101,0.919-2.263,1.426-3.375C119.054,63.407,118.537,63.102,118.377,63.454L118.377,63.454z"/>
		</g>
	</g>
	<g>
		<g>
			<path fill="#B3B3B3" d="M117.523,67.442c-1.556,1.574,1.512,1.638,2.389,1.763c0.751,0.107,1.922,0.395,2.208-0.686
				c0.249-0.94-1.145-1.113-1.756-1.304c-0.371-0.116-0.528,0.463-0.16,0.578c0.243,0.076,1.571,0.299,1.218,0.698
				c-0.431,0.485-1.058,0.164-1.606,0.102c-0.445-0.051-0.894-0.061-1.338-0.123c-0.459-0.064-1.009-0.122-0.531-0.605
				C118.22,67.591,117.795,67.167,117.523,67.442L117.523,67.442z"/>
		</g>
	</g>
	<g>
		<path fill="#B3B3B3" d="M91.096,46.959c0.911,1.673,4.409,13.382-0.456,11.556c-2.434-0.912-0.608-3.649-0.305-5.778
			c0.151-1.672-0.76-5.017,0.761-6.234"/>
		<g>
			<path fill="#B3B3B3" d="M90.837,47.11c1.326,2.614,2.042,6.09,2.025,8.992c-0.005,0.877-0.153,2.19-1.265,2.306
				c-2.801,0.29-1.607-3.216-1.226-4.487c0.667-2.219-0.788-5.404,0.936-7.206c0.268-0.279-0.156-0.704-0.424-0.424
				c-1.001,1.045-1.01,2.375-0.96,3.759c0.078,2.187-0.284,3.834-0.752,5.953c-0.362,1.634,1.253,3.819,3.073,2.868
				c1.615-0.845,1.286-3.437,1.078-4.901c-0.338-2.384-0.869-4.994-1.969-7.162C91.18,46.462,90.662,46.766,90.837,47.11
				L90.837,47.11z"/>
		</g>
	</g>
	<g>
		<g>
			<path fill="#B3B3B3" d="M112.407,43.977c2.501,0.523,4.977,0.306,7.493,0.011c0.38-0.044,0.384-0.645,0-0.6
				c-2.461,0.288-4.883,0.522-7.333,0.011C112.189,43.319,112.029,43.897,112.407,43.977L112.407,43.977z"/>
		</g>
	</g>
	<g>
		<g>
			<path fill="#B3B3B3" d="M113.001,44.19c1.868,2.144,5.622,3.559,6.754,0.012c0.118-0.37-0.461-0.526-0.578-0.159
				c-0.991,3.104-4.24,1.457-5.752-0.277C113.17,43.474,112.748,43.9,113.001,44.19L113.001,44.19z"/>
		</g>
	</g>
	<g>
		<g>
			<path fill="#B3B3B3" d="M117.202,47.465c1.292,0.276,2.478-0.14,3.49-0.949c0.303-0.241-0.125-0.663-0.424-0.424
				c-0.835,0.667-1.841,1.022-2.906,0.795C116.984,46.806,116.824,47.384,117.202,47.465L117.202,47.465z"/>
		</g>
	</g>
	<g>
		<g>
			<path fill="#B3B3B3" d="M79.354,39.15c0.536-0.255,1.1-0.407,1.674-0.551c0.375-0.094,0.216-0.672-0.16-0.578
				c-0.625,0.157-1.232,0.334-1.816,0.612C78.701,38.798,79.006,39.315,79.354,39.15L79.354,39.15z"/>
		</g>
	</g>
	<g>
		<g>
			<path fill="#B3B3B3" d="M78.769,39.261c0.292,0.985,0.723,1.922,1.017,2.907c0.11,0.37,0.689,0.212,0.578-0.159
				c-0.293-0.985-0.724-1.921-1.017-2.907C79.237,38.732,78.658,38.89,78.769,39.261L78.769,39.261z"/>
		</g>
	</g>
	<g>
		<g>
			<path fill="#B3B3B3" d="M80.154,42.669c0.691-0.149,1.352-0.4,2.034-0.582c0.373-0.099,0.215-0.678-0.16-0.578
				c-0.682,0.181-1.343,0.432-2.034,0.582C79.616,42.172,79.777,42.751,80.154,42.669L80.154,42.669z"/>
		</g>
	</g>
</g>
<g id="_x31_3_x3000_住居エリア情報_area">
</g>
<g id="_x31_4_x3000_物件タイプ情報_x3000_style">
</g>
<g id="_x31_5_x3000_内覧_x30FB_入居フロー_x3000_step">
</g>
<g id="_x31_6_x3000_よくある質問_x3000_help">
</g>
<g id="_x31_7_x3000_便利なリンク集_x3000_link">
</g>
<g id="_x31_8_x3000_不動産オーナー様へ_x3000_owner">
</g>
<g id="mouse-over" display="none">
</g>
</svg>
