<?xml version="1.0" encoding="utf-8"?>
<!-- Generator: Adobe Illustrator 16.0.0, SVG Export Plug-In . SVG Version: 6.00 Build 0)  -->
<!DOCTYPE svg PUBLIC "-//W3C//DTD SVG 1.1//EN" "http://www.w3.org/Graphics/SVG/1.1/DTD/svg11.dtd">
<svg version="1.1" xmlns="http://www.w3.org/2000/svg" xmlns:xlink="http://www.w3.org/1999/xlink" x="0px" y="0px"
	 width="318.667px" height="120px" viewBox="0 0 318.667 120" enable-background="new 0 0 318.667 120" xml:space="preserve">
<g id="_x31_0_x3000_特集一覧_x3000_category">
</g>
<g id="_x31_1_x3000_特集個別_x3000_">
</g>
<g id="_x31_2_x3000_サポート_x3000_suport">
</g>
<g id="_x31_3_x3000_住居エリア情報_area">
</g>
<g id="_x31_4_x3000_物件タイプ情報_x3000_style">
	<polyline fill="none" stroke="#B3B3B3" stroke-width="2" stroke-miterlimit="10" points="0,115.667 47,115.667 47,29.669 
		75.996,5.669 106,29.669 106,115.667 119,115.667 119,29.669 155.995,3.669 193,29.669 193,115.667 206,115.667 206,29.669 
		221.004,15.667 250.996,15.667 266,29.669 266,115.667 316,115.667 	"/>
	<line stroke="#B3B3B3" stroke-width="2" stroke-miterlimit="10" x1="120" y1="59.667" x2="193" y2="59.667"/>
	<line stroke="#B3B3B3" stroke-width="2" stroke-miterlimit="10" x1="119" y1="89.667" x2="194" y2="89.667"/>
	<polyline fill="none" stroke="#B3B3B3" stroke-width="2" stroke-miterlimit="10" points="128,88.667 128,95.667 135,95.667 
		135,103.191 142,103.135 142,110.719 150,110.745 150,117.667 	"/>
	<polyline fill="none" stroke="#B3B3B3" stroke-width="2" stroke-miterlimit="10" points="150,60.667 150,67.667 142,67.667 
		142,74.804 135,74.749 135,82.333 128,82.358 128,89.667 	"/>
</g>
<g id="_x31_5_x3000_内覧_x30FB_入居フロー_x3000_step">
</g>
<g id="_x31_6_x3000_よくある質問_x3000_help">
</g>
<g id="_x31_7_x3000_便利なリンク集_x3000_link">
</g>
<g id="_x31_8_x3000_不動産オーナー様へ_x3000_owner">
</g>
<g id="mouse-over" display="none">
</g>
</svg>
