<?xml version="1.0" encoding="utf-8"?>
<!-- Generator: Adobe Illustrator 16.0.0, SVG Export Plug-In . SVG Version: 6.00 Build 0)  -->
<!DOCTYPE svg PUBLIC "-//W3C//DTD SVG 1.1//EN" "http://www.w3.org/Graphics/SVG/1.1/DTD/svg11.dtd">
<svg version="1.1" xmlns="http://www.w3.org/2000/svg" xmlns:xlink="http://www.w3.org/1999/xlink" x="0px" y="0px" width="241px"
	 height="206px" viewBox="0 0 241 206" enable-background="new 0 0 241 206" xml:space="preserve">
<g id="_x31_0_x3000_特集一覧_x3000_category">
</g>
<g id="_x31_1_x3000_特集個別_x3000_">
</g>
<g id="_x31_2_x3000_サポート_x3000_suport">
</g>
<g id="_x31_3_x3000_住居エリア情報_area">
</g>
<g id="_x31_4_x3000_物件タイプ情報_x3000_style">
	<circle fill="none" stroke="#E6E6E6" stroke-miterlimit="10" cx="119.002" cy="39.002" r="35"/>
	<circle fill="#E6E6E6" cx="71.002" cy="124.002" r="22"/>
	<circle fill="#E6E6E6" cx="120.002" cy="124.002" r="22"/>
	<circle fill="#E6E6E6" cx="170.002" cy="124.002" r="22"/>
	<g>
		<path d="M115.941,36.467l1.289,1.115c-1.195,1.006-2.74,2.056-4.637,3.149c1.547,2.464,3.464,4.141,5.752,5.03
			c-0.377,0.336-0.757,0.817-1.136,1.443c-3.966-1.793-6.707-5.62-8.223-11.481h-0.044c-0.567,0.481-1.336,0.999-2.296,1.553
			c1.022,0.875,1.832,1.888,2.439,3.04c0.604,1.152,0.961,2.242,1.07,3.27s0.047,1.968-0.186,2.821
			c-0.234,0.853-0.627,1.468-1.181,1.848c-0.627,0.496-1.423,0.744-2.384,0.744c-0.496,0.015-1.146,0-1.946-0.043
			c-0.073-0.671-0.234-1.203-0.481-1.597c0.685,0.073,1.385,0.109,2.099,0.109c0.699,0,1.209-0.139,1.529-0.416
			c0.425-0.321,0.704-0.853,0.845-1.597c0.137-0.744,0.105-1.596-0.099-2.559c-1.21,0.992-2.662,1.946-4.352,2.865
			c-1.691,0.918-3.316,1.641-4.876,2.165c-0.306-0.627-0.598-1.093-0.875-1.399c1.705-0.466,3.466-1.173,5.282-2.122
			c1.814-0.947,3.263-1.932,4.341-2.952c-0.146-0.35-0.409-0.831-0.787-1.443c-0.918,0.671-2.049,1.356-3.39,2.056
			c-1.342,0.7-2.597,1.261-3.762,1.684c-0.263-0.51-0.562-0.94-0.897-1.291c1.226-0.35,2.534-0.853,3.925-1.509
			c1.393-0.656,2.512-1.305,3.358-1.946c-0.35-0.379-0.691-0.714-1.027-1.006c-1.532,0.758-3.362,1.465-5.491,2.122
			c-0.292-0.51-0.598-0.94-0.918-1.291c3.207-0.802,5.794-1.837,7.764-3.105h-4.768V34.28h12.532v1.443h-3.959
			c0.336,1.269,0.817,2.515,1.443,3.74C113.5,38.443,114.848,37.444,115.941,36.467z M100.654,32.05v2.865h-1.641v-4.417h8.332
			v-1.968h1.664v1.968h8.507v4.417h-1.706V32.05H100.654z"/>
		<path d="M123.857,36.423v-3.871c-0.743,0.568-1.604,1.137-2.581,1.706c-0.35-0.452-0.75-0.845-1.203-1.181
			c1.138-0.554,2.238-1.239,3.303-2.056c1.062-0.816,1.931-1.655,2.601-2.515l1.531,0.568c-0.524,0.686-1.216,1.407-2.077,2.166
			v5.183H123.857z M127.27,45.871l1.509,0.656c-1.778,0.977-4.075,1.808-6.889,2.493c-0.482-0.554-0.89-0.962-1.223-1.225
			C123.479,47.285,125.681,46.644,127.27,45.871z M123.53,45.631v-8.376h14.478v8.376H123.53z M125.148,38.326v1.4h11.197v-1.4
			H125.148z M125.148,40.754v1.377h11.197v-1.377H125.148z M125.148,43.181v1.378h11.197v-1.378H125.148z M132.584,32.071v-1.509
			c-1.313,0.102-2.791,0.175-4.44,0.219c-0.044-0.35-0.153-0.707-0.328-1.072c4.693-0.204,8.084-0.517,10.169-0.94l0.983,1.05
			c-1.531,0.277-3.126,0.489-4.788,0.634v1.618h6.298v1.225h-6.298v1.618h5.292v1.225h-11.81v-1.225h4.921v-1.618h-5.862v-1.225
			H132.584z M132.387,46.724l1.4-0.809c2.492,0.671,4.744,1.407,6.757,2.209l-1.902,0.831
			C137.184,48.284,135.098,47.541,132.387,46.724z"/>
	</g>
	<g>
		<path d="M118.649,96.636v-7.301h-6.78v-2.281h6.78v-7.269h2.444v7.269h6.748v2.281h-6.748v7.301H118.649z"/>
	</g>
	<g>
		<path d="M63.994,124.146v-2.971h-4.075v1.815h-0.875v-2.514h4.95v-0.8h-4.215v-0.749h9.446v0.749h-4.291v0.8h5.04v2.514h-0.901
			v-1.815h-4.139v2.971H63.994z M65.848,129.363h2.895c0.338,0,0.561-0.093,0.665-0.279c0.106-0.186,0.177-0.605,0.211-1.257
			c0.253,0.161,0.536,0.271,0.851,0.33c-0.067,0.795-0.209,1.322-0.425,1.581c-0.216,0.258-0.627,0.387-1.239,0.387H65.81
			c-0.736,0-1.229-0.087-1.479-0.26s-0.374-0.519-0.374-1.035v-0.419h-2.882v0.686h-0.928v-4.52h8.761v3.834h-4.024v0.419
			c0,0.22,0.06,0.364,0.177,0.432C65.177,129.33,65.441,129.363,65.848,129.363z M60.338,123.803v-0.609h2.997v0.609H60.338z
			 M63.334,121.873v0.597h-2.743v-0.597H63.334z M63.956,125.288h-2.882v0.889h2.882V125.288z M61.074,127.713h2.882v-0.876h-2.882
			V127.713z M67.968,126.177v-0.889h-3.085v0.889H67.968z M64.883,127.713h3.085v-0.876h-3.085V127.713z M65.619,121.873h2.779
			v0.597h-2.779V121.873z M65.619,123.803v-0.609h3.098v0.609H65.619z"/>
		<path d="M83,120.565h-8.469c-0.594,1.185-1.295,2.158-2.107,2.92c-0.221-0.195-0.517-0.402-0.889-0.622
			c0.625-0.516,1.181-1.17,1.663-1.961s0.859-1.644,1.129-2.558l1.003,0.229c-0.085,0.271-0.229,0.66-0.433,1.168H83V120.565z
			 M77.806,124.488l0.903,0.317c-0.45,0.787-1,1.541-1.652,2.26c0.948,0.677,1.721,1.337,2.323,1.98l-0.762,0.724
			c-0.543-0.618-1.296-1.287-2.26-2.006c-1.106,1.049-2.36,1.909-3.757,2.577c-0.194-0.262-0.432-0.508-0.712-0.736
			c1.38-0.584,2.616-1.379,3.708-2.387c-0.779-0.559-1.599-1.083-2.463-1.574l0.686-0.635c0.879,0.5,1.71,1.007,2.488,1.523
			C76.893,125.915,77.392,125.233,77.806,124.488z M72.817,123.435h8.403c0.01,1.913,0.094,3.369,0.253,4.367
			c0.163,0.999,0.468,1.498,0.916,1.498c0.212,0,0.33-0.609,0.354-1.828c0.204,0.22,0.429,0.406,0.675,0.559
			c-0.041,0.838-0.14,1.416-0.291,1.733c-0.154,0.317-0.42,0.48-0.801,0.489c-0.34,0-0.629-0.1-0.869-0.298
			c-0.243-0.199-0.435-0.457-0.579-0.774s-0.259-0.745-0.35-1.282c-0.087-0.538-0.151-1.079-0.189-1.625
			c-0.039-0.546-0.066-1.212-0.083-2h-7.439V123.435z M81.768,122.394h-7.465v-0.8h7.465V122.394z"/>
	</g>
	<g>
		<path d="M113.197,121.568h3.097c0.321,0,0.6-0.021,0.838-0.063l0.723,0.355c-0.041,0.237-0.062,0.453-0.062,0.647
			c-0.136,3.334-0.404,5.425-0.8,6.271c-0.245,0.533-0.708,0.8-1.384,0.8c-0.499,0-1.198-0.034-2.096-0.102l-0.126-1.079
			c0.796,0.102,1.439,0.152,1.93,0.152c0.381,0,0.634-0.14,0.762-0.419c0.22-0.449,0.385-1.257,0.495-2.425s0.165-2.222,0.165-3.161
			h-3.644c-0.228,1.794-0.664,3.246-1.308,4.354c-0.643,1.109-1.535,2.057-2.678,2.844l-0.939-0.774
			c0.516-0.271,0.961-0.588,1.333-0.952c1.387-1.252,2.243-3.077,2.564-5.472h-2.183c-0.686,0-1.181,0.017-1.485,0.051v-1.092
			c0.508,0.042,0.999,0.063,1.473,0.063h2.297c0.035-0.559,0.051-0.999,0.051-1.32c0-0.313-0.034-0.673-0.101-1.079h1.231
			c-0.035,0.254-0.06,0.605-0.076,1.054C113.273,120.282,113.249,120.73,113.197,121.568z M116.104,119.359l0.686-0.305
			c0.321,0.449,0.677,1.041,1.065,1.777l-0.697,0.317C116.828,120.481,116.477,119.884,116.104,119.359z M117.526,118.839
			l0.698-0.305c0.483,0.686,0.842,1.274,1.079,1.765l-0.698,0.317C118.209,119.846,117.848,119.253,117.526,118.839z"/>
		<path d="M129.739,120.045l0.659,0.508c-0.109,0.152-0.215,0.343-0.316,0.571c-0.56,1.414-1.287,2.683-2.184,3.809
			c0.635,0.542,1.303,1.176,2.006,1.904c0.702,0.728,1.299,1.384,1.79,1.968l-0.916,0.8c-1.066-1.396-2.259-2.683-3.58-3.859
			c-1.607,1.727-3.297,2.992-5.064,3.796l-0.838-0.876c0.999-0.389,1.964-0.929,2.894-1.619c0.932-0.69,1.752-1.437,2.464-2.241
			c0.447-0.508,0.88-1.106,1.295-1.796c0.414-0.69,0.701-1.297,0.863-1.822h-5.065c-0.415,0-0.854,0.021-1.32,0.063v-1.181
			c0.414,0.059,0.854,0.089,1.32,0.089h5.014C129.168,120.159,129.494,120.121,129.739,120.045z"/>
	</g>
	<g>
		<path d="M161.699,121.645l0.635,0.241c-0.314,1.65-0.832,3.081-1.556,4.291c-0.724,1.21-1.581,2.15-2.569,2.818
			c-0.078-0.11-0.196-0.248-0.357-0.413s-0.295-0.286-0.406-0.362c0.863-0.542,1.618-1.291,2.266-2.247
			c0.646-0.957,1.124-2.065,1.428-3.326h-3.388v-0.965h3.743L161.699,121.645z M168.199,120.477l0.863,0.622
			c-1.244,1.363-2.426,2.484-3.542,3.364c1.091,1.913,2.447,3.216,4.064,3.91c-0.315,0.262-0.558,0.554-0.726,0.876
			c-2.09-1.024-3.702-3.009-4.837-5.954v5.573c0,0.338-0.046,0.597-0.139,0.774s-0.25,0.313-0.471,0.406
			c-0.354,0.135-1.15,0.203-2.385,0.203c-0.035-0.288-0.161-0.639-0.381-1.054c0.415,0.017,1.088,0.025,2.019,0.025
			c0.237-0.008,0.355-0.127,0.355-0.355v-10.461h1.002v2.349c0.297,1.083,0.66,2.065,1.093,2.945
			C166.418,122.559,167.446,121.484,168.199,120.477z"/>
		<path d="M173.429,123.46v4.151c0.584,0.906,1.664,1.392,3.239,1.46c1.869,0.068,3.81,0.034,5.825-0.102
			c-0.177,0.406-0.283,0.736-0.317,0.99c-2.066,0.076-3.902,0.084-5.508,0.025c-1.652-0.059-2.875-0.567-3.67-1.523
			c-0.635,0.559-1.291,1.113-1.968,1.663l-0.521-0.978c0.668-0.44,1.33-0.935,1.981-1.485v-3.288h-1.815v-0.914H173.429z
			 M173.797,120.692l-0.762,0.635c-0.194-0.305-0.5-0.649-0.92-1.035c-0.418-0.385-0.848-0.726-1.288-1.022l0.71-0.571
			c0.431,0.279,0.861,0.605,1.289,0.978S173.578,120.388,173.797,120.692z M175.156,121.848h2.171
			c0.11-0.576,0.175-0.918,0.19-1.028h-3.442v-0.8h2.198c-0.169-0.406-0.446-0.846-0.826-1.32l0.737-0.292
			c0.474,0.491,0.796,0.982,0.965,1.473l-0.331,0.14h2.106c0.374-0.55,0.679-1.1,0.916-1.65l0.964,0.241
			c-0.345,0.592-0.643,1.062-0.886,1.409h2.36v0.8h-3.708c-0.008,0.034-0.131,0.376-0.367,1.028h3.034v6.132h-6.081V121.848z
			 M180.272,123.676v-1.079h-4.202v1.079H180.272z M180.272,125.44v-1.066h-4.202v1.066H180.272z M180.272,127.23v-1.079h-4.202
			v1.079H180.272z"/>
	</g>
	<circle fill="#E6E6E6" cx="95.002" cy="169.002" r="22"/>
	<g>
		<path d="M82.862,162.738v4.619c0,0.638,0.025,1.07,0.075,1.3h-1.365c0.043-0.33,0.064-0.763,0.064-1.3v-3.91
			c-1.316,0.695-2.646,1.232-3.984,1.611l-0.624-1.063c0.896-0.208,1.784-0.494,2.665-0.859s1.647-0.748,2.298-1.149
			c0.566-0.358,1.11-0.759,1.634-1.203c0.521-0.444,0.935-0.863,1.235-1.257l0.934,0.849
			C84.929,161.242,83.951,162.029,82.862,162.738z"/>
		<path d="M88.272,168.55l-0.741-1.139c1.61-0.243,3.055-0.755,4.33-1.536c0.844-0.516,1.604-1.149,2.276-1.901
			c0.673-0.752,1.187-1.5,1.536-2.245l0.667,1.192c-0.421,0.745-0.964,1.47-1.628,2.175c-0.663,0.706-1.406,1.309-2.229,1.81
			C91.124,167.737,89.719,168.285,88.272,168.55z M87.863,160.912l0.807-0.859c0.4,0.265,0.896,0.636,1.482,1.112
			c0.587,0.477,1.031,0.872,1.332,1.187l-0.87,0.892c-0.308-0.315-0.747-0.716-1.317-1.203
			C88.729,161.553,88.252,161.177,87.863,160.912z"/>
		<path d="M104.833,160.654l0.89,0.559c-0.129,0.236-0.229,0.462-0.3,0.677c-0.33,1.089-0.853,2.142-1.569,3.158
			c0.388,0.251,0.738,0.487,1.054,0.709l-0.763,1.01c-0.279-0.222-0.631-0.479-1.053-0.773c-1.103,1.246-2.499,2.195-4.189,2.847
			l-1-0.881c1.67-0.501,3.08-1.368,4.233-2.6c-0.852-0.551-1.604-1.01-2.255-1.375l0.73-0.827c0.645,0.337,1.399,0.767,2.267,1.289
			c0.658-0.952,1.091-1.844,1.299-2.675h-3.502c-0.86,1.182-1.823,2.134-2.89,2.857l-0.945-0.709c0.853-0.53,1.57-1.131,2.154-1.805
			c0.582-0.673,1.041-1.325,1.37-1.955c0.186-0.286,0.322-0.616,0.408-0.988l1.255,0.397c-0.271,0.444-0.457,0.767-0.558,0.967
			l-0.128,0.247h2.663C104.32,160.783,104.595,160.74,104.833,160.654z"/>
		<path d="M106.869,164.693v-1.354c0.425,0.043,0.914,0.064,1.47,0.064h5.374c0.259,0,0.628-0.021,1.114-0.064v1.354
			c-0.594-0.028-0.961-0.043-1.104-0.043h-5.384C107.797,164.65,107.306,164.665,106.869,164.693z"/>
		<path d="M86.703,178.607v2.879c0,0.294,0.018,0.727,0.054,1.3h-1.248c0.051-0.373,0.077-0.806,0.077-1.3
			c0-0.974,0.003-1.697,0.011-2.17c-0.968,0.537-2.159,1.021-3.577,1.45l-0.666-1.021c1.633-0.372,3.12-0.995,4.469-1.869
			c0.437-0.279,0.844-0.591,1.219-0.935c0.377-0.344,0.66-0.648,0.853-0.913h-4.307c-0.358,0-0.823,0.018-1.397,0.054v-1.149
			c0.372,0.043,0.827,0.064,1.365,0.064h2.051v-0.645c0-0.401-0.021-0.73-0.063-0.988H86.8c-0.05,0.401-0.075,0.73-0.075,0.988
			v0.645h1.611c0.344,0,0.605-0.028,0.783-0.086l0.721,0.698c-0.394,0.408-0.63,0.663-0.709,0.763
			C88.385,177.232,87.576,177.978,86.703,178.607z M87.563,179.177l0.72-0.816c1.054,0.566,1.937,1.092,2.653,1.579l-0.73,0.956
			C89.352,180.244,88.472,179.671,87.563,179.177z"/>
		<path d="M92.328,176.771l1.031-0.376c0.301,0.587,0.637,1.422,1.01,2.503l-1.042,0.387c-0.101-0.329-0.263-0.78-0.489-1.354
			C92.613,177.358,92.442,176.971,92.328,176.771z M98.73,176.147l1.212,0.387c-0.128,0.365-0.199,0.584-0.213,0.655
			c-0.345,1.347-0.854,2.449-1.536,3.309c-0.932,1.203-2.138,2.091-3.621,2.664l-0.913-0.935c0.659-0.186,1.317-0.483,1.971-0.892
			c0.656-0.408,1.204-0.884,1.639-1.429c0.38-0.473,0.698-1.043,0.956-1.713C98.482,177.524,98.65,176.842,98.73,176.147z
			 M94.895,176.169l1.03-0.344c0.416,0.988,0.71,1.783,0.883,2.385l-1.042,0.376c-0.064-0.272-0.195-0.68-0.392-1.225
			C95.177,176.817,95.018,176.42,94.895,176.169z"/>
		<path d="M109.834,178.36l-0.507,1.192c-1.168-0.623-2.553-1.196-4.157-1.719v3.405c0,0.458,0.033,0.928,0.097,1.407h-1.354
			c0.058-0.415,0.086-0.884,0.086-1.407v-6.359c0-0.444-0.032-0.855-0.098-1.235h1.354c-0.058,0.652-0.086,1.063-0.086,1.235v1.719
			c0.752,0.229,1.584,0.516,2.498,0.859C108.58,177.802,109.303,178.103,109.834,178.36z"/>
	</g>
	<circle fill="#E6E6E6" cx="146.002" cy="169.002" r="22"/>
	<g>
		<path d="M131.173,161.492h4.997c0.451,0,0.809-0.021,1.074-0.064v1.192c-0.373-0.021-0.73-0.032-1.074-0.032h-1.719
			c-0.093,1.482-0.42,2.722-0.978,3.717c-0.557,0.996-1.339,1.812-2.342,2.449l-1.171-0.795c0.33-0.136,0.649-0.318,0.958-0.548
			c1.431-1.096,2.21-2.703,2.34-4.823h-2.6c-0.236,0.437-0.521,0.87-0.849,1.3s-0.648,0.777-0.957,1.042l-1.097-0.666
			c0.668-0.494,1.316-1.268,1.946-2.32c0.236-0.422,0.443-0.931,0.623-1.525c0.101-0.344,0.16-0.669,0.183-0.978l1.343,0.258
			c-0.058,0.136-0.161,0.412-0.312,0.827C131.46,160.74,131.34,161.063,131.173,161.492z"/>
		<path d="M138.014,164.693v-1.354c0.426,0.043,0.915,0.064,1.469,0.064h5.376c0.257,0,0.628-0.021,1.112-0.064v1.354
			c-0.593-0.028-0.961-0.043-1.104-0.043h-5.385C138.941,164.65,138.451,164.665,138.014,164.693z"/>
		<path d="M155.152,160.504l-0.419,0.172l0.603,0.397c-0.042,0.086-0.11,0.301-0.194,0.645c-0.387,1.755-0.938,3.101-1.655,4.039
			c-1.066,1.411-2.52,2.403-4.359,2.976l-0.947-1.031c1.833-0.444,3.266-1.317,4.297-2.621c0.358-0.451,0.657-0.99,0.898-1.617
			c0.239-0.626,0.398-1.212,0.477-1.756h-5.403c-0.23,0-0.623,0.011-1.182,0.032v-1.225c0.365,0.05,0.759,0.075,1.182,0.075h5.338
			c0.208,0,0.369-0.007,0.484-0.021c-0.194-0.379-0.434-0.78-0.72-1.203l0.73-0.312
			C154.568,159.455,154.858,159.938,155.152,160.504z M155.013,159.075l0.741-0.312c0.351,0.509,0.648,0.992,0.892,1.45
			l-0.741,0.333C155.502,159.816,155.206,159.326,155.013,159.075z"/>
		<path d="M157.511,168.614l-1.052-0.709c0.894-0.63,1.525-1.521,1.89-2.675c0.215-0.651,0.322-2.112,0.322-4.383
			c0-0.365-0.03-0.662-0.086-0.892h1.277c-0.036,0.287-0.053,0.58-0.053,0.881c0,2.292-0.115,3.856-0.343,4.694
			C159.128,166.763,158.479,167.791,157.511,168.614z M162.25,168.614l-0.732-0.612c0.058-0.243,0.087-0.473,0.087-0.688v-6.51
			c0-0.136-0.005-0.272-0.017-0.408c-0.01-0.136-0.022-0.245-0.037-0.328c-0.016-0.082-0.022-0.13-0.022-0.145h1.279
			c-0.036,0.215-0.054,0.509-0.054,0.881v6.08c0.516-0.236,1.051-0.578,1.604-1.026c0.558-0.447,1.02-0.947,1.394-1.499l0.654,0.945
			c-0.446,0.595-1.01,1.164-1.697,1.708c-0.688,0.544-1.369,0.985-2.041,1.321C162.604,168.363,162.464,168.457,162.25,168.614z"/>
		<path d="M143.652,182.249v-7.025h-2.374v-1.074h6.036v1.074h-2.385v7.025H143.652z"/>
		<path d="M149.052,182.249l-2.535-8.1h1.353l1.204,4.189c0.086,0.294,0.204,0.729,0.354,1.305c0.15,0.577,0.276,1.026,0.376,1.348
			h0.054c0.102-0.336,0.229-0.795,0.386-1.375c0.158-0.58,0.276-1.006,0.354-1.278l1.194-4.189h1.299l-2.524,8.1H149.052z"/>
	</g>
	<g>
		<path fill="#F7931E" d="M156.769,88.648l-3.138-12.497l9.038-2.269l0.369,1.475l-7.383,1.854l0.961,3.828l6.914-1.736l0.37,1.467
			l-6.914,1.735l1.067,4.254l7.671-1.926l0.371,1.475L156.769,88.648z"/>
		<path fill="#F7931E" d="M167.108,86.053l3.198-7.726l-5.763-4.915l1.968-0.494l3.073,2.636c0.638,0.547,1.101,0.974,1.391,1.282
			c0.163-0.524,0.374-1.082,0.631-1.672l1.683-3.947l1.799-0.452l-2.911,6.993l6.39,5.419l-2.047,0.514l-4.265-3.669
			c-0.239-0.212-0.491-0.444-0.755-0.699c-0.164,0.524-0.285,0.888-0.361,1.088l-2.043,5.144L167.108,86.053z"/>
		<path fill="#F7931E" d="M187.841,76.19l1.759,0.003c-0.006,1.445-0.369,2.638-1.092,3.577c-0.722,0.939-1.733,1.572-3.034,1.898
			c-1.346,0.338-2.511,0.34-3.493,0.002c-0.98-0.336-1.824-0.969-2.524-1.899c-0.702-0.929-1.202-1.991-1.502-3.184
			c-0.326-1.301-0.364-2.499-0.108-3.594c0.254-1.092,0.777-2.007,1.569-2.739c0.791-0.734,1.738-1.239,2.841-1.516
			c1.249-0.313,2.38-0.259,3.394,0.164c1.011,0.422,1.83,1.168,2.456,2.238l-1.532,0.792c-0.518-0.836-1.104-1.393-1.76-1.669
			c-0.656-0.277-1.401-0.31-2.237-0.1c-0.96,0.241-1.706,0.672-2.235,1.295c-0.531,0.622-0.827,1.353-0.894,2.196
			c-0.067,0.84,0.003,1.673,0.21,2.497c0.267,1.063,0.653,1.952,1.163,2.668c0.507,0.713,1.139,1.186,1.89,1.414
			c0.752,0.228,1.509,0.246,2.271,0.055c0.926-0.232,1.644-0.696,2.151-1.392C187.642,78.201,187.877,77.299,187.841,76.19z"/>
		<path fill="#F7931E" d="M192.563,79.663l-3.138-12.497l1.655-0.415l2.768,11.022l6.155-1.545l0.369,1.475L192.563,79.663z"/>
		<path fill="#F7931E" d="M207.404,62.653l1.653-0.415l1.813,7.22c0.314,1.256,0.422,2.289,0.324,3.099
			c-0.097,0.81-0.46,1.541-1.085,2.189c-0.625,0.65-1.541,1.125-2.746,1.427c-1.17,0.294-2.178,0.333-3.023,0.116
			c-0.846-0.217-1.523-0.667-2.035-1.352c-0.509-0.684-0.929-1.688-1.261-3.013l-1.814-7.22l1.653-0.415l1.811,7.212
			c0.273,1.085,0.574,1.86,0.904,2.324c0.332,0.464,0.78,0.772,1.34,0.928c0.563,0.155,1.197,0.143,1.908-0.035
			c1.216-0.306,2.013-0.798,2.392-1.479s0.37-1.806-0.022-3.375L207.404,62.653z"/>
		<path fill="#F7931E" d="M214.949,74.044l-3.137-12.497l4.305-1.081c0.971-0.244,1.728-0.37,2.27-0.379
			c0.758-0.016,1.443,0.129,2.056,0.435c0.8,0.391,1.474,0.98,2.017,1.764c0.544,0.786,0.957,1.734,1.235,2.848
			c0.239,0.949,0.338,1.818,0.301,2.607c-0.036,0.789-0.169,1.467-0.395,2.033c-0.225,0.568-0.511,1.042-0.854,1.42
			c-0.343,0.379-0.788,0.712-1.335,1c-0.546,0.289-1.197,0.528-1.952,0.717L214.949,74.044z M216.232,72.154l2.668-0.669
			c0.824-0.207,1.451-0.446,1.882-0.717c0.43-0.271,0.749-0.581,0.957-0.93c0.295-0.49,0.468-1.093,0.521-1.812
			c0.054-0.716-0.039-1.546-0.275-2.49c-0.328-1.308-0.795-2.257-1.4-2.853c-0.606-0.593-1.246-0.933-1.918-1.017
			c-0.487-0.06-1.224,0.034-2.206,0.281l-2.625,0.659L216.232,72.154z"/>
		<path fill="#F7931E" d="M227.589,70.87l-3.136-12.497l9.037-2.268l0.371,1.475l-7.382,1.853l0.961,3.828l6.912-1.735l0.368,1.466
			l-6.913,1.735l1.069,4.254l7.671-1.926l0.372,1.475L227.589,70.87z"/>
	</g>
</g>
<g id="_x31_5_x3000_内覧_x30FB_入居フロー_x3000_step">
</g>
<g id="_x31_6_x3000_よくある質問_x3000_help">
</g>
<g id="_x31_7_x3000_便利なリンク集_x3000_link">
</g>
<g id="_x31_8_x3000_不動産オーナー様へ_x3000_owner">
</g>
<g id="mouse-over" display="none">
</g>
</svg>
