<?xml version="1.0" encoding="utf-8"?>
<!-- Generator: Adobe Illustrator 16.0.0, SVG Export Plug-In . SVG Version: 6.00 Build 0)  -->
<!DOCTYPE svg PUBLIC "-//W3C//DTD SVG 1.1//EN" "http://www.w3.org/Graphics/SVG/1.1/DTD/svg11.dtd">
<svg version="1.1" id="Layer_1" xmlns="http://www.w3.org/2000/svg" xmlns:xlink="http://www.w3.org/1999/xlink" x="0px" y="0px"
	 width="30px" height="30px" viewBox="0 0 30 30" enable-background="new 0 0 30 30" xml:space="preserve">
<g>
	<path d="M15.9,23.6c0,0.5-0.4,0.9-0.9,0.9c-0.5,0-0.9-0.4-0.9-0.9c0-0.5,0.4-0.9,0.9-0.9C15.5,22.7,15.9,23.1,15.9,23.6L15.9,23.6z
		 M15.9,23.6"/>
	<path d="M14.8,6.3C11.9,6.3,10,8.1,10,11c0,0.3,0.2,0.5,0.5,0.5c0.3,0,0.5-0.2,0.5-0.5c0-2.4,1.4-3.8,3.8-3.8
		c3.7,0,4.2,2.7,4.2,4.2c0,1.5-1.3,3.3-2.9,4.1c-1.9,0.9-1.6,4-1.6,4.1c0,0.2,0.2,0.4,0.5,0.4c0,0,0,0,0.1,0c0.3,0,0.4-0.3,0.4-0.5
		c0,0-0.3-2.6,1-3.2c2-0.9,3.5-3,3.5-4.9C20,8.2,18,6.3,14.8,6.3L14.8,6.3z M14.8,6.3"/>
	<path d="M15,0C6.7,0,0,6.7,0,15c0,8.3,6.7,15,15,15c8.3,0,15-6.7,15-15C30,6.7,23.3,0,15,0L15,0z M15,29.1
		C7.3,29.1,0.9,22.8,0.9,15C0.9,7.3,7.3,0.9,15,0.9c7.8,0,14.1,6.3,14.1,14.1C29.1,22.8,22.8,29.1,15,29.1L15,29.1z M15,29.1"/>
</g>
<g>
</g>
<g>
</g>
<g>
</g>
<g>
</g>
<g>
</g>
<g>
</g>
</svg>
