<?xml version="1.0" encoding="utf-8"?>
<!-- Generator: Adobe Illustrator 16.0.0, SVG Export Plug-In . SVG Version: 6.00 Build 0)  -->
<!DOCTYPE svg PUBLIC "-//W3C//DTD SVG 1.1//EN" "http://www.w3.org/Graphics/SVG/1.1/DTD/svg11.dtd">
<svg version="1.1" id="Layer_1" xmlns="http://www.w3.org/2000/svg" xmlns:xlink="http://www.w3.org/1999/xlink" x="0px" y="0px"
	 width="29px" height="30.7px" viewBox="0 0 29 30.7" enable-background="new 0 0 29 30.7" xml:space="preserve">
<g>
	<path d="M27.4,0H1.6C0.7,0,0,0.7,0,1.6v27.4c0,0.9,0.7,1.6,1.6,1.6h25.8c0.9,0,1.6-0.7,1.6-1.6V1.6C29,0.7,28.2,0,27.4,0L27.4,0z
		 M28,29.1c0,0.4-0.3,0.7-0.7,0.7H1.6c-0.4,0-0.7-0.3-0.7-0.7V1.6c0-0.4,0.3-0.7,0.7-0.7h25.8c0.4,0,0.7,0.3,0.7,0.7V29.1z M28,29.1
		"/>
	<path d="M6.1,20.4h-2c-0.9,0-1.6,0.7-1.6,1.6v2c0,0.9,0.7,1.6,1.6,1.6h2c0.9,0,1.6-0.7,1.6-1.6v-2C7.7,21.1,7,20.4,6.1,20.4
		L6.1,20.4z M6.8,24c0,0.4-0.3,0.7-0.7,0.7h-2c-0.4,0-0.7-0.3-0.7-0.7v-2c0-0.4,0.3-0.7,0.7-0.7h2c0.4,0,0.7,0.3,0.7,0.7V24z
		 M6.8,24"/>
	<path d="M7.4,5.8C7.1,5.4,6.7,5.1,6.1,5.1h-2c-0.9,0-1.6,0.7-1.6,1.6v2c0,0.9,0.7,1.6,1.6,1.6h2c0.9,0,1.6-0.7,1.6-1.6v-2
		c0,0,0-0.1,0-0.1l1.2-1.2L8.4,4.8L7.4,5.8z M6.8,8.7c0,0.4-0.3,0.7-0.7,0.7h-2C3.8,9.3,3.5,9,3.5,8.7v-2C3.5,6.3,3.8,6,4.1,6h2
		c0.3,0,0.5,0.2,0.6,0.4L5.3,7.9l-1-1L3.8,7.4l1.3,1.3l0,0L5.3,9l1.5-1.5V8.7z M6.8,8.7"/>
	<path d="M8.4,12.4l-1,1c-0.3-0.4-0.8-0.7-1.3-0.7h-2c-0.9,0-1.6,0.7-1.6,1.6v2c0,0.9,0.7,1.6,1.6,1.6h2c0.9,0,1.6-0.7,1.6-1.6v-2
		c0-0.1,0-0.1,0-0.1L8.9,13L8.4,12.4z M6.8,16.3c0,0.4-0.3,0.7-0.7,0.7h-2c-0.4,0-0.7-0.3-0.7-0.7v-2c0-0.4,0.3-0.7,0.7-0.7h2
		c0.3,0,0.5,0.2,0.6,0.4l-1.4,1.4l-1-1l-0.5,0.5l1.3,1.3l0,0l0.2,0.2l1.5-1.5V16.3z M6.8,16.3"/>
	<rect x="9.8" y="5.6" width="14.4" height="0.8"/>
	<rect x="9.8" y="7.3" width="7.6" height="0.8"/>
	<rect x="9.8" y="14.1" width="14.4" height="0.8"/>
	<rect x="9.8" y="15.8" width="11.9" height="0.8"/>
	<rect x="9.8" y="21.7" width="13.6" height="0.8"/>
</g>
<g>
</g>
<g>
</g>
<g>
</g>
<g>
</g>
<g>
</g>
<g>
</g>
</svg>
