<?xml version="1.0" encoding="utf-8"?>
<!-- Generator: Adobe Illustrator 16.0.0, SVG Export Plug-In . SVG Version: 6.00 Build 0)  -->
<!DOCTYPE svg PUBLIC "-//W3C//DTD SVG 1.1//EN" "http://www.w3.org/Graphics/SVG/1.1/DTD/svg11.dtd">
<svg version="1.1" id="Layer_1" xmlns="http://www.w3.org/2000/svg" xmlns:xlink="http://www.w3.org/1999/xlink" x="0px" y="0px"
	 width="36.5px" height="28.5px" viewBox="0 0 36.5 28.5" enable-background="new 0 0 36.5 28.5" xml:space="preserve">
<g>
	<path fill="#010101" d="M8.2,28.4C8.2,28.4,8.3,28.4,8.2,28.4c0.1,0,0.2,0.1,0.2,0.1c0,0,0.1,0,0.1,0l9.7-2.6l9.7,2.6
		c0,0,0.1,0,0.1,0c0.1,0,0.1,0,0.2-0.1c0,0,0,0,0,0l8-4.9c0.2-0.1,0.3-0.3,0.2-0.5L32.1,7.5c0-0.1-0.1-0.2-0.3-0.3
		c-0.1-0.1-0.3,0-0.4,0L27,9.7c-0.2,0.1-0.3,0.4-0.2,0.6c0.1,0.2,0.4,0.3,0.6,0.2l3.9-2.2L35.6,23l-7.1,4.4l-1.7-13.6
		c0-0.2-0.3-0.4-0.5-0.4c-0.2,0-0.4,0.3-0.4,0.5l1.7,13.6L18.7,25v-2.4c0-0.2-0.2-0.4-0.4-0.4s-0.4,0.2-0.4,0.4V25L9,27.5l1.7-13.6
		c0-0.2-0.1-0.5-0.4-0.5c-0.2,0-0.5,0.1-0.5,0.4L8.1,27.3L1,23L5.2,8.2l3.9,2.2c0.2,0.1,0.5,0,0.6-0.2c0.1-0.2,0-0.5-0.2-0.6
		L5.1,7.2C5,7.1,4.8,7.1,4.7,7.2C4.6,7.2,4.5,7.3,4.5,7.5L0,23c-0.1,0.2,0,0.4,0.2,0.5L8.2,28.4z"/>
	<path fill="#010101" d="M18,20.8c0.1,0.1,0.2,0.1,0.3,0.1c0.1,0,0.2,0,0.3-0.1c0.3-0.3,7.3-6.7,7.3-13.2c0-4.2-3.3-7.6-7.6-7.6
		c-4.2,0-7.6,3.3-7.6,7.6C10.7,14,17.7,20.5,18,20.8z M18.3,0.9c3.8,0,6.7,2.9,6.7,6.7c0,5.4-5.3,11-6.7,12.3
		c-1.3-1.3-6.7-7-6.7-12.3C11.6,3.8,14.5,0.9,18.3,0.9z"/>
	<path fill="#010101" d="M22.3,7.6c0-2.2-1.8-4-4-4s-4,1.8-4,4c0,2.2,1.8,4,4,4S22.3,9.8,22.3,7.6z M18.3,10.7
		c-1.7,0-3.1-1.4-3.1-3.1c0-1.7,1.4-3.1,3.1-3.1c1.7,0,3.1,1.4,3.1,3.1C21.4,9.3,20,10.7,18.3,10.7z"/>
</g>
<g>
</g>
<g>
</g>
<g>
</g>
<g>
</g>
<g>
</g>
<g>
</g>
</svg>
