<?xml version="1.0" encoding="utf-8"?>
<!-- Generator: Adobe Illustrator 16.0.0, SVG Export Plug-In . SVG Version: 6.00 Build 0)  -->
<!DOCTYPE svg PUBLIC "-//W3C//DTD SVG 1.1//EN" "http://www.w3.org/Graphics/SVG/1.1/DTD/svg11.dtd">
<svg version="1.1" id="Layer_1" xmlns="http://www.w3.org/2000/svg"  x="0px" y="0px"
	 width="162.4px" height="322.2px" viewBox="0 0 162.4 322.2" enable-background="new 0 0 162.4 322.2" xml:space="preserve">
<g>
	<path d="M64.9,16.3h40.1c-0.1,3.4-0.1,5.7-0.2,6.9c-0.9,24.7-1.9,42.3-3,52.7s-2.6,17-4.6,19.7c-1.3,2-2.7,3.4-4,4.4
		c-1.3,0.9-3,1.6-5,2c-2.4,0.6-6.6,0.8-12.5,0.6c-0.4-5.8-1.9-11-4.4-15.4c2.4,0.3,5.4,0.4,8.9,0.4c1.3,0,2.6-0.7,3.8-2.2
		c2.3-3.2,4-17.5,5.1-42.8c-7,27.2-17.4,46.6-31,58.1c-3.5-3.7-7.8-6.7-12.8-9.2c8.2-5.8,15-14.1,20.5-24.7
		c5.5-10.7,9.8-22.7,12.7-35.9h-3c-2.4,9.3-5.7,18.2-10,26.8c-4.2,8.6-8.9,15.3-14,20.2c-3.5-3.5-7.6-6.5-12.1-8.8
		c9.7-7.7,17.4-20.5,23.1-38.2h-3.3c-3.3,7.6-6.9,13.9-10.9,18.8c-3.4-3.3-7.4-6.2-11.9-8.8c1.6-1.8,2.9-3.6,4.2-5.4h-6v15l8.6-2.3
		l2,13.9c-0.9,0.3-2.6,0.8-5,1.5c-2.4,0.7-4.3,1.3-5.6,1.8v38.2H20.4v-34C12.3,72,7.1,73.5,5,74.1L1.4,58.9c2.5-0.5,8.8-2,19.1-4.6
		V35.4h-5.7c-1.1,5.1-2.3,9.3-3.6,12.7c-3.8-3-7.5-5.4-11.1-7.2C2.8,33.5,4.6,22,5.5,6.3l13.1,2.1c-0.4,4-0.8,8.1-1.3,12h3.1V0h14.5
		v20.4h7.9v12.1c4.9-8.5,8.7-19.4,11.3-32.6l14.3,2.8C67.4,7.2,66.3,11.7,64.9,16.3z"/>
	<path d="M23.7,109.5l15,4.7c-2.9,7.8-6.5,15.5-10.6,23.1v75.2h-15v-52.2c-1.3,1.6-2.8,3.4-4.7,5.4c-0.7-2.1-2-4.9-3.7-8.5
		c-1.8-3.6-3.3-6.3-4.6-8.3c4.7-4.8,9.1-10.7,13.4-17.7C17.7,124.2,21.1,117,23.7,109.5z M105.1,160.9v15.4H77.9v36.1H62v-36.1H33.4
		v-15.4H62v-16H50.8c-1.8,4.5-3.8,8.8-6.1,12.9c-3.5-2.6-8.2-5.1-13.8-7.5c5.5-8.2,9.8-19.8,12.7-35l15.2,3.2
		c-0.8,3.9-1.7,7.6-2.7,11H62v-19.1h16v19.1h21.7V145H77.9v16H105.1z"/>
	<path d="M55.9,240.1h43.6c-0.1,3.5-0.2,6-0.3,7.3c-1,21.6-2.1,37.2-3.5,46.7c-1.3,9.5-3.2,15.8-5.6,18.7c-1.7,2.2-3.5,3.8-5.4,4.8
		c-1.9,1-4.2,1.7-6.9,2.1c-3.5,0.6-9.4,0.8-17.5,0.5c-0.1-2.4-0.7-5.2-1.8-8.4c-1.1-3.2-2.3-5.9-3.8-8.1c5.3,0.4,10.5,0.6,15.9,0.6
		c2,0,3.7-0.6,5-1.9c3.1-3.1,5.3-18.5,6.7-46.2H55.2c-2.3,30.7-15.5,52.7-39.6,65.8c-1.3-2-3.3-4.3-5.8-6.9c-2.5-2.6-4.8-4.6-6.8-6
		c20.9-10.6,32.7-28.2,35.2-52.9H6.7v-16.3H39v-21.8h16.9V240.1z"/>
</g>
<g>
	<path d="M152.2,11.1h-2.1c0,0.2-0.1,0.9-0.2,2.1h1.9v1.2h-2.1c-0.1,0.6-0.3,1.1-0.5,1.4c-0.3,0.4-0.7,0.6-1.2,0.6
		c-0.4,0-1.1,0-2.1,0c0-0.3-0.1-0.7-0.3-1.1c0.6,0.1,1.2,0.1,1.8,0.1c0.3,0,0.5-0.1,0.6-0.2c0.1-0.1,0.2-0.4,0.3-0.8h-6.6
		c-0.1,0.6-0.2,0.9-0.2,0.9l-1.4-0.1c0.3-1.5,0.6-2.8,0.8-4.1h-2.3V9.9h2.4c0.2-1.5,0.4-2.6,0.4-3.2h8.9c0,0.3,0,0.5,0,0.6
		c0,1-0.1,1.8-0.1,2.6h2V11.1z M151.5,5.5h-9.3c-0.7,1-1.4,1.8-2.2,2.6c-0.1-0.1-0.3-0.3-0.5-0.5c-0.2-0.2-0.4-0.3-0.6-0.4
		c1.4-1.1,2.5-2.6,3.2-4.4l1.5,0.3c-0.1,0.3-0.3,0.6-0.6,1.2h8.6V5.5z M144.7,11.1h-2.5c-0.1,0.4-0.2,1.2-0.3,2.1h2.6
		C144.6,12.3,144.7,11.6,144.7,11.1z M145.1,7.9h-2.4c0,0.1-0.1,0.5-0.1,0.9c-0.1,0.5-0.1,0.8-0.1,1.1h2.5
		C145,8.9,145.1,8.2,145.1,7.9z M145.8,13.3h2.7c0.1-0.6,0.2-1.3,0.2-2.1H146C145.9,12.1,145.8,12.9,145.8,13.3z M146.2,9.9h2.6
		c0-0.1,0-0.4,0-0.9c0-0.5,0-0.9,0.1-1.1h-2.5c0,0.2-0.1,0.6-0.1,1.1C146.2,9.4,146.2,9.7,146.2,9.9z"/>
	<path d="M140.5,18.6h9.9v12.5h-1.5v-0.9h-7v1h-1.4V18.6z M148.9,20.1h-7v3.6h7V20.1z M141.9,28.8h7v-3.8h-7V28.8z"/>
	<path d="M152.1,36l-1.2,1.1c-1-1.2-2-2.3-3.2-3.2l1.2-1c0.5,0.4,1.1,0.9,1.7,1.5S151.7,35.4,152.1,36z"/>
	<path d="M145.1,58.1l-0.8,1c-0.3-0.3-0.7-0.8-1.4-1.5v3.5h-1.3v-3.5c-0.7,1-1.4,1.9-2.2,2.5c-0.2-0.3-0.5-0.7-0.9-1
		c0.5-0.3,1-0.8,1.5-1.3c0.5-0.6,1-1.2,1.3-1.8h-2.5v-1.2h2.8v-1.4h-2.8v-1.2h1.5c0-0.5-0.2-1.2-0.5-1.9l1-0.3h-1.8V49h2.6v-1.4h1.3
		V49h2.6v1.2h-1.8l1,0.2c-0.4,0.9-0.6,1.6-0.8,1.9h1.7v1.2h-2.8v1.4h2.6v1.2h-2.6v0.2c0.2,0.1,0.4,0.3,0.7,0.5
		c0.3,0.2,0.6,0.5,1,0.8S145,58,145.1,58.1z M143.4,50.2h-2.6c0.3,0.7,0.5,1.4,0.6,2l-0.9,0.2h3.3l-1-0.2
		C143.1,51.4,143.3,50.7,143.4,50.2z M152.2,52.5v1.3h-1.6v7.4h-1.3v-7.4h-1.9v0.1c0,3.4-0.8,5.8-2.3,7.4c-0.1-0.1-0.2-0.3-0.4-0.5
		c-0.2-0.2-0.4-0.3-0.5-0.4c0.4-0.4,0.8-0.9,1.1-1.5c0.3-0.5,0.5-1.1,0.6-1.7c0.1-0.6,0.2-1.1,0.2-1.6s0.1-1,0.1-1.6v-5.2L147,49
		c1.9-0.4,3.2-0.9,4-1.3l1.1,1c-1.1,0.5-2.7,1-4.7,1.4v2.4H152.2z"/>
	<path d="M141.3,63.3l1.9,0c-0.1,0.5-0.1,1.1-0.2,1.7c-0.1,3.3-0.2,5.7-0.2,7.1c0,0.7,0.2,1.3,0.6,1.6c0.4,0.3,1,0.5,1.6,0.5
		c2.1,0,3.8-1,5.2-3l1.1,1.3c-0.3,0.4-0.6,0.8-1,1.1s-0.8,0.7-1.3,1s-1.1,0.6-1.8,0.8c-0.7,0.2-1.4,0.3-2.2,0.3
		c-2.5,0-3.8-1.1-3.8-3.4c0-0.8,0-2.1,0.1-3.9c0.1-1.9,0.1-3,0.1-3.4C141.5,64.3,141.4,63.8,141.3,63.3z"/>
	<path d="M139.7,79.3l1.8,0c-0.1,0.6-0.1,1.1-0.1,1.6c0,1.2,0,2.3,0.1,3.3c0.1,1.2,0.3,2.1,0.6,2.8s0.7,1,1.2,1c0.3,0,0.7-0.3,1-0.9
		c0.3-0.6,0.5-1.3,0.7-2.1l1.2,1.4c-0.5,1.2-0.9,2.1-1.4,2.6c-0.5,0.5-1,0.8-1.5,0.8c-0.8,0-1.5-0.4-2.1-1.3c-0.6-0.9-1-2.2-1.2-4
		c-0.1-1-0.2-2.3-0.2-4C139.8,80.1,139.8,79.6,139.7,79.3z M147.6,80.2l1.5-0.5c0.7,0.8,1.2,2,1.7,3.4c0.5,1.4,0.8,2.7,0.9,4
		l-1.5,0.6c-0.1-1.4-0.4-2.8-0.9-4.2C148.9,82.2,148.3,81.1,147.6,80.2z"/>
	<path d="M144,98.8l0.2,1.2c-0.8,0.3-1.4,0.4-1.7,0.6v5.3h-1.3V101l-2.3,0.7l-0.3-1.3c0.1,0,1-0.3,2.7-0.7v-3.1H140
		c-0.2,0.8-0.4,1.4-0.6,2.1c-0.2-0.2-0.6-0.4-1-0.6c0.4-1,0.7-2.6,0.9-4.9l1.2,0.2c-0.1,0.9-0.2,1.5-0.2,1.9h0.9v-3h1.3v3h1.4v1.3
		h-1.4v2.7L144,98.8z M146.4,94.6h5.7c0,0.3,0,0.5,0,0.7c-0.2,3.4-0.3,5.8-0.5,7.1c-0.2,1.4-0.4,2.3-0.7,2.6
		c-0.3,0.4-0.6,0.6-1.1,0.7c-0.3,0.1-0.9,0.1-1.7,0c0-0.5-0.1-0.9-0.4-1.4c0.5,0,1,0.1,1.5,0.1c0.2,0,0.4-0.1,0.5-0.3
		c0.4-0.5,0.8-3.3,1-8.3h-0.4c-0.4,2.1-1,4-1.8,5.7c-0.8,1.7-1.8,3.1-2.9,4c-0.3-0.3-0.7-0.6-1.2-0.8c1.1-0.8,2.1-2,2.9-3.6
		s1.4-3.3,1.8-5.3h-1c-0.3,1.3-0.8,2.6-1.5,3.8c-0.6,1.2-1.3,2.1-2.1,2.8c-0.3-0.3-0.7-0.6-1.1-0.8c0.7-0.6,1.4-1.4,2-2.4
		c0.6-1.1,1.1-2.2,1.4-3.4h-1.1c-0.5,1.1-1,2-1.6,2.7c-0.4-0.3-0.7-0.6-1.1-0.8c1.1-1.2,2-3.1,2.5-5.6l1.3,0.2
		C146.9,93,146.7,93.7,146.4,94.6z"/>
	<path d="M141.8,107.2l1.3,0.4c-0.4,1-0.9,2.1-1.5,3.2v10h-1.3v-7.9c-0.4,0.6-0.8,1-1.2,1.4c-0.2-0.5-0.4-0.9-0.8-1.4
		c0.7-0.7,1.3-1.6,1.9-2.6C140.9,109.4,141.4,108.3,141.8,107.2z M152.1,114.4v1.4h-3.9v5.1h-1.4v-5.1h-4.1v-1.4h4.1v-3h-2.1
		c-0.3,0.9-0.6,1.6-1,2.1c-0.3-0.3-0.7-0.5-1.2-0.7c0.8-1.1,1.4-2.8,1.8-5l1.3,0.3c-0.1,0.6-0.3,1.2-0.5,1.9h1.7v-2.8h1.4v2.8h3.3
		v1.4h-3.3v3H152.1z"/>
	<path d="M147,132.5h-1.4c0-0.5,0.1-1.2,0.1-2.1c-0.7,0.4-1.2,0.7-1.5,1.1c-0.3,0.4-0.5,0.7-0.5,1.1c0,0.5,0.2,0.8,0.6,1
		s1,0.2,1.8,0.2c1.3,0,2.7-0.1,4.1-0.4l0,1.5c-1.4,0.2-2.7,0.2-4.1,0.2c-1.2,0-2.2-0.2-2.9-0.5c-0.7-0.4-1-1-1-1.8
		c0-0.4,0.1-0.8,0.3-1.2c0.2-0.4,0.5-0.7,0.8-1.1s0.7-0.6,1.1-0.8c0.4-0.2,0.8-0.5,1.3-0.7c-0.2-0.5-0.6-0.7-1.2-0.7
		c-0.9,0-1.7,0.4-2.4,1.1c-0.3,0.3-0.8,0.8-1.4,1.6l-1.3-0.9c1.5-1.4,2.6-2.9,3.3-4.3h-0.4c-0.8,0-1.6,0-2.5-0.1v-1.4
		c0.9,0.1,1.7,0.2,2.5,0.2h0.9c0.2-0.7,0.3-1.3,0.3-1.8l1.5,0.1c-0.2,0.7-0.3,1.2-0.4,1.6c1.6-0.1,3-0.2,4.4-0.4v1.4
		c-1.3,0.2-3,0.3-4.9,0.4c-0.3,0.7-0.7,1.3-1.1,1.9c0.5-0.3,1.1-0.4,1.9-0.4c0.5,0,0.9,0.1,1.2,0.3c0.4,0.2,0.6,0.5,0.7,0.9
		c0.3-0.2,0.8-0.4,1.3-0.6c0.5-0.2,0.9-0.4,1-0.5c0.3-0.2,0.8-0.4,1.4-0.7l0.6,1.4c-0.3,0.1-0.8,0.3-1.5,0.5
		c-0.8,0.3-1.7,0.7-2.8,1.2c0,0.3,0,0.8,0,1.4S147,132.3,147,132.5z"/>
	<path d="M142,142.8v4.7c0.6,1,1.8,1.5,3.5,1.6c2.2,0.1,4.5,0,6.8-0.1c-0.2,0.5-0.4,1-0.5,1.4c-2.3,0.1-4.5,0.1-6.4,0
		c-1,0-1.8-0.2-2.4-0.5c-0.7-0.3-1.2-0.7-1.7-1.2c-0.4,0.3-1.1,0.9-2.2,1.8l-0.7-1.4c0.8-0.5,1.5-1,2.2-1.5V144h-1.9v-1.3H142z
		 M142.4,139.6l-1.1,0.9c-0.2-0.3-0.6-0.7-1.1-1.2c-0.5-0.4-0.9-0.8-1.4-1.2l1-0.8C141,138.2,141.9,138.9,142.4,139.6z M143.7,148
		v-9.5h2.4c0.2-0.8,0.4-1.3,0.4-1.5l1.6,0.2c-0.2,0.4-0.3,0.8-0.6,1.3h3.1v4H145v1.2h6.2v4.3H143.7z M149.3,139.6H145v1.7h4.3V139.6
		z M149.9,144.9H145v2h4.9V144.9z"/>
	<path d="M142.1,154.6h3.2c0,0.3,0,0.6,0,0.7c-0.1,3.4-0.1,5.7-0.2,7c-0.1,1.3-0.2,2-0.5,2.4c-0.2,0.4-0.6,0.6-1.1,0.7
		c-0.4,0-1,0.1-1.8,0c0-0.5-0.2-1-0.4-1.4c0.7,0,1.2,0,1.5,0c0.2,0,0.4-0.1,0.5-0.2c0.2-0.2,0.3-0.9,0.3-2s0.1-3,0.2-5.8H142
		c-0.1,2.2-0.3,4.1-0.7,5.7c-0.4,1.6-1,2.9-1.9,3.9c-0.3-0.4-0.6-0.7-1-1c0.8-0.9,1.4-2,1.7-3.4s0.5-3.1,0.6-5.2h-1.9v-1.4h1.9
		c0-0.5,0-1.4,0-2.5h1.4C142.1,153.2,142.1,154.1,142.1,154.6z M146.4,153.7h5.2v11.5h-1.4v-0.9h-2.4v1.1h-1.3V153.7z M147.7,162.9
		h2.4V155h-2.4V162.9z"/>
	<path d="M141.3,167.6l1.9,0c-0.1,0.5-0.1,1.1-0.2,1.7c-0.1,3.3-0.2,5.7-0.2,7.1c0,0.7,0.2,1.3,0.6,1.6c0.4,0.3,1,0.5,1.6,0.5
		c2.1,0,3.8-1,5.2-3l1.1,1.3c-0.3,0.4-0.6,0.8-1,1.1s-0.8,0.7-1.3,1s-1.1,0.6-1.8,0.8c-0.7,0.2-1.4,0.3-2.2,0.3
		c-2.5,0-3.8-1.1-3.8-3.4c0-0.8,0-2.1,0.1-3.9c0.1-1.9,0.1-3,0.1-3.4C141.5,168.7,141.4,168.1,141.3,167.6z"/>
	<path d="M139.3,185.8l-0.2-1.6c0.6,0,1,0,1.4-0.1c0.3,0,1.2-0.1,2.7-0.2c1.5-0.1,2.7-0.2,3.7-0.3c2-0.1,3.3-0.2,4.1-0.2v1.5
		c-1.4,0-2.3,0.1-2.9,0.2c-1,0.3-1.7,0.9-2.3,1.7c-0.6,0.9-0.9,1.8-0.9,2.7c0,0.6,0.1,1.2,0.4,1.7s0.7,0.9,1.2,1.1s1,0.5,1.6,0.6
		c0.6,0.1,1.2,0.2,1.8,0.2l-0.5,1.6c-0.6,0-1.2-0.1-1.7-0.3c-0.6-0.1-1.1-0.3-1.6-0.6c-0.5-0.3-1-0.6-1.3-1
		c-0.4-0.4-0.7-0.8-0.9-1.4c-0.2-0.5-0.3-1.1-0.3-1.7c0-1,0.2-2,0.7-2.9s1.1-1.5,1.8-1.9C142.2,185.3,140,185.6,139.3,185.8z"/>
	<path d="M139.7,198.6l1.8,0c-0.1,0.6-0.1,1.1-0.1,1.6c0,1.2,0,2.3,0.1,3.3c0.1,1.2,0.3,2.1,0.6,2.8s0.7,1,1.2,1
		c0.3,0,0.7-0.3,1-0.9c0.3-0.6,0.5-1.3,0.7-2.1l1.2,1.4c-0.5,1.2-0.9,2.1-1.4,2.6c-0.5,0.5-1,0.8-1.5,0.8c-0.8,0-1.5-0.4-2.1-1.3
		c-0.6-0.9-1-2.2-1.2-4c-0.1-1-0.2-2.3-0.2-4C139.8,199.4,139.8,198.9,139.7,198.6z M147.6,199.5l1.5-0.5c0.7,0.8,1.2,2,1.7,3.4
		c0.5,1.4,0.8,2.7,0.9,4l-1.5,0.6c-0.1-1.4-0.4-2.8-0.9-4.2C148.9,201.4,148.3,200.3,147.6,199.5z"/>
	<path d="M150.8,222.7L150,224c-1-1-2.1-1.7-3.3-2.2c0,0.1,0,0.2,0,0.4s0,0.3,0,0.3c0,0.6-0.2,1.1-0.7,1.5c-0.5,0.4-1.1,0.6-2,0.6
		c-1.1,0-2-0.2-2.6-0.6c-0.6-0.4-0.9-1-0.9-1.7c0-0.7,0.3-1.3,1-1.7s1.5-0.7,2.6-0.7c0.2,0,0.6,0,1.1,0.1c0-0.3,0-0.9-0.1-1.7h-0.8
		c-1.3,0-2.5-0.1-3.6-0.2l0-1.4c1,0.2,2.2,0.3,3.6,0.3h0.8v-1.9h-0.7c-1.1,0-2.2-0.1-3.3-0.2v-1.4c1.1,0.2,2.2,0.3,3.3,0.3h0.8v-0.8
		c0-0.2,0-0.5-0.1-0.9h1.6c0,0.5-0.1,0.8-0.1,1c0,0,0,0.1,0,0.3s0,0.3,0,0.4c1.1,0,2.3-0.2,3.7-0.4l0,1.4c-1.9,0.2-3.1,0.3-3.7,0.3
		v1.9c1.2-0.1,2.6-0.2,4-0.4l0,1.4c-1.4,0.2-2.7,0.3-4,0.3c0,0.5,0,1.2,0.1,2C148.1,220.8,149.5,221.5,150.8,222.7z M145.2,222.2
		c0-0.3,0-0.6,0-0.8c-0.5-0.1-0.9-0.1-1.3-0.1c-0.6,0-1.1,0.1-1.4,0.3c-0.3,0.2-0.5,0.5-0.5,0.8c0,0.7,0.6,1.1,1.8,1.1
		c0.5,0,0.8-0.1,1.1-0.3C145.1,222.9,145.2,222.6,145.2,222.2z"/>
	<path d="M151.7,228.9l0,1.4c-1,0-2.4-0.1-4.4-0.1c0,0.5,0,1.3,0,2.3c0.3,0.5,0.5,1.2,0.5,2c0,0.5-0.1,1-0.2,1.5
		c-0.2,0.5-0.4,1-0.7,1.5c-0.3,0.5-0.8,0.9-1.4,1.3c-0.6,0.4-1.3,0.7-2.2,1l-1.3-1.3c1.9-0.4,3.2-1.1,3.8-2.1
		c-0.3,0.1-0.6,0.2-1,0.2c-0.7,0-1.2-0.2-1.7-0.7c-0.5-0.5-0.8-1.1-0.8-1.9c0-0.8,0.3-1.4,0.8-1.9c0.5-0.5,1.2-0.8,2-0.8
		c0.3,0,0.6,0,0.8,0.1l0-1.3c-2.4,0-4.5,0.1-6.5,0.2l0-1.4c0.6,0,1.6,0,3.2-0.1c1.6,0,2.7-0.1,3.3-0.1c0-0.1,0-0.2,0-0.4
		c0-0.2,0-0.3,0-0.3c0-0.6-0.1-0.9-0.1-1.1h1.7c0,0.3-0.1,0.7-0.1,1.1c0,0.1,0,0.4,0,0.7H151.7z M143.7,234c0,0.4,0.1,0.7,0.4,1
		c0.3,0.2,0.6,0.4,1,0.4c0.4,0,0.7-0.2,0.9-0.5c0.2-0.3,0.3-0.8,0.2-1.5c-0.2-0.5-0.6-0.7-1.2-0.7c-0.4,0-0.7,0.1-0.9,0.4
		C143.9,233.2,143.7,233.6,143.7,234z"/>
	<path d="M149.8,241.6c0.6,0,1.2,0.2,1.6,0.7c0.5,0.5,0.7,1,0.7,1.6s-0.2,1.2-0.7,1.6c-0.5,0.5-1,0.7-1.6,0.7s-1.2-0.2-1.6-0.7
		s-0.7-1-0.7-1.6s0.2-1.2,0.7-1.6C148.7,241.9,149.2,241.6,149.8,241.6z M149.8,245.3c0.4,0,0.7-0.1,1-0.4c0.3-0.3,0.4-0.6,0.4-1
		s-0.1-0.7-0.4-1c-0.3-0.3-0.6-0.4-1-0.4c-0.4,0-0.7,0.1-1,0.4s-0.4,0.6-0.4,1s0.1,0.7,0.4,1S149.5,245.3,149.8,245.3z"/>
</g>
<line fill="none" stroke="#000000" stroke-miterlimit="10" x1="161.9" y1="3.5" x2="161.9" y2="247.5"/>
<g>
</g>
<g>
</g>
<g>
</g>
<g>
</g>
<g>
</g>
<g>
</g>
</svg>
