<?xml version="1.0" encoding="utf-8"?>
<!-- Generator: Adobe Illustrator 16.0.0, SVG Export Plug-In . SVG Version: 6.00 Build 0)  -->
<!DOCTYPE svg PUBLIC "-//W3C//DTD SVG 1.1//EN" "http://www.w3.org/Graphics/SVG/1.1/DTD/svg11.dtd">
<svg version="1.1" id="Layer_1" xmlns="http://www.w3.org/2000/svg" xmlns:xlink="http://www.w3.org/1999/xlink" x="0px" y="0px"
	 width="28.4px" height="28.4px" viewBox="0 0 28.4 28.4" enable-background="new 0 0 28.4 28.4" xml:space="preserve">
<g>
	<path d="M22.2,2.5L22.2,2.5l-0.6-0.4c0,0-0.1,0-0.1-0.1c-0.2-0.1-0.4-0.2-0.6-0.4c-0.1-0.1-0.2-0.1-0.3-0.2
		c-0.2-0.1-0.3-0.2-0.5-0.2c-0.1,0-0.2-0.1-0.3-0.1C19.5,1,19.3,0.9,19,0.9c-0.1,0-0.1,0-0.2-0.1c-0.2-0.1-0.5-0.2-0.7-0.2
		c-0.1,0-0.1,0-0.2-0.1c-0.3-0.1-0.5-0.1-0.8-0.2c0,0,0,0-0.1,0c-0.3-0.1-0.6-0.1-0.9-0.2c-0.1,0-0.1,0-0.2,0
		c-0.2,0-0.5-0.1-0.7-0.1c-0.1,0-0.2,0-0.2,0c-0.3,0-0.6,0-0.9,0c-0.3,0-0.6,0-1,0c-0.1,0-0.2,0-0.2,0c-0.3,0-0.6,0.1-0.9,0.1
		c0,0-0.1,0-0.1,0c-0.3,0-0.6,0.1-0.9,0.2c-0.1,0-0.2,0-0.3,0.1c-0.3,0.1-0.5,0.1-0.8,0.2c-0.1,0-0.2,0.1-0.2,0.1
		C9.6,0.8,9.3,0.9,9.1,0.9C9,1,8.9,1,8.8,1.1C8.5,1.2,8.3,1.3,8,1.4C8,1.4,7.9,1.5,7.8,1.5C7.6,1.6,7.4,1.7,7.2,1.8
		C7.1,1.9,7,2,6.9,2C6.7,2.2,6.4,2.3,6.2,2.5c0,0-0.1,0-0.1,0.1L5.9,2.7l0,0C2.3,5.3,0,9.5,0,14.2C0,22,6.4,28.4,14.2,28.4
		S28.4,22,28.4,14.2C28.4,9.4,25.9,5.1,22.2,2.5L22.2,2.5z M7.1,3c0.2-0.1,0.3-0.2,0.5-0.3c0.1-0.1,0.2-0.1,0.3-0.2
		c0.2-0.1,0.4-0.2,0.7-0.3c0.1,0,0.2-0.1,0.3-0.1C9,2,9.2,1.9,9.3,1.9c0.1,0,0.2-0.1,0.3-0.1c0.2-0.1,0.5-0.2,0.7-0.2
		c0.1,0,0.2,0,0.3-0.1c0.2-0.1,0.4-0.1,0.6-0.1c0.1,0,0.2,0,0.3-0.1c0.3-0.1,0.5-0.1,0.8-0.1c0.1,0,0.1,0,0.2,0
		C12.6,1,12.9,1,13.1,1c0.1,0,0.2,0,0.2,0c0.3,0,0.6,0,0.9,0c0.2,0,0.5,0,0.7,0c0.1,0,0.1,0,0.2,0c0.2,0,0.4,0,0.5,0
		c0.1,0,0.2,0,0.2,0c0.2,0,0.3,0,0.5,0.1c0.1,0,0.2,0,0.2,0c0.2,0,0.4,0.1,0.5,0.1c0.1,0,0.1,0,0.2,0c0.2,0.1,0.4,0.1,0.6,0.2
		c0,0,0,0,0.1,0c0.2,0.1,0.5,0.1,0.7,0.2c0.1,0,0.2,0.1,0.3,0.1c0.1,0,0.3,0.1,0.4,0.2c0.1,0,0.2,0.1,0.3,0.2c0.1,0,0.2,0.1,0.3,0.1
		c0.1,0,0.1,0.1,0.2,0.1c-1.8,0.7-2.9,1.6-4.2,3.3c-0.2,0.2-0.3,0.5-0.3,0.8c-0.1-0.3-0.3-0.5-0.5-0.6c-0.4-0.3-1-0.3-1.8,0.1
		l-0.1,0C12.5,6.1,12,6.1,12,7.2c0,0.5,0.3,1,0.7,1.3c0.1,0.1,0.2,0.1,0.4,0.2c0,0,0,0.1,0.1,0.1L13.3,9L13.6,9c0.3,0,0.5-0.1,0.6,0
		c0,0.2,0,0.4,0.1,0.6c0.1,0.3,0.4,0.5,0.6,0.5c0.3,0.1,0.3,0.2,0.3,0.3c0.2,0.5,0.5,0.9,1,1.1c0.4,0.1,0.9,0.1,1.3-0.3
		c0.2-0.2,0.4-0.1,0.9,0.1c0.3,0.2,0.8,0.4,1.3,0.4c0.1,0,0.1,0,0.2,0.1c0.4,0.4,0.7,0.9,1,1.4c0.4,0.7,0.9,1.4,1.6,1.8
		c0.6,0.3-0.1,1.9-0.4,2.7C22.1,17.9,22,18,22,18.1c-0.7,0.6-1.2,1.2-1.6,1.8C20,20.5,19.6,21,19,21.6c-0.9,0.8-1.7,1.3-2.6,1.6
		c-0.1,0.1-0.2,0-0.3-0.1c0,0-0.1-0.1,0-0.3c0.9-1.7,2-4,0.6-5.2c-1.4-1.1-1.9-2.8-1.3-4.2c0.2-0.6,0-1.3-0.6-1.6
		c-0.1-0.1-0.1-0.3-0.1-0.5c-0.1-0.4-0.1-0.9-0.4-1.3c-0.1-0.2-0.3-0.3-0.5-0.4c-0.6-0.3-1.1-0.4-1.7-0.4c-0.4-0.1-0.8-0.1-1.2-0.3
		c-1.6-0.6-2.7-3.1-3.5-5C7.2,3.6,7.1,3.3,7,3.1C7,3.1,7.1,3,7.1,3L7.1,3z M14.2,27.4c-7.3,0-13.2-5.9-13.2-13.2
		C0.9,9.9,3,6.1,6.2,3.7C6.3,3.8,6.3,4,6.4,4.2c0.9,2.1,2.1,4.8,4,5.5c0.5,0.2,1,0.3,1.4,0.3c0.5,0.1,0.9,0.1,1.4,0.4
		c0,0,0.1,0.1,0.1,0.1c0.2,0.3,0.2,0.6,0.3,0.9c0.1,0.5,0.1,1,0.6,1.2c0.2,0.1,0.3,0.2,0.2,0.4c-0.7,1.8-0.1,3.9,1.6,5.3
		c0.4,0.4,0.6,1.3-0.8,4c-0.2,0.4-0.2,1,0.1,1.3c0.2,0.3,0.6,0.4,0.9,0.4c0.1,0,0.3,0,0.4-0.1c1-0.4,1.9-0.9,2.9-1.8
		c0.7-0.6,1.1-1.2,1.5-1.8c0.4-0.6,0.8-1.2,1.5-1.6c0.1-0.1,0.2-0.2,0.2-0.3c0.1-0.2,0.1-0.3,0.2-0.5c0.5-1.3,1.2-3.2-0.1-3.9
		c-0.5-0.2-0.8-0.8-1.2-1.5c-0.3-0.5-0.6-1.1-1.1-1.6c-0.2-0.2-0.4-0.3-0.7-0.3c-0.4-0.1-0.7-0.2-1-0.4c-0.5-0.3-1.2-0.6-1.9,0
		c-0.1,0.1-0.3,0.2-0.4,0.1c-0.2-0.1-0.3-0.2-0.3-0.4c-0.1-0.3-0.3-0.7-1-0.9c0,0-0.1,0-0.1-0.1c0,0,0-0.1,0-0.2
		c0.1-0.2,0.1-0.5-0.1-0.7C14.9,8.1,14.6,8,14.2,8c0-0.1-0.1-0.1-0.1-0.2l-0.3-0.3l-0.3,0.2c-0.1,0-0.2,0-0.3,0
		c-0.2-0.1-0.3-0.3-0.3-0.5c0-0.1,0-0.2,0-0.2c0.1,0,0.4-0.1,0.7-0.1l0.3,0l0.1,0c0.4-0.2,0.8-0.3,0.9-0.2c0.1,0,0.2,0.2,0.2,1
		l0,0.4l0.4,0.1c0.5,0.1,0.9,0,1.2-0.3c0.3-0.3,0.3-0.7,0.1-1.3c0-0.1,0-0.2,0.1-0.3c1.3-1.7,2.4-2.5,4.5-3.2
		c3.7,2.4,6.1,6.5,6.1,11.1C27.4,21.5,21.5,27.4,14.2,27.4L14.2,27.4z M14.2,27.4"/>
</g>
<g>
</g>
<g>
</g>
<g>
</g>
<g>
</g>
<g>
</g>
<g>
</g>
</svg>
