<?xml version="1.0" encoding="utf-8"?>
<!-- Generator: Adobe Illustrator 16.0.0, SVG Export Plug-In . SVG Version: 6.00 Build 0)  -->
<!DOCTYPE svg PUBLIC "-//W3C//DTD SVG 1.1//EN" "http://www.w3.org/Graphics/SVG/1.1/DTD/svg11.dtd">
<svg version="1.1" xmlns="http://www.w3.org/2000/svg" xmlns:xlink="http://www.w3.org/1999/xlink" x="0px" y="0px"
	 width="87.575px" height="59.687px" viewBox="0 0 87.575 59.687" enable-background="new 0 0 87.575 59.687" xml:space="preserve">
<g id="_x31_9_x3000_オプション_x3000_add">
</g>
<g id="_x32_0_x3000_会社情報_x3000_company">
	<g>
		<path fill="#B3B3B3" d="M63.993,1.828c-0.145-0.613-0.527-1.143-1.062-1.474c-0.535-0.331-1.181-0.436-1.793-0.291L1.829,14.056
			c-0.613,0.145-1.143,0.527-1.474,1.062c-0.331,0.535-0.436,1.181-0.291,1.793l9.66,40.946c0.258,1.093,1.233,1.829,2.308,1.829
			c0.181,0,0.364-0.021,0.547-0.063L71.888,45.63c0.613-0.145,1.143-0.527,1.474-1.062c0.331-0.535,0.436-1.181,0.292-1.793
			L63.993,1.828z M64.288,23.754l-10.16-5.901l6.492-9.648L64.288,23.754z M5.93,21.107l10.121,5.729L9.6,36.656L5.93,21.107z
			 M8.814,17.285l47.517-11.21l-18.57,27.596L8.814,17.285z M13.799,54.458l-2.698-11.439l9.09-13.839l17.145,9.705
			c0.368,0.209,0.77,0.308,1.167,0.308c0.766,0,1.516-0.371,1.971-1.049l10.999-16.344l14.317,8.316l2.699,11.438L13.799,54.458z
			 M13.799,54.458"/>
		<path fill="#B3B3B3" d="M85.202,1.593H70.289c-1.312,0-2.374,1.063-2.374,2.374c0,1.311,1.063,2.374,2.374,2.374h14.913
			c1.311,0,2.374-1.063,2.374-2.374C87.575,2.655,86.513,1.593,85.202,1.593L85.202,1.593z M85.202,1.593"/>
		<path fill="#B3B3B3" d="M82.695,13.682h-9.899c-1.312,0-2.374,1.063-2.374,2.374c0,1.311,1.062,2.374,2.374,2.374h9.899
			c1.312,0,2.374-1.063,2.374-2.374C85.069,14.745,84.006,13.682,82.695,13.682L82.695,13.682z M82.695,13.682"/>
		<path fill="#B3B3B3" d="M80.319,25.771h-5.147c-1.312,0-2.374,1.063-2.374,2.374s1.063,2.374,2.374,2.374h5.147
			c1.312,0,2.374-1.063,2.374-2.374S81.63,25.771,80.319,25.771L80.319,25.771z M80.319,25.771"/>
	</g>
</g>
<g id="_x32_1_x3000_会社概要_x3000_profile">
</g>
<g id="_x32_2_x3000_プライバシーポリシー_x3000_privacy">
</g>
<g id="_x32_3_x3000_お問い合わせ_x3000_contact">
</g>
<g id="_x32_4_x3000_採用情報_x3000_recruit">
</g>
<g id="_x32_5_x3000_サイトマップ">
</g>
<g id="_x32_6_x3000_404">
</g>
<g id="mouse-over" display="none">
</g>
</svg>
