<?xml version="1.0" encoding="utf-8"?>
<!-- Generator: Adobe Illustrator 16.0.0, SVG Export Plug-In . SVG Version: 6.00 Build 0)  -->
<!DOCTYPE svg PUBLIC "-//W3C//DTD SVG 1.1//EN" "http://www.w3.org/Graphics/SVG/1.1/DTD/svg11.dtd">
<svg version="1.1" xmlns="http://www.w3.org/2000/svg" xmlns:xlink="http://www.w3.org/1999/xlink" x="0px" y="0px" width="800px"
	 height="325px" viewBox="0 0 800 325" enable-background="new 0 0 800 325" xml:space="preserve">
<g id="_x31_0_x3000_特集一覧_x3000_category">
</g>
<g id="_x31_1_x3000_特集個別_x3000_">
</g>
<g id="_x31_2_x3000_サポート_x3000_suport">
</g>
<g id="_x31_3_x3000_住居エリア情報_area">
	<polygon fill="#FFFFFF" points="543.644,146.679 606.232,90.898 480.595,47.975 527.3,147.069 	"/>
	<polygon fill="#B3F4FF" points="425.866,112.58 500.233,142.874 453.881,44.53 399.266,66.878 	"/>
	<polygon fill="#FFFFFF" points="588.601,225.213 652.109,191.752 691.685,181.261 610.104,92.976 546.586,149.585 	"/>
	<polygon fill="#FFFFFF" points="362.973,297.999 347.135,227.546 236.478,267.179 266.699,324.5 374.593,324.5 363.014,298.194 	
		"/>
	<polygon fill="#B3FFD5" points="494.365,273.55 483.688,260.838 442.885,249.675 356.54,250.571 366.954,296.898 379.102,324.5 
		457.266,324.5 462.352,289.951 	"/>
	<polygon fill="#FFFFFF" points="696.197,180.064 800.5,152.412 800.5,-0.5 671.19,-0.5 612.844,89.862 	"/>
	<polygon fill="#FFFFFF" points="367.71,14.83 453.474,37.384 491.283,-0.5 246.712,-0.5 205.658,73.194 	"/>
	<polygon fill="#FFFFFF" points="231.58,268.933 231.511,268.958 231.5,268.918 137.734,251.921 161.703,162.157 0.5,117.553 
		0.5,324.5 262.034,324.5 232.86,269.165 	"/>
	<polygon fill="#FFFFFF" points="163.662,84.675 200.818,73.403 241.989,-0.5 0.5,-0.5 0.5,113.271 162.213,158.017 	"/>
	<polygon fill="#FFFFFF" points="609.384,87.615 666.278,-0.5 523.344,-0.5 479.642,43.29 	"/>
	<polygon fill="#FFB3D3" points="515.086,262.933 584.801,227.216 584.95,227.137 542.558,150.833 527.073,151.202 506.646,189.499 
		464.323,206.086 463.986,231.92 496.508,240.818 	"/>
	<polygon fill="#E2B3FF" points="395.268,68.21 311.378,100.393 310.839,100.612 433.602,134.071 423.009,115.871 422.402,115.624 
		422.593,115.157 	"/>
	<polygon fill="#FFD9B3" points="351.091,226.333 355.614,246.455 441.112,245.567 441.794,193.646 349.569,226.674 	"/>
	<polygon fill="#FFFFFF" points="195.478,145.387 194.284,145.294 199.5,78.116 167.728,87.754 166.317,159.153 166.743,159.271 
		142.878,248.659 230.163,264.482 194.364,145.723 	"/>
	<polygon fill="#FFFFFF" points="800.5,189.762 665.318,225.601 601.35,259.303 495.362,313.604 493.757,324.5 800.5,324.5 	"/>
	<polygon fill="#FFFFFF" points="397.066,63.1 397.17,63.277 451.378,41.099 367.9,19.146 316.814,37.544 345.385,82.928 	"/>
	<polygon fill="#C2B3FF" points="309.863,96.555 341.46,84.434 312.841,38.978 263.58,56.719 256.889,118.048 	"/>
	<polygon fill="#FFFFFF" points="252.547,119.81 259.259,58.275 203.622,78.314 198.703,141.654 	"/>
	<g>
		<path fill="none" stroke="#231815" stroke-width="4" stroke-miterlimit="10" d="M218.264,207.681"/>
	</g>
	<polygon fill="none" points="351.091,226.333 355.614,246.455 441.112,245.567 441.794,193.646 349.569,226.674 	"/>
	<polygon fill="none" points="371.429,162.787 371.429,162.787 394.086,206.348 	"/>
	<polygon fill="none" points="195.478,145.387 194.284,145.294 199.5,78.116 167.728,87.754 166.317,159.153 166.743,159.271 
		142.878,248.659 230.163,264.482 194.364,145.723 	"/>
	<polygon fill="none" points="287.597,192.672 287.597,192.672 308.827,236.883 	"/>
	<polygon fill="none" points="218.89,212.785 218.89,212.785 198.782,146.077 	"/>
	<polygon fill="none" points="220.086,216.74 234.21,263.608 220.086,216.74 	"/>
	<polygon fill="none" points="252.547,119.81 259.259,58.275 203.622,78.314 198.703,141.654 	"/>
	<polygon fill="none" points="425.866,112.58 500.233,142.874 453.881,44.53 399.266,66.878 	"/>
	<polygon fill="none" points="543.644,146.679 606.232,90.898 480.595,47.975 527.3,147.069 	"/>
	<polygon fill="none" points="395.268,68.21 311.378,100.393 310.839,100.612 433.602,134.071 423.009,115.871 422.402,115.624 
		422.593,115.157 	"/>
	<polygon fill="none" points="397.066,63.1 397.17,63.277 451.378,41.099 367.9,19.146 316.814,37.544 345.385,82.928 	"/>
	<polygon fill="none" points="309.863,96.555 341.46,84.434 312.841,38.978 263.58,56.719 256.889,118.048 	"/>
	<polygon fill="none" points="546.586,149.585 588.601,225.213 652.109,191.752 691.685,181.261 610.104,92.976 	"/>
	<polygon fill="none" points="527.073,151.202 506.646,189.499 464.323,206.086 463.986,231.92 496.508,240.818 515.086,262.933 
		584.801,227.216 584.95,227.137 542.558,150.833 	"/>
	<polygon fill="none" points="439.102,136.767 439.102,136.767 439.73,136.401 	"/>
	<polygon fill="none" points="341.128,169.21 306.924,102.201 341.128,169.21 	"/>
	<polygon fill="none" points="288.595,187.936 288.595,187.936 289.341,187.563 	"/>
	<polygon fill="#FFFFFF" points="234.21,263.608 308.827,236.883 287.597,192.672 220.086,216.74 	"/>
	<polygon fill="#FFB3B3" points="490.565,171.427 502.841,148.41 502.836,148.387 429.266,118.42 439.73,136.401 439.102,136.767 
		439.703,138.449 375.354,161.388 398.004,204.944 479.745,175.668 	"/>
	<polygon fill="#FFF0B3" points="306.924,102.201 256.757,122.555 289.341,187.563 288.595,187.936 341.128,169.21 	"/>
	<polygon fill="#FFFFFF" points="252.923,124.11 198.782,146.077 218.89,212.785 285.469,189.05 	"/>
	<polygon fill="#B3CBFF" points="430.257,137.436 313.265,105.549 345.044,167.813 	"/>
	<polygon fill="#D3FFB5" points="312.733,235.484 394.086,206.348 371.429,162.787 291.505,191.279 	"/>
	<path fill="#E6E6E6" d="M695.697,180.064l-83.105-89.702L671.19,0.5h-4.912l-56.895,87.615L479.642,44.04L523.344,0.5h-32.061
		l-37.81,37.384L367.71,15.079L205.658,73.818L246.712,0.5h-4.723l-41.171,73.403l-37.157,11.022l-1.949,73.217L-0.5,113.271v4.282
		l161.703,44.604l-23.719,89.764l93.894,16.998l0.071,0.039l0.1-0.024l1.295,0.732l29.19,55.835h4.665l-30.222-57.821
		l110.658-39.883l15.837,70.328l0.041,0.632l11.579,26.744h4.509l-12.148-28.102l-10.414-46.577l86.345-1.021l40.803,11.1
		l10.678,12.681l-32.014,16.885l-5.086,35.034h36.491l1.604-11.396l105.989-54.551l63.469-33.827L799.5,189.762v-37.35
		L695.697,180.064z M606.232,90.898l-62.588,55.781l-16.344,0.39l-46.705-99.094L606.232,90.898z M453.881,44.53l46.353,98.344
		l-74.367-30.294l-26.601-45.702L453.881,44.53z M345.044,167.813l-31.779-62.264l116.992,31.887l0,0L345.044,167.813z
		 M288.595,187.936L288.595,187.936l0.746-0.374l-32.584-65.008l50.167-20.354l34.204,67.009L288.595,187.936z M285.469,189.05
		l-66.579,23.735l-20.107-66.708l54.141-21.967L285.469,189.05z M310.839,100.612l0.54-0.219l83.889-32.183l27.325,46.947
		l-0.19,0.467l0.606,0.247l10.593,18.2L310.839,100.612z M367.9,19.146l83.478,21.953L397.17,63.277l-0.104-0.178l-51.682,19.828
		l-28.57-45.383L367.9,19.146z M312.841,38.978l28.619,45.457l-31.597,12.121l-52.975,21.494l6.691-61.329L312.841,38.978z
		 M203.622,78.314l55.637-20.04l-6.712,61.535l-53.844,21.844L203.622,78.314z M142.878,248.659l23.865-89.388l-0.426-0.118
		l1.41-71.399l31.772-9.638l-5.216,67.178l1.194,0.093l-1.113,0.336l35.799,118.759L142.878,248.659z M234.21,263.608
		l-14.124-46.868l67.511-24.067l0,0l21.23,44.21L234.21,263.608z M312.733,235.484l-21.229-44.206l79.924-28.492l0,0l22.657,43.561
		L312.733,235.484z M441.112,245.567l-85.498,0.888l-4.523-20.123l-1.522,0.342l92.225-33.029L441.112,245.567z M398.004,204.944
		l-22.65-43.556l64.35-22.939l-0.602-1.682v0l0.629-0.366l-10.465-17.981l73.57,29.967l0.005,0.022l-12.275,23.018l-10.82,4.241
		L398.004,204.944z M584.801,227.216l-69.715,35.717l-18.578-22.115l-32.521-8.897l0.337-25.834l42.322-16.587l20.428-38.297
		l15.484-0.369l42.393,76.305L584.801,227.216z M652.109,191.752l-63.509,33.461l-42.014-75.628l63.517-56.609l81.581,88.285
		L652.109,191.752z"/>
	<g>
		<g>
			<g>
				<g>
					<path fill="#808080" d="M435.405,158.411c2.895,0,3.54-1.396,4.119-2.997h2.52v23.832H438.3v-18.18h-2.895V158.411z"/>
				</g>
			</g>
			<g>
				<g>
					<path fill="#808080" d="M528.314,203.934c-1.187,0-1.937,0.646-1.937,2.349v2.553h-3.542v-2.314
						c0-3.813,1.903-5.992,5.583-5.992c3.674,0,5.582,2.179,5.582,5.992c0,7.49-7.456,10.281-7.456,14.197c0,0.17,0,0.34,0.034,0.51
						h7.082v3.404h-10.823v-2.927c0-7.014,7.419-8.171,7.419-15.049C530.255,204.512,529.504,203.934,528.314,203.934z"/>
				</g>
			</g>
			<g>
				<g>
					<path fill="#808080" d="M614.287,164.038c0,4.018-1.838,6.197-5.721,6.197c-3.675,0-5.582-2.179-5.582-5.992v-0.613h3.54v0.851
						c0,1.702,0.75,2.349,1.942,2.349c1.327,0,2.077-0.646,2.077-2.927v-4.358c-0.648,1.362-1.805,2.111-3.474,2.111
						c-2.757,0-4.152-1.941-4.152-5.447v-4.358c0-3.813,2.006-5.991,5.683-5.991s5.686,2.178,5.686,5.991V164.038z M610.544,155.902
						v-4.29c0-1.703-0.75-2.315-1.942-2.315c-1.19,0-1.938,0.612-1.938,2.315v4.29c0,1.701,0.748,2.349,1.938,2.349
						C609.794,158.251,610.544,157.604,610.544,155.902z"/>
				</g>
			</g>
			<g>
				<g>
					<path fill="#808080" d="M359.85,135.482c0-2.145-0.748-2.724-1.942-2.724c-1.19,0-1.939,0.647-1.939,2.349v1.532h-3.541v-1.294
						c0-3.813,1.909-5.992,5.584-5.992c3.677,0,5.582,2.18,5.582,5.992v0.613c0,2.553-0.816,4.154-2.62,4.902
						c1.872,0.818,2.62,2.587,2.62,5.006v1.871c0,3.813-1.905,5.992-5.582,5.992c-3.675,0-5.584-2.179-5.584-5.992v-1.974h3.541
						v2.214c0,1.701,0.75,2.348,1.939,2.348c1.194,0,1.942-0.579,1.942-2.689v-1.872c0-2.213-0.748-3.03-2.451-3.03h-1.26v-3.405
						h1.463c1.398,0,2.248-0.613,2.248-2.519V135.482z"/>
				</g>
			</g>
			<g>
				<g>
					<path fill="#808080" d="M288.929,137.78c2.894,0,3.54-1.396,4.12-2.996h2.518v23.831h-3.745v-18.18h-2.894V137.78z"/>
				</g>
				<g>
					<path fill="#808080" d="M299.787,140.503c0-3.813,2.009-5.992,5.687-5.992c3.677,0,5.686,2.179,5.686,5.992v12.392
						c0,3.813-2.009,5.993-5.686,5.993c-3.678,0-5.687-2.179-5.687-5.993V140.503z M303.531,153.134c0,1.703,0.751,2.35,1.942,2.35
						c1.19,0,1.939-0.647,1.939-2.35v-12.868c0-1.703-0.749-2.35-1.939-2.35c-1.191,0-1.942,0.647-1.942,2.35V153.134z"/>
				</g>
			</g>
			<g>
				<g>
					<path fill="#808080" d="M228.069,159.442c2.894,0,3.542-1.396,4.121-2.996h2.521v23.832h-3.747v-18.18h-2.894V159.442z"/>
				</g>
				<g>
					<path fill="#808080" d="M241.549,159.442c2.894,0,3.54-1.396,4.12-2.996h2.52v23.832h-3.746v-18.18h-2.894V159.442z"/>
				</g>
			</g>
			<g>
				<g>
					<path fill="#808080" d="M256.462,223.23c0-4.018,1.837-6.196,5.719-6.196c3.678,0,5.584,2.179,5.584,5.992v0.613h-3.541v-0.851
						c0-1.703-0.748-2.349-1.941-2.349c-1.326,0-2.072,0.646-2.072,2.927v4.358c0.644-1.362,1.801-2.11,3.469-2.11
						c2.759,0,4.157,1.939,4.157,5.446v4.358c0,3.813-2.013,5.993-5.688,5.993c-3.678,0-5.687-2.18-5.687-5.993V223.23z
						 M260.21,231.367v4.29c0,1.703,0.746,2.314,1.938,2.314c1.19,0,1.939-0.612,1.939-2.314v-4.29c0-1.703-0.749-2.349-1.939-2.349
						C260.956,229.018,260.21,229.664,260.21,231.367z"/>
				</g>
			</g>
			<g>
				<g>
					<path fill="#808080" d="M340.529,204.561v2.212c0,1.703,0.749,2.315,1.939,2.315c1.192,0,1.94-0.612,1.94-2.315v-5.242
						c0-1.703-0.748-2.349-1.94-2.349c-1.19,0-1.939,0.646-1.939,2.349v0.714h-3.541l0.682-13.822h9.874v3.405h-6.506l-0.305,5.685
						c0.681-1.124,1.771-1.736,3.269-1.736c2.756,0,4.153,1.94,4.153,5.448v5.31c0,3.814-1.905,5.992-5.583,5.992
						c-3.677,0-5.584-2.178-5.584-5.992v-1.975H340.529z"/>
				</g>
			</g>
			<g>
				<g>
					<path fill="#808080" d="M395.07,232.378l6.808-16.104h4.086v16.104h1.77v3.405h-1.77v4.323h-3.746v-4.323h-7.149V232.378z
						 M402.219,232.378v-8.819l-3.711,8.819H402.219z"/>
				</g>
			</g>
			<g>
				<g>
					<path fill="#808080" d="M420.361,277.133v3.27l-5.514,20.563h-3.745l5.484-20.427h-7.458v-3.405H420.361z"/>
				</g>
			</g>
			<g>
				<g>
					<path fill="#808080" d="M308.5,298.143c-3.781,0-5.859-2.179-5.859-5.992v-1.872c0-2.281,0.682-4.051,2.319-4.971
						c-1.57-0.851-2.319-2.451-2.319-4.801v-0.749c0-3.813,2.078-5.992,5.859-5.992c3.777,0,5.854,2.18,5.854,5.992v0.749
						c0,2.35-0.783,3.95-2.316,4.801c1.636,0.919,2.316,2.689,2.316,4.971v1.872C314.354,295.964,312.277,298.143,308.5,298.143z
						 M306.385,281.223c0,1.906,0.888,2.52,2.115,2.52c1.188,0,2.106-0.614,2.106-2.52v-1.329c0-2.145-0.918-2.723-2.106-2.723
						c-1.194,0-2.115,0.578-2.115,2.723V281.223z M308.5,294.738c1.188,0,2.075-0.579,2.106-2.689v-2.213
						c0-1.873-0.781-2.689-2.106-2.689c-1.33,0-2.115,0.816-2.115,2.689v2.213C306.385,294.16,307.306,294.738,308.5,294.738z"/>
				</g>
			</g>
			<g>
				<g>
					<path fill="#808080" d="M257.803,16.683c2.895,0,3.541-1.396,4.121-2.997h2.518v23.832h-3.744v-18.18h-2.895V16.683z"/>
				</g>
				<g>
					<path fill="#808080" d="M274.447,16.819c-1.19,0-1.938,0.646-1.938,2.349v2.553h-3.54v-2.315c0-3.813,1.909-5.991,5.583-5.991
						c3.676,0,5.583,2.179,5.583,5.991c0,7.491-7.457,10.282-7.457,14.198c0,0.171,0,0.34,0.033,0.511h7.083v3.404h-10.826V34.59
						c0-7.013,7.421-8.171,7.421-15.049C276.39,17.397,275.641,16.819,274.447,16.819z"/>
				</g>
			</g>
		</g>
		<g>
			<g>
				<path fill="#808080" d="M175.336,209.969v0.516c0,1.486-0.458,2.436-1.469,2.91c1.219,0.475,1.692,1.568,1.692,3.095v1.176
					c0,2.229-1.177,3.426-3.445,3.426h-3.57v-14.444h3.425C174.322,206.647,175.336,207.74,175.336,209.969z M170.814,208.71v3.818
					h0.887c0.846,0,1.362-0.372,1.362-1.527v-0.806c0-1.031-0.352-1.485-1.156-1.485H170.814z M170.814,214.591v4.438h1.3
					c0.764,0,1.176-0.352,1.176-1.424v-1.259c0-1.341-0.433-1.754-1.464-1.754H170.814z"/>
			</g>
			<g>
				<path fill="#808080" d="M176.92,206.647h2.271v14.444h-2.271V206.647z"/>
			</g>
			<g>
				<path fill="#808080" d="M182.861,210.63v10.461h-2.042v-14.444h2.85l2.332,8.646v-8.646h2.021v14.444h-2.334L182.861,210.63z"/>
			</g>
			<g>
				<path fill="#808080" d="M191.918,221.091h-2.269v-14.444h2.269v6.19h2.582v-6.19h2.31v14.444h-2.31V214.9h-2.582V221.091z"/>
			</g>
			<g>
				<path fill="#808080" d="M167.885,226.246h7.014v2.063h-2.372v12.381h-2.27v-12.381h-2.372V226.246z"/>
			</g>
			<g>
				<path fill="#808080" d="M183.234,240.69h-2.292l-0.391-2.622h-2.786l-0.388,2.622h-2.088l2.312-14.444h3.321L183.234,240.69z
					 M178.055,236.109h2.188l-1.094-7.304L178.055,236.109z"/>
			</g>
			<g>
				<path fill="#808080" d="M186.308,230.228v10.463h-2.042v-14.444h2.847l2.33,8.646v-8.646h2.024v14.444h-2.333L186.308,230.228z"
					/>
			</g>
		</g>
		<g>
			<g>
				<path fill="#808080" d="M60.234,181.89h2.27v12.38h3.734v2.064h-6.004V181.89z"/>
			</g>
			<g>
				<path fill="#808080" d="M67.044,185.357c0-2.311,1.216-3.632,3.445-3.632c2.228,0,3.446,1.321,3.446,3.632v7.511
					c0,2.311-1.219,3.632-3.446,3.632c-2.229,0-3.445-1.321-3.445-3.632V185.357z M69.313,193.012c0,1.032,0.453,1.424,1.177,1.424
					c0.721,0,1.175-0.392,1.175-1.424v-7.8c0-1.031-0.454-1.422-1.175-1.422c-0.724,0-1.177,0.391-1.177,1.422V193.012z"/>
			</g>
			<g>
				<path fill="#808080" d="M77.42,185.873v10.462h-2.042V181.89h2.846l2.333,8.647v-8.647h2.021v14.445h-2.331L77.42,185.873z"/>
			</g>
			<g>
				<path fill="#808080" d="M87.61,188.287h3.179v4.581c0,2.311-1.156,3.632-3.384,3.632c-2.229,0-3.385-1.321-3.385-3.632v-7.511
					c0-2.311,1.156-3.632,3.385-3.632c2.228,0,3.384,1.321,3.384,3.632v1.404h-2.147v-1.549c0-1.031-0.453-1.422-1.174-1.422
					c-0.725,0-1.174,0.391-1.174,1.422v7.8c0,1.032,0.449,1.404,1.174,1.404c0.722,0,1.174-0.372,1.174-1.404v-2.661H87.61V188.287z
					"/>
			</g>
			<g>
				<path fill="#808080" d="M102.796,196.335h-2.291l-0.391-2.621h-2.787l-0.391,2.621H94.85l2.313-14.445h3.322L102.796,196.335z
					 M97.615,191.754h2.188l-1.093-7.305L97.615,191.754z"/>
			</g>
			<g>
				<path fill="#808080" d="M105.869,185.873v10.462h-2.043V181.89h2.849l2.329,8.647v-8.647h2.022v14.445h-2.33L105.869,185.873z"
					/>
			</g>
		</g>
		<g>
			<g>
				<path fill="#808080" d="M60.606,73.582h7.013v2.062H65.25v12.381h-2.271V75.644h-2.373V73.582z"/>
			</g>
			<g>
				<path fill="#808080" d="M75.956,88.025h-2.292l-0.39-2.621h-2.785l-0.393,2.621h-2.085l2.312-14.443h3.321L75.956,88.025z
					 M70.776,83.444h2.188l-1.094-7.305L70.776,83.444z"/>
			</g>
			<g>
				<path fill="#808080" d="M79.133,83.237l-2.869-9.656h2.373l1.733,6.581l1.734-6.581h2.166l-2.868,9.656v4.788h-2.269V83.237z"/>
			</g>
			<g>
				<path fill="#808080" d="M90.396,77.563v10.462h-2.043V73.582h2.846l2.334,8.645v-8.645h2.021v14.443h-2.331L90.396,77.563z"/>
			</g>
			<g>
				<path fill="#808080" d="M97.182,73.582h2.272v14.443h-2.272V73.582z"/>
			</g>
			<g>
				<path fill="#808080" d="M103.128,77.563v10.462h-2.042V73.582h2.844l2.331,8.645v-8.645h2.023v14.443h-2.333L103.128,77.563z"/>
			</g>
			<g>
				<path fill="#808080" d="M112.181,88.025h-2.27V73.582h2.27v6.188h2.58v-6.188h2.311v14.443h-2.311v-6.19h-2.58V88.025z"/>
			</g>
		</g>
		<g>
			<g>
				<path fill="#808080" d="M532.239,31.516v0.516c0,1.486-0.454,2.435-1.465,2.91c1.219,0.475,1.692,1.568,1.692,3.095v1.176
					c0,2.229-1.173,3.425-3.447,3.425h-3.569V28.194h3.427C531.229,28.194,532.239,29.287,532.239,31.516z M527.721,30.257v3.817
					h0.889c0.846,0,1.362-0.372,1.362-1.528v-0.804c0-1.032-0.353-1.485-1.157-1.485H527.721z M527.721,36.138v4.437h1.299
					c0.763,0,1.178-0.352,1.178-1.424v-1.259c0-1.341-0.435-1.754-1.466-1.754H527.721z"/>
			</g>
			<g>
				<path fill="#808080" d="M533.827,28.194h2.271v14.444h-2.271V28.194z"/>
			</g>
			<g>
				<path fill="#808080" d="M539.769,32.176v10.461h-2.043V28.194h2.848l2.332,8.646v-8.646h2.023v14.444h-2.333L539.769,32.176z"/>
			</g>
			<g>
				<path fill="#808080" d="M548.823,42.638h-2.268V28.194h2.268v6.19h2.581v-6.19h2.312v14.444h-2.312v-6.191h-2.581V42.638z"/>
			</g>
			<g>
				<path fill="#808080" d="M558.562,28.194h3.589c2.271,0,3.385,1.258,3.385,3.569v7.305c0,2.312-1.113,3.57-3.385,3.57h-3.589
					V28.194z M560.836,30.257v10.317h1.276c0.724,0,1.155-0.372,1.155-1.404V31.66c0-1.032-0.432-1.403-1.155-1.403H560.836z"/>
			</g>
			<g>
				<path fill="#808080" d="M569.146,28.194v11.142c0,1.032,0.455,1.403,1.176,1.403c0.723,0,1.179-0.371,1.179-1.403V28.194h2.142
					v10.998c0,2.312-1.154,3.631-3.382,3.631c-2.229,0-3.382-1.32-3.382-3.631V28.194H569.146z"/>
			</g>
			<g>
				<path fill="#808080" d="M575.002,31.66c0-2.311,1.218-3.632,3.449-3.632c2.229,0,3.444,1.321,3.444,3.632v7.511
					c0,2.312-1.216,3.632-3.444,3.632c-2.23,0-3.449-1.321-3.449-3.632V31.66z M577.274,39.315c0,1.032,0.453,1.423,1.177,1.423
					c0.719,0,1.177-0.391,1.177-1.423v-7.8c0-1.032-0.458-1.423-1.177-1.423c-0.724,0-1.177,0.391-1.177,1.423V39.315z"/>
			</g>
			<g>
				<path fill="#808080" d="M585.381,32.176v10.461h-2.043V28.194h2.848l2.332,8.646v-8.646h2.022v14.444h-2.33L585.381,32.176z"/>
			</g>
			<g>
				<path fill="#808080" d="M595.573,34.59h3.177v4.581c0,2.312-1.155,3.632-3.384,3.632c-2.229,0-3.384-1.321-3.384-3.632V31.66
					c0-2.311,1.154-3.632,3.384-3.632c2.229,0,3.384,1.321,3.384,3.632v1.403h-2.146v-1.547c0-1.032-0.454-1.423-1.176-1.423
					c-0.723,0-1.176,0.391-1.176,1.423v7.8c0,1.032,0.454,1.403,1.176,1.403c0.722,0,1.176-0.371,1.176-1.403v-2.662h-1.031V34.59z"
					/>
			</g>
		</g>
		<g>
			<g>
				<path fill="#808080" d="M586.312,291.231h3.591c2.27,0,3.383,1.259,3.383,3.569v7.305c0,2.312-1.114,3.57-3.383,3.57h-3.591
					V291.231z M588.579,293.295v10.317h1.281c0.726,0,1.155-0.371,1.155-1.403v-7.51c0-1.032-0.43-1.404-1.155-1.404H588.579z"/>
			</g>
			<g>
				<path fill="#808080" d="M594.544,294.699c0-2.312,1.216-3.632,3.445-3.632c2.228,0,3.444,1.32,3.444,3.632v7.51
					c0,2.312-1.217,3.632-3.444,3.632c-2.229,0-3.445-1.32-3.445-3.632V294.699z M596.812,302.354c0,1.031,0.454,1.423,1.178,1.423
					c0.721,0,1.175-0.392,1.175-1.423v-7.8c0-1.032-0.454-1.423-1.175-1.423c-0.724,0-1.178,0.391-1.178,1.423V302.354z"/>
			</g>
			<g>
				<path fill="#808080" d="M604.918,295.214v10.462h-2.041v-14.445h2.846l2.333,8.646v-8.646h2.022v14.445h-2.333L604.918,295.214z
					"/>
			</g>
			<g>
				<path fill="#808080" d="M615.112,297.628h3.177v4.581c0,2.312-1.156,3.632-3.385,3.632s-3.384-1.32-3.384-3.632v-7.51
					c0-2.312,1.156-3.632,3.384-3.632s3.385,1.32,3.385,3.632v1.402h-2.146v-1.547c0-1.032-0.454-1.423-1.177-1.423
					c-0.722,0-1.177,0.391-1.177,1.423v7.8c0,1.031,0.455,1.403,1.177,1.403c0.723,0,1.177-0.372,1.177-1.403v-2.663h-1.031V297.628
					z"/>
			</g>
			<g>
				<path fill="#808080" d="M624.972,295.214v10.462h-2.043v-14.445h2.848l2.332,8.646v-8.646h2.023v14.445h-2.333L624.972,295.214z
					"/>
			</g>
			<g>
				<path fill="#808080" d="M639.104,305.676h-2.29l-0.392-2.621h-2.786l-0.394,2.621h-2.082l2.311-14.445h3.323L639.104,305.676z
					 M633.925,301.095h2.188l-1.096-7.304L633.925,301.095z"/>
			</g>
			<g>
				<path fill="#808080" d="M640.155,291.231h2.27v14.445h-2.27V291.231z"/>
			</g>
		</g>
		<g>
			<g>
				<path fill="#808080" d="M352.467,45.936h3.177v4.581c0,2.312-1.155,3.633-3.384,3.633c-2.229,0-3.382-1.321-3.382-3.633v-7.511
					c0-2.311,1.152-3.632,3.382-3.632c2.229,0,3.384,1.321,3.384,3.632v1.403H353.5v-1.547c0-1.033-0.456-1.424-1.179-1.424
					c-0.724,0-1.177,0.392-1.177,1.424v7.8c0,1.032,0.454,1.403,1.177,1.403c0.723,0,1.179-0.371,1.179-1.403V48h-1.033V45.936z"/>
			</g>
			<g>
				<path fill="#808080" d="M356.922,43.006c0-2.311,1.215-3.632,3.445-3.632c2.228,0,3.445,1.321,3.445,3.632v7.511
					c0,2.312-1.218,3.633-3.445,3.633c-2.23,0-3.445-1.321-3.445-3.633V43.006z M359.19,50.662c0,1.032,0.454,1.424,1.177,1.424
					c0.722,0,1.177-0.392,1.177-1.424v-7.8c0-1.033-0.455-1.424-1.177-1.424c-0.723,0-1.177,0.392-1.177,1.424V50.662z"/>
			</g>
			<g>
				<path fill="#808080" d="M371.9,51.322l1.732-11.782h2.084l-2.229,14.444h-3.385l-2.226-14.444h2.291L371.9,51.322z"/>
			</g>
			<g>
				<path fill="#808080" d="M384.113,53.984h-2.29l-0.391-2.621h-2.787l-0.392,2.621h-2.085l2.312-14.444h3.32L384.113,53.984z
					 M378.934,49.403h2.188l-1.095-7.305L378.934,49.403z"/>
			</g>
			<g>
				<path fill="#808080" d="M391.892,43.109v1.878c0,2.311-1.115,3.57-3.384,3.57h-1.074v5.427h-2.27V39.54h3.344
					C390.777,39.54,391.892,40.798,391.892,43.109z M387.434,41.604v4.89h1.074c0.722,0,1.113-0.33,1.113-1.362v-2.167
					c0-1.032-0.392-1.361-1.113-1.361H387.434z"/>
			</g>
		</g>
		<g>
			<g>
				<path fill="#808080" d="M436.308,72.776v0.516c0,1.486-0.454,2.435-1.465,2.91c1.219,0.475,1.692,1.567,1.692,3.095v1.177
					c0,2.228-1.177,3.425-3.446,3.425h-3.569V69.454h3.425C435.297,69.454,436.308,70.547,436.308,72.776z M431.789,71.517v3.818
					h0.888c0.846,0,1.362-0.372,1.362-1.527v-0.805c0-1.032-0.352-1.485-1.156-1.485H431.789z M431.789,77.398v4.437h1.3
					c0.765,0,1.177-0.352,1.177-1.424v-1.258c0-1.342-0.43-1.754-1.465-1.754H431.789z"/>
			</g>
			<g>
				<path fill="#808080" d="M437.896,69.454h2.273v14.444h-2.273V69.454z"/>
			</g>
			<g>
				<path fill="#808080" d="M443.836,73.437v10.461h-2.042V69.454h2.848l2.332,8.646v-8.646h2.021v14.444h-2.332L443.836,73.437z"/>
			</g>
			<g>
				<path fill="#808080" d="M452.894,83.898h-2.266V69.454h2.266v6.19h2.579v-6.19h2.313v14.444h-2.313v-6.191h-2.579V83.898z"/>
			</g>
			<g>
				<path fill="#808080" d="M428.86,89.053h7.018v2.063h-2.375v12.382h-2.269V91.116h-2.373V89.053z"/>
			</g>
			<g>
				<path fill="#808080" d="M439.133,103.498h-2.271V89.053h2.271v6.19h2.579v-6.19h2.313v14.445h-2.313v-6.19h-2.579V103.498z"/>
			</g>
			<g>
				<path fill="#808080" d="M453.02,103.498h-2.291l-0.393-2.622h-2.787l-0.391,2.622h-2.084l2.311-14.445h3.321L453.02,103.498z
					 M447.839,98.916h2.187l-1.093-7.304L447.839,98.916z"/>
			</g>
			<g>
				<path fill="#808080" d="M456.093,93.035v10.463h-2.044V89.053h2.848l2.331,8.646v-8.646h2.022v14.445h-2.332L456.093,93.035z"/>
			</g>
			<g>
				<path fill="#808080" d="M465.148,103.498h-2.271V89.053h2.271v6.19h2.577v-6.19h2.313v14.445h-2.313v-6.19h-2.577V103.498z"/>
			</g>
		</g>
		<g>
			<g>
				<path fill="#808080" d="M376.42,83.339v1.878c0,2.311-1.115,3.569-3.385,3.569h-1.075v5.428h-2.268V79.769h3.343
					C375.305,79.769,376.42,81.028,376.42,83.339z M371.96,81.833v4.89h1.075c0.721,0,1.113-0.33,1.113-1.362v-2.167
					c0-1.031-0.393-1.361-1.113-1.361H371.96z"/>
			</g>
			<g>
				<path fill="#808080" d="M379.739,94.214h-2.271V79.769h2.271v6.191h2.578v-6.191h2.313v14.445h-2.313v-6.191h-2.578V94.214z"/>
			</g>
			<g>
				<path fill="#808080" d="M388.445,79.769v11.144c0,1.031,0.454,1.403,1.176,1.403c0.722,0,1.176-0.372,1.176-1.403V79.769h2.147
					v10.999c0,2.311-1.159,3.632-3.387,3.632c-2.228,0-3.385-1.321-3.385-3.632V79.769H388.445z"/>
			</g>
			<g>
				<path fill="#808080" d="M371.712,103.35v10.463h-2.042V99.368h2.847l2.333,8.646v-8.646h2.028v14.445h-2.338L371.712,103.35z"/>
			</g>
			<g>
				<path fill="#808080" d="M380.77,113.813h-2.267V99.368h2.267v6.19h2.579v-6.19h2.313v14.445h-2.313v-6.19h-2.579V113.813z"/>
			</g>
			<g>
				<path fill="#808080" d="M389.476,99.368v11.143c0,1.033,0.453,1.403,1.177,1.403c0.726,0,1.175-0.37,1.175-1.403V99.368h2.146
					v10.999c0,2.311-1.155,3.632-3.384,3.632s-3.383-1.321-3.383-3.632V99.368H389.476z"/>
			</g>
			<g>
				<path fill="#808080" d="M402.866,113.813h-2.291l-0.394-2.621h-2.783l-0.393,2.621h-2.084l2.312-14.445h3.321L402.866,113.813z
					 M397.686,109.231h2.192l-1.098-7.304L397.686,109.231z"/>
			</g>
			<g>
				<path fill="#808080" d="M405.938,103.35v10.463h-2.043V99.368h2.848l2.332,8.646v-8.646h2.022v14.445h-2.333L405.938,103.35z"/>
			</g>
		</g>
		<g>
			<g>
				<path fill="#808080" d="M280.321,57.076h7.015v2.063h-2.373v12.381h-2.27V59.14h-2.372V57.076z"/>
			</g>
			<g>
				<path fill="#808080" d="M295.67,71.521h-2.29l-0.391-2.621h-2.788l-0.392,2.621h-2.084l2.312-14.445h3.322L295.67,71.521z
					 M290.491,66.94h2.186l-1.091-7.305L290.491,66.94z"/>
			</g>
			<g>
				<path fill="#808080" d="M298.743,61.059v10.462h-2.042V57.076h2.848l2.332,8.647v-8.647h2.021v14.445h-2.332L298.743,61.059z"/>
			</g>
			<g>
				<path fill="#808080" d="M287.769,79.997v0.516c0,1.486-0.454,2.436-1.464,2.909c1.218,0.475,1.69,1.569,1.69,3.096v1.176
					c0,2.229-1.175,3.425-3.444,3.425h-3.569V76.675h3.424C286.759,76.675,287.769,77.769,287.769,79.997z M283.25,78.738v3.818
					h0.889c0.846,0,1.364-0.372,1.364-1.527v-0.805c0-1.032-0.354-1.486-1.159-1.486H283.25z M283.25,84.619v4.437h1.301
					c0.763,0,1.177-0.352,1.177-1.424v-1.259c0-1.341-0.434-1.754-1.467-1.754H283.25z"/>
			</g>
			<g>
				<path fill="#808080" d="M289.356,76.675h2.271v14.444h-2.271V76.675z"/>
			</g>
			<g>
				<path fill="#808080" d="M295.297,80.657v10.462h-2.043V76.675h2.848l2.332,8.646v-8.646h2.026v14.444h-2.332L295.297,80.657z"/>
			</g>
			<g>
				<path fill="#808080" d="M304.354,91.119h-2.268V76.675h2.268v6.19h2.58v-6.19h2.312v14.444h-2.312v-6.19h-2.58V91.119z"/>
			</g>
		</g>
		<g>
			<g>
				<path fill="#808080" d="M216.366,81.833h7.015v2.063h-2.372v12.381h-2.271V83.896h-2.372V81.833z"/>
			</g>
			<g>
				<path fill="#808080" d="M231.716,96.277h-2.291l-0.39-2.621h-2.785l-0.394,2.621h-2.085l2.314-14.444h3.319L231.716,96.277z
					 M226.535,91.696h2.188l-1.094-7.306L226.535,91.696z"/>
			</g>
			<g>
				<path fill="#808080" d="M234.789,85.815v10.462h-2.042V81.833h2.848l2.33,8.646v-8.646h2.023v14.444h-2.333L234.789,85.815z"/>
			</g>
			<g>
				<path fill="#808080" d="M223.754,105.001v1.877c0,2.312-1.117,3.57-3.384,3.57h-1.075v5.426h-2.268v-14.444h3.343
					C222.637,101.431,223.754,102.69,223.754,105.001z M219.294,103.495v4.89h1.075c0.722,0,1.113-0.33,1.113-1.361v-2.167
					c0-1.032-0.391-1.361-1.113-1.361H219.294z"/>
			</g>
			<g>
				<path fill="#808080" d="M227.073,115.875h-2.27v-14.444h2.27v6.19h2.579v-6.19h2.312v14.444h-2.312v-6.19h-2.579V115.875z"/>
			</g>
			<g>
				<path fill="#808080" d="M235.78,101.431v11.143c0,1.033,0.453,1.404,1.176,1.404c0.721,0,1.176-0.371,1.176-1.404v-11.143h2.146
					v10.999c0,2.311-1.157,3.631-3.385,3.631c-2.225,0-3.385-1.32-3.385-3.631v-10.999H235.78z"/>
			</g>
		</g>
		<g>
			<g>
				<path fill="#808080" d="M526.854,84.927h7.016v2.063h-2.372v12.38h-2.27v-12.38h-2.374V84.927z"/>
			</g>
			<g>
				<path fill="#808080" d="M537.128,99.371h-2.27V84.927h2.27v6.19h2.582v-6.19h2.31v14.444h-2.31v-6.19h-2.582V99.371z"/>
			</g>
			<g>
				<path fill="#808080" d="M545.836,84.927v11.142c0,1.032,0.451,1.404,1.173,1.404c0.725,0,1.177-0.372,1.177-1.404V84.927h2.15
					v10.998c0,2.311-1.159,3.632-3.387,3.632c-2.23,0-3.385-1.321-3.385-3.632V84.927H545.836z"/>
			</g>
			<g>
				<path fill="#808080" d="M527.516,105.558h3.59c2.272,0,3.384,1.258,3.384,3.57v7.304c0,2.311-1.111,3.57-3.384,3.57h-3.59
					V105.558z M529.783,107.621v10.318h1.278c0.724,0,1.158-0.372,1.158-1.404v-7.511c0-1.031-0.434-1.403-1.158-1.403H529.783z"/>
			</g>
			<g>
				<path fill="#808080" d="M538.098,105.558V116.7c0,1.033,0.454,1.403,1.177,1.403c0.721,0,1.176-0.371,1.176-1.403v-11.142h2.147
					v10.998c0,2.311-1.158,3.632-3.386,3.632c-2.229,0-3.385-1.321-3.385-3.632v-10.998H538.098z"/>
			</g>
			<g>
				<path fill="#808080" d="M550.725,114.617v1.918c0,2.312-1.154,3.632-3.384,3.632c-2.229,0-3.381-1.32-3.381-3.632v-7.511
					c0-2.311,1.152-3.632,3.381-3.632c2.229,0,3.384,1.321,3.384,3.632v1.403h-2.147v-1.547c0-1.031-0.45-1.423-1.175-1.423
					c-0.722,0-1.177,0.392-1.177,1.423v7.8c0,1.032,0.455,1.404,1.177,1.404c0.726,0,1.175-0.372,1.175-1.404v-2.063H550.725z"/>
			</g>
		</g>
	</g>
	<rect fill="none" stroke="#E6E6E6" stroke-miterlimit="10" width="800" height="325"/>
</g>
<g id="_x31_4_x3000_物件タイプ情報_x3000_style">
</g>
<g id="_x31_5_x3000_内覧_x30FB_入居フロー_x3000_step">
</g>
<g id="_x31_6_x3000_よくある質問_x3000_help">
</g>
<g id="_x31_7_x3000_便利なリンク集_x3000_link">
</g>
<g id="_x31_8_x3000_不動産オーナー様へ_x3000_owner">
</g>
<g id="mouse-over" display="none">
</g>
</svg>
