<?xml version="1.0" encoding="utf-8"?>
<!-- Generator: Adobe Illustrator 16.0.0, SVG Export Plug-In . SVG Version: 6.00 Build 0)  -->
<!DOCTYPE svg PUBLIC "-//W3C//DTD SVG 1.1//EN" "http://www.w3.org/Graphics/SVG/1.1/DTD/svg11.dtd">
<svg version="1.1" id="Layer_1" xmlns="http://www.w3.org/2000/svg" xmlns:xlink="http://www.w3.org/1999/xlink" x="0px" y="0px"
	 width="61px" height="58px" viewBox="0 0 61 58" enable-background="new 0 0 61 58" xml:space="preserve">
<g>
	<path fill="#F3F3F3" d="M16.765,58c-2.75,0-5.698-2.379-6.551-4.994L1.699,26.787c-0.853-2.614,0.271-6.133,2.499-7.746
		L26.511,2.852c2.228-1.613,5.873-1.629,8.102-0.018L56.92,18.956c2.229,1.611,3.354,5.065,2.503,7.68l-8.518,26.372
		C50.054,55.622,47.106,58,44.356,58H16.765z"/>
</g>
<polygon fill="#818181" points="45.031,34.063 45.031,31.322 31.803,18.494 31.469,18.161 30.902,17.594 30.432,17.124 
	29.963,17.594 29.531,18.023 29.062,18.494 15.969,31.322 15.969,34.063 29.531,20.763 29.537,47.625 31.475,47.625 31.469,20.9 "/>
<g>
	<path fill="#F3F3F3" d="M16.765,57c-2.514,0-5.296-2.01-6.075-4.398L2.174,26.507c-0.779-2.389,0.282-5.649,2.317-7.123
		L26.804,3.226c0.993-0.719,2.329-1.114,3.76-1.114c1.429,0,2.763,0.395,3.755,1.113l22.308,16.129
		c2.036,1.472,3.099,4.734,2.32,7.124L50.43,52.601C49.651,54.991,46.87,57,44.356,57H16.765z"/>
	<path fill="#CDCCCC" d="M30.564,2.612L30.564,2.612c1.306,0,2.567,0.371,3.462,1.018l22.308,16.129
		c1.876,1.356,2.855,4.362,2.138,6.563l-8.518,26.375C49.237,54.898,46.674,57,44.356,57H16.765c-2.317,0-4.881-2.102-5.6-4.305
		L2.65,26.478c-0.718-2.201,0.259-5.268,2.135-6.626L27.097,3.662C27.993,3.014,29.257,2.612,30.564,2.612 M30.564,1.612
		c-1.469,0-2.939,0.403-4.053,1.21L4.198,18.981c-2.228,1.613-3.352,5.072-2.499,7.686l8.515,26.338
		C11.067,55.621,14.015,58,16.765,58h27.592c2.75,0,5.697-2.379,6.549-4.994l8.518-26.254c0.852-2.615-0.274-6.132-2.503-7.744
		L34.612,2.849C33.499,2.044,32.031,1.612,30.564,1.612L30.564,1.612z"/>
</g>
<polygon fill="#818181" points="45.031,34.063 45.031,31.322 31.803,18.494 31.469,18.161 30.902,17.594 30.432,17.124 
	29.963,17.594 29.531,18.023 29.062,18.494 15.969,31.322 15.969,34.063 29.531,20.763 29.537,47.625 31.475,47.625 31.469,20.9 "/>
</svg>
