<?xml version="1.0" encoding="utf-8"?>
<!-- Generator: Adobe Illustrator 16.0.0, SVG Export Plug-In . SVG Version: 6.00 Build 0)  -->
<!DOCTYPE svg PUBLIC "-//W3C//DTD SVG 1.1//EN" "http://www.w3.org/Graphics/SVG/1.1/DTD/svg11.dtd">
<svg version="1.1" id="Layer_1" xmlns="http://www.w3.org/2000/svg" xmlns:xlink="http://www.w3.org/1999/xlink" x="0px" y="0px"
	 width="31.311px" height="29.667px" viewBox="0 0 31.311 29.667" enable-background="new 0 0 31.311 29.667" xml:space="preserve">
<g>
	<path fill="#FBB03C" d="M8.28,29.341c-1.05,0-2.212-0.931-2.538-1.929l-4.553-14c-0.326-0.997,0.117-2.382,0.967-2.997l11.93-8.65
		c0.405-0.293,0.978-0.467,1.571-0.467c0.593,0,1.165,0.166,1.569,0.458l11.927,8.623c0.851,0.615,1.294,1.976,0.969,2.973
		l-4.554,14.06c-0.326,0.998-1.487,1.929-2.537,1.929H8.28z"/>
	<path fill="#FBB03C" d="M15.658,1.792L15.658,1.792c0.489,0,0.954,0.133,1.276,0.366l11.927,8.625
		c0.679,0.49,1.046,1.619,0.786,2.414l-4.553,13.81c-0.261,0.798-1.225,1.334-2.063,1.334H8.28c-0.838,0-1.802-0.536-2.063-1.334
		L1.664,13.132c-0.26-0.795,0.107-1.883,0.785-2.374l11.931-8.62C14.701,1.905,15.167,1.792,15.658,1.792 M15.657,0.792
		c-0.676,0-1.352,0.186-1.864,0.557L1.863,9.988c-1.024,0.742-1.542,2.333-1.149,3.536l4.553,13.793
		c0.393,1.202,1.749,2.023,3.013,2.023h14.751c1.265,0,2.62-0.821,3.013-2.023l4.554-13.892c0.393-1.203-0.126-2.752-1.151-3.494
		L17.52,1.327C17.008,0.957,16.333,0.792,15.657,0.792L15.657,0.792z"/>
</g>
</svg>
