<?xml version="1.0" encoding="utf-8"?>
<!-- Generator: Adobe Illustrator 16.0.0, SVG Export Plug-In . SVG Version: 6.00 Build 0)  -->
<!DOCTYPE svg PUBLIC "-//W3C//DTD SVG 1.1//EN" "http://www.w3.org/Graphics/SVG/1.1/DTD/svg11.dtd">
<svg version="1.1" xmlns="http://www.w3.org/2000/svg" xmlns:xlink="http://www.w3.org/1999/xlink" x="0px" y="0px" width="298px"
	 height="214.334px" viewBox="0 0 298 214.334" enable-background="new 0 0 298 214.334" xml:space="preserve">
<g id="_x31_0_x3000_特集一覧_x3000_category">
</g>
<g id="_x31_1_x3000_特集個別_x3000_">
</g>
<g id="_x31_2_x3000_サポート_x3000_suport">
</g>
<g id="_x31_3_x3000_住居エリア情報_area">
</g>
<g id="_x31_4_x3000_物件タイプ情報_x3000_style">
</g>
<g id="_x31_5_x3000_内覧_x30FB_入居フロー_x3000_step">
	<g>
		<path d="M109.756,153.974c2.384,4.22,11.526,33.75-1.194,29.147c-6.359-2.302-1.588-9.204-0.797-14.574
			c0.402-4.219-1.986-12.655,1.991-15.724"/>
		<g>
			<path d="M109.108,154.352c3.564,6.694,5.709,16.201,5.243,23.717c-0.123,1.997-0.776,4.479-3.097,4.779
				c-5.96,0.775-5.108-5.971-3.963-9.595c0.869-2.746,1.346-5.031,1.187-7.905c-0.216-3.922-1.335-8.943,1.808-11.994
				c0.695-0.675-0.366-1.734-1.061-1.061c-2.569,2.494-2.629,5.87-2.511,9.26c0.092,2.634,0.616,5.264,0.12,7.888
				c-0.438,2.308-1.392,4.524-1.966,6.803c-1.257,4.987,3.133,9.937,8.268,7.581c4.262-1.954,2.729-10.135,2.206-13.525
				c-0.852-5.535-2.282-11.715-4.939-16.703C109.948,152.741,108.654,153.499,109.108,154.352L109.108,154.352z"/>
		</g>
	</g>
	<g>
		<path d="M136.138,123.938c2.237,1.119-4.097,4.101-5.963,4.473c-6.336,1.491-9.318-4.845-15.281-5.963
			c-14.908-2.982-16.77,13.791-30.563,12.672c10.434-1.863,2.234-11.182,5.217-17.518c3.354-6.709,14.535-9.69,19.383-2.981
			c-1.865-7.827,12.67-10.809,17.145-5.964c5.966,6.337-2.982,14.909,10.063,14.909c-0.373,0.745-0.744,1.118-1.117,1.863"/>
		<g>
			<path d="M135.607,124.469c0.659,0.563-5.22,3.109-5.632,3.219c-3.941,1.053-7.188-1.975-10.175-3.955
				c-3.533-2.343-7.834-2.819-11.918-1.947c-9.414,2.01-12.91,13.063-23.552,12.585c0.066,0.491,0.133,0.982,0.199,1.474
				c5.316-1.229,6.481-4.367,5.721-9.473c-0.759-5.092-1.139-8.846,3.438-12.36c4.49-3.449,11.051-3.285,14.712,1.141
				c0.533,0.645,1.358-0.075,1.254-0.729c-0.887-5.532,5.659-7.291,9.901-7.359c5.584-0.089,8.107,3.997,8.136,9.097
				c0.033,6.04,2.265,7.979,8.446,8.157c-0.216-0.376-0.432-0.752-0.647-1.129c-0.372,0.621-0.745,1.242-1.117,1.863
				c-0.499,0.832,0.799,1.586,1.295,0.758c0.372-0.621,0.745-1.242,1.117-1.863c0.3-0.501-0.089-1.113-0.647-1.129
				c-3.913-0.113-6.845-0.736-6.955-5.078c-0.044-1.73,0.008-3.409-0.264-5.127c-0.543-3.434-3.141-5.734-6.325-6.669
				c-5.911-1.735-15.574,1.466-14.387,8.878c0.418-0.243,0.836-0.486,1.254-0.729c-4.365-5.277-12.648-5.124-17.605-0.549
				c-2.438,2.25-3.709,4.596-3.751,7.934c-0.067,5.325,3.579,11.177-3.973,12.921c-0.854,0.197-0.62,1.437,0.199,1.474
				c13.028,0.585,17.963-15.86,31.598-12.384c6.02,1.535,8.932,7.642,15.828,5.213c1.472-0.518,7.555-3.033,4.911-5.291
				C135.937,122.783,134.871,123.84,135.607,124.469L135.607,124.469z"/>
		</g>
	</g>
	<g>
		<g>
			<path d="M92.629,129.535c4.603,7.721,6.242,16.676,8.867,25.166c0.127,0.41,0.513,0.608,0.923,0.523
				c6.849-1.415,13.721-2.559,20.674-3.327c0.95-0.104,0.961-1.606,0-1.5c-3.875,0.429-7.728,0.955-11.575,1.579
				c-1.896,0.307-3.781,0.667-5.666,1.025c-3.31,0.629-3.408-0.274-4.238-3.188c-2.054-7.211-3.815-14.537-7.689-21.035
				C93.43,127.949,92.132,128.703,92.629,129.535L92.629,129.535z"/>
		</g>
	</g>
	<g>
		<g>
			<path d="M123.488,127.12c1.026,3.636,0.814,7.819,0.787,11.559c-0.023,3.121,0.578,10.052-2.086,12.312
				c-0.739,0.627,0.328,1.682,1.061,1.061c2.647-2.245,2.329-8.104,2.469-11.176c0.206-4.525,0.462-9.735-0.783-14.153
				C124.673,125.792,123.226,126.188,123.488,127.12L123.488,127.12z"/>
		</g>
	</g>
	<g>
		<g>
			<path d="M111.934,134.947c0.607,2.489,1.079,5.012,1.863,7.454c0.175-0.308,0.35-0.615,0.524-0.923
				c-1.373,0.457-2.817,1.015-4.273,1.092c0.25,0.25,0.5,0.5,0.75,0.75c-0.042-1.254-0.318-2.477-0.372-3.728
				c-0.041-0.964-1.541-0.968-1.5,0c0.054,1.251,0.33,2.474,0.372,3.728c0.013,0.392,0.331,0.772,0.75,0.75
				c1.605-0.086,3.159-0.642,4.672-1.145c0.375-0.125,0.654-0.519,0.524-0.923c-0.785-2.442-1.257-4.966-1.863-7.454
				C113.151,133.609,111.705,134.008,111.934,134.947L111.934,134.947z"/>
		</g>
	</g>
	<g>
		<g>
			<path d="M125.782,134.354c0.957-0.396,2.026-0.35,2.982-0.746c-0.308-0.175-0.615-0.35-0.923-0.524
				c0.37,2.021,0.344,4.089,0.345,6.137c0.25-0.25,0.5-0.5,0.75-0.75c-1.063,0.044-2.1,0.304-3.154,0.026
				c-0.937-0.245-1.334,1.201-0.398,1.447c1.201,0.314,2.339,0.076,3.553,0.026c0.408-0.017,0.75-0.328,0.75-0.75
				c-0.001-2.188-0.004-4.376-0.397-6.535c-0.067-0.367-0.567-0.671-0.923-0.524c-0.957,0.397-2.025,0.351-2.982,0.746
				C124.503,133.271,124.889,134.723,125.782,134.354L125.782,134.354z"/>
		</g>
	</g>
	<g>
		<g>
			<path d="M102.962,135.493c-0.007,0.162,0.04-0.177,0.004-0.048c0.041-0.145,0.148-0.295,0.309-0.377
				c0.376,0.216,0.752,0.432,1.129,0.647c0.019,0.276-0.161,0.456-0.054,0.28c0.001-0.002,0.105-0.146,0.051-0.077
				c0.18-0.228,0.386-0.435,0.589-0.641c-0.427-0.177-0.854-0.354-1.28-0.53c-0.001,0.097-0.007,0.193-0.014,0.29
				c-0.017,0.226,0.021-0.076-0.024,0.162c-0.065,0.349-0.092-0.006,0.213-0.058c0.192,0.025,0.385,0.051,0.578,0.076
				c-0.248-0.125-0.496-0.249-0.744-0.373c0.089,0.342,0.179,0.684,0.269,1.025c0.03-0.053,0.086-0.177,0.145-0.222
				c0.323-0.247-0.406,0.659-0.668-0.497c0-0.133,0-0.267,0-0.399c0.03-0.054,0.06-0.108,0.09-0.163
				c-0.638,0.722,0.419,1.787,1.061,1.061c0.452-0.512,0.419-1.258-0.303-1.495c-0.667-0.22-1.331,0.449-1.619,0.96
				c-0.191,0.338-0.101,0.84,0.269,1.025c0.516,0.259,1.035,0.646,1.613,0.335c0.563-0.303,0.632-1.167,0.636-1.728
				c0.004-0.653-0.821-0.995-1.28-0.53c-0.338,0.342-1.063,0.938-1.025,1.498c0.039,0.582,0.603,0.916,1.128,0.647
				c0.315-0.16,0.418-0.549,0.431-0.87C104.501,134.525,103.001,134.529,102.962,135.493L102.962,135.493z"/>
		</g>
	</g>
	<g>
		<g>
			<path d="M117.128,132.134c-0.104,0-0.21,0-0.314-0.001c-0.044-0.002-0.088-0.002-0.132-0.004
				c-0.28-0.035-0.175,0.062,0.316,0.289c0.025,0.193,0.051,0.386,0.075,0.578c-0.163,0.424-0.283,0.344,0.063,0.163
				c-0.127,0.034-0.253,0.068-0.379,0.103c-0.15-0.012-0.334-0.405-0.276-0.188c-0.039-0.148-0.031,0.234-0.006,0.066
				c-0.015,0.098-0.039,0.195-0.07,0.29c0.482,0,0.965,0,1.447,0c-0.028-0.192-0.122-0.367-0.233-0.523
				c-0.061-0.08-0.122-0.159-0.185-0.238c-0.21-0.269,0.16-0.019-0.146,0.373c0.579-0.74-0.354-1.762-1.061-1.061
				c-0.048,0.049-0.098,0.097-0.147,0.144c0.063-0.038,0.067-0.044,0.013-0.018c0.127-0.034,0.253-0.068,0.379-0.103
				c-0.01-0.001-0.02-0.002-0.028-0.003c0.177,0.074,0.354,0.146,0.53,0.221c0.092,0.092,0.147,0.197,0.166,0.317
				c-0.01-0.133-0.005-0.269-0.005-0.401c-0.376,0.216-0.752,0.432-1.129,0.647c0.183,0.093,0.362,0.188,0.538,0.294
				c0.201,0.121,0.024,0.109-0.021-0.14c0-0.134,0-0.267,0-0.399c0.073-0.215,0.205-0.355,0.396-0.423
				c-0.168,0.054,0.173-0.011-0.045,0.007c-0.162,0.012-0.326,0.009-0.488,0.009c-0.967,0.001-0.968,1.501,0,1.5
				c0.563,0,1.144,0.018,1.503-0.487c0.549-0.773-0.608-1.393-1.124-1.655c-0.498-0.254-1.13,0.054-1.129,0.647
				c0,0.456-0.023,0.996,0.43,1.262c0.472,0.275,0.896-0.033,1.224-0.358c-0.354-0.354-0.707-0.707-1.061-1.061
				c-0.265,0.339-0.381,0.646-0.274,1.073c0.074,0.296,0.415,0.516,0.452,0.774c0.114,0.79,1.24,0.638,1.447,0
				c0.252-0.777,0.126-1.804-0.796-2.033c-0.586-0.146-1.455,0.341-1.455,1.001c0,0.833,0.932,0.836,1.527,0.837
				C118.096,133.635,118.095,132.135,117.128,132.134L117.128,132.134z"/>
		</g>
	</g>
	<g>
		<g>
			<path d="M94.604,140.589c0.873-0.422,1.807-0.663,2.744-0.899c0.938-0.234,0.54-1.682-0.398-1.445
				c-1.068,0.268-2.108,0.568-3.104,1.05C92.977,139.715,93.737,141.008,94.604,140.589L94.604,140.589z"/>
		</g>
	</g>
	<g>
		<g>
			<path d="M93.258,140.628c0.491,1.652,1.213,3.222,1.706,4.872c0.276,0.925,1.725,0.53,1.447-0.398
				c-0.493-1.651-1.216-3.221-1.706-4.872C94.43,139.305,92.982,139.698,93.258,140.628L93.258,140.628z"/>
		</g>
	</g>
	<g>
		<g>
			<path d="M95.887,146.512c1.16-0.248,2.265-0.675,3.409-0.975c0.935-0.246,0.538-1.692-0.398-1.447
				c-1.145,0.301-2.25,0.728-3.409,0.975C94.542,145.267,94.943,146.713,95.887,146.512L95.887,146.512z"/>
		</g>
	</g>
	<g>
		<g>
			<path d="M152.187,12.389c-11.14,5.67-19.647,15.228-28.905,23.395c-5.941,5.242-12.749,9.347-19.338,13.712
				c-7.209,4.776-14.418,9.552-21.628,14.328c-11.692,7.745-23.673,15.09-35.363,22.86c-12.133,8.065-24.398,15.992-37.414,22.573
				c-0.863,0.437-0.104,1.73,0.758,1.295c25.579-12.933,48.179-30.847,72.777-45.434c6.835-4.054,13.337-8.836,19.964-13.226
				c5.895-3.906,12.045-7.58,17.608-11.948c10.919-8.571,19.752-19.875,32.299-26.261C153.807,13.245,153.047,11.951,152.187,12.389
				L152.187,12.389z"/>
		</g>
	</g>
	<g>
		<g>
			<path d="M152.187,3.816c-10.034,5.065-18.541,13.121-26.941,20.449c-11.392,9.938-23.574,18.11-36.169,26.454
				c-13.819,9.155-27.985,17.736-42.005,26.585C33.335,85.974,19.512,94.53,4.996,101.85c-0.863,0.436-0.104,1.729,0.758,1.295
				c13.951-7.035,27.257-15.219,40.472-23.535c13.999-8.809,28.157-17.358,41.944-26.492c11.943-7.913,23.908-15.453,34.752-24.843
				c9.447-8.18,18.768-17.482,30.022-23.163C153.808,4.676,153.048,3.382,152.187,3.816L152.187,3.816z"/>
		</g>
	</g>
	<g>
		<g>
			<path d="M152.035,14.424c9.015,9.613,20.227,16.375,31.003,23.783c12.654,8.699,22.631,20.926,34.181,30.969
				c21.775,18.933,47.016,34.467,71.792,49.092c0.835,0.493,1.59-0.804,0.758-1.295C264.555,102.09,239.1,86.218,216.95,66.959
				c-10.374-9.02-19.281-20.018-30.423-28.121c-11.389-8.282-23.704-15.102-33.432-25.475
				C152.433,12.656,151.374,13.719,152.035,14.424L152.035,14.424z"/>
		</g>
	</g>
	<g>
		<g>
			<path d="M152.035,4.994c8.819,9.432,19.649,16.72,30.191,24.062c12.799,8.914,23.243,20.065,34.662,30.596
				c22.446,20.697,49.573,37.158,75.762,52.614c0.835,0.493,1.59-0.804,0.758-1.295c-26.159-15.438-52.88-31.916-75.458-52.38
				c-10.392-9.418-19.679-20.041-31.17-28.173c-11.645-8.24-23.88-16-33.685-26.484C152.434,3.226,151.375,4.289,152.035,4.994
				L152.035,4.994z"/>
		</g>
	</g>
	<g>
		<g>
			<path d="M3.914,103.424c1.78,2.668,3.601,5.274,6.269,7.128c0.797,0.554,1.546-0.747,0.758-1.295
				c-2.445-1.698-4.103-4.149-5.731-6.589C4.675,101.867,3.375,102.617,3.914,103.424L3.914,103.424z"/>
		</g>
	</g>
	<g>
		<g>
			<path d="M289.31,118.855c1.356-2.352,3.012-4.508,4.367-6.859c0.484-0.839-0.813-1.594-1.295-0.756
				c-1.355,2.351-3.011,4.507-4.367,6.857C287.53,118.938,288.826,119.692,289.31,118.855L289.31,118.855z"/>
		</g>
	</g>
	<g>
		<g>
			<path d="M38.103,93.188c-0.68,20.043,4.362,39.769,3.352,59.818c-0.921,18.292-2.112,36.646-1.271,54.963
				c0.044,0.963,1.544,0.968,1.5,0c-0.816-17.799,0.281-35.639,1.192-53.412c1.057-20.59-3.97-40.804-3.272-61.369
				C39.636,92.221,38.136,92.224,38.103,93.188L38.103,93.188z"/>
		</g>
	</g>
	<g>
		<g>
			<path d="M37.933,209.72c38.697,0.007,77.395,0.395,116.092,0.364c39.038-0.03,78.056-1.562,117.081-1.562
				c0.968,0,0.968-1.5,0-1.5c-38.388,0-76.77,1.499-115.168,1.56c-39.336,0.061-78.67-0.355-118.005-0.362
				C36.965,208.22,36.965,209.72,37.933,209.72L37.933,209.72z"/>
		</g>
	</g>
	<g>
		<g>
			<path d="M271.926,107.991c-5.367,32.556-3.075,66.002-1.481,98.781c0.047,0.963,1.547,0.968,1.5,0
				c-1.587-32.632-3.915-65.973,1.429-98.383C273.528,107.443,272.083,107.038,271.926,107.991L271.926,107.991z"/>
		</g>
	</g>
	<g>
		<g>
			<path d="M86.055,207.663c1.979-7.218,0.148-15.237-1.212-22.407c-1.729-9.111-4.32-18.418-3.857-27.763
				c0.217-4.361,2.231-8.935,4.907-12.35c2.853-3.64,5.291,0.593,6.599,3.185c5.381,10.654,7.582,23.399,10.702,34.829
				c0.255,0.933,1.702,0.536,1.447-0.398c-3.299-12.081-5.584-25.666-11.677-36.751c-2.917-5.309-6.799-4.376-9.704,0.34
				c-5.097,8.271-3.976,17.217-2.382,26.359c1.878,10.773,6.723,23.646,3.729,34.558C84.352,208.199,85.799,208.595,86.055,207.663
				L86.055,207.663z"/>
		</g>
	</g>
	<g>
		<path fill="#FFFFFF" d="M98.331,194.464c-1.648-24.766,52-13,39-1"/>
		<g>
			<path d="M99.081,194.464c-0.511-12.046,12.315-14.409,21.831-13.657c4.449,0.352,23.586,4.594,15.889,12.127
				c-0.692,0.678,0.369,1.737,1.061,1.061c8.755-8.569-9.621-13.744-15.185-14.493c-10.688-1.439-25.67,1.404-25.096,14.963
				C97.622,195.428,99.122,195.432,99.081,194.464L99.081,194.464z"/>
		</g>
	</g>
	<g>
		<g>
			<path d="M98.53,196.188c12.774-2.898,25.629-4.76,38.602-2c0.943,0.2,1.345-1.246,0.398-1.447
				c-13.235-2.814-26.362-0.957-39.398,2C97.188,194.955,97.589,196.4,98.53,196.188L98.53,196.188z"/>
		</g>
	</g>
	<g>
		<g>
			<path d="M134.608,193.281c2.436,3.999,2.916,9.604,2.973,14.183c0.012,0.967,1.512,0.968,1.5,0
				c-0.06-4.857-0.601-10.709-3.178-14.94C135.401,191.699,134.104,192.452,134.608,193.281L134.608,193.281z"/>
		</g>
	</g>
	<g>
		<g>
			<path d="M138.37,193.625c4.677,1.47,3.492,8.026,4.299,11.832c0.083,0.391,0.55,0.64,0.923,0.523
				c3.762-1.164,6.032-3.555,5.126-7.627c-0.938-4.218-4.249-9.687-8.261-11.523c-0.873-0.399-1.636,0.893-0.758,1.295
				c3.118,1.428,4.863,4.596,6.303,7.555c1.939,3.986,2.036,7.355-2.809,8.855c0.308,0.174,0.615,0.349,0.923,0.523
				c-0.961-4.53,0.227-11.128-5.348-12.879C137.844,191.889,137.45,193.337,138.37,193.625L138.37,193.625z"/>
		</g>
	</g>
	<g>
		<g>
			<path d="M146.937,204.281c1.121-0.935,1.978-2.057,2.893-3.182c1.149-1.412,2.521-2.072,4.309-2.352
				c0.954-0.148,0.547-1.594-0.398-1.445c-1.678,0.262-3.11,0.85-4.34,2.034c-1.271,1.224-2.152,2.74-3.523,3.884
				C145.132,203.841,146.199,204.896,146.937,204.281L146.937,204.281z"/>
		</g>
	</g>
	<g>
		<g>
			<path d="M153.711,198.856c0.809,0.809,1.645,1.614,2.294,2.562c0.544,0.791,1.844,0.043,1.295-0.758
				c-0.725-1.055-1.626-1.962-2.528-2.864C154.087,197.111,153.026,198.172,153.711,198.856L153.711,198.856z"/>
		</g>
	</g>
	<g>
		<g>
			<path d="M156.423,201.412c-2.033,2.08-3.712,4.869-6.601,5.834c-0.913,0.306-0.521,1.754,0.398,1.447
				c3.208-1.072,5.003-3.909,7.263-6.221C158.16,201.781,157.1,200.72,156.423,201.412L156.423,201.412z"/>
		</g>
	</g>
	<g>
		<path fill="#FFFFFF" d="M108.436,154.329c-2.712,7.534-9.343,22.301,1.206,26.52"/>
		<g>
			<path d="M107.712,154.13c-2.982,8.167-9.373,22.326,1.551,27.366c0.872,0.402,1.635-0.891,0.758-1.295
				c-10.064-4.643-3.605-18.16-0.861-25.673C109.491,153.617,108.041,153.229,107.712,154.13L107.712,154.13z"/>
		</g>
	</g>
	<g>
		<path fill="#FFFFFF" d="M108.737,155.233c1.506,3.918,1.506,8.137,1.205,12.355c-0.301,5.726-0.603,6.931,5.424,7.534
			c2.11,0.301,14.766,1.808,8.137,5.424c-1.504,0.904-6.328-1.205-8.438-1.205c-2.713,0-4.521,0.904-7.232,1.808"/>
		<g>
			<path d="M108.014,155.433c1.918,5.843,0.345,11.354,1.218,17.179c0.34,2.262,2.984,2.889,4.854,3.109
				c1.684,0.2,3.354,0.441,5.022,0.746c0.876,0.16,1.736,0.375,2.597,0.601c0.27,0.083,0.539,0.165,0.809,0.247
				c2.237,0.507,1.709,1.349-1.585,2.525c-1.983-0.314-3.853-1.051-5.862-1.248c-2.493-0.244-5.158,1.041-7.432,1.834
				c-0.907,0.316-0.518,1.767,0.398,1.447c4.038-1.409,7.079-1.952,11.279-0.866c1.247,0.322,3.32,0.959,4.57,0.188
				c1.529-0.944,3.522-2.945,1.152-4.355c-2.83-1.684-6.449-2.085-9.668-2.466c-4.629-0.548-4.894-2.689-4.674-6.784
				c0.234-4.372,0.142-8.368-1.231-12.555C109.16,154.119,107.712,154.511,108.014,155.433L108.014,155.433z"/>
		</g>
	</g>
	<g>
		<g>
			<path d="M125.511,178.859c1.293-0.326,2.596-0.682,3.931-0.771c0.695-0.047,1.745,0.3,1.607,1.229
				c-0.137,0.921-1.587,1.281-2.32,1.411c-0.951,0.168-0.547,1.613,0.398,1.445c2.477-0.438,4.65-2.7,2.451-4.913
				c-1.525-1.533-4.699-0.293-6.466,0.151C124.175,177.648,124.572,179.095,125.511,178.859L125.511,178.859z"/>
		</g>
	</g>
	<g>
		<g>
			<path d="M180.01,36.2c1.648,12.342,0.632,24.691,0,37.066c-0.05,0.968,1.451,0.962,1.5,0c0.632-12.375,1.648-24.725,0-37.066
				C181.384,35.256,179.882,35.244,180.01,36.2L180.01,36.2z"/>
		</g>
	</g>
	<g>
		<g>
			<path d="M189.948,91.348c0.006-6.146,0.118-16.225-7.166-18.438c-3.783-1.15-7.807,0.713-9.474,4.159
				c-2.098,4.34-1.247,9.639-1.736,14.279c-0.102,0.962,1.399,0.951,1.5,0c0.381-3.617,0.126-7.253,0.758-10.852
				c0.838-4.775,5.235-8.013,9.938-5.584c5.116,2.644,4.684,11.608,4.68,16.436C188.447,92.314,189.947,92.314,189.948,91.348
				L189.948,91.348z"/>
		</g>
	</g>
	<g>
		<g>
			<path d="M170.616,92.674c6.896,1.822,14.357,1.829,20.769-1.583c0.854-0.454,0.096-1.749-0.758-1.295
				c-6.053,3.222-13.114,3.148-19.612,1.431C170.078,90.979,169.682,92.427,170.616,92.674L170.616,92.674z"/>
		</g>
	</g>
	<g>
		<g>
			<path d="M190.584,90.643c1.291,6.563-15.743,5.584-19.089,3.674c-0.842-0.48-1.597,0.815-0.758,1.295
				c4.47,2.553,22.998,3.302,21.294-5.367C191.845,89.295,190.398,89.698,190.584,90.643L190.584,90.643z"/>
		</g>
	</g>
	<g>
		<g>
			<path d="M169.789,92.45c0.304,0.984,0.302,2.029,0.604,3.014c0.283,0.922,1.731,0.528,1.447-0.398
				c-0.303-0.984-0.301-2.03-0.604-3.014C170.951,91.131,169.504,91.523,169.789,92.45L169.789,92.45z"/>
		</g>
	</g>
	<g>
		<g>
			<path fill="#F7931E" d="M169.532,101.549c-1.84,0.92-3.644,1.861-5.271,3.13c-0.763,0.594,0.308,1.647,1.061,1.061
				c1.518-1.183,3.255-2.038,4.969-2.896C171.155,102.411,170.396,101.117,169.532,101.549L169.532,101.549z"/>
		</g>
	</g>
	<g>
		<g>
			<path fill="#F7931E" d="M177.701,103.928c-0.91,1.238-1.561,2.588-1.884,4.096c-0.202,0.943,1.244,1.344,1.447,0.398
				c0.299-1.393,0.891-2.593,1.731-3.738C179.57,103.903,178.268,103.156,177.701,103.928L177.701,103.928z"/>
		</g>
	</g>
	<g>
		<g>
			<path fill="#F7931E" d="M183.846,104.534c1.132,1.178,1.705,2.665,2.217,4.189c0.307,0.912,1.756,0.521,1.447-0.398
				c-0.596-1.773-1.288-3.483-2.604-4.852C184.234,102.775,183.176,103.837,183.846,104.534L183.846,104.534z"/>
		</g>
	</g>
	<g>
		<g>
			<path fill="#F7931E" d="M190.627,101.939c2.727,1.381,5.351,2.954,8.136,4.219c0.874,0.396,1.637-0.896,0.758-1.295
				c-2.785-1.265-5.41-2.838-8.136-4.219C190.523,100.208,189.765,101.502,190.627,101.939L190.627,101.939z"/>
		</g>
	</g>
	<g>
		<g>
			<path d="M157.025,170.072c-3.385,3.779-6.591,7.717-9.459,11.904c-0.329,0.48,0.11,1.128,0.647,1.129
				c18.439,0.045,36.729,0.218,55.045-2.438c0.954-0.139,0.547-1.584-0.398-1.447c-18.178,2.636-36.348,2.43-54.646,2.385
				c0.216,0.376,0.432,0.752,0.647,1.129c2.796-4.084,5.925-7.917,9.225-11.602C158.729,170.415,157.672,169.351,157.025,170.072
				L157.025,170.072z"/>
		</g>
	</g>
	<g>
		<g>
			<path d="M191.982,168.722c4.093,3.673,8.547,7.19,12.053,11.451c0.615,0.747,1.67-0.32,1.061-1.061
				c-3.506-4.261-7.96-7.778-12.053-11.451C192.325,167.018,191.261,168.074,191.982,168.722L191.982,168.722z"/>
		</g>
	</g>
	<g>
		<g>
			<path d="M203.515,180.547c0,1.005,0,2.009,0,3.014c0,0.967,1.5,0.967,1.5,0c0-1.005,0-2.009,0-3.014
				C205.015,179.58,203.515,179.58,203.515,180.547L203.515,180.547z"/>
		</g>
	</g>
	<g>
		<g>
			<path d="M147.766,183.259c0,1.075,0.01,2.177,0.327,3.213c0.283,0.923,1.73,0.528,1.447-0.398
				c-0.28-0.913-0.274-1.868-0.274-2.814C149.266,182.291,147.766,182.291,147.766,183.259L147.766,183.259z"/>
		</g>
	</g>
	<g>
		<g>
			<path d="M148.516,188.228c18.694-2.288,37.666-0.191,56.249-3.642c0.95-0.177,0.547-1.622-0.398-1.447
				c-18.448,3.426-37.291,1.317-55.851,3.589C147.568,186.844,147.557,188.345,148.516,188.228L148.516,188.228z"/>
		</g>
	</g>
	<g>
		<g>
			<path d="M197.791,185.972c-0.519,7.236,0.237,14.459,0.3,21.697c0.009,0.967,1.509,0.968,1.5,0
				c-0.063-7.238-0.818-14.461-0.3-21.697C199.36,185.006,197.859,185.013,197.791,185.972L197.791,185.972z"/>
		</g>
	</g>
	<g>
		<g>
			<path d="M200.802,185.67c-0.2,7.053,0.824,14.049,0.907,21.095c0.012,0.967,1.512,0.968,1.5,0
				c-0.083-7.046-1.107-14.042-0.907-21.095C202.329,184.702,200.829,184.705,200.802,185.67L200.802,185.67z"/>
		</g>
	</g>
	<g>
		<g>
			<path d="M155.298,186.875c0,3.918,0,7.835,0,11.753c0,0.968,1.5,0.968,1.5,0c0-3.918,0-7.835,0-11.753
				C156.798,185.908,155.298,185.908,155.298,186.875L155.298,186.875z"/>
		</g>
	</g>
	<g>
		<g>
			<path d="M158.614,187.779c0.04,6.735,0.56,13.455,0.602,20.19c0.006,0.967,1.506,0.968,1.5,0
				c-0.042-6.735-0.562-13.455-0.602-20.19C160.108,186.813,158.608,186.812,158.614,187.779L158.614,187.779z"/>
		</g>
	</g>
	<g>
		<g>
			<path d="M157.556,171.353c11.813-0.015,23.481-0.551,35.156-2.438c0.953-0.153,0.547-1.599-0.398-1.445
				c-11.55,1.866-23.076,2.369-34.758,2.384C156.589,169.854,156.588,171.354,157.556,171.353L157.556,171.353z"/>
		</g>
	</g>
	<g>
		<g>
			<path d="M159.667,191.844c12.566-0.058,25.1-1.147,37.666-1.205c0.967-0.004,0.968-1.504,0-1.5
				c-12.566,0.058-25.1,1.147-37.666,1.205C158.7,190.348,158.699,191.848,159.667,191.844L159.667,191.844z"/>
		</g>
	</g>
	<g>
		<g>
			<path d="M82.674,147.7c0.21,10.535,2.408,21.882,5.075,32.05c1.217,4.642,2.309,9.15,3.121,13.885
				c0.751,4.376,2.249,9.525,0.573,13.835c-0.351,0.903,1.101,1.29,1.447,0.398c1.196-3.078,0.699-6.442,0.27-9.635
				c-0.625-4.655-1.369-9.39-2.558-13.933c-3.078-11.768-6.186-24.387-6.429-36.601C84.154,146.734,82.654,146.732,82.674,147.7
				L82.674,147.7z"/>
		</g>
	</g>
	<g>
		<g>
			<path d="M98.672,195.813c0.525,3.837,0.293,7.696,0.272,11.554c-0.005,0.968,1.495,0.967,1.5,0
				c0.021-4.001,0.219-7.975-0.325-11.952C99.988,194.46,98.543,194.868,98.672,195.813L98.672,195.813z"/>
		</g>
	</g>
	<g>
		<g>
			<path d="M84.827,160.477c4-0.715,7.452-2.781,11.029-4.596c0.862-0.438,0.104-1.731-0.758-1.295
				c-3.463,1.756-6.796,3.752-10.67,4.445C83.478,159.201,83.882,160.646,84.827,160.477L84.827,160.477z"/>
		</g>
	</g>
</g>
<g id="_x31_6_x3000_よくある質問_x3000_help">
</g>
<g id="_x31_7_x3000_便利なリンク集_x3000_link">
</g>
<g id="_x31_8_x3000_不動産オーナー様へ_x3000_owner">
</g>
<g id="mouse-over" display="none">
</g>
</svg>
