<?xml version="1.0" encoding="utf-8"?>
<!-- Generator: Adobe Illustrator 16.0.0, SVG Export Plug-In . SVG Version: 6.00 Build 0)  -->
<!DOCTYPE svg PUBLIC "-//W3C//DTD SVG 1.0//EN" "http://www.w3.org/TR/2001/REC-SVG-20010904/DTD/svg10.dtd">
<svg version="1.0" id="Layer_1" xmlns="http://www.w3.org/2000/svg"  x="0px" y="0px"
	 width="384px" height="166px" viewBox="0 0 384 166" enable-background="new 0 0 384 166" xml:space="preserve">
<g>
	<g>
		<path fill="#F7931E" d="M166.202,65.143c-0.494,0.313-1.015,0.598-1.56,0.832c-1.197,0.494-2.471,0.754-3.771,0.754
			c-1.299,0-2.573-0.26-3.744-0.754c-1.17-0.494-2.184-1.196-3.067-2.08c-0.884-0.885-1.586-1.898-2.08-3.068
			s-0.754-2.443-0.754-3.744c0-1.3,0.26-2.574,0.754-3.77c0.494-1.145,1.196-2.185,2.08-3.068c0.884-0.885,1.897-1.586,3.067-2.055
			c1.171-0.52,2.445-0.754,3.744-0.754c1.301,0,2.574,0.234,3.771,0.754c0.129,0.053,0.285,0.131,0.416,0.183v3.562
			c-1.17-0.962-2.627-1.481-4.188-1.481c-1.768,0-3.432,0.676-4.68,1.95c-1.248,1.248-1.949,2.912-1.949,4.68
			s0.701,3.432,1.949,4.68s2.912,1.951,4.68,1.951c1.77,0,3.434-0.703,4.682-1.951c0.233-0.233,0.441-0.467,0.649-0.728V65.143z"/>
		<path fill="#F7931E" d="M180.086,62.594h-6.865l-1.638,4.135h-3.328l8.398-20.177l8.372,20.177h-3.302L180.086,62.594z
			 M178.994,59.891l-2.341-5.877l-2.341,5.877H178.994z"/>
		<path fill="#F7931E" d="M198.779,66.729h-8.086h-2.99V47.436h3.016v16.563h8.061V66.729z"/>
		<path fill="#F7931E" d="M212.064,66.729h-8.086h-2.99V47.436h3.016v16.563h8.061V66.729z"/>
		<path fill="#F7931E" d="M224.258,65.194c-0.754-0.571-1.326-1.274-1.715-2.08c-0.443-0.884-0.65-1.872-0.65-2.938v-12.74h3.016
			v12.74c0,1.145,0.416,2.028,1.197,2.627c0.727,0.572,1.793,0.91,2.938,0.91c1.117,0,2.184-0.338,2.938-0.91
			c0.781-0.599,1.17-1.482,1.17-2.627v-12.74h3.043v12.74c0,1.066-0.234,2.055-0.65,2.938c-0.416,0.806-0.988,1.509-1.717,2.08
			c-1.273,0.988-2.963,1.534-4.783,1.534S225.533,66.183,224.258,65.194z"/>
		<path fill="#F7931E" d="M250.258,62.854c-0.545,1.872-2.234,3.354-4.342,3.771c-0.389,0.078-0.779,0.104-1.17,0.104
			c-0.779,0-1.561-0.13-2.287-0.416c-1.223-0.494-2.289-1.3-3.199-2.471l2.393-1.871c0.547,0.728,1.195,1.248,1.898,1.508
			c0.572,0.234,1.195,0.286,1.768,0.156c0.988-0.183,1.795-0.832,2.027-1.612c0.262-0.884-0.338-1.664-0.883-2.185
			c-0.859-0.806-2.262-2.184-2.367-2.287l-2.365-2.236c-0.729-0.702-1.223-1.482-1.482-2.314c-0.26-0.807-0.285-1.664-0.053-2.444
			c0.234-0.832,0.729-1.56,1.432-2.157c0.648-0.547,1.455-0.937,2.313-1.093c0.938-0.208,1.926-0.13,2.861,0.208
			c0.988,0.391,1.871,1.04,2.625,1.95l-2.365,1.897c-0.988-1.195-2.002-1.195-2.549-1.092c-0.676,0.131-1.248,0.572-1.404,1.118
			c-0.104,0.364-0.076,0.962,0.729,1.742l3.225,3.095c0.469,0.468,1.039,1.014,1.455,1.403c0.832,0.755,1.404,1.612,1.691,2.522
			C250.492,61.034,250.52,61.971,250.258,62.854z"/>
	</g>
	<g>
		<path d="M48.939,110.322c-0.631-0.267-1.177-0.645-1.652-1.121c-0.477-0.477-0.855-1.022-1.121-1.652
			c-0.266-0.631-0.406-1.317-0.406-2.018s0.141-1.387,0.406-2.031c0.266-0.616,0.645-1.162,1.121-1.652
			c0.476-0.477,1.021-0.841,1.652-1.107c0.631-0.266,1.316-0.406,2.018-0.406c0.7,0,1.387,0.141,2.031,0.406
			c0.615,0.267,1.162,0.631,1.652,1.107c0.477,0.49,0.84,1.036,1.106,1.652c0.267,0.645,0.406,1.331,0.406,2.031
			s-0.14,1.387-0.406,2.018c-0.267,0.63-0.63,1.176-1.106,1.652c-0.49,0.477-1.037,0.854-1.652,1.121
			c-0.645,0.266-1.331,0.406-2.031,0.406C50.256,110.729,49.57,110.588,48.939,110.322z M48.436,103.01
			c-0.673,0.672-1.051,1.568-1.051,2.521s0.378,1.85,1.051,2.521c0.672,0.672,1.568,1.051,2.521,1.051
			c0.952,0,1.849-0.379,2.521-1.051c0.672-0.672,1.051-1.568,1.051-2.521s-0.379-1.85-1.051-2.521
			c-0.673-0.672-1.569-1.051-2.521-1.051C50.004,101.959,49.107,102.338,48.436,103.01z"/>
		<path d="M59.606,104.564h3.796v1.471h-3.796v4.693h-1.624v-10.395h1.61h4.636v1.457h-4.622V104.564z"/>
		<path d="M67.068,104.564h3.797v1.471h-3.797v4.693h-1.625v-10.395h1.611h4.637v1.457h-4.623V104.564z"/>
		<path d="M72.906,110.729v-10.395h1.624v10.395H72.906z"/>
		<path d="M84.319,109.873c-0.267,0.168-0.546,0.322-0.841,0.449c-0.645,0.266-1.33,0.406-2.031,0.406
			c-0.699,0-1.387-0.141-2.017-0.406c-0.63-0.267-1.177-0.645-1.653-1.121c-0.476-0.477-0.854-1.022-1.12-1.652
			c-0.267-0.631-0.406-1.317-0.406-2.018s0.14-1.387,0.406-2.031c0.267-0.616,0.645-1.176,1.12-1.652
			c0.477-0.477,1.023-0.855,1.653-1.107c0.63-0.279,1.317-0.406,2.017-0.406c0.701,0,1.387,0.127,2.031,0.406
			c0.07,0.028,0.154,0.07,0.225,0.099v1.919c-0.631-0.519-1.414-0.799-2.256-0.799c-0.951,0-1.848,0.365-2.521,1.051
			c-0.673,0.672-1.051,1.568-1.051,2.521s0.378,1.85,1.051,2.521s1.569,1.051,2.521,1.051c0.953,0,1.85-0.379,2.521-1.051
			c0.127-0.127,0.238-0.252,0.351-0.393V109.873z"/>
		<path d="M87.788,104.564h3.796v1.471h-3.796v3.223h4.608v1.471h-4.622h-1.61v-10.395h1.61h4.622v1.457h-4.608V104.564z"/>
		<path d="M104.479,110.729h-4.357h-1.609v-10.395h1.625v8.924h4.342V110.729z"/>
		<path d="M105.666,110.729v-10.395h1.625v10.395H105.666z"/>
		<path d="M111.07,104.047v6.682h-1.625V99.844l6.527,7.158v-6.668h1.639v10.87L111.07,104.047z"/>
		<path d="M121.402,104.564h3.797v1.471h-3.797v3.223h4.609v1.471h-4.623h-1.611v-10.395h1.611h4.623v1.457h-4.609V104.564z"/>
	</g>
	<g>
		<path fill="none" stroke="#CCCCCC" stroke-miterlimit="10" d="M383.5,155.5c0,5.522-4.478,10-10,10h-363c-5.523,0-10-4.478-10-10
			v-145c0-5.523,4.477-10,10-10h363c5.522,0,10,4.477,10,10V155.5z"/>
	</g>
	<g>
		<path d="M151.42,115.783c-1.065-0.622-1.953-1.538-2.693-2.662c-1.271-1.953-1.982-4.557-1.982-7.309
			c0-2.751,0.712-5.355,1.955-7.308c0.738-1.095,1.627-1.982,2.662-2.604c1.153-0.71,2.454-1.035,3.846-1.035
			c1.391,0,2.691,0.325,3.816,1.035c1.064,0.621,1.952,1.509,2.663,2.663c1.271,1.952,1.982,4.557,1.982,7.308
			s-0.712,5.325-1.954,7.278c-0.709,1.125-1.597,2.011-2.631,2.633c-1.156,0.681-2.427,1.035-3.818,1.035
			C153.877,116.818,152.573,116.464,151.42,115.783z M151.598,100.398c-0.888,1.361-1.42,3.344-1.42,5.414
			c0,2.071,0.532,4.054,1.42,5.444c0.917,1.39,2.16,2.13,3.668,2.13c1.479,0,2.662-0.71,3.551-2.101
			c0.887-1.361,1.391-3.344,1.391-5.414c0-2.071-0.504-4.054-1.391-5.443c-0.918-1.421-2.131-2.13-3.609-2.13
			C153.698,98.299,152.485,99.008,151.598,100.398z"/>
		<path d="M181.604,110.072c0,1.776-0.683,3.434-1.864,4.646c-0.918,0.977-2.604,2.101-5.327,2.101c-2.81,0-4.555-1.124-5.502-2.07
			c-1.271-1.242-1.952-2.899-1.952-4.676c0-1.774,0.681-3.432,1.924-4.674c0.147-0.147,0.354-0.325,0.532-0.474
			c-1.124-1.095-1.716-2.574-1.716-4.141c0-1.569,0.62-3.049,1.743-4.143c0.858-0.799,2.398-1.775,4.912-1.775
			c2.455,0,3.966,0.977,4.823,1.834c1.096,1.096,1.717,2.574,1.717,4.142c0,1.569-0.621,3.019-1.687,4.112
			c0.176,0.148,0.354,0.325,0.532,0.475C180.921,106.671,181.604,108.328,181.604,110.072z M178.142,110.072
			c0-0.857-0.297-1.656-0.888-2.247c-0.65-0.681-1.687-1.066-2.9-1.066c-1.98,0-3.964,1.036-3.964,3.313
			c0,0.859,0.325,1.657,0.917,2.221c0.709,0.709,1.805,1.094,3.105,1.094c1.215,0,2.191-0.385,2.871-1.065
			C177.845,111.76,178.142,110.961,178.142,110.072z M171.129,100.784c0,0.65,0.266,1.241,0.711,1.686
			c0.591,0.562,1.479,0.857,2.572,0.857c2.221,0,3.02-1.331,3.02-2.485c0-0.65-0.236-1.271-0.682-1.715
			c-0.562-0.533-1.392-0.828-2.396-0.828c-1.095,0-1.953,0.295-2.514,0.828C171.366,99.57,171.129,100.162,171.129,100.784z"/>
		<path d="M200.633,116.818c-2.248-0.148-4.558-1.035-6.923-2.662l1.952-2.811c3.256,2.278,6.33,2.662,8.402,1.125
			c1.479-1.125,2.19-3.079,1.657-4.676c-0.267-0.739-0.74-1.332-1.479-1.774c-0.917-0.563-2.16-0.829-3.699-0.829l-2.928,0.03
			l3.787-6.953h-6.302v-3.402h12.101l-3.935,7.159c1.035,0.238,1.952,0.592,2.78,1.065c1.391,0.858,2.396,2.101,2.9,3.61
			c0.5,1.449,0.472,3.106-0.03,4.645c-0.532,1.508-1.509,2.899-2.782,3.846c-1.419,1.066-3.136,1.627-5,1.627
			C200.959,116.818,200.781,116.818,200.633,116.818z"/>
		<path d="M212.206,101.967c0-1.746,0.651-3.521,1.746-4.822c1.271-1.479,3.076-2.278,5.087-2.278c2.813,0,5.089,1.39,6.392,3.905
			c2.01,3.875,1.42,9.822-1.419,13.816c-1.037,1.479-2.279,2.573-3.729,3.314c-1.479,0.738-3.431,1.035-5.146,0.887v-3.461
			c1.183,0.147,2.633-0.029,3.608-0.504c0.947-0.473,1.774-1.213,2.456-2.219c0.59-0.828,1.035-1.774,1.391-2.78
			c-1.006,0.473-2.13,0.739-3.373,0.739c-2.753,0-4.379-1.125-5.266-2.041C212.827,105.34,212.206,103.713,212.206,101.967z
			 M215.638,101.967c0,0.857,0.294,1.627,0.799,2.188c0.62,0.622,1.539,0.977,2.781,0.977c1.421,0,2.456-0.503,3.164-1.538
			c0.387-0.503,0.563-1.035,0.653-1.33c-0.148-0.682-0.356-1.332-0.653-1.895c-0.708-1.391-1.805-2.07-3.343-2.07
			c-1.271,0-2.041,0.591-2.484,1.094C215.993,100.073,215.638,101.02,215.638,101.967z"/>
		<path d="M233.365,116.818V101.7l-2.722,2.042l-2.041-2.752l8.193-6.124v21.952H233.365z"/>
		<path d="M243.871,116.818V101.7l-2.722,2.042l-2.042-2.752l8.195-6.124v21.952H243.871z"/>
		<path d="M274.793,113.328v3.49h-15.414l2.13-2.781c4.054-5.354,5.858-7.752,8.136-10.798c0.65-0.889,1.064-1.775,1.183-2.485
			c0.058-0.533,0-0.977-0.237-1.331c-0.473-0.799-1.596-1.243-2.75-1.065c-0.65,0.119-1.242,0.385-1.717,0.827
			c-0.533,0.503-0.946,1.214-1.154,2.072l-3.076-1.805c0.413-1.125,1.065-2.072,1.893-2.841c0.977-0.888,2.191-1.479,3.521-1.687
			c2.546-0.385,5.09,0.681,6.272,2.693c0.651,1.064,0.889,2.308,0.681,3.639c-0.179,1.302-0.8,2.692-1.834,4.053
			c-1.864,2.485-3.372,4.527-6.036,8.019H274.793z"/>
		<path d="M281.336,116.818V101.7l-2.722,2.042l-2.041-2.752l8.192-6.124v21.952H281.336z"/>
		<path d="M293.353,115.783c-1.067-0.622-1.957-1.538-2.694-2.662c-1.271-1.953-1.983-4.557-1.983-7.309
			c0-2.751,0.712-5.355,1.953-7.308c0.741-1.095,1.628-1.982,2.663-2.604c1.154-0.71,2.454-1.035,3.846-1.035
			s2.692,0.325,3.817,1.035c1.065,0.621,1.951,1.509,2.662,2.663c1.271,1.952,1.983,4.557,1.983,7.308s-0.712,5.325-1.953,7.278
			c-0.71,1.125-1.598,2.011-2.635,2.633c-1.154,0.681-2.424,1.035-3.815,1.035C295.807,116.818,294.503,116.464,293.353,115.783z
			 M293.527,100.398c-0.887,1.361-1.42,3.344-1.42,5.414c0,2.071,0.533,4.054,1.42,5.444c0.918,1.39,2.159,2.13,3.669,2.13
			c1.479,0,2.661-0.71,3.551-2.101c0.887-1.361,1.39-3.344,1.39-5.414c0-2.071-0.503-4.054-1.39-5.443
			c-0.918-1.421-2.131-2.13-3.61-2.13C295.629,98.299,294.416,99.008,293.527,100.398z"/>
		<path d="M313.534,115.783c-1.066-0.622-1.954-1.538-2.693-2.662c-1.271-1.953-1.982-4.557-1.982-7.309
			c0-2.751,0.711-5.355,1.954-7.308c0.738-1.095,1.628-1.982,2.662-2.604c1.153-0.71,2.455-1.035,3.844-1.035
			c1.393,0,2.694,0.325,3.816,1.035c1.066,0.621,1.953,1.509,2.665,2.663c1.271,1.952,1.982,4.557,1.982,7.308
			s-0.711,5.325-1.953,7.278c-0.711,1.125-1.599,2.011-2.634,2.633c-1.153,0.681-2.425,1.035-3.815,1.035
			S314.687,116.464,313.534,115.783z M313.71,100.398c-0.888,1.361-1.419,3.344-1.419,5.414c0,2.071,0.531,4.054,1.419,5.444
			c0.918,1.39,2.161,2.13,3.67,2.13c1.479,0,2.662-0.71,3.551-2.101c0.887-1.361,1.39-3.344,1.39-5.414
			c0-2.071-0.503-4.054-1.39-5.443c-0.918-1.421-2.134-2.13-3.612-2.13C315.812,98.299,314.597,99.008,313.71,100.398z"/>
	</g>
	<g id="Phone_13_">
		<g>
			<path fill="#F7931E" d="M139.243,59.484l-5.18-2.664c-1.271-0.653-2.912-0.43-3.965,0.537l-0.603,0.555
				c-0.589,0.539-1.5,0.664-2.214,0.297c-1.768-0.91-3.182-2.324-4.093-4.089c-0.374-0.724-0.252-1.612,0.305-2.212l0.55-0.604
				c0.593-0.647,0.922-1.485,0.922-2.363c0-0.552-0.134-1.104-0.386-1.597l-2.663-5.18c-0.865-1.675-2.566-2.717-4.451-2.717
				c-1.107,0-2.16,0.354-3.032,1.023l-1.575,1.201c-2.477,1.887-3.492,5.144-2.531,8.104c3.194,9.851,10.933,17.795,20.703,21.251
				c0.789,0.279,1.617,0.422,2.453,0.422c1.955,0,3.867-0.795,5.236-2.184l1.803-1.826c0.933-0.942,1.445-2.188,1.445-3.51
				C141.968,62.049,140.929,60.346,139.243,59.484z M138.389,65.334l-1.798,1.824c-1.166,1.173-2.994,1.596-4.561,1.045
				c-8.894-3.149-15.945-10.381-18.854-19.352c-0.566-1.752,0.038-3.68,1.5-4.797l1.58-1.201c0.35-0.268,0.762-0.408,1.209-0.408
				c0.75,0,1.434,0.417,1.773,1.092l2.668,5.178c0.041,0.071,0.058,0.147,0.058,0.226c0,0.16-0.075,0.272-0.124,0.338l-0.566,0.604
				c-1.393,1.521-1.699,3.775-0.752,5.61c1.199,2.322,3.058,4.184,5.385,5.381c1.808,0.931,4.127,0.618,5.615-0.753l0.61-0.556
				c0.093-0.09,0.351-0.184,0.558-0.077l5.186,2.663c0.674,0.346,1.092,1.027,1.092,1.779
				C138.968,64.458,138.76,64.955,138.389,65.334z"/>
		</g>
	</g>
</g>
</svg>
