<?xml version="1.0" encoding="utf-8"?>
<!-- Generator: Adobe Illustrator 16.0.0, SVG Export Plug-In . SVG Version: 6.00 Build 0)  -->
<!DOCTYPE svg PUBLIC "-//W3C//DTD SVG 1.0//EN" "http://www.w3.org/TR/2001/REC-SVG-20010904/DTD/svg10.dtd">
<svg version="1.0" id="Layer_1" xmlns="http://www.w3.org/2000/svg"  x="0px" y="0px"
	 width="384px" height="166px" viewBox="0 0 384 166" enable-background="new 0 0 384 166" xml:space="preserve">
<g>
	<g>
		<path fill="#F7931E" d="M94.763,62.729V46.399h3.324v13.555h8.266v2.774H94.763z"/>
		<path fill="#F7931E" d="M108.7,49.185v-2.92h3.155v2.92H108.7z M108.7,62.729V50.802h3.155v11.927H108.7z"/>
		<path fill="#F7931E" d="M121.997,58.933l3.145,0.527c-0.404,1.153-1.043,2.031-1.915,2.634s-1.964,0.904-3.273,0.904
			c-2.074,0-3.609-0.678-4.604-2.033c-0.786-1.085-1.18-2.455-1.18-4.11c0-1.977,0.517-3.524,1.55-4.644s2.34-1.679,3.92-1.679
			c1.774,0,3.174,0.586,4.2,1.758c1.025,1.171,1.516,2.966,1.471,5.385h-7.906c0.022,0.936,0.277,1.664,0.764,2.185
			c0.487,0.52,1.094,0.78,1.819,0.78c0.494,0,0.91-0.135,1.247-0.404S121.824,59.531,121.997,58.933z M115.943,49.297l2.358-3.313
			h2.92l2.325,3.313h-2.538l-1.303-1.674l-1.213,1.674H115.943z M122.177,55.743c-0.022-0.914-0.259-1.608-0.708-2.083
			c-0.449-0.476-0.995-0.714-1.64-0.714c-0.688,0-1.258,0.251-1.707,0.753c-0.449,0.501-0.67,1.183-0.662,2.044H122.177z"/>
		<path fill="#F7931E" d="M138.731,62.729h-3.157v-6.087c0-1.288-0.067-2.121-0.202-2.499s-0.354-0.672-0.657-0.882
			c-0.303-0.209-0.668-0.314-1.095-0.314c-0.546,0-1.037,0.15-1.471,0.449c-0.435,0.3-0.732,0.696-0.894,1.19
			c-0.16,0.494-0.241,1.408-0.241,2.74v5.402h-3.155V50.802h2.931v1.752c1.041-1.348,2.352-2.021,3.931-2.021
			c0.696,0,1.333,0.125,1.909,0.376c0.577,0.251,1.013,0.571,1.309,0.96c0.297,0.39,0.502,0.831,0.617,1.325
			c0.117,0.494,0.176,1.202,0.176,2.123V62.729z"/>
		<path fill="#F7931E" d="M151.466,46.265v6.053c1.019-1.19,2.235-1.785,3.65-1.785c0.727,0,1.381,0.135,1.965,0.404
			s1.024,0.613,1.32,1.033c0.296,0.419,0.498,0.883,0.606,1.393c0.108,0.509,0.163,1.299,0.163,2.369v6.997h-3.156v-6.301
			c0-1.25-0.06-2.044-0.18-2.381s-0.331-0.604-0.635-0.803c-0.303-0.198-0.683-0.298-1.14-0.298c-0.524,0-0.992,0.128-1.403,0.382
			c-0.412,0.255-0.714,0.639-0.904,1.151c-0.191,0.513-0.287,1.271-0.287,2.274v5.975h-3.155V46.265H151.466z"/>
		<path fill="#F7931E" d="M169.277,58.933l3.145,0.527c-0.404,1.153-1.043,2.031-1.915,2.634s-1.963,0.904-3.273,0.904
			c-2.074,0-3.608-0.678-4.604-2.033c-0.786-1.085-1.179-2.455-1.179-4.11c0-1.977,0.516-3.524,1.549-4.644s2.34-1.679,3.92-1.679
			c1.774,0,3.175,0.586,4.2,1.758c1.025,1.171,1.517,2.966,1.472,5.385h-7.906c0.021,0.936,0.276,1.664,0.764,2.185
			c0.486,0.52,1.093,0.78,1.818,0.78c0.494,0,0.91-0.135,1.247-0.404S169.105,59.531,169.277,58.933z M163.224,49.297l2.359-3.313
			h2.92l2.324,3.313h-2.538l-1.303-1.674l-1.213,1.674H163.224z M169.457,55.743c-0.022-0.914-0.259-1.608-0.708-2.083
			c-0.449-0.476-0.995-0.714-1.639-0.714c-0.689,0-1.258,0.251-1.707,0.753c-0.449,0.501-0.671,1.183-0.663,2.044H169.457z
			 M165.526,67.231v-3.155h3.156v3.155H165.526z"/>
		<path fill="#F7931E" d="M189.347,67.266v-5.997c-0.412,0.531-0.925,0.952-1.539,1.264c-0.614,0.311-1.276,0.466-1.988,0.466
			c-1.354,0-2.471-0.51-3.346-1.527c-1.033-1.19-1.551-2.804-1.551-4.841c0-1.916,0.485-3.412,1.455-4.486s2.173-1.611,3.61-1.611
			c0.794,0,1.48,0.168,2.061,0.505s1.095,0.847,1.544,1.527v-1.763h2.909v16.464H189.347z M189.447,56.619
			c0-1.221-0.249-2.128-0.747-2.724c-0.498-0.595-1.121-0.893-1.869-0.893c-0.764,0-1.402,0.303-1.915,0.909s-0.77,1.568-0.77,2.887
			c0,1.31,0.247,2.255,0.741,2.836c0.494,0.58,1.104,0.87,1.83,0.87c0.727,0,1.363-0.326,1.91-0.978
			C189.174,58.876,189.447,57.906,189.447,56.619z"/>
		<path fill="#F7931E" d="M203.451,62.729v-1.786c-0.435,0.637-1.005,1.139-1.713,1.505c-0.707,0.367-1.454,0.551-2.24,0.551
			c-0.801,0-1.52-0.176-2.156-0.528c-0.637-0.352-1.097-0.846-1.382-1.482c-0.284-0.636-0.426-1.516-0.426-2.639v-7.547h3.155v5.48
			c0,1.677,0.058,2.704,0.174,3.083c0.116,0.378,0.328,0.677,0.635,0.898c0.307,0.221,0.696,0.331,1.168,0.331
			c0.539,0,1.022-0.148,1.448-0.443c0.428-0.296,0.719-0.663,0.877-1.101c0.156-0.438,0.235-1.511,0.235-3.218v-5.031h3.155v11.927
			H203.451z"/>
		<path fill="#F7931E" d="M212.009,54.44l-2.864-0.517c0.322-1.153,0.876-2.007,1.662-2.561c0.786-0.555,1.954-0.831,3.504-0.831
			c1.407,0,2.456,0.166,3.145,0.5c0.688,0.333,1.174,0.756,1.454,1.269c0.281,0.513,0.422,1.454,0.422,2.824l-0.034,3.684
			c0,1.049,0.051,1.821,0.151,2.319c0.102,0.498,0.29,1.031,0.567,1.601h-3.122c-0.082-0.21-0.184-0.521-0.303-0.933
			c-0.053-0.187-0.09-0.311-0.113-0.37c-0.539,0.523-1.115,0.917-1.729,1.179c-0.614,0.263-1.27,0.394-1.966,0.394
			c-1.228,0-2.195-0.333-2.903-1c-0.707-0.666-1.061-1.509-1.061-2.526c0-0.674,0.16-1.274,0.482-1.803
			c0.322-0.527,0.773-0.932,1.354-1.213c0.58-0.28,1.417-0.526,2.51-0.735c1.475-0.277,2.497-0.535,3.066-0.775v-0.314
			c0-0.606-0.15-1.038-0.449-1.297c-0.3-0.258-0.865-0.388-1.696-0.388c-0.562,0-0.999,0.11-1.313,0.332
			C212.458,53.499,212.203,53.886,212.009,54.44z M216.231,57.001c-0.404,0.135-1.045,0.296-1.921,0.482
			c-0.876,0.188-1.448,0.371-1.718,0.551c-0.412,0.292-0.618,0.662-0.618,1.111c0,0.442,0.165,0.824,0.494,1.146
			c0.329,0.322,0.749,0.483,1.258,0.483c0.569,0,1.112-0.188,1.628-0.562c0.383-0.285,0.633-0.633,0.753-1.045
			c0.082-0.27,0.124-0.782,0.124-1.538V57.001z"/>
		<path fill="#F7931E" d="M236.614,49.532h-3.402v-2.1h3.402v-1.168h3.156v1.168h1.246v2.1h-1.246v13.196h-2.932v-1.752
			c-0.486,0.681-1.062,1.188-1.724,1.521c-0.663,0.333-1.331,0.5-2.005,0.5c-1.37,0-2.544-0.553-3.521-1.656
			c-0.978-1.104-1.466-2.646-1.466-4.622c0-2.021,0.476-3.558,1.426-4.609c0.951-1.053,2.153-1.578,3.605-1.578
			c1.333,0,2.485,0.554,3.459,1.662V49.532z M231.347,56.507c0,1.272,0.177,2.193,0.528,2.763c0.509,0.823,1.221,1.235,2.134,1.235
			c0.727,0,1.344-0.309,1.854-0.927c0.509-0.617,0.764-1.54,0.764-2.769c0-1.37-0.248-2.356-0.742-2.959s-1.126-0.904-1.897-0.904
			c-0.749,0-1.376,0.298-1.881,0.894C231.6,54.435,231.347,55.323,231.347,56.507z"/>
		<path fill="#F7931E" d="M242.88,49.185v-2.92h3.156v2.92H242.88z M242.88,62.729V50.802h3.156v11.927H242.88z"/>
		<path fill="#F7931E" d="M256.178,58.933l3.145,0.527c-0.404,1.153-1.043,2.031-1.915,2.634s-1.963,0.904-3.273,0.904
			c-2.074,0-3.608-0.678-4.604-2.033c-0.786-1.085-1.179-2.455-1.179-4.11c0-1.977,0.516-3.524,1.549-4.644s2.34-1.679,3.92-1.679
			c1.774,0,3.175,0.586,4.2,1.758c1.025,1.171,1.517,2.966,1.472,5.385h-7.906c0.021,0.936,0.276,1.664,0.764,2.185
			c0.486,0.52,1.093,0.78,1.818,0.78c0.494,0,0.91-0.135,1.247-0.404S256.006,59.531,256.178,58.933z M250.124,49.297l2.359-3.313
			h2.92l2.324,3.313h-2.538l-1.303-1.674l-1.213,1.674H250.124z M256.357,55.743c-0.022-0.914-0.259-1.608-0.708-2.083
			c-0.449-0.476-0.995-0.714-1.639-0.714c-0.689,0-1.258,0.251-1.707,0.753c-0.449,0.501-0.671,1.183-0.663,2.044H256.357z
			 M252.427,67.231v-3.155h3.156v3.155H252.427z"/>
		<path fill="#F7931E" d="M272.911,62.729h-3.156v-6.087c0-1.288-0.067-2.121-0.202-2.499s-0.354-0.672-0.657-0.882
			c-0.303-0.209-0.668-0.314-1.095-0.314c-0.547,0-1.037,0.15-1.472,0.449c-0.434,0.3-0.731,0.696-0.893,1.19
			s-0.241,1.408-0.241,2.74v5.402h-3.155V50.802h2.931v1.752c1.041-1.348,2.351-2.021,3.931-2.021c0.696,0,1.333,0.125,1.909,0.376
			s1.013,0.571,1.309,0.96c0.296,0.39,0.501,0.831,0.617,1.325s0.175,1.202,0.175,2.123V62.729z"/>
		<path fill="#F7931E" d="M287.971,50.802v2.516h-2.156v4.807c0,0.973,0.021,1.54,0.062,1.701s0.135,0.294,0.281,0.398
			c0.146,0.105,0.323,0.157,0.533,0.157c0.292,0,0.715-0.101,1.27-0.303l0.27,2.448c-0.734,0.314-1.565,0.472-2.494,0.472
			c-0.568,0-1.081-0.096-1.538-0.286c-0.457-0.191-0.792-0.438-1.005-0.741c-0.214-0.304-0.361-0.714-0.443-1.23
			c-0.068-0.366-0.102-1.107-0.102-2.224v-5.199h-1.449v-2.516h1.449v-2.37l3.167-1.842v4.212H287.971z"/>
		<path fill="#F7931E" d="M293.305,46.265v6.053c1.019-1.19,2.235-1.785,3.65-1.785c0.727,0,1.381,0.135,1.965,0.404
			s1.024,0.613,1.32,1.033c0.296,0.419,0.498,0.883,0.606,1.393c0.108,0.509,0.163,1.299,0.163,2.369v6.997h-3.156v-6.301
			c0-1.25-0.06-2.044-0.18-2.381s-0.331-0.604-0.635-0.803c-0.303-0.198-0.683-0.298-1.14-0.298c-0.524,0-0.992,0.128-1.403,0.382
			c-0.412,0.255-0.714,0.639-0.904,1.151c-0.191,0.513-0.287,1.271-0.287,2.274v5.975h-3.155V46.265H293.305z"/>
		<path fill="#F7931E" d="M303.48,56.597c0-1.049,0.259-2.063,0.774-3.044c0.518-0.98,1.249-1.729,2.196-2.246
			s2.005-0.774,3.173-0.774c1.804,0,3.282,0.586,4.436,1.758c1.153,1.171,1.729,2.651,1.729,4.441c0,1.804-0.582,3.3-1.746,4.486
			s-2.63,1.78-4.397,1.78c-1.093,0-2.135-0.247-3.127-0.741s-1.746-1.219-2.264-2.173C303.739,59.129,303.48,57.967,303.48,56.597z
			 M306.715,56.765c0,1.184,0.28,2.089,0.843,2.718c0.561,0.629,1.254,0.943,2.077,0.943s1.515-0.314,2.072-0.943
			s0.837-1.542,0.837-2.74c0-1.168-0.279-2.066-0.837-2.695s-1.249-0.943-2.072-0.943s-1.517,0.314-2.077,0.943
			C306.995,54.676,306.715,55.582,306.715,56.765z"/>
		<path fill="#F7931E" d="M320.618,54.44l-2.864-0.517c0.322-1.153,0.876-2.007,1.662-2.561c0.786-0.555,1.954-0.831,3.504-0.831
			c1.407,0,2.456,0.166,3.145,0.5c0.688,0.333,1.174,0.756,1.454,1.269c0.281,0.513,0.422,1.454,0.422,2.824l-0.034,3.684
			c0,1.049,0.051,1.821,0.151,2.319c0.102,0.498,0.29,1.031,0.567,1.601h-3.122c-0.082-0.21-0.184-0.521-0.303-0.933
			c-0.053-0.187-0.09-0.311-0.113-0.37c-0.539,0.523-1.115,0.917-1.729,1.179c-0.614,0.263-1.27,0.394-1.966,0.394
			c-1.228,0-2.195-0.333-2.903-1c-0.707-0.666-1.061-1.509-1.061-2.526c0-0.674,0.16-1.274,0.482-1.803
			c0.322-0.527,0.773-0.932,1.354-1.213c0.58-0.28,1.417-0.526,2.51-0.735c1.475-0.277,2.497-0.535,3.066-0.775v-0.314
			c0-0.606-0.15-1.038-0.449-1.297c-0.3-0.258-0.865-0.388-1.696-0.388c-0.562,0-0.999,0.11-1.313,0.332
			C321.067,53.499,320.813,53.886,320.618,54.44z M324.841,57.001c-0.404,0.135-1.045,0.296-1.921,0.482
			c-0.876,0.188-1.448,0.371-1.718,0.551c-0.412,0.292-0.618,0.662-0.618,1.111c0,0.442,0.165,0.824,0.494,1.146
			c0.329,0.322,0.749,0.483,1.258,0.483c0.569,0,1.112-0.188,1.628-0.562c0.383-0.285,0.633-0.633,0.753-1.045
			c0.082-0.27,0.124-0.782,0.124-1.538V57.001z M320.966,67.231v-3.155h3.156v3.155H320.966z"/>
		<path fill="#F7931E" d="M331.05,49.185v-2.92h3.156v2.92H331.05z M331.05,62.729V50.802h3.156v11.927H331.05z"/>
	</g>
	<g>
		<path d="M57.95,96.422h3.428c0.787,0,1.384,0.062,1.79,0.185c0.55,0.165,1.02,0.456,1.409,0.872
			c0.389,0.417,0.682,0.922,0.879,1.515c0.196,0.592,0.295,1.324,0.295,2.196c0,0.766-0.108,1.456-0.327,2.072
			c-0.218,0.615-0.538,1.129-0.961,1.539c-0.326,0.31-0.764,0.553-1.314,0.73c-0.414,0.131-0.971,0.196-1.669,0.196H57.95v-4.063
			h-0.965v-1.181h0.965V96.422z M59.822,97.996v2.488h1.993v1.181h-1.993v2.495h1.409c0.622,0,1.071-0.051,1.346-0.152
			c0.364-0.127,0.642-0.36,0.832-0.698c0.267-0.479,0.399-1.208,0.399-2.19c0-0.698-0.056-1.236-0.168-1.615
			s-0.277-0.685-0.495-0.917c-0.218-0.233-0.503-0.396-0.854-0.489c-0.271-0.067-0.811-0.102-1.619-0.102H59.822z"/>
		<path d="M67.325,98.072v-1.65h1.784v1.65H67.325z M67.325,105.728v-6.741h1.784v6.741H67.325z"/>
		<path d="M74.841,103.582l1.777,0.299c-0.229,0.651-0.589,1.147-1.082,1.488s-1.109,0.511-1.851,0.511
			c-1.172,0-2.039-0.383-2.603-1.148c-0.444-0.614-0.666-1.389-0.666-2.323c0-1.117,0.292-1.992,0.876-2.625
			s1.322-0.949,2.215-0.949c1.003,0,1.795,0.331,2.374,0.993c0.58,0.663,0.857,1.678,0.832,3.044h-4.469
			c0.013,0.529,0.156,0.94,0.432,1.234c0.274,0.295,0.617,0.441,1.028,0.441c0.279,0,0.514-0.076,0.704-0.229
			S74.744,103.921,74.841,103.582z M71.42,98.136l1.333-1.872h1.65l1.313,1.872h-1.435l-0.736-0.945l-0.686,0.945H71.42z
			 M74.942,101.779c-0.013-0.516-0.146-0.908-0.399-1.178c-0.254-0.269-0.563-0.402-0.927-0.402c-0.39,0-0.711,0.142-0.965,0.425
			c-0.254,0.284-0.379,0.669-0.375,1.155H74.942z M72.721,108.273v-1.784h1.784v1.784H72.721z"/>
		<path d="M84.299,105.728h-1.783v-3.44c0-0.728-0.038-1.198-0.114-1.412s-0.2-0.38-0.371-0.498
			c-0.172-0.119-0.378-0.178-0.619-0.178c-0.31,0-0.586,0.084-0.832,0.254c-0.245,0.169-0.413,0.394-0.504,0.673
			c-0.092,0.279-0.137,0.795-0.137,1.549v3.053h-1.784v-6.741h1.657v0.99c0.588-0.762,1.328-1.143,2.222-1.143
			c0.394,0,0.753,0.071,1.079,0.213c0.325,0.142,0.572,0.322,0.739,0.543c0.167,0.22,0.283,0.47,0.35,0.749
			c0.065,0.279,0.098,0.679,0.098,1.199V105.728z"/>
		<path d="M92.812,98.986v1.422h-1.219v2.717c0,0.551,0.012,0.871,0.035,0.962c0.022,0.091,0.076,0.166,0.158,0.226
			c0.083,0.059,0.183,0.089,0.302,0.089c0.165,0,0.404-0.058,0.717-0.172l0.152,1.384c-0.414,0.178-0.884,0.267-1.409,0.267
			c-0.321,0-0.611-0.054-0.869-0.162c-0.259-0.107-0.447-0.247-0.568-0.419c-0.12-0.171-0.204-0.402-0.251-0.694
			c-0.038-0.208-0.057-0.627-0.057-1.257v-2.939h-0.819v-1.422h0.819v-1.339l1.79-1.041v2.38H92.812z"/>
		<path d="M95.826,96.422v3.422c0.576-0.673,1.264-1.01,2.063-1.01c0.41,0,0.78,0.076,1.11,0.229s0.579,0.348,0.746,0.584
			c0.167,0.237,0.281,0.5,0.343,0.787c0.062,0.288,0.092,0.734,0.092,1.34v3.954h-1.783v-3.561c0-0.707-0.034-1.155-0.102-1.346
			c-0.068-0.19-0.188-0.342-0.358-0.454c-0.172-0.112-0.387-0.168-0.645-0.168c-0.297,0-0.561,0.071-0.794,0.216
			c-0.232,0.144-0.402,0.36-0.511,0.65c-0.107,0.29-0.162,0.719-0.162,1.285v3.377h-1.783v-9.306H95.826z"/>
		<path d="M101.577,102.262c0-0.592,0.146-1.166,0.438-1.72c0.292-0.555,0.706-0.978,1.241-1.27s1.133-0.438,1.793-0.438
			c1.021,0,1.856,0.331,2.508,0.993c0.651,0.663,0.978,1.5,0.978,2.511c0,1.021-0.329,1.865-0.987,2.536s-1.486,1.006-2.484,1.006
			c-0.618,0-1.208-0.14-1.769-0.419s-0.987-0.688-1.279-1.229C101.724,103.693,101.577,103.036,101.577,102.262z M103.405,102.357
			c0,0.668,0.159,1.181,0.476,1.536c0.318,0.355,0.709,0.533,1.175,0.533s0.855-0.178,1.171-0.533s0.473-0.872,0.473-1.549
			c0-0.66-0.157-1.168-0.473-1.523s-0.705-0.533-1.171-0.533s-0.856,0.178-1.175,0.533
			C103.564,101.177,103.405,101.688,103.405,102.357z"/>
		<path d="M111.263,101.043l-1.618-0.292c0.182-0.651,0.495-1.134,0.939-1.447c0.444-0.313,1.104-0.47,1.98-0.47
			c0.796,0,1.388,0.095,1.777,0.282c0.39,0.188,0.663,0.428,0.822,0.718c0.158,0.29,0.237,0.822,0.237,1.597l-0.019,2.082
			c0,0.592,0.028,1.029,0.086,1.311c0.057,0.281,0.164,0.583,0.32,0.904h-1.765c-0.047-0.118-0.104-0.294-0.172-0.526
			c-0.029-0.106-0.051-0.176-0.063-0.21c-0.305,0.297-0.631,0.519-0.979,0.667c-0.347,0.147-0.717,0.222-1.11,0.222
			c-0.694,0-1.241-0.188-1.641-0.564c-0.4-0.377-0.601-0.853-0.601-1.429c0-0.381,0.092-0.721,0.273-1.019
			c0.182-0.299,0.437-0.527,0.765-0.686c0.328-0.159,0.801-0.297,1.419-0.416c0.834-0.156,1.411-0.303,1.732-0.438v-0.178
			c0-0.343-0.084-0.588-0.254-0.733c-0.169-0.146-0.488-0.219-0.958-0.219c-0.317,0-0.565,0.063-0.743,0.187
			C111.517,100.511,111.373,100.73,111.263,101.043z M113.649,102.49c-0.229,0.076-0.59,0.167-1.085,0.273
			c-0.495,0.105-0.819,0.209-0.972,0.311c-0.232,0.165-0.349,0.375-0.349,0.629c0,0.249,0.093,0.465,0.279,0.647
			c0.187,0.182,0.423,0.272,0.711,0.272c0.321,0,0.628-0.105,0.921-0.317c0.215-0.16,0.357-0.357,0.425-0.59
			c0.047-0.152,0.069-0.442,0.069-0.87V102.49z M111.46,108.273v-1.784h1.783v1.784H111.46z"/>
		<path d="M117.161,98.072v-1.65h1.783v1.65H117.161z M117.161,105.728v-6.741h1.783v6.741H117.161z"/>
		<path d="M59.791,122.728l-2.717-6.741h1.872l1.27,3.44l0.368,1.149c0.098-0.292,0.159-0.484,0.185-0.578
			c0.059-0.19,0.122-0.381,0.19-0.571l1.282-3.44h1.834l-2.679,6.741H59.791z"/>
		<path d="M66.5,118.043l-1.618-0.292c0.182-0.651,0.495-1.134,0.939-1.447c0.444-0.313,1.104-0.47,1.98-0.47
			c0.795,0,1.388,0.095,1.777,0.282c0.389,0.188,0.663,0.428,0.822,0.718c0.158,0.29,0.237,0.822,0.237,1.597l-0.019,2.082
			c0,0.592,0.028,1.029,0.086,1.311c0.057,0.281,0.163,0.583,0.32,0.904h-1.765c-0.047-0.118-0.104-0.294-0.172-0.526
			c-0.029-0.106-0.051-0.176-0.063-0.21c-0.305,0.297-0.63,0.519-0.978,0.667c-0.347,0.147-0.717,0.222-1.11,0.222
			c-0.694,0-1.241-0.188-1.641-0.564c-0.4-0.377-0.601-0.853-0.601-1.429c0-0.381,0.091-0.721,0.273-1.019
			c0.182-0.299,0.437-0.527,0.765-0.686c0.328-0.159,0.801-0.297,1.419-0.416c0.833-0.156,1.411-0.303,1.732-0.438v-0.178
			c0-0.343-0.084-0.588-0.254-0.733c-0.169-0.146-0.488-0.219-0.958-0.219c-0.317,0-0.565,0.063-0.743,0.187
			C66.754,117.511,66.61,117.73,66.5,118.043z M68.95,113.264h0.87c-0.051,0.575-0.253,1.027-0.606,1.354
			c-0.354,0.328-0.812,0.492-1.374,0.492c-0.563,0-1.021-0.164-1.374-0.492c-0.354-0.327-0.556-0.779-0.606-1.354h0.869
			c0.03,0.3,0.136,0.527,0.317,0.682c0.183,0.155,0.446,0.232,0.794,0.232c0.347,0,0.611-0.077,0.793-0.232
			C68.815,113.791,68.921,113.563,68.95,113.264z M68.887,119.49c-0.229,0.076-0.59,0.167-1.085,0.273
			c-0.495,0.105-0.819,0.209-0.972,0.311c-0.232,0.165-0.349,0.375-0.349,0.629c0,0.249,0.093,0.465,0.279,0.647
			c0.186,0.182,0.423,0.272,0.711,0.272c0.321,0,0.628-0.105,0.92-0.317c0.216-0.16,0.357-0.357,0.426-0.59
			c0.046-0.152,0.069-0.442,0.069-0.87V119.49z"/>
		<path d="M78.529,122.728h-1.784v-3.44c0-0.728-0.038-1.198-0.114-1.412s-0.2-0.38-0.371-0.498
			c-0.172-0.119-0.378-0.178-0.619-0.178c-0.309,0-0.586,0.084-0.831,0.254c-0.246,0.169-0.414,0.394-0.505,0.673
			s-0.137,0.795-0.137,1.549v3.053h-1.783v-6.741h1.656v0.99c0.589-0.762,1.329-1.143,2.222-1.143c0.394,0,0.754,0.071,1.079,0.213
			c0.326,0.142,0.572,0.322,0.739,0.543c0.168,0.22,0.284,0.47,0.35,0.749s0.099,0.679,0.099,1.199V122.728z"/>
		<path d="M83.899,115.986h1.663v0.99c0.216-0.338,0.508-0.613,0.876-0.825c0.368-0.211,0.776-0.317,1.225-0.317
			c0.783,0,1.447,0.307,1.993,0.921c0.546,0.613,0.819,1.468,0.819,2.564c0,1.125-0.275,2-0.825,2.624
			c-0.551,0.625-1.217,0.937-2,0.937c-0.372,0-0.71-0.074-1.013-0.222c-0.302-0.148-0.62-0.402-0.955-0.762v3.396h-1.783V115.986z
			 M85.664,119.243c0,0.757,0.15,1.316,0.45,1.679c0.301,0.361,0.667,0.543,1.099,0.543c0.414,0,0.76-0.166,1.034-0.499
			c0.275-0.332,0.413-0.877,0.413-1.634c0-0.707-0.142-1.231-0.426-1.574c-0.283-0.343-0.635-0.515-1.054-0.515
			c-0.436,0-0.798,0.168-1.085,0.505C85.808,118.084,85.664,118.583,85.664,119.243z"/>
		<path d="M93.668,113.422v3.422c0.576-0.673,1.264-1.01,2.063-1.01c0.41,0,0.78,0.076,1.11,0.229s0.579,0.348,0.746,0.584
			c0.167,0.237,0.281,0.5,0.343,0.787c0.062,0.288,0.092,0.734,0.092,1.34v3.954h-1.783v-3.561c0-0.707-0.034-1.155-0.102-1.346
			c-0.068-0.19-0.188-0.342-0.358-0.454c-0.172-0.112-0.387-0.168-0.645-0.168c-0.297,0-0.561,0.071-0.794,0.216
			c-0.232,0.144-0.402,0.36-0.511,0.65c-0.107,0.29-0.162,0.719-0.162,1.285v3.377h-1.783v-9.306H93.668z"/>
		<path d="M99.419,119.262c0-0.592,0.146-1.166,0.438-1.72c0.292-0.555,0.705-0.978,1.24-1.27c0.536-0.292,1.134-0.438,1.794-0.438
			c1.02,0,1.855,0.331,2.507,0.993c0.651,0.663,0.978,1.5,0.978,2.511c0,1.021-0.329,1.865-0.987,2.536s-1.486,1.006-2.484,1.006
			c-0.618,0-1.207-0.14-1.769-0.419c-0.561-0.279-0.986-0.688-1.278-1.229C99.565,120.693,99.419,120.036,99.419,119.262z
			 M103.793,115.161h-1.124l-1.752-1.897h1.999L103.793,115.161z M101.247,119.357c0,0.668,0.159,1.181,0.477,1.536
			c0.316,0.355,0.709,0.533,1.174,0.533c0.466,0,0.855-0.178,1.171-0.533s0.473-0.872,0.473-1.549c0-0.66-0.157-1.168-0.473-1.523
			s-0.705-0.533-1.171-0.533c-0.465,0-0.857,0.178-1.174,0.533C101.406,118.177,101.247,118.688,101.247,119.357z"/>
		<path d="M113.903,122.728h-1.783v-3.44c0-0.728-0.038-1.198-0.114-1.412s-0.2-0.38-0.371-0.498
			c-0.172-0.119-0.378-0.178-0.619-0.178c-0.309,0-0.586,0.084-0.831,0.254c-0.246,0.169-0.414,0.394-0.505,0.673
			s-0.137,0.795-0.137,1.549v3.053h-1.784v-6.741h1.657v0.99c0.588-0.762,1.329-1.143,2.222-1.143c0.394,0,0.753,0.071,1.079,0.213
			s0.572,0.322,0.739,0.543c0.167,0.22,0.284,0.47,0.35,0.749s0.098,0.679,0.098,1.199V122.728z"/>
		<path d="M115.548,123.172l2.038,0.248c0.034,0.236,0.112,0.399,0.235,0.488c0.169,0.127,0.436,0.19,0.799,0.19
			c0.466,0,0.815-0.069,1.048-0.209c0.156-0.094,0.275-0.243,0.355-0.451c0.055-0.147,0.083-0.421,0.083-0.818v-0.984
			c-0.533,0.729-1.207,1.092-2.02,1.092c-0.905,0-1.622-0.383-2.151-1.148c-0.415-0.605-0.622-1.358-0.622-2.26
			c0-1.13,0.271-1.993,0.815-2.59s1.22-0.896,2.028-0.896c0.834,0,1.521,0.366,2.063,1.099v-0.946h1.67v6.05
			c0,0.795-0.065,1.39-0.197,1.783c-0.131,0.394-0.314,0.703-0.552,0.927c-0.237,0.225-0.554,0.4-0.949,0.527
			s-0.896,0.19-1.501,0.19c-1.143,0-1.953-0.196-2.432-0.588c-0.478-0.391-0.717-0.887-0.717-1.488
			C115.542,123.329,115.544,123.257,115.548,123.172z M117.142,119.218c0,0.715,0.139,1.238,0.416,1.57
			c0.277,0.333,0.619,0.499,1.025,0.499c0.436,0,0.804-0.171,1.104-0.512c0.301-0.34,0.451-0.845,0.451-1.514
			c0-0.698-0.144-1.217-0.432-1.555c-0.288-0.339-0.651-0.508-1.092-0.508c-0.428,0-0.779,0.166-1.057,0.498
			S117.142,118.536,117.142,119.218z"/>
	</g>
	<g>
		<path fill="none" stroke="#CCCCCC" stroke-miterlimit="10" d="M383.5,155.5c0,5.523-4.478,10-10,10h-363c-5.522,0-10-4.477-10-10
			v-145c0-5.523,4.478-10,10-10h363c5.522,0,10,4.477,10,10V155.5z"/>
	</g>
	<g>
		<path d="M151.42,120.783c-1.065-0.622-1.953-1.538-2.693-2.662c-1.271-1.953-1.982-4.557-1.982-7.309
			c0-2.751,0.712-5.355,1.955-7.308c0.738-1.095,1.627-1.982,2.662-2.604c1.153-0.71,2.454-1.035,3.846-1.035
			c1.391,0,2.691,0.325,3.816,1.035c1.064,0.621,1.952,1.509,2.663,2.663c1.271,1.952,1.982,4.557,1.982,7.308
			s-0.712,5.325-1.954,7.278c-0.709,1.125-1.597,2.011-2.631,2.633c-1.156,0.681-2.427,1.035-3.818,1.035
			C153.877,121.818,152.573,121.464,151.42,120.783z M151.598,105.398c-0.888,1.361-1.42,3.344-1.42,5.414
			c0,2.071,0.532,4.054,1.42,5.444c0.917,1.39,2.16,2.13,3.668,2.13c1.479,0,2.662-0.71,3.551-2.101
			c0.887-1.361,1.391-3.344,1.391-5.414c0-2.071-0.504-4.054-1.391-5.443c-0.918-1.421-2.131-2.13-3.609-2.13
			C153.698,103.299,152.485,104.008,151.598,105.398z"/>
		<path d="M181.604,115.072c0,1.776-0.683,3.434-1.864,4.646c-0.918,0.977-2.604,2.101-5.327,2.101c-2.81,0-4.555-1.124-5.502-2.07
			c-1.271-1.242-1.952-2.899-1.952-4.676c0-1.774,0.681-3.432,1.924-4.674c0.147-0.147,0.354-0.325,0.532-0.474
			c-1.124-1.095-1.716-2.574-1.716-4.141c0-1.569,0.62-3.049,1.743-4.143c0.858-0.799,2.398-1.775,4.912-1.775
			c2.455,0,3.966,0.977,4.823,1.834c1.096,1.096,1.717,2.574,1.717,4.142c0,1.569-0.621,3.019-1.687,4.112
			c0.176,0.148,0.354,0.325,0.532,0.475C180.921,111.671,181.604,113.328,181.604,115.072z M178.142,115.072
			c0-0.857-0.297-1.656-0.888-2.247c-0.65-0.681-1.687-1.066-2.9-1.066c-1.98,0-3.964,1.036-3.964,3.313
			c0,0.859,0.325,1.657,0.917,2.221c0.709,0.709,1.805,1.094,3.105,1.094c1.215,0,2.191-0.385,2.871-1.065
			C177.845,116.76,178.142,115.961,178.142,115.072z M171.129,105.784c0,0.65,0.266,1.241,0.711,1.686
			c0.591,0.562,1.479,0.857,2.572,0.857c2.221,0,3.02-1.331,3.02-2.485c0-0.65-0.236-1.271-0.682-1.715
			c-0.562-0.533-1.392-0.828-2.396-0.828c-1.095,0-1.953,0.295-2.514,0.828C171.366,104.57,171.129,105.162,171.129,105.784z"/>
		<path d="M200.633,121.818c-2.248-0.148-4.558-1.035-6.923-2.662l1.952-2.811c3.256,2.278,6.33,2.662,8.402,1.125
			c1.479-1.125,2.19-3.079,1.657-4.676c-0.267-0.739-0.74-1.332-1.479-1.774c-0.917-0.563-2.16-0.829-3.699-0.829l-2.928,0.03
			l3.787-6.953h-6.302v-3.402h12.101l-3.935,7.159c1.035,0.238,1.952,0.592,2.78,1.065c1.391,0.858,2.396,2.101,2.9,3.61
			c0.5,1.449,0.472,3.106-0.03,4.645c-0.532,1.508-1.509,2.899-2.782,3.846c-1.419,1.066-3.136,1.627-5,1.627
			C200.959,121.818,200.781,121.818,200.633,121.818z"/>
		<path d="M212.206,106.967c0-1.746,0.651-3.521,1.746-4.822c1.271-1.479,3.076-2.278,5.087-2.278c2.813,0,5.089,1.39,6.392,3.905
			c2.01,3.875,1.42,9.822-1.419,13.816c-1.037,1.479-2.279,2.573-3.729,3.314c-1.479,0.738-3.431,1.035-5.146,0.887v-3.461
			c1.183,0.147,2.633-0.029,3.608-0.504c0.947-0.473,1.774-1.213,2.456-2.219c0.59-0.828,1.035-1.774,1.391-2.78
			c-1.006,0.473-2.13,0.739-3.373,0.739c-2.753,0-4.379-1.125-5.266-2.041C212.827,110.34,212.206,108.713,212.206,106.967z
			 M215.638,106.967c0,0.857,0.294,1.627,0.799,2.188c0.62,0.622,1.539,0.977,2.781,0.977c1.421,0,2.456-0.503,3.164-1.538
			c0.387-0.503,0.563-1.035,0.653-1.33c-0.148-0.682-0.356-1.332-0.653-1.895c-0.708-1.391-1.805-2.07-3.343-2.07
			c-1.271,0-2.041,0.591-2.484,1.094C215.993,105.073,215.638,106.02,215.638,106.967z"/>
		<path d="M233.365,121.818V106.7l-2.722,2.042l-2.041-2.752l8.193-6.124v21.952H233.365z"/>
		<path d="M243.871,121.818V106.7l-2.722,2.042l-2.042-2.752l8.195-6.124v21.952H243.871z"/>
		<path d="M274.793,118.328v3.49h-15.414l2.13-2.781c4.054-5.354,5.858-7.752,8.136-10.798c0.65-0.889,1.064-1.775,1.183-2.485
			c0.058-0.533,0-0.977-0.237-1.331c-0.473-0.799-1.596-1.243-2.75-1.065c-0.65,0.119-1.242,0.385-1.717,0.827
			c-0.533,0.503-0.946,1.214-1.154,2.072l-3.076-1.805c0.413-1.125,1.065-2.072,1.893-2.841c0.977-0.888,2.191-1.479,3.521-1.687
			c2.546-0.385,5.09,0.681,6.272,2.693c0.651,1.064,0.889,2.308,0.681,3.639c-0.179,1.302-0.8,2.692-1.834,4.053
			c-1.864,2.485-3.372,4.527-6.036,8.019H274.793z"/>
		<path d="M281.336,121.818V106.7l-2.722,2.042l-2.041-2.752l8.192-6.124v21.952H281.336z"/>
		<path d="M293.353,120.783c-1.067-0.622-1.957-1.538-2.694-2.662c-1.271-1.953-1.983-4.557-1.983-7.309
			c0-2.751,0.712-5.355,1.953-7.308c0.741-1.095,1.628-1.982,2.663-2.604c1.154-0.71,2.454-1.035,3.846-1.035
			s2.692,0.325,3.817,1.035c1.065,0.621,1.951,1.509,2.662,2.663c1.271,1.952,1.983,4.557,1.983,7.308s-0.712,5.325-1.953,7.278
			c-0.71,1.125-1.598,2.011-2.635,2.633c-1.154,0.681-2.424,1.035-3.815,1.035C295.807,121.818,294.503,121.464,293.353,120.783z
			 M293.527,105.398c-0.887,1.361-1.42,3.344-1.42,5.414c0,2.071,0.533,4.054,1.42,5.444c0.918,1.39,2.159,2.13,3.669,2.13
			c1.479,0,2.661-0.71,3.551-2.101c0.887-1.361,1.39-3.344,1.39-5.414c0-2.071-0.503-4.054-1.39-5.443
			c-0.918-1.421-2.131-2.13-3.61-2.13C295.629,103.299,294.416,104.008,293.527,105.398z"/>
		<path d="M313.534,120.783c-1.066-0.622-1.954-1.538-2.693-2.662c-1.271-1.953-1.982-4.557-1.982-7.309
			c0-2.751,0.711-5.355,1.954-7.308c0.738-1.095,1.628-1.982,2.662-2.604c1.153-0.71,2.455-1.035,3.844-1.035
			c1.393,0,2.694,0.325,3.816,1.035c1.066,0.621,1.953,1.509,2.665,2.663c1.271,1.952,1.982,4.557,1.982,7.308
			s-0.711,5.325-1.953,7.278c-0.711,1.125-1.599,2.011-2.634,2.633c-1.153,0.681-2.425,1.035-3.815,1.035
			S314.687,121.464,313.534,120.783z M313.71,105.398c-0.888,1.361-1.419,3.344-1.419,5.414c0,2.071,0.531,4.054,1.419,5.444
			c0.918,1.39,2.161,2.13,3.67,2.13c1.479,0,2.662-0.71,3.551-2.101c0.887-1.361,1.39-3.344,1.39-5.414
			c0-2.071-0.503-4.054-1.39-5.443c-0.918-1.421-2.134-2.13-3.612-2.13C315.812,103.299,314.597,104.008,313.71,105.398z"/>
	</g>
	<g id="Phone_13_">
		<g>
			<path fill="#F7931E" d="M82.237,59.484l-5.18-2.664c-1.271-0.653-2.912-0.43-3.965,0.537l-0.603,0.555
				c-0.589,0.539-1.5,0.664-2.214,0.297c-1.768-0.91-3.182-2.324-4.093-4.089c-0.374-0.724-0.252-1.612,0.305-2.212l0.55-0.604
				c0.593-0.647,0.922-1.485,0.922-2.363c0-0.552-0.134-1.104-0.386-1.597l-2.663-5.18c-0.865-1.675-2.566-2.717-4.451-2.717
				c-1.107,0-2.16,0.354-3.032,1.023l-1.575,1.201c-2.477,1.887-3.492,5.144-2.531,8.104c3.194,9.851,10.933,17.795,20.703,21.251
				c0.789,0.279,1.617,0.422,2.453,0.422c1.955,0,3.867-0.795,5.236-2.184l1.803-1.826c0.933-0.942,1.445-2.188,1.445-3.51
				C84.962,62.049,83.923,60.346,82.237,59.484z M81.383,65.334l-1.798,1.824c-1.166,1.173-2.994,1.596-4.561,1.045
				c-8.894-3.149-15.945-10.381-18.854-19.352c-0.566-1.752,0.038-3.68,1.5-4.797l1.58-1.201c0.35-0.268,0.762-0.408,1.209-0.408
				c0.75,0,1.434,0.417,1.773,1.092l2.668,5.178c0.041,0.071,0.058,0.147,0.058,0.226c0,0.16-0.075,0.272-0.124,0.338l-0.566,0.604
				c-1.393,1.521-1.699,3.775-0.752,5.61c1.199,2.322,3.058,4.184,5.385,5.381c1.808,0.931,4.127,0.618,5.615-0.753l0.61-0.556
				c0.093-0.09,0.351-0.184,0.558-0.077l5.186,2.663c0.674,0.346,1.092,1.027,1.092,1.779
				C81.962,64.458,81.754,64.955,81.383,65.334z"/>
		</g>
	</g>
</g>
</svg>
