<?xml version="1.0" encoding="utf-8"?>
<!-- Generator: Adobe Illustrator 16.0.0, SVG Export Plug-In . SVG Version: 6.00 Build 0)  -->
<!DOCTYPE svg PUBLIC "-//W3C//DTD SVG 1.1//EN" "http://www.w3.org/Graphics/SVG/1.1/DTD/svg11.dtd">
<svg version="1.1" xmlns="http://www.w3.org/2000/svg" xmlns:xlink="http://www.w3.org/1999/xlink" x="0px" y="0px"
	 width="278.344px" height="202.843px" viewBox="0 0 278.344 202.843" enable-background="new 0 0 278.344 202.843"
	 xml:space="preserve">
<g id="_x31_0_x3000_特集一覧_x3000_category">
</g>
<g id="_x31_1_x3000_特集個別_x3000_">
</g>
<g id="_x31_2_x3000_サポート_x3000_suport">
</g>
<g id="_x31_3_x3000_住居エリア情報_area">
</g>
<g id="_x31_4_x3000_物件タイプ情報_x3000_style">
</g>
<g id="_x31_5_x3000_内覧_x30FB_入居フロー_x3000_step">
	<g>
		<path fill="#FFFFFF" stroke="#ED1C24" stroke-miterlimit="10" d="M23.918,12.495l-8.12-2.743l1.259-2.762l8.127,2.781
			L23.918,12.495z M18.041,24.739l-0.443-2.809l7.966-1.256l0.443,2.809L18.041,24.739z M23.697,45.853l-2.841-0.498l-0.058-0.347
			l3.607-15.159c0.269,0.037,0.539,0.086,0.813,0.147c0.272,0.063,0.543,0.111,0.813,0.147c0.268,0.037,0.555,0.07,0.863,0.102
			c0.307,0.029,0.53,0.152,0.669,0.367L23.963,45.81L23.697,45.853z M28.883,43.497l-0.424-2.693l10.658-1.681l-1.801-11.429
			l-7.425,1.171l-0.442-2.809l7.425-1.171l-1.437-9.119l-8.736,1.377l-0.441-2.809l10.043-1.583l-0.036-0.232L29.756,7l2.313-2.099
			l8.429,7.189l6.465-1.019l0.442,2.809l-8.773,1.383l1.438,9.119l7.503-1.183l0.443,2.809l-7.503,1.183l1.801,11.429l10.658-1.68
			l0.425,2.693L28.883,43.497z"/>
	</g>
	<g>
		<g>
			<path fill="#ED1C24" d="M13.558,63.283c-2.792,14.755-2.163,29.721-1.878,44.653c0.244,12.719-0.804,24.966-2.484,37.547
				c-1.279,9.573-2.268,19.601,1.285,28.814c3.729,9.668,13.067,15.281,22.19,19.08c26.596,11.074,55.564,6.855,83.564,6.854
				c16.401-0.001,32.802-0.023,49.201-0.231c14.138-0.179,28.414-0.076,42.495-1.491c19.963-2.006,43.255-7.377,56.706-23.505
				c16.025-19.212,8.008-47.114,2.542-68.671c-1.482-5.848-2.91-11.706-3.95-17.651c-1.471-8.412-0.959-17.205-0.823-25.7
				c0.185-11.56,1.167-26.143-5.912-36.075c-5.162-7.243-14.505-10.106-22.789-11.786c-12.275-2.489-24.931-2.939-37.409-2.579
				c-21.952,0.635-43.725,4.098-65.576,6.022c-20.858,1.837-42.021-0.021-62.638,4.194c-0.947,0.194-0.546,1.64,0.398,1.447
				c16.125-3.298,32.314-2.451,48.634-3.202c16.217-0.747,32.342-2.876,48.472-4.604c15.882-1.7,31.825-2.953,47.806-2.269
				c11.095,0.475,23.492,1.818,33.549,6.82c13.169,6.549,13.805,21.385,14.006,34.422c0.222,14.391-0.606,28.209,2.588,42.356
				c5.604,24.82,17.944,56.161-1.571,78.088c-15.017,16.871-42.382,20.87-63.682,21.914c-32.147,1.575-64.353,0.312-96.509,1.167
				c-14.155,0.376-28.306,1.237-42.43-0.239c-14.366-1.503-31.07-6.021-41.733-16.276c-8.281-7.965-8.638-19.833-7.662-30.513
				c1.063-11.642,3.131-22.969,3.291-34.702c0.244-17.883-1.587-35.773,1.767-53.487C15.184,62.736,13.738,62.333,13.558,63.283
				L13.558,63.283z"/>
		</g>
	</g>
</g>
<g id="_x31_6_x3000_よくある質問_x3000_help">
</g>
<g id="_x31_7_x3000_便利なリンク集_x3000_link">
</g>
<g id="_x31_8_x3000_不動産オーナー様へ_x3000_owner">
</g>
<g id="mouse-over" display="none">
</g>
</svg>
