<?xml version="1.0" encoding="utf-8"?>
<!-- Generator: Adobe Illustrator 16.0.0, SVG Export Plug-In . SVG Version: 6.00 Build 0)  -->
<!DOCTYPE svg PUBLIC "-//W3C//DTD SVG 1.1//EN" "http://www.w3.org/Graphics/SVG/1.1/DTD/svg11.dtd">
<svg version="1.1" id="Layer_1" xmlns="http://www.w3.org/2000/svg"  x="0px" y="0px"
	 width="31.3px" height="23.9px" viewBox="0 0 31.3 23.9" enable-background="new 0 0 31.3 23.9" xml:space="preserve">
<g>
	<g>
		<path d="M27.8,8.4c-0.3,0-0.5-0.2-0.5-0.5v-3c0-0.1-0.1-0.2-0.2-0.2l-2.7,0c-0.3,0-0.5-0.2-0.5-0.5c0-0.3,0.3-0.5,0.5-0.5l2.7,0
			c0.7,0,1.2,0.6,1.2,1.2v3C28.3,8.2,28.1,8.4,27.8,8.4z"/>
	</g>
	<g>
		<path d="M3.5,8.4C3.2,8.4,3,8.2,3,7.9v-3c0-0.7,0.6-1.2,1.2-1.2l2.9,0c0,0,0,0,0,0c0.3,0,0.5,0.2,0.5,0.5c0,0.3-0.2,0.5-0.5,0.5
			l-2.9,0C4.1,4.7,4,4.8,4,4.9v3C4,8.2,3.7,8.4,3.5,8.4z"/>
	</g>
	<g>
		<path d="M24.1,8.4c-0.3,0-0.5-0.2-0.5-0.5V1h-16v6.9c0,0.3-0.2,0.5-0.5,0.5S6.6,8.2,6.6,7.9V0.5C6.6,0.2,6.9,0,7.1,0h17
			c0.3,0,0.5,0.2,0.5,0.5v7.4C24.6,8.2,24.4,8.4,24.1,8.4z"/>
	</g>
	<g>
		<path fill="#FFFFFF" d="M7.2,19.7h-6c-0.4,0-0.7-0.3-0.7-0.7V8.6c0-0.4,0.3-0.7,0.7-0.7h28.8c0.4,0,0.7,0.3,0.7,0.7V19
			c0,0.4-0.3,0.7-0.7,0.7h-6"/>
		<path d="M30.1,20.2h-6c-0.3,0-0.5-0.2-0.5-0.5c0-0.3,0.2-0.5,0.5-0.5h6c0.1,0,0.2-0.1,0.2-0.2V8.6c0-0.1-0.1-0.2-0.2-0.2H1.2
			C1.1,8.4,1,8.5,1,8.6V19c0,0.1,0.1,0.2,0.2,0.2h6c0.3,0,0.5,0.2,0.5,0.5c0,0.3-0.2,0.5-0.5,0.5h-6C0.6,20.2,0,19.7,0,19V8.6
			c0-0.7,0.6-1.2,1.2-1.2h28.8c0.7,0,1.2,0.6,1.2,1.2V19C31.3,19.7,30.7,20.2,30.1,20.2z"/>
	</g>
	<g>
		<polyline fill="#FFFFFF" points="24.1,16.2 24.1,23.4 7.1,23.4 7.1,16 		"/>
		<path d="M24.1,23.9h-17c-0.3,0-0.5-0.2-0.5-0.5V16c0-0.3,0.2-0.5,0.5-0.5s0.5,0.2,0.5,0.5v6.9h16v-6.7c0-0.3,0.2-0.5,0.5-0.5
			c0.3,0,0.5,0.2,0.5,0.5v7.2C24.6,23.7,24.4,23.9,24.1,23.9z"/>
	</g>
	<g>
		<circle fill="#808184" cx="28.2" cy="13.4" r="0.7"/>
		<path d="M28.2,14.7c-0.7,0-1.2-0.6-1.2-1.2s0.6-1.2,1.2-1.2c0.7,0,1.2,0.6,1.2,1.2S28.9,14.7,28.2,14.7z M28.2,13.2
			c-0.1,0-0.2,0.1-0.2,0.2c0,0.3,0.5,0.3,0.5,0C28.4,13.3,28.3,13.2,28.2,13.2z"/>
	</g>
	<g>
		<circle fill="#808184" cx="25.2" cy="13.4" r="0.7"/>
		<path d="M25.3,14.7c-0.7,0-1.2-0.6-1.2-1.2s0.6-1.2,1.2-1.2c0.7,0,1.2,0.6,1.2,1.2S25.9,14.7,25.3,14.7z M25.3,13.2
			c-0.1,0-0.2,0.1-0.2,0.2c0,0.3,0.5,0.3,0.5,0C25.5,13.3,25.4,13.2,25.3,13.2z"/>
	</g>
	<g>
		<path d="M30.8,16.5H0.5C0.2,16.5,0,16.3,0,16c0-0.3,0.2-0.5,0.5-0.5h30.3c0.3,0,0.5,0.2,0.5,0.5C31.3,16.3,31.1,16.5,30.8,16.5z"
			/>
	</g>
</g>
<g>
</g>
<g>
</g>
<g>
</g>
<g>
</g>
<g>
</g>
<g>
</g>
</svg>
