<?xml version="1.0" encoding="utf-8"?>
<!-- Generator: Adobe Illustrator 16.0.0, SVG Export Plug-In . SVG Version: 6.00 Build 0)  -->
<!DOCTYPE svg PUBLIC "-//W3C//DTD SVG 1.1//EN" "http://www.w3.org/Graphics/SVG/1.1/DTD/svg11.dtd">
<svg version="1.1" id="Layer_1" xmlns="http://www.w3.org/2000/svg" xmlns:xlink="http://www.w3.org/1999/xlink" x="0px" y="0px"
	 width="30.1px" height="28.5px" viewBox="0 0 30.1 28.5" enable-background="new 0 0 30.1 28.5" xml:space="preserve">
<g>
	<g>
		<path fill="#FBB03C" d="M7.7,28.5c-1,0-2.2-0.9-2.5-1.9l-4.6-14c-0.3-1,0.1-2.4,1-3L13.5,1c0.4-0.3,1-0.5,1.6-0.5
			c0.6,0,1.2,0.2,1.6,0.5l11.9,8.6c0.9,0.6,1.3,2,1,3L25,26.6c-0.3,1-1.5,1.9-2.5,1.9H7.7z"/>
		<path fill="#FBB03C" d="M15.1,1L15.1,1c0.5,0,1,0.1,1.3,0.4L28.3,10c0.7,0.5,1,1.6,0.8,2.4l-4.6,13.8c-0.3,0.8-1.2,1.3-2.1,1.3
			H7.7c-0.8,0-1.8-0.5-2.1-1.3L1.1,12.3c-0.3-0.8,0.1-1.9,0.8-2.4l11.9-8.6C14.1,1.1,14.6,1,15.1,1 M15.1,0c-0.7,0-1.4,0.2-1.9,0.6
			L1.3,9.2c-1,0.7-1.5,2.3-1.1,3.5l4.6,13.8c0.4,1.2,1.7,2,3,2h14.8c1.3,0,2.6-0.8,3-2L30,12.6c0.4-1.2-0.1-2.8-1.2-3.5L16.9,0.5
			C16.4,0.2,15.8,0,15.1,0L15.1,0z"/>
	</g>
	<g>
		<path fill="#FFFFFF" d="M4.8,19.1v-7.4h1.5v6.2h3v1.2H4.8z"/>
		<path fill="#FFFFFF" d="M10.6,19.1v-7.4h1.5v7.4H10.6z"/>
		<path fill="#FFFFFF" d="M13.9,19.1v-7.4h1.5v3.2h0l2.5-3.2h1.6l-2.3,2.9l2.7,4.5h-1.6l-1.9-3.3l-1,1.2v2.1H13.9z"/>
		<path fill="#FFFFFF" d="M20.7,19.1v-7.4h4.5v1.2h-3.1v1.7h2.6v1.2h-2.6v2h3.2v1.2H20.7z"/>
	</g>
</g>
<g>
</g>
<g>
</g>
<g>
</g>
<g>
</g>
<g>
</g>
<g>
</g>
</svg>
