<?xml version="1.0" encoding="utf-8"?>
<!-- Generator: Adobe Illustrator 16.0.0, SVG Export Plug-In . SVG Version: 6.00 Build 0)  -->
<!DOCTYPE svg PUBLIC "-//W3C//DTD SVG 1.1//EN" "http://www.w3.org/Graphics/SVG/1.1/DTD/svg11.dtd">
<svg version="1.1" id="Layer_1" xmlns="http://www.w3.org/2000/svg" xmlns:xlink="http://www.w3.org/1999/xlink" x="0px" y="0px"
	 width="91px" height="86px" viewBox="0 0 91 86" enable-background="new 0 0 91 86" xml:space="preserve">
<g>
	<path fill="#FBB03C" d="M24.431,85.5c-3.85,0-7.977-3.104-9.171-6.765L2.248,38.792c-1.194-3.66,0.38-8.53,3.499-10.788
		L39.842,3.302c3.118-2.258,8.222-2.267,11.342-0.011l34.089,24.643c3.12,2.255,4.696,7.095,3.504,10.755L75.76,78.736
		c-1.192,3.66-5.319,6.764-9.169,6.764H24.431z"/>
</g>
<g>
	<path fill="#010101" d="M14.98,56.468v-21.98h4.407v18.297h8.902v3.683H14.98z"/>
	<path fill="#010101" d="M32.089,56.468v-21.98h4.407v21.98H32.089z"/>
	<path fill="#010101" d="M41.861,56.468v-21.98h4.407v9.54h0.087l7.278-9.54h4.843l-6.728,8.641l7.916,13.339h-4.842l-5.684-9.859
		l-2.871,3.683v6.177H41.861z"/>
	<path fill="#010101" d="M62.218,56.468v-21.98h13.483v3.653h-9.076v5.075h7.714v3.683h-7.714v5.887h9.396v3.683H62.218z"/>
</g>
<g>
	<path fill="#010101" d="M27.126,68.65v0.237c0,0.018,0.006,0.03,0.018,0.04c0.012,0.008,0.026,0.01,0.044,0.004
		c0.615-0.17,1.213-0.255,1.793-0.255c0.674,0,1.229,0.169,1.666,0.505c0.437,0.338,0.655,0.787,0.655,1.35
		c0,0.539-0.16,0.987-0.479,1.345s-0.801,0.612-1.446,0.765c-0.205,0.047-0.422,0.082-0.65,0.105c-0.018,0-0.038,0-0.062,0
		c-0.117,0-0.226-0.035-0.325-0.105c-0.117-0.076-0.202-0.182-0.255-0.316c-0.012-0.041-0.018-0.082-0.018-0.123
		c0-0.064,0.021-0.126,0.062-0.185c0.064-0.1,0.155-0.149,0.272-0.149c0.234-0.012,0.434-0.032,0.598-0.062
		c0.41-0.076,0.747-0.222,1.011-0.435c0.264-0.215,0.396-0.497,0.396-0.849c0-0.334-0.135-0.595-0.404-0.782
		s-0.612-0.281-1.028-0.281c-0.58,0-1.169,0.091-1.767,0.272c-0.041,0.018-0.062,0.047-0.062,0.088c0,0.234,0.006,0.56,0.018,0.976
		s0.018,0.683,0.018,0.8c0,0.445-0.075,0.759-0.224,0.94s-0.365,0.272-0.646,0.272c-0.264,0-0.546-0.069-0.848-0.206
		c-0.302-0.139-0.564-0.332-0.787-0.58c-0.223-0.25-0.334-0.509-0.334-0.778c0-0.357,0.182-0.715,0.545-1.072
		s0.817-0.659,1.362-0.905c0.041-0.018,0.062-0.047,0.062-0.088v-0.492c0-0.404,0-0.709,0-0.914
		c0.006-0.047-0.015-0.067-0.062-0.062c-0.188,0.012-0.36,0.018-0.519,0.018c-0.281,0-0.527-0.003-0.738-0.009
		c-0.123-0.006-0.226-0.056-0.308-0.149c-0.094-0.094-0.141-0.205-0.141-0.334c0-0.105,0.041-0.193,0.123-0.264
		c0.076-0.07,0.164-0.105,0.264-0.105c0.012,0,0.023,0,0.035,0c0.229,0.018,0.478,0.026,0.747,0.026
		c0.117,0,0.299-0.006,0.545-0.018c0.047,0,0.07-0.021,0.07-0.062c0-0.146,0.001-0.312,0.004-0.497
		c0.003-0.184,0.004-0.294,0.004-0.329l-0.009-0.255c0-0.117,0.038-0.22,0.114-0.308c0.088-0.094,0.196-0.141,0.325-0.141
		s0.237,0.047,0.325,0.141c0.076,0.088,0.114,0.19,0.114,0.308l-0.009,0.237c-0.018,0.445-0.029,0.694-0.035,0.747
		c0,0.018,0.006,0.032,0.018,0.044s0.026,0.018,0.044,0.018c0.439-0.053,0.861-0.126,1.266-0.22
		c0.029-0.012,0.059-0.018,0.088-0.018c0.076,0,0.146,0.026,0.211,0.079c0.094,0.064,0.141,0.155,0.141,0.272
		c0,0.129-0.041,0.24-0.123,0.334c-0.076,0.1-0.179,0.161-0.308,0.185c-0.41,0.082-0.841,0.149-1.292,0.202
		c-0.041,0.006-0.062,0.029-0.062,0.07C27.132,68.123,27.126,68.445,27.126,68.65z M26.054,71.858c0.199,0,0.299-0.138,0.299-0.413
		c0-0.1-0.004-0.303-0.013-0.611c-0.009-0.307-0.013-0.537-0.013-0.689c0-0.018-0.007-0.029-0.022-0.035s-0.028-0.006-0.04,0
		c-0.311,0.158-0.561,0.337-0.751,0.536s-0.286,0.387-0.286,0.563c0,0.164,0.095,0.313,0.286,0.448S25.884,71.858,26.054,71.858z
		 M29.886,67.139c-0.1-0.053-0.164-0.132-0.193-0.237c-0.006-0.035-0.009-0.07-0.009-0.105c0-0.064,0.018-0.129,0.053-0.193
		c0.053-0.094,0.132-0.155,0.237-0.185c0.041-0.012,0.079-0.018,0.114-0.018c0.07,0,0.135,0.015,0.193,0.044
		c0.527,0.287,0.999,0.571,1.415,0.853c0.1,0.064,0.161,0.155,0.185,0.272c0.006,0.035,0.009,0.067,0.009,0.097
		c0,0.082-0.023,0.161-0.07,0.237c-0.059,0.094-0.144,0.149-0.255,0.167c-0.023,0.006-0.047,0.009-0.07,0.009
		c-0.082,0-0.158-0.026-0.229-0.079C30.92,67.748,30.46,67.461,29.886,67.139z"/>
	<path fill="#010101" d="M40.666,65.961c0.067,0.07,0.101,0.154,0.101,0.25c0,0.098-0.034,0.18-0.101,0.246
		c-0.067,0.068-0.151,0.102-0.25,0.102h-5.353c-0.041,0-0.073,0.021-0.097,0.062c-0.311,0.621-0.668,1.154-1.072,1.6
		c-0.088,0.1-0.202,0.152-0.343,0.158c-0.012,0-0.023,0-0.035,0c-0.123,0-0.234-0.035-0.334-0.105
		c-0.105-0.07-0.158-0.173-0.158-0.308c0-0.1,0.038-0.188,0.114-0.264c0.615-0.609,1.09-1.392,1.424-2.347
		c0.047-0.123,0.123-0.217,0.229-0.281c0.082-0.047,0.164-0.07,0.246-0.07c0.035,0,0.07,0.006,0.105,0.018
		c0.117,0.023,0.208,0.088,0.272,0.193c0.035,0.059,0.053,0.123,0.053,0.193c0,0.041-0.009,0.085-0.026,0.132
		c-0.029,0.082-0.062,0.167-0.097,0.255c-0.006,0.018-0.004,0.032,0.004,0.044s0.022,0.018,0.04,0.018h5.027
		C40.515,65.855,40.599,65.891,40.666,65.961z M36.803,69.617c0.064-0.105,0.155-0.179,0.272-0.22
		c0.059-0.023,0.12-0.035,0.185-0.035c0.053,0,0.105,0.009,0.158,0.026c0.105,0.035,0.179,0.103,0.22,0.202
		c0.018,0.041,0.026,0.082,0.026,0.123c0,0.059-0.018,0.117-0.053,0.176c-0.229,0.363-0.495,0.718-0.8,1.063
		c-0.023,0.035-0.018,0.064,0.018,0.088c0.463,0.346,0.838,0.65,1.125,0.914c0.094,0.082,0.141,0.185,0.141,0.308
		c0,0.129-0.047,0.237-0.141,0.325c-0.094,0.082-0.199,0.123-0.316,0.123c-0.006,0-0.012,0-0.018,0
		c-0.123,0-0.231-0.044-0.325-0.132c-0.293-0.281-0.653-0.586-1.081-0.914c-0.035-0.023-0.07-0.021-0.105,0.009
		c-0.598,0.557-1.274,1.034-2.03,1.433c-0.082,0.041-0.164,0.062-0.246,0.062c-0.041,0-0.082-0.006-0.123-0.018
		c-0.123-0.023-0.231-0.085-0.325-0.185c-0.059-0.059-0.088-0.129-0.088-0.211c0-0.018,0.003-0.038,0.009-0.062
		c0.018-0.105,0.073-0.179,0.167-0.22c0.738-0.352,1.397-0.782,1.978-1.292c0.029-0.029,0.026-0.056-0.009-0.079
		c-0.41-0.275-0.814-0.533-1.213-0.773c-0.088-0.053-0.138-0.129-0.149-0.229s0.021-0.185,0.097-0.255
		c0.088-0.082,0.193-0.129,0.316-0.141c0.023-0.006,0.047-0.009,0.07-0.009c0.094,0,0.185,0.026,0.272,0.079
		c0.434,0.24,0.835,0.486,1.204,0.738c0.041,0.023,0.076,0.018,0.105-0.018C36.39,70.221,36.61,69.928,36.803,69.617z M33.85,69.037
		c-0.07-0.07-0.105-0.154-0.105-0.25c0-0.098,0.035-0.181,0.105-0.251s0.155-0.105,0.255-0.105h4.957
		c0.141,0,0.262,0.052,0.365,0.153c0.103,0.104,0.154,0.225,0.154,0.365c0.006,1.096,0.063,1.943,0.171,2.545
		c0.108,0.6,0.292,0.9,0.549,0.9c0.117-0.006,0.185-0.293,0.202-0.861c0.006-0.07,0.042-0.119,0.11-0.145
		c0.067-0.027,0.125-0.017,0.171,0.03c0.182,0.164,0.272,0.349,0.272,0.554c0,0.023,0,0.047,0,0.07
		c-0.041,0.428-0.12,0.729-0.237,0.905s-0.305,0.267-0.563,0.272c-0.205,0-0.385-0.044-0.541-0.132s-0.287-0.222-0.396-0.399
		c-0.108-0.18-0.198-0.379-0.268-0.598c-0.07-0.221-0.127-0.49-0.171-0.809c-0.044-0.32-0.076-0.639-0.097-0.959
		c-0.021-0.318-0.037-0.689-0.048-1.111c0-0.047-0.023-0.07-0.07-0.07h-4.562C34.005,69.143,33.92,69.107,33.85,69.037z
		 M39.84,67.248c0.067,0.068,0.101,0.148,0.101,0.242s-0.034,0.174-0.101,0.242c-0.067,0.066-0.148,0.101-0.242,0.101h-4.474
		c-0.094,0-0.174-0.034-0.242-0.101c-0.067-0.068-0.101-0.148-0.101-0.242s0.034-0.174,0.101-0.242
		c0.067-0.066,0.148-0.101,0.242-0.101h4.474C39.692,67.147,39.772,67.182,39.84,67.248z"/>
	<path fill="#010101" d="M42.947,66.11c0.018-0.135,0.079-0.246,0.185-0.334c0.094-0.082,0.199-0.123,0.316-0.123
		c0.012,0,0.026,0,0.044,0c0.129,0.012,0.229,0.07,0.299,0.176c0.047,0.076,0.07,0.155,0.07,0.237c0,0.035-0.003,0.073-0.009,0.114
		c-0.023,0.076-0.041,0.144-0.053,0.202c-0.1,0.48-0.198,1.053-0.294,1.719c-0.097,0.664-0.145,1.211-0.145,1.639
		c0,0.299,0.018,0.589,0.053,0.87c0,0.006,0.004,0.009,0.013,0.009s0.016-0.003,0.022-0.009c0.076-0.199,0.182-0.46,0.316-0.782
		c0.023-0.07,0.072-0.114,0.145-0.132s0.139-0.003,0.198,0.044c0.07,0.053,0.117,0.12,0.141,0.202
		c0.012,0.041,0.018,0.079,0.018,0.114c0,0.047-0.009,0.094-0.026,0.141c-0.123,0.357-0.234,0.701-0.334,1.033
		c-0.1,0.33-0.167,0.587-0.202,0.769c-0.029,0.117-0.044,0.229-0.044,0.334c-0.006,0.111-0.045,0.208-0.119,0.29
		s-0.163,0.129-0.268,0.141c-0.012,0-0.023,0-0.035,0c-0.105,0-0.202-0.032-0.29-0.097c-0.094-0.064-0.152-0.155-0.176-0.272
		c-0.164-0.744-0.246-1.573-0.246-2.487c0-0.311,0.016-0.656,0.048-1.037s0.066-0.698,0.101-0.954
		c0.035-0.254,0.081-0.559,0.136-0.914c0.056-0.354,0.089-0.569,0.101-0.646C42.923,66.274,42.935,66.192,42.947,66.11z
		 M45.153,70.382c0.023-0.117,0.079-0.211,0.167-0.281c0.082-0.059,0.173-0.088,0.272-0.088c0.018,0,0.032,0,0.044,0
		c0.105,0.012,0.19,0.062,0.255,0.149c0.053,0.07,0.079,0.146,0.079,0.229c0,0.018-0.003,0.038-0.009,0.062
		c-0.018,0.135-0.026,0.267-0.026,0.396c0,0.48,0.459,0.721,1.379,0.721c0.615,0,1.199-0.05,1.75-0.149
		c0.029-0.006,0.055-0.009,0.078-0.009c0.094,0,0.18,0.032,0.256,0.097c0.1,0.076,0.148,0.182,0.148,0.316
		c0,0.129-0.043,0.246-0.131,0.352s-0.199,0.167-0.334,0.185c-0.521,0.07-1.117,0.105-1.785,0.105c-0.744,0-1.299-0.12-1.665-0.36
		s-0.549-0.583-0.549-1.028C45.083,70.883,45.106,70.651,45.153,70.382z M45.988,67.288c-0.123-0.006-0.229-0.058-0.316-0.153
		c-0.088-0.098-0.132-0.21-0.132-0.339c0-0.117,0.044-0.217,0.132-0.299c0.082-0.07,0.173-0.105,0.272-0.105
		c0.018,0,0.032,0,0.044,0c0.422,0.041,0.858,0.062,1.309,0.062c0.492,0,1-0.023,1.521-0.07c0.012,0,0.025,0,0.043,0
		c0.105,0,0.197,0.035,0.273,0.105c0.094,0.082,0.141,0.185,0.141,0.308c0,0.129-0.045,0.241-0.133,0.339
		c-0.088,0.096-0.195,0.147-0.324,0.153c-0.486,0.029-0.967,0.044-1.441,0.044C46.908,67.332,46.445,67.317,45.988,67.288z"/>
	<path fill="#010101" d="M52.545,65.697c0-0.123,0.041-0.226,0.123-0.308s0.184-0.123,0.307-0.123h2.014
		c0.141,0,0.262,0.05,0.363,0.149c0.104,0.1,0.158,0.223,0.164,0.369c0.117,2.783,1.189,4.854,3.217,6.214
		c0.105,0.076,0.158,0.185,0.158,0.325c0,0.1-0.035,0.19-0.105,0.272c-0.1,0.105-0.217,0.17-0.352,0.193
		c-0.029,0.006-0.063,0.009-0.098,0.009c-0.1,0-0.193-0.029-0.281-0.088c-1.494-1.031-2.498-2.499-3.014-4.403
		c0-0.006-0.006-0.009-0.018-0.009s-0.018,0.003-0.018,0.009c-0.609,1.951-1.611,3.419-3.006,4.403
		c-0.105,0.07-0.217,0.105-0.334,0.105c-0.023,0-0.047-0.003-0.07-0.009c-0.146-0.018-0.279-0.076-0.396-0.176
		c-0.082-0.07-0.123-0.161-0.123-0.272c0-0.129,0.057-0.229,0.168-0.299c1.477-0.926,2.475-2.44,2.996-4.544
		c0.029-0.117,0.094-0.208,0.193-0.272c0.076-0.053,0.156-0.079,0.238-0.079c0.029,0,0.055,0.003,0.078,0.009
		c0.012,0,0.021-0.004,0.031-0.014c0.008-0.008,0.014-0.019,0.014-0.03c-0.053-0.352-0.092-0.668-0.115-0.949
		c0-0.041-0.023-0.062-0.07-0.062h-1.643c-0.117,0-0.217-0.041-0.299-0.123S52.545,65.814,52.545,65.697z"/>
	<path fill="#010101" d="M61.605,65.82c0.012-0.135,0.068-0.246,0.168-0.334c0.094-0.088,0.205-0.132,0.334-0.132
		c0.006,0,0.012,0,0.018,0c0.123,0.006,0.223,0.059,0.299,0.158c0.053,0.07,0.078,0.149,0.078,0.237
		c0,0.029-0.002,0.062-0.008,0.097c-0.117,0.563-0.205,1.116-0.264,1.661c0,0.012,0.002,0.018,0.008,0.018s0.012-0.003,0.018-0.009
		c0.229-0.457,0.547-0.856,0.953-1.2c0.408-0.342,0.855-0.514,1.342-0.514c0.615,0,1.119,0.283,1.516,0.848
		c0.395,0.566,0.594,1.32,0.594,2.264c0,2.092-1.117,3.407-3.35,3.946c-0.053,0.012-0.105,0.018-0.158,0.018
		c-0.088,0-0.172-0.018-0.254-0.053c-0.141-0.059-0.252-0.149-0.334-0.272c-0.035-0.053-0.053-0.108-0.053-0.167
		c0-0.047,0.008-0.091,0.025-0.132c0.047-0.105,0.127-0.17,0.238-0.193c0.451-0.094,0.844-0.214,1.182-0.36
		c0.336-0.146,0.643-0.34,0.918-0.58s0.484-0.545,0.625-0.914s0.211-0.8,0.211-1.292c0-0.703-0.115-1.262-0.344-1.674
		c-0.229-0.414-0.553-0.62-0.975-0.62c-0.34,0-0.676,0.151-1.008,0.452c-0.33,0.303-0.596,0.666-0.795,1.09
		c-0.199,0.426-0.313,0.837-0.342,1.235c-0.012,0.117-0.018,0.24-0.018,0.369l0.008,0.246c0,0.111-0.035,0.208-0.105,0.29
		c-0.076,0.094-0.172,0.144-0.289,0.149c-0.012,0-0.023,0-0.035,0c-0.111,0-0.209-0.035-0.291-0.105
		c-0.1-0.076-0.154-0.176-0.166-0.299c-0.035-0.352-0.053-0.686-0.053-1.002c0-0.668,0.09-1.626,0.271-2.874
		C61.582,66.055,61.594,65.938,61.605,65.82z"/>
</g>
</svg>
