<?xml version="1.0" encoding="utf-8"?>
<!-- Generator: Adobe Illustrator 16.0.0, SVG Export Plug-In . SVG Version: 6.00 Build 0)  -->
<!DOCTYPE svg PUBLIC "-//W3C//DTD SVG 1.1//EN" "http://www.w3.org/Graphics/SVG/1.1/DTD/svg11.dtd">
<svg version="1.1" id="Layer_1" xmlns="http://www.w3.org/2000/svg" xmlns:xlink="http://www.w3.org/1999/xlink" x="0px" y="0px"
	 width="32px" height="30px" viewBox="0 0 32 30" enable-background="new 0 0 32 30" xml:space="preserve">
<text transform="matrix(1 0 0 1 6.8481 19.584)" fill="#FFFFFF" font-family="'GenShinGothic-Bold'" font-size="10">LIKE</text>
<g>
	<path fill="#FFFFFF" d="M16.158,1.452L16.158,1.452c0.49,0,0.955,0.133,1.276,0.366l11.928,8.625
		c0.678,0.491,1.045,1.619,0.785,2.415l-4.553,13.809C25.333,27.465,24.369,28,23.531,28H8.78c-0.839,0-1.802-0.535-2.063-1.334
		L2.164,12.793c-0.259-0.796,0.107-1.884,0.785-2.375l11.931-8.62C15.202,1.565,15.667,1.452,16.158,1.452 M16.158,0.452
		c-0.676,0-1.352,0.186-1.864,0.557L2.363,9.649c-1.024,0.742-1.542,2.333-1.149,3.536l4.554,13.792C6.159,28.18,7.516,29,8.78,29
		h14.751c1.265,0,2.62-0.82,3.013-2.023l4.554-13.891c0.393-1.203-0.126-2.753-1.15-3.494L18.02,0.987
		C17.508,0.617,16.833,0.452,16.158,0.452L16.158,0.452z"/>
</g>
</svg>
