<?xml version="1.0" encoding="utf-8"?>
<!-- Generator: Adobe Illustrator 16.0.0, SVG Export Plug-In . SVG Version: 6.00 Build 0)  -->
<!DOCTYPE svg PUBLIC "-//W3C//DTD SVG 1.1//EN" "http://www.w3.org/Graphics/SVG/1.1/DTD/svg11.dtd">
<svg version="1.1" id="Layer_1" xmlns="http://www.w3.org/2000/svg" xmlns:xlink="http://www.w3.org/1999/xlink" x="0px" y="0px"
	 width="105px" height="100px" viewBox="0 0 105 100" enable-background="new 0 0 105 100" xml:space="preserve">
<g>
	<path fill="#FBB03C" d="M30.175,99c-5.5,0-11.396-4.177-13.102-9.405L3.258,47.3c-1.706-5.229,0.543-12.121,4.998-15.347
		l36.21-26.211c4.455-3.226,11.746-3.222,16.203,0l36.2,26.177c4.457,3.223,6.709,10.139,5.005,15.369l-13.82,42.304
		C86.349,94.822,80.454,99,74.954,99H30.175z"/>
</g>
<g>
	<path fill="#010101" d="M31.42,48.568c-0.675-0.285-1.26-0.69-1.771-1.2c-0.51-0.51-0.915-1.095-1.2-1.771
		c-0.285-0.675-0.435-1.409-0.435-2.159s0.15-1.485,0.435-2.175c0.285-0.66,0.69-1.245,1.2-1.771c0.51-0.51,1.095-0.899,1.771-1.185
		c0.675-0.285,1.41-0.436,2.16-0.436s1.485,0.15,2.175,0.436c0.66,0.285,1.245,0.675,1.77,1.185c0.51,0.525,0.9,1.11,1.185,1.771
		c0.285,0.689,0.436,1.425,0.436,2.175s-0.15,1.484-0.436,2.159c-0.285,0.676-0.675,1.261-1.185,1.771
		c-0.525,0.51-1.11,0.915-1.77,1.2c-0.69,0.284-1.425,0.435-2.175,0.435S32.095,48.853,31.42,48.568z M30.879,40.738
		c-0.72,0.72-1.125,1.68-1.125,2.7c0,1.02,0.405,1.979,1.125,2.699c0.72,0.721,1.68,1.125,2.7,1.125s1.98-0.404,2.7-1.125
		c0.72-0.72,1.125-1.68,1.125-2.699c0-1.021-0.405-1.98-1.125-2.7c-0.72-0.72-1.68-1.125-2.7-1.125S31.6,40.019,30.879,40.738z"/>
	<path fill="#010101" d="M48.64,39.434h-3.06v9.569h-1.755v-9.569h-3.06v-1.561h7.875V39.434z"/>
	<path fill="#010101" d="M58.539,49.003h-1.74v-4.8h-4.439v4.8h-1.74v-11.13h1.74v4.755h4.439v-4.755h1.74V49.003z"/>
	<path fill="#010101" d="M62.979,42.403h4.065v1.575h-4.065v3.449h4.935v1.575h-4.949H61.24v-11.13h1.725h4.949v1.561h-4.935V42.403
		z"/>
	<path fill="#010101" d="M78.129,49.003h-1.965l-2.805-3.765h-1.275v3.765h-1.739v-11.13h1.47h1.83c1.47,0,2.324,0.601,2.774,1.11
		c0.585,0.645,0.9,1.545,0.9,2.58c0,1.02-0.315,1.92-0.9,2.564c-0.27,0.3-0.69,0.646-1.29,0.855L78.129,49.003z M73.645,43.678
		c0.72,0,1.26-0.21,1.604-0.6c0.421-0.45,0.495-1.08,0.495-1.515c0-0.45-0.074-1.08-0.495-1.53c-0.345-0.39-0.885-0.585-1.604-0.585
		h-1.561v4.229H73.645z"/>
	<path fill="#010101" d="M31.735,70.003H29.77l-2.805-3.765H25.69v3.765h-1.74v-11.13h1.47h1.83c1.47,0,2.325,0.601,2.775,1.11
		c0.585,0.645,0.9,1.545,0.9,2.58c0,1.02-0.315,1.92-0.9,2.564c-0.27,0.3-0.69,0.646-1.29,0.855L31.735,70.003z M27.25,64.678
		c0.72,0,1.26-0.21,1.605-0.6c0.42-0.45,0.495-1.08,0.495-1.515c0-0.45-0.075-1.08-0.495-1.53c-0.345-0.39-0.885-0.585-1.605-0.585
		h-1.56v4.229H27.25z"/>
	<path fill="#010101" d="M35.68,63.403h4.065v1.575H35.68v3.449h4.935v1.575h-4.95H33.94v-11.13h1.725h4.95v1.561H35.68V63.403z"/>
	<path fill="#010101" d="M47.305,66.208l2.925-7.335h1.89l-4.77,11.625l-5.1-11.625h1.92L47.305,66.208z"/>
	<path fill="#010101" d="M54.039,70.003v-11.13h1.74v11.13H54.039z"/>
	<path fill="#010101" d="M60.204,63.403h4.065v1.575h-4.065v3.449h4.935v1.575h-4.949h-1.725v-11.13h1.725h4.949v1.561h-4.935
		V63.403z"/>
	<path fill="#010101" d="M77.813,70.498l-2.939-6.705l-2.76,6.705l-5.101-11.625h1.92l3.135,7.335l1.846-4.62l0.9-2.295l0.975,2.266
		l1.979,4.649l2.925-7.335h1.905L77.813,70.498z"/>
</g>
</svg>
