<?xml version="1.0" encoding="utf-8"?>
<!-- Generator: Adobe Illustrator 16.0.0, SVG Export Plug-In . SVG Version: 6.00 Build 0)  -->
<!DOCTYPE svg PUBLIC "-//W3C//DTD SVG 1.1//EN" "http://www.w3.org/Graphics/SVG/1.1/DTD/svg11.dtd">
<svg version="1.1" id="Layer_1" xmlns="http://www.w3.org/2000/svg" xmlns:xlink="http://www.w3.org/1999/xlink" x="0px" y="0px"
	 width="24px" height="64px" viewBox="0 0 24 64" enable-background="new 0 0 24 64" xml:space="preserve">
<g>
	<g id="_x32__x3000_物件一覧_xFF21__x30FB_検索結果">
		<path fill="#FFFFFF" d="M12,0C5.383,0,0,5.395,0,12.021c0,9.928,11.201,19.459,11.678,19.86C11.771,31.961,11.887,32,12,32
			s0.227-0.038,0.318-0.114C12.795,31.492,24,22.124,24,12.021C24,5.395,18.617,0,12,0z M12.002,30.838
			C10.161,29.193,1,20.579,1,12.021C1,5.943,5.936,1,12,1s11,4.943,11,11.021C23,20.725,13.848,29.215,12.002,30.838z"/>
		<path fill="#FFFFFF" d="M12,6c-3.309,0-6,2.691-6,6s2.691,6,6,6s6-2.691,6-6S15.309,6,12,6z M12,17c-2.757,0-5-2.243-5-5
			s2.243-5,5-5s5,2.243,5,5S14.757,17,12,17z"/>
	</g>
</g>
<g>
	<g id="_x32__x3000_物件一覧_xFF21__x30FB_検索結果_1_">
		<path d="M12,32C5.383,32,0,37.395,0,44.021c0,9.928,11.201,19.459,11.678,19.86C11.771,63.961,11.887,64,12,64
			s0.227-0.038,0.318-0.114C12.795,63.492,24,54.124,24,44.021C24,37.395,18.617,32,12,32z M12.002,62.838
			C10.161,61.193,1,52.579,1,44.021C1,37.943,5.936,33,12,33s11,4.943,11,11.021C23,52.725,13.848,61.215,12.002,62.838z"/>
		<path d="M12,38c-3.309,0-6,2.691-6,6s2.691,6,6,6s6-2.691,6-6S15.309,38,12,38z M12,49c-2.757,0-5-2.243-5-5s2.243-5,5-5
			s5,2.243,5,5S14.757,49,12,49z"/>
	</g>
</g>
</svg>
