<?xml version="1.0" encoding="utf-8"?>
<!-- Generator: Adobe Illustrator 16.0.0, SVG Export Plug-In . SVG Version: 6.00 Build 0)  -->
<!DOCTYPE svg PUBLIC "-//W3C//DTD SVG 1.1//EN" "http://www.w3.org/Graphics/SVG/1.1/DTD/svg11.dtd">
<svg version="1.1" id="Layer_1" xmlns="http://www.w3.org/2000/svg" xmlns:xlink="http://www.w3.org/1999/xlink" x="0px" y="0px"
	 width="24px" height="32px" viewBox="45.25 0 24 32" enable-background="new 45.25 0 24 32" xml:space="preserve">
<path fill="#FBB03C" d="M57.25,0c-6.617,0-12,5.394-12,12.022c0,9.927,11.201,19.458,11.678,19.86C57.021,31.961,57.136,32,57.25,32
	c0.113,0,0.227-0.038,0.318-0.114c0.477-0.394,11.682-9.762,11.682-19.864C69.25,5.394,63.867,0,57.25,0z M57.252,30.838
	C55.411,29.193,46.25,20.579,46.25,12.022C46.25,5.944,51.186,1,57.25,1s11,4.944,11,11.022
	C68.25,20.725,59.098,29.215,57.252,30.838z"/>
<path fill="#FBB03C" d="M57.25,6c-3.309,0-6,2.691-6,6s2.691,6,6,6s6-2.691,6-6S60.559,6,57.25,6z M57.25,17c-2.757,0-5-2.243-5-5
	s2.243-5,5-5s5,2.243,5,5S60.007,17,57.25,17z"/>
</svg>
