<?xml version="1.0" encoding="utf-8"?>
<!-- Generator: Adobe Illustrator 16.0.0, SVG Export Plug-In . SVG Version: 6.00 Build 0)  -->
<!DOCTYPE svg PUBLIC "-//W3C//DTD SVG 1.1//EN" "http://www.w3.org/Graphics/SVG/1.1/DTD/svg11.dtd">
<svg version="1.1" id="レイヤー_1" xmlns="http://www.w3.org/2000/svg" xmlns:xlink="http://www.w3.org/1999/xlink" x="0px"
	 y="0px" width="200px" height="200px" viewBox="0 0 200 200" enable-background="new 0 0 200 200" xml:space="preserve">
<symbol  id="New_Symbol_133" viewBox="-7.762 -7.391 15.524 14.782">
	<path d="M-0.328,7.001c0.18,0.519,0.476,0.519,0.657,0l1.39-4C1.9,2.481,2.497,2.048,3.048,2.035l4.233-0.086
		c0.55-0.011,0.642-0.292,0.203-0.625L4.109-1.234C3.671-1.566,3.443-2.269,3.602-2.795l1.228-4.054
		c0.159-0.525-0.081-0.7-0.531-0.385L0.82-4.815c-0.451,0.314-1.189,0.314-1.641,0l-3.476-2.419c-0.453-0.314-0.69-0.14-0.531,0.385
		l1.225,4.054c0.159,0.527-0.068,1.229-0.507,1.562l-3.375,2.558c-0.438,0.333-0.348,0.614,0.203,0.625l4.234,0.086
		c0.55,0.013,1.148,0.446,1.328,0.966L-0.328,7.001z"/>
</symbol>
<g>
	<path fill="none" stroke="#000000" stroke-width="2" stroke-miterlimit="10" d="M47.598,195c-5.5,0-11.396-4.178-13.102-9.406
		L2.136,86.458C0.43,81.229,2.679,74.337,7.133,71.111l84.76-61.37c4.455-3.226,11.746-3.222,16.203,0l84.749,61.278
		c4.457,3.223,6.709,10.139,5.005,15.369l-32.365,99.204c-1.704,5.229-7.599,9.408-13.099,9.408H47.598z"/>
</g>
<g>
	<path d="M56.947,77.492L59.3,75.92c0.258-0.172,0.465-0.328,0.623-0.469c0.157-0.139,0.281-0.275,0.37-0.406
		c0.089-0.133,0.154-0.275,0.194-0.43s0.058-0.332,0.052-0.535c-0.007-0.203-0.04-0.439-0.104-0.709
		c-0.063-0.271-0.18-0.662-0.35-1.176l0.907-0.605l1.736,2.988l-8.072,5.395l-0.234-0.35c0.32-0.324,0.513-0.575,0.576-0.752
		c0.064-0.177,0.059-0.363-0.018-0.561c-0.075-0.197-0.23-0.472-0.466-0.824l-4.123-6.17c-0.22-0.328-0.395-0.558-0.524-0.688
		s-0.257-0.213-0.382-0.25c-0.124-0.037-0.26-0.043-0.407-0.018c-0.147,0.026-0.379,0.101-0.696,0.223l-0.232-0.35l3.78-2.525
		l0.233,0.349c-0.226,0.233-0.378,0.409-0.459,0.528c-0.08,0.119-0.132,0.241-0.152,0.365s0.002,0.277,0.072,0.457
		c0.069,0.182,0.218,0.443,0.446,0.785L56.947,77.492z"/>
	<path d="M66.116,70.429c0.18,0.339,0.325,0.579,0.437,0.722c0.111,0.141,0.225,0.24,0.34,0.295c0.113,0.057,0.253,0.08,0.416,0.072
		c0.161-0.008,0.406-0.06,0.731-0.153l0.195,0.372l-4.031,2.127l-0.195-0.371c0.353-0.289,0.569-0.52,0.651-0.688
		c0.08-0.169,0.095-0.355,0.04-0.56s-0.182-0.493-0.379-0.867l-3.466-6.563c-0.183-0.349-0.333-0.595-0.449-0.737
		s-0.233-0.238-0.354-0.289c-0.12-0.049-0.255-0.068-0.403-0.059c-0.149,0.012-0.388,0.061-0.715,0.15l-0.196-0.373l4.03-2.127
		l0.196,0.371c-0.251,0.204-0.424,0.367-0.519,0.488s-0.156,0.242-0.186,0.364s-0.018,0.276,0.036,0.462
		c0.053,0.186,0.171,0.452,0.354,0.801L66.116,70.429z"/>
	<path d="M74.933,56.232l0.952,2.41L74.9,59.031c-0.291-0.305-0.549-0.541-0.774-0.71c-0.225-0.169-0.437-0.282-0.634-0.341
		c-0.196-0.057-0.404-0.07-0.624-0.039c-0.221,0.032-0.494,0.112-0.823,0.242l-2.942,1.162l1.713,4.342l2.07-0.817
		c0.295-0.116,0.511-0.246,0.646-0.39c0.137-0.143,0.226-0.327,0.265-0.552c0.04-0.224,0.035-0.546-0.014-0.963l0.943-0.372
		l1.33,3.367l-0.945,0.373c-0.243-0.322-0.457-0.553-0.644-0.691s-0.374-0.215-0.561-0.23c-0.189-0.015-0.438,0.039-0.744,0.16
		l-2.069,0.816l1.234,3.129c0.127,0.319,0.251,0.565,0.372,0.738c0.124,0.174,0.261,0.295,0.411,0.363
		c0.152,0.07,0.328,0.097,0.531,0.082c0.203-0.016,0.448-0.053,0.734-0.111l0.155,0.392l-4.46,1.761l-0.154-0.391
		c0.381-0.25,0.622-0.453,0.722-0.613c0.1-0.158,0.133-0.343,0.101-0.551c-0.031-0.209-0.125-0.511-0.28-0.904l-2.726-6.903
		c-0.145-0.367-0.268-0.628-0.367-0.782c-0.101-0.154-0.207-0.263-0.32-0.326c-0.113-0.063-0.245-0.096-0.396-0.102
		c-0.148-0.006-0.391,0.018-0.726,0.07l-0.155-0.392L74.933,56.232z"/>
	<path d="M87.811,53.094l0.565,2.528l-1.032,0.231c-0.167-0.25-0.33-0.465-0.488-0.646s-0.313-0.328-0.464-0.441
		c-0.151-0.113-0.308-0.195-0.471-0.246c-0.163-0.052-0.346-0.07-0.549-0.058c-0.204,0.013-0.442,0.051-0.717,0.112l-3.331,0.746
		l0.982,4.387l2.256-0.506c0.31-0.068,0.544-0.158,0.704-0.267c0.16-0.109,0.278-0.261,0.357-0.454s0.131-0.48,0.156-0.861
		l0.99-0.222l0.72,3.215l-0.99,0.222c-0.174-0.313-0.34-0.541-0.496-0.684c-0.158-0.145-0.327-0.233-0.509-0.27
		c-0.182-0.035-0.438-0.016-0.769,0.058l-2.254,0.505l1.081,4.832l3.278-0.734c0.344-0.078,0.618-0.164,0.822-0.26
		c0.203-0.095,0.369-0.217,0.499-0.366c0.128-0.149,0.232-0.329,0.311-0.54s0.135-0.424,0.172-0.641
		c0.036-0.217,0.082-0.529,0.138-0.941l1.042-0.232l0.459,2.982l-9.76,2.186l-0.091-0.41c0.415-0.187,0.685-0.351,0.808-0.492
		c0.123-0.143,0.186-0.318,0.187-0.53c0-0.211-0.046-0.522-0.139-0.937l-1.621-7.242c-0.087-0.385-0.167-0.661-0.241-0.829
		c-0.075-0.168-0.164-0.292-0.266-0.372c-0.104-0.079-0.228-0.133-0.374-0.162c-0.148-0.028-0.39-0.043-0.729-0.043l-0.092-0.41
		L87.811,53.094z"/>
	<path d="M93.105,61.596c0.172,0.494,0.389,0.881,0.65,1.158c0.261,0.277,0.589,0.475,0.984,0.592
		c0.397,0.118,0.9,0.159,1.512,0.124c0.841-0.048,1.477-0.259,1.904-0.634c0.431-0.373,0.626-0.895,0.588-1.563
		c-0.024-0.429-0.139-0.783-0.342-1.063c-0.204-0.28-0.525-0.537-0.964-0.771c-0.438-0.232-1.104-0.494-1.992-0.787
		c-0.861-0.283-1.544-0.569-2.052-0.858c-0.506-0.289-0.891-0.612-1.152-0.97c-0.264-0.357-0.405-0.756-0.432-1.195
		c-0.036-0.64,0.12-1.206,0.472-1.699c0.351-0.492,0.883-0.889,1.598-1.187c0.714-0.299,1.543-0.476,2.484-0.529
		c0.547-0.031,1.082-0.039,1.605-0.022c0.522,0.016,1.182,0.08,1.974,0.195l0.133,2.313l-1.066,0.062
		c-0.194-0.493-0.425-0.872-0.692-1.138c-0.269-0.266-0.574-0.443-0.918-0.536c-0.346-0.092-0.786-0.122-1.325-0.091
		c-0.468,0.025-0.883,0.119-1.244,0.277c-0.362,0.158-0.644,0.382-0.844,0.671c-0.199,0.29-0.288,0.626-0.267,1.008
		c0.023,0.405,0.135,0.743,0.334,1.013s0.5,0.512,0.901,0.73c0.402,0.217,0.992,0.453,1.771,0.706
		c0.941,0.313,1.673,0.612,2.199,0.896c0.524,0.285,0.94,0.62,1.247,1.007c0.308,0.387,0.477,0.848,0.507,1.385
		c0.034,0.6-0.056,1.113-0.269,1.541c-0.214,0.428-0.523,0.783-0.929,1.067c-0.406,0.284-0.898,0.501-1.478,0.651
		s-1.217,0.246-1.914,0.286c-1.13,0.065-2.439-0.013-3.931-0.23l-0.134-2.347L93.105,61.596z"/>
	<path d="M103.291,52.099l11.608,1.344l-0.344,2.966l-1.051-0.121c-0.102-0.508-0.212-0.912-0.333-1.214s-0.26-0.536-0.414-0.704
		c-0.153-0.168-0.326-0.294-0.516-0.379c-0.189-0.086-0.48-0.15-0.874-0.197l-1.362-0.156l-1.01,8.727
		c-0.039,0.336-0.048,0.605-0.023,0.81c0.023,0.204,0.077,0.37,0.16,0.498s0.203,0.233,0.359,0.317
		c0.157,0.085,0.407,0.179,0.751,0.281l-0.049,0.418l-4.902-0.567l0.048-0.417c0.22-0.016,0.413-0.036,0.584-0.063
		c0.169-0.026,0.31-0.066,0.421-0.119c0.111-0.054,0.207-0.128,0.287-0.223c0.079-0.094,0.149-0.227,0.209-0.398
		s0.109-0.428,0.148-0.77L108,53.404l-1.353-0.156c-0.337-0.039-0.616-0.046-0.84-0.02c-0.225,0.025-0.439,0.108-0.644,0.249
		c-0.204,0.14-0.402,0.351-0.589,0.632c-0.189,0.279-0.377,0.64-0.565,1.078l-1.063-0.123L103.291,52.099z"/>
	<path d="M119.94,61.844l-1.581-5.075c-0.19-0.614-0.341-1.057-0.454-1.33c-0.113-0.272-0.24-0.499-0.381-0.68
		c-0.143-0.181-0.32-0.336-0.537-0.467l0.123-0.403l4.403,1.332l-0.121,0.402c-0.666-0.135-1.058-0.012-1.173,0.371
		c-0.049,0.16-0.056,0.352-0.022,0.576c0.033,0.226,0.116,0.556,0.248,0.99l1.122,3.754l2.9-2.242
		c0.394-0.306,0.684-0.565,0.873-0.78s0.315-0.426,0.377-0.634c0.061-0.197,0.033-0.375-0.081-0.531
		c-0.114-0.157-0.313-0.291-0.595-0.4l0.121-0.402l3.918,1.186l-0.121,0.402c-0.309-0.004-0.59,0.035-0.849,0.115
		c-0.257,0.08-0.533,0.211-0.828,0.391c-0.296,0.18-0.745,0.498-1.349,0.954l-4.052,3.024l-0.805,2.66
		c-0.095,0.313-0.149,0.57-0.166,0.774c-0.018,0.204,0.006,0.378,0.066,0.522c0.063,0.145,0.163,0.273,0.302,0.387
		s0.367,0.252,0.688,0.414l-0.122,0.402l-4.726-1.429l0.123-0.402c0.347,0.046,0.609,0.061,0.787,0.046
		c0.178-0.016,0.332-0.067,0.465-0.156c0.132-0.088,0.249-0.221,0.353-0.399c0.103-0.179,0.201-0.426,0.298-0.743L119.94,61.844z"/>
	<path d="M129.47,69.781l2.552,1.225c0.279,0.135,0.519,0.234,0.719,0.299c0.201,0.064,0.38,0.102,0.54,0.111
		c0.159,0.01,0.315-0.008,0.468-0.051c0.153-0.045,0.314-0.121,0.487-0.229c0.172-0.107,0.357-0.258,0.558-0.451
		c0.2-0.191,0.478-0.492,0.833-0.898l0.983,0.472l-1.688,3.017l-8.752-4.203l0.183-0.379c0.441,0.11,0.755,0.148,0.939,0.113
		c0.184-0.035,0.343-0.136,0.474-0.301c0.132-0.166,0.289-0.439,0.473-0.82l3.212-6.69c0.171-0.356,0.279-0.623,0.324-0.801
		c0.046-0.179,0.053-0.33,0.021-0.456s-0.096-0.246-0.192-0.359c-0.098-0.113-0.279-0.275-0.546-0.485l0.182-0.38l4.099,1.969
		l-0.182,0.379c-0.315-0.075-0.545-0.117-0.688-0.125c-0.144-0.01-0.273,0.009-0.392,0.054c-0.117,0.046-0.236,0.144-0.357,0.295
		c-0.12,0.151-0.27,0.413-0.448,0.784L129.47,69.781z"/>
	<path d="M151.12,69.805l-1.422,2.166l-0.885-0.581c0.063-0.294,0.105-0.561,0.125-0.801c0.02-0.239,0.018-0.454-0.006-0.64
		c-0.024-0.188-0.074-0.357-0.15-0.51s-0.19-0.297-0.341-0.435c-0.151-0.137-0.345-0.282-0.579-0.437l-2.854-1.873l-2.467,3.759
		l1.932,1.269c0.265,0.174,0.492,0.28,0.682,0.319c0.19,0.038,0.381,0.019,0.575-0.06c0.193-0.078,0.436-0.24,0.728-0.487
		l0.849,0.558l-1.809,2.754l-0.849-0.557c0.104-0.343,0.152-0.62,0.146-0.833c-0.007-0.214-0.061-0.397-0.161-0.552
		c-0.101-0.155-0.293-0.326-0.576-0.512l-1.932-1.268l-2.716,4.139l2.808,1.843c0.295,0.193,0.548,0.33,0.758,0.41
		c0.21,0.079,0.414,0.114,0.61,0.103c0.196-0.011,0.398-0.062,0.604-0.152c0.205-0.09,0.398-0.197,0.579-0.322
		c0.181-0.124,0.438-0.31,0.772-0.556l0.894,0.587l-1.825,2.404l-8.359-5.487l0.23-0.352c0.423,0.169,0.729,0.247,0.916,0.237
		c0.188-0.01,0.357-0.089,0.51-0.235s0.345-0.396,0.577-0.751l4.072-6.203c0.217-0.33,0.359-0.58,0.428-0.751
		s0.097-0.32,0.082-0.449c-0.015-0.13-0.063-0.257-0.144-0.382s-0.241-0.31-0.476-0.554l0.229-0.352L151.12,69.805z"/>
</g>
<g>
	<path d="M53,123.57c-0.713,2.446-2.921,4.383-5.672,4.926c-0.51,0.102-1.02,0.136-1.53,0.136c-1.018,0-2.037-0.17-2.987-0.544
		c-1.597-0.645-2.989-1.697-4.178-3.227l3.124-2.445c0.713,0.951,1.563,1.631,2.479,1.971c0.748,0.305,1.563,0.373,2.312,0.203
		c1.29-0.238,2.343-1.087,2.648-2.105c0.34-1.155-0.442-2.174-1.154-2.854c-1.121-1.053-2.956-2.854-3.091-2.989l-3.091-2.921
		c-0.951-0.917-1.598-1.936-1.937-3.023c-0.34-1.053-0.373-2.174-0.067-3.192c0.305-1.087,0.951-2.038,1.867-2.819
		c0.85-0.713,1.902-1.223,3.023-1.426c1.223-0.272,2.514-0.17,3.736,0.271c1.291,0.51,2.445,1.358,3.43,2.547l-3.09,2.48
		c-1.291-1.563-2.615-1.563-3.33-1.428c-0.882,0.17-1.629,0.748-1.833,1.461c-0.136,0.476-0.102,1.257,0.951,2.275l4.212,4.043
		c0.611,0.611,1.358,1.324,1.902,1.834c1.086,0.984,1.834,2.105,2.206,3.295C53.306,121.193,53.34,122.416,53,123.57z"/>
	<path d="M71.243,123.231h-8.967l-2.14,5.4h-4.348l10.971-26.358l10.936,26.358h-4.313L71.243,123.231z M69.815,119.699
		l-3.056-7.677l-3.057,7.677H69.815z"/>
	<path d="M81.199,128.632V103.43h3.939v25.202H81.199z"/>
	<path d="M109.834,119.121v6.828l-0.884,0.611c-0.034,0-0.034,0-0.067,0.033c-0.034,0.034-0.103,0.068-0.136,0.068
		c-0.034,0.033-0.069,0.068-0.103,0.068c-0.034,0.033-0.068,0.067-0.136,0.067c-0.034,0.034-0.067,0.067-0.136,0.102
		c-0.034,0.034-0.068,0.034-0.103,0.067c-0.033,0.035-0.067,0.035-0.102,0.068c-0.067,0.034-0.102,0.034-0.17,0.068
		c-0.033,0.033-0.068,0.033-0.102,0.068c-0.034,0.033-0.102,0.067-0.171,0.067c-0.033,0.034-0.033,0.034-0.066,0.067
		c-0.034,0-0.034,0-0.068,0c-0.034,0.035-0.102,0.068-0.171,0.103c-0.066,0.034-0.169,0.067-0.236,0.102c0,0,0,0-0.034,0.034
		c-1.428,0.646-2.921,0.984-4.518,1.087c0,0,0,0-0.034,0c-0.067,0-0.17,0-0.271,0h-0.034c-0.102,0-0.204,0-0.306,0
		c-1.358,0-2.717-0.204-3.974-0.646c-0.035,0-0.035,0-0.035,0c-0.135-0.033-0.238-0.102-0.373-0.136
		c-0.171-0.067-0.339-0.136-0.509-0.204c-0.442-0.17-0.85-0.373-1.224-0.611c-1.019-0.543-1.97-1.256-2.785-2.105
		c-1.154-1.154-2.071-2.479-2.717-4.008c-0.477-1.155-0.815-2.378-0.917-3.635c-0.034-0.408-0.068-0.85-0.068-1.257
		c0-0.204,0-0.441,0-0.646c0.102-1.461,0.407-2.921,0.985-4.279c0.646-1.494,1.563-2.854,2.717-4.008
		c1.155-1.155,2.479-2.072,4.009-2.684c1.528-0.68,3.192-0.984,4.891-0.984c0.102,0,0.204,0,0.306,0h0.034c0.102,0,0.204,0,0.271,0
		c0.034,0,0.034,0,0.034,0c0.102,0,0.204,0,0.306,0.033c1.461,0.102,2.887,0.441,4.246,1.053c0,0,0,0.034,0.033,0.034
		c0.068,0.034,0.137,0.067,0.203,0.103c0.035,0,0.035,0,0.035,0v4.652c-0.51-0.441-1.088-0.781-1.698-1.086
		c-0.51-0.238-1.054-0.441-1.563-0.578c-0.035,0-0.068,0-0.102-0.033c-0.035,0-0.068,0-0.103,0
		c-0.034-0.035-0.067-0.035-0.136-0.035c0,0-0.034,0-0.067-0.033c-0.137-0.034-0.306-0.034-0.442-0.068c-0.033,0-0.033,0-0.067,0
		s-0.103-0.033-0.136-0.033c-0.034,0-0.034,0-0.068,0s-0.102,0-0.136-0.035c-0.035,0-0.068,0-0.102,0c-0.068,0-0.137,0-0.204,0
		c-0.034,0-0.068-0.033-0.102-0.033c-0.034,0-0.068,0-0.103,0s-0.102,0-0.136,0s-0.067,0-0.067,0c-0.069,0-0.17,0-0.238,0
		c-1.597,0-3.125,0.408-4.449,1.223c-0.034,0.034-0.104,0.068-0.17,0.102c-0.544,0.34-1.053,0.748-1.495,1.223
		c-0.136,0.137-0.306,0.272-0.441,0.441c0,0,0,0.035-0.033,0.035c-0.17,0.203-0.306,0.407-0.442,0.611
		c-0.033,0.033-0.067,0.067-0.067,0.067c-0.069,0.103-0.136,0.204-0.204,0.306c-0.034,0.034-0.067,0.102-0.067,0.137
		c-0.51,0.814-0.85,1.664-1.055,2.58c-0.032,0.035-0.032,0.035-0.032,0.068c-0.069,0.34-0.137,0.68-0.171,1.02
		c0,0.135,0,0.271,0,0.373c-0.033,0.17-0.033,0.307-0.033,0.476c0,0.136,0,0.272,0.033,0.442c0.034,0.645,0.137,1.29,0.307,1.901
		c0.407,1.427,1.153,2.718,2.207,3.771c1.631,1.631,3.805,2.547,6.114,2.547c0.068,0,0.169,0,0.238,0c0.033,0,0.067,0,0.102-0.033
		c0.034,0,0.102,0,0.136,0s0.068,0,0.102,0c0.034,0,0.068,0,0.103,0c0.067,0,0.102,0,0.17,0c0-0.034,0.033-0.034,0.066-0.034
		c0.035,0,0.103,0,0.137,0s0.034,0,0.068,0c0.237-0.034,0.51-0.103,0.747-0.136c0.034,0,0.034,0,0.068-0.034
		c0.033,0,0.102,0,0.135-0.034c0.035,0,0.068,0,0.102,0c0.035-0.033,0.069-0.033,0.102-0.033c0.035-0.035,0.103-0.035,0.138-0.035
		c0.033,0,0.067-0.033,0.067-0.033c0.476-0.137,0.951-0.307,1.393-0.543c0,0,0,0,0.034,0v-4.654h-4.755v-3.566h8.695V119.121z"/>
	<path d="M121.386,127.646c-1.528-0.645-2.854-1.563-4.009-2.717c-1.153-1.154-2.07-2.479-2.717-4.008
		c-0.645-1.529-0.984-3.193-0.984-4.892s0.34-3.362,0.984-4.925c0.646-1.494,1.563-2.819,2.717-4.008
		c1.155-1.155,2.48-2.038,4.009-2.684c1.529-0.646,3.193-0.984,4.892-0.984s3.362,0.339,4.925,0.984
		c1.495,0.646,2.819,1.528,4.009,2.684c1.153,1.188,2.037,2.514,2.683,4.008c0.646,1.563,0.985,3.227,0.985,4.925
		s-0.34,3.362-0.985,4.892c-0.646,1.528-1.529,2.854-2.683,4.008c-1.189,1.154-2.514,2.072-4.009,2.717
		c-1.563,0.646-3.227,0.985-4.925,0.985S122.915,128.292,121.386,127.646z M120.163,109.916c-1.631,1.631-2.547,3.805-2.547,6.114
		s0.916,4.483,2.547,6.114c1.63,1.631,3.805,2.547,6.114,2.547s4.483-0.916,6.114-2.547c1.63-1.631,2.547-3.805,2.547-6.114
		s-0.917-4.483-2.547-6.114c-1.631-1.63-3.805-2.547-6.114-2.547S121.793,108.286,120.163,109.916z"/>
	<path d="M147.273,112.43v16.202h-3.94V102.24l15.827,17.356V103.43h3.974v26.357L147.273,112.43z"/>
	<path d="M55.342,164.557h-4.448l-6.352-8.525h-2.887v8.525h-3.94v-25.203h3.328h4.144c3.328,0,5.266,1.358,6.283,2.514
		c1.326,1.46,2.039,3.498,2.039,5.842c0,2.31-0.713,4.348-2.039,5.809c-0.61,0.679-1.562,1.46-2.92,1.936L55.342,164.557z
		 M45.187,152.498c1.631,0,2.854-0.476,3.635-1.358c0.951-1.019,1.121-2.446,1.121-3.431c0-1.02-0.17-2.445-1.121-3.465
		c-0.781-0.883-2.004-1.324-3.635-1.324h-3.531v9.578H45.187z"/>
	<path d="M63.431,149.611h9.204v3.566h-9.204v7.813h11.175v3.566H63.396H59.49v-25.203h3.906h11.209v3.532H63.431V149.611z"/>
	<path d="M88.908,155.963l6.623-16.609h4.279L89.01,165.678l-11.549-26.324h4.349L88.908,155.963z"/>
	<path d="M103.313,164.557v-25.203h3.939v25.203H103.313z"/>
	<path d="M116.426,149.611h9.203v3.566h-9.203v7.813h11.175v3.566h-11.209h-3.906v-25.203h3.906h11.209v3.532h-11.175V149.611z"/>
	<path d="M155.456,165.678l-6.658-15.184l-6.249,15.184L131,139.354h4.348l7.099,16.609l4.178-10.462l2.038-5.196l2.208,5.129
		l4.483,10.529l6.624-16.609h4.313L155.456,165.678z"/>
</g>
<g>
	<line x1="37.446" y1="81.865" x2="44.974" y2="75.277"/>
	<rect x="39.98" y="73.57" transform="matrix(0.6587 0.7524 -0.7524 0.6587 73.1797 -4.1917)" width="2.461" height="10.003"/>
</g>
<g>
	<line x1="41.439" y1="85.86" x2="48.968" y2="79.273"/>
	<rect x="43.975" y="77.566" transform="matrix(0.6581 0.753 -0.753 0.6581 77.6277 -5.804)" width="2.459" height="10.002"/>
</g>
<g>
	<g>
		<line x1="161.921" y1="81.635" x2="154.395" y2="75.049"/>
	</g>
	<g>
		<rect x="153.157" y="77.112" transform="matrix(0.7526 0.6584 -0.6584 0.7526 90.7041 -84.7578)" width="10.003" height="2.46"/>
	</g>
</g>
<g>
	<line x1="157.93" y1="85.629" x2="150.401" y2="79.043"/>
	<rect x="149.163" y="81.106" transform="matrix(0.7527 0.6583 -0.6583 0.7527 92.3251 -81.1324)" width="10.004" height="2.46"/>
</g>
<use xlink:href="#New_Symbol_133"  width="15.524" height="14.782" x="-7.762" y="-7.391" transform="matrix(1.1714 0 0 -1.1714 101.3799 82.4404)" overflow="visible"/>
<rect id="_x3C_スライス_x3E_" x="-2" y="2" fill="none" width="204" height="196"/>
</svg>
