<?xml version="1.0" encoding="utf-8"?>
<!-- Generator: Adobe Illustrator 16.0.0, SVG Export Plug-In . SVG Version: 6.00 Build 0)  -->
<!DOCTYPE svg PUBLIC "-//W3C//DTD SVG 1.1//EN" "http://www.w3.org/Graphics/SVG/1.1/DTD/svg11.dtd">
<svg version="1.1" id="Layer_1" xmlns="http://www.w3.org/2000/svg" xmlns:xlink="http://www.w3.org/1999/xlink" x="0px" y="0px"
	 width="174.861px" height="115.199px" viewBox="0 0 174.861 115.199" enable-background="new 0 0 174.861 115.199"
	 xml:space="preserve">
<rect x="291.626" y="1695.706" fill="none" stroke="#E6E6E5" stroke-miterlimit="10" width="385" height="302"/>
<g>
	<g>
		<path fill="#010101" d="M518.476,1839.69c-4.233-0.921-3.28-6.97,1.117-6.248c3.584,0.588,2.32,6.792-1.276,6.439
			c-0.771-0.076-0.763,1.125,0,1.199c4.971,0.488,6.425-7.591,1.596-8.796c-2.454-0.613-4.935,0.987-5.399,3.431
			c-0.474,2.485,1.284,4.618,3.645,5.131C518.911,1841.01,519.231,1839.854,518.476,1839.69L518.476,1839.69z"/>
	</g>
</g>
<g>
	<g>
		<path fill="#010101" d="M526.592,1839.262c-4.328-0.944-3.453-7.403,1.139-6.675c3.653,0.581,1.512,6.841-1.725,6.653
			c-0.773-0.045-0.769,1.155,0,1.199c4.773,0.277,6.993-8.223,1.752-9.056c-5.94-0.943-7.13,7.804-1.484,9.034
			C527.027,1840.583,527.348,1839.426,526.592,1839.262L526.592,1839.262z"/>
	</g>
</g>
<g>
	<g>
		<path fill="#010101" d="M521.988,1839.413c0.251,3.539,4.831,5.245,6.509,7.992c0.403,0.659,1.441,0.057,1.037-0.605
			c-0.752-1.23-1.939-2.177-2.99-3.14c-1.137-1.041-3.236-2.569-3.356-4.247C523.134,1838.645,521.933,1838.64,521.988,1839.413
			L521.988,1839.413z"/>
	</g>
</g>
<g>
	<g>
		<path fill="#010101" d="M515.381,1837.428c2.278,0.464,4.661,0.464,6.939,0c0.759-0.153,0.437-1.311-0.318-1.156
			c-2.055,0.417-4.248,0.417-6.303,0C514.944,1836.118,514.622,1837.275,515.381,1837.428L515.381,1837.428z"/>
	</g>
</g>
<g>
	<g>
		<path fill="#010101" d="M523.229,1837.45c1.996,0,3.992-0.01,5.98-0.213c0.762-0.077,0.77-1.278,0-1.199
			c-1.988,0.203-3.984,0.212-5.98,0.213C522.456,1836.25,522.456,1837.45,523.229,1837.45L523.229,1837.45z"/>
	</g>
</g>
<g>
	<g>
		<path fill="#010101" d="M521.266,1833.434c-0.059-4.919-0.926-10.258,0.534-15.044c0.668-2.188,2.046-0.359,2.328,0.977
			c0.347,1.641,0.227,3.425,0.15,5.087c-0.121,2.652-0.544,5.272-0.795,7.912c-0.074,0.771,1.127,0.764,1.199,0
			c0.211-2.212,2.972-17.414-2.126-16.4c-2.372,0.471-2.438,4.331-2.591,6.159c-0.314,3.771,0.055,7.539,0.101,11.31
			C520.075,1834.208,521.275,1834.208,521.266,1833.434L521.266,1833.434z"/>
	</g>
</g>
<g>
	<g>
		<path fill="#010101" d="M521.252,1821.196c1.007-0.186,2.024-0.19,3.045-0.191c0.773,0,0.773-1.2,0-1.199
			c-1.131,0-2.249,0.028-3.363,0.234C520.173,1820.179,520.496,1821.335,521.252,1821.196L521.252,1821.196z"/>
	</g>
</g>
<g>
	<g>
		<path fill="#010101" d="M520.666,1824.635c1.139,0,2.278,0,3.417,0c0.773,0,0.773-1.199,0-1.199c-1.139,0-2.278,0-3.417,0
			C519.893,1823.436,519.893,1824.635,520.666,1824.635L520.666,1824.635z"/>
	</g>
</g>
<g>
	<g>
		<path fill="#010101" d="M520.666,1828.266c1.068,0,2.136,0,3.204,0c0.773,0,0.773-1.199,0-1.199c-1.068,0-2.136,0-3.204,0
			C519.893,1827.067,519.893,1828.266,520.666,1828.266L520.666,1828.266z"/>
	</g>
</g>
<g>
	<g>
		<path fill="#010101" d="M520.666,1832.325c0.712,0,1.424,0,2.136,0c0.773,0,0.773-1.199,0-1.199c-0.712,0-1.424,0-2.136,0
			C519.893,1831.125,519.893,1832.325,520.666,1832.325L520.666,1832.325z"/>
	</g>
</g>
<g>
	<g>
		<path fill="#010101" d="M524.896,1832.579c-0.23-4.246,5.253-12.869,10.175-11.699c4.936,1.174-3.787,9.555-6.021,10.268
			c-0.734,0.233-0.421,1.393,0.318,1.156c2.826-0.9,11.938-9.036,7.236-12.02c-5.932-3.765-13.182,7.263-12.908,12.295
			C523.738,1833.348,524.938,1833.352,524.896,1832.579L524.896,1832.579z"/>
	</g>
</g>
<g>
	<g>
		<path fill="#010101" d="M521.671,1832.419c-1.017-3.566-1.319-7.433-3.756-10.399c-1.717-2.092-5.911-3.345-8.098-1.307
			c-1.801,1.68-0.134,4.97,0.813,6.605c1.433,2.477,3.808,5.265,6.672,6.051c0.747,0.206,1.063-0.952,0.318-1.156
			c-2.17-0.597-3.87-2.552-5.161-4.295c-1.039-1.405-3.174-4.617-1.793-6.356c0.837-1.056,2.951-0.591,3.987-0.304
			c1.636,0.452,2.726,1.834,3.495,3.254c1.353,2.501,1.594,5.525,2.365,8.226C520.727,1833.481,521.884,1833.165,521.671,1832.419
			L521.671,1832.419z"/>
	</g>
</g>
<g>
	<g>
		<path fill="#010101" d="M512.2,1836.381c1.201,0,2.394-0.014,3.577-0.234c0.761-0.141,0.438-1.298-0.318-1.156
			c-1.075,0.199-2.169,0.19-3.259,0.191C511.427,1835.182,511.427,1836.382,512.2,1836.381L512.2,1836.381z"/>
	</g>
</g>
<g>
	<g>
		<path fill="#010101" d="M530.491,1835.528c1.318,0.035,2.462,0.623,3.685,1.047c0.732,0.255,1.045-0.904,0.318-1.156
			c-1.337-0.464-2.562-1.052-4.003-1.09C529.717,1834.308,529.719,1835.508,530.491,1835.528L530.491,1835.528z"/>
	</g>
</g>
<g>
	<g>
		<path fill="#010101" d="M521.286,1772.697c-0.535,2.039-0.417,3.675,0.515,5.634c1.401,2.946,2.852,5.2,2.105,8.708
			c-0.421,1.976-1.951,3.987-2.892,5.759c-1.116,2.105-2.829,5.097-2.342,7.599c0.598,3.07,5.051,6.67,3.67,9.659
			c-0.323,0.697,0.711,1.308,1.035,0.605c0.814-1.762,0.869-2.876-0.1-4.614c-0.709-1.274-1.967-2.367-2.766-3.57
			c-2.136-3.215,0.768-7.619,2.245-10.404c1.379-2.601,2.496-4.62,2.694-7.601c0.283-4.243-4.243-6.75-3.008-11.456
			C522.641,1772.266,521.483,1771.949,521.286,1772.697L521.286,1772.697z"/>
	</g>
</g>
<g>
	<g>
		<path fill="#010101" d="M534.536,1866.456c-1.369-2.026,6.236-5.854,7.47-6.479c3.521-1.784,9.027-4.042,12.878-2.092
			c2.719,1.378,1.881,5.064,0.324,6.906c-1.551,1.836-4.127,2.82-6.334,3.531c-4.076,1.314-11.82,2.305-14.67-1.867
			c-0.434-0.635-1.475-0.035-1.037,0.605c5.839,8.545,31.14-0.116,23.658-9.024c-4.994-5.946-26.631,4.133-23.326,9.024
			C533.93,1867.699,534.97,1867.098,534.536,1866.456L534.536,1866.456z"/>
	</g>
</g>
<g>
	<g>
		<path fill="#010101" d="M556.847,1858.901c0.61-0.522,1.26-0.856,1.636-1.59c0.616-1.202,1.116-2.745,0.821-4.109
			c-0.579-2.688-3.659-2.974-5.869-3.615c-0.744-0.217-1.061,0.941-0.318,1.156c1.576,0.458,4.346,0.642,4.962,2.458
			c0.403,1.189-0.198,2.659-0.736,3.709c-0.238,0.465-0.956,0.812-1.345,1.144C555.409,1858.557,556.262,1859.402,556.847,1858.901
			L556.847,1858.901z"/>
	</g>
</g>
<g>
	<g>
		<path fill="#010101" d="M559.925,1862.797c0.467-0.185,1.034-0.475,1.553-0.375c0.203,0.039,0.369,0.324,0.543,0.43
			c0.559,0.339,0.911,0.466,1.275,1.076c1.194,2.002,0.144,4.094-1.893,4.906c-0.71,0.282-0.4,1.443,0.318,1.156
			c2.613-1.041,4.069-3.556,2.811-6.265c-0.371-0.798-0.934-1.595-1.814-1.86c-0.309-0.094-0.587-0.471-0.921-0.601
			c-0.678-0.263-1.583,0.135-2.19,0.376C558.896,1861.922,559.205,1863.083,559.925,1862.797L559.925,1862.797z"/>
	</g>
</g>
<g>
	<g>
		<path fill="#010101" d="M529.849,1867.393c0.331,0.664,0.664,1.327,0.996,1.99c0.346,0.692,1.381,0.084,1.035-0.605
			c-0.331-0.664-0.664-1.327-0.996-1.99C530.538,1866.095,529.503,1866.704,529.849,1867.393L529.849,1867.393z"/>
	</g>
</g>
<g>
	<g>
		<path fill="#010101" d="M526.745,1868.602c0.447,0.247,0.682,0.632,0.699,1.143c0.025,0.771,1.226,0.774,1.199,0
			c-0.03-0.924-0.475-1.728-1.293-2.178C526.673,1867.193,526.067,1868.229,526.745,1868.602L526.745,1868.602z"/>
	</g>
</g>
<g>
	<g>
		<path fill="#010101" d="M523.876,1868.778c-0.365,0.794-0.511,1.675,0.094,2.387c0.501,0.592,1.346-0.262,0.848-0.848
			c-0.199-0.236-0.012-0.701,0.094-0.934C525.231,1868.685,524.198,1868.075,523.876,1868.778L523.876,1868.778z"/>
	</g>
</g>
<g>
	<g>
		<path fill="#010101" d="M519.655,1870.5c0.376,0.407,0.616,0.92,0.994,1.328c0.527,0.569,1.374-0.281,0.85-0.848
			c-0.377-0.407-0.617-0.92-0.996-1.328C519.977,1869.083,519.13,1869.934,519.655,1870.5L519.655,1870.5z"/>
	</g>
</g>
<g>
	<g>
		<path fill="#010101" d="M517.237,1872.04c0.303,0.509,0.885,0.789,1.393,1.049c0.451,0.231,1.337,0.494,1.604,0.941
			c0.395,0.664,1.433,0.061,1.035-0.605c-0.303-0.509-0.885-0.79-1.393-1.051c-0.45-0.23-1.336-0.493-1.602-0.939
			C517.879,1870.77,516.841,1871.374,517.237,1872.04L517.237,1872.04z"/>
	</g>
</g>
<g>
	<g>
		<path fill="#010101" d="M548.129,1858.375c4.369,1.164,3.696,6.664,1.964,9.738c-0.38,0.675,0.657,1.279,1.037,0.605
			c2.129-3.779,2.478-10.127-2.683-11.5C547.699,1857.019,547.382,1858.177,548.129,1858.375L548.129,1858.375z"/>
	</g>
</g>
<g>
	<path fill="#FFFFFF" d="M554.512,1859.274c-1.593,0-2.149-0.238-2.309-1.91s0.557-2.309,2.229-2.707
		c3.582-0.637,3.344,4.855,0.637,4.457"/>
	<g>
		<path fill="#010101" d="M554.512,1858.674c-0.46-0.005-1.068,0.052-1.424-0.296c-0.399-0.391-0.354-1.433-0.261-1.928
			c0.208-1.081,1.903-1.424,2.79-1.134c1.461,0.479,1.113,3.379-0.549,3.197c-0.769-0.084-0.761,1.116,0,1.199
			c3.188,0.349,3.46-4.705,0.727-5.6c-1.606-0.526-3.834,0.503-4.16,2.205c-0.166,0.865-0.048,2.08,0.514,2.793
			c0.566,0.719,1.52,0.755,2.363,0.762C555.286,1859.88,555.285,1858.681,554.512,1858.674L554.512,1858.674z"/>
	</g>
</g>
<g>
	<path fill="#FFFFFF" d="M557.139,1863.891c-3.582,0.318-3.742-3.98-0.239-4.379c3.423-0.318,3.185,4.379-0.159,4.219"/>
	<g>
		<path fill="#010101" d="M557.139,1863.292c-0.935,0.059-2.087-0.203-2.177-1.321c-0.094-1.168,1.143-1.806,2.139-1.871
			c0.944-0.062,1.67,0.5,1.656,1.463c-0.015,1.085-1.072,1.587-2.017,1.569c-0.774-0.016-0.772,1.185,0,1.199
			c1.584,0.031,3.081-0.958,3.207-2.635c0.128-1.707-1.222-2.811-2.847-2.797c-1.685,0.014-3.244,1.208-3.34,2.936
			c-0.104,1.858,1.785,2.758,3.378,2.656C557.907,1864.442,557.912,1863.242,557.139,1863.292L557.139,1863.292z"/>
	</g>
</g>
<g>
	<g>
		<path fill="#010101" d="M533.814,1867.176c2.716-0.612,5.225-1.883,7.96-2.533c3.347-0.795,6.824-1.097,10.189-1.846
			c0.756-0.168,0.436-1.324-0.318-1.156c-3.001,0.667-5.947,1.143-8.995,1.592c-3.237,0.477-6.035,2.082-9.154,2.787
			C532.741,1866.19,533.062,1867.347,533.814,1867.176L533.814,1867.176z"/>
	</g>
</g>
<g>
	<g>
		<path fill="#010101" d="M553.376,1855.294c0.388,1.109,0.695,2.247,1.334,3.247c0.414,0.65,1.453,0.049,1.035-0.605
			c-0.583-0.914-0.857-1.946-1.213-2.96C554.278,1854.25,553.119,1854.563,553.376,1855.294L553.376,1855.294z"/>
	</g>
</g>
<g>
	<g>
		<path fill="#010101" d="M555.604,1860.388c0.184,1.178,0.678,2.195,1.508,3.052c0.538,0.558,1.386-0.292,0.848-0.848
			c-0.694-0.719-1.046-1.543-1.197-2.522C556.644,1859.307,555.487,1859.631,555.604,1860.388L555.604,1860.388z"/>
	</g>
</g>
<g>
	<g>
		<path fill="#010101" d="M540.379,1870.499c0.049,0.669-0.108,1.281-0.542,1.805c-0.489,0.591,0.354,1.444,0.85,0.848
			c0.631-0.762,0.966-1.655,0.892-2.652C541.521,1869.732,540.321,1869.726,540.379,1870.499L540.379,1870.499z"/>
	</g>
</g>
<g>
	<g>
		<path fill="#010101" d="M547.703,1869.383c0,0.743,0,1.485,0,2.229c0,0.773,1.199,0.773,1.199,0c0-0.743,0-1.485,0-2.229
			C548.902,1868.61,547.703,1868.61,547.703,1869.383L547.703,1869.383z"/>
	</g>
</g>
<g>
	<g>
		<path fill="#010101" d="M552.601,1868.37c0.572,0.211,1.015,0.734,1.528,1.055c0.465,0.291,1.138,0.372,1.656,0.537
			c0.739,0.236,1.053-0.922,0.318-1.156c-0.575-0.185-1.204-0.285-1.703-0.64c-0.495-0.351-0.901-0.739-1.481-0.952
			C552.191,1866.945,551.88,1868.105,552.601,1868.37L552.601,1868.37z"/>
	</g>
</g>
<g>
	<g>
		<path fill="#010101" d="M538.59,1859.811c-0.861-0.244-1.779-0.574-2.44-1.199c-0.563-0.531-1.413,0.315-0.85,0.848
			c0.815,0.77,1.907,1.207,2.972,1.508C539.018,1861.179,539.333,1860.021,538.59,1859.811L538.59,1859.811z"/>
	</g>
</g>
<g>
	<g>
		<path fill="#010101" d="M544.046,1858.081c0-0.981,0-1.964,0-2.945c0-0.773-1.199-0.773-1.199,0c0,0.981,0,1.964,0,2.945
			C542.847,1858.854,544.046,1858.854,544.046,1858.081L544.046,1858.081z"/>
	</g>
</g>
<g>
	<g>
		<path fill="#010101" d="M547.867,1856.805c-0.049-1.119,0.247-2.426,1.375-2.904c0.711-0.301,0.099-1.334-0.605-1.035
			c-1.498,0.634-2.035,2.438-1.969,3.939C546.701,1857.576,547.901,1857.58,547.867,1856.805L547.867,1856.805z"/>
	</g>
</g>
<g>
	<g>
		<path fill="#010101" d="M411.948,1800.455c0.374,2.723,0.748,5.445,1.123,8.168c0.104,0.764,1.261,0.438,1.156-0.318
			c-0.374-2.723-0.748-5.445-1.123-8.168C413,1799.373,411.844,1799.699,411.948,1800.455L411.948,1800.455z"/>
	</g>
</g>
<g>
	<g>
		<path fill="#010101" d="M412.419,1800.485c2.919-0.614,5.839-1.198,8.817-1.426c-0.2-0.199-0.4-0.399-0.6-0.6
			c0.392,2.95,0.87,6.256,0.24,9.198c-0.162,0.754,0.994,1.075,1.156,0.318c0.658-3.067,0.212-6.44-0.197-9.517
			c-0.04-0.304-0.242-0.627-0.6-0.6c-3.086,0.235-6.112,0.832-9.136,1.469C411.343,1799.488,411.664,1800.644,412.419,1800.485
			L412.419,1800.485z"/>
	</g>
</g>
<g>
	<g>
		<path fill="#010101" d="M413.837,1809.252c2.525-0.348,5.035-0.724,7.481-1.455c0.74-0.221,0.425-1.379-0.318-1.156
			c-2.447,0.73-4.957,1.106-7.481,1.455C412.755,1808.201,413.081,1809.357,413.837,1809.252L413.837,1809.252z"/>
	</g>
</g>
<g>
	<g>
		<path fill="#010101" d="M416.025,1808.268c-0.142,2.511-2.917,4.175-4.811,5.373c-1.769,1.12-3.681,2.019-5.39,3.232
			c-0.625,0.443-0.027,1.484,0.605,1.035c3.454-2.452,10.511-4.584,10.794-9.641
			C417.269,1807.495,416.068,1807.499,416.025,1808.268L416.025,1808.268z"/>
	</g>
</g>
<g>
	<g>
		<path fill="#010101" d="M418.648,1808.893c3.278,3.191,7.529,5.403,11.908,6.619c0.747,0.208,1.063-0.95,0.318-1.156
			c-4.155-1.154-8.263-3.279-11.379-6.311C418.942,1807.505,418.093,1808.353,418.648,1808.893L418.648,1808.893z"/>
	</g>
</g>
<g>
	<g>
		<path fill="#010101" d="M404.055,1818.018c9.567,2.968,21.771,0.639,30.857-2.916c0.713-0.278,0.403-1.439-0.318-1.156
			c-8.908,3.484-20.831,5.827-30.221,2.916C403.632,1816.631,403.317,1817.79,404.055,1818.018L404.055,1818.018z"/>
	</g>
</g>
<g>
	<g>
		<path fill="#010101" d="M434.978,1814.728c0.418,1.001-0.199,2.183,0.527,3.124c0.465,0.604,1.508,0.008,1.035-0.605
			c-0.592-0.768-0.039-1.958-0.406-2.837C435.841,1813.707,434.679,1814.014,434.978,1814.728L434.978,1814.728z"/>
	</g>
</g>
<g>
	<g>
		<path fill="#010101" d="M404.544,1821.579c5.272,1.184,10.388,0.239,15.705-0.033c5.333-0.272,10.311-1.521,15.283-3.445
			c0.714-0.275,0.404-1.437-0.318-1.156c-4.906,1.897-9.689,3.079-14.965,3.402c-5.192,0.317-10.226,1.234-15.387,0.076
			C404.108,1820.252,403.789,1821.41,404.544,1821.579L404.544,1821.579z"/>
	</g>
</g>
<g>
	<g>
		<path fill="#010101" d="M405.497,1821.826c5.637,19.136,4,40.203,12.289,58.519c0.319,0.704,1.354,0.094,1.037-0.605
			c-8.227-18.176-6.566-39.213-12.17-58.231C406.436,1820.766,405.277,1821.082,405.497,1821.826L405.497,1821.826z"/>
	</g>
</g>
<g>
	<g>
		<path fill="#010101" d="M434.484,1819.232c2.68,6.849,2.979,15.015,4.111,22.231c1.71,10.896,2.37,22.484,6.279,32.866
			c0.27,0.718,1.43,0.407,1.156-0.318c-3.916-10.404-4.526-21.95-6.278-32.867c-1.158-7.222-1.428-15.373-4.112-22.23
			C435.362,1818.201,434.201,1818.51,434.484,1819.232L434.484,1819.232z"/>
	</g>
</g>
<g>
	<g>
		<path fill="#010101" d="M418.812,1880.424c3.393,2.734,8.448,1.711,12.354,0.856c4.849-1.061,11.089-3.072,14.556-6.858
			c0.521-0.569-0.324-1.42-0.848-0.848c-4.352,4.75-19.465,10.633-25.215,6.002C419.063,1879.096,418.208,1879.939,418.812,1880.424
			L418.812,1880.424z"/>
	</g>
</g>
<g>
	<g>
		<path fill="#010101" d="M403.007,1817.685c0.146,1.072,0.252,2.139,0.23,3.222c-0.016,0.774,1.185,0.772,1.199,0
			c0.024-1.191-0.111-2.361-0.273-3.54C404.059,1816.602,402.902,1816.929,403.007,1817.685L403.007,1817.685z"/>
	</g>
</g>
<g>
	<g>
		<path fill="#010101" d="M408.864,1831.698c2.896,0.056,4.819,1.894,6.998,3.416c1.64,1.146,3.647,1.756,5.532,2.34
			c5.366,1.664,10.805,2.502,16.32,3.465c0.756,0.133,1.08-1.023,0.318-1.156c-5.535-0.967-10.898-1.961-16.319-3.465
			c-4.589-1.273-8.064-5.707-12.85-5.799C408.09,1830.483,408.092,1831.683,408.864,1831.698L408.864,1831.698z"/>
	</g>
</g>
<g>
	<g>
		<path fill="#010101" d="M410.4,1848.624c4.438,1.408,9.046,2.428,13.267,4.427c5.702,2.7,10.447,6.096,16.817,6.845
			c0.768,0.091,0.759-1.11,0-1.199c-6.513-0.767-11.711-4.611-17.555-7.311c-3.85-1.778-8.187-2.643-12.211-3.918
			C409.979,1847.232,409.665,1848.391,410.4,1848.624L410.4,1848.624z"/>
	</g>
</g>
<g>
	<g>
		<path fill="#010101" d="M574.074,1799.559c2.139-0.178,3.934-1.441,3.777-3.766c-0.141-2.097-1.894-3.801-3.908-4.151
			c-2.206-0.384-4.737,0.858-4.449,3.362c0.275,2.389,2.572,4.359,4.898,4.555c0.771,0.065,0.766-1.135,0-1.199
			c-1.676-0.142-3.105-1.498-3.617-3.057c-0.647-1.975,1.494-2.739,3.095-2.461c1.386,0.24,2.416,1.382,2.74,2.708
			c0.419,1.712-1.014,2.683-2.536,2.81C573.309,1798.423,573.303,1799.624,574.074,1799.559L574.074,1799.559z"/>
	</g>
</g>
<g>
	<g>
		<path fill="#010101" d="M566.296,1800.331c2.048-0.734,3.419-2.75,3.793-4.844c0.377-2.115-0.809-3.775-3.011-3.717
			c-2.408,0.064-4.38,1.871-4.339,4.313c0.042,2.515,2.385,3.855,4.668,3.634c0.763-0.073,0.771-1.274,0-1.199
			c-1.707,0.165-3.309-0.563-3.469-2.435c-0.159-1.858,1.481-2.956,3.14-3.113c1.721-0.164,2.07,1.291,1.757,2.673
			c-0.334,1.475-1.399,3.008-2.857,3.531C565.255,1799.433,565.566,1800.593,566.296,1800.331L566.296,1800.331z"/>
	</g>
</g>
<g>
	<g>
		<path fill="#010101" d="M566.813,1791.354c-2.457-3.273-6.594-5.886-10.715-6.33c-2.985-0.321-7.271,0.569-8.078,4.021
			c-1.174,5.015,11.164,6.641,14.147,6.703c0.774,0.017,0.772-1.184,0-1.199c-3.856-0.081-8.933-1.112-12.023-3.516
			c-3.546-2.759,3.134-4.959,5.15-4.896c3.906,0.121,8.184,2.76,10.483,5.822C566.236,1792.571,567.279,1791.973,566.813,1791.354
			L566.813,1791.354z"/>
	</g>
</g>
<g>
	<g>
		<path fill="#010101" d="M571.417,1792.276c1.266-1.86,1.1-4.828,1.068-6.957c-0.024-1.692,0.067-5.173-1.32-6.469
			c-1.851-1.728-4.515-2.208-6.804-1.084c-2.577,1.266-1.515,5.565-0.647,7.525c0.313,0.706,1.347,0.096,1.037-0.605
			c-0.539-1.217-0.76-2.413-0.754-3.743c0.012-2.513,2.122-2.772,3.915-2.505c2.14,0.321,2.771,1.757,3.1,3.598
			c0.469,2.625,0.954,7.305-0.63,9.635C569.945,1792.312,570.985,1792.912,571.417,1792.276L571.417,1792.276z"/>
	</g>
</g>
<g>
	<g>
		<path fill="#010101" d="M569.255,1791.814c-1.035-2.64-2.899-4.36-4.479-6.657c-1.455-2.117-3.307-3.132-5.632-4.122
			c-1.472-0.627-3.886-1.322-5.093,0.246c-1.211,1.573-0.389,3.141,1.146,4.067c0.664,0.401,1.267-0.637,0.605-1.035
			c-0.891-2.359-0.375-3.242,1.546-2.647c0.838,0.174,1.631,0.592,2.41,0.931c1.325,0.578,2.438,1.28,3.392,2.369
			c1.812,2.07,3.948,4.624,4.947,7.167C568.378,1792.844,569.538,1792.535,569.255,1791.814L569.255,1791.814z"/>
	</g>
</g>
<g>
	<g>
		<path fill="#010101" d="M559.681,1782.184c-1.021,0.815-1.705,2.1-2.477,3.137c-0.462,0.622,0.581,1.219,1.037,0.605
			c0.714-0.961,1.342-2.138,2.287-2.895C561.133,1782.549,560.278,1781.706,559.681,1782.184L559.681,1782.184z"/>
	</g>
</g>
<g>
	<g>
		<path fill="#010101" d="M557.427,1781.434c-1.019,0.814-1.705,2.099-2.475,3.137c-0.461,0.623,0.581,1.22,1.037,0.605
			c0.712-0.961,1.342-2.139,2.287-2.895C558.88,1781.799,558.025,1780.956,557.427,1781.434L557.427,1781.434z"/>
	</g>
</g>
<g>
	<g>
		<path fill="#010101" d="M561.728,1784.512c0.005-0.062,0.041-0.125-0.02-0.006c-0.056,0.109-0.128,0.212-0.198,0.313
			c-0.146,0.21-0.313,0.403-0.478,0.599c-0.326,0.387-0.68,0.757-0.971,1.173c-0.444,0.636,0.597,1.234,1.037,0.605
			c0.557-0.795,1.733-1.614,1.828-2.684C562.996,1783.741,561.796,1783.748,561.728,1784.512L561.728,1784.512z"/>
	</g>
</g>
<g>
	<g>
		<path fill="#010101" d="M565.185,1786.834c-0.613,0.167-0.974,0.989-1.377,1.424c-0.525,0.565,0.321,1.416,0.85,0.848
			c0.163-0.176,0.305-0.376,0.453-0.565c0.109-0.139,0.22-0.275,0.334-0.409c0.039-0.046,0.078-0.09,0.119-0.133
			c0.12-0.132,0.171-0.07-0.061-0.008C566.249,1787.788,565.932,1786.63,565.185,1786.834L565.185,1786.834z"/>
	</g>
</g>
<g>
	<g>
		<path fill="#010101" d="M576.455,1793.438c-2.116,0.113-3.733,1.678-5.715,2.244c-0.743,0.212-0.427,1.369,0.318,1.156
			c1.839-0.524,3.464-2.098,5.396-2.201C577.225,1794.596,577.229,1793.396,576.455,1793.438L576.455,1793.438z"/>
	</g>
</g>
<g>
	<g>
		<path fill="#010101" d="M569.153,1795.026c-1.905,0-3.81,0-5.715,0c-0.773,0-0.773,1.199,0,1.199c1.905,0,3.81,0,5.715,0
			C569.927,1796.225,569.927,1795.026,569.153,1795.026L569.153,1795.026z"/>
	</g>
</g>
<g>
	<g>
		<path fill="#010101" d="M566.945,1789.075c-0.406,0.257-0.831,0.422-1.285,0.574c-0.73,0.243-0.417,1.402,0.318,1.156
			c0.549-0.183,1.082-0.385,1.572-0.695C568.203,1789.698,567.602,1788.66,566.945,1789.075L566.945,1789.075z"/>
	</g>
</g>
<g>
	<g>
		<path fill="#010101" d="M569.368,1796.419c0.339,1.83,1.104,3.505,1.746,5.238c0.268,0.719,1.428,0.408,1.158-0.318
			c-0.645-1.733-1.408-3.409-1.746-5.238C570.386,1795.34,569.229,1795.664,569.368,1796.419L569.368,1796.419z"/>
	</g>
</g>
<g>
	<g>
		<path fill="#010101" d="M562.646,1795.196c-1.561,0.542-2.87,1.544-3.379,3.167c-0.232,0.74,0.926,1.055,1.156,0.318
			c0.378-1.201,1.392-1.929,2.541-2.329C563.69,1796.1,563.378,1794.941,562.646,1795.196L562.646,1795.196z"/>
	</g>
</g>
<g>
	<g>
		<path fill="#010101" d="M556.304,1794.563c-1.645,0.351-2.107,2.147-2.322,3.589c-0.112,0.757,1.044,1.082,1.158,0.318
			c0.145-0.976,0.322-2.503,1.482-2.751C557.379,1795.558,557.058,1794.402,556.304,1794.563L556.304,1794.563z"/>
	</g>
</g>
<line fill="none" stroke="#010101" stroke-width="2" stroke-miterlimit="10" stroke-dasharray="2,2,2,2" x1="437.553" y1="1798.854" x2="488.553" y2="1767.854"/>
<line fill="none" stroke="#010101" stroke-width="2" stroke-miterlimit="10" stroke-dasharray="2,2,2,2" x1="442.709" y1="1802.348" x2="493.552" y2="1798.854"/>
<line fill="none" stroke="#010101" stroke-width="2" stroke-miterlimit="10" stroke-dasharray="2,2,2,2" x1="439.553" y1="1807.854" x2="482.553" y2="1833.854"/>
<g>
	<g>
		<g>
			<path fill="#010101" d="M115.476,72.69c-4.233-0.921-3.28-6.969,1.117-6.248c3.585,0.587,2.32,6.792-1.276,6.439
				c-0.771-0.076-0.763,1.125,0,1.2c4.971,0.488,6.426-7.592,1.596-8.797c-2.454-0.612-4.935,0.988-5.399,3.431
				c-0.474,2.486,1.284,4.618,3.645,5.131C115.911,74.011,116.231,72.854,115.476,72.69L115.476,72.69z"/>
		</g>
	</g>
	<g>
		<g>
			<path fill="#010101" d="M123.592,72.262c-4.327-0.945-3.453-7.403,1.139-6.674c3.653,0.58,1.512,6.84-1.725,6.652
				c-0.773-0.045-0.77,1.156,0,1.2c4.773,0.276,6.993-8.224,1.752-9.056c-5.941-0.943-7.13,7.802-1.484,9.035
				C124.027,73.584,124.348,72.427,123.592,72.262L123.592,72.262z"/>
		</g>
	</g>
	<g>
		<g>
			<path fill="#010101" d="M118.988,72.413c0.251,3.539,4.831,5.246,6.509,7.992c0.403,0.659,1.441,0.057,1.037-0.605
				c-0.752-1.23-1.939-2.177-2.99-3.14c-1.137-1.041-3.236-2.57-3.356-4.247C120.134,71.646,118.933,71.641,118.988,72.413
				L118.988,72.413z"/>
		</g>
	</g>
	<g>
		<g>
			<path fill="#010101" d="M112.381,70.429c2.278,0.463,4.661,0.463,6.939,0c0.759-0.154,0.437-1.311-0.318-1.157
				c-2.055,0.417-4.248,0.417-6.303,0C111.944,69.119,111.622,70.275,112.381,70.429L112.381,70.429z"/>
		</g>
	</g>
	<g>
		<g>
			<path fill="#010101" d="M120.229,70.451c1.996,0,3.992-0.01,5.98-0.214c0.762-0.078,0.77-1.279,0-1.2
				c-1.988,0.204-3.984,0.213-5.98,0.214C119.456,69.25,119.456,70.451,120.229,70.451L120.229,70.451z"/>
		</g>
	</g>
	<g>
		<g>
			<path fill="#010101" d="M118.266,66.434c-0.059-4.919-0.926-10.257,0.534-15.043c0.668-2.188,2.046-0.359,2.328,0.977
				c0.347,1.641,0.227,3.425,0.15,5.087c-0.121,2.652-0.544,5.271-0.795,7.911c-0.074,0.771,1.127,0.763,1.199,0
				c0.211-2.211,2.971-17.416-2.126-16.401c-2.372,0.473-2.438,4.332-2.591,6.161c-0.314,3.771,0.055,7.539,0.101,11.309
				C117.075,67.207,118.275,67.208,118.266,66.434L118.266,66.434z"/>
		</g>
	</g>
	<g>
		<g>
			<path fill="#010101" d="M118.252,54.197c1.007-0.187,2.024-0.192,3.045-0.192c0.773,0,0.773-1.2,0-1.2
				c-1.131,0-2.249,0.029-3.363,0.235C117.173,53.18,117.496,54.337,118.252,54.197L118.252,54.197z"/>
		</g>
	</g>
	<g>
		<g>
			<path fill="#010101" d="M117.666,57.635c1.139,0,2.278,0,3.417,0c0.773,0,0.773-1.2,0-1.2c-1.139,0-2.278,0-3.417,0
				C116.893,56.435,116.893,57.635,117.666,57.635L117.666,57.635z"/>
		</g>
	</g>
	<g>
		<g>
			<path fill="#010101" d="M117.666,61.266c1.068,0,2.136,0,3.204,0c0.773,0,0.773-1.2,0-1.2c-1.068,0-2.136,0-3.204,0
				C116.893,60.066,116.893,61.266,117.666,61.266L117.666,61.266z"/>
		</g>
	</g>
	<g>
		<g>
			<path fill="#010101" d="M117.666,65.325c0.712,0,1.424,0,2.136,0c0.773,0,0.773-1.2,0-1.2c-0.712,0-1.424,0-2.136,0
				C116.893,64.125,116.893,65.325,117.666,65.325L117.666,65.325z"/>
		</g>
	</g>
	<g>
		<g>
			<path fill="#010101" d="M121.896,65.579c-0.23-4.247,5.253-12.868,10.175-11.699c4.935,1.173-3.787,9.555-6.021,10.266
				c-0.734,0.234-0.421,1.393,0.318,1.157c2.826-0.9,11.938-9.037,7.236-12.02c-5.933-3.764-13.182,7.262-12.908,12.295
				C120.738,66.349,121.938,66.353,121.896,65.579L121.896,65.579z"/>
		</g>
	</g>
	<g>
		<g>
			<path fill="#010101" d="M118.671,65.419c-1.017-3.566-1.319-7.432-3.756-10.399c-1.717-2.092-5.911-3.346-8.097-1.307
				c-1.802,1.68-0.135,4.97,0.813,6.606c1.433,2.477,3.808,5.265,6.672,6.052c0.747,0.206,1.063-0.952,0.318-1.157
				c-2.17-0.596-3.87-2.552-5.161-4.296c-1.039-1.404-3.174-4.617-1.794-6.356c0.838-1.056,2.952-0.591,3.988-0.304
				c1.636,0.453,2.727,1.835,3.495,3.255c1.353,2.5,1.594,5.525,2.365,8.226C117.727,66.481,118.884,66.166,118.671,65.419
				L118.671,65.419z"/>
		</g>
	</g>
	<g>
		<g>
			<path fill="#010101" d="M109.2,69.382c1.201,0,2.394-0.014,3.577-0.234c0.761-0.142,0.438-1.298-0.318-1.157
				c-1.075,0.2-2.169,0.191-3.259,0.191C108.427,68.183,108.427,69.382,109.2,69.382L109.2,69.382z"/>
		</g>
	</g>
	<g>
		<g>
			<path fill="#010101" d="M127.491,68.529c1.318,0.035,2.462,0.623,3.685,1.046c0.733,0.254,1.045-0.906,0.318-1.157
				c-1.337-0.462-2.562-1.051-4.003-1.089C126.717,67.308,126.719,68.508,127.491,68.529L127.491,68.529z"/>
		</g>
	</g>
	<g>
		<g>
			<path fill="#010101" d="M118.287,5.696c-0.536,2.04-0.418,3.675,0.514,5.634c1.401,2.947,2.852,5.201,2.105,8.708
				c-0.421,1.976-1.951,3.988-2.892,5.759c-1.116,2.105-2.829,5.097-2.342,7.599c0.598,3.07,5.051,6.67,3.67,9.659
				c-0.323,0.697,0.711,1.307,1.035,0.605c0.815-1.762,0.869-2.875-0.1-4.614c-0.709-1.274-1.967-2.367-2.766-3.57
				c-2.135-3.215,0.768-7.619,2.245-10.404c1.379-2.601,2.496-4.62,2.694-7.601c0.283-4.243-4.243-6.75-3.009-11.456
				C119.641,5.266,118.483,4.948,118.287,5.696L118.287,5.696z"/>
		</g>
	</g>
	<g>
		<g>
			<path fill="#010101" d="M131.536,99.455c-1.369-2.026,6.237-5.854,7.47-6.479c3.521-1.784,9.027-4.042,12.878-2.091
				c2.719,1.377,1.881,5.064,0.324,6.906c-1.551,1.836-4.127,2.82-6.334,3.532c-4.077,1.314-11.82,2.303-14.67-1.869
				c-0.434-0.635-1.475-0.035-1.037,0.605c5.839,8.546,31.14-0.115,23.658-9.023c-4.994-5.947-26.631,4.132-23.326,9.023
				C130.93,100.698,131.97,100.098,131.536,99.455L131.536,99.455z"/>
		</g>
	</g>
	<g>
		<g>
			<path fill="#010101" d="M153.846,91.902c0.611-0.523,1.261-0.857,1.637-1.591c0.616-1.202,1.116-2.745,0.821-4.109
				c-0.579-2.689-3.659-2.975-5.869-3.616c-0.744-0.216-1.061,0.942-0.318,1.157c1.576,0.458,4.346,0.642,4.962,2.457
				c0.403,1.19-0.199,2.66-0.736,3.709c-0.238,0.465-0.956,0.812-1.344,1.144C152.409,91.557,153.262,92.402,153.846,91.902
				L153.846,91.902z"/>
		</g>
	</g>
	<g>
		<g>
			<path fill="#010101" d="M156.925,95.797c0.467-0.185,1.034-0.475,1.553-0.375c0.203,0.039,0.369,0.324,0.543,0.429
				c0.559,0.339,0.911,0.467,1.275,1.078c1.194,2.001,0.145,4.094-1.893,4.906c-0.71,0.283-0.4,1.444,0.318,1.157
				c2.613-1.042,4.069-3.556,2.811-6.266c-0.371-0.798-0.934-1.595-1.814-1.861c-0.31-0.094-0.587-0.47-0.921-0.6
				c-0.678-0.263-1.583,0.134-2.19,0.375C155.896,94.922,156.205,96.083,156.925,95.797L156.925,95.797z"/>
		</g>
	</g>
	<g>
		<g>
			<path fill="#010101" d="M126.849,100.393c0.331,0.664,0.664,1.328,0.996,1.991c0.346,0.692,1.381,0.084,1.035-0.605
				c-0.331-0.664-0.664-1.328-0.996-1.991C127.538,99.095,126.503,99.703,126.849,100.393L126.849,100.393z"/>
		</g>
	</g>
	<g>
		<g>
			<path fill="#010101" d="M123.745,101.603c0.447,0.246,0.682,0.631,0.699,1.142c0.025,0.772,1.226,0.774,1.199,0
				c-0.03-0.924-0.475-1.728-1.293-2.178C123.673,100.193,123.067,101.229,123.745,101.603L123.745,101.603z"/>
		</g>
	</g>
	<g>
		<g>
			<path fill="#010101" d="M120.876,101.778c-0.364,0.793-0.511,1.674,0.094,2.386c0.501,0.591,1.346-0.262,0.848-0.849
				c-0.199-0.236-0.012-0.7,0.094-0.932C122.232,101.686,121.198,101.076,120.876,101.778L120.876,101.778z"/>
		</g>
	</g>
	<g>
		<g>
			<path fill="#010101" d="M116.655,103.5c0.376,0.406,0.616,0.92,0.995,1.328c0.526,0.568,1.373-0.282,0.848-0.849
				c-0.376-0.406-0.616-0.92-0.995-1.328C116.977,102.083,116.13,102.934,116.655,103.5L116.655,103.5z"/>
		</g>
	</g>
	<g>
		<g>
			<path fill="#010101" d="M114.237,105.039c0.303,0.509,0.885,0.79,1.393,1.05c0.451,0.231,1.337,0.494,1.604,0.941
				c0.395,0.664,1.433,0.061,1.035-0.605c-0.303-0.509-0.885-0.79-1.393-1.051c-0.45-0.231-1.336-0.494-1.602-0.94
				C114.879,103.769,113.842,104.373,114.237,105.039L114.237,105.039z"/>
		</g>
	</g>
	<g>
		<g>
			<path fill="#010101" d="M145.129,91.375c4.37,1.164,3.696,6.664,1.964,9.739c-0.38,0.675,0.657,1.28,1.037,0.605
				c2.129-3.78,2.478-10.127-2.683-11.501C144.699,90.019,144.382,91.176,145.129,91.375L145.129,91.375z"/>
		</g>
	</g>
	<g>
		<path fill="#FFFFFF" d="M151.512,92.273c-1.593,0-2.149-0.238-2.309-1.91s0.557-2.309,2.229-2.707
			c3.582-0.637,3.344,4.856,0.637,4.458"/>
		<g>
			<path fill="#010101" d="M151.512,91.673c-0.46-0.004-1.068,0.052-1.424-0.296c-0.399-0.391-0.354-1.432-0.261-1.927
				c0.208-1.082,1.903-1.425,2.79-1.134c1.461,0.478,1.114,3.379-0.549,3.198c-0.769-0.084-0.761,1.117,0,1.2
				c3.189,0.348,3.46-4.707,0.727-5.602c-1.606-0.526-3.834,0.503-4.16,2.206c-0.166,0.865-0.048,2.08,0.514,2.793
				c0.566,0.718,1.52,0.754,2.363,0.762C152.286,92.88,152.285,91.68,151.512,91.673L151.512,91.673z"/>
		</g>
	</g>
	<g>
		<path fill="#FFFFFF" d="M154.139,96.891c-3.582,0.318-3.742-3.98-0.239-4.378c3.423-0.318,3.185,4.378-0.159,4.219"/>
		<g>
			<path fill="#010101" d="M154.139,96.291c-0.935,0.06-2.087-0.202-2.177-1.32c-0.094-1.168,1.143-1.806,2.139-1.871
				c0.944-0.062,1.67,0.5,1.656,1.463c-0.015,1.084-1.072,1.587-2.017,1.569c-0.774-0.015-0.772,1.185,0,1.2
				c1.584,0.03,3.081-0.958,3.207-2.635c0.128-1.707-1.222-2.81-2.847-2.797c-1.685,0.014-3.243,1.207-3.34,2.935
				c-0.104,1.859,1.785,2.758,3.378,2.657C154.907,97.442,154.912,96.241,154.139,96.291L154.139,96.291z"/>
		</g>
	</g>
	<g>
		<g>
			<path fill="#010101" d="M130.814,100.176c2.716-0.612,5.225-1.883,7.96-2.533c3.348-0.794,6.824-1.097,10.189-1.846
				c0.756-0.168,0.436-1.325-0.318-1.157c-3.001,0.668-5.947,1.144-8.995,1.593c-3.237,0.477-6.034,2.083-9.154,2.786
				C129.741,99.189,130.062,100.346,130.814,100.176L130.814,100.176z"/>
		</g>
	</g>
	<g>
		<g>
			<path fill="#010101" d="M150.376,88.294c0.388,1.109,0.695,2.247,1.334,3.248c0.414,0.65,1.453,0.049,1.035-0.605
				c-0.582-0.915-0.857-1.947-1.213-2.961C151.278,87.25,150.119,87.562,150.376,88.294L150.376,88.294z"/>
		</g>
	</g>
	<g>
		<g>
			<path fill="#010101" d="M152.605,93.389c0.183,1.177,0.677,2.194,1.507,3.051c0.538,0.557,1.386-0.292,0.848-0.849
				c-0.694-0.718-1.046-1.542-1.198-2.521C153.644,92.307,152.487,92.632,152.605,93.389L152.605,93.389z"/>
		</g>
	</g>
	<g>
		<g>
			<path fill="#010101" d="M137.379,103.498c0.049,0.669-0.108,1.281-0.541,1.804c-0.49,0.591,0.354,1.445,0.848,0.849
				c0.633-0.762,0.967-1.656,0.893-2.653C138.521,102.731,137.321,102.726,137.379,103.498L137.379,103.498z"/>
		</g>
	</g>
	<g>
		<g>
			<path fill="#010101" d="M144.703,102.384c0,0.743,0,1.486,0,2.229c0,0.774,1.199,0.774,1.199,0c0-0.743,0-1.486,0-2.229
				C145.902,101.61,144.703,101.61,144.703,102.384L144.703,102.384z"/>
		</g>
	</g>
	<g>
		<g>
			<path fill="#010101" d="M149.601,101.371c0.572,0.21,1.015,0.733,1.528,1.054c0.466,0.291,1.138,0.372,1.656,0.538
				c0.738,0.237,1.053-0.921,0.318-1.157c-0.575-0.185-1.204-0.286-1.703-0.64c-0.495-0.352-0.901-0.74-1.481-0.952
				C149.191,99.947,148.88,101.106,149.601,101.371L149.601,101.371z"/>
		</g>
	</g>
	<g>
		<g>
			<path fill="#010101" d="M135.59,92.81c-0.861-0.243-1.779-0.574-2.441-1.199c-0.562-0.531-1.412,0.316-0.848,0.849
				c0.814,0.77,1.906,1.207,2.971,1.508C136.018,94.178,136.334,93.02,135.59,92.81L135.59,92.81z"/>
		</g>
	</g>
	<g>
		<g>
			<path fill="#010101" d="M141.046,91.08c0-0.982,0-1.963,0-2.945c0-0.774-1.199-0.774-1.199,0c0,0.982,0,1.963,0,2.945
				C139.847,91.854,141.046,91.854,141.046,91.08L141.046,91.08z"/>
		</g>
	</g>
	<g>
		<g>
			<path fill="#010101" d="M144.867,89.806c-0.049-1.12,0.247-2.426,1.375-2.905c0.71-0.301,0.099-1.334-0.605-1.036
				c-1.498,0.635-2.035,2.438-1.969,3.941C143.701,90.576,144.901,90.58,144.867,89.806L144.867,89.806z"/>
		</g>
	</g>
	<g>
		<g>
			<path fill="#010101" d="M8.948,33.456c0.374,2.723,0.748,5.445,1.123,8.168c0.104,0.764,1.261,0.437,1.156-0.319
				c-0.374-2.723-0.748-5.445-1.123-8.168C10,32.373,8.844,32.699,8.948,33.456L8.948,33.456z"/>
		</g>
	</g>
	<g>
		<g>
			<path fill="#010101" d="M9.419,33.485c2.919-0.614,5.839-1.198,8.817-1.425c-0.2-0.2-0.4-0.4-0.6-0.6
				c0.392,2.95,0.87,6.256,0.24,9.198c-0.162,0.755,0.994,1.076,1.156,0.319c0.658-3.068,0.212-6.441-0.197-9.517
				c-0.04-0.304-0.242-0.627-0.6-0.6c-3.086,0.235-6.112,0.832-9.136,1.468C8.343,32.487,8.664,33.644,9.419,33.485L9.419,33.485z"
				/>
		</g>
	</g>
	<g>
		<g>
			<path fill="#010101" d="M10.837,42.252c2.525-0.348,5.035-0.724,7.481-1.455c0.74-0.221,0.425-1.379-0.318-1.157
				c-2.447,0.732-4.957,1.107-7.481,1.455C9.755,41.201,10.081,42.356,10.837,42.252L10.837,42.252z"/>
		</g>
	</g>
	<g>
		<g>
			<path fill="#010101" d="M13.025,41.269c-0.142,2.51-2.917,4.174-4.811,5.373c-1.769,1.12-3.681,2.019-5.39,3.232
				C2.2,50.317,2.798,51.359,3.431,50.91c3.453-2.453,10.511-4.585,10.794-9.641C14.269,40.495,13.068,40.499,13.025,41.269
				L13.025,41.269z"/>
		</g>
	</g>
	<g>
		<g>
			<path fill="#010101" d="M15.648,41.894c3.278,3.191,7.53,5.403,11.908,6.619c0.747,0.208,1.063-0.95,0.318-1.157
				c-4.155-1.154-8.263-3.279-11.379-6.311C15.942,40.506,15.093,41.354,15.648,41.894L15.648,41.894z"/>
		</g>
	</g>
	<g>
		<g>
			<path fill="#010101" d="M1.055,51.019c9.566,2.966,21.772,0.638,30.857-2.916c0.713-0.279,0.403-1.439-0.318-1.157
				c-8.907,3.484-20.832,5.827-30.221,2.916C0.632,49.632,0.317,50.791,1.055,51.019L1.055,51.019z"/>
		</g>
	</g>
	<g>
		<g>
			<path fill="#010101" d="M31.978,47.729c0.418,1.001-0.199,2.183,0.527,3.124c0.465,0.604,1.508,0.007,1.035-0.605
				c-0.592-0.768-0.038-1.958-0.406-2.837C32.841,46.707,31.679,47.015,31.978,47.729L31.978,47.729z"/>
		</g>
	</g>
	<g>
		<g>
			<path fill="#010101" d="M1.544,54.58c5.272,1.184,10.388,0.239,15.705-0.034c5.333-0.274,10.31-1.521,15.283-3.444
				c0.714-0.276,0.404-1.437-0.318-1.157c-4.906,1.897-9.689,3.079-14.965,3.401c-5.193,0.317-10.225,1.236-15.387,0.077
				C1.108,53.253,0.789,54.41,1.544,54.58L1.544,54.58z"/>
		</g>
	</g>
	<g>
		<g>
			<path fill="#010101" d="M2.497,54.826c5.637,19.135,3.999,40.203,12.289,58.518c0.319,0.704,1.354,0.094,1.037-0.605
				C7.596,94.563,9.257,73.525,3.653,54.506C3.436,53.766,2.277,54.082,2.497,54.826L2.497,54.826z"/>
		</g>
	</g>
	<g>
		<g>
			<path fill="#010101" d="M31.484,52.232c2.68,6.849,2.979,15.014,4.111,22.231c1.71,10.896,2.37,22.484,6.279,32.867
				c0.27,0.717,1.43,0.406,1.156-0.319c-3.916-10.403-4.526-21.949-6.278-32.866c-1.159-7.222-1.428-15.373-4.112-22.231
				C32.362,51.201,31.201,51.51,31.484,52.232L31.484,52.232z"/>
		</g>
	</g>
	<g>
		<g>
			<path fill="#010101" d="M15.812,113.424c3.393,2.734,8.448,1.711,12.354,0.857c4.849-1.061,11.089-3.073,14.556-6.858
				c0.521-0.569-0.324-1.42-0.848-0.849c-4.352,4.75-19.465,10.634-25.215,6.001C16.063,112.095,15.208,112.938,15.812,113.424
				L15.812,113.424z"/>
		</g>
	</g>
	<g>
		<g>
			<path fill="#010101" d="M0.007,50.686c0.147,1.072,0.252,2.138,0.23,3.221c-0.016,0.774,1.185,0.773,1.199,0
				c0.024-1.192-0.11-2.362-0.273-3.541C1.059,49.603-0.098,49.93,0.007,50.686L0.007,50.686z"/>
		</g>
	</g>
	<g>
		<g>
			<path fill="#010101" d="M5.864,64.698c2.896,0.056,4.819,1.894,6.998,3.417c1.64,1.146,3.647,1.756,5.532,2.34
				c5.366,1.663,10.805,2.501,16.32,3.465c0.756,0.132,1.08-1.024,0.318-1.157c-5.535-0.967-10.898-1.962-16.319-3.465
				c-4.589-1.272-8.064-5.707-12.85-5.799C5.09,63.483,5.092,64.683,5.864,64.698L5.864,64.698z"/>
		</g>
	</g>
	<g>
		<g>
			<path fill="#010101" d="M7.4,81.624c4.438,1.408,9.046,2.428,13.267,4.426c5.702,2.7,10.447,6.096,16.817,6.847
				c0.768,0.09,0.759-1.111,0-1.2c-6.513-0.767-11.711-4.612-17.555-7.311c-3.85-1.778-8.187-2.642-12.211-3.918
				C6.979,80.232,6.665,81.391,7.4,81.624L7.4,81.624z"/>
		</g>
	</g>
	<g>
		<g>
			<path fill="#010101" d="M171.074,32.559c2.138-0.179,3.934-1.442,3.777-3.765c-0.141-2.097-1.894-3.801-3.908-4.151
				c-2.206-0.383-4.737,0.858-4.449,3.362c0.275,2.389,2.572,4.359,4.898,4.555c0.771,0.064,0.766-1.136,0-1.2
				c-1.676-0.141-3.105-1.497-3.617-3.056c-0.647-1.975,1.494-2.739,3.095-2.46c1.385,0.241,2.416,1.381,2.74,2.708
				c0.419,1.712-1.014,2.682-2.536,2.809C170.309,31.423,170.303,32.624,171.074,32.559L171.074,32.559z"/>
		</g>
	</g>
	<g>
		<g>
			<path fill="#010101" d="M163.296,33.332c2.048-0.735,3.419-2.75,3.793-4.845c0.377-2.115-0.809-3.774-3.011-3.716
				c-2.408,0.064-4.38,1.871-4.339,4.313c0.042,2.514,2.385,3.856,4.668,3.635c0.763-0.074,0.771-1.275,0-1.2
				c-1.707,0.166-3.309-0.563-3.469-2.435c-0.159-1.859,1.481-2.955,3.14-3.113c1.721-0.164,2.07,1.291,1.757,2.672
				c-0.334,1.475-1.4,3.008-2.857,3.531C162.255,32.434,162.566,33.594,163.296,33.332L163.296,33.332z"/>
		</g>
	</g>
	<g>
		<g>
			<path fill="#010101" d="M163.813,24.354c-2.457-3.274-6.594-5.886-10.715-6.33c-2.985-0.321-7.271,0.57-8.078,4.022
				c-1.174,5.015,11.164,6.64,14.147,6.703c0.774,0.016,0.772-1.184,0-1.2c-3.856-0.081-8.933-1.111-12.023-3.515
				c-3.546-2.758,3.134-4.958,5.15-4.896c3.906,0.121,8.184,2.759,10.483,5.822C163.236,25.57,164.279,24.973,163.813,24.354
				L163.813,24.354z"/>
		</g>
	</g>
	<g>
		<g>
			<path fill="#010101" d="M168.417,25.276c1.266-1.86,1.1-4.829,1.068-6.957c-0.024-1.693,0.067-5.173-1.321-6.47
				c-1.85-1.728-4.514-2.208-6.803-1.083c-2.577,1.266-1.515,5.565-0.647,7.525c0.313,0.707,1.347,0.095,1.037-0.605
				c-0.539-1.217-0.76-2.413-0.754-3.743c0.012-2.513,2.122-2.773,3.915-2.505c2.14,0.32,2.771,1.757,3.1,3.598
				c0.469,2.625,0.954,7.304-0.63,9.634C166.945,25.313,167.985,25.912,168.417,25.276L168.417,25.276z"/>
		</g>
	</g>
	<g>
		<g>
			<path fill="#010101" d="M166.255,24.814c-1.035-2.639-2.898-4.36-4.479-6.657c-1.455-2.117-3.308-3.132-5.632-4.122
				c-1.472-0.627-3.886-1.322-5.093,0.246c-1.211,1.573-0.39,3.141,1.146,4.067c0.664,0.401,1.267-0.637,0.605-1.036
				c-0.89-2.358-0.374-3.241,1.546-2.646c0.838,0.174,1.631,0.592,2.41,0.932c1.324,0.577,2.438,1.28,3.392,2.369
				c1.812,2.071,3.949,4.624,4.947,7.167C165.378,25.845,166.538,25.536,166.255,24.814L166.255,24.814z"/>
		</g>
	</g>
	<g>
		<g>
			<path fill="#010101" d="M156.681,15.184c-1.021,0.815-1.706,2.1-2.477,3.137c-0.461,0.622,0.581,1.22,1.037,0.605
				c0.713-0.961,1.342-2.138,2.287-2.894C158.133,15.549,157.278,14.706,156.681,15.184L156.681,15.184z"/>
		</g>
	</g>
	<g>
		<g>
			<path fill="#010101" d="M154.428,14.433c-1.021,0.815-1.705,2.1-2.476,3.137c-0.461,0.622,0.581,1.22,1.037,0.605
				c0.713-0.961,1.342-2.138,2.286-2.894C155.88,14.798,155.025,13.955,154.428,14.433L154.428,14.433z"/>
		</g>
	</g>
	<g>
		<g>
			<path fill="#010101" d="M158.728,17.513c0.005-0.062,0.041-0.125-0.02-0.006c-0.056,0.11-0.128,0.211-0.198,0.312
				c-0.146,0.21-0.313,0.404-0.478,0.599c-0.326,0.387-0.68,0.757-0.971,1.173c-0.444,0.636,0.597,1.235,1.037,0.605
				c0.556-0.796,1.733-1.614,1.828-2.684C159.996,16.742,158.795,16.749,158.728,17.513L158.728,17.513z"/>
		</g>
	</g>
	<g>
		<g>
			<path fill="#010101" d="M162.185,19.834c-0.613,0.167-0.974,0.99-1.376,1.424c-0.526,0.566,0.32,1.417,0.848,0.849
				c0.164-0.177,0.306-0.377,0.454-0.566c0.109-0.139,0.22-0.275,0.334-0.41c0.039-0.045,0.078-0.089,0.119-0.133
				c0.12-0.131,0.171-0.07-0.061-0.007C163.249,20.789,162.932,19.631,162.185,19.834L162.185,19.834z"/>
		</g>
	</g>
	<g>
		<g>
			<path fill="#010101" d="M173.455,26.438c-2.116,0.113-3.733,1.678-5.715,2.243c-0.743,0.212-0.427,1.37,0.318,1.157
				c1.839-0.524,3.464-2.097,5.396-2.2C174.225,27.597,174.229,26.396,173.455,26.438L173.455,26.438z"/>
		</g>
	</g>
	<g>
		<g>
			<path fill="#010101" d="M166.153,28.025c-1.905,0-3.81,0-5.715,0c-0.773,0-0.773,1.2,0,1.2c1.905,0,3.81,0,5.715,0
				C166.927,29.225,166.927,28.025,166.153,28.025L166.153,28.025z"/>
		</g>
	</g>
	<g>
		<g>
			<path fill="#010101" d="M163.945,22.075c-0.406,0.256-0.832,0.422-1.285,0.574c-0.73,0.245-0.417,1.404,0.318,1.157
				c0.549-0.184,1.081-0.386,1.572-0.695C165.203,22.699,164.602,21.661,163.945,22.075L163.945,22.075z"/>
		</g>
	</g>
	<g>
		<g>
			<path fill="#010101" d="M166.369,29.419c0.338,1.83,1.103,3.505,1.746,5.239c0.267,0.719,1.427,0.408,1.156-0.319
				c-0.644-1.734-1.407-3.409-1.746-5.239C167.386,28.34,166.229,28.663,166.369,29.419L166.369,29.419z"/>
		</g>
	</g>
	<g>
		<g>
			<path fill="#010101" d="M159.646,28.196c-1.562,0.542-2.87,1.544-3.379,3.167c-0.232,0.741,0.926,1.055,1.156,0.319
				c0.378-1.202,1.392-1.93,2.541-2.329C160.69,29.101,160.378,27.941,159.646,28.196L159.646,28.196z"/>
		</g>
	</g>
	<g>
		<g>
			<path fill="#010101" d="M153.304,27.562c-1.646,0.351-2.107,2.148-2.321,3.59c-0.113,0.757,1.043,1.083,1.156,0.319
				c0.146-0.976,0.323-2.504,1.483-2.752C154.379,28.558,154.058,27.401,153.304,27.562L153.304,27.562z"/>
		</g>
	</g>
	
		<line fill="none" stroke="#010101" stroke-width="2" stroke-miterlimit="10" stroke-dasharray="2,2,2,2" x1="34.553" y1="31.854" x2="85.553" y2="0.854"/>
	
		<line fill="none" stroke="#010101" stroke-width="2" stroke-miterlimit="10" stroke-dasharray="2,2,2,2" x1="39.709" y1="35.349" x2="90.552" y2="31.854"/>
	
		<line fill="none" stroke="#010101" stroke-width="2" stroke-miterlimit="10" stroke-dasharray="2,2,2,2" x1="36.553" y1="40.854" x2="79.553" y2="66.854"/>
</g>
</svg>
