<?xml version="1.0" encoding="utf-8"?>
<!-- Generator: Adobe Illustrator 16.0.0, SVG Export Plug-In . SVG Version: 6.00 Build 0)  -->
<!DOCTYPE svg PUBLIC "-//W3C//DTD SVG 1.1//EN" "http://www.w3.org/Graphics/SVG/1.1/DTD/svg11.dtd">
<svg version="1.1" id="Layer_1" xmlns="http://www.w3.org/2000/svg" xmlns:xlink="http://www.w3.org/1999/xlink" x="0px" y="0px"
	 width="209.134px" height="94.999px" viewBox="0 0 209.134 94.999" enable-background="new 0 0 209.134 94.999"
	 xml:space="preserve">
<g>
	<polygon fill="#CDCCCC" points="22.952,53.804 28.67,29.798 137.213,32.004 148.078,45.763 173.382,24 175.155,48.121 
		161.164,54.255 134.741,54.255 134.574,37.167 83.677,34.698 79.459,53.771 	"/>
	<g>
		<g>
			<path fill="#010101" d="M26.996,29.087c-2.164,8.358-4.327,16.716-6.49,25.075c-0.613,2.368,0.649,5.422,1.093,7.746
				c0.853,4.466,1.705,8.933,2.558,13.399c0.145,0.759,1.301,0.437,1.156-0.319c-0.731-3.835-1.464-7.671-2.195-11.506
				c-0.563-2.951-1.955-7.065-1.354-9.386c2.13-8.229,4.26-16.459,6.39-24.688C28.347,28.657,27.189,28.339,26.996,29.087
				L26.996,29.087z"/>
		</g>
	</g>
	<g>
		<g>
			<path fill="#010101" d="M163.173,56.407c1.783,6.85,4.281,13.547,7.256,19.963c0.324,0.702,1.359,0.092,1.035-0.605
				c-2.928-6.317-5.378-12.931-7.135-19.677C164.135,55.339,162.978,55.657,163.173,56.407L163.173,56.407z"/>
		</g>
	</g>
	<g>
		<g>
			<path fill="#010101" d="M27.743,60.156c38.299,0.012,76.593,0.704,114.892,0.716c0.773,0,0.773-1.2,0-1.2
				c-38.299-0.012-76.593-0.704-114.892-0.716C26.97,58.956,26.97,60.155,27.743,60.156L27.743,60.156z"/>
		</g>
	</g>
	<g>
		<g>
			<path fill="#010101" d="M29.967,72.039c38.231,0.005,76.461,0.397,114.692,0.404c0.773,0,0.773-1.2,0-1.2
				c-38.231-0.007-76.461-0.399-114.692-0.404C29.193,70.838,29.193,72.039,29.967,72.039L29.967,72.039z"/>
		</g>
	</g>
	<g>
		<g>
			<path fill="#010101" d="M175.711,21.098c3.557-2.309,7.112-4.618,10.669-6.928c0.63-0.409,1.26-0.818,1.89-1.227
				c0.214-0.139-0.625-1.18-0.632-0.075c-0.011,1.756-0.02,3.512-0.028,5.269c-0.063,13.137-0.17,26.283,0.095,39.418
				c0.016,0.773,1.215,0.774,1.199,0c-0.304-15.097-0.16-30.21-0.063-45.309c0.003-0.439-0.517-0.769-0.902-0.518
				c-4.277,2.778-8.556,5.555-12.833,8.333C174.459,20.481,175.06,21.521,175.711,21.098L175.711,21.098z"/>
		</g>
	</g>
	<g>
		<g>
			<path fill="#010101" d="M171.312,76.42c6.425-5.342,11.758-11.705,17.622-17.62c0.546-0.55-0.303-1.398-0.848-0.849
				c-5.865,5.916-11.198,12.279-17.622,17.62C169.868,76.067,170.722,76.911,171.312,76.42L171.312,76.42z"/>
		</g>
	</g>
	<g>
		<g>
			<path fill="#010101" d="M52.422,12.593c45.195-0.243,90.392-0.486,135.587-0.729c0.051,0,0.103,0,0.154,0
				c0.773-0.004,0.774-1.204,0-1.2c-45.195,0.243-90.391,0.486-135.587,0.729c-0.052,0-0.103,0-0.154,0
				C51.648,11.397,51.647,12.597,52.422,12.593L52.422,12.593z"/>
		</g>
	</g>
	<g>
		<g>
			<path fill="#010101" d="M27.102,60.374c0.516,1.437,0.841,2.713,1.012,4.237c0.085,0.76,1.285,0.769,1.199,0
				c-0.182-1.632-0.501-3.016-1.055-4.556C27.999,59.332,26.839,59.643,27.102,60.374L27.102,60.374z"/>
		</g>
	</g>
	<g>
		<g>
			<path fill="#010101" d="M141.993,59.574c0.496,4.089,0.992,8.179,1.488,12.269c0.092,0.758,1.293,0.767,1.199,0
				c-0.496-4.089-0.992-8.179-1.488-12.269C143.101,58.816,141.899,58.807,141.993,59.574L141.993,59.574z"/>
		</g>
	</g>
	<g>
		<g>
			<path fill="#010101" d="M174.935,20.569c0.256,6.968,0.512,13.937,0.768,20.905c0.361,9.816-0.287,19.578-0.287,29.395
				c0,0.774,1.199,0.774,1.199,0c0-9.816,0.649-19.579,0.288-29.395c-0.256-6.968-0.512-13.937-0.769-20.905
				C176.105,19.798,174.905,19.795,174.935,20.569L174.935,20.569z"/>
		</g>
	</g>
	<g>
		<g>
			<path fill="#010101" d="M151.778,71.668c3.123-0.12,6.246-0.239,9.369-0.358c0.771-0.03,0.774-1.229,0-1.2
				c-3.123,0.12-6.246,0.239-9.369,0.358C151.007,70.498,151.004,71.698,151.778,71.668L151.778,71.668z"/>
		</g>
	</g>
	<g>
		<path fill="#F79421" d="M9.842,57.58c3.043,3.198,2.608,8.316,0.435,12.154c3.799-3.621,6.113,0.945,8.258,3.838
			c-1.814-3.904-1.865-7.722-1.303-12.794c-2.367,3.763-4.225-0.056-5.65-1.919"/>
		<g>
			<path fill="#010101" d="M9.418,58.004c2.845,3.387,2.264,7.74,0.34,11.427c-0.327,0.627,0.424,1.156,0.942,0.727
				c3.596-2.971,5.666,1.427,7.315,3.716c0.459,0.636,1.342,0.102,1.037-0.605c-1.747-4.052-1.665-8.188-1.222-12.491
				c0.068-0.664-0.805-0.721-1.118-0.303c-2.12,2.832-3.527-0.425-4.613-1.919c-0.451-0.619-1.492-0.021-1.037,0.605
				c1.978,2.719,4.01,5.495,6.688,1.919c-0.373-0.101-0.746-0.202-1.118-0.303c-0.471,4.567-0.455,8.83,1.384,13.097
				c0.346-0.202,0.691-0.404,1.037-0.605c-2.438-3.381-5.007-7.424-9.2-3.959c0.313,0.242,0.628,0.485,0.942,0.727
				c2.194-4.208,2.675-9.068-0.529-12.881C9.768,56.563,8.923,57.416,9.418,58.004L9.418,58.004z"/>
		</g>
	</g>
	<g>
		<path fill="#F79421" d="M6.741,75.58c5.273,3.767,4.52,9.793,0.754,14.313c6.584-4.265,10.595,1.113,14.313,4.52
			c-3.145-4.597-3.232-9.093-2.26-15.066c-4.103,4.431-7.32-0.065-9.793-2.26"/>
		<g>
			<path fill="#010101" d="M6.317,76.004c4.699,3.743,4.195,9.025,0.754,13.465c-0.396,0.51,0.093,1.308,0.727,0.942
				c5.888-3.395,9.514,0.603,13.586,4.426c0.484,0.456,1.319-0.136,0.942-0.727c-2.943-4.614-2.999-9.351-2.2-14.604
				c0.088-0.575-0.532-1.023-1.002-0.584c-3.755,3.505-6.265,0.229-8.945-2.26c-0.565-0.525-1.416,0.321-0.848,0.849
				c3.425,3.181,6.491,6.133,10.641,2.26c-0.334-0.195-0.668-0.389-1.002-0.584c-0.853,5.596-0.8,10.639,2.319,15.529
				c0.314-0.242,0.629-0.485,0.942-0.727c-4.597-4.315-8.699-8.27-15.039-4.613c0.242,0.314,0.484,0.628,0.727,0.942
				c3.847-4.961,4.503-10.976-0.754-15.162C6.566,74.679,5.712,75.522,6.317,76.004L6.317,76.004z"/>
		</g>
	</g>
	<g>
		<g>
			<path fill="#010101" d="M24.734,76.399c47.624,0,95.247,0,142.871,0c1.035,0,2.07,0,3.105,0c0.773,0,0.773-1.2,0-1.2
				c-47.624,0-95.247,0-142.871,0c-1.035,0-2.07,0-3.105,0C23.961,75.199,23.961,76.399,24.734,76.399L24.734,76.399z"/>
		</g>
	</g>
	<g>
		<g>
			<path fill="#010101" d="M35.81,59.847c-3.436,2.664-7.173,4.898-10.413,7.811c-0.577,0.519,0.274,1.364,0.848,0.849
				c3.237-2.91,6.981-5.149,10.413-7.811C37.269,60.222,36.413,59.379,35.81,59.847L35.81,59.847z"/>
		</g>
	</g>
	<g>
		<g>
			<path fill="#010101" d="M26.109,68.971c6.381,0.496,12.917,0.114,19.308,0.067c12.132-0.089,24.264-0.242,36.395-0.393
				c18.076-0.225,36.443-1.421,54.51-0.542c0.773,0.038,0.771-1.163,0-1.2c-18.066-0.878-36.434,0.317-54.51,0.542
				c-12.132,0.152-24.263,0.301-36.395,0.394c-6.391,0.049-12.927,0.428-19.308-0.068C25.337,67.711,25.343,68.912,26.109,68.971
				L26.109,68.971z"/>
		</g>
	</g>
	<g>
		<g>
			<path fill="#010101" d="M142.085,59.464c-2.928,2.026-5.125,4.853-7.158,7.736c-0.446,0.634,0.595,1.232,1.037,0.605
				c1.907-2.705,3.978-5.402,6.727-7.305C143.322,60.063,142.723,59.022,142.085,59.464L142.085,59.464z"/>
		</g>
	</g>
	<g>
		<g>
			<path fill="#010101" d="M29.04,68.982c0.142,0.855,0.215,1.681,0.349,2.616c0.108,0.763,1.265,0.438,1.156-0.319
				c-0.124-0.873-0.204-1.746-0.349-2.616C30.07,67.901,28.914,68.225,29.04,68.982L29.04,68.982z"/>
		</g>
	</g>
	<g>
		<g>
			<path fill="#010101" d="M180.508,55.957c0.017,1.069,0.271,2.114,0.289,3.183c0.012,0.773,1.212,0.774,1.199,0
				c-0.017-1.069-0.271-2.114-0.289-3.183C181.695,55.184,180.495,55.183,180.508,55.957L180.508,55.957z"/>
		</g>
	</g>
	<g>
		<g>
			<path fill="#010101" d="M181.975,56.407c0.286-1.006,1.217-1.634,2.185-1.896c0.746-0.202,0.43-1.36-0.318-1.157
				c-1.374,0.372-2.622,1.325-3.022,2.733C180.605,56.833,181.764,57.149,181.975,56.407L181.975,56.407z"/>
		</g>
	</g>
	<g>
		<g>
			<path fill="#010101" d="M184.269,53.644c-0.001,1.209,0.008,2.417-0.268,3.601c-0.176,0.753,0.98,1.073,1.156,0.319
				c0.302-1.29,0.311-2.603,0.311-3.92C185.469,52.87,184.269,52.87,184.269,53.644L184.269,53.644z"/>
		</g>
	</g>
	<g>
		<g>
			<path fill="#010101" d="M181.82,60.142c0.784-0.783,1.564-1.592,2.482-2.22c0.635-0.434,0.035-1.475-0.605-1.036
				c-1.006,0.688-1.866,1.55-2.725,2.407C180.424,59.841,181.272,60.689,181.82,60.142L181.82,60.142z"/>
		</g>
	</g>
	<g>
		<g>
			<path fill="#010101" d="M181.922,56.247c0.245,6.672,5.814,13.023,12.797,9.77c3.218-1.499,4.716-5.512,4.9-8.805
				c0.208-3.727-2.052-10.512,3.003-11.668c1.886-0.431,1.086-3.323-0.797-2.893c-6.337,1.449-5.445,8.018-5.216,13.108
				c0.152,3.387-1.158,7.667-5.064,8.162c-4.309,0.546-6.493-4.137-6.623-7.674C184.851,54.318,181.851,54.312,181.922,56.247
				L181.922,56.247z"/>
		</g>
	</g>
	<g>
		<g>
			<path fill="#010101" d="M200.51,44.965c-0.069-1.24,0.235-2.242,1.478-2.69c1.154-0.416,2.512-0.282,3.708-0.18
				c0.771,0.065,0.765-1.135,0-1.2c-1.556-0.132-3.143-0.178-4.601,0.455c-1.438,0.623-1.865,2.181-1.784,3.616
				C199.354,45.734,200.554,45.738,200.51,44.965L200.51,44.965z"/>
		</g>
	</g>
	<g>
		<g>
			<path fill="#010101" d="M205.675,41.494c0,1.542,0,3.085,0,4.628c0,0.774,1.199,0.774,1.199,0c0-1.542,0-3.085,0-4.628
				C206.874,40.72,205.675,40.72,205.675,41.494L205.675,41.494z"/>
		</g>
	</g>
	<g>
		<g>
			<path fill="#010101" d="M199.607,45.773c2.147,1.312,4.746,1.192,7.115,0.639c0.754-0.176,0.435-1.333-0.318-1.157
				c-2.058,0.48-4.321,0.625-6.191-0.518C199.551,44.333,198.948,45.371,199.607,45.773L199.607,45.773z"/>
		</g>
	</g>
	<g>
		<g>
			<path fill="#010101" d="M208.567,35.709c0.019,5.359,0.237,10.721-0.558,16.04c-0.113,0.757,1.043,1.083,1.156,0.319
				c0.813-5.43,0.62-10.887,0.601-16.359C209.765,34.935,208.564,34.935,208.567,35.709L208.567,35.709z"/>
		</g>
	</g>
	<g>
		<g>
			<path fill="#010101" d="M208.877,35.398c-3.575,0.04-7.124,0.509-10.702,0.289c-0.773-0.047-0.769,1.153,0,1.2
				c3.578,0.22,7.127-0.249,10.702-0.289C209.65,36.589,209.651,35.389,208.877,35.398L208.877,35.398z"/>
		</g>
	</g>
	<g>
		<g>
			<path fill="#010101" d="M197.018,36.417c-0.749,5.068,0.176,10.116-0.021,15.202c-0.03,0.774,1.17,0.771,1.199,0
				c0.193-4.97-0.753-9.931-0.021-14.882C198.286,35.979,197.13,35.653,197.018,36.417L197.018,36.417z"/>
		</g>
	</g>
	<g>
		<g>
			<path fill="#010101" d="M198.175,52.508c3.568,0.055,7.028,0.694,10.572-0.021c0.759-0.153,0.437-1.31-0.318-1.157
				c-3.431,0.693-6.803,0.032-10.254-0.021C197.4,51.296,197.401,52.496,198.175,52.508L198.175,52.508z"/>
		</g>
	</g>
	<g>
		<g>
			<path fill="#010101" d="M152.759,71.418c-0.481-2.121-0.964-4.243-1.446-6.364c-0.171-0.754-1.328-0.434-1.156,0.319
				c0.481,2.121,0.964,4.243,1.446,6.364C151.773,72.492,152.931,72.172,152.759,71.418L152.759,71.418z"/>
		</g>
	</g>
	<g>
		<g>
			<path fill="#010101" d="M150.445,65.236c3.086-0.29,6.171-0.579,9.257-0.868c0.764-0.072,0.771-1.272,0-1.2
				c-3.086,0.29-6.171,0.579-9.257,0.868C149.682,64.107,149.675,65.308,150.445,65.236L150.445,65.236z"/>
		</g>
	</g>
	<g>
		<g>
			<path fill="#010101" d="M159.124,63.927c0.385,2.218,0.771,4.436,1.156,6.653c0.132,0.761,1.288,0.438,1.156-0.319
				c-0.385-2.218-0.771-4.436-1.156-6.653C160.148,62.847,158.992,63.17,159.124,63.927L159.124,63.927z"/>
		</g>
	</g>
	<g>
		<g>
			<path fill="#010101" d="M164.211,56.098c3.907-2.062,7.701-4.346,12.022-5.439c0.75-0.19,0.432-1.347-0.318-1.157
				c-4.422,1.119-8.311,3.45-12.31,5.561C162.921,55.423,163.527,56.459,164.211,56.098L164.211,56.098z"/>
		</g>
	</g>
	<g>
		<g>
			<path fill="#010101" d="M176.152,20.92c-0.63-2.056-1.26-4.111-1.89-6.167c-0.226-0.737-1.384-0.423-1.156,0.319
				c0.63,2.056,1.26,4.111,1.89,6.167C175.222,21.977,176.38,21.663,176.152,20.92L176.152,20.92z"/>
		</g>
	</g>
	<g>
		<g>
			<path fill="#010101" d="M173.879,14.507c-8.44-0.782-17.11-0.396-25.574-0.459c-16.087-0.122-32.175-0.156-48.263-0.173
				c-15.671-0.016-31.342-0.007-47.013,0.046c-7.111,0.024-14.882-0.8-21.948,0.214c-0.012,0.001-0.022,0.003-0.034,0.005
				c-0.764,0.11-0.438,1.266,0.318,1.157c6.632-0.952,14.745-0.152,21.664-0.176c15.671-0.055,31.342-0.061,47.013-0.046
				c16.088,0.016,32.176,0.055,48.263,0.173c8.464,0.062,17.134-0.322,25.574,0.459C174.649,15.779,174.643,14.578,173.879,14.507
				L173.879,14.507z"/>
		</g>
	</g>
	<g>
		<g>
			<path fill="#010101" d="M32.266,14.201c-10.331,4.398-20.663,8.796-30.994,13.194c-0.252,0.107-0.329,0.439-0.275,0.678
				c1,4.5,2,9,3,13.5c0.167,0.755,1.324,0.435,1.156-0.319c-0.904-4.072-1.81-8.145-2.715-12.217
				c-0.345-1.554-0.953-0.438,0.626-1.11c1.76-0.75,3.52-1.499,5.28-2.248c8.176-3.48,16.352-6.961,24.527-10.441
				C33.581,14.935,32.969,13.901,32.266,14.201L32.266,14.201z"/>
		</g>
	</g>
	<g>
		<g>
			<path fill="#010101" d="M148.998,45.004c9-7.944,18-15.889,27-23.833c0.582-0.513-0.271-1.358-0.848-0.849
				c-9,7.944-18,15.889-27,23.833C147.568,44.669,148.421,45.514,148.998,45.004L148.998,45.004z"/>
		</g>
	</g>
	<g>
		<g>
			<path fill="#010101" d="M173.72,14.724c-11.769,4.926-23.537,9.852-35.305,14.777c-0.703,0.294-0.395,1.456,0.318,1.157
				c11.769-4.926,23.537-9.852,35.305-14.777C174.741,15.587,174.433,14.425,173.72,14.724L173.72,14.724z"/>
		</g>
	</g>
	<g>
		<g>
			<path fill="#010101" d="M137.556,31.05c3.445,4.556,6.89,9.111,10.334,13.666c0.461,0.609,1.504,0.012,1.037-0.605
				c-3.445-4.556-6.89-9.111-10.334-13.666C138.132,29.835,137.089,30.432,137.556,31.05L137.556,31.05z"/>
		</g>
	</g>
	<g>
		<g>
			<path fill="#010101" d="M138.074,29.98c-21.593-0.308-43.185-0.647-64.776-1.012c-15.515-0.262-31.029-0.538-46.542-0.873
				c-8.463-0.183-17.078,0.008-25.515-0.782c-0.771-0.072-0.764,1.128,0,1.2c8.165,0.764,16.5,0.583,24.69,0.764
				c15.444,0.34,30.89,0.61,46.335,0.874c21.936,0.373,43.871,0.716,65.808,1.03C138.849,31.191,138.848,29.991,138.074,29.98
				L138.074,29.98z"/>
		</g>
	</g>
	<g>
		<g>
			<path fill="#010101" d="M5.377,43.098c6.505-4.486,13.009-8.972,19.514-13.458c0.633-0.436,0.033-1.477-0.605-1.036
				C17.78,33.09,11.276,37.576,4.771,42.062C4.139,42.498,4.738,43.539,5.377,43.098L5.377,43.098z"/>
		</g>
	</g>
	<g>
		<g>
			<path fill="#010101" d="M20.741,55.513c22.962-0.004,45.924-0.027,68.885-0.003c24.269,0.025,48.88-1.028,73.117,0.447
				c0.121,0.007,0.311,0.027,0.339,0.035c0.748,0.199,1.065-0.958,0.318-1.157c-1.796-0.478-4.047-0.191-5.879-0.222
				c-4.973-0.083-9.945-0.115-14.918-0.147c-15.285-0.1-30.571-0.125-45.857-0.147c-25.06-0.035-50.12-0.026-75.18-0.006
				c-0.275,0-0.55,0-0.825,0C19.968,54.313,19.968,55.513,20.741,55.513L20.741,55.513z"/>
		</g>
	</g>
	<g>
		<g>
			<path fill="#010101" d="M33.33,29.087c-1.778,6.889-3.557,13.777-5.334,20.666c-0.194,0.75,0.964,1.068,1.156,0.319
				c1.778-6.889,3.557-13.777,5.334-20.666C34.681,28.657,33.522,28.339,33.33,29.087L33.33,29.087z"/>
		</g>
	</g>
	<g>
		<g>
			<path fill="#010101" d="M28.741,51.013c14.597-0.523,29.226-1.286,43.833-1.333c0.773-0.002,0.774-1.203,0-1.2
				c-14.607,0.048-29.236,0.81-43.833,1.333C27.97,49.841,27.967,51.041,28.741,51.013L28.741,51.013z"/>
		</g>
	</g>
	<g>
		<g>
			<path fill="#010101" d="M73.319,49.407c2.111-6.278,4.223-12.556,6.333-18.834c0.248-0.736-0.911-1.049-1.156-0.319
				c-2.111,6.278-4.223,12.556-6.333,18.834C71.915,49.823,73.074,50.136,73.319,49.407L73.319,49.407z"/>
		</g>
	</g>
	<g>
		<g>
			<path fill="#010101" d="M129.908,84.313c-18.167-0.389-36.333-0.777-54.5-1.166c-0.774-0.017-0.772,1.184,0,1.2
				c18.167,0.389,36.333,0.777,54.5,1.166C130.683,85.53,130.681,84.33,129.908,84.313L129.908,84.313z"/>
		</g>
	</g>
	<g>
		<g>
			<path fill="#010101" d="M74.908,84.347c0.773,0,0.773-1.2,0-1.2S74.135,84.347,74.908,84.347L74.908,84.347z"/>
		</g>
	</g>
	<g>
		<path fill="#FFFFFF" d="M84.574,35.08l-9.666,48.667l55.166,0.666c0.167-3.5,4.5-47.333,4.5-47.333L84.574,35.08z"/>
		<g>
			<path fill="#010101" d="M83.996,34.92c-3.223,16.223-6.444,32.445-9.666,48.667c-0.076,0.382,0.167,0.755,0.578,0.76
				c18.389,0.222,36.777,0.444,55.166,0.666c0.341,0.004,0.582-0.277,0.6-0.6c0.882-15.795,2.944-31.591,4.5-47.333
				c0.033-0.335-0.298-0.588-0.6-0.6c-16.667-0.667-33.333-1.333-50-2c-0.774-0.031-0.771,1.169,0,1.2
				c12.149,0.486,24.299,0.972,36.448,1.458c4.509,0.18,9.018,0.36,13.526,0.541c-0.815-0.033-0.537-0.979-0.673,0.395
				c-0.09,0.914-0.18,1.827-0.27,2.741c-0.335,3.4-0.668,6.801-1.001,10.201c-0.791,8.104-1.579,16.21-2.339,24.318
				c-0.238,2.551-0.477,5.103-0.688,7.657c-0.111,1.339-0.229,0.813,0.401,0.821c-0.57-0.007-1.141-0.014-1.711-0.021
				c-14.063-0.17-28.127-0.34-42.19-0.51c-2.682-0.032-5.362-0.064-8.044-0.097c-0.768-0.009-1.535-0.018-2.303-0.027
				c-1.362-0.017-0.069-0.131-0.239,0.724c0.892-4.488,1.782-8.977,2.674-13.465c2.329-11.725,4.658-23.451,6.986-35.176
				C85.303,34.484,84.146,34.162,83.996,34.92z"/>
		</g>
	</g>
	<g>
		<g>
			<path fill="#010101" d="M48.104,14.713c1.732-0.594,3.375-1.384,5.011-2.202c0.692-0.346,0.084-1.381-0.605-1.036
				c-1.543,0.771-3.089,1.521-4.724,2.081C47.058,13.806,47.37,14.965,48.104,14.713L48.104,14.713z"/>
		</g>
	</g>
	<g>
		<g>
			<path fill="#010101" d="M102.062,39.667c-1.56,6.171-3.392,12.42-3.136,18.846c0.03,0.771,1.23,0.774,1.199,0
				c-0.251-6.32,1.56-12.459,3.093-18.527C103.408,39.236,102.251,38.918,102.062,39.667L102.062,39.667z"/>
		</g>
	</g>
	<g>
		<g>
			<path fill="#010101" d="M97.779,61.663c-1.904,5.849-2.979,13.269-2.94,19.429c0.005,0.773,1.204,0.774,1.199,0
				c-0.038-6.076,1.013-13.32,2.897-19.11C99.176,61.244,98.018,60.93,97.779,61.663L97.779,61.663z"/>
		</g>
	</g>
	<g>
		<g>
			<path fill="#010101" d="M95.43,81.892c4.381-0.765,8.868-0.749,13.271-0.173c0.766,0.1,0.756-1.101,0-1.2
				c-4.517-0.591-9.098-0.568-13.589,0.216C94.35,80.868,94.674,82.024,95.43,81.892L95.43,81.892z"/>
		</g>
	</g>
	<g>
		<g>
			<path fill="#010101" d="M98.552,62.422c2.586-0.026,5.169-0.148,7.755-0.174c1.302-0.013,2.594,0.071,3.89,0.174
				c3.105,0.248,1.379,1.884,0.578,3.526c-2.054,4.212-2.477,9.079-3.457,13.621c-0.163,0.755,0.993,1.076,1.156,0.319
				c0.651-3.016,1.214-6.049,1.857-9.067c0.635-2.978,2.468-5.468,3.008-8.451c0.055-0.298-0.076-0.677-0.419-0.738
				c-4.774-0.854-9.549-0.459-14.368-0.411C97.778,61.23,97.777,62.43,98.552,62.422L98.552,62.422z"/>
		</g>
	</g>
	<g>
		<g>
			<path fill="#010101" d="M114.497,62.406c0.042,3.741,0.119,7.318-1.008,10.935c-0.878,2.822-1.986,5.332-1.912,8.334
				c0.019,0.772,1.219,0.774,1.199,0c-0.079-3.257,1.285-6.137,2.234-9.184c1.004-3.225,0.724-6.765,0.686-10.086
				C115.688,61.633,114.488,61.632,114.497,62.406L114.497,62.406z"/>
		</g>
	</g>
	<g>
		<g>
			<path fill="#010101" d="M115.292,63.59c2.705,0.041,5.368-0.239,8.058-0.491c1.345-0.126,2.681-0.164,4.029-0.167
				c1.284-0.002,1.054,2.597,1.069,3.262c0.116,4.808-0.851,9.764-2.251,14.347c-0.228,0.742,0.931,1.057,1.156,0.319
				c1.798-5.879,2.937-12.49,1.946-18.615c-0.043-0.27-0.332-0.427-0.578-0.44c-4.499-0.245-8.933,0.652-13.43,0.584
				C114.518,62.378,114.519,63.579,115.292,63.59L115.292,63.59z"/>
		</g>
	</g>
	<g>
		<g>
			<path fill="#010101" d="M112.566,82.276c4.694,0.025,9.372,0.285,13.979-0.8c0.753-0.177,0.434-1.334-0.318-1.157
				c-4.503,1.06-9.076,0.782-13.66,0.757C111.792,81.072,111.793,82.271,112.566,82.276L112.566,82.276z"/>
		</g>
	</g>
	<g>
		<g>
			<path fill="#010101" d="M98.977,59.481c4.432,0.747,8.93,0.452,13.396,0.8c0.772,0.06,0.767-1.141,0-1.2
				c-4.355-0.339-8.755-0.028-13.077-0.757C98.538,58.196,98.215,59.353,98.977,59.481L98.977,59.481z"/>
		</g>
	</g>
	<g>
		<g>
			<path fill="#010101" d="M103.029,40.039c4.034,0.064,8.027,0.89,12.067,0.584c0.767-0.058,0.772-1.258,0-1.2
				c-4.04,0.306-8.033-0.519-12.067-0.584C102.255,38.826,102.256,40.026,103.029,40.039L103.029,40.039z"/>
		</g>
	</g>
	<g>
		<g>
			<path fill="#010101" d="M114.324,39.863c-1.111,6.384-1.256,12.881-2.336,19.27c-0.128,0.757,1.028,1.081,1.156,0.319
				c1.081-6.389,1.226-12.886,2.336-19.27C115.612,39.425,114.456,39.102,114.324,39.863L114.324,39.863z"/>
		</g>
	</g>
	<g>
		<g>
			<path fill="#010101" d="M116.833,40.411c-0.115,6.342-1.634,12.54-1.752,18.881c-0.015,0.774,1.186,0.773,1.199,0
				c0.119-6.34,1.637-12.538,1.752-18.881C118.047,39.637,116.847,39.638,116.833,40.411L116.833,40.411z"/>
		</g>
	</g>
	<g>
		<g>
			<path fill="#010101" d="M117.627,41.401c4.078-0.403,8.162-0.744,12.263-0.584c0.774,0.03,0.771-1.17,0-1.2
				c-4.101-0.16-8.185,0.181-12.263,0.584C116.864,40.276,116.856,41.477,117.627,41.401L117.627,41.401z"/>
		</g>
	</g>
	<g>
		<g>
			<path fill="#010101" d="M129.68,40.411c-0.42,6.05-1.154,12.069-1.752,18.103c-0.077,0.77,1.124,0.763,1.199,0
				c0.599-6.034,1.333-12.053,1.752-18.103C130.933,39.638,129.732,39.644,129.68,40.411L129.68,40.411z"/>
		</g>
	</g>
	<g>
		<g>
			<path fill="#010101" d="M115.133,60.259c4.273,1.019,8.327-1.338,12.616-0.951c0.771,0.069,0.765-1.131,0-1.2
				c-4.16-0.375-8.191,1.974-12.298,0.994C114.699,58.923,114.38,60.08,115.133,60.259L115.133,60.259z"/>
		</g>
	</g>
	<g>
		<g>
			<path fill="#010101" d="M85.712,38.695c-1.089,6.654-3.034,13.127-3.915,19.819c-0.102,0.766,1.101,0.756,1.199,0
				c0.867-6.583,2.802-12.953,3.872-19.5C86.992,38.257,85.836,37.933,85.712,38.695L85.712,38.695z"/>
		</g>
	</g>
	<g>
		<g>
			<path fill="#010101" d="M82.396,59.502c2.374,0.028,4.653,0.308,7.008,0.584c2.306,0.271,4.513,0.01,6.813-0.194
				c0.765-0.068,0.771-1.269,0-1.2c-2.622,0.233-5.028,0.467-7.654,0.061c-2.041-0.315-4.104-0.426-6.166-0.451
				C81.622,58.293,81.623,59.493,82.396,59.502L82.396,59.502z"/>
		</g>
	</g>
	<g>
		<g>
			<path fill="#010101" d="M86.325,39.238c4.242,1.158,8.647,1.006,13.006,0.995c0.773-0.002,0.773-1.202,0-1.2
				c-4.25,0.011-8.549,0.177-12.688-0.952C85.896,37.876,85.579,39.034,86.325,39.238L86.325,39.238z"/>
		</g>
	</g>
	<g>
		<g>
			<path fill="#010101" d="M99.202,39.33c-3.366,5.916-3.915,13.098-4.169,19.768c-0.03,0.774,1.17,0.771,1.199,0
				c0.247-6.458,0.745-13.431,4.005-19.162C100.621,39.262,99.584,38.658,99.202,39.33L99.202,39.33z"/>
		</g>
	</g>
	<g>
		<g>
			<path fill="#010101" d="M81.408,62.212c-0.15,6.281-2.069,12.178-3.872,18.136c-0.226,0.743,0.934,1.058,1.156,0.319
				c1.835-6.062,3.763-12.072,3.915-18.456C82.626,61.438,81.427,61.439,81.408,62.212L81.408,62.212z"/>
		</g>
	</g>
	<g>
		<g>
			<path fill="#010101" d="M77.812,81.416c1.545,0.921,4.848,0.413,6.555,0.457c2.444,0.064,5.311,0.482,7.728-0.008
				c0.759-0.154,0.437-1.31-0.318-1.157c-1.948,0.395-4.314,0.029-6.287-0.009c-1.43-0.028-2.859-0.071-4.289-0.129
				c-0.672-0.027-2.187,0.165-2.782-0.19C77.751,79.982,77.147,81.02,77.812,81.416L77.812,81.416z"/>
		</g>
	</g>
	<g>
		<g>
			<path fill="#010101" d="M92.145,81.092c-0.021-6.29,2.347-12.263,2.92-18.491c0.071-0.771-1.129-0.764-1.199,0
				c-0.575,6.232-2.94,12.191-2.92,18.491C90.947,81.866,92.147,81.866,92.145,81.092L92.145,81.092z"/>
		</g>
	</g>
	<g>
		<g>
			<path fill="#010101" d="M82.202,63.006c4.424-0.062,8.91-0.909,13.271,0.173c0.751,0.187,1.069-0.971,0.318-1.157
				c-4.476-1.111-9.049-0.279-13.59-0.216C81.429,61.817,81.428,63.017,82.202,63.006L82.202,63.006z"/>
		</g>
	</g>
	<g>
		<path fill="#F79421" d="M155.46,6.213c-1.146,2.861-5.344,3.451-8.372,3.451c5.299,1.514,7.132,4.033,6.056,11.354
			c2.095-6.17,6.17-10.022,10.598-9.841c-7.838-1.865-5.299-6.813-5.299-10.598c-0.547,1.602-0.813,2.531-2.097,4.392"/>
		<g>
			<path fill="#010101" d="M154.942,5.91c-1.561,2.865-4.973,3.094-7.854,3.154c-0.685,0.014-0.808,0.978-0.159,1.179
				c5.552,1.718,6.297,5.464,5.615,10.776c-0.093,0.716,0.96,0.746,1.178,0.16c1.684-4.524,4.664-9.274,10.02-9.4
				c0.675-0.016,0.82-0.994,0.159-1.179c-6.02-1.682-5.02-5.149-4.858-10.019c0.023-0.706-0.967-0.778-1.178-0.16
				c-0.527,1.543-1.153,2.884-2.037,4.249c-0.422,0.651,0.618,1.252,1.037,0.605c0.95-1.468,1.596-2.89,2.156-4.535
				c-0.393-0.053-0.785-0.106-1.178-0.16c-0.191,5.763-0.808,9.348,5.739,11.176c0.053-0.393,0.106-0.786,0.159-1.179
				c-5.935,0.14-9.288,5.208-11.176,10.281c0.393,0.053,0.785,0.106,1.178,0.16c0.776-6.044-0.425-10.054-6.496-11.933
				c-0.053,0.393-0.106,0.786-0.159,1.179c3.358-0.069,7.135-0.525,8.89-3.749C156.349,5.836,155.312,5.23,154.942,5.91
				L154.942,5.91z"/>
		</g>
	</g>
	<g>
		<g>
			<path fill="#010101" d="M163.987,54.549c4.293-1.554,8.586-3.108,12.878-4.662c0.242-0.087,0.458-0.299,0.44-0.579
				c-0.544-8.854-1.088-17.708-1.632-26.562c-0.042-0.693-0.943-0.795-1.178-0.16c-3.944,10.667-7.889,21.333-11.833,32
				c-0.27,0.728,0.891,1.039,1.156,0.319c3.944-10.667,7.889-21.333,11.833-32c-0.393-0.053-0.785-0.106-1.178-0.16
				c0.459,7.47,0.918,14.941,1.376,22.411c0.077,1.242,0.153,2.483,0.229,3.725c0.049,0.796,0.662-0.224,0.139-0.034
				c-0.742,0.269-1.483,0.537-2.226,0.806c-3.441,1.246-6.883,2.492-10.324,3.738C162.947,53.653,163.258,54.813,163.987,54.549
				L163.987,54.549z"/>
		</g>
	</g>
</g>
</svg>
