<?xml version="1.0" encoding="utf-8"?>
<!-- Generator: Adobe Illustrator 16.0.0, SVG Export Plug-In . SVG Version: 6.00 Build 0)  -->
<!DOCTYPE svg PUBLIC "-//W3C//DTD SVG 1.1//EN" "http://www.w3.org/Graphics/SVG/1.1/DTD/svg11.dtd">
<svg version="1.1" id="Layer_1" xmlns="http://www.w3.org/2000/svg" xmlns:xlink="http://www.w3.org/1999/xlink" x="0px" y="0px"
	 width="146.572px" height="99.421px" viewBox="0 0 146.572 99.421" enable-background="new 0 0 146.572 99.421"
	 xml:space="preserve">
<g>
	<g>
		<g>
			<path fill="#010101" d="M30.265,0.522C17.248,19.092,16.551,43.687,0.359,60.4c-0.539,0.556,0.309,1.405,0.848,0.849
				C17.496,44.436,18.22,19.791,31.302,1.127C31.747,0.492,30.706-0.106,30.265,0.522L30.265,0.522z"/>
		</g>
	</g>
	<g>
		<g>
			<path fill="#010101" d="M30.945,1.201c40.982,2.301,76.395,24.69,114.888,36.331c0.742,0.225,1.058-0.934,0.318-1.157
				C107.543,24.7,72.051,2.309,30.945,0.001C30.172-0.042,30.176,1.158,30.945,1.201L30.945,1.201z"/>
		</g>
	</g>
	<g>
		<g>
			<path fill="#010101" d="M0.423,61.285C38.177,72.339,77.621,80.407,112.48,99.343c0.68,0.37,1.286-0.667,0.605-1.036
				C78.132,79.319,38.598,71.212,0.741,60.128C-0.003,59.91-0.318,61.068,0.423,61.285L0.423,61.285z"/>
		</g>
	</g>
	<g>
		<g>
			<path fill="#010101" d="M145.265,36.522c-11.148,20.459-19.342,42.5-32.426,61.887c-0.434,0.644,0.606,1.243,1.037,0.605
				c13.083-19.387,21.276-41.428,32.426-61.887C146.672,36.448,145.636,35.842,145.265,36.522L145.265,36.522z"/>
		</g>
	</g>
	<g>
		<path fill="#010101" d="M35.355,13.415l0.502,0.166c0.125,0.042,0.167,0.16,0.101,0.359l-0.526,1.586
			c-0.024,0.074-0.003,0.115,0.06,0.137l0.595,0.197c0.136,0.045,0.178,0.163,0.119,0.341l-0.17,0.512
			c-0.063,0.188-0.164,0.247-0.299,0.202l-0.533-0.177c0.057,0.807,0.177,1.635,0.373,2.477c0.045,0.177-0.011,0.31-0.16,0.41
			l-0.479,0.188c-0.129,0.039-0.233-0.031-0.304-0.204c-0.087-0.331-0.156-0.679-0.22-1.013l-1.4,4.219
			c-0.063,0.188-0.166,0.258-0.292,0.216l-0.501-0.166c-0.136-0.045-0.178-0.164-0.115-0.351l1.182-3.562
			c-0.427,0.589-0.893,1.117-1.362,1.588c-0.121,0.088-0.229,0.099-0.33,0.019l-0.331-0.4c-0.094-0.135-0.08-0.281,0.041-0.438
			c0.876-0.892,1.709-2.041,2.521-3.441l-1.075-0.356c-0.146-0.049-0.191-0.157-0.13-0.345l0.17-0.512
			c0.06-0.178,0.163-0.247,0.31-0.198l1.306,0.433c0.052,0.018,0.094-0.003,0.118-0.076l0.526-1.587
			C35.115,13.44,35.22,13.37,35.355,13.415z M39.877,14.915l0.49,0.163c0.137,0.045,0.178,0.164,0.112,0.362l-0.295,0.887
			c-0.021,0.063,0.001,0.105,0.073,0.129l1.775,0.59c0.146,0.048,0.188,0.166,0.126,0.354l-0.17,0.511
			c-0.056,0.167-0.16,0.237-0.306,0.189l-1.775-0.59c-0.073-0.023-0.118,0.008-0.143,0.08l-0.464,1.399
			c-0.024,0.073-0.004,0.115,0.069,0.139l2.297,0.763c0.146,0.049,0.188,0.166,0.129,0.344l-0.162,0.49
			c-0.063,0.189-0.167,0.259-0.313,0.21l-2.172-0.721c0.2,1.492,0.619,2.813,1.257,3.965c0.088,0.155,0.067,0.288-0.072,0.393
			L39.9,24.833c-0.146,0.057-0.264,0.028-0.354-0.083c-0.513-0.9-0.896-1.908-1.148-3.036l-0.863,2.602
			c-0.063,0.187-0.167,0.257-0.303,0.212l-0.49-0.163c-0.136-0.045-0.178-0.164-0.115-0.351l0.938-2.83
			c-0.924,0.83-1.883,1.484-2.895,1.948c-0.14,0.035-0.251-0.013-0.335-0.146l-0.202-0.473c-0.039-0.164,0.024-0.283,0.188-0.355
			c1.189-0.544,2.294-1.36,3.326-2.443l-1.922-0.638c-0.125-0.041-0.167-0.159-0.104-0.348l0.163-0.49
			c0.059-0.178,0.163-0.247,0.288-0.206l2.203,0.731c0.053,0.018,0.095-0.004,0.118-0.077l0.465-1.399
			c0.024-0.072,0.007-0.124-0.046-0.142l-1.231-0.409c-0.258,0.32-0.535,0.634-0.838,0.95c-0.139,0.105-0.236,0.119-0.34,0.049
			l-0.342-0.333c-0.104-0.139-0.105-0.278,0.006-0.438c0.754-0.77,1.348-1.615,1.785-2.514c0.118-0.146,0.24-0.163,0.368-0.063
			l0.401,0.225c0.114,0.108,0.118,0.236,0.035,0.383c-0.136,0.269-0.278,0.522-0.435,0.783l0.94,0.313
			c0.052,0.018,0.094-0.004,0.114-0.067l0.295-0.887C39.637,14.94,39.741,14.87,39.877,14.915z"/>
		<path fill="#010101" d="M43.022,21.5l0.19-0.574c0.056-0.167,0.16-0.236,0.316-0.185l3.884,1.289
			c0.157,0.052,0.21,0.174,0.154,0.34l-0.19,0.574c-0.056,0.168-0.167,0.224-0.324,0.172l-1.242-0.412
			c-0.053-0.018-0.094,0.002-0.115,0.065l-0.752,2.267l1.469,0.221c0.182,0.047,0.24,0.148,0.213,0.338l-0.11,0.611
			c-0.045,0.17-0.174,0.244-0.352,0.22l-4.597-0.749c-0.143-0.024-0.201-0.125-0.17-0.288l0.109-0.612
			c0.042-0.195,0.146-0.266,0.313-0.244l2.011,0.331l0.812-2.443c0.021-0.063,0-0.104-0.063-0.125l-1.409-0.468
			C43.013,21.775,42.967,21.667,43.022,21.5z M43.103,18.884l0.19-0.575c0.059-0.177,0.16-0.237,0.316-0.185l5.231,1.735
			l0.146-0.473l0.332-1.003c0.066-0.198,0.17-0.268,0.337-0.213l0.647,0.215c0.167,0.056,0.23,0.181,0.164,0.379l-0.45,1.358
			c-0.024,0.072-0.007,0.125,0.046,0.142l1.013,0.337l-0.061-1.006c-0.004-0.164,0.065-0.268,0.226-0.296l0.584-0.119
			c0.178-0.01,0.269,0.065,0.283,0.232l0.105,1.565l0.471,0.156c0.167,0.056,0.232,0.171,0.174,0.348l-0.19,0.575
			c-0.059,0.177-0.185,0.24-0.352,0.185l-2.662-0.884c-0.125,0.55-0.218,1.04-0.294,1.479c-0.106,0.706-0.147,1.353-0.13,1.927
			c0.022,0.598,0.124,1.305,0.327,2.126c0.041,0.152,0.125,0.215,0.254,0.176l0.64-0.425c0.136-0.06,0.261-0.018,0.386,0.128
			L51,27.149c0.06,0.137,0.032,0.289-0.086,0.436c-0.115,0.102-0.31,0.233-0.563,0.403c-0.268,0.178-0.49,0.291-0.691,0.374
			c-0.233,0.107-0.47,0.122-0.714,0.054c-0.146-0.084-0.258-0.202-0.313-0.349c-0.38-0.949-0.587-1.898-0.602-2.865
			c-0.04-0.964,0.025-1.858,0.156-2.672c0.079-0.449,0.193-0.968,0.339-1.545l-5.283-1.753
			C43.085,19.179,43.044,19.061,43.103,18.884z"/>
		<path fill="#010101" d="M53.898,25.364l7.162,2.377c0.157,0.052,0.217,0.152,0.164,0.31l-0.17,0.512
			c-0.052,0.156-0.16,0.202-0.316,0.149l-3.947-1.31l-1.723,1.597l3.42,0.59l-0.122-0.574c0.014-0.111,0.097-0.188,0.278-0.244
			l0.459-0.126c0.227,0.017,0.369,0.11,0.459,0.257l0.47,2.463c0.046,0.212-0.065,0.302-0.351,0.323l-0.379,0.096
			c-0.199,0.003-0.327-0.098-0.362-0.306l-0.154-0.758l-5.756-1.03c-0.22-0.038-0.327-0.132-0.32-0.291l0.069-0.522
			c-0.008-0.152,0.121-0.227,0.361-0.217l0.561,0.093l1.869-1.755l-1.994-0.662c-0.146-0.048-0.206-0.149-0.154-0.306l0.17-0.512
			C53.644,25.36,53.752,25.315,53.898,25.364z M53.059,24.471l-0.077-0.502c0.01-0.274,0.097-0.396,0.277-0.418
			c1.61-0.241,3.419-1.009,5.413-2.341c0.182-0.056,0.394-0.032,0.645,0.051c0.25,0.083,0.421,0.197,0.508,0.39
			c0.588,2.003,1.557,3.658,2.888,4.957c0.149,0.143,0.146,0.291-0.041,0.473l-0.39,0.439c-0.125,0.063-0.261,0.052-0.396-0.027
			c-0.578-0.633-1.063-1.233-1.407-1.835l-0.163,0.49c-0.056,0.168-0.16,0.202-0.327,0.146l-4.364-1.448
			c-0.156-0.052-0.209-0.138-0.153-0.306l0.155-0.47c-0.619,0.259-1.366,0.45-2.236,0.626
			C53.222,24.676,53.107,24.603,53.059,24.471z M58.824,22.536c-0.115-0.038-0.205-0.011-0.292,0.076
			c-0.873,0.569-1.642,0.998-2.326,1.351l3.864,1.282c-0.367-0.713-0.709-1.533-1.037-2.501
			C59.008,22.643,58.938,22.574,58.824,22.536z"/>
		<path fill="#010101" d="M63.696,32.789l1.077-3.248c-0.451,0.244-0.918,0.461-1.38,0.632c-0.149,0.031-0.288-0.003-0.394-0.107
			l-0.223-0.619c0.023-0.178,0.107-0.288,0.242-0.349c0.869-0.348,1.613-0.704,2.229-1.057c0.605-0.355,1.213-0.791,1.811-1.3
			c0.081-0.066,0.066-0.129-0.027-0.195l-2.276-0.756c-0.219-0.072-0.296-0.225-0.224-0.443l0.146-0.438
			c0.073-0.22,0.227-0.297,0.445-0.225l1.034,0.343c0.052,0.018,0.094-0.003,0.114-0.065l0.288-0.866
			c0.065-0.198,0.191-0.262,0.379-0.199l0.428,0.142c0.198,0.065,0.262,0.192,0.195,0.39l-0.287,0.867
			c-0.021,0.063,0,0.104,0.053,0.121l0.887,0.295c0.171,0.08,0.307,0.368,0.391,0.849c0.028,0.159-0.021,0.306-0.131,0.465
			c-0.463,0.451-0.938,0.838-1.429,1.197c0.137,0.496,0.339,1.039,0.607,1.661c0.028,0.16-0.017,0.296-0.135,0.406l-0.462,0.241
			c-0.164,0.039-0.286-0.013-0.381-0.148c-0.205-0.427-0.404-0.911-0.572-1.454l-1.393,4.198c-0.069,0.208-0.212,0.289-0.432,0.216
			l-0.375-0.125C63.693,33.146,63.627,32.997,63.696,32.789z M65.771,33.383l0.184-0.553c0.041-0.16,0.146-0.229,0.299-0.202
			l2.192,0.728c0.053,0.018,0.094-0.004,0.119-0.076l1.271-3.832c0.021-0.063,0-0.105-0.053-0.123l-1.796-0.596
			c-0.136-0.045-0.157-0.19-0.077-0.431l0.149-0.449c0.069-0.209,0.167-0.293,0.306-0.258l1.796,0.597
			c0.052,0.017,0.094-0.005,0.118-0.077l0.814-2.454c0.063-0.188,0.159-0.271,0.326-0.251l0.721,0.239
			c0.136,0.08,0.174,0.208,0.112,0.396l-0.814,2.454c-0.024,0.072-0.004,0.114,0.06,0.136l1.816,0.603
			c0.146,0.049,0.185,0.178,0.112,0.396l-0.146,0.439c-0.084,0.25-0.198,0.351-0.345,0.302l-1.816-0.603
			c-0.063-0.021-0.104,0-0.126,0.063l-1.271,3.832c-0.023,0.072-0.003,0.114,0.06,0.136l1.849,0.613
			c0.132,0.055,0.174,0.173,0.118,0.341l-0.18,0.542c-0.069,0.21-0.177,0.289-0.313,0.244l-5.377-1.785
			C65.754,33.714,65.715,33.586,65.771,33.383z"/>
		<path fill="#010101" d="M76.37,28.717c1.186-0.603,2.421-0.691,3.684-0.272c1.253,0.416,2.19,1.226,2.801,2.425
			c0.597,1.206,0.688,2.431,0.272,3.684c-0.419,1.264-1.229,2.201-2.424,2.801c-1.207,0.597-2.441,0.685-3.695,0.269
			c-1.263-0.419-2.2-1.228-2.789-2.421c-0.6-1.195-0.689-2.431-0.27-3.694C74.365,30.254,75.171,29.328,76.37,28.717z
			 M75.331,34.644c0.437,0.886,1.126,1.498,2.065,1.81c0.93,0.309,1.848,0.23,2.748-0.212c0.891-0.446,1.491-1.141,1.803-2.08
			c0.309-0.929,0.241-1.844-0.205-2.734c-0.453-0.903-1.146-1.504-2.076-1.813c-0.939-0.312-1.854-0.245-2.737,0.215
			c-0.9,0.443-1.502,1.138-1.81,2.066C74.807,32.835,74.874,33.75,75.331,34.644z"/>
		<path fill="#010101" d="M86.811,32.182c1.186-0.604,2.42-0.692,3.684-0.272c1.253,0.416,2.19,1.226,2.801,2.424
			c0.597,1.206,0.688,2.432,0.272,3.685c-0.419,1.264-1.229,2.2-2.425,2.8c-1.206,0.597-2.441,0.686-3.694,0.27
			c-1.263-0.42-2.2-1.229-2.79-2.421c-0.6-1.195-0.688-2.431-0.269-3.694C84.805,33.719,85.611,32.792,86.811,32.182z
			 M85.771,38.109c0.436,0.886,1.125,1.497,2.064,1.81c0.93,0.309,1.849,0.23,2.749-0.213c0.89-0.445,1.491-1.14,1.803-2.079
			c0.309-0.929,0.241-1.845-0.205-2.735c-0.454-0.902-1.147-1.503-2.077-1.812c-0.939-0.313-1.854-0.245-2.736,0.215
			c-0.9,0.443-1.502,1.138-1.811,2.065C85.247,36.299,85.314,37.215,85.771,38.109z"/>
		<path fill="#010101" d="M95.503,42.555c-0.129,0.143-0.285,0.16-0.435,0.053l-0.495-0.361c-0.125-0.111-0.153-0.236-0.046-0.387
			l1.914-2.621c0.135-0.129,0.281-0.15,0.424-0.057l0.471,0.329c0.153,0.098,0.188,0.237,0.084,0.412L95.503,42.555z M96.598,36.044
			l3.121,1.036c0.032,0.01,0.032,0.01,0.039-0.011l0.461-1.39c0.062-0.187,0.201-0.257,0.379-0.198l0.553,0.184
			c0.167,0.056,0.227,0.192,0.164,0.379l-0.461,1.39c-0.007,0.021-0.007,0.021,0.025,0.031L104,38.5
			c0.167,0.056,0.23,0.182,0.175,0.349l-0.177,0.531c-0.049,0.146-0.174,0.209-0.341,0.153l-3.122-1.035
			c-0.031-0.011-0.031-0.011-0.042,0.021l-1.968,5.932c-0.063,0.188-0.191,0.262-0.358,0.206l-0.554-0.184
			c-0.178-0.059-0.246-0.199-0.185-0.387l1.969-5.932c0.011-0.031,0.011-0.031-0.021-0.041l-3.122-1.036
			c-0.167-0.056-0.229-0.181-0.182-0.327l0.177-0.531C96.305,36.052,96.43,35.989,96.598,36.044z M101.314,40.832l0.595,0.024
			c0.17,0.01,0.285,0.118,0.306,0.299l-0.033,3.245c-0.003,0.185-0.101,0.269-0.257,0.286l-0.623-0.01
			c-0.185-0.003-0.3-0.11-0.317-0.302l0.048-3.253C101.039,40.926,101.144,40.822,101.314,40.832z"/>
		<path fill="#010101" d="M114.141,44.614l-0.177,0.533c-0.069,0.208-0.211,0.288-0.431,0.216l-7.748-2.571
			c-0.219-0.073-0.285-0.223-0.216-0.431l0.177-0.533c0.072-0.219,0.212-0.289,0.432-0.216l7.747,2.571
			C114.145,44.255,114.214,44.395,114.141,44.614z"/>
		<path fill="#010101" d="M115.589,48.838l0.463,0.072l4.152-6.191c0.091-0.167,0.229-0.202,0.407-0.108l0.533,0.315
			c0.146,0.119,0.17,0.255,0.087,0.4l-3.868,5.823l4.538,0.786l0.313-2.829c0.03-0.197,0.152-0.285,0.33-0.261l0.629,0.058
			c0.178,0.024,0.258,0.133,0.248,0.337l-0.561,5.077c-0.027,0.188-0.139,0.278-0.316,0.255l-0.619-0.056
			c-0.198-0.03-0.299-0.146-0.278-0.348l0.13-1.128l-6.42-1.086c-0.16-0.042-0.24-0.149-0.191-0.331l0.076-0.543
			C115.293,48.89,115.408,48.79,115.589,48.838z"/>
	</g>
	<g>
		<g>
			<path fill="#010101" d="M71.101,72.596c13.703,4.196,26.979,9.53,39.099,17.33c1.632,1.05,3.135-1.548,1.514-2.591
				c-12.358-7.954-25.846-13.354-39.815-17.631C70.043,69.136,69.256,72.032,71.101,72.596L71.101,72.596z"/>
		</g>
	</g>
	<g>
		<g>
			<path fill="#010101" d="M74.238,65.203c5.483,4.012,12.371,4.54,18.498,7.13c6.84,2.891,14.739,5.336,20.959,9.353
				c1.63,1.053,3.133-1.545,1.514-2.591c-6.116-3.949-13.376-5.275-19.729-8.741c-6.278-3.426-13.859-3.447-19.729-7.741
				C74.188,61.468,72.694,64.073,74.238,65.203L74.238,65.203z"/>
		</g>
	</g>
	<g>
		<g>
			<path fill="#010101" d="M78.343,59.111c6.688,1.473,12.437,5.091,18.721,7.632c3.318,1.342,6.761,1.926,10.247,2.662
				c3.705,0.782,6.725,3.346,10.239,4.69c1.81,0.692,2.585-2.209,0.797-2.893c-2.979-1.14-5.542-3.037-8.491-4.245
				c-3.247-1.332-7.117-1.439-10.488-2.497c-7.006-2.2-12.95-6.639-20.228-8.241C77.255,55.803,76.453,58.695,78.343,59.111
				L78.343,59.111z"/>
		</g>
	</g>
</g>
</svg>
