<?xml version="1.0" encoding="utf-8"?>
<!-- Generator: Adobe Illustrator 16.0.0, SVG Export Plug-In . SVG Version: 6.00 Build 0)  -->
<!DOCTYPE svg PUBLIC "-//W3C//DTD SVG 1.1//EN" "http://www.w3.org/Graphics/SVG/1.1/DTD/svg11.dtd">
<svg version="1.1" id="Layer_1" xmlns="http://www.w3.org/2000/svg" xmlns:xlink="http://www.w3.org/1999/xlink" x="0px" y="0px"
	 width="169.334px" height="128.833px" viewBox="0 0 169.334 128.833" enable-background="new 0 0 169.334 128.833"
	 xml:space="preserve">
<g>
	<rect x="7.667" y="9.667" fill="#ABC787" width="148" height="102"/>
	<g>
		<g>
			<path fill="#333333" d="M7.179,8.292C6.828,26.486,9.487,44.58,8.952,62.777C8.463,79.369,7.841,95.979,8.281,112.58
				c0.021,0.772,1.22,0.774,1.199,0c-0.426-16.083,0.144-32.179,0.625-48.255c0.562-18.721-2.087-37.321-1.728-56.034
				C8.394,7.517,7.193,7.519,7.179,8.292L7.179,8.292z"/>
		</g>
	</g>
	<g>
		<g>
			<path fill="#333333" d="M8.213,113.71c25.297,0.005,50.593,0.208,75.89,0.193c25.412-0.015,50.815-0.828,76.223-0.828
				c0.773,0,0.773-1.2,0-1.2c-24.766,0-49.529,0.787-74.3,0.826c-25.938,0.041-51.875-0.186-77.813-0.191
				C7.439,112.51,7.439,113.71,8.213,113.71L8.213,113.71z"/>
		</g>
	</g>
	<g>
		<g>
			<path fill="#333333" d="M159.606,8.177c-2.651,34.497-1.254,69.1-0.461,103.64c0.018,0.772,1.218,0.774,1.199,0
				c-0.792-34.541-2.189-69.143,0.461-103.64C160.865,7.405,159.665,7.411,159.606,8.177L159.606,8.177z"/>
		</g>
	</g>
	<g>
		<g>
			<path fill="#333333" d="M7.792,8.967c50.731,3.856,101.658-0.271,152.449-0.271c0.773,0,0.773-1.2,0-1.2
				c-50.791,0-101.718,4.127-152.449,0.271C7.02,7.708,7.025,8.908,7.792,8.967L7.792,8.967z"/>
		</g>
	</g>
	<g>
		<g>
			<path fill="#333333" d="M1.465,4.051c0.401,10.966-0.092,21.934,0.364,32.901C2.32,48.748,3.132,60.615,2.603,72.421
				c-0.421,9.356-1.188,18.58-1.065,27.957c0.11,8.431,0.322,16.869,0.143,25.301c-0.017,0.774,1.183,0.772,1.199,0
				c0.171-7.984-0.013-15.976-0.124-23.96c-0.137-9.826,0.484-19.493,1.047-29.297c0.642-11.16-0.213-22.463-0.693-33.617
				C2.609,27.218,3.089,15.635,2.664,4.051C2.636,3.279,1.437,3.276,1.465,4.051L1.465,4.051z"/>
		</g>
	</g>
	<g>
		<g>
			<path fill="#333333" d="M2.064,4.436c13.469,0.018,26.934,0.375,40.401,0.428c13.92,0.053,27.803-1.116,41.718-1.279
				c6.435-0.076,12.874-0.008,19.31-0.008c6.98,0,13.899-1.193,20.854-1.64c13.935-0.897,27.947,0.925,41.895,0.781
				c0.773-0.008,0.774-1.208,0-1.2c-13.334,0.138-26.633-1.2-39.969-0.86c-6.977,0.178-13.882,1.388-20.854,1.689
				c-7.056,0.306-14.173,0.009-21.235,0.038C70.912,2.438,57.672,3.612,44.398,3.666C30.286,3.724,16.177,3.255,2.064,3.236
				C1.291,3.235,1.291,4.435,2.064,4.436L2.064,4.436z"/>
		</g>
	</g>
	<g>
		<g>
			<path fill="#333333" d="M165.663,2.492c1.84,11.333,0.483,22.817,0.408,34.223c-0.078,11.664,0.184,23.331,0.213,34.995
				c0.045,18.036,1.177,36.623-0.428,54.615c-0.069,0.771,1.132,0.765,1.199,0c1.606-17.999,0.444-36.572,0.429-54.615
				c-0.011-12.256-0.283-24.513-0.202-36.77c0.073-10.958,1.307-21.875-0.463-32.768C166.696,1.41,165.54,1.735,165.663,2.492
				L165.663,2.492z"/>
		</g>
	</g>
	<g>
		<g>
			<path fill="#333333" d="M1.85,126.329c27.655,0.032,55.291,1.326,82.947,1.287c13.379-0.02,26.731-0.29,40.104,0.299
				c13.64,0.601,27.315,0.663,40.911-0.727c0.762-0.077,0.77-1.278,0-1.199c-12.987,1.327-26.022,1.291-39.055,0.802
				c-13.355-0.502-26.667-0.463-40.03-0.383c-28.299,0.169-56.579-1.246-84.877-1.279C1.076,125.128,1.076,126.328,1.85,126.329
				L1.85,126.329z"/>
		</g>
	</g>
	<g>
		<g>
			<path fill="#333333" d="M70.016,118.803c0,1.153,0.044,2.291,0.451,3.383c0.267,0.718,1.427,0.408,1.156-0.319
				c-0.371-0.999-0.407-2.01-0.408-3.064C71.215,118.029,70.015,118.029,70.016,118.803L70.016,118.803z"/>
		</g>
	</g>
	<g>
		<g>
			<path fill="#333333" d="M70.503,119.417c7.319,0.492,14.621,0.095,21.929-0.402c0.768-0.052,0.772-1.252,0-1.2
				c-7.308,0.497-14.609,0.894-21.929,0.402C69.73,118.166,69.735,119.366,70.503,119.417L70.503,119.417z"/>
		</g>
	</g>
	<g>
		<g>
			<path fill="#333333" d="M91.72,118.588c0,1.29,0,2.579,0,3.868c0,0.774,1.199,0.774,1.199,0c0-1.29,0-2.579,0-3.868
				C92.919,117.814,91.72,117.814,91.72,118.588L91.72,118.588z"/>
		</g>
	</g>
	<g>
		<g>
			<path fill="#333333" d="M71.257,123.412c6.911,0.015,13.809,0.166,20.707-0.355c0.767-0.058,0.772-1.258,0-1.2
				c-6.898,0.521-13.796,0.371-20.707,0.355C70.483,122.21,70.483,123.41,71.257,123.412L71.257,123.412z"/>
		</g>
	</g>
	<g>
		<path fill="#FFFFFF" d="M31.921,26.723l-7.857,29.665l4.91,1.768l1.18-2.75l14.931,5.108l9.626-26.325L31.921,26.723z
			 M40.958,55.405l-9.626-2.75l3.34-11.198l10.216,3.339L40.958,55.405z M35.261,38.903l1.965-7.269l11.395,2.947l-3.144,8.448
			L35.261,38.903z"/>
		<path fill="#FFFFFF" d="M60.604,49.708l-11.198,1.179v1.965h8.447c0,0-6.09,15.717-23.378,30.451h1.375l12.377-7.465l3.732-4.322
			l6.287-8.055l-1.769,11.788l-6.09,1.179l-0.982,1.375l0.196,1.768l6.483-0.786l-1.179,8.251H48.03l11.788,10.216l0.786-0.982
			l1.571-16.502l7.466-0.589l0.195-2.947l-7.661-0.589l2.161-12.573l5.305,10.412l5.304,2.947l6.876-3.143l-6.09-2.554l-5.305-4.911
			l-5.305-9.233l-0.195-3.733l1.768-1.375l8.251-0.393l-0.393-2.161l-8.645,0.589l3.733-17.092l-7.072,0.393L60.604,49.708z"/>
		<path fill="#FFFFFF" d="M126.614,60.12l4.32-0.196l2.752,27.504c0,0-0.395,3.34,2.357-0.196l8.055-11.001l1.965,2.947
			c0,0-10.609,16.502-13.949,14.931c0,0-2.16,0.589-2.75-5.697L126.614,60.12z"/>
		<polygon fill="#FFFFFF" points="114.63,53.048 116.595,53.245 116.987,48.922 115.22,48.136 		"/>
		<polygon fill="#FFFFFF" points="117.772,49.512 119.54,49.708 119.345,53.245 116.595,53.245 		"/>
		<path fill="#FFFFFF" d="M97.931,49.667h-6.286l-0.394-3.712l3.34-0.678l-0.587-1.713l-3.337,0.25v-1.768l-4.718,0.393
			l-0.394,1.964l-2.653,0.393l-0.948-2.357l-4.287-0.197v2.424h-2.722l0.786,2h2.554l0.589,5.646l-4.911,1.546l1.572,2.64
			c2.946-2.75,22.199-4.301,22.199-4.301L97.931,49.667z M83.394,52.065l-0.197-5.304l3.144-0.589l0.59,5.108L83.394,52.065z"/>
		<path fill="#FFFFFF" d="M79.856,57.959c1.572,13.556,4.103,22.004,4.103,22.004l3.708-1.375v-2.947l9.258-1.572l-2.543-18.271
			L79.856,57.959z M83.982,59.924l6.286-1.179l0.59,4.125l-5.697,1.572L83.982,59.924z M87.322,73.086l-1.375-5.894l5.501-0.786
			l0.982,5.5L87.322,73.086z"/>
		<path fill="#FFFFFF" d="M110.897,64.05l2.553,1.179l1.18-1.179l-3.34-1.769l0.785-5.5l3.732,0.393l0.59-2.357l-3.143-0.393
			l-0.393-3.537l-3.537,0.197l0.393,2.947l-6.482-0.786l1.179-3.34l-3.929-2.161l-2.947,15.913l0.196,3.536l3.93-2.357
			c0,0,1.375,3.929,5.107,3.929C110.505,68.765,110.897,64.05,110.897,64.05z M105.985,64.667h-1.571l-0.196-0.897l0.59-0.94
			l1.964-0.273l0.589,1.35L105.985,64.667z M107.754,60.906c0,0-5.108-1.375-5.894,1.375l0.785-6.483l6.091,0.197L107.754,60.906z"
			/>
		<path fill="#FFFFFF" d="M122.292,81.142l0.393-5.697l3.535-0.197l0.197-2.947c-7.072-0.197-12.574,3.144-12.574,3.144l3.456-4.126
			l8.368-0.786v-2.866h-6.715l2.16-2.398l-3.143-0.315l-3.874,3.968l-6.429,1.61v2.358l4.267-0.393l-5.036,5.501l0.231,1.375
			c0,0,1.785,4.715,3.554,1.179c1.768-3.537,8.457-4.519,8.457-4.519l-0.389,4.912c0,0-5.107-0.197-6.09,1.964
			c-0.98,2.161-1.176,6.876,3.932,6.876c5.109,0,5.698-5.894,5.698-5.894l3.929,0.786l1.18-1.572L122.292,81.142z M116.79,86.838
			c-0.977,0-1.768-0.791-1.768-1.768c0-0.977,0.791-1.768,1.768-1.768s1.768,0.792,1.768,1.768
			C118.558,86.047,117.767,86.838,116.79,86.838z"/>
	</g>
</g>
</svg>
