<?xml version="1.0" encoding="utf-8"?>
<!-- Generator: Adobe Illustrator 16.0.0, SVG Export Plug-In . SVG Version: 6.00 Build 0)  -->
<!DOCTYPE svg PUBLIC "-//W3C//DTD SVG 1.1//EN" "http://www.w3.org/Graphics/SVG/1.1/DTD/svg11.dtd">
<svg version="1.1" id="Layer_1" xmlns="http://www.w3.org/2000/svg" xmlns:xlink="http://www.w3.org/1999/xlink" x="0px" y="0px"
	 width="189.6px" height="131px" viewBox="0 0 189.6 131" enable-background="new 0 0 189.6 131" xml:space="preserve">
<g>
	<path fill="#010101" d="M47.1,94.1c1.6,2.8,7.5,22.1-0.8,19.1c-4.2-1.5-1-6-0.5-9.5c0.3-2.8-1.3-8.3,1.3-10.3"/>
	<g>
		<path fill="#010101" d="M46.6,94.4c2.2,4.3,3.5,10,3.5,14.8c0,1.4-0.3,3.5-2.1,3.7c-4.7,0.5-2.7-5.2-2-7.3
			c1.1-3.6-1.3-8.9,1.6-11.9c0.5-0.5-0.3-1.4-0.8-0.8c-1.7,1.7-1.8,4-1.7,6.3c0.1,3.6-0.5,6.3-1.3,9.8c-0.7,2.9,2.3,6.4,5.4,4.9
			c2.8-1.4,2.3-5.7,1.9-8.2c-0.6-4-1.5-8.3-3.4-11.9C47.2,93.1,46.2,93.8,46.6,94.4L46.6,94.4z"/>
	</g>
</g>
<g>
	<path fill="#010101" d="M64.4,74.5c1.5,0.7-2.7,2.7-3.9,2.9c-4.1,1-6.1-3.2-10-3.9c-9.8-2-11,9-20,8.3c6.8-1.2,1.5-7.3,3.4-11.5
		c2.2-4.4,9.5-6.3,12.7-2c-1.2-5.1,8.3-7.1,11.2-3.9c3.9,4.2-2,9.8,6.6,9.8c-0.2,0.5-0.5,0.7-0.7,1.2"/>
	<g>
		<path fill="#010101" d="M63.9,74.9c-0.9,0.8-1.8,1.4-3,1.7c-1.8,0.6-3.4,0.3-4.8-0.7c-1.4-0.8-2.7-1.8-4.2-2.6
			c-2.1-1-4.8-0.8-7-0.1c-5.7,1.8-7.8,8.2-14.5,8c0.1,0.4,0.1,0.8,0.2,1.2c2.5-0.6,3.9-1.7,4-4.3c0.2-2.3-0.8-4.4-0.5-6.7
			c0.8-5.5,9.1-5.9,12-2.6c0.3,0.4,1.1,0.1,1-0.4c-0.5-3.9,3.9-4.9,6.8-4.8c4.4,0,4.8,4,4.8,7.4c0,1.1,0.4,2,1.1,2.8
			c0.5,0.5,3.4,1.1,3.3,1.4c-0.4,0.7,0.6,1.3,1,0.6c0.2-0.4,0.5-0.8,0.7-1.2c0.2-0.4-0.1-0.9-0.5-0.9c-5.5-0.2-3.8-4.2-5-7.7
			c-0.7-2-2.5-3-4.4-3.4c-3.9-0.9-9.6,1.3-9.1,5.9c0.3-0.1,0.7-0.3,1-0.4c-3.1-3.5-7.5-3.2-11.2-0.7c-1.7,1.1-2.7,2.9-2.9,4.8
			c-0.4,3.2,2.8,7.8-2.6,9.2c-0.7,0.2-0.5,1.2,0.2,1.2c7.6,0.2,10.5-8,17.7-8.5c4.4-0.3,7,4.7,11.1,4.3c2-0.2,5.1-0.9,6-3
			c0.1-0.3,0.1-0.5-0.1-0.7c-0.1-0.1-0.2-0.3-0.3-0.4C64.3,73.4,63.5,74.3,63.9,74.9L63.9,74.9z"/>
	</g>
</g>
<g>
	<g>
		<path fill="#010101" d="M35.8,78.2c3,5.1,4.1,10.9,5.8,16.5c0.1,0.3,0.4,0.5,0.7,0.4c4.5-0.9,9-1.7,13.5-2.2
			c0.8-0.1,0.8-1.3,0-1.2c-2.3,0.3-4.7,0.6-7,0.9c-2.3,0.4-6,2.2-6.8-0.7c-1.4-4.9-2.6-9.9-5.2-14.4C36.4,76.9,35.4,77.5,35.8,78.2
			L35.8,78.2z"/>
	</g>
</g>
<g>
	<g>
		<path fill="#010101" d="M56,76.6c0.7,2.4,0.5,5.1,0.5,7.5c0,2,0.4,6.5-1.3,8c-0.6,0.5,0.3,1.3,0.8,0.8c1.8-1.5,1.6-5.4,1.6-7.4
			c0.1-3,0.3-6.4-0.5-9.3C56.9,75.5,55.8,75.8,56,76.6L56,76.6z"/>
	</g>
</g>
<g>
	<g>
		<path fill="#010101" d="M48.4,81.7c0.4,1.6,0.7,3.3,1.2,4.9c0.1-0.2,0.3-0.5,0.4-0.7c-0.9,0.3-1.8,0.7-2.8,0.7
			c0.2,0.2,0.4,0.4,0.6,0.6c0-0.8-0.2-1.6-0.2-2.4c0-0.8-1.2-0.8-1.2,0c0,0.8,0.2,1.6,0.2,2.4c0,0.3,0.3,0.6,0.6,0.6
			c1.1-0.1,2.1-0.4,3.1-0.8c0.3-0.1,0.5-0.4,0.4-0.7c-0.5-1.6-0.8-3.3-1.2-4.9C49.4,80.6,48.2,80.9,48.4,81.7L48.4,81.7z"/>
	</g>
</g>
<g>
	<g>
		<path fill="#010101" d="M57.6,81.4c0.6-0.3,1.3-0.2,2-0.5c-0.2-0.1-0.5-0.3-0.7-0.4c0.2,1.3,0.2,2.7,0.2,4
			c0.2-0.2,0.4-0.4,0.6-0.6c-0.7,0-1.4,0.2-2,0c-0.7-0.2-1.1,1-0.3,1.2c0.8,0.2,1.6,0.1,2.4,0c0.3,0,0.6-0.3,0.6-0.6
			c0-1.4,0-2.9-0.3-4.3c-0.1-0.3-0.5-0.5-0.7-0.4c-0.6,0.3-1.3,0.2-2,0.5C56.6,80.5,56.9,81.7,57.6,81.4L57.6,81.4z"/>
	</g>
</g>
<g>
	<g>
		<path fill="#010101" d="M44.5,82c0-0.1,0-0.1,0-0.1c0.3,0,0.7,0,1,0c0,0,0,0,0,0c0,0.2,0,0.3,0.1,0.5c-0.1,0.2,0,0,0,0
			c0.1-0.1,0.2-0.3,0.3-0.4c-0.3-0.1-0.7-0.3-1-0.4c0,0.1,0,0.1,0,0.2c0,0,0,0.1,0,0.1c0,0.3-0.1,0,0.2-0.1c0.2,0,0.3,0,0.5,0.1
			c-0.2-0.1-0.3-0.2-0.5-0.3c0.1,0.3,0.1,0.5,0.2,0.8c0.2-0.4,0,0.1-0.4-0.3c-0.1-0.1-0.1-0.3-0.2-0.4c0-0.1,0-0.1,0-0.2
			c-0.5,0.6,0.6,1.2,1,0.6c0.3-0.4,0.1-1-0.4-1.1c-0.5-0.1-0.9,0.3-1.2,0.7c-0.1,0.3-0.1,0.7,0.2,0.8c0.4,0.2,0.8,0.5,1.3,0.2
			c0.3-0.3,0.4-0.8,0.4-1.2c0-0.5-0.7-0.8-1-0.4c-0.3,0.4-0.9,0.9-0.6,1.4c0.2,0.4,0.8,0.3,1,0c0.1-0.1,0.1-0.3,0.1-0.5
			C45.8,81.2,44.6,81.2,44.5,82L44.5,82z"/>
	</g>
</g>
<g>
	<g>
		<path fill="#010101" d="M50.9,79.7c0,0-0.4-0.1-0.2,0c0.1,0.2,0.2,0.3,0.3,0.5c0,0,0,0,0,0c-0.1,0.1-0.1,0.3-0.2,0.4
			c-0.3,0.3-0.4-0.5-0.5-0.2c0,0,0,0.1,0,0.1c0.4,0,0.8,0,1.2,0c0-0.1-0.1-0.2-0.1-0.3c0-0.1-0.1-0.1-0.2-0.2c-0.1-0.1-0.1,0,0,0.2
			c0.4-0.6-0.5-1.2-0.9-0.7c-0.1,0.1-0.1,0.1,0.1,0C50.5,79.7,50.7,79.8,50.9,79.7c0,0.2,0.1,0.3,0.1,0.4c0-0.1,0-0.2,0-0.3
			c-0.3,0.2-0.6,0.3-0.9,0.5c0.1,0,0.2,0.1,0.3,0.2c0.5,0.3-1.1-0.4,0.3-0.8c0,0-0.2,0-0.3,0c-0.8,0-0.8,1.2,0,1.2
			c0.4,0,0.9,0,1.1-0.4c0.4-0.6-0.3-1-0.8-1.2c-0.4-0.2-0.9,0-0.9,0.5c0,0.3,0,0.7,0.3,0.9c0.4,0.2,0.7,0,0.9-0.3
			c-0.3-0.2-0.6-0.5-0.9-0.7C50,80,50,80.2,50,80.5c0.1,0.2,0.3,0.3,0.3,0.5c0.1,0.6,1,0.5,1.2,0c0.2-0.7,0-1.4-0.8-1.5
			c-0.4,0-0.9,0.4-0.9,0.8c0,0.6,0.6,0.6,1.1,0.6C51.7,80.9,51.7,79.7,50.9,79.7L50.9,79.7z"/>
	</g>
</g>
<g>
	<g>
		<path fill="#010101" d="M37.2,85.5c0.6-0.3,1.2-0.4,1.8-0.6c0.8-0.2,0.4-1.3-0.3-1.2c-0.7,0.2-1.4,0.4-2.1,0.7
			C35.9,84.8,36.5,85.8,37.2,85.5L37.2,85.5z"/>
	</g>
</g>
<g>
	<g>
		<path fill="#010101" d="M36.2,85.4c0.3,1.1,0.8,2.1,1.1,3.2c0.2,0.7,1.4,0.4,1.2-0.3c-0.3-1.1-0.8-2.1-1.1-3.2
			C37.1,84.4,36,84.7,36.2,85.4L36.2,85.4z"/>
	</g>
</g>
<g>
	<g>
		<path fill="#010101" d="M38,89.3c0.8-0.2,1.5-0.4,2.2-0.6c0.7-0.2,0.4-1.4-0.3-1.2s-1.5,0.5-2.2,0.6C37,88.4,37.3,89.5,38,89.3
			L38,89.3z"/>
	</g>
</g>
<g>
	<g>
		<path fill="#010101" d="M0,0.7c-0.5,22.9,2.8,45.6,2.2,68.5c-0.6,20.1-1.3,40.2-0.8,60.3c0,0.8,1.2,0.8,1.2,0
			c-0.5-20.1,0.2-40.2,0.8-60.3C4.1,46.3,0.8,23.6,1.2,0.7C1.3-0.1,0.1-0.1,0,0.7L0,0.7z"/>
	</g>
</g>
<g>
	<g>
		<path fill="#010101" d="M1.2,130.8c31.1,0,62.2,0.3,93.3,0.2c31.5,0,63-1,94.5-1c0.8,0,0.8-1.2,0-1.2c-30.9,0-61.7,1-92.6,1
			c-31.7,0-63.5-0.2-95.2-0.2C0.4,129.6,0.4,130.8,1.2,130.8L1.2,130.8z"/>
	</g>
</g>
<g>
	<g>
		<path fill="#010101" d="M188.3,0.6c-3.3,42.6-1.5,85.3-0.6,128c0,0.8,1.2,0.8,1.2,0c-1-42.6-2.7-85.4,0.6-128
			C189.5-0.2,188.3-0.2,188.3,0.6L188.3,0.6z"/>
	</g>
</g>
<g>
	<g>
		<path fill="#010101" d="M31.7,129.3c2.5-9.8-2.9-20.9-3.3-30.7c-0.2-3.2,0.7-5.8,2.2-8.7c2-3.8,4.2-1.4,5.5,1.3
			c3.2,6.9,4.7,14.8,6.7,22c0.2,0.7,1.4,0.4,1.2-0.3c-0.5-2-7.3-33.5-13.4-25.1c-9,12.6,3.5,27.6,0.1,41.1
			C30.3,129.8,31.5,130.1,31.7,129.3L31.7,129.3z"/>
	</g>
</g>
<g>
	<path fill="#FFFFFF" d="M39.6,120.7c-1.1-16.2,34.1-8.5,25.5-0.7"/>
	<g>
		<path fill="#010101" d="M40.2,120.7c-0.2-7.7,7.6-9.2,13.8-8.9c2.9,0.2,15.6,2.8,10.7,7.8c-0.5,0.5,0.3,1.4,0.8,0.8
			c5.7-5.7-6-9.1-9.9-9.7c-7.2-1-17,0.9-16.7,9.9C39,121.4,40.2,121.4,40.2,120.7L40.2,120.7z"/>
	</g>
</g>
<g>
	<g>
		<path fill="#010101" d="M39.8,121.9c8.4-1.9,16.7-3,25.2-1.3c0.8,0.2,1.1-1,0.3-1.2c-8.7-1.8-17.3-0.6-25.9,1.3
			C38.7,120.9,39,122.1,39.8,121.9L39.8,121.9z"/>
	</g>
</g>
<g>
	<g>
		<path fill="#010101" d="M63.3,119.9c1.6,2.6,1.9,6.3,1.9,9.2c0,0.8,1.2,0.8,1.2,0c0-3.2-0.4-7.1-2.1-9.8
			C63.9,118.7,62.9,119.3,63.3,119.9L63.3,119.9z"/>
	</g>
</g>
<g>
	<g>
		<path fill="#010101" d="M65.8,120.2c3,0.9,2.2,5.2,2.7,7.7c0.1,0.3,0.4,0.5,0.7,0.4c2.5-0.8,4-2.4,3.4-5.1
			c-0.6-2.8-2.8-6.4-5.5-7.6c-0.7-0.3-1.3,0.7-0.6,1c2,0.9,3.2,3,4.1,4.9c1.2,2.5,1.3,4.7-1.8,5.6c0.2,0.1,0.5,0.3,0.7,0.4
			c-0.6-3,0.1-7.3-3.6-8.5C65.4,118.8,65.1,120,65.8,120.2L65.8,120.2z"/>
	</g>
</g>
<g>
	<g>
		<path fill="#010101" d="M71.5,127.2c0.7-0.6,1.3-1.3,1.9-2.1c0.7-0.9,1.6-1.3,2.8-1.5c0.8-0.1,0.4-1.3-0.3-1.2
			c-1.1,0.2-2.1,0.6-2.9,1.4c-0.8,0.8-1.4,1.8-2.3,2.5C70.1,126.8,70.9,127.7,71.5,127.2L71.5,127.2z"/>
	</g>
</g>
<g>
	<g>
		<path fill="#010101" d="M75.8,123.6c0.5,0.5,1.1,1,1.5,1.7c0.4,0.6,1.5,0,1-0.6c-0.5-0.7-1.1-1.3-1.7-1.9
			C76.1,122.2,75.2,123.1,75.8,123.6L75.8,123.6z"/>
	</g>
</g>
<g>
	<g>
		<path fill="#010101" d="M77.6,125.1c-1.3,1.3-2.4,3.2-4.3,3.8c-0.7,0.2-0.4,1.4,0.3,1.2c2.1-0.7,3.3-2.6,4.8-4.1
			C79,125.4,78.1,124.6,77.6,125.1L77.6,125.1z"/>
	</g>
</g>
<g>
	<path fill="#FFFFFF" d="M46.2,94.4c-1.8,4.9-6.1,14.6,0.8,17.4"/>
	<g>
		<path fill="#010101" d="M45.6,94.2c-2,5.4-6.1,14.7,1.1,18c0.7,0.3,1.3-0.7,0.6-1c-6.5-3-2.3-11.8-0.5-16.7
			C47.1,93.8,45.9,93.5,45.6,94.2L45.6,94.2z"/>
	</g>
</g>
<g>
	<path fill="#FFFFFF" d="M46.4,95c1,2.6,1,5.3,0.8,8.1c-0.2,3.7-0.4,4.5,3.6,4.9c1.4,0.2,9.7,1.2,5.3,3.6c-1,0.6-4.1-0.8-5.5-0.8
		c-1.8,0-3,0.6-4.7,1.2"/>
	<g>
		<path fill="#010101" d="M45.8,95.1c1.3,3.8,0.2,7.4,0.8,11.3c0.2,1.5,2,2,3.3,2.1c1.1,0.1,2.2,0.3,3.3,0.5
			c0.6,0.1,1.1,0.2,1.7,0.4c0.2,0.1,0.4,0.1,0.5,0.2c1.4,0.3,1.1,0.8-1,1.4c-1.3-0.2-2.5-0.7-3.9-0.8c-1.6-0.2-3.4,0.7-4.9,1.2
			c-0.7,0.3-0.4,1.4,0.3,1.2c2.6-0.9,4.6-1.3,7.3-0.6c0.9,0.2,2.2,0.6,3.1,0.1c1.1-0.7,2.4-2.1,0.8-3c-1.9-1.1-4.3-1.4-6.4-1.6
			c-3-0.4-3.1-1.7-3-4.3c0.2-2.9,0.1-5.5-0.8-8.3C46.8,94.1,45.6,94.4,45.8,95.1L45.8,95.1z"/>
	</g>
</g>
<g>
	<g>
		<path fill="#010101" d="M57.4,110.5c0.8-0.2,1.7-0.4,2.5-0.5c0.4,0,1,0.1,0.9,0.7c-0.1,0.6-1,0.8-1.4,0.8
			c-0.8,0.1-0.4,1.3,0.3,1.2c1.7-0.3,3.2-1.9,1.7-3.4c-1-1-3.1-0.2-4.3,0.1C56.4,109.6,56.7,110.7,57.4,110.5L57.4,110.5z"/>
	</g>
</g>
<g>
	<g>
		<path fill="#010101" d="M78,104.6c-2.2,2.5-4.3,5.1-6.2,7.8c-0.3,0.4,0.1,0.9,0.5,0.9c12.1,0,24.1,0.1,36.1-1.6
			c0.8-0.1,0.4-1.3-0.3-1.2c-7.4,1-14.9,1.6-22.3,1.7c-3.3,0-6.5-0.1-9.8-0.1c-1.9,0-2.9,0.5-1.6-1.3c1.4-1.9,2.9-3.7,4.5-5.4
			C79.3,104.9,78.5,104,78,104.6L78,104.6z"/>
	</g>
</g>
<g>
	<g>
		<path fill="#010101" d="M100.9,103.9c2.7,2.4,5.6,4.7,7.9,7.5c0.5,0.6,1.3-0.3,0.8-0.8c-2.3-2.8-5.2-5.1-7.9-7.5
			C101.1,102.5,100.3,103.4,100.9,103.9L100.9,103.9z"/>
	</g>
</g>
<g>
	<g>
		<path fill="#010101" d="M108.4,111.5c0,0.7,0,1.3,0,2c0,0.8,1.2,0.8,1.2,0c0-0.7,0-1.3,0-2C109.6,110.8,108.4,110.8,108.4,111.5
			L108.4,111.5z"/>
	</g>
</g>
<g>
	<g>
		<path fill="#010101" d="M71.9,113.3c0,0.7,0,1.4,0.2,2.1c0.2,0.7,1.4,0.4,1.2-0.3c-0.2-0.6-0.2-1.2-0.2-1.8
			C73.1,112.5,71.9,112.5,71.9,113.3L71.9,113.3z"/>
	</g>
</g>
<g>
	<g>
		<path fill="#010101" d="M72.5,116.7c12.3-1.4,24.7-0.2,36.9-2.4c0.8-0.1,0.4-1.3-0.3-1.2c-12.1,2.2-24.4,0.9-36.5,2.3
			C71.7,115.6,71.7,116.8,72.5,116.7L72.5,116.7z"/>
	</g>
</g>
<g>
	<g>
		<path fill="#010101" d="M104.6,115.1c-0.3,4.7,0.2,9.5,0.2,14.2c0,0.8,1.2,0.8,1.2,0c0-4.7-0.5-9.5-0.2-14.2
			C105.9,114.3,104.7,114.3,104.6,115.1L104.6,115.1z"/>
	</g>
</g>
<g>
	<g>
		<path fill="#010101" d="M106.6,114.9c-0.1,4.6,0.5,9.2,0.6,13.8c0,0.8,1.2,0.8,1.2,0c-0.1-4.6-0.7-9.2-0.6-13.8
			C107.8,114.1,106.6,114.1,106.6,114.9L106.6,114.9z"/>
	</g>
</g>
<g>
	<g>
		<path fill="#010101" d="M76.8,115.7c0,2.6,0,5.1,0,7.7c0,0.8,1.2,0.8,1.2,0c0-2.6,0-5.1,0-7.7C78,114.9,76.8,114.9,76.8,115.7
			L76.8,115.7z"/>
	</g>
</g>
<g>
	<g>
		<path fill="#010101" d="M79,116.3c0,4.4,0.4,8.8,0.4,13.2c0,0.8,1.2,0.8,1.2,0c0-4.4-0.4-8.8-0.4-13.2
			C80.2,115.5,79,115.5,79,116.3L79,116.3z"/>
	</g>
</g>
<g>
	<g>
		<path fill="#010101" d="M78.4,105.6c7.8,0,15.4-0.4,23.1-1.6c0.8-0.1,0.4-1.3-0.3-1.2c-7.6,1.2-15.1,1.5-22.7,1.6
			C77.6,104.4,77.6,105.6,78.4,105.6L78.4,105.6z"/>
	</g>
</g>
<g>
	<g>
		<path fill="#010101" d="M79.8,119c8.2-0.1,16.4-0.7,24.7-0.8c0.8,0,0.8-1.2,0-1.2c-8.2,0.1-16.4,0.7-24.7,0.8
			C79,117.8,79,119,79.8,119L79.8,119z"/>
	</g>
</g>
<g>
	<g>
		<path fill="#010101" d="M29.2,90c0.2,6.5,1.7,13,2.9,19.3c1.1,5.9,4.9,13.8,2.9,19.8c-0.2,0.7,0.9,1,1.2,0.3
			c1.4-4.2-0.3-10-1.2-14.2c-1.8-8.3-4.3-16.6-4.5-25.2C30.4,89.3,29.2,89.2,29.2,90L29.2,90z"/>
	</g>
</g>
<g>
	<g>
		<path fill="#010101" d="M39.7,121.6c0.3,2.5,0.2,5,0.2,7.5c0,0.8,1.2,0.8,1.2,0c0-2.6,0.1-5.2-0.2-7.9
			C40.8,120.5,39.6,120.8,39.7,121.6L39.7,121.6z"/>
	</g>
</g>
<g>
	<g>
		<path fill="#010101" d="M30.8,98.5c2.6-0.5,4.9-1.8,7.2-3c0.7-0.4,0.1-1.4-0.6-1c-2.3,1.1-4.4,2.4-7,2.9
			C29.7,97.5,30,98.6,30.8,98.5L30.8,98.5z"/>
	</g>
</g>
<path fill="#55A4DB" d="M145.2,88.1c0,3.5-2.8,6.3-6.3,6.3s-6.3-2.8-6.3-6.3s6.2-13.3,6.2-13.3S145.2,84.6,145.2,88.1z"/>
<path fill="#55A4DB" d="M145.6,112.2c0,3.5-2.8,6.3-6.3,6.3s-6.3-2.8-6.3-6.3s6.2-13.3,6.2-13.3S145.6,108.7,145.6,112.2z"/>
<path fill="#55A4DB" d="M145.2,64.1c0,3.5-2.8,6.3-6.3,6.3s-6.3-2.8-6.3-6.3c0-3.5,6.2-13.3,6.2-13.3S145.2,60.6,145.2,64.1z"/>
<g>
	<g>
		<path fill="#010101" d="M42.1,52.5c5.6-1.1,4.8-9.1-0.3-10.5c-2.5-0.7-4.9-0.5-6.5,1.7c-1,1.5,0.8,2.9,2.2,2.8
			c6.1-0.2,6.2-6.4,3.7-10.7c-2.5-4.4-11.4-6.3-13.6-0.6c-0.8,2.1,2.4,3.2,3.7,3.5c3.2,0.6,5.9-2,6.7-4.9
			c2.3-7.6-3.3-11.7-10.5-12.2c-2.7-0.2-6.4-0.3-8.6,1.7c-1.3,1.1-3,3.9-1.4,5.5c3.8,3.7,12.1,0.9,15.2-2.5c3.5-3.9,3.2-9.1-2.8-8.4
			c-0.8,0.1-0.8,1.3,0,1.2c6.6-0.7,2.8,5.7,0.7,7.7c-2,1.9-5.8,2.2-8.4,2.2c-3.1,0.1-4.7-3.3-1.9-5.2c1.4-0.9,3.4-1.1,5.1-1.1
			c3.2-0.1,6.6,0.9,9.3,2.5c5.3,3.2,2.4,13.4-4.1,12.2c-1.4-2.7-0.8-4.1,1.9-4.3c1.2-0.3,2.3-0.3,3.5,0c1.8,0.4,3.2,1.8,4.2,3.3
			c1.7,2.5,2.5,7.3-1,8.7c-0.6-2.7,0.3-3.3,2.8-1.7c0.9,0.6,1.6,1.4,2.1,2.3c1.7,2.7,0.5,5-2.4,5.6C41,51.5,41.3,52.6,42.1,52.5
			L42.1,52.5z"/>
	</g>
</g>
<g>
	<g>
		<path fill="#010101" d="M92.5,24.3c-1.2,4.6-2.5,9.1-3.7,13.7c-0.9,3.3,0.8,7.5,1.5,10.8c0.1,0.8,1.3,0.4,1.2-0.3
			c-0.7-3.5-2.2-7.6-1.3-10.7c1.2-4.4,2.4-8.8,3.5-13.2C93.8,23.9,92.7,23.6,92.5,24.3L92.5,24.3z"/>
	</g>
</g>
<g>
	<g>
		<path fill="#010101" d="M151.2,25.6c-0.9,4.1-1.6,8.2-2.4,12.2c-0.7,3.7,1.2,7.2,2.7,10.6c0.3,0.7,1.3,0.1,1-0.6
			c-1.9-4.2-3.2-6.9-2.3-11.1c0.7-3.6,1.4-7.2,2.1-10.8C152.5,25.2,151.4,24.9,151.2,25.6L151.2,25.6z"/>
	</g>
</g>
<g>
	<g>
		<path fill="#010101" d="M93.1,25.5c19.5,0.2,39,0.4,58.5,0.6c0.8,0,0.8-1.2,0-1.2c-19.5-0.2-39-0.4-58.5-0.6
			C92.4,24.3,92.4,25.5,93.1,25.5L93.1,25.5z"/>
	</g>
</g>
<g>
	<g>
		<path fill="#010101" d="M92,41.8c16.1,0,32.1,0.3,48.2,0.3c0.8,0,0.8-1.2,0-1.2c-16.1,0-32.1-0.3-48.2-0.3
			C91.2,40.6,91.2,41.8,92,41.8L92,41.8z"/>
	</g>
</g>
<g>
	<g>
		<path fill="#010101" d="M92.9,46.8c16,0,32.1,0.2,48.1,0.2c0.8,0,0.8-1.2,0-1.2c-16,0-32.1-0.2-48.1-0.2
			C92.1,45.6,92.1,46.8,92.9,46.8L92.9,46.8z"/>
	</g>
</g>
<g>
	<g>
		<path fill="#010101" d="M151.9,26.3c1.9-1.3,3.8-2.6,5.9-3.8c2.2-1.3,1.5-0.3,1.5,1.3c0,1.1-0.1,2.2-0.1,3.3
			c-0.2,4.4-0.4,8.8-0.3,13.3c0,0.8,1.2,0.8,1.2,0c-0.1-6.5,0.5-12.9,0.5-19.4c0-0.4-0.4-0.7-0.8-0.6c-3.1,1.2-5.7,3.1-8.4,4.9
			C150.6,25.7,151.2,26.8,151.9,26.3L151.9,26.3z"/>
	</g>
</g>
<g>
	<g>
		<path fill="#010101" d="M152.4,49.4c2.9-2.4,4.8-5.6,7.4-8.3c0.5-0.6-0.3-1.4-0.8-0.8c-2.6,2.7-4.6,5.8-7.4,8.3
			C151,49,151.8,49.9,152.4,49.4L152.4,49.4z"/>
	</g>
</g>
<g>
	<g>
		<path fill="#010101" d="M93.4,25.2c3.9-1.5,7.8-3.1,11.7-4.6c0.7-0.3,0.4-1.4-0.3-1.2C100.9,20.9,97,22.5,93,24
			C92.3,24.3,92.6,25.4,93.4,25.2L93.4,25.2z"/>
	</g>
</g>
<g>
	<g>
		<path fill="#010101" d="M105.3,20.5c18,0.3,36,0.7,54,1c0.8,0,0.8-1.2,0-1.2c-18-0.3-36-0.7-54-1
			C104.5,19.3,104.5,20.5,105.3,20.5L105.3,20.5z"/>
	</g>
</g>
<g>
	<g>
		<path fill="#010101" d="M91.3,41.6c0.2,0.6,0.3,1.1,0.4,1.7c0.1,0.8,1.3,0.8,1.2,0c-0.1-0.7-0.2-1.3-0.5-2
			C92.2,40.6,91.1,40.9,91.3,41.6L91.3,41.6z"/>
	</g>
</g>
<g>
	<g>
		<path fill="#010101" d="M139.5,41.2c0.2,1.7,0.4,3.4,0.6,5.1c0.1,0.8,1.3,0.8,1.2,0c-0.2-1.7-0.4-3.4-0.6-5.1
			C140.6,40.5,139.4,40.4,139.5,41.2L139.5,41.2z"/>
	</g>
</g>
<g>
	<g>
		<path fill="#010101" d="M153.4,24.9c0.3,7.1,0.2,14,0.2,21.1c0,0.8,1.2,0.8,1.2,0c0-7.1,0.1-14-0.2-21.1
			C154.5,24.1,153.3,24.1,153.4,24.9L153.4,24.9z"/>
	</g>
</g>
<g>
	<g>
		<path fill="#010101" d="M144,46.6c1.3-0.1,2.6-0.1,3.9-0.2c0.8,0,0.8-1.2,0-1.2c-1.3,0.1-2.6,0.1-3.9,0.2
			C143.2,45.5,143.2,46.7,144,46.6L144,46.6z"/>
	</g>
</g>
<g>
	<g>
		<path fill="#010101" d="M90.7,49.6c20.4,0,40.8,0,61.2,0c0.8,0,0.8-1.2,0-1.2c-20.4,0-40.8,0-61.2,0
			C89.9,48.4,89.9,49.6,90.7,49.6L90.7,49.6z"/>
	</g>
</g>
<g>
	<g>
		<path fill="#010101" d="M95.2,40.9c-1.1,0.9-2.4,1.5-3.5,2.5c-0.6,0.5,0.3,1.4,0.8,0.8c1.1-1,2.4-1.6,3.5-2.5
			C96.7,41.3,95.8,40.4,95.2,40.9L95.2,40.9z"/>
	</g>
</g>
<g>
	<g>
		<path fill="#010101" d="M91.8,44.8c7.6-0.8,15.6-0.1,23.2,0c7.5,0.1,15.1,0,22.6,0.3c0.8,0,0.8-1.2,0-1.2
			c-7.5-0.4-15.1-0.3-22.6-0.3c-7.6-0.1-15.6-0.8-23.2,0C91,43.7,91,44.9,91.8,44.8L91.8,44.8z"/>
	</g>
</g>
<g>
	<g>
		<path fill="#010101" d="M139.8,40.9c-1.3,0.9-2.2,2.1-3.1,3.4c-0.4,0.6,0.6,1.2,1,0.6c0.8-1.1,1.6-2.2,2.7-2.9
			C141,41.5,140.4,40.4,139.8,40.9L139.8,40.9z"/>
	</g>
</g>
<g>
	<g>
		<path fill="#010101" d="M92.2,45.3c0.1,0.3,0.1,0.6,0.1,1.1c0,0.3,0.5,0.5,0.7,0.4c0.3-0.1,0.5-0.4,0.4-0.7
			c-0.1-0.4-0.1-0.7-0.1-1.1C93.2,44.2,92,44.5,92.2,45.3L92.2,45.3z"/>
	</g>
</g>
<g>
	<g>
		<path fill="#010101" d="M155.7,39.7c0,0.4,0.1,0.9,0.1,1.3c0,0.8,1.2,0.8,1.2,0c0-0.4-0.1-0.9-0.1-1.3
			C156.9,38.9,155.7,38.9,155.7,39.7L155.7,39.7z"/>
	</g>
</g>
<g>
	<g>
		<path fill="#010101" d="M157,40c0.1-0.3,0.4-0.5,0.7-0.6c0.7-0.2,0.4-1.4-0.3-1.2c-0.7,0.2-1.3,0.7-1.5,1.4
			C155.6,40.4,156.8,40.7,157,40L157,40z"/>
	</g>
</g>
<g>
	<g>
		<path fill="#010101" d="M157.3,38.7c0,0.5,0,1-0.1,1.4c-0.2,0.8,1,1.1,1.2,0.3c0.1-0.6,0.1-1.2,0.1-1.7
			C158.5,38,157.3,38,157.3,38.7L157.3,38.7z"/>
	</g>
</g>
<g>
	<g>
		<path fill="#010101" d="M156.8,41.7c0.3-0.3,0.6-0.6,1-0.9c0.6-0.4,0-1.5-0.6-1c-0.4,0.3-0.8,0.7-1.2,1.1
			C155.4,41.4,156.3,42.2,156.8,41.7L156.8,41.7z"/>
	</g>
</g>
<g>
	<g>
		<path fill="#010101" d="M156.7,39.8c0.1,2.8,2.4,5.4,5.3,4.1c1.3-0.6,2-2.3,2-3.7c0.1-1.6-0.9-4.4,1.3-4.9
			c0.8-0.2,0.4-1.3-0.3-1.2c-2.6,0.6-2.3,3.4-2.2,5.5c0.1,1.4-0.5,3.2-2.2,3.5c-1.8,0.2-2.8-1.8-2.8-3.2
			C157.8,39,156.6,39,156.7,39.8L156.7,39.8z"/>
	</g>
</g>
<g>
	<g>
		<path fill="#010101" d="M164.8,35.1c0-0.4,0-0.7,0.4-0.8c0.4-0.1,1-0.1,1.4,0c0.8,0.1,0.8-1.1,0-1.2c-0.7-0.1-1.5-0.1-2.2,0.3
			c-0.7,0.3-0.9,1.1-0.9,1.8C163.6,35.9,164.8,35.9,164.8,35.1L164.8,35.1z"/>
	</g>
</g>
<g>
	<g>
		<path fill="#010101" d="M166.3,33.6c0,0.6,0,1.3,0,1.9c0,0.8,1.2,0.8,1.2,0c0-0.6,0-1.3,0-1.9C167.5,32.9,166.3,32.9,166.3,33.6
			L166.3,33.6z"/>
	</g>
</g>
<g>
	<g>
		<path fill="#010101" d="M163.9,35.7c1,0.6,2.2,0.6,3.3,0.3c0.8-0.2,0.4-1.3-0.3-1.2c-0.8,0.2-1.6,0.2-2.3-0.2
			C163.8,34.3,163.2,35.3,163.9,35.7L163.9,35.7z"/>
	</g>
</g>
<g>
	<g>
		<path fill="#010101" d="M167.5,31.2c0,2.2,0.1,4.4-0.2,6.6c-0.1,0.8,1,1.1,1.2,0.3c0.3-2.3,0.3-4.6,0.3-7
			C168.7,30.4,167.5,30.4,167.5,31.2L167.5,31.2z"/>
	</g>
</g>
<g>
	<g>
		<path fill="#010101" d="M168,30.7c-1.5,0-3,0.2-4.5,0.1c-0.8,0-0.8,1.2,0,1.2c1.5,0.1,3-0.1,4.5-0.1
			C168.7,31.9,168.7,30.7,168,30.7L168,30.7z"/>
	</g>
</g>
<g>
	<g>
		<path fill="#010101" d="M162.6,31.4c-0.3,2.2,0.1,4.3,0,6.5c0,0.8,1.2,0.8,1.2,0c0.1-2.1-0.3-4.1,0-6.2
			C163.9,31,162.8,30.6,162.6,31.4L162.6,31.4z"/>
	</g>
</g>
<g>
	<g>
		<path fill="#010101" d="M163.5,38.6c1.5,0,3,0.3,4.5,0c0.8-0.2,0.4-1.3-0.3-1.2c-1.4,0.3-2.8,0-4.2,0
			C162.7,37.4,162.7,38.6,163.5,38.6L163.5,38.6z"/>
	</g>
</g>
<g>
	<g>
		<path fill="#010101" d="M144.7,46.1c-0.2-0.9-0.4-1.8-0.6-2.7c-0.2-0.8-1.3-0.4-1.2,0.3c0.2,0.9,0.4,1.8,0.6,2.7
			C143.8,47.2,144.9,46.8,144.7,46.1L144.7,46.1z"/>
	</g>
</g>
<g>
	<g>
		<path fill="#010101" d="M143.4,43.9c1.3-0.1,2.6-0.2,3.9-0.4c0.8-0.1,0.8-1.3,0-1.2c-1.3,0.1-2.6,0.2-3.9,0.4
			C142.7,42.8,142.7,44,143.4,43.9L143.4,43.9z"/>
	</g>
</g>
<g>
	<g>
		<path fill="#010101" d="M146.7,43.1c0.2,0.9,0.3,1.9,0.5,2.8c0.1,0.8,1.3,0.4,1.2-0.3c-0.2-0.9-0.3-1.9-0.5-2.8
			C147.8,42.1,146.6,42.4,146.7,43.1L146.7,43.1z"/>
	</g>
</g>
<line fill="none" stroke="#CDCCCC" stroke-width="2" stroke-linecap="round" stroke-miterlimit="10" x1="93" y1="36.6" x2="143.9" y2="36.6"/>
<line fill="none" stroke="#CDCCCC" stroke-width="2" stroke-linecap="round" stroke-miterlimit="10" x1="94.5" y1="33.6" x2="144.9" y2="33.6"/>
<line fill="none" stroke="#CDCCCC" stroke-width="2" stroke-linecap="round" stroke-miterlimit="10" x1="94.9" y1="30.6" x2="145.9" y2="30.6"/>
<g>
</g>
<g>
</g>
<g>
</g>
<g>
</g>
<g>
</g>
<g>
</g>
</svg>
