<?xml version="1.0" encoding="utf-8"?>
<!-- Generator: Adobe Illustrator 16.0.0, SVG Export Plug-In . SVG Version: 6.00 Build 0)  -->
<!DOCTYPE svg PUBLIC "-//W3C//DTD SVG 1.0//EN" "http://www.w3.org/TR/2001/REC-SVG-20010904/DTD/svg10.dtd">
<svg version="1.0" id="Layer_1" xmlns="http://www.w3.org/2000/svg"  x="0px" y="0px"
	 width="249.494px" height="36.477px" viewBox="0 0 249.494 36.477" enable-background="new 0 0 249.494 36.477"
	 xml:space="preserve">
<g>
	<g>
		<path d="M46.774,28.821V8.21h4.161v8.112h8.154V8.21h4.161v20.61H59.09v-9.012h-8.154v9.012H46.774z"/>
		<path d="M81.978,13.89h3.95v2.826c0,1.162-0.101,2.071-0.302,2.727c-0.202,0.656-0.574,1.242-1.118,1.757
			c-0.628,0.609-1.485,1.087-2.572,1.434c-0.234,1.678-0.933,3.107-2.095,4.288c-1.463,1.49-3.3,2.235-5.512,2.235
			c-1.415,0-2.718-0.309-3.908-0.928c-1.266-0.656-2.217-1.572-2.854-2.749c-0.638-1.176-0.956-2.622-0.956-4.337
			c0-1.35,0.323-2.62,0.97-3.81c0.675-1.246,1.598-2.188,2.77-2.826c1.172-0.637,2.488-0.956,3.951-0.956
			c2.258,0,4.109,0.731,5.553,2.193c1.303,1.331,2.02,2.976,2.151,4.935c1.218-0.497,1.846-1.443,1.884-2.84h-1.912V13.89z
			 M70.66,21.355c0,1.434,0.352,2.568,1.055,3.402c0.665,0.787,1.532,1.181,2.601,1.181s1.931-0.394,2.587-1.181
			c0.703-0.834,1.055-1.978,1.055-3.43c0-1.425-0.352-2.549-1.055-3.375c-0.656-0.787-1.519-1.181-2.587-1.181
			s-1.936,0.394-2.601,1.181C71.012,18.788,70.66,19.921,70.66,21.355z M72.179,34.458v-3.951h3.95v3.951H72.179z"/>
		<path d="M87.882,13.89h3.684v2.193c0.478-0.75,1.125-1.359,1.94-1.828s1.72-0.703,2.713-0.703c1.734,0,3.205,0.68,4.415,2.039
			c1.209,1.359,1.813,3.252,1.813,5.68c0,2.494-0.609,4.431-1.828,5.813c-1.219,1.383-2.694,2.074-4.429,2.074
			c-0.824,0-1.572-0.164-2.242-0.492c-0.67-0.328-1.375-0.89-2.116-1.687V34.5h-3.95V13.89z M91.79,21.103
			c0,1.678,0.333,2.917,0.998,3.718c0.666,0.802,1.477,1.202,2.433,1.202c0.918,0,1.683-0.368,2.292-1.104
			c0.608-0.736,0.913-1.942,0.913-3.62c0-1.565-0.313-2.728-0.941-3.487c-0.628-0.759-1.406-1.139-2.334-1.139
			c-0.966,0-1.767,0.373-2.404,1.118S91.79,19.64,91.79,21.103z"/>
		<path d="M123.325,12.302h-4.26V9.672h4.26V8.21h3.95v1.462h1.561v2.629h-1.561v16.519h-3.669v-2.193
			c-0.609,0.853-1.329,1.488-2.158,1.905s-1.666,0.625-2.51,0.625c-1.715,0-3.185-0.691-4.407-2.074
			c-1.223-1.382-1.835-3.311-1.835-5.785c0-2.531,0.596-4.454,1.786-5.771c1.189-1.317,2.694-1.976,4.513-1.976
			c1.668,0,3.111,0.694,4.33,2.081V12.302z M116.731,21.032c0,1.593,0.22,2.746,0.661,3.458c0.637,1.031,1.527,1.546,2.671,1.546
			c0.909,0,1.683-0.387,2.319-1.16c0.638-0.773,0.956-1.928,0.956-3.466c0-1.715-0.309-2.95-0.928-3.705
			c-0.618-0.754-1.41-1.131-2.376-1.131c-0.938,0-1.722,0.373-2.354,1.118S116.731,19.551,116.731,21.032z"/>
		<path d="M130.256,21.145c0-1.312,0.324-2.582,0.971-3.81c0.646-1.228,1.563-2.165,2.748-2.812c1.186-0.647,2.51-0.97,3.972-0.97
			c2.259,0,4.11,0.733,5.554,2.2c1.443,1.467,2.165,3.32,2.165,5.561c0,2.259-0.729,4.131-2.187,5.616
			c-1.457,1.486-3.292,2.229-5.504,2.229c-1.368,0-2.674-0.309-3.915-0.928c-1.242-0.619-2.187-1.525-2.833-2.721
			C130.58,24.315,130.256,22.86,130.256,21.145z M133.194,12.006l2.953-4.147h3.655l2.91,4.147h-3.178l-1.631-2.095l-1.519,2.095
			H133.194z M139.845,7.1h-2.488l-3.881-3.964h4.429L139.845,7.1z M134.306,21.355c0,1.481,0.352,2.615,1.054,3.402
			c0.703,0.787,1.57,1.181,2.602,1.181c1.03,0,1.896-0.394,2.594-1.181s1.047-1.931,1.047-3.43c0-1.462-0.349-2.587-1.047-3.375
			c-0.698-0.787-1.563-1.181-2.594-1.181c-1.031,0-1.898,0.394-2.602,1.181C134.657,18.741,134.306,19.875,134.306,21.355z"/>
		<path d="M162.339,28.821h-3.95v-7.62c0-1.612-0.085-2.654-0.253-3.128c-0.169-0.473-0.443-0.841-0.823-1.104
			c-0.379-0.262-0.836-0.394-1.37-0.394c-0.685,0-1.299,0.188-1.842,0.562c-0.544,0.375-0.916,0.872-1.118,1.49
			c-0.201,0.619-0.302,1.762-0.302,3.431v6.762h-3.951V13.89h3.67v2.193c1.303-1.687,2.942-2.531,4.921-2.531
			c0.871,0,1.668,0.157,2.39,0.471s1.268,0.715,1.638,1.202s0.628,1.04,0.773,1.659s0.218,1.504,0.218,2.657V28.821z"/>
		<path d="M165.98,29.805l4.513,0.548c0.075,0.525,0.248,0.886,0.521,1.083c0.375,0.281,0.965,0.422,1.771,0.422
			c1.03,0,1.804-0.155,2.319-0.464c0.347-0.206,0.609-0.539,0.787-0.998c0.122-0.328,0.184-0.933,0.184-1.813v-2.179
			c-1.182,1.612-2.672,2.418-4.472,2.418c-2.005,0-3.594-0.848-4.766-2.544c-0.919-1.34-1.378-3.009-1.378-5.005
			c0-2.502,0.603-4.415,1.807-5.736c1.204-1.322,2.702-1.982,4.492-1.982c1.846,0,3.369,0.811,4.569,2.432V13.89h3.697v13.398
			c0,1.762-0.146,3.079-0.436,3.95c-0.291,0.872-0.699,1.556-1.224,2.053c-0.525,0.497-1.226,0.886-2.102,1.167
			c-0.877,0.281-1.985,0.422-3.325,0.422c-2.53,0-4.325-0.434-5.385-1.301c-1.059-0.867-1.588-1.966-1.588-3.297
			C165.967,30.151,165.971,29.992,165.98,29.805z M169.509,21.046c0,1.584,0.308,2.744,0.921,3.479
			c0.614,0.736,1.371,1.104,2.271,1.104c0.966,0,1.781-0.377,2.446-1.132c0.666-0.754,0.998-1.872,0.998-3.353
			c0-1.546-0.318-2.694-0.955-3.444c-0.638-0.75-1.444-1.125-2.419-1.125c-0.946,0-1.727,0.368-2.341,1.104
			C169.816,18.415,169.509,19.537,169.509,21.046z"/>
		<path d="M198.78,13.89v3.149h-2.699v6.017c0,1.219,0.025,1.929,0.077,2.13c0.052,0.202,0.169,0.368,0.352,0.499
			c0.183,0.131,0.405,0.197,0.668,0.197c0.365,0,0.895-0.126,1.589-0.379l0.337,3.065c-0.918,0.394-1.959,0.59-3.121,0.59
			c-0.712,0-1.354-0.12-1.926-0.358c-0.571-0.239-0.991-0.548-1.258-0.928c-0.268-0.379-0.453-0.893-0.556-1.539
			c-0.084-0.459-0.127-1.387-0.127-2.784V17.04h-1.813V13.89h1.813v-2.966l3.965-2.306v5.272H198.78z"/>
		<path d="M205.458,8.21v7.578c1.274-1.49,2.798-2.235,4.569-2.235c0.909,0,1.729,0.169,2.46,0.506
			c0.731,0.337,1.282,0.769,1.652,1.293s0.623,1.106,0.759,1.743c0.136,0.638,0.204,1.626,0.204,2.966v8.759h-3.95v-7.887
			c0-1.565-0.075-2.559-0.226-2.98c-0.149-0.421-0.414-0.757-0.794-1.005c-0.38-0.249-0.855-0.373-1.427-0.373
			c-0.656,0-1.242,0.159-1.758,0.478c-0.516,0.318-0.893,0.799-1.132,1.441c-0.238,0.642-0.358,1.591-0.358,2.847v7.479h-3.95V8.21
			H205.458z"/>
		<path d="M228.937,28.821v-2.235c-0.543,0.797-1.258,1.425-2.144,1.884s-1.82,0.689-2.805,0.689c-1.003,0-1.903-0.22-2.699-0.661
			c-0.797-0.44-1.373-1.059-1.729-1.856c-0.356-0.796-0.534-1.898-0.534-3.304V13.89h3.95v6.861c0,2.1,0.072,3.386,0.218,3.859
			s0.41,0.848,0.795,1.125c0.384,0.276,0.871,0.415,1.462,0.415c0.675,0,1.279-0.185,1.813-0.555c0.534-0.37,0.899-0.83,1.097-1.378
			c0.197-0.548,0.295-1.891,0.295-4.028V13.89h3.951v14.931H228.937z"/>
		<path d="M245.344,24.069l3.937,0.661c-0.506,1.444-1.306,2.542-2.397,3.297c-1.092,0.755-2.458,1.132-4.098,1.132
			c-2.597,0-4.518-0.848-5.765-2.544c-0.983-1.359-1.476-3.074-1.476-5.146c0-2.474,0.646-4.412,1.939-5.813
			c1.294-1.401,2.93-2.102,4.907-2.102c2.221,0,3.974,0.733,5.258,2.2c1.284,1.467,1.897,3.714,1.842,6.741h-9.897
			c0.028,1.172,0.347,2.083,0.956,2.734c0.609,0.652,1.368,0.978,2.277,0.978c0.618,0,1.139-0.169,1.561-0.506
			S245.128,24.819,245.344,24.069z M237.766,12.006l2.953-4.147h3.655l2.91,4.147h-3.178l-1.631-2.095l-1.519,2.095H237.766z
			 M245.568,20.076c-0.027-1.144-0.323-2.013-0.886-2.608c-0.562-0.595-1.246-0.893-2.052-0.893c-0.863,0-1.575,0.314-2.138,0.942
			s-0.839,1.481-0.829,2.559H245.568z"/>
	</g>
	<g>
		<path d="M17.327,36.477v-6.072H-0.001L22.745,0v24.987h3.27v5.418h-3.27v6.072H17.327z M17.327,24.987v-8.64l-6.445,8.64H17.327z"
			/>
	</g>
</g>
</svg>
