<?xml version="1.0" encoding="utf-8"?>
<!-- Generator: Adobe Illustrator 16.0.0, SVG Export Plug-In . SVG Version: 6.00 Build 0)  -->
<!DOCTYPE svg PUBLIC "-//W3C//DTD SVG 1.0//EN" "http://www.w3.org/TR/2001/REC-SVG-20010904/DTD/svg10.dtd">
<svg version="1.0" id="Layer_1" xmlns="http://www.w3.org/2000/svg"  x="0px" y="0px"
	 width="321.178px" height="56.629px" viewBox="0 0 321.178 56.629" enable-background="new 0 0 321.178 56.629"
	 xml:space="preserve">
<g>
	<g>
		<path d="M54.906,23.539V8.076h-5.522V4.927h14.79v3.148h-5.51v15.463H54.906z"/>
		<path d="M69.988,23.539h-3.567V10.056h3.313v1.917c0.567-0.906,1.077-1.503,1.53-1.79c0.452-0.288,0.967-0.432,1.542-0.432
			c0.813,0,1.596,0.224,2.349,0.673l-1.104,3.11c-0.601-0.39-1.159-0.584-1.676-0.584c-0.499,0-0.922,0.138-1.27,0.412
			c-0.347,0.275-0.62,0.772-0.818,1.492c-0.199,0.719-0.299,2.226-0.299,4.52V23.539z"/>
		<path d="M79.357,14.169l-3.237-0.584c0.364-1.304,0.99-2.269,1.879-2.895c0.889-0.627,2.209-0.939,3.961-0.939
			c1.592,0,2.776,0.188,3.555,0.564c0.779,0.377,1.327,0.855,1.645,1.435c0.317,0.58,0.476,1.645,0.476,3.193l-0.038,4.164
			c0,1.185,0.058,2.059,0.172,2.621c0.114,0.563,0.328,1.166,0.641,1.81H84.88c-0.093-0.237-0.207-0.589-0.343-1.054
			c-0.059-0.212-0.102-0.352-0.127-0.419c-0.609,0.592-1.261,1.036-1.955,1.333c-0.693,0.296-1.435,0.444-2.222,0.444
			c-1.388,0-2.481-0.377-3.281-1.13c-0.8-0.754-1.2-1.706-1.2-2.856c0-0.762,0.183-1.441,0.546-2.038
			c0.364-0.597,0.874-1.054,1.53-1.371c0.655-0.317,1.602-0.595,2.837-0.831c1.668-0.313,2.823-0.605,3.466-0.876v-0.355
			c0-0.686-0.169-1.175-0.508-1.467c-0.338-0.292-0.978-0.438-1.917-0.438c-0.635,0-1.13,0.125-1.485,0.374
			C79.865,13.105,79.578,13.542,79.357,14.169z M84.131,17.064c-0.457,0.152-1.181,0.334-2.171,0.546
			c-0.99,0.211-1.638,0.419-1.942,0.622c-0.465,0.33-0.698,0.749-0.698,1.257c0,0.499,0.187,0.931,0.559,1.295
			c0.373,0.363,0.847,0.546,1.422,0.546c0.644,0,1.257-0.212,1.841-0.635c0.432-0.322,0.716-0.716,0.851-1.181
			c0.094-0.305,0.14-0.885,0.14-1.739V17.064z"/>
		<path d="M90.326,16.607c0-1.186,0.292-2.332,0.876-3.44c0.584-1.109,1.411-1.955,2.482-2.539c1.07-0.584,2.266-0.876,3.586-0.876
			c2.04,0,3.711,0.662,5.015,1.986c1.304,1.325,1.955,2.998,1.955,5.021c0,2.039-0.658,3.73-1.975,5.071
			c-1.315,1.342-2.973,2.013-4.97,2.013c-1.235,0-2.414-0.279-3.535-0.838c-1.122-0.559-1.975-1.378-2.559-2.457
			S90.326,18.156,90.326,16.607z M93.982,16.797c0,1.337,0.317,2.361,0.952,3.072s1.418,1.066,2.349,1.066s1.712-0.355,2.342-1.066
			c0.631-0.711,0.946-1.744,0.946-3.098c0-1.32-0.315-2.336-0.946-3.047c-0.63-0.711-1.411-1.066-2.342-1.066
			s-1.714,0.355-2.349,1.066S93.982,15.459,93.982,16.797z"/>
		<path d="M123.055,8.622h-3.847V6.248h3.847v-1.32h3.567v1.32h1.409v2.374h-1.409v14.917h-3.313v-1.98
			c-0.55,0.77-1.199,1.344-1.949,1.72c-0.748,0.377-1.504,0.565-2.266,0.565c-1.549,0-2.875-0.624-3.98-1.873
			c-1.104-1.248-1.656-2.989-1.656-5.224c0-2.285,0.537-4.022,1.612-5.212c1.075-1.188,2.434-1.783,4.075-1.783
			c1.507,0,2.81,0.626,3.91,1.879V8.622z M117.101,16.505c0,1.438,0.199,2.479,0.597,3.123c0.575,0.931,1.38,1.396,2.412,1.396
			c0.821,0,1.52-0.35,2.095-1.048s0.863-1.741,0.863-3.129c0-1.549-0.279-2.664-0.838-3.346c-0.559-0.681-1.273-1.021-2.146-1.021
			c-0.847,0-1.555,0.336-2.127,1.009C117.387,14.163,117.101,15.167,117.101,16.505z"/>
		<path d="M129.313,16.607c0-1.186,0.292-2.332,0.876-3.44c0.584-1.109,1.411-1.955,2.481-2.539
			c1.071-0.584,2.267-0.876,3.587-0.876c2.04,0,3.711,0.662,5.015,1.986c1.304,1.325,1.955,2.998,1.955,5.021
			c0,2.039-0.658,3.73-1.975,5.071c-1.315,1.342-2.973,2.013-4.97,2.013c-1.235,0-2.414-0.279-3.536-0.838
			c-1.121-0.559-1.974-1.378-2.558-2.457S129.313,18.156,129.313,16.607z M131.967,8.355l2.666-3.745h3.301l2.628,3.745h-2.869
			l-1.473-1.892l-1.371,1.892H131.967z M132.97,16.797c0,1.337,0.317,2.361,0.952,3.072s1.418,1.066,2.349,1.066
			s1.712-0.355,2.342-1.066c0.631-0.711,0.946-1.744,0.946-3.098c0-1.32-0.315-2.336-0.946-3.047
			c-0.63-0.711-1.411-1.066-2.342-1.066s-1.714,0.355-2.349,1.066S132.97,15.459,132.97,16.797z M136.436,2.706
			c0.448-0.11,0.677-0.305,0.686-0.584c0.009-0.195-0.11-0.36-0.355-0.495c-0.355-0.195-0.918-0.292-1.688-0.292
			c-0.263,0-0.66,0.017-1.193,0.051l-0.14-1.295c0.33-0.068,0.939-0.098,1.828-0.089c1.041,0.008,1.892,0.178,2.552,0.508
			c0.728,0.355,1.101,0.851,1.117,1.485c0.034,0.88-0.736,1.417-2.311,1.612v0.635h-1.422V2.845
			C135.991,2.794,136.3,2.748,136.436,2.706z"/>
		<path d="M146.021,8.228V4.927h3.567v3.301H146.021z M146.021,23.539V10.056h3.567v13.482H146.021z"/>
		<path d="M164.175,23.539l-5.434-13.482h3.745l2.539,6.881l0.736,2.298c0.194-0.584,0.317-0.97,0.368-1.155
			c0.118-0.381,0.245-0.762,0.381-1.143l2.564-6.881h3.669l-5.357,13.482H164.175z"/>
		<path d="M187.979,10.056h3.567v2.552c0,1.049-0.091,1.87-0.273,2.463c-0.182,0.592-0.518,1.121-1.009,1.587
			c-0.567,0.55-1.342,0.981-2.323,1.295c-0.212,1.515-0.842,2.806-1.892,3.872c-1.32,1.346-2.979,2.019-4.977,2.019
			c-1.278,0-2.454-0.279-3.529-0.838c-1.143-0.593-2.002-1.42-2.577-2.482c-0.575-1.062-0.863-2.367-0.863-3.916
			c0-1.219,0.292-2.366,0.876-3.44c0.609-1.126,1.443-1.977,2.501-2.552c1.058-0.576,2.247-0.863,3.567-0.863
			c2.04,0,3.711,0.66,5.015,1.98c1.177,1.201,1.824,2.687,1.942,4.456c1.101-0.449,1.667-1.304,1.701-2.564h-1.727V10.056z
			 M177.759,16.797c0,1.295,0.317,2.318,0.952,3.072c0.601,0.711,1.384,1.066,2.349,1.066s1.743-0.355,2.336-1.066
			c0.635-0.754,0.952-1.786,0.952-3.098c0-1.287-0.317-2.303-0.952-3.047c-0.593-0.711-1.371-1.066-2.336-1.066
			s-1.748,0.355-2.349,1.066C178.076,14.478,177.759,15.502,177.759,16.797z M179.257,8.406l1.752-3.796h3.999l-3.491,3.796H179.257
			z"/>
		<path d="M193.412,8.228V4.927h3.567v3.301H193.412z M193.412,23.539V10.056h3.567v13.482H193.412z"/>
		<path d="M219.615,14.042l-3.517,0.635c-0.118-0.703-0.387-1.231-0.807-1.587c-0.418-0.355-0.962-0.533-1.631-0.533
			c-0.889,0-1.598,0.307-2.127,0.92c-0.528,0.614-0.793,1.64-0.793,3.079c0,1.6,0.269,2.729,0.807,3.39
			c0.537,0.66,1.259,0.99,2.164,0.99c0.677,0,1.231-0.192,1.663-0.578c0.432-0.385,0.736-1.047,0.914-1.986l3.504,0.597
			c-0.364,1.607-1.063,2.822-2.095,3.644c-1.032,0.82-2.416,1.231-4.151,1.231c-1.972,0-3.544-0.622-4.716-1.866
			c-1.173-1.244-1.759-2.967-1.759-5.167c0-2.227,0.588-3.959,1.765-5.199c1.177-1.239,2.768-1.859,4.773-1.859
			c1.642,0,2.947,0.354,3.916,1.06C218.496,11.518,219.192,12.595,219.615,14.042z"/>
		<path d="M225.874,4.927v6.843c1.151-1.346,2.526-2.019,4.126-2.019c0.821,0,1.562,0.152,2.222,0.457s1.157,0.693,1.491,1.168
			c0.335,0.474,0.563,0.998,0.686,1.574c0.123,0.575,0.185,1.468,0.185,2.679v7.909h-3.567v-7.122c0-1.414-0.067-2.311-0.203-2.691
			s-0.375-0.684-0.717-0.908c-0.344-0.224-0.772-0.336-1.289-0.336c-0.593,0-1.121,0.144-1.587,0.432
			c-0.466,0.287-0.806,0.722-1.022,1.301c-0.215,0.58-0.323,1.437-0.323,2.571v6.754h-3.567V4.927H225.874z"/>
		<path d="M247.075,23.539V21.52c-0.491,0.719-1.137,1.286-1.936,1.701c-0.801,0.414-1.645,0.622-2.533,0.622
			c-0.905,0-1.718-0.199-2.438-0.597c-0.72-0.398-1.24-0.957-1.562-1.676c-0.321-0.72-0.482-1.714-0.482-2.983v-8.531h3.567v6.195
			c0,1.896,0.065,3.058,0.197,3.484c0.131,0.428,0.37,0.767,0.717,1.016c0.347,0.25,0.787,0.375,1.32,0.375
			c0.609,0,1.155-0.167,1.638-0.502c0.482-0.334,0.813-0.749,0.99-1.244s0.267-1.707,0.267-3.637v-5.688h3.567v13.482H247.075z
			 M242.454,8.406l1.752-3.796h3.999l-3.491,3.796H242.454z"/>
		<path d="M266.347,23.539h-3.567v-6.881c0-1.456-0.076-2.397-0.229-2.825c-0.152-0.427-0.4-0.76-0.742-0.996
			c-0.344-0.237-0.756-0.355-1.238-0.355c-0.618,0-1.172,0.169-1.663,0.508c-0.491,0.338-0.827,0.787-1.009,1.346
			c-0.183,0.559-0.273,1.591-0.273,3.098v6.106h-3.567V10.056h3.313v1.98c1.177-1.523,2.657-2.285,4.443-2.285
			c0.787,0,1.507,0.142,2.158,0.425c0.651,0.284,1.145,0.646,1.479,1.086c0.335,0.439,0.567,0.939,0.699,1.498
			c0.131,0.559,0.196,1.358,0.196,2.399V23.539z"/>
		<path d="M269.635,24.427l4.075,0.495c0.067,0.474,0.225,0.8,0.47,0.978c0.339,0.254,0.872,0.381,1.6,0.381
			c0.931,0,1.629-0.14,2.095-0.419c0.313-0.187,0.55-0.487,0.711-0.901c0.11-0.297,0.165-0.843,0.165-1.638v-1.968
			c-1.066,1.455-2.412,2.184-4.037,2.184c-1.812,0-3.246-0.767-4.304-2.298c-0.829-1.211-1.244-2.717-1.244-4.52
			c0-2.26,0.544-3.986,1.631-5.18c1.088-1.193,2.44-1.79,4.057-1.79c1.667,0,3.043,0.731,4.126,2.196v-1.892h3.339v12.099
			c0,1.591-0.131,2.78-0.394,3.567s-0.631,1.404-1.104,1.854c-0.474,0.448-1.106,0.8-1.898,1.054
			c-0.791,0.254-1.792,0.381-3.002,0.381c-2.285,0-3.906-0.392-4.862-1.175c-0.956-0.782-1.435-1.775-1.435-2.977
			C269.622,24.74,269.626,24.596,269.635,24.427z M272.821,16.518c0,1.43,0.277,2.478,0.832,3.142
			c0.554,0.665,1.237,0.997,2.05,0.997c0.872,0,1.608-0.341,2.209-1.022c0.601-0.681,0.901-1.69,0.901-3.027
			c0-1.396-0.288-2.434-0.863-3.11c-0.575-0.678-1.304-1.016-2.184-1.016c-0.854,0-1.56,0.332-2.113,0.996
			C273.099,14.142,272.821,15.155,272.821,16.518z"/>
		<path d="M299.253,10.056V12.9h-2.438v5.434c0,1.1,0.023,1.741,0.07,1.923c0.046,0.183,0.152,0.332,0.316,0.451
			c0.166,0.118,0.366,0.178,0.604,0.178c0.33,0,0.809-0.114,1.435-0.343l0.305,2.768c-0.829,0.355-1.769,0.533-2.818,0.533
			c-0.644,0-1.223-0.108-1.739-0.324s-0.895-0.495-1.137-0.838c-0.24-0.343-0.408-0.806-0.501-1.39
			c-0.076-0.415-0.114-1.253-0.114-2.514V12.9h-1.638v-2.844h1.638V7.377l3.58-2.082v4.761H299.253z"/>
		<path d="M300.903,16.607c0-1.186,0.292-2.332,0.876-3.44c0.584-1.109,1.411-1.955,2.481-2.539
			c1.071-0.584,2.267-0.876,3.587-0.876c2.04,0,3.711,0.662,5.015,1.986c1.304,1.325,1.955,2.998,1.955,5.021
			c0,2.039-0.658,3.73-1.975,5.071c-1.315,1.342-2.973,2.013-4.97,2.013c-1.235,0-2.414-0.279-3.536-0.838
			c-1.121-0.559-1.974-1.378-2.558-2.457S300.903,18.156,300.903,16.607z M303.557,8.355l2.666-3.745h3.301l2.628,3.745h-2.869
			l-1.473-1.892l-1.371,1.892H303.557z M304.56,16.797c0,1.337,0.317,2.361,0.952,3.072s1.418,1.066,2.349,1.066
			s1.712-0.355,2.342-1.066c0.631-0.711,0.946-1.744,0.946-3.098c0-1.32-0.315-2.336-0.946-3.047
			c-0.63-0.711-1.411-1.066-2.342-1.066s-1.714,0.355-2.349,1.066S304.56,15.459,304.56,16.797z"/>
		<path d="M317.61,8.228V4.927h3.567v3.301H317.61z M317.61,23.539V10.056h3.567v13.482H317.61z"/>
		<path d="M54.398,51.539l-5.434-13.482h3.745l2.539,6.881l0.736,2.298c0.195-0.584,0.317-0.97,0.368-1.155
			c0.119-0.381,0.246-0.762,0.381-1.143l2.564-6.881h3.669L57.61,51.539H54.398z"/>
		<path d="M72.959,47.248l3.555,0.597c-0.457,1.303-1.179,2.296-2.164,2.977c-0.986,0.682-2.22,1.022-3.701,1.022
			c-2.344,0-4.079-0.767-5.205-2.298c-0.889-1.228-1.333-2.776-1.333-4.646c0-2.234,0.584-3.984,1.752-5.25
			c1.168-1.265,2.646-1.897,4.431-1.897c2.006,0,3.589,0.662,4.748,1.986c1.16,1.325,1.714,3.354,1.663,6.088h-8.938
			c0.025,1.058,0.313,1.881,0.863,2.469c0.551,0.589,1.236,0.883,2.057,0.883c0.559,0,1.028-0.152,1.409-0.457
			S72.765,47.924,72.959,47.248z M66.116,36.355l2.666-3.745h3.301l2.628,3.745h-2.869l-1.473-1.892l-1.371,1.892H66.116z
			 M72.121,31.924h-2.247l-3.504-3.58h3.999L72.121,31.924z M73.162,43.642c-0.025-1.033-0.292-1.817-0.8-2.355
			c-0.508-0.537-1.125-0.806-1.854-0.806c-0.778,0-1.422,0.283-1.93,0.851c-0.508,0.566-0.757,1.337-0.749,2.311H73.162z"/>
		<path d="M99.099,51.539h-3.567v-6.881c0-1.456-0.076-2.397-0.229-2.825c-0.152-0.427-0.4-0.76-0.742-0.996
			c-0.344-0.237-0.756-0.355-1.238-0.355c-0.617,0-1.172,0.169-1.663,0.508c-0.49,0.338-0.827,0.787-1.009,1.346
			c-0.183,0.559-0.273,1.591-0.273,3.098v6.106H86.81V38.056h3.313v1.98c1.177-1.523,2.658-2.285,4.443-2.285
			c0.787,0,1.507,0.142,2.158,0.425c0.651,0.284,1.145,0.646,1.479,1.086c0.335,0.439,0.567,0.939,0.699,1.498
			c0.131,0.559,0.196,1.358,0.196,2.399V51.539z"/>
		<path d="M106.271,32.927v6.843c1.151-1.346,2.526-2.019,4.126-2.019c0.821,0,1.562,0.152,2.222,0.457s1.157,0.693,1.491,1.168
			c0.335,0.474,0.563,0.998,0.686,1.574c0.123,0.575,0.185,1.468,0.185,2.679v7.909h-3.567v-7.122c0-1.414-0.067-2.311-0.203-2.691
			s-0.375-0.684-0.717-0.908c-0.344-0.224-0.772-0.336-1.289-0.336c-0.593,0-1.121,0.144-1.587,0.432
			c-0.466,0.287-0.806,0.722-1.022,1.301c-0.215,0.58-0.323,1.437-0.323,2.571v6.754h-3.567V32.927H106.271z"/>
		<path d="M127.473,51.539V49.52c-0.491,0.719-1.137,1.286-1.936,1.701c-0.801,0.414-1.645,0.622-2.533,0.622
			c-0.905,0-1.718-0.199-2.438-0.597c-0.72-0.398-1.24-0.957-1.562-1.676c-0.321-0.72-0.482-1.714-0.482-2.983v-8.531h3.567v6.195
			c0,1.896,0.065,3.058,0.197,3.484c0.131,0.428,0.37,0.767,0.717,1.016c0.347,0.25,0.787,0.375,1.32,0.375
			c0.609,0,1.155-0.167,1.638-0.502c0.482-0.334,0.813-0.749,0.99-1.244s0.267-1.707,0.267-3.637v-5.688h3.567v13.482H127.473z"/>
		<path d="M153.46,42.042l-3.517,0.635c-0.118-0.703-0.387-1.231-0.807-1.587c-0.418-0.355-0.962-0.533-1.631-0.533
			c-0.889,0-1.598,0.307-2.127,0.92c-0.528,0.614-0.793,1.64-0.793,3.079c0,1.6,0.269,2.729,0.807,3.39
			c0.537,0.66,1.259,0.99,2.164,0.99c0.677,0,1.231-0.192,1.663-0.578c0.432-0.385,0.736-1.047,0.914-1.986l3.504,0.597
			c-0.364,1.607-1.063,2.822-2.095,3.644c-1.032,0.82-2.416,1.231-4.151,1.231c-1.972,0-3.544-0.622-4.716-1.866
			c-1.173-1.244-1.759-2.967-1.759-5.167c0-2.227,0.588-3.959,1.765-5.199c1.177-1.239,2.768-1.859,4.773-1.859
			c1.642,0,2.947,0.354,3.916,1.06C152.341,39.518,153.037,40.595,153.46,42.042z"/>
		<path d="M158.83,42.169l-3.237-0.584c0.364-1.304,0.99-2.269,1.879-2.895c0.889-0.627,2.209-0.939,3.961-0.939
			c1.591,0,2.776,0.188,3.555,0.564c0.778,0.377,1.326,0.855,1.645,1.435c0.316,0.58,0.476,1.645,0.476,3.193l-0.038,4.164
			c0,1.185,0.057,2.059,0.172,2.621c0.113,0.563,0.327,1.166,0.641,1.81h-3.529c-0.093-0.237-0.207-0.589-0.343-1.054
			c-0.06-0.212-0.102-0.352-0.127-0.419c-0.609,0.592-1.261,1.036-1.955,1.333c-0.694,0.296-1.435,0.444-2.222,0.444
			c-1.388,0-2.482-0.377-3.281-1.13c-0.801-0.754-1.2-1.706-1.2-2.856c0-0.762,0.182-1.441,0.546-2.038s0.874-1.054,1.529-1.371
			c0.656-0.317,1.603-0.595,2.838-0.831c1.667-0.313,2.822-0.605,3.466-0.876v-0.355c0-0.686-0.169-1.175-0.508-1.467
			s-0.978-0.438-1.917-0.438c-0.635,0-1.13,0.125-1.485,0.374C159.338,41.105,159.05,41.542,158.83,42.169z M157.256,36.355
			l2.666-3.745h3.301l2.628,3.745h-2.869l-1.473-1.892l-1.371,1.892H157.256z M163.261,31.924h-2.247l-3.504-3.58h3.999
			L163.261,31.924z M163.604,45.064c-0.457,0.152-1.181,0.334-2.171,0.546c-0.99,0.211-1.638,0.419-1.942,0.622
			c-0.466,0.33-0.698,0.749-0.698,1.257c0,0.499,0.187,0.931,0.559,1.295c0.372,0.363,0.847,0.546,1.422,0.546
			c0.644,0,1.257-0.212,1.841-0.635c0.432-0.322,0.715-0.716,0.851-1.181c0.093-0.305,0.14-0.885,0.14-1.739V45.064z"/>
		<path d="M179.498,51.539V49.52c-0.491,0.719-1.137,1.286-1.936,1.701c-0.801,0.414-1.645,0.622-2.533,0.622
			c-0.905,0-1.718-0.199-2.438-0.597c-0.72-0.398-1.24-0.957-1.562-1.676c-0.321-0.72-0.482-1.714-0.482-2.983v-8.531h3.567v6.195
			c0,1.896,0.065,3.058,0.197,3.484c0.131,0.428,0.37,0.767,0.717,1.016c0.347,0.25,0.787,0.375,1.32,0.375
			c0.609,0,1.155-0.167,1.638-0.502c0.482-0.334,0.813-0.749,0.99-1.244s0.267-1.707,0.267-3.637v-5.688h3.567v13.482H179.498z"/>
		<path d="M205.485,42.042l-3.517,0.635c-0.118-0.703-0.387-1.231-0.807-1.587c-0.418-0.355-0.962-0.533-1.631-0.533
			c-0.889,0-1.598,0.307-2.127,0.92c-0.528,0.614-0.793,1.64-0.793,3.079c0,1.6,0.269,2.729,0.807,3.39
			c0.537,0.66,1.259,0.99,2.164,0.99c0.677,0,1.231-0.192,1.663-0.578c0.432-0.385,0.736-1.047,0.914-1.986l3.504,0.597
			c-0.364,1.607-1.063,2.822-2.095,3.644c-1.032,0.82-2.416,1.231-4.151,1.231c-1.972,0-3.544-0.622-4.716-1.866
			c-1.173-1.244-1.759-2.967-1.759-5.167c0-2.227,0.588-3.959,1.765-5.199c1.177-1.239,2.768-1.859,4.773-1.859
			c1.642,0,2.947,0.354,3.916,1.06C204.366,39.518,205.063,40.595,205.485,42.042z"/>
		<path d="M217.063,51.539V49.52c-0.491,0.719-1.137,1.286-1.936,1.701c-0.801,0.414-1.645,0.622-2.533,0.622
			c-0.905,0-1.718-0.199-2.438-0.597c-0.72-0.398-1.24-0.957-1.562-1.676c-0.321-0.72-0.482-1.714-0.482-2.983v-8.531h3.567v6.195
			c0,1.896,0.065,3.058,0.197,3.484c0.131,0.428,0.37,0.767,0.717,1.016c0.347,0.25,0.787,0.375,1.32,0.375
			c0.609,0,1.155-0.167,1.638-0.502c0.482-0.334,0.813-0.749,0.99-1.244s0.267-1.707,0.267-3.637v-5.688h3.567v13.482H217.063z
			 M214.537,34.87c0.448-0.11,0.677-0.305,0.686-0.584c0.009-0.195-0.11-0.36-0.355-0.495c-0.355-0.195-0.918-0.292-1.688-0.292
			c-0.263,0-0.66,0.017-1.193,0.051l-0.14-1.295c0.33-0.068,0.939-0.098,1.828-0.089c1.041,0.008,1.892,0.178,2.552,0.508
			c0.728,0.355,1.101,0.851,1.117,1.485c0.034,0.88-0.736,1.417-2.311,1.612v0.635h-1.422v-1.396
			C214.093,34.958,214.401,34.912,214.537,34.87z"/>
		<path d="M226.737,42.169l-3.237-0.584c0.364-1.304,0.99-2.269,1.879-2.895c0.889-0.627,2.209-0.939,3.961-0.939
			c1.591,0,2.776,0.188,3.555,0.564c0.778,0.377,1.326,0.855,1.645,1.435c0.316,0.58,0.476,1.645,0.476,3.193l-0.038,4.164
			c0,1.185,0.057,2.059,0.172,2.621c0.113,0.563,0.327,1.166,0.641,1.81h-3.529c-0.093-0.237-0.207-0.589-0.343-1.054
			c-0.06-0.212-0.102-0.352-0.127-0.419c-0.609,0.592-1.261,1.036-1.955,1.333c-0.694,0.296-1.435,0.444-2.222,0.444
			c-1.388,0-2.482-0.377-3.281-1.13c-0.801-0.754-1.2-1.706-1.2-2.856c0-0.762,0.182-1.441,0.546-2.038s0.874-1.054,1.529-1.371
			c0.656-0.317,1.603-0.595,2.838-0.831c1.667-0.313,2.822-0.605,3.466-0.876v-0.355c0-0.686-0.169-1.175-0.508-1.467
			s-0.978-0.438-1.917-0.438c-0.635,0-1.13,0.125-1.485,0.374C227.245,41.105,226.957,41.542,226.737,42.169z M231.511,45.064
			c-0.457,0.152-1.181,0.334-2.171,0.546c-0.99,0.211-1.638,0.419-1.942,0.622c-0.466,0.33-0.698,0.749-0.698,1.257
			c0,0.499,0.187,0.931,0.559,1.295c0.372,0.363,0.847,0.546,1.422,0.546c0.644,0,1.257-0.212,1.841-0.635
			c0.432-0.322,0.715-0.716,0.851-1.181c0.093-0.305,0.14-0.885,0.14-1.739V45.064z"/>
		<path d="M245.603,51.539V32.927h3.567v6.703c1.101-1.253,2.403-1.879,3.91-1.879c1.642,0,3,0.595,4.075,1.783
			c1.075,1.189,1.612,2.896,1.612,5.123c0,2.302-0.548,4.075-1.645,5.319c-1.096,1.244-2.427,1.866-3.992,1.866
			c-0.771,0-1.529-0.192-2.279-0.578c-0.748-0.385-1.394-0.954-1.936-1.707v1.98H245.603z M249.145,44.505
			c0,1.396,0.22,2.429,0.66,3.098c0.618,0.947,1.438,1.422,2.463,1.422c0.787,0,1.458-0.337,2.012-1.01
			c0.555-0.673,0.832-1.732,0.832-3.18c0-1.541-0.279-2.651-0.838-3.333c-0.559-0.681-1.273-1.021-2.146-1.021
			c-0.854,0-1.565,0.332-2.133,0.996C249.428,42.142,249.145,43.151,249.145,44.505z"/>
		<path d="M264.303,42.169l-3.237-0.584c0.364-1.304,0.99-2.269,1.879-2.895c0.889-0.627,2.209-0.939,3.961-0.939
			c1.591,0,2.776,0.188,3.555,0.564c0.778,0.377,1.326,0.855,1.645,1.435c0.316,0.58,0.476,1.645,0.476,3.193l-0.038,4.164
			c0,1.185,0.057,2.059,0.172,2.621c0.113,0.563,0.327,1.166,0.641,1.81h-3.529c-0.093-0.237-0.207-0.589-0.343-1.054
			c-0.06-0.212-0.102-0.352-0.127-0.419c-0.609,0.592-1.261,1.036-1.955,1.333c-0.694,0.296-1.435,0.444-2.222,0.444
			c-1.388,0-2.482-0.377-3.281-1.13c-0.801-0.754-1.2-1.706-1.2-2.856c0-0.762,0.182-1.441,0.546-2.038s0.874-1.054,1.529-1.371
			c0.656-0.317,1.603-0.595,2.838-0.831c1.667-0.313,2.822-0.605,3.466-0.876v-0.355c0-0.686-0.169-1.175-0.508-1.467
			s-0.978-0.438-1.917-0.438c-0.635,0-1.13,0.125-1.485,0.374C264.811,41.105,264.522,41.542,264.303,42.169z M269.076,45.064
			c-0.457,0.152-1.181,0.334-2.171,0.546c-0.99,0.211-1.638,0.419-1.942,0.622c-0.466,0.33-0.698,0.749-0.698,1.257
			c0,0.499,0.187,0.931,0.559,1.295c0.372,0.363,0.847,0.546,1.422,0.546c0.644,0,1.257-0.212,1.841-0.635
			c0.432-0.322,0.715-0.716,0.851-1.181c0.093-0.305,0.14-0.885,0.14-1.739V45.064z M264.696,56.629v-3.567h3.567v3.567H264.696z"/>
		<path d="M288.36,51.539h-3.567v-6.881c0-1.456-0.076-2.397-0.229-2.825c-0.152-0.427-0.4-0.76-0.742-0.996
			c-0.344-0.237-0.756-0.355-1.238-0.355c-0.618,0-1.172,0.169-1.663,0.508c-0.491,0.338-0.827,0.787-1.009,1.346
			c-0.183,0.559-0.273,1.591-0.273,3.098v6.106h-3.567V38.056h3.313v1.98c1.177-1.523,2.657-2.285,4.443-2.285
			c0.787,0,1.507,0.142,2.158,0.425c0.651,0.284,1.145,0.646,1.479,1.086c0.335,0.439,0.567,0.939,0.699,1.498
			c0.131,0.559,0.196,1.358,0.196,2.399V51.539z"/>
	</g>
	<g>
		<path d="M24.335,37.427v5.511H0l3.363-4.391C9.762,30.094,12.611,26.31,16.207,21.5c1.027-1.401,1.682-2.803,1.869-3.923
			c0.094-0.841,0-1.542-0.373-2.102c-0.748-1.261-2.522-1.961-4.344-1.682c-1.028,0.187-1.962,0.607-2.71,1.308
			c-0.84,0.794-1.495,1.915-1.821,3.27l-4.857-2.849c0.654-1.775,1.682-3.27,2.989-4.484c1.54-1.401,3.456-2.335,5.56-2.663
			c4.016-0.607,8.032,1.074,9.9,4.25c1.027,1.682,1.401,3.643,1.074,5.745c-0.281,2.055-1.261,4.25-2.896,6.399
			c-2.941,3.923-5.324,7.146-9.527,12.658H24.335z"/>
	</g>
</g>
</svg>
