<?xml version="1.0" encoding="utf-8"?>
<!-- Generator: Adobe Illustrator 16.0.0, SVG Export Plug-In . SVG Version: 6.00 Build 0)  -->
<!DOCTYPE svg PUBLIC "-//W3C//DTD SVG 1.0//EN" "http://www.w3.org/TR/2001/REC-SVG-20010904/DTD/svg10.dtd">
<svg version="1.0" id="Layer_1" xmlns="http://www.w3.org/2000/svg"  x="0px" y="0px"
	 width="208.662px" height="34.657px" viewBox="0 0 208.662 34.657" enable-background="new 0 0 208.662 34.657"
	 xml:space="preserve">
<g>
	<g>
		<path d="M46.217,28.091V6.727h3.34v21.364H46.217z"/>
		<path d="M57.33,14.357v13.734h-3.34V5.719l13.417,14.713V6.727h3.369v22.344L57.33,14.357z"/>
		<path d="M86.554,23.801c-0.604,2.072-2.476,3.715-4.808,4.175c-0.433,0.087-0.864,0.115-1.296,0.115
			c-0.863,0-1.728-0.144-2.533-0.461c-1.354-0.547-2.535-1.439-3.542-2.735l2.649-2.072c0.604,0.806,1.324,1.381,2.102,1.67
			c0.633,0.259,1.324,0.316,1.957,0.172c1.095-0.201,1.987-0.921,2.246-1.785c0.288-0.979-0.374-1.842-0.979-2.418
			c-0.95-0.893-2.505-2.419-2.62-2.534l-2.62-2.476c-0.807-0.777-1.354-1.642-1.642-2.563c-0.288-0.893-0.316-1.843-0.058-2.706
			c0.26-0.922,0.807-1.729,1.584-2.391c0.72-0.604,1.612-1.036,2.563-1.209c1.037-0.23,2.131-0.144,3.167,0.23
			c1.095,0.432,2.073,1.152,2.908,2.16l-2.62,2.102C81.919,9.75,80.796,9.75,80.19,9.866c-0.748,0.144-1.381,0.633-1.555,1.237
			c-0.115,0.403-0.086,1.065,0.807,1.929l3.57,3.428c0.519,0.518,1.152,1.122,1.612,1.555c0.921,0.834,1.556,1.785,1.872,2.793
			C86.813,21.786,86.843,22.823,86.554,23.801z"/>
		<path d="M93.263,6.727h3.513c2.822,0,4.463,1.151,5.327,2.102c1.151,1.268,1.728,2.966,1.728,4.953
			c0,1.986-0.576,3.714-1.728,4.951c-0.864,0.979-2.505,2.131-5.327,2.131h-2.994v7.228h-3.34V6.727H93.263z M100.836,13.782
			c0-0.836-0.173-2.045-0.95-2.908c-0.691-0.749-1.728-1.152-3.11-1.152h-2.994v8.119h2.994c1.383,0,2.419-0.373,3.11-1.123
			C100.663,15.854,100.836,14.645,100.836,13.782z"/>
		<path d="M109.934,15.422h7.803v3.023h-7.803v6.622h9.473v3.023h-9.502h-3.311V6.727h3.311h9.502v2.994h-9.473V15.422z"/>
		<path d="M139.043,26.334c-0.547,0.346-1.123,0.662-1.728,0.922c-1.325,0.547-2.735,0.835-4.176,0.835
			c-1.439,0-2.85-0.288-4.146-0.835s-2.419-1.324-3.397-2.304c-0.979-0.979-1.757-2.102-2.304-3.397s-0.835-2.707-0.835-4.146
			s0.288-2.85,0.835-4.175c0.547-1.267,1.324-2.419,2.304-3.397c0.979-0.979,2.102-1.756,3.397-2.275
			c1.296-0.575,2.706-0.834,4.146-0.834c1.44,0,2.851,0.259,4.176,0.834c0.144,0.059,0.316,0.145,0.46,0.202v3.944
			c-1.295-1.064-2.907-1.641-4.636-1.641c-1.957,0-3.8,0.748-5.183,2.159c-1.382,1.382-2.159,3.226-2.159,5.183
			c0,1.958,0.777,3.801,2.159,5.184c1.383,1.381,3.226,2.159,5.183,2.159c1.958,0,3.801-0.778,5.184-2.159
			c0.259-0.26,0.489-0.519,0.72-0.807V26.334z"/>
		<path d="M156.577,9.721h-5.874v18.37h-3.369V9.721h-5.873V6.727h15.116V9.721z"/>
		<path d="M159.657,28.091V6.727h3.34v21.364H159.657z"/>
		<path d="M173.275,27.256c-1.296-0.547-2.419-1.324-3.397-2.304c-0.979-0.979-1.757-2.102-2.304-3.397s-0.835-2.707-0.835-4.146
			s0.288-2.85,0.835-4.175c0.547-1.267,1.324-2.39,2.304-3.397c0.979-0.979,2.102-1.728,3.397-2.275
			c1.296-0.547,2.707-0.834,4.146-0.834s2.851,0.287,4.175,0.834c1.267,0.548,2.39,1.297,3.397,2.275
			c0.979,1.008,1.728,2.131,2.275,3.397c0.547,1.325,0.835,2.735,0.835,4.175s-0.288,2.851-0.835,4.146
			c-0.548,1.296-1.296,2.418-2.275,3.397c-1.008,0.979-2.131,1.757-3.397,2.304c-1.324,0.547-2.735,0.835-4.175,0.835
			S174.571,27.803,173.275,27.256z M172.239,12.226c-1.383,1.382-2.16,3.226-2.16,5.183c0,1.958,0.777,3.801,2.16,5.184
			c1.382,1.381,3.225,2.159,5.183,2.159s3.801-0.778,5.183-2.159c1.382-1.383,2.159-3.226,2.159-5.184
			c0-1.957-0.777-3.801-2.159-5.183s-3.225-2.159-5.183-2.159S173.621,10.844,172.239,12.226z"/>
		<path d="M195.216,14.357v13.734h-3.34V5.719l13.418,14.713V6.727h3.368v22.344L195.216,14.357z"/>
	</g>
	<g>
		<path d="M10.93,34.657C7.379,34.423,3.736,33.022,0,30.454l3.082-4.438c5.139,3.596,9.996,4.203,13.266,1.775
			c2.334-1.775,3.455-4.858,2.615-7.381c-0.42-1.168-1.168-2.102-2.336-2.803c-1.447-0.887-3.41-1.307-5.838-1.307l-4.625,0.047
			l5.979-10.977H2.195V0h19.104l-6.213,11.303c1.635,0.373,3.082,0.934,4.391,1.682c2.195,1.354,3.783,3.316,4.576,5.698
			c0.795,2.288,0.748,4.903-0.045,7.333c-0.842,2.382-2.383,4.577-4.391,6.072c-2.242,1.682-4.951,2.568-7.895,2.568
			C11.443,34.657,11.162,34.657,10.93,34.657z"/>
	</g>
</g>
</svg>
