<?xml version="1.0" encoding="utf-8"?>
<!-- Generator: Adobe Illustrator 16.0.0, SVG Export Plug-In . SVG Version: 6.00 Build 0)  -->
<!DOCTYPE svg PUBLIC "-//W3C//DTD SVG 1.0//EN" "http://www.w3.org/TR/2001/REC-SVG-20010904/DTD/svg10.dtd">
<svg version="1.0" id="Layer_1" xmlns="http://www.w3.org/2000/svg"  x="0px" y="0px"
	 width="389.073px" height="34.686px" viewBox="0 0 389.073 34.686" enable-background="new 0 0 389.073 34.686"
	 xml:space="preserve">
<g>
	<g>
		<path d="M46.071,28.287V6.922h3.34v21.365H46.071z"/>
		<path d="M57.185,14.552v13.734h-3.34V5.914l13.417,14.713V6.922h3.369v22.344L57.185,14.552z"/>
		<path d="M78.434,15.618h7.803v3.023h-7.803v9.646h-3.34V6.922h3.311h9.531v2.995h-9.502V15.618z"/>
		<path d="M96.284,27.452c-1.296-0.547-2.419-1.325-3.397-2.304c-0.979-0.979-1.757-2.102-2.304-3.397s-0.835-2.707-0.835-4.146
			c0-1.44,0.288-2.851,0.835-4.175c0.547-1.267,1.324-2.39,2.304-3.397c0.979-0.979,2.102-1.728,3.397-2.275
			c1.296-0.547,2.707-0.835,4.146-0.835s2.851,0.288,4.175,0.835c1.267,0.547,2.39,1.296,3.397,2.275
			c0.979,1.008,1.728,2.131,2.275,3.397c0.547,1.325,0.835,2.735,0.835,4.175c0,1.439-0.288,2.85-0.835,4.146
			c-0.548,1.296-1.296,2.418-2.275,3.397c-1.008,0.979-2.131,1.757-3.397,2.304c-1.324,0.547-2.735,0.835-4.175,0.835
			S97.58,27.999,96.284,27.452z M95.248,12.421c-1.383,1.382-2.16,3.225-2.16,5.183c0,1.958,0.777,3.8,2.16,5.183
			c1.382,1.382,3.225,2.16,5.183,2.16s3.801-0.778,5.183-2.16c1.382-1.382,2.159-3.225,2.159-5.183c0-1.958-0.777-3.801-2.159-5.183
			c-1.382-1.382-3.225-2.159-5.183-2.159S96.63,11.04,95.248,12.421z"/>
		<path d="M129.828,28.287h-3.771l-5.385-7.227h-2.447v7.227h-3.34V6.922h2.821h3.513c2.822,0,4.463,1.152,5.327,2.131
			c1.123,1.238,1.728,2.966,1.728,4.953c0,1.958-0.604,3.686-1.728,4.923c-0.519,0.576-1.324,1.238-2.477,1.641L129.828,28.287z
			 M121.219,18.065c1.383,0,2.419-0.403,3.081-1.152c0.807-0.864,0.95-2.073,0.95-2.908c0-0.864-0.144-2.073-0.95-2.937
			c-0.662-0.749-1.698-1.123-3.081-1.123h-2.994v8.12H121.219z"/>
		<path d="M150.069,28.287V16.942l-6.68,9.963l-6.709-9.963v11.345h-3.34V5.943l10.049,14.973l10.049-14.973v22.344H150.069z"/>
		<path d="M169.475,23.708h-7.601l-1.814,4.578h-3.686l9.301-22.344l9.271,22.344h-3.657L169.475,23.708z M168.266,20.714
			l-2.591-6.507l-2.592,6.507H168.266z"/>
		<path d="M191.646,9.917h-5.874v18.37h-3.369V9.917h-5.873V6.922h15.116V9.917z"/>
		<path d="M194.726,28.287V6.922h3.34v21.365H194.726z"/>
		<path d="M208.344,27.452c-1.296-0.547-2.419-1.325-3.397-2.304c-0.979-0.979-1.757-2.102-2.304-3.397s-0.835-2.707-0.835-4.146
			c0-1.44,0.288-2.851,0.835-4.175c0.547-1.267,1.324-2.39,2.304-3.397c0.979-0.979,2.102-1.728,3.397-2.275
			c1.296-0.547,2.707-0.835,4.146-0.835s2.851,0.288,4.175,0.835c1.267,0.547,2.39,1.296,3.397,2.275
			c0.979,1.008,1.728,2.131,2.275,3.397c0.547,1.325,0.835,2.735,0.835,4.175c0,1.439-0.288,2.85-0.835,4.146
			c-0.548,1.296-1.296,2.418-2.275,3.397c-1.008,0.979-2.131,1.757-3.397,2.304c-1.324,0.547-2.735,0.835-4.175,0.835
			S209.64,27.999,208.344,27.452z M207.308,12.421c-1.383,1.382-2.16,3.225-2.16,5.183c0,1.958,0.777,3.8,2.16,5.183
			c1.382,1.382,3.225,2.16,5.183,2.16s3.801-0.778,5.183-2.16c1.382-1.382,2.159-3.225,2.159-5.183c0-1.958-0.777-3.801-2.159-5.183
			c-1.382-1.382-3.225-2.159-5.183-2.159S208.689,11.04,207.308,12.421z"/>
		<path d="M230.284,14.552v13.734h-3.34V5.914l13.417,14.713V6.922h3.369v22.344L230.284,14.552z"/>
		<path d="M260.171,15.618h7.803v3.023h-7.803v6.623h9.473v3.023h-9.502h-3.311V6.922h3.311h9.502v2.995h-9.473V15.618z"/>
		<path d="M288.561,28.287l-5.701-8.35l-5.673,8.35h-4.203l7.773-11.431l-6.766-9.934h4.203l4.665,6.853l4.693-6.853h4.203
			l-6.795,9.934l7.803,11.431H288.561z"/>
		<path d="M312.343,26.53c-0.547,0.346-1.123,0.662-1.728,0.922c-1.325,0.547-2.735,0.835-4.176,0.835
			c-1.439,0-2.85-0.288-4.146-0.835s-2.419-1.325-3.397-2.304c-0.979-0.979-1.757-2.102-2.304-3.397s-0.835-2.707-0.835-4.146
			c0-1.44,0.288-2.851,0.835-4.175c0.547-1.267,1.324-2.418,2.304-3.397c0.979-0.979,2.102-1.756,3.397-2.275
			c1.296-0.576,2.706-0.835,4.146-0.835c1.44,0,2.851,0.259,4.176,0.835c0.144,0.058,0.316,0.144,0.46,0.202v3.945
			c-1.295-1.065-2.907-1.641-4.636-1.641c-1.957,0-3.8,0.749-5.183,2.159c-1.382,1.382-2.159,3.225-2.159,5.183
			c0,1.958,0.777,3.8,2.159,5.183c1.383,1.382,3.226,2.16,5.183,2.16c1.958,0,3.801-0.778,5.184-2.16
			c0.259-0.259,0.489-0.518,0.72-0.806V26.53z"/>
		<path d="M331.346,28.287h-3.341v-9.214h-8.522v9.214h-3.34V6.922h3.34v9.127h8.522V6.922h3.341V28.287z"/>
		<path d="M347.383,23.708h-7.602l-1.814,4.578h-3.686l9.301-22.344l9.271,22.344h-3.657L347.383,23.708z M346.173,20.714
			l-2.591-6.507l-2.592,6.507H346.173z"/>
		<path d="M372.316,20.225v5.787l-0.748,0.518c-0.029,0-0.029,0-0.058,0.029c-0.029,0.029-0.087,0.058-0.115,0.058
			c-0.029,0.028-0.058,0.058-0.087,0.058c-0.028,0.029-0.058,0.058-0.115,0.058c-0.028,0.028-0.058,0.058-0.115,0.087
			c-0.028,0.028-0.057,0.028-0.086,0.057c-0.028,0.029-0.058,0.029-0.086,0.058c-0.058,0.028-0.087,0.028-0.145,0.058
			c-0.028,0.029-0.058,0.029-0.086,0.058c-0.029,0.028-0.087,0.058-0.145,0.058c-0.028,0.029-0.028,0.029-0.058,0.058
			c-0.028,0-0.028,0-0.058,0c-0.028,0.028-0.086,0.058-0.144,0.087c-0.058,0.028-0.144,0.057-0.201,0.086c0,0,0,0-0.029,0.029
			c-1.209,0.547-2.477,0.834-3.829,0.921c0,0,0,0-0.029,0c-0.058,0-0.144,0-0.23,0h-0.028c-0.087,0-0.173,0-0.26,0
			c-1.151,0-2.303-0.173-3.368-0.547c-0.029,0-0.029,0-0.029,0c-0.115-0.028-0.201-0.087-0.316-0.115
			c-0.144-0.058-0.288-0.115-0.432-0.173c-0.375-0.145-0.72-0.316-1.037-0.519c-0.863-0.46-1.67-1.065-2.36-1.785
			c-0.979-0.979-1.757-2.102-2.304-3.397c-0.403-0.979-0.691-2.016-0.777-3.081c-0.029-0.345-0.058-0.72-0.058-1.065
			c0-0.173,0-0.375,0-0.547c0.086-1.238,0.346-2.476,0.835-3.628c0.547-1.267,1.324-2.418,2.304-3.397
			c0.979-0.979,2.102-1.756,3.397-2.275c1.295-0.576,2.706-0.835,4.146-0.835c0.087,0,0.173,0,0.26,0h0.028c0.087,0,0.173,0,0.23,0
			c0.029,0,0.029,0,0.029,0c0.086,0,0.173,0,0.259,0.029c1.238,0.086,2.447,0.375,3.6,0.893c0,0,0,0.029,0.028,0.029
			c0.058,0.029,0.115,0.058,0.173,0.086c0.028,0,0.028,0,0.028,0v3.945c-0.432-0.375-0.921-0.663-1.439-0.921
			c-0.432-0.202-0.893-0.375-1.324-0.49c-0.029,0-0.058,0-0.087-0.029c-0.028,0-0.058,0-0.086,0
			c-0.028-0.029-0.058-0.029-0.115-0.029c0,0-0.028,0-0.058-0.029c-0.115-0.029-0.259-0.029-0.374-0.058c-0.029,0-0.029,0-0.058,0
			c-0.029,0-0.087-0.028-0.115-0.028c-0.029,0-0.029,0-0.058,0c-0.029,0-0.087,0-0.115-0.029c-0.028,0-0.058,0-0.086,0
			c-0.058,0-0.115,0-0.173,0c-0.029,0-0.058-0.029-0.087-0.029c-0.028,0-0.058,0-0.086,0c-0.029,0-0.087,0-0.115,0
			c-0.029,0-0.058,0-0.058,0c-0.058,0-0.145,0-0.202,0c-1.353,0-2.648,0.345-3.771,1.036c-0.028,0.029-0.086,0.058-0.144,0.086
			c-0.461,0.288-0.893,0.634-1.268,1.037c-0.115,0.115-0.259,0.23-0.374,0.375c0,0,0,0.029-0.029,0.029
			c-0.144,0.173-0.259,0.345-0.374,0.518c-0.028,0.029-0.058,0.058-0.058,0.058c-0.058,0.086-0.115,0.173-0.173,0.259
			c-0.028,0.029-0.058,0.086-0.058,0.115c-0.432,0.691-0.72,1.411-0.893,2.188c-0.028,0.029-0.028,0.029-0.028,0.058
			c-0.058,0.288-0.115,0.576-0.145,0.864c0,0.115,0,0.23,0,0.317c-0.028,0.144-0.028,0.259-0.028,0.403c0,0.115,0,0.23,0.028,0.374
			c0.029,0.547,0.115,1.094,0.26,1.612c0.346,1.209,0.979,2.304,1.871,3.196c1.383,1.382,3.225,2.16,5.183,2.16
			c0.058,0,0.145,0,0.202,0c0.028,0,0.058,0,0.086-0.029c0.029,0,0.087,0,0.115,0c0.029,0,0.058,0,0.087,0c0.028,0,0.058,0,0.086,0
			c0.058,0,0.087,0,0.145,0c0-0.029,0.028-0.029,0.058-0.029c0.028,0,0.086,0,0.114,0c0.029,0,0.029,0,0.058,0
			c0.202-0.029,0.433-0.086,0.634-0.115c0.029,0,0.029,0,0.058-0.029c0.029,0,0.086,0,0.115-0.029c0.028,0,0.058,0,0.086,0
			c0.029-0.029,0.058-0.029,0.087-0.029c0.028-0.029,0.086-0.029,0.115-0.029c0.028,0,0.058-0.029,0.058-0.029
			c0.403-0.115,0.806-0.259,1.181-0.461c0,0,0,0,0.028,0v-3.944h-4.031v-3.023h7.371V20.225z"/>
		<path d="M379.601,15.618h7.803v3.023h-7.803v6.623h9.473v3.023h-9.502h-3.311V6.922h3.311h9.502v2.995h-9.473V15.618z"/>
	</g>
	<g>
		<path d="M24.335,29.174v5.512H0l3.363-4.391c6.398-8.454,9.248-12.237,12.844-17.048c1.027-1.401,1.682-2.803,1.869-3.923
			c0.094-0.841,0-1.542-0.373-2.102c-0.748-1.261-2.522-1.961-4.344-1.682c-1.028,0.187-1.962,0.607-2.71,1.308
			c-0.84,0.794-1.495,1.915-1.821,3.27L3.971,7.269C4.625,5.494,5.652,4,6.96,2.785c1.54-1.401,3.456-2.335,5.56-2.663
			c4.016-0.607,8.032,1.074,9.9,4.25c1.027,1.682,1.401,3.643,1.074,5.745c-0.281,2.055-1.261,4.25-2.896,6.399
			c-2.941,3.923-5.324,7.146-9.527,12.657H24.335z"/>
	</g>
</g>
</svg>
