<?xml version="1.0" encoding="utf-8"?>
<!-- Generator: Adobe Illustrator 16.0.0, SVG Export Plug-In . SVG Version: 6.00 Build 0)  -->
<!DOCTYPE svg PUBLIC "-//W3C//DTD SVG 1.1//EN" "http://www.w3.org/Graphics/SVG/1.1/DTD/svg11.dtd">
<svg version="1.1" id="Layer_1" xmlns="http://www.w3.org/2000/svg"  x="0px" y="0px"
	 width="133.2px" height="34.7px" viewBox="0 0 133.2 34.7" enable-background="new 0 0 133.2 34.7" xml:space="preserve">
<g>
	<path fill="none" stroke="#231815" stroke-miterlimit="10" d="M53.7,6.1l2.5,2.3c-0.6,0.8-1,1.3-1.2,1.5c-0.8,1.3-1.7,2.6-2.8,3.9
		c-1.1,1.4-2.2,2.4-3.3,3.2l-3.2-2.6c0.9-0.6,1.8-1.3,2.6-2.1c0.8-0.8,1.4-1.6,1.7-2.2H37.1c-0.6,0-1.7,0.1-3.3,0.2V6.1
		c1.3,0.2,2.4,0.3,3.3,0.3h13.5C52,6.3,53.1,6.3,53.7,6.1z M40.9,11.9h4.6c0,0.1,0,0.2,0,0.4c0,0.9,0,1.5,0,2c0,0.4,0,1.1-0.1,1.9
		s-0.1,1.5-0.2,1.9c-0.1,0.5-0.2,1.1-0.4,1.8c-0.2,0.7-0.4,1.3-0.6,1.8c-0.2,0.5-0.5,1-0.9,1.6c-0.4,0.6-0.8,1.2-1.3,1.6
		c-0.5,0.5-1,0.9-1.7,1.4c-0.6,0.5-1.4,1-2.1,1.4l-3.7-3c1.1-0.4,2-0.9,3-1.6c1.4-1,2.3-2.2,2.8-3.4s0.7-3,0.7-5.2
		C41.1,13.6,41,12.8,40.9,11.9z"/>
	<path fill="none" stroke="#231815" stroke-miterlimit="10" d="M77.4,6.7l3.1,2c-0.2,0.4-0.4,1.1-0.7,2.1c-1.1,4.2-2.4,7.4-3.9,9.4
		c-1.2,1.6-2.7,3-4.5,4.3c-1.8,1.3-3.8,2.3-6.1,3l-3.4-3.8c4.3-1,7.7-3,10.2-6c1.5-1.8,2.4-4.1,2.9-6.7H63.6c-1.1,0-2.2,0-3.4,0.1
		V6.7c1.2,0.2,2.3,0.2,3.4,0.2H75C76,6.9,76.8,6.8,77.4,6.7z"/>
	<path fill="none" stroke="#231815" stroke-miterlimit="10" d="M103.6,7.5l3.2,2c-0.5,0.8-0.8,1.5-1,2.1c-0.9,2.4-2,4.7-3.5,6.7
		c1.1,0.7,1.9,1.2,2.5,1.7l-2.9,3.7c-0.5-0.5-1.3-1.1-2.4-1.9c-2.6,2.8-5.7,4.9-9.2,6.2l-3.7-3.2c3.8-1.2,6.9-3,9.4-5.5
		c-1.5-1-2.9-1.9-4.4-2.7l2.7-3c2.3,1.2,3.7,2,4.4,2.4c1.3-1.8,2-3.4,2.4-4.8h-6.7c-2.1,2.8-4.4,5-6.8,6.7l-3.4-2.6
		c1.1-0.7,2.1-1.4,3-2.2c0.9-0.8,1.7-1.5,2.4-2.3c0.7-0.8,1.2-1.5,1.6-2c0.4-0.6,0.8-1.2,1.3-1.9c0.6-1,1.1-2,1.4-3.1l4.5,1.4
		c-0.5,0.7-1,1.5-1.5,2.5h4.3C102,7.8,102.9,7.7,103.6,7.5z"/>
	<path fill="none" stroke="#231815" stroke-miterlimit="10" d="M111.2,18.5v-5c1.8,0.1,3.3,0.2,4.5,0.2h13.8c0.1,0,1.2-0.1,3.2-0.2
		v5c-0.1,0-0.5,0-1.3-0.1c-0.8-0.1-1.5-0.1-1.9-0.1h-13.8C114.2,18.3,112.7,18.4,111.2,18.5z"/>
</g>
<g>
	<path fill="#010101" d="M11.1,34.7C7.5,34.5,3.8,33.1,0,30.5L3,26c2.9,2,5.8,3.1,8.3,3.2c1.9,0.1,3.6-0.4,4.9-1.5
		c1-0.8,1.7-1.9,2-3.1c0.3-1.2,0.2-2.4-0.2-3.5c-0.6-1.3-1.8-2.4-3.4-3c-2.2-0.9-5.2-1.1-8.6-0.7l-3.5,0.5L4.6,0h16.5v5.4H9.4
		l-0.8,6.4c3-0.1,5.7,0.4,8,1.3c2.9,1.2,5.1,3.2,6.3,5.8c2,4.4,0.7,9.8-3.2,13c-2.2,1.8-4.9,2.8-7.9,2.8
		C11.5,34.7,11.3,34.7,11.1,34.7z"/>
</g>
<g>
</g>
<g>
</g>
<g>
</g>
<g>
</g>
<g>
</g>
<g>
</g>
</svg>
