<?xml version="1.0" encoding="utf-8"?>
<!-- Generator: Adobe Illustrator 16.0.0, SVG Export Plug-In . SVG Version: 6.00 Build 0)  -->
<!DOCTYPE svg PUBLIC "-//W3C//DTD SVG 1.1//EN" "http://www.w3.org/Graphics/SVG/1.1/DTD/svg11.dtd">
<svg version="1.1" xmlns="http://www.w3.org/2000/svg" xmlns:xlink="http://www.w3.org/1999/xlink" x="0px" y="0px"
	 width="216.104px" height="32.942px" viewBox="0 0 216.104 32.942" enable-background="new 0 0 216.104 32.942"
	 xml:space="preserve">
<g id="_x31_0_x3000_特集一覧_x3000_category">
</g>
<g id="_x31_1_x3000_特集個別_x3000_">
</g>
<g id="_x31_2_x3000_サポート_x3000_suport">
	<g>
		<path fill="#B3B3B3" d="M1.61,9.433L0,7.783c0.328-0.275,0.7-0.621,1.118-1.038C1.259,6.604,1.443,6.402,1.67,6.14
			c0.226-0.262,0.435-0.506,0.625-0.732c0.191-0.226,0.437-0.523,0.74-0.892c0.3-0.368,0.53-0.649,0.69-0.845
			C4.142,3.176,4.55,2.916,4.949,2.894c0.399-0.022,0.882,0.198,1.45,0.659C7.128,4.164,8.054,5.087,9.18,6.319
			c1.933,2.103,3.051,3.326,3.355,3.672l-1.463,1.583c-0.881-1.118-1.853-2.306-2.917-3.565C7.064,6.697,6.232,5.796,5.654,5.309
			C5.415,5.096,5.22,4.996,5.069,5.009C4.918,5.022,4.745,5.149,4.55,5.388C4.337,5.654,3.951,6.167,3.394,6.925
			c-0.56,0.758-0.865,1.173-0.919,1.244C2.19,8.551,1.902,8.972,1.61,9.433z M7.982,2.701l1.185-0.492
			c0.505,0.754,0.931,1.481,1.277,2.182L9.22,4.923C8.794,3.991,8.384,3.251,7.982,2.701z M9.818,1.996l1.171-0.532
			c0.514,0.701,0.958,1.411,1.331,2.129l-1.198,0.572C10.679,3.286,10.244,2.563,9.818,1.996z"/>
		<path fill="#B3B3B3" d="M24.973,6.639l-0.785,1.876c-1.25-0.656-2.887-1.33-4.909-2.022v3.858c0,0.444,0.04,1.074,0.12,1.89H17.27
			c0.097-0.647,0.146-1.277,0.146-1.89V2.528c0-0.594-0.049-1.144-0.146-1.65h2.129c-0.08,0.719-0.12,1.269-0.12,1.65v1.996
			c0.913,0.266,1.936,0.61,3.066,1.031S24.352,6.337,24.973,6.639z"/>
		<path fill="#B3B3B3" d="M34.871,3.965h3.073c0.399,0,0.892-0.027,1.477-0.08v1.863c-0.977-0.044-1.473-0.066-1.49-0.066h-3.073
			c-0.045,1.472-0.354,2.754-0.93,3.845c-0.578,1.091-1.563,2.053-2.955,2.887l-1.689-1.251c1.269-0.576,2.188-1.323,2.762-2.242
			c0.571-0.918,0.883-1.998,0.936-3.239h-3.473c-0.195,0-0.718,0.026-1.569,0.08V3.872c0.64,0.063,1.144,0.093,1.517,0.093h3.539
			v-1.49c0-0.656-0.058-1.188-0.173-1.597h2.155c-0.071,0.382-0.106,0.918-0.106,1.61V3.965z"/>
		<path fill="#B3B3B3" d="M53.364,11.455l-1.836,0.812c-0.133-0.355-0.347-0.892-0.639-1.61c-3.3,0.373-5.992,0.666-8.076,0.878
			c-0.125,0.018-0.334,0.044-0.632,0.08c-0.297,0.036-0.512,0.062-0.646,0.08l-0.319-1.982c0.701,0,1.202-0.004,1.504-0.013
			l0.372-0.013c0.799-2.066,1.583-4.457,2.355-7.171c0.177-0.647,0.288-1.171,0.332-1.57l2.155,0.439
			c-0.204,0.452-0.399,0.958-0.585,1.517c-1.251,3.778-1.991,5.983-2.219,6.612c1.106-0.106,2.764-0.288,4.973-0.545
			c-0.55-1.126-1.024-1.956-1.424-2.488l1.703-0.692c0.479,0.728,1.016,1.659,1.609,2.793C52.587,9.717,53.045,10.675,53.364,11.455
			z"/>
		<path fill="#B3B3B3" d="M56.797,7.158c0.703-1.747,1.131-3.472,1.29-5.175l1.996,0.426c-0.178,0.647-0.289,1.095-0.333,1.344
			c-0.098,0.532-0.259,1.2-0.486,2.002c-0.225,0.803-0.451,1.501-0.671,2.096c-0.541,1.455-1.207,2.754-1.996,3.898l-1.916-0.799
			C55.567,9.77,56.275,8.506,56.797,7.158z M63.528,6.878c-0.604-1.667-1.264-3.162-1.982-4.484l1.81-0.585
			c0.674,1.277,1.348,2.767,2.022,4.47c0.567,1.463,1.095,3.046,1.583,4.75l-2.021,0.652C64.486,9.81,64.016,8.209,63.528,6.878z"/>
		<path fill="#B3B3B3" d="M78.832,2.674l1.181,0.718c-0.098,0.275-0.191,0.639-0.279,1.091c-0.258,1.481-0.679,2.768-1.264,3.858
			c-0.542,0.994-1.298,1.843-2.268,2.548c-0.973,0.705-2.07,1.217-3.294,1.537l-1.41-1.636c0.683-0.115,1.321-0.288,1.916-0.519
			c1.339-0.505,2.372-1.286,3.1-2.341c0.62-0.887,1.024-2.053,1.213-3.5h-6.761v1.996c0,0.408,0.013,0.745,0.04,1.011H69.13
			c0.044-0.381,0.066-0.762,0.066-1.144V3.925c0-0.506-0.022-0.896-0.066-1.171c0.398,0.044,0.86,0.066,1.384,0.066h2.913V1.783
			c0-0.399-0.035-0.82-0.106-1.264h2.105c-0.065,0.55-0.097,0.971-0.097,1.264V2.82h2.369C78.177,2.82,78.554,2.772,78.832,2.674z"
			/>
		<path fill="#B3B3B3" d="M91.494,1.583l1.118,0.838c-0.179,0.249-0.336,0.528-0.479,0.838c-0.63,1.437-1.344,2.688-2.142,3.751
			c0.647,0.559,1.337,1.217,2.069,1.976c0.73,0.758,1.31,1.399,1.735,1.922l-1.557,1.344c-0.878-1.206-2.022-2.492-3.433-3.858
			c-1.597,1.686-3.304,2.963-5.122,3.832l-1.396-1.477c1.037-0.39,2.057-0.945,3.06-1.663c1.002-0.719,1.845-1.463,2.528-2.235
			c0.452-0.514,0.864-1.078,1.237-1.689C89.485,4.55,89.747,4,89.898,3.512h-4.617c-0.169,0-0.361,0.007-0.579,0.02
			c-0.217,0.014-0.428,0.029-0.632,0.047s-0.337,0.026-0.398,0.026V1.663c0.496,0.071,1.032,0.106,1.609,0.106h4.803
			C90.67,1.77,91.141,1.708,91.494,1.583z"/>
		<path fill="#B3B3B3" d="M97.016,1.091l1.89,0.173c-0.08,0.204-0.187,0.604-0.319,1.198c-0.444,2.155-0.665,3.805-0.665,4.949
			c0,0.319,0.017,0.608,0.053,0.865c0.07-0.177,0.18-0.419,0.326-0.725c0.147-0.306,0.242-0.517,0.287-0.632l0.838,0.652
			c-0.523,1.526-0.847,2.63-0.971,3.313c-0.051,0.249-0.08,0.457-0.08,0.625c0.008,0.053,0.015,0.144,0.02,0.273
			c0.004,0.128,0.008,0.224,0.008,0.286l-1.559,0.106c-0.346-1.224-0.519-2.696-0.519-4.417c0-0.47,0.024-1,0.075-1.59
			c0.046-0.589,0.093-1.058,0.138-1.404c0.044-0.346,0.11-0.812,0.199-1.396c0.088-0.585,0.137-0.9,0.146-0.945
			C96.971,1.783,97.016,1.339,97.016,1.091z M100.515,7.77l1.557,0.146c-0.115,0.479-0.173,0.856-0.173,1.131
			c0,0.639,0.63,0.958,1.889,0.958c1.082,0,2.209-0.12,3.38-0.359l0.04,1.836c-0.977,0.177-2.138,0.267-3.486,0.267
			c-1.135,0-1.991-0.195-2.567-0.586c-0.577-0.39-0.865-0.935-0.865-1.636C100.289,9.065,100.363,8.479,100.515,7.77z
			 M100.994,3.885l-0.014-1.743c0.887,0.106,1.878,0.155,2.974,0.146c1.096-0.008,2.037-0.057,2.827-0.146v1.743
			C104.865,4.054,102.937,4.054,100.994,3.885z"/>
		<path fill="#B3B3B3" d="M114.99,7.903h-3.778c-0.106,2.182-0.511,3.832-1.211,4.949c-0.133-0.133-0.336-0.306-0.612-0.519
			c-0.275-0.213-0.501-0.364-0.679-0.452c0.656-1.064,0.984-2.781,0.984-5.149V3.273h5.296V7.903z M115.27,0.785v1.463h-6.027V0.785
			H115.27z M113.434,4.723h-2.195v1.729h2.195V4.723z M121.695,4.71v1.57h-1.211v6.559h-1.609V6.28h-1.57
			c-0.168,2.892-0.984,5.069-2.447,6.532c-0.106-0.177-0.286-0.381-0.539-0.612c-0.253-0.231-0.472-0.391-0.659-0.479
			c0.453-0.453,0.825-0.962,1.118-1.53c0.295-0.568,0.505-1.162,0.639-1.783c0.134-0.621,0.223-1.179,0.266-1.676
			c0.044-0.497,0.066-1.046,0.066-1.65V1.331l1.118,0.252c1.48-0.435,2.589-0.878,3.326-1.33l1.423,1.224
			c-1.171,0.568-2.599,1.056-4.284,1.464v1.77H121.695z"/>
		<path fill="#B3B3B3" d="M135,3.273h-7.29c-0.126,0.284-0.307,0.643-0.547,1.078h6.307v6.732c0,0.417-0.051,0.741-0.153,0.971
			c-0.102,0.23-0.286,0.403-0.552,0.519c-0.372,0.177-1.18,0.266-2.422,0.266c-0.071-0.506-0.23-1.029-0.479-1.57
			c0.461,0.027,1.033,0.04,1.716,0.04c0.204-0.009,0.306-0.097,0.306-0.266v-0.825h-4.909v2.607h-1.61v-5.92
			c-0.577,0.63-1.176,1.158-1.796,1.583c-0.231-0.363-0.585-0.776-1.064-1.237c1.375-0.922,2.506-2.249,3.393-3.978h-2.993V1.756
			h3.672c0.239-0.63,0.417-1.18,0.534-1.65l1.675,0.373c-0.133,0.426-0.279,0.852-0.439,1.277H135V3.273z M131.887,6.639V5.774
			h-4.909v0.865H131.887z M126.978,8.874h4.909V7.996h-4.909V8.874z"/>
		<path fill="#B3B3B3" d="M143.169,12.213l-1.012-1.597c0.479-0.062,0.9-0.133,1.264-0.212c0.905-0.213,1.641-0.634,2.208-1.264
			c0.567-0.629,0.852-1.415,0.852-2.355c0-0.94-0.246-1.729-0.739-2.368c-0.492-0.639-1.186-1.038-2.082-1.197
			c-0.249,1.508-0.515,2.732-0.799,3.672c-0.408,1.393-0.901,2.471-1.49,3.233c-0.585,0.763-1.242,1.144-1.969,1.144
			c-0.754,0-1.399-0.375-1.936-1.124c-0.537-0.749-0.805-1.683-0.805-2.801c0-1.57,0.603-2.924,1.809-4.064
			c1.206-1.14,2.674-1.709,4.404-1.709c1.632,0,2.946,0.503,3.945,1.51c0.997,1.007,1.496,2.264,1.496,3.771
			c0,1.437-0.439,2.626-1.317,3.566C146.122,11.358,144.845,11.956,143.169,12.213z M139.47,9.207c0.558,0,1.104-0.891,1.636-2.674
			c0.319-0.993,0.563-2.084,0.733-3.272c-1.048,0.222-1.88,0.725-2.496,1.51c-0.617,0.785-0.925,1.586-0.925,2.401
			c0,0.639,0.106,1.138,0.319,1.497C138.951,9.027,139.194,9.207,139.47,9.207z"/>
		<path fill="#B3B3B3" d="M151.856,5.149V3.233c-0.471,0.337-0.834,0.577-1.091,0.718c-0.408-0.514-0.798-0.909-1.171-1.184
			c0.692-0.319,1.355-0.714,1.989-1.185c0.634-0.47,1.142-0.958,1.523-1.463l1.463,0.545c-0.346,0.453-0.74,0.887-1.184,1.304v3.18
			H151.856z M160.851,10.763h-2.143c1.375,0.444,2.595,0.896,3.659,1.357l-1.956,0.719c-0.825-0.453-1.987-0.927-3.485-1.424
			l1.17-0.652h-3.765l1.078,0.492c-1.1,0.647-2.519,1.188-4.257,1.624c-0.346-0.435-0.736-0.821-1.171-1.158
			c1.464-0.249,2.665-0.567,3.605-0.958h-1.822V5.535h9.087V10.763z M153.333,6.466v0.532h5.867V6.466H153.333z M153.333,7.863
			v0.545h5.867V7.863H153.333z M153.333,9.287v0.559h5.867V9.287H153.333z M157.205,2.168V1.623
			c-0.487,0.027-1.229,0.049-2.222,0.066c-0.054-0.328-0.16-0.656-0.319-0.984c2.571-0.08,4.585-0.253,6.04-0.519l0.812,0.998
			c-0.737,0.133-1.655,0.244-2.754,0.333v0.652h3.459v1.131h-3.459v0.625h3.007v1.118h-7.318V3.925h2.754V3.299H154V2.168H157.205z"
			/>
		<path fill="#B3B3B3" d="M165.906,4.683V3.02c-0.453,0.319-0.94,0.617-1.464,0.892c-0.426-0.541-0.808-0.927-1.144-1.158
			c0.762-0.328,1.489-0.734,2.175-1.217c0.688-0.483,1.244-0.996,1.67-1.537l1.477,0.559c-0.329,0.426-0.714,0.838-1.157,1.237
			v2.887H165.906z M174.461,10.55h-2.355c1.49,0.532,2.785,1.064,3.885,1.597l-1.876,0.718c-0.852-0.497-2.036-1.033-3.552-1.61
			l1.237-0.705h-3.991l1.25,0.545c-1.064,0.692-2.484,1.286-4.257,1.783c-0.461-0.506-0.86-0.901-1.197-1.185
			c1.507-0.274,2.758-0.656,3.752-1.144h-2.01V5.016h8.422c-0.683-0.071-1.33-0.301-1.942-0.692c-0.612-0.39-1.126-0.9-1.543-1.53
			l-2.3,0.146l-0.12-1.198l1.834-0.12c-0.186-0.532-0.306-1.033-0.36-1.503h1.518c0.053,0.444,0.203,0.918,0.452,1.424l2.115-0.12
			c-0.621-0.257-1.185-0.448-1.689-0.572l0.731-0.771c0.967,0.168,1.747,0.421,2.342,0.758l-0.479,0.532l1.397-0.08l0.133,1.171
			l-3.712,0.213c0.674,0.647,1.395,0.971,2.155,0.971c0.178-0.009,0.3-0.078,0.366-0.206c0.069-0.129,0.118-0.37,0.153-0.726
			c0.328,0.258,0.723,0.444,1.184,0.559c-0.08,0.656-0.235,1.109-0.466,1.357c-0.231,0.249-0.59,0.386-1.077,0.413V10.55z
			 M166.917,5.987v0.585h5.907V5.987H166.917z M166.917,7.49v0.585h5.907V7.49H166.917z M166.917,8.98v0.599h5.907V8.98H166.917z"/>
		<path fill="#B3B3B3" d="M182.19,6.12l0.213,1.437c-0.178,0.045-0.428,0.12-0.751,0.227c-0.324,0.106-0.562,0.182-0.712,0.226
			v4.843h-1.491V8.448c-0.168,0.053-0.395,0.122-0.678,0.206c-0.284,0.084-0.537,0.16-0.759,0.227
			c-0.222,0.066-0.426,0.122-0.611,0.166l-0.386-1.53c0.426-0.089,1.237-0.297,2.435-0.625V4.284h-0.918
			c-0.142,0.647-0.311,1.229-0.505,1.743c-0.249-0.204-0.631-0.452-1.145-0.745c0.373-0.949,0.634-2.412,0.785-4.39l1.344,0.226
			c-0.053,0.515-0.12,1.056-0.199,1.623h0.638V0.133h1.491v2.608h1.13v1.543h-1.13v2.195L182.19,6.12z M184.612,2.222h5.123
			c-0.009,0.373-0.019,0.621-0.027,0.745c-0.124,3.042-0.262,5.215-0.413,6.519c-0.151,1.304-0.354,2.125-0.612,2.461
			c-0.258,0.381-0.612,0.616-1.064,0.705c-0.334,0.062-0.847,0.075-1.53,0.04c-0.054-0.577-0.205-1.104-0.452-1.583
			c0.336,0.036,0.739,0.053,1.21,0.053c0.204,0,0.373-0.084,0.506-0.252c0.346-0.435,0.612-2.83,0.799-7.185h-0.067
			c-0.364,1.863-0.904,3.582-1.623,5.156c-0.718,1.574-1.596,2.787-2.634,3.639c-0.373-0.373-0.816-0.688-1.331-0.945
			c1.038-0.745,1.911-1.812,2.621-3.2c0.71-1.388,1.246-2.938,1.61-4.65h-0.639c-0.319,1.171-0.757,2.304-1.311,3.399
			s-1.16,1.954-1.816,2.574c-0.337-0.354-0.75-0.661-1.235-0.918c0.636-0.505,1.217-1.212,1.741-2.122
			c0.523-0.909,0.947-1.887,1.264-2.934h-0.691c-0.426,1.002-0.892,1.814-1.397,2.435c-0.275-0.275-0.688-0.577-1.237-0.905
			c1.02-1.118,1.765-2.83,2.235-5.136l1.477,0.266C185.02,0.83,184.852,1.441,184.612,2.222z"/>
		<path fill="#B3B3B3" d="M193.565,0.173l1.546,0.492c-0.384,1.002-0.832,1.969-1.345,2.9v9.26h-1.531V5.974
			c-0.16,0.204-0.435,0.532-0.825,0.984c-0.183-0.514-0.475-1.078-0.864-1.689c0.603-0.612,1.175-1.375,1.716-2.289
			C192.803,2.067,193.237,1.131,193.565,0.173z M203.358,6.679v1.583h-3.486v4.577h-1.637V8.262h-3.672V6.679h3.672V4.337h-1.66
			c-0.251,0.674-0.53,1.259-0.841,1.756c-0.408-0.284-0.878-0.541-1.41-0.771c0.7-1.011,1.237-2.497,1.609-4.457l1.57,0.333
			c-0.063,0.329-0.195,0.848-0.399,1.557h1.131V0.293h1.637v2.461h2.847v1.583h-2.847v2.341H203.358z"/>
		<path fill="#B3B3B3" d="M212.352,9.699h-1.623c0.018-0.248,0.038-0.785,0.053-1.61c-1.03,0.559-1.543,1.14-1.543,1.743
			c0,0.355,0.155,0.601,0.466,0.738c0.31,0.138,0.812,0.206,1.503,0.206c1.286,0,2.563-0.128,3.832-0.386l-0.053,1.756
			c-1.207,0.142-2.48,0.213-3.818,0.213c-2.474,0-3.712-0.75-3.712-2.249c0-0.408,0.089-0.796,0.267-1.164s0.43-0.701,0.758-0.998
			c0.328-0.297,0.659-0.554,0.991-0.771c0.333-0.217,0.721-0.437,1.164-0.659c-0.194-0.31-0.51-0.465-0.943-0.465
			c-0.365,0-0.737,0.089-1.118,0.266c-0.382,0.178-0.71,0.399-0.984,0.666c-0.293,0.292-0.715,0.785-1.264,1.477l-1.437-1.078
			c1.384-1.277,2.373-2.51,2.967-3.698h-0.159c-0.834,0-1.59-0.031-2.275-0.093V2.009c0.62,0.098,1.41,0.146,2.368,0.146h0.652
			c0.177-0.665,0.27-1.175,0.279-1.53l1.77,0.146c-0.08,0.408-0.191,0.852-0.333,1.331c1.508-0.08,2.781-0.213,3.818-0.399
			l-0.011,1.583c-1.226,0.178-2.695,0.297-4.406,0.359c-0.231,0.515-0.488,0.967-0.771,1.357c0.372-0.177,0.878-0.266,1.517-0.266
			c0.416,0,0.785,0.091,1.104,0.273s0.555,0.441,0.705,0.778c0.39-0.187,0.998-0.457,1.822-0.812
			c0.195-0.088,0.461-0.213,0.799-0.372c0.336-0.16,0.563-0.266,0.678-0.319l0.692,1.57c-0.302,0.071-0.838,0.262-1.61,0.572
			c-0.904,0.346-1.635,0.648-2.195,0.905c0.008,0.293,0.022,0.745,0.034,1.357C212.345,9.3,212.352,9.637,212.352,9.699z"/>
		<path fill="#B3B3B3" d="M11.083,26.051l0.186,1.45c-0.151,0.044-0.365,0.106-0.639,0.186c-0.274,0.08-0.465,0.133-0.571,0.16
			v3.246c0,0.781-0.191,1.273-0.57,1.477c-0.375,0.222-1.053,0.333-2.038,0.333c-0.045-0.47-0.196-0.998-0.453-1.583
			c0.576,0.026,0.998,0.031,1.265,0.013c0.159,0,0.239-0.084,0.239-0.253v-2.794l-1.518,0.413l-0.332-1.57
			c0.028-0.009,0.643-0.151,1.85-0.426v-2.448H6.919v-1.49h1.583V20.21h1.557v2.555h1.133v1.49h-1.133v2.062L11.083,26.051z
			 M14.103,26.197h5.149c-0.009,0.292-0.022,0.501-0.04,0.625c-0.089,1.792-0.198,3.093-0.326,3.905
			c-0.129,0.812-0.304,1.346-0.524,1.604c-0.239,0.292-0.598,0.474-1.079,0.545c-0.398,0.035-0.976,0.04-1.729,0.013
			c-0.027-0.399-0.134-0.794-0.32-1.184h-1.53c-0.665,0-1.107-0.113-1.33-0.339c-0.222-0.226-0.333-0.654-0.333-1.284v-1.104
			c-0.248,0.222-0.425,0.377-0.531,0.466c-0.125-0.16-0.304-0.354-0.54-0.585c-0.234-0.23-0.432-0.403-0.591-0.519
			c1.02-0.683,1.823-1.654,2.408-2.914h-0.877v-4.816h6.718v4.816h-4.177C14.351,25.683,14.236,25.94,14.103,26.197z M13.877,30.468
			h1.25c0.16,0,0.264-0.046,0.313-0.14c0.049-0.093,0.084-0.308,0.1-0.646c0.32,0.222,0.723,0.386,1.21,0.492
			c-0.053,0.426-0.138,0.748-0.253,0.965s-0.284,0.37-0.505,0.459c0.159,0.009,0.35,0.013,0.572,0.013
			c0.203,0,0.367-0.062,0.492-0.186c0.274-0.275,0.479-1.57,0.611-3.885h-4.377c-0.026,0.036-0.064,0.086-0.113,0.153
			c-0.048,0.066-0.086,0.118-0.112,0.153h0.359v0.732c0.816-0.222,1.463-0.453,1.942-0.692l0.945,0.998
			c-0.754,0.319-1.715,0.594-2.887,0.825v0.359c0,0.178,0.027,0.289,0.08,0.333C13.558,30.446,13.681,30.468,13.877,30.468z
			 M13.372,21.753v0.732h3.711v-0.732H13.372z M13.372,23.549v0.732h3.711v-0.732H13.372z"/>
		<path fill="#B3B3B3" d="M31.093,24.986l1.437,0.452c-0.559,1.748-1.295,3.247-2.209,4.497c0.32,0.931,0.674,1.397,1.066,1.397
			c0.255,0,0.415-0.745,0.479-2.235c0.37,0.399,0.796,0.688,1.275,0.864c-0.106,1.153-0.298,1.934-0.572,2.342
			c-0.275,0.408-0.719,0.612-1.331,0.612c-0.834,0-1.516-0.542-2.048-1.624c-0.631,0.647-1.287,1.198-1.97,1.65
			c-0.222-0.399-0.581-0.808-1.077-1.224h-1.264v1.211h-1.423v-1.211h-2.675v-1.17h2.675v-0.532h-2.235v-3.353h2.208V26.13h-2.447
			V25h2.447v-0.599h-2.82V23.07h2.794v-0.731h-2.195v-1.224h2.195V20.21h1.557v0.905h2.182v1.224h-2.182v0.731h2.86
			c-0.035-0.842-0.053-1.796-0.053-2.86h1.636c-0.026,0.816-0.022,1.77,0.014,2.86h3.526v1.331h-3.473
			c0.089,1.366,0.216,2.528,0.373,3.486C30.365,26.982,30.781,26.015,31.093,24.986z M22.352,27.448v0.505h1.224v-0.505H22.352z
			 M22.352,28.725v0.506h1.224v-0.506H22.352z M24.746,27.953h1.264v-0.505h-1.264V27.953z M24.746,29.23h1.264v-0.506h-1.264V29.23
			z M27.367,30.548v0.292c0.479-0.39,0.892-0.789,1.237-1.197c-0.364-1.357-0.604-3.104-0.718-5.242h-2.994V25h2.488v1.131h-2.488
			v0.532h2.302v3.353h-2.315v0.532H27.367z M32.756,22.112l-1.277,0.878c-0.311-0.541-0.856-1.193-1.637-1.956l1.197-0.785
			C31.855,20.995,32.427,21.616,32.756,22.112z"/>
		<path fill="#B3B3B3" d="M44.955,22.006l0.32,1.703c-0.816,0.222-1.578,0.404-2.289,0.546c0.604,1.268,1.185,2.417,1.743,3.445
			l-0.958,1.024c-1.037-0.212-2.058-0.376-3.06-0.492l0.146-1.396c0.114,0.009,0.372,0.035,0.771,0.08
			c0.398,0.044,0.673,0.071,0.824,0.08c-0.132-0.274-0.527-1.1-1.184-2.475c-1.65,0.169-3.544,0.169-5.682,0l-0.065-1.729
			c1.844,0.231,3.525,0.275,5.042,0.133c-0.08-0.16-0.173-0.373-0.279-0.639c-0.213-0.479-0.435-0.909-0.666-1.291l1.903-0.373
			c0.203,0.647,0.465,1.335,0.785,2.062C43.239,22.516,44.121,22.29,44.955,22.006z M36.161,27.301l1.743,0.146
			c-0.249,0.683-0.373,1.22-0.373,1.61c0,0.532,0.178,0.94,0.532,1.224c0.354,0.284,0.98,0.426,1.877,0.426
			c0.585,0,1.123-0.022,1.616-0.066c0.492-0.044,0.838-0.084,1.038-0.12c0.199-0.036,0.542-0.102,1.03-0.2l-0.04,1.783
			c-1.188,0.213-2.403,0.319-3.645,0.319c-1.357,0-2.392-0.249-3.101-0.745c-0.71-0.497-1.064-1.215-1.064-2.156
			C35.775,28.974,35.904,28.232,36.161,27.301z"/>
		<path fill="#B3B3B3" d="M55.759,21.088h1.823c-0.036,0.16-0.062,0.546-0.08,1.158c-0.009,0.47-0.022,0.958-0.04,1.463
			c0.532-0.035,0.874-0.057,1.024-0.066c0.044,0,0.23-0.013,0.559-0.04c0.328-0.026,0.572-0.044,0.731-0.053v1.663
			c-0.23-0.018-0.663-0.013-1.304,0.013c-0.505,0.027-0.852,0.045-1.037,0.054c-0.054,1.366-0.12,2.262-0.2,2.688
			c-0.063,0.337-0.182,0.57-0.359,0.698c-0.178,0.129-0.448,0.193-0.81,0.193c-0.561,0-1.239-0.066-2.037-0.2l0.04-1.49
			c0.567,0.106,0.98,0.16,1.237,0.16c0.142,0,0.244-0.02,0.306-0.06c0.062-0.04,0.102-0.122,0.12-0.246
			c0.044-0.328,0.075-0.869,0.094-1.623c-1.234,0.098-2.455,0.208-3.66,0.333c-0.019,1.659-0.019,2.679,0,3.06
			c0.008,0.302,0.026,0.528,0.053,0.678c0.027,0.151,0.075,0.302,0.146,0.453c0.071,0.151,0.188,0.252,0.353,0.306
			c0.164,0.053,0.372,0.098,0.628,0.133c0.25,0.036,0.584,0.053,1.002,0.053c1.384,0,2.728-0.12,4.031-0.359l-0.066,1.85
			c-1.304,0.15-2.586,0.226-3.845,0.226c-0.71,0-1.295-0.036-1.756-0.106c-0.461-0.071-0.84-0.171-1.138-0.299
			c-0.297-0.128-0.521-0.326-0.672-0.592c-0.151-0.266-0.254-0.552-0.313-0.858c-0.058-0.306-0.091-0.712-0.1-1.217
			c-0.009-0.381-0.011-1.428-0.011-3.14l-0.92,0.093c-0.027,0-0.568,0.08-1.624,0.239l-0.173-1.729c0.453,0,1.016-0.026,1.69-0.08
			l1.026-0.093v-1.357c0-0.488-0.038-0.989-0.108-1.503h1.903c-0.054,0.452-0.08,0.918-0.08,1.397c0,0.515-0.005,0.949-0.012,1.304
			c0.185-0.018,0.723-0.068,1.615-0.153c0.891-0.084,1.576-0.148,2.055-0.193v-1.53C55.852,21.869,55.82,21.461,55.759,21.088z"/>
		<path fill="#B3B3B3" d="M62.012,24.241l-0.159-1.849c0.46-0.009,0.899-0.036,1.317-0.08c0.204-0.017,2.142-0.186,5.814-0.505
			c1.499-0.115,2.771-0.195,3.818-0.239l0.014,1.743c-1.207,0-2.071,0.058-2.595,0.173c-0.799,0.213-1.473,0.692-2.022,1.437
			s-0.825,1.526-0.825,2.341c0,0.532,0.118,1,0.352,1.404c0.235,0.404,0.561,0.723,0.979,0.958c0.418,0.235,0.873,0.415,1.37,0.539
			c0.496,0.125,1.049,0.204,1.65,0.24l-0.625,1.862c-0.728-0.044-1.415-0.177-2.062-0.399c-0.648-0.222-1.231-0.519-1.75-0.892
			c-0.52-0.373-0.931-0.847-1.237-1.423c-0.304-0.576-0.459-1.215-0.459-1.916c0-0.896,0.201-1.716,0.605-2.461
			c0.403-0.745,0.866-1.313,1.39-1.703C64.979,23.736,63.12,23.993,62.012,24.241z"/>
		<path fill="#B3B3B3" d="M79.813,22.472H78.35v8.235c0,0.417-0.046,0.743-0.14,0.978c-0.093,0.235-0.259,0.415-0.499,0.539
			c-0.399,0.204-1.157,0.297-2.275,0.279c-0.062-0.515-0.219-1.033-0.479-1.557c0.426,0.018,0.939,0.026,1.545,0.026
			c0.179-0.008,0.265-0.102,0.265-0.279v-8.222h-1.876v-1.517h4.923V22.472z M87.117,30.215h-5.109l1.25,0.865
			c-0.435,0.337-0.974,0.667-1.617,0.991c-0.643,0.324-1.27,0.592-1.882,0.805c-0.222-0.329-0.55-0.701-0.984-1.118
			c0.559-0.177,1.132-0.41,1.716-0.699c0.586-0.288,1.043-0.569,1.371-0.845h-1.384v-7.171h2.118l0.197-0.958h-2.754v-1.357h7.504
			v1.357h-2.927c-0.036,0.098-0.096,0.255-0.181,0.472c-0.084,0.218-0.144,0.379-0.179,0.486h2.86V30.215z M81.969,24.228v0.852
			h3.579v-0.852H81.969z M81.969,26.184v0.865h3.579v-0.865H81.969z M81.969,28.18v0.864h3.579V28.18H81.969z M83.951,31.106
			l1.197-0.865c1.197,0.647,2.097,1.22,2.701,1.716l-1.291,0.958C86.053,32.445,85.184,31.842,83.951,31.106z"/>
		<path fill="#B3B3B3" d="M89.911,20.968l2.009,0.2c-0.186,0.585-0.292,0.949-0.319,1.091c-0.585,2.661-0.736,4.661-0.452,6
			c0.044-0.097,0.143-0.335,0.293-0.712c0.15-0.376,0.268-0.659,0.346-0.845l0.852,0.532c-0.391,1.144-0.697,2.244-0.918,3.299
			c-0.063,0.231-0.093,0.448-0.093,0.652l0.04,0.559l-1.503,0.146c-0.187-0.523-0.364-1.193-0.532-2.009
			c-0.169-0.816-0.253-1.601-0.253-2.355c0-1.694,0.15-3.49,0.452-5.388C89.886,21.829,89.911,21.438,89.911,20.968z
			 M100.581,23.336l-0.013,1.756c-0.657,0.08-1.322,0.138-1.996,0.173v0.559c0,0.718-0.016,1.315-0.046,1.789
			c-0.032,0.475-0.103,0.974-0.213,1.497c-0.111,0.523-0.271,0.974-0.486,1.35c-0.213,0.377-0.498,0.756-0.858,1.138
			c-0.358,0.381-0.805,0.74-1.337,1.078l-1.557-1.237c0.666-0.292,1.188-0.647,1.57-1.064c0.496-0.514,0.832-1.104,1.004-1.77
			c0.174-0.665,0.26-1.592,0.26-2.78v-0.493c-0.674,0.018-1.18,0.027-1.517,0.027c-0.284,0-0.98-0.022-2.089-0.066v-1.716
			c0.63,0.089,1.313,0.133,2.05,0.133c0.329,0,0.838-0.009,1.529-0.026c-0.009-0.612-0.035-1.215-0.08-1.81
			c-0.036-0.417-0.084-0.727-0.146-0.931h1.984c-0.028,0.133-0.051,0.439-0.068,0.918c-0.018,0.408-0.026,0.984-0.026,1.729
			C99.291,23.536,99.969,23.452,100.581,23.336z"/>
		<path fill="#B3B3B3" d="M109.469,22.219l0.04,1.57c-0.808,0.213-1.589,0.368-2.342,0.466c-0.319,0.958-0.745,1.969-1.277,3.033
			s-1.069,1.978-1.609,2.741l-1.65-0.825c0.515-0.621,1.02-1.373,1.517-2.255c0.499-0.882,0.909-1.723,1.237-2.521
			c-0.151,0.009-0.386,0.013-0.706,0.013c-0.541,0-1.104-0.013-1.689-0.04l-0.12-1.583c0.551,0.062,1.148,0.093,1.797,0.093
			c0.39,0,0.793-0.014,1.21-0.04c0.222-0.896,0.347-1.65,0.373-2.262l1.862,0.199c-0.23,0.94-0.382,1.553-0.452,1.836
			C108.227,22.547,108.83,22.405,109.469,22.219z M109.575,25h1.703c-0.019,0.275-0.019,0.852,0,1.73
			c0.018,0.585,0.044,1.153,0.08,1.703c1.011,0.382,1.942,0.958,2.793,1.729l-0.902,1.45c-0.694-0.639-1.303-1.118-1.823-1.437v0.12
			c0,0.674-0.208,1.215-0.621,1.623c-0.412,0.408-1.071,0.612-1.976,0.612c-0.878,0-1.599-0.193-2.162-0.579
			s-0.845-0.938-0.845-1.656c0-0.674,0.271-1.233,0.812-1.677c0.541-0.443,1.269-0.665,2.183-0.665c0.212,0,0.514,0.018,0.906,0.053
			C109.724,27.9,109.672,26.898,109.575,25z M109.788,29.723V29.47c-0.399-0.088-0.764-0.133-1.091-0.133
			c-0.382,0-0.69,0.073-0.926,0.22c-0.234,0.146-0.352,0.339-0.352,0.579c0,0.257,0.102,0.463,0.306,0.619
			c0.205,0.155,0.487,0.233,0.852,0.233C109.384,30.987,109.788,30.565,109.788,29.723z M114.551,24.294l-0.958,1.424
			c-0.372-0.302-0.881-0.641-1.537-1.018c-0.652-0.376-1.222-0.676-1.709-0.898l0.878-1.331c0.497,0.222,1.094,0.521,1.789,0.898
			C113.711,23.747,114.223,24.055,114.551,24.294z"/>
		<path fill="#B3B3B3" d="M116.813,22.006l2.063,0.026c-0.106,0.55-0.16,1.096-0.16,1.636c-0.018,1.064,0.008,2.019,0.08,2.861
			c0.213,2.182,0.699,3.273,1.45,3.273c0.283,0,0.553-0.271,0.805-0.812c0.253-0.541,0.459-1.153,0.619-1.836l1.37,1.637
			c-0.444,1.144-0.887,1.958-1.33,2.441c-0.444,0.483-0.945,0.725-1.504,0.725c-0.798,0-1.477-0.397-2.035-1.191
			c-0.559-0.793-0.932-2.046-1.118-3.758c-0.098-1.011-0.146-2.226-0.146-3.646C116.906,22.778,116.874,22.325,116.813,22.006z
			 M123.904,22.884l1.716-0.572c0.612,0.754,1.157,1.823,1.637,3.207c0.479,1.384,0.758,2.617,0.838,3.699l-1.796,0.678
			c-0.113-1.286-0.375-2.585-0.779-3.898C125.117,24.685,124.577,23.647,123.904,22.884z"/>
		<path fill="#B3B3B3" d="M130.104,24.268l-0.173-1.85c0.487-0.009,0.927-0.035,1.317-0.08c0.327-0.027,0.785-0.066,1.37-0.12
			c0.585-0.053,1.319-0.117,2.202-0.192c0.883-0.076,1.634-0.14,2.255-0.193c1.517-0.115,2.789-0.195,3.818-0.239l0.014,1.743
			c-1.171,0-2.036,0.063-2.595,0.187c-0.807,0.213-1.486,0.689-2.035,1.43c-0.551,0.741-0.825,1.519-0.825,2.335
			c0,0.532,0.118,1,0.354,1.403c0.232,0.404,0.559,0.726,0.976,0.965c0.417,0.239,0.876,0.421,1.376,0.545
			c0.501,0.125,1.053,0.2,1.657,0.226l-0.626,1.863c-0.726-0.044-1.412-0.175-2.063-0.393c-0.647-0.217-1.23-0.512-1.749-0.885
			c-0.52-0.373-0.931-0.847-1.238-1.423c-0.306-0.577-0.456-1.22-0.456-1.929c0-0.896,0.197-1.714,0.597-2.455
			c0.398-0.741,0.867-1.306,1.396-1.696C133.027,23.785,131.168,24.038,130.104,24.268z M138.007,25.066l1.011-0.413
			c0.496,0.736,0.86,1.353,1.091,1.849l-1.037,0.466C138.707,26.18,138.353,25.545,138.007,25.066z M139.55,24.481l0.984-0.466
			c0.399,0.55,0.78,1.158,1.145,1.823l-1.011,0.479C140.321,25.634,139.949,25.022,139.55,24.481z"/>
		<path fill="#B3B3B3" d="M145.457,20.942l2.182,0.026c-0.098,0.621-0.155,1.22-0.173,1.796c-0.115,2.51-0.173,4.559-0.173,6.146
			c0,1.197,0.62,1.796,1.862,1.796c1.871,0,3.411-0.918,4.617-2.754l1.224,1.517c-0.248,0.364-0.538,0.708-0.872,1.031
			c-0.331,0.324-0.737,0.648-1.217,0.971c-0.479,0.324-1.045,0.583-1.695,0.778c-0.653,0.195-1.343,0.292-2.069,0.292
			c-1.153,0-2.049-0.266-2.688-0.798s-0.958-1.353-0.958-2.461c0-0.656,0.021-1.825,0.066-3.506c0.044-1.68,0.066-2.685,0.066-3.013
			C145.63,22.064,145.572,21.457,145.457,20.942z"/>
		<path fill="#B3B3B3" d="M167.183,30.787l-0.918,1.463c-0.772-0.771-1.526-1.357-2.262-1.756v0.333
			c0,0.559-0.184,1.018-0.552,1.377c-0.367,0.359-0.97,0.539-1.801,0.539c-0.862,0-1.577-0.184-2.144-0.552
			c-0.568-0.368-0.852-0.889-0.852-1.563c0-0.656,0.275-1.177,0.817-1.563c0.546-0.386,1.302-0.579,2.27-0.579
			c0.123,0,0.301,0.009,0.533,0.027c-0.046-1.259-0.068-1.978-0.068-2.156v-1.916c0-0.532-0.04-0.976-0.119-1.331h1.836
			c-0.08,0.382-0.12,0.821-0.12,1.317v0.625c1.224-0.035,2.262-0.097,3.113-0.186l0.04,1.503c-0.763,0.071-1.813,0.124-3.153,0.16
			c0,0.053,0.035,0.825,0.106,2.315C165.134,29.253,166.226,29.9,167.183,30.787z M162.34,30.281v-0.386
			c-0.284-0.044-0.554-0.066-0.811-0.066c-0.879,0-1.317,0.239-1.317,0.719c0,0.204,0.112,0.37,0.34,0.499
			c0.225,0.129,0.52,0.193,0.884,0.193C162.039,31.239,162.34,30.92,162.34,30.281z"/>
		<path fill="#B3B3B3" d="M179.091,27.248c0-0.47-0.171-0.858-0.513-1.164c-0.341-0.306-0.818-0.455-1.43-0.446
			c-0.24,0-0.488,0.013-0.745,0.04c-0.258,0.026-0.477,0.053-0.658,0.08c-0.183,0.027-0.404,0.071-0.666,0.133
			c-0.261,0.062-0.441,0.106-0.539,0.133c-0.098,0.027-0.271,0.078-0.519,0.153s-0.377,0.113-0.386,0.113
			c-0.151,0.044-0.382,0.125-0.692,0.24c-0.311,0.115-0.519,0.191-0.625,0.226l-0.492-1.916c0.381-0.035,0.869-0.115,1.464-0.239
			c0.07-0.018,0.281-0.064,0.631-0.14c0.351-0.075,0.622-0.133,0.814-0.173c0.188-0.04,0.449-0.087,0.776-0.14
			c0.329-0.054,0.643-0.093,0.944-0.12c0.301-0.026,0.604-0.04,0.905-0.04c1.091,0,1.971,0.295,2.641,0.885
			c0.67,0.59,1.007,1.404,1.007,2.441c0,1.402-0.588,2.553-1.759,3.453c-1.168,0.9-2.727,1.483-4.67,1.75l-0.971-1.689
			C177.263,30.41,179.091,29.217,179.091,27.248z M173.543,22.405l0.267-1.636c0.747,0.168,1.749,0.313,3.012,0.432
			c1.264,0.12,2.282,0.18,3.054,0.18l-0.279,1.663C177.05,22.875,175.034,22.663,173.543,22.405z"/>
		<path fill="#B3B3B3" d="M187.725,20.809l1.996,0.2c-0.125,0.55-0.204,0.922-0.239,1.118c-0.026,0.151-0.074,0.39-0.139,0.718
			c-0.068,0.329-0.114,0.555-0.141,0.679l1.131-0.067c1.623,0,2.435,0.861,2.435,2.581c0,2.245-0.253,3.885-0.759,4.923
			c-0.213,0.452-0.501,0.771-0.864,0.958c-0.364,0.186-0.813,0.279-1.357,0.279c-0.505,0-1.04-0.066-1.607-0.199l-0.295-1.783
			c0.692,0.195,1.241,0.293,1.649,0.293c0.506,0,0.843-0.195,1.012-0.585c0.372-0.718,0.559-1.951,0.559-3.699
			c0-0.505-0.103-0.836-0.306-0.991c-0.205-0.155-0.545-0.233-1.024-0.233c-0.099,0-0.404,0.018-0.918,0.053
			c-0.797,3.149-1.713,5.553-2.74,7.211l-1.771-0.705c1.064-1.428,1.97-3.53,2.714-6.306c-0.522,0.063-0.909,0.111-1.157,0.146
			c-0.417,0.044-0.914,0.111-1.487,0.2l-0.162-1.823c0.239,0.018,0.718,0.018,1.437,0c0.427-0.017,1.006-0.053,1.744-0.106
			C187.636,22.516,187.733,21.563,187.725,20.809z M192.741,22.964l1.636-0.691c0.381,0.541,0.812,1.337,1.291,2.388
			c0.479,1.051,0.833,1.927,1.064,2.628l-1.703,0.812c-0.195-0.825-0.513-1.747-0.951-2.768
			C193.639,24.313,193.193,23.523,192.741,22.964z"/>
		<path fill="#B3B3B3" d="M204.583,28.232h-1.756c-0.054-0.399,0-0.765,0.159-1.098c0.161-0.333,0.373-0.614,0.641-0.845
			c0.264-0.23,0.532-0.448,0.803-0.652c0.272-0.204,0.506-0.421,0.705-0.652c0.2-0.23,0.3-0.466,0.3-0.705
			c0-0.399-0.153-0.712-0.46-0.938c-0.302-0.226-0.725-0.339-1.257-0.339c-0.816,0-1.543,0.359-2.182,1.078l-1.118-1.038
			c0.949-1.108,2.12-1.663,3.512-1.663c1.02,0,1.848,0.235,2.475,0.705c0.63,0.47,0.945,1.144,0.945,2.022
			c0,0.364-0.102,0.698-0.306,1.004s-0.448,0.565-0.731,0.778c-0.284,0.213-0.563,0.426-0.838,0.639s-0.501,0.463-0.678,0.751
			C204.617,27.57,204.546,27.887,204.583,28.232z M202.7,31.472c-0.271-0.252-0.407-0.574-0.407-0.964s0.135-0.712,0.407-0.965
			c0.27-0.253,0.608-0.379,1.017-0.379c0.407,0,0.746,0.126,1.012,0.379s0.398,0.575,0.398,0.965s-0.133,0.712-0.398,0.964
			c-0.266,0.253-0.604,0.379-1.012,0.379C203.309,31.852,202.97,31.725,202.7,31.472z"/>
	</g>
</g>
<g id="_x31_3_x3000_住居エリア情報_area">
</g>
<g id="_x31_4_x3000_物件タイプ情報_x3000_style">
</g>
<g id="_x31_5_x3000_内覧_x30FB_入居フロー_x3000_step">
</g>
<g id="_x31_6_x3000_よくある質問_x3000_help">
</g>
<g id="_x31_7_x3000_便利なリンク集_x3000_link">
</g>
<g id="_x31_8_x3000_不動産オーナー様へ_x3000_owner">
</g>
<g id="mouse-over" display="none">
</g>
</svg>
