<?xml version="1.0" encoding="utf-8"?>
<!-- Generator: Adobe Illustrator 16.0.0, SVG Export Plug-In . SVG Version: 6.00 Build 0)  -->
<!DOCTYPE svg PUBLIC "-//W3C//DTD SVG 1.1//EN" "http://www.w3.org/Graphics/SVG/1.1/DTD/svg11.dtd">
<svg version="1.1" xmlns="http://www.w3.org/2000/svg" xmlns:xlink="http://www.w3.org/1999/xlink" x="0px" y="0px"
	 width="207.269px" height="85.099px" viewBox="0 0 207.269 85.099" enable-background="new 0 0 207.269 85.099"
	 xml:space="preserve">
<g id="_x31_0_x3000_特集一覧_x3000_category">
</g>
<g id="_x31_1_x3000_特集個別_x3000_">
</g>
<g id="_x31_2_x3000_サポート_x3000_suport">
	<g>
		<rect x="140.981" y="23.021" fill="#B3B3B3" width="8.584" height="6.438"/>
		<rect x="128.105" y="23.021" fill="#B3B3B3" width="10.731" height="2.147"/>
		<rect x="128.105" y="27.313" fill="#B3B3B3" width="10.731" height="2.146"/>
		<rect x="128.105" y="16.583" fill="#B3B3B3" width="21.46" height="4.293"/>
		<path fill="#B3B3B3" d="M123.813,12.158v4.291h-4.292v13.01c0,2.369,1.927,4.292,4.292,4.292h25.752
			c2.367,0,4.291-1.923,4.291-4.292V12.158H123.813z M151.712,29.459c0,1.18-0.964,2.146-2.146,2.146h-25.752
			c-1.179,0-2.146-0.966-2.146-2.146V18.596h2.146v10.864h2.146V14.305h25.752V29.459z"/>
	</g>
	<polygon fill="#B3B3B3" points="195.143,8.222 183,8.222 174.327,22.099 183,22.099 176.061,35.978 193.407,18.631 184.734,18.631 
			"/>
	<g>
		<path fill="#B3B3B3" d="M22.223,7.105c-0.51,0-0.929,0.417-0.929,0.929v5.567c0,0.512-0.416,0.929-0.927,0.929
			c-0.509,0-0.927-0.417-0.927-0.929V8.034c0-0.511-0.417-0.929-0.93-0.929c-0.51,0-0.928,0.417-0.928,0.929v5.567
			c0,0.512-0.416,0.929-0.927,0.929c-0.512,0-0.928-0.417-0.928-0.929V8.034c0-0.511-0.417-0.929-0.929-0.929
			c-0.511,0-0.925,0.417-0.925,0.929v7.016c0,0.676,0.197,1.304,0.517,1.855c0.325,0.555,0.783,1.014,1.338,1.339v15.781
			c0,1.53,1.255,2.784,2.783,2.784c1.535,0,2.784-1.254,2.784-2.784V18.243c0.557-0.325,1.017-0.784,1.34-1.339
			c0.322-0.551,0.519-1.179,0.519-1.855V8.034C23.152,7.522,22.734,7.105,22.223,7.105z M18.51,34.953
			c-0.51,0-0.928-0.417-0.928-0.929c0-0.516,0.417-0.929,0.928-0.929c0.516,0,0.93,0.414,0.93,0.929
			C19.44,34.535,19.025,34.953,18.51,34.953z"/>
		<path fill="#B3B3B3" d="M32.434,7.105h-1.856c-1.019,0-1.855,0.833-1.855,1.857v14.851v1.857v9.283
			c0,1.019,0.836,1.855,1.855,1.855h1.856c1.024,0,1.858-0.836,1.858-1.855v-9.283h1.855c1.025,0,1.857-0.838,1.857-1.857v-11.14
			C38.003,9.61,35.498,7.105,32.434,7.105z"/>
	</g>
	<path fill="#B3B3B3" d="M197.282,56.873h-4.936l-0.829-4.154c-0.224-1.107-1.329-2.015-2.461-2.015h-8.226
		c-1.131,0-2.235,0.908-2.461,2.015l-0.827,4.154h-4.938c-2.263,0-4.112,1.852-4.112,4.113v12.339c0,2.264,1.849,4.115,4.112,4.115
		h24.678c2.263,0,4.114-1.851,4.114-4.115V60.986C201.396,58.724,199.545,56.873,197.282,56.873z M180.386,53.124l0.445-0.365h8.226
		l0.445,0.361l0.748,3.752h-10.611L180.386,53.124z M191.114,69.212H187v4.113h-4.112v-4.113h-4.114v-4.113h4.114v-4.113H187v4.113
		h4.114V69.212z"/>
	<g>
		<path fill="#B3B3B3" d="M65.731,78.58h22.302V55.42h-4.972v-2.068c0-1.816-1.478-3.293-3.294-3.293h-5.77
			c-1.818,0-3.297,1.477-3.297,3.293v2.068h-4.97V78.58z M79.629,70.916l-1.336,1.049l0.105,1.695
			c0.022,0.348-0.153,0.677-0.457,0.85c-0.141,0.081-0.299,0.122-0.456,0.122c-0.177,0-0.355-0.053-0.509-0.156l-1.411-0.948
			l-1.58,0.626c-0.324,0.128-0.693,0.06-0.95-0.173c-0.258-0.233-0.362-0.594-0.265-0.926l0.463-1.636l-1.082-1.31
			c-0.221-0.268-0.271-0.638-0.13-0.955c0.142-0.318,0.453-0.527,0.801-0.54l1.699-0.062l0.909-1.437
			c0.187-0.293,0.524-0.455,0.87-0.417c0.347,0.037,0.641,0.267,0.76,0.594l0.585,1.594l1.646,0.425
			c0.337,0.086,0.596,0.357,0.666,0.695C80.031,70.35,79.903,70.701,79.629,70.916L79.629,70.916z M84.033,58.278
			c1.622,0,2.669,0.622,2.669,1.586c0,0.963-1.048,1.584-2.669,1.584c-1.62,0-2.668-0.622-2.668-1.584
			C81.365,58.9,82.413,58.278,84.033,58.278L84.033,58.278z M72.532,53.353c0-0.809,0.655-1.466,1.464-1.466h5.771
			c0.809,0,1.465,0.658,1.465,1.466v2.068h-8.7V53.353z M67.957,63.79l2.55-1.416c0.21-0.119,0.461-0.146,0.694-0.081
			c0.233,0.068,0.43,0.224,0.549,0.436l1.416,2.549c0.245,0.44,0.085,0.997-0.355,1.243l-2.55,1.416
			c-0.136,0.076-0.291,0.115-0.443,0.115c-0.084,0-0.169-0.012-0.25-0.036c-0.232-0.066-0.432-0.222-0.549-0.434l-1.416-2.549
			C67.356,64.59,67.515,64.034,67.957,63.79L67.957,63.79z M94.316,57.775v18.449c0,1.299-1.058,2.355-2.356,2.355h-2.098V55.42
			h2.098C93.258,55.42,94.316,56.477,94.316,57.775L94.316,57.775z M63.902,78.58h-2.098c-1.299,0-2.355-1.057-2.355-2.355V57.775
			c0-1.299,1.056-2.355,2.355-2.355h2.098V78.58z M63.902,78.58"/>
	</g>
	<g>
		<path fill="#B3B3B3" d="M64.462,8.178c-0.214,0.237-0.313,0.557-0.274,0.872l2.909,24.483c0.065,0.564,0.543,0.987,1.109,0.987
			h11.181c-0.059-0.162-0.111-0.327-0.156-0.493c-0.166-0.553-0.272-1.134-0.333-1.741c-0.035-0.347-0.053-0.705-0.053-1.069
			c0-3.208,1.953-6.136,3.692-8.692c0.129-0.195,0.265-0.384,0.394-0.57l1.572-12.897c0.037-0.316-0.063-0.636-0.272-0.876
			c-0.215-0.24-0.517-0.378-0.836-0.378h-18.1C64.979,7.804,64.672,7.941,64.462,8.178L64.462,8.178z"/>
		<path fill="#FFFFFF" d="M82.128,10.038l-0.922,7.547c-0.246,0.101-0.507,0.177-0.797,0.245c-1.553,0.357-3.168,0.086-4.691-0.286
			c-2.125-0.512-4.274-1.237-6.487-1.006l1.561,13.131c0.045,0.377-0.225,0.718-0.602,0.763l-0.513,0.062
			c-0.378,0.045-0.719-0.224-0.763-0.602L67.378,16.97c0,0-0.003,0-0.006,0.004l-0.824-6.933h15.58V10.038z"/>
		<path fill="#B3B3B3" d="M82.128,10.038"/>
		<path fill="#B3B3B3" d="M82.649,24.224c-1.725,2.728-3.391,6.159-2.442,9.491c0.86,3.017,3.59,4.893,6.684,4.893
			c3.88,0,7.023-2.688,7.023-7.393c0-4.708-7.019-12.695-7.019-12.695S84.612,21.117,82.649,24.224L82.649,24.224z"/>
		<path fill="#B3B3B3" d="M83.649,24.224"/>
	</g>
	<g>
		<path fill="#B3B3B3" d="M39.831,59.069c-0.452-0.445-1.172-0.445-1.621,0l-9.989,9.983l-14.035,6.179l-2.161-2.162l6.178-14.033
			l9.983-9.989c0.453-0.449,0.453-1.175,0-1.623c-0.445-0.447-1.172-0.447-1.619,0L16.281,57.712L5.84,81.417l23.699-10.435
			l10.292-10.292C40.276,60.244,40.276,59.517,39.831,59.069L39.831,59.069z M39.831,59.069"/>
		<path fill="#B3B3B3" d="M25.281,66.999c0.224,0.224,0.521,0.337,0.811,0.337c0.295,0,0.587-0.113,0.81-0.337l9.615-9.615
			c0.453-0.448,0.453-1.175,0-1.621c-0.447-0.455-1.173-0.455-1.62,0l-9.616,9.615C24.836,65.823,24.836,66.549,25.281,66.999
			L25.281,66.999z M25.281,66.999"/>
		<path fill="#B3B3B3" d="M22.774,64.489c0.223,0.226,0.519,0.336,0.81,0.336c0.295,0,0.586-0.11,0.809-0.336l9.616-9.615
			c0.447-0.447,0.447-1.173,0-1.62c-0.447-0.451-1.173-0.451-1.621,0l-9.613,9.609C22.325,63.308,22.325,64.042,22.774,64.489
			L22.774,64.489z M22.774,64.489"/>
		<path fill="#B3B3B3" d="M20.265,61.976c0.223,0.224,0.513,0.336,0.809,0.336c0.292,0,0.588-0.112,0.812-0.336l9.615-9.609
			c0.447-0.456,0.447-1.179,0-1.626c-0.448-0.447-1.173-0.447-1.625,0l-9.61,9.616C19.815,60.801,19.815,61.528,20.265,61.976
			L20.265,61.976z"/>
		<path fill="#B3B3B3" d="M20.265,61.976"/>
	</g>
	<path fill="#B3B3B3" d="M134.186,61.015v14.606l11.628-2.207v-7.117c0-0.296,0.26-0.528,0.556-0.494l1.429,0.221
		c0.253,0.028,0.443,0.241,0.443,0.495v8.267c0,0.237-0.163,0.438-0.394,0.489l-12.729,2.737c-0.615,0.132-1.253,0.134-1.869,0.004
		l-12.593-2.649c-0.226-0.049-0.389-0.244-0.395-0.475l-0.218-8.397c-0.007-0.264,0.195-0.486,0.455-0.51l10.697-0.94
		c0.186-0.015,0.345-0.133,0.418-0.306l1.61-3.914C133.434,60.319,134.186,60.469,134.186,61.015L134.186,61.015z M119.925,56.232
		l-3.357,7.175c-0.166,0.352,0.116,0.747,0.501,0.707l12.607-1.272c0.177-0.019,0.333-0.13,0.404-0.293l4.057-9.14l-13.853,2.545
		C120.128,55.982,119.993,56.086,119.925,56.232L119.925,56.232z M134.138,53.409l4.292,9.423c0.075,0.166,0.233,0.277,0.416,0.292
		l12.581,1.012c0.38,0.03,0.654-0.357,0.493-0.703l-3.281-7.194c-0.067-0.148-0.204-0.256-0.365-0.284L134.138,53.409z
		 M134.138,53.409"/>
</g>
<g id="_x31_3_x3000_住居エリア情報_area">
	
		<text transform="matrix(1 0 0 1 85.707 91.4414)" fill="#FFFFFF" font-family="'GenJyuuGothic-Bold'" font-size="33.5833" letter-spacing="-1"> </text>
</g>
<g id="_x31_4_x3000_物件タイプ情報_x3000_style">
</g>
<g id="_x31_5_x3000_内覧_x30FB_入居フロー_x3000_step">
</g>
<g id="_x31_6_x3000_よくある質問_x3000_help">
</g>
<g id="_x31_7_x3000_便利なリンク集_x3000_link">
</g>
<g id="_x31_8_x3000_不動産オーナー様へ_x3000_owner">
</g>
<g id="mouse-over" display="none">
</g>
</svg>
