<?xml version="1.0" encoding="utf-8"?>
<!-- Generator: Adobe Illustrator 16.0.0, SVG Export Plug-In . SVG Version: 6.00 Build 0)  -->
<!DOCTYPE svg PUBLIC "-//W3C//DTD SVG 1.1//EN" "http://www.w3.org/Graphics/SVG/1.1/DTD/svg11.dtd">
<svg version="1.1" id="Layer_1" xmlns="http://www.w3.org/2000/svg" xmlns:xlink="http://www.w3.org/1999/xlink" x="0px" y="0px"
	 width="248px" height="100px" viewBox="0 0 248 100" enable-background="new 0 0 248 100" xml:space="preserve">
<path fill="#CDCCCC" d="M215.6,55.8l-25.8-27.9l18-27.9h-1.5l-17.6,27.2l-40.1-13.7L162,0h-9.9l-11.7,11.7l-26.5-7L63.8,22.8L76.5,0
	H75L62.3,22.8l-11.5,3.5L50.2,49L0,35.2v1.3l50,13.8L42.7,78l29,5.3l0,0l0,0l0.4-0.2l9,16.9h1.4l-9.3-17.5l34.2-12.1l4.9,21.9l0-0.2
	l3.6,7.9h1.4l-3.8-8.3l-3.2-14.2l26.7-0.2l12.6,3.5l3.3,3.9l-9.9,4.8l-1.6,10.4h11.3l0.5-3.1l32.8-16.7l19.9-10.4l41.9-11V47.3
	L215.6,55.8z M187.7,28.2l-19.4,17.3l-5.1,0.1L148.8,15L187.7,28.2z M140.5,13.9l14.3,30.4l-23-9.4l-8.2-14.1L140.5,13.9z M106.9,52
	l-9.8-19.3l36.2,9.9l0,0L106.9,52z M89.4,58.3L89.4,58.3l0.2-0.1L79.6,38l15.5-6.3l10.6,20.7L89.4,58.3z M88.5,58.6l-20.6,7.3
	l-6.2-20.6l16.7-6.8L88.5,58.6z M96.3,31.2l0.2-0.1l25.9-10l8.5,14.5l-0.1,0.1L131,36l3.3,5.6L96.3,31.2z M114,6l25.8,6.8L123,19.7
	l0-0.1l-16,6.1l-8.8-14L114,6z M96.9,12.2l8.9,14.1L96,30l-16.4,6.6l2.1-19L96.9,12.2z M63.1,24.3l17.2-6.2l-2.1,19l-16.7,6.8
	L63.1,24.3z M44.3,77l7.4-27.6l-0.1,0L52,27.3l9.8-3l-1.6,20.8l0.4,0l-0.3,0.1l11.1,36.7L44.3,77z M72.6,81.7l-4.4-14.5l20.9-7.4
	l0,0l6.6,13.7L72.6,81.7z M96.9,73l-6.6-13.7l24.7-8.8l0,0l7,13.5L96.9,73z M136.6,76.1l-26.4,0.3l-1.4-6.2l-0.5,0.1L136.8,60
	L136.6,76.1z M123.3,63.5l-7-13.5l19.9-7.1l-0.2-0.5v0l0.2-0.1l-3.2-5.6l22.8,9.3l0,0l-3.8,7.1l-3.3,1.3L123.3,63.5z M181,70.4
	l-21.6,11l-5.7-6.8l-10.1-2.8l0.1-8l13.1-5.1l6.3-11.8l4.8-0.1L181,70.4L181,70.4z M201.9,59.4l-19.6,10.4l-13-23.4l19.6-17.5
	l25.2,27.3L201.9,59.4z"/>
<g>
	<g>
		<g>
			<g>
				<path fill="#818181" d="M134.8,49.1c0.9,0,1.1-0.4,1.3-0.9h0.8v7.4h-1.2v-5.6h-0.9V49.1z"/>
			</g>
		</g>
		<g>
			<g>
				<path fill="#818181" d="M163.6,63.2c-0.4,0-0.6,0.2-0.6,0.7v0.8h-1.1V64c0-1.2,0.6-1.9,1.7-1.9c1.1,0,1.7,0.7,1.7,1.9
					c0,2.3-2.3,3.2-2.3,4.4c0,0.1,0,0.1,0,0.2h2.2v1.1h-3.3v-0.9c0-2.2,2.3-2.5,2.3-4.7C164.2,63.4,163.9,63.2,163.6,63.2z"/>
			</g>
		</g>
		<g>
			<g>
				<path fill="#818181" d="M190.2,50.9c0,1.2-0.6,1.9-1.8,1.9c-1.1,0-1.7-0.7-1.7-1.9v-0.2h1.1V51c0,0.5,0.2,0.7,0.6,0.7
					c0.4,0,0.6-0.2,0.6-0.9v-1.3c-0.2,0.4-0.6,0.7-1.1,0.7c-0.9,0-1.3-0.6-1.3-1.7v-1.3c0-1.2,0.6-1.9,1.8-1.9s1.8,0.7,1.8,1.9V50.9
					z M189,48.3V47c0-0.5-0.2-0.7-0.6-0.7s-0.6,0.2-0.6,0.7v1.3c0,0.5,0.2,0.7,0.6,0.7S189,48.9,189,48.3z"/>
			</g>
		</g>
		<g>
			<g>
				<path fill="#818181" d="M111.5,42c0-0.7-0.2-0.8-0.6-0.8c-0.4,0-0.6,0.2-0.6,0.7v0.5h-1.1V42c0-1.2,0.6-1.9,1.7-1.9
					c1.1,0,1.7,0.7,1.7,1.9v0.2c0,0.8-0.3,1.3-0.8,1.5c0.6,0.3,0.8,0.8,0.8,1.5v0.6c0,1.2-0.6,1.9-1.7,1.9c-1.1,0-1.7-0.7-1.7-1.9
					v-0.6h1.1v0.7c0,0.5,0.2,0.7,0.6,0.7c0.4,0,0.6-0.2,0.6-0.8v-0.6c0-0.7-0.2-0.9-0.8-0.9h-0.4v-1.1h0.5c0.4,0,0.7-0.2,0.7-0.8V42
					z"/>
			</g>
		</g>
		<g>
			<g>
				<path fill="#818181" d="M89.5,42.7c0.9,0,1.1-0.4,1.3-0.9h0.8v7.4h-1.2v-5.6h-0.9V42.7z"/>
			</g>
			<g>
				<path fill="#818181" d="M92.9,43.6c0-1.2,0.6-1.9,1.8-1.9c1.1,0,1.8,0.7,1.8,1.9v3.8c0,1.2-0.6,1.9-1.8,1.9
					c-1.1,0-1.8-0.7-1.8-1.9V43.6z M94,47.5c0,0.5,0.2,0.7,0.6,0.7c0.4,0,0.6-0.2,0.6-0.7v-4c0-0.5-0.2-0.7-0.6-0.7
					c-0.4,0-0.6,0.2-0.6,0.7V47.5z"/>
			</g>
		</g>
		<g>
			<g>
				<path fill="#818181" d="M70.7,49.4c0.9,0,1.1-0.4,1.3-0.9h0.8v7.4h-1.2v-5.6h-0.9V49.4z"/>
			</g>
			<g>
				<path fill="#818181" d="M74.9,49.4c0.9,0,1.1-0.4,1.3-0.9h0.8v7.4h-1.2v-5.6h-0.9V49.4z"/>
			</g>
		</g>
		<g>
			<g>
				<path fill="#818181" d="M79.5,69.2c0-1.2,0.6-1.9,1.8-1.9c1.1,0,1.7,0.7,1.7,1.9v0.2h-1.1V69c0-0.5-0.2-0.7-0.6-0.7
					c-0.4,0-0.6,0.2-0.6,0.9v1.3c0.2-0.4,0.6-0.7,1.1-0.7c0.9,0,1.3,0.6,1.3,1.7v1.3c0,1.2-0.6,1.9-1.8,1.9s-1.8-0.7-1.8-1.9V69.2z
					 M80.6,71.7V73c0,0.5,0.2,0.7,0.6,0.7s0.6-0.2,0.6-0.7v-1.3c0-0.5-0.2-0.7-0.6-0.7S80.6,71.2,80.6,71.7z"/>
			</g>
		</g>
		<g>
			<g>
				<path fill="#818181" d="M105.5,63.4v0.7c0,0.5,0.2,0.7,0.6,0.7c0.4,0,0.6-0.2,0.6-0.7v-1.6c0-0.5-0.2-0.7-0.6-0.7
					c-0.4,0-0.6,0.2-0.6,0.7v0.2h-1.1l0.2-4.3h3.1v1.1h-2l-0.1,1.8c0.2-0.3,0.5-0.5,1-0.5c0.9,0,1.3,0.6,1.3,1.7V64
					c0,1.2-0.6,1.9-1.7,1.9c-1.1,0-1.7-0.7-1.7-1.9v-0.6H105.5z"/>
			</g>
		</g>
		<g>
			<g>
				<path fill="#818181" d="M122.4,72l2.1-5h1.3v5h0.5v1.1h-0.5v1.3h-1.2v-1.3h-2.2V72z M124.6,72v-2.7l-1.1,2.7H124.6z"/>
			</g>
		</g>
		<g>
			<g>
				<path fill="#818181" d="M130.2,85.8v1l-1.7,6.4h-1.2l1.7-6.3h-2.3v-1.1H130.2z"/>
			</g>
		</g>
		<g>
			<g>
				<path fill="#818181" d="M95.6,92.3c-1.2,0-1.8-0.7-1.8-1.9v-0.6c0-0.7,0.2-1.3,0.7-1.5c-0.5-0.3-0.7-0.8-0.7-1.5v-0.2
					c0-1.2,0.6-1.9,1.8-1.9c1.2,0,1.8,0.7,1.8,1.9v0.2c0,0.7-0.2,1.2-0.7,1.5c0.5,0.3,0.7,0.8,0.7,1.5v0.6
					C97.4,91.7,96.7,92.3,95.6,92.3z M94.9,87.1c0,0.6,0.3,0.8,0.7,0.8c0.4,0,0.7-0.2,0.7-0.8v-0.4c0-0.7-0.3-0.8-0.7-0.8
					c-0.4,0-0.7,0.2-0.7,0.8V87.1z M95.6,91.3c0.4,0,0.6-0.2,0.7-0.8v-0.7c0-0.6-0.2-0.8-0.7-0.8c-0.4,0-0.7,0.3-0.7,0.8v0.7
					C94.9,91.1,95.2,91.3,95.6,91.3z"/>
			</g>
		</g>
		<g>
			<g>
				<path fill="#818181" d="M79.9,5.3c0.9,0,1.1-0.4,1.3-0.9H82v7.4h-1.2V6.1h-0.9V5.3z"/>
			</g>
			<g>
				<path fill="#818181" d="M85,5.3c-0.4,0-0.6,0.2-0.6,0.7v0.8h-1.1V6.1c0-1.2,0.6-1.9,1.7-1.9c1.1,0,1.7,0.7,1.7,1.9
					c0,2.3-2.3,3.2-2.3,4.4c0,0.1,0,0.1,0,0.2h2.2v1.1h-3.3v-0.9c0-2.2,2.3-2.5,2.3-4.7C85.6,5.5,85.4,5.3,85,5.3z"/>
			</g>
		</g>
	</g>
	<g>
		<g>
			<path fill="#818181" d="M54.4,65.1v0.2c0,0.5-0.1,0.8-0.5,0.9c0.4,0.1,0.5,0.5,0.5,1v0.4c0,0.7-0.4,1.1-1.1,1.1h-1.1V64h1.1
				C54.1,64,54.4,64.4,54.4,65.1z M53,64.7v1.2h0.3c0.3,0,0.4-0.1,0.4-0.5v-0.3c0-0.3-0.1-0.5-0.4-0.5H53z M53,66.5v1.4h0.4
				c0.2,0,0.4-0.1,0.4-0.4V67c0-0.4-0.1-0.5-0.5-0.5H53z"/>
		</g>
		<g>
			<path fill="#818181" d="M54.9,64h0.7v4.5h-0.7V64z"/>
		</g>
		<g>
			<path fill="#818181" d="M56.7,65.3v3.2h-0.6V64H57l0.7,2.7V64h0.6v4.5h-0.7L56.7,65.3z"/>
		</g>
		<g>
			<path fill="#818181" d="M59.5,68.5h-0.7V64h0.7V66h0.8V64H61v4.5h-0.7v-1.9h-0.8V68.5z"/>
		</g>
		<g>
			<path fill="#818181" d="M52.1,70.1h2.2v0.6h-0.7v3.8h-0.7v-3.8h-0.7V70.1z"/>
		</g>
		<g>
			<path fill="#818181" d="M56.8,74.6h-0.7L56,73.8h-0.9L55,74.6h-0.6l0.7-4.5h1L56.8,74.6z M55.2,73.2h0.7l-0.3-2.3L55.2,73.2z"/>
		</g>
		<g>
			<path fill="#818181" d="M57.8,71.3v3.2h-0.6v-4.5H58l0.7,2.7v-2.7h0.6v4.5h-0.7L57.8,71.3z"/>
		</g>
	</g>
	<g>
		<g>
			<path fill="#818181" d="M18.8,56.4h0.7v3.8h1.2v0.6h-1.9V56.4z"/>
		</g>
		<g>
			<path fill="#818181" d="M20.9,57.5c0-0.7,0.4-1.1,1.1-1.1s1.1,0.4,1.1,1.1v2.3c0,0.7-0.4,1.1-1.1,1.1s-1.1-0.4-1.1-1.1V57.5z
				 M21.6,59.8c0,0.3,0.1,0.4,0.4,0.4c0.2,0,0.4-0.1,0.4-0.4v-2.4c0-0.3-0.1-0.4-0.4-0.4c-0.2,0-0.4,0.1-0.4,0.4V59.8z"/>
		</g>
		<g>
			<path fill="#818181" d="M24.1,57.6v3.2h-0.6v-4.5h0.9l0.7,2.7v-2.7h0.6v4.5H25L24.1,57.6z"/>
		</g>
		<g>
			<path fill="#818181" d="M27.3,58.4h1v1.4c0,0.7-0.4,1.1-1,1.1c-0.7,0-1-0.4-1-1.1v-2.3c0-0.7,0.4-1.1,1-1.1c0.7,0,1,0.4,1,1.1
				v0.4h-0.7v-0.5c0-0.3-0.1-0.4-0.4-0.4c-0.2,0-0.4,0.1-0.4,0.4v2.4c0,0.3,0.1,0.4,0.4,0.4c0.2,0,0.4-0.1,0.4-0.4V59h-0.3V58.4z"/>
		</g>
		<g>
			<path fill="#818181" d="M32,60.9h-0.7L31.1,60h-0.9l-0.1,0.8h-0.6l0.7-4.5h1L32,60.9z M30.3,59.4H31l-0.3-2.3L30.3,59.4z"/>
		</g>
		<g>
			<path fill="#818181" d="M32.9,57.6v3.2h-0.6v-4.5h0.9l0.7,2.7v-2.7h0.6v4.5h-0.7L32.9,57.6z"/>
		</g>
	</g>
	<g>
		<g>
			<path fill="#818181" d="M18.9,22.9h2.2v0.6h-0.7v3.8h-0.7v-3.8h-0.7V22.9z"/>
		</g>
		<g>
			<path fill="#818181" d="M23.6,27.4h-0.7l-0.1-0.8H22l-0.1,0.8h-0.6l0.7-4.5h1L23.6,27.4z M22,25.9h0.7l-0.3-2.3L22,25.9z"/>
		</g>
		<g>
			<path fill="#818181" d="M24.6,25.9l-0.9-3h0.7l0.5,2l0.5-2h0.7l-0.9,3v1.5h-0.7V25.9z"/>
		</g>
		<g>
			<path fill="#818181" d="M28.1,24.1v3.2h-0.6v-4.5h0.9l0.7,2.7v-2.7h0.6v4.5H29L28.1,24.1z"/>
		</g>
		<g>
			<path fill="#818181" d="M30.2,22.9h0.7v4.5h-0.7V22.9z"/>
		</g>
		<g>
			<path fill="#818181" d="M32.1,24.1v3.2h-0.6v-4.5h0.9l0.7,2.7v-2.7h0.6v4.5h-0.7L32.1,24.1z"/>
		</g>
		<g>
			<path fill="#818181" d="M34.9,27.4h-0.7v-4.5h0.7v1.9h0.8v-1.9h0.7v4.5h-0.7v-1.9h-0.8V27.4z"/>
		</g>
	</g>
	<g>
		<g>
			<path fill="#818181" d="M164.8,9.9V10c0,0.5-0.1,0.8-0.5,0.9c0.4,0.1,0.5,0.5,0.5,1v0.4c0,0.7-0.4,1.1-1.1,1.1h-1.1V8.8h1.1
				C164.5,8.8,164.8,9.2,164.8,9.9z M163.4,9.5v1.2h0.3c0.3,0,0.4-0.1,0.4-0.5V9.9c0-0.3-0.1-0.5-0.4-0.5H163.4z M163.4,11.3v1.4
				h0.4c0.2,0,0.4-0.1,0.4-0.4v-0.4c0-0.4-0.1-0.5-0.5-0.5H163.4z"/>
		</g>
		<g>
			<path fill="#818181" d="M165.3,8.8h0.7v4.5h-0.7V8.8z"/>
		</g>
		<g>
			<path fill="#818181" d="M167.1,10.1v3.2h-0.6V8.8h0.9l0.7,2.7V8.8h0.6v4.5H168L167.1,10.1z"/>
		</g>
		<g>
			<path fill="#818181" d="M169.9,13.3h-0.7V8.8h0.7v1.9h0.8V8.8h0.7v4.5h-0.7v-1.9h-0.8V13.3z"/>
		</g>
		<g>
			<path fill="#818181" d="M172.9,8.8h1.1c0.7,0,1,0.4,1,1.1v2.3c0,0.7-0.3,1.1-1,1.1h-1.1V8.8z M173.6,9.5v3.2h0.4
				c0.2,0,0.4-0.1,0.4-0.4V9.9c0-0.3-0.1-0.4-0.4-0.4H173.6z"/>
		</g>
		<g>
			<path fill="#818181" d="M176.2,8.8v3.4c0,0.3,0.1,0.4,0.4,0.4c0.2,0,0.4-0.1,0.4-0.4V8.8h0.7v3.4c0,0.7-0.4,1.1-1,1.1
				s-1-0.4-1-1.1V8.8H176.2z"/>
		</g>
		<g>
			<path fill="#818181" d="M178,9.9c0-0.7,0.4-1.1,1.1-1.1s1.1,0.4,1.1,1.1v2.3c0,0.7-0.4,1.1-1.1,1.1S178,13,178,12.2V9.9z
				 M178.7,12.3c0,0.3,0.1,0.4,0.4,0.4c0.2,0,0.4-0.1,0.4-0.4V9.9c0-0.3-0.1-0.4-0.4-0.4c-0.2,0-0.4,0.1-0.4,0.4V12.3z"/>
		</g>
		<g>
			<path fill="#818181" d="M181.2,10.1v3.2h-0.6V8.8h0.9l0.7,2.7V8.8h0.6v4.5h-0.7L181.2,10.1z"/>
		</g>
		<g>
			<path fill="#818181" d="M184.4,10.8h1v1.4c0,0.7-0.4,1.1-1,1.1c-0.7,0-1-0.4-1-1.1V9.9c0-0.7,0.4-1.1,1-1.1c0.7,0,1,0.4,1,1.1
				v0.4h-0.7V9.9c0-0.3-0.1-0.4-0.4-0.4c-0.2,0-0.4,0.1-0.4,0.4v2.4c0,0.3,0.1,0.4,0.4,0.4c0.2,0,0.4-0.1,0.4-0.4v-0.8h-0.3V10.8z"
				/>
		</g>
	</g>
	<g>
		<g>
			<path fill="#818181" d="M181.5,90.2h1.1c0.7,0,1,0.4,1,1.1v2.3c0,0.7-0.3,1.1-1,1.1h-1.1V90.2z M182.2,90.8V94h0.4
				c0.2,0,0.4-0.1,0.4-0.4v-2.3c0-0.3-0.1-0.4-0.4-0.4H182.2z"/>
		</g>
		<g>
			<path fill="#818181" d="M184.1,91.3c0-0.7,0.4-1.1,1.1-1.1c0.7,0,1.1,0.4,1.1,1.1v2.3c0,0.7-0.4,1.1-1.1,1.1
				c-0.7,0-1.1-0.4-1.1-1.1V91.3z M184.8,93.6c0,0.3,0.1,0.4,0.4,0.4c0.2,0,0.4-0.1,0.4-0.4v-2.4c0-0.3-0.1-0.4-0.4-0.4
				c-0.2,0-0.4,0.1-0.4,0.4V93.6z"/>
		</g>
		<g>
			<path fill="#818181" d="M187.3,91.4v3.2h-0.6v-4.5h0.9l0.7,2.7v-2.7h0.6v4.5h-0.7L187.3,91.4z"/>
		</g>
		<g>
			<path fill="#818181" d="M190.4,92.2h1v1.4c0,0.7-0.4,1.1-1,1.1s-1-0.4-1-1.1v-2.3c0-0.7,0.4-1.1,1-1.1s1,0.4,1,1.1v0.4h-0.7v-0.5
				c0-0.3-0.1-0.4-0.4-0.4c-0.2,0-0.4,0.1-0.4,0.4v2.4c0,0.3,0.1,0.4,0.4,0.4c0.2,0,0.4-0.1,0.4-0.4v-0.8h-0.3V92.2z"/>
		</g>
		<g>
			<path fill="#818181" d="M193.5,91.4v3.2h-0.6v-4.5h0.9l0.7,2.7v-2.7h0.6v4.5h-0.7L193.5,91.4z"/>
		</g>
		<g>
			<path fill="#818181" d="M197.8,94.7h-0.7l-0.1-0.8h-0.9l-0.1,0.8h-0.6l0.7-4.5h1L197.8,94.7z M196.2,93.3h0.7l-0.3-2.3
				L196.2,93.3z"/>
		</g>
		<g>
			<path fill="#818181" d="M198.2,90.2h0.7v4.5h-0.7V90.2z"/>
		</g>
	</g>
	<g>
		<g>
			<path fill="#818181" d="M109.2,14.3h1v1.4c0,0.7-0.4,1.1-1,1.1c-0.7,0-1-0.4-1-1.1v-2.3c0-0.7,0.4-1.1,1-1.1c0.7,0,1,0.4,1,1.1
				v0.4h-0.7v-0.5c0-0.3-0.1-0.4-0.4-0.4s-0.4,0.1-0.4,0.4v2.4c0,0.3,0.1,0.4,0.4,0.4s0.4-0.1,0.4-0.4V15h-0.3V14.3z"/>
		</g>
		<g>
			<path fill="#818181" d="M110.6,13.4c0-0.7,0.4-1.1,1.1-1.1c0.7,0,1.1,0.4,1.1,1.1v2.3c0,0.7-0.4,1.1-1.1,1.1
				c-0.7,0-1.1-0.4-1.1-1.1V13.4z M111.3,15.8c0,0.3,0.1,0.4,0.4,0.4c0.2,0,0.4-0.1,0.4-0.4v-2.4c0-0.3-0.1-0.4-0.4-0.4
				c-0.2,0-0.4,0.1-0.4,0.4V15.8z"/>
		</g>
		<g>
			<path fill="#818181" d="M115.2,16l0.5-3.6h0.6l-0.7,4.5h-1l-0.7-4.5h0.7L115.2,16z"/>
		</g>
		<g>
			<path fill="#818181" d="M119,16.8h-0.7l-0.1-0.8h-0.9l-0.1,0.8h-0.6l0.7-4.5h1L119,16.8z M117.4,15.4h0.7l-0.3-2.3L117.4,15.4z"
				/>
		</g>
		<g>
			<path fill="#818181" d="M121.4,13.5V14c0,0.7-0.3,1.1-1,1.1H120v1.7h-0.7v-4.5h1C121,12.4,121.4,12.7,121.4,13.5z M120,13v1.5
				h0.3c0.2,0,0.3-0.1,0.3-0.4v-0.7c0-0.3-0.1-0.4-0.3-0.4H120z"/>
		</g>
	</g>
	<g>
		<g>
			<path fill="#818181" d="M135.1,22.6v0.2c0,0.5-0.1,0.8-0.5,0.9c0.4,0.1,0.5,0.5,0.5,1V25c0,0.7-0.4,1.1-1.1,1.1H133v-4.5h1.1
				C134.8,21.6,135.1,21.9,135.1,22.6z M133.7,22.2v1.2h0.3c0.3,0,0.4-0.1,0.4-0.5v-0.2c0-0.3-0.1-0.5-0.4-0.5H133.7z M133.7,24.1
				v1.4h0.4c0.2,0,0.4-0.1,0.4-0.4v-0.4c0-0.4-0.1-0.5-0.5-0.5H133.7z"/>
		</g>
		<g>
			<path fill="#818181" d="M135.6,21.6h0.7v4.5h-0.7V21.6z"/>
		</g>
		<g>
			<path fill="#818181" d="M137.4,22.8v3.2h-0.6v-4.5h0.9l0.7,2.7v-2.7h0.6v4.5h-0.7L137.4,22.8z"/>
		</g>
		<g>
			<path fill="#818181" d="M140.2,26.1h-0.7v-4.5h0.7v1.9h0.8v-1.9h0.7v4.5H141v-1.9h-0.8V26.1z"/>
		</g>
		<g>
			<path fill="#818181" d="M132.8,27.7h2.2v0.6h-0.7v3.8h-0.7v-3.8h-0.7V27.7z"/>
		</g>
		<g>
			<path fill="#818181" d="M136,32.1h-0.7v-4.5h0.7v1.9h0.8v-1.9h0.7v4.5h-0.7v-1.9H136V32.1z"/>
		</g>
		<g>
			<path fill="#818181" d="M140.3,32.1h-0.7l-0.1-0.8h-0.9l-0.1,0.8h-0.6l0.7-4.5h1L140.3,32.1z M138.7,30.7h0.7l-0.3-2.3
				L138.7,30.7z"/>
		</g>
		<g>
			<path fill="#818181" d="M141.2,28.9v3.2h-0.6v-4.5h0.9l0.7,2.7v-2.7h0.6v4.5h-0.7L141.2,28.9z"/>
		</g>
		<g>
			<path fill="#818181" d="M144,32.1h-0.7v-4.5h0.7v1.9h0.8v-1.9h0.7v4.5h-0.7v-1.9H144V32.1z"/>
		</g>
	</g>
	<g>
		<g>
			<path fill="#818181" d="M116.6,25.9v0.6c0,0.7-0.3,1.1-1,1.1h-0.3v1.7h-0.7v-4.5h1C116.2,24.8,116.6,25.2,116.6,25.9z
				 M115.2,25.4v1.5h0.3c0.2,0,0.3-0.1,0.3-0.4v-0.7c0-0.3-0.1-0.4-0.3-0.4H115.2z"/>
		</g>
		<g>
			<path fill="#818181" d="M117.6,29.3h-0.7v-4.5h0.7v1.9h0.8v-1.9h0.7v4.5h-0.7v-1.9h-0.8V29.3z"/>
		</g>
		<g>
			<path fill="#818181" d="M120.3,24.8v3.4c0,0.3,0.1,0.4,0.4,0.4c0.2,0,0.4-0.1,0.4-0.4v-3.4h0.7v3.4c0,0.7-0.4,1.1-1,1.1
				c-0.7,0-1-0.4-1-1.1v-3.4H120.3z"/>
		</g>
		<g>
			<path fill="#818181" d="M115.1,32.1v3.2h-0.6v-4.5h0.9l0.7,2.7v-2.7h0.6v4.5H116L115.1,32.1z"/>
		</g>
		<g>
			<path fill="#818181" d="M117.9,35.3h-0.7v-4.5h0.7v1.9h0.8v-1.9h0.7v4.5h-0.7v-1.9h-0.8V35.3z"/>
		</g>
		<g>
			<path fill="#818181" d="M120.6,30.9v3.4c0,0.3,0.1,0.4,0.4,0.4s0.4-0.1,0.4-0.4v-3.4h0.7v3.4c0,0.7-0.4,1.1-1,1.1
				c-0.7,0-1-0.4-1-1.1v-3.4H120.6z"/>
		</g>
		<g>
			<path fill="#818181" d="M124.8,35.3h-0.7l-0.1-0.8h-0.9l-0.1,0.8h-0.6l0.7-4.5h1L124.8,35.3z M123.2,33.9h0.7l-0.3-2.3
				L123.2,33.9z"/>
		</g>
		<g>
			<path fill="#818181" d="M125.7,32.1v3.2h-0.6v-4.5h0.9l0.7,2.7v-2.7h0.6v4.5h-0.7L125.7,32.1z"/>
		</g>
	</g>
	<g>
		<g>
			<path fill="#818181" d="M86.9,17.8H89v0.6h-0.7v3.8h-0.7v-3.8h-0.7V17.8z"/>
		</g>
		<g>
			<path fill="#818181" d="M91.6,22.2h-0.7l-0.1-0.8h-0.9l-0.1,0.8h-0.6l0.7-4.5h1L91.6,22.2z M90,20.8h0.7l-0.3-2.3L90,20.8z"/>
		</g>
		<g>
			<path fill="#818181" d="M92.6,19v3.2h-0.6v-4.5h0.9l0.7,2.7v-2.7h0.6v4.5h-0.7L92.6,19z"/>
		</g>
		<g>
			<path fill="#818181" d="M89.2,24.9V25c0,0.5-0.1,0.8-0.5,0.9c0.4,0.1,0.5,0.5,0.5,1v0.4c0,0.7-0.4,1.1-1.1,1.1h-1.1v-4.5h1.1
				C88.9,23.8,89.2,24.2,89.2,24.9z M87.8,24.5v1.2H88c0.3,0,0.4-0.1,0.4-0.5v-0.2c0-0.3-0.1-0.5-0.4-0.5H87.8z M87.8,26.3v1.4h0.4
				c0.2,0,0.4-0.1,0.4-0.4v-0.4c0-0.4-0.1-0.5-0.5-0.5H87.8z"/>
		</g>
		<g>
			<path fill="#818181" d="M89.7,23.8h0.7v4.5h-0.7V23.8z"/>
		</g>
		<g>
			<path fill="#818181" d="M91.5,25.1v3.2h-0.6v-4.5h0.9l0.7,2.7v-2.7h0.6v4.5h-0.7L91.5,25.1z"/>
		</g>
		<g>
			<path fill="#818181" d="M94.3,28.3h-0.7v-4.5h0.7v1.9h0.8v-1.9h0.7v4.5h-0.7v-1.9h-0.8V28.3z"/>
		</g>
	</g>
	<g>
		<g>
			<path fill="#818181" d="M67.1,25.4h2.2v0.6h-0.7v3.8h-0.7v-3.8h-0.7V25.4z"/>
		</g>
		<g>
			<path fill="#818181" d="M71.8,29.9h-0.7L71,29.1h-0.9L70,29.9h-0.6l0.7-4.5h1L71.8,29.9z M70.2,28.5h0.7l-0.3-2.3L70.2,28.5z"/>
		</g>
		<g>
			<path fill="#818181" d="M72.8,26.7v3.2h-0.6v-4.5H73l0.7,2.7v-2.7h0.6v4.5h-0.7L72.8,26.7z"/>
		</g>
		<g>
			<path fill="#818181" d="M69.4,32.6v0.6c0,0.7-0.3,1.1-1,1.1H68V36h-0.7v-4.5h1C69,31.5,69.4,31.9,69.4,32.6z M68,32.1v1.5h0.3
				c0.2,0,0.3-0.1,0.3-0.4v-0.7c0-0.3-0.1-0.4-0.3-0.4H68z"/>
		</g>
		<g>
			<path fill="#818181" d="M70.4,36h-0.7v-4.5h0.7v1.9h0.8v-1.9h0.7V36h-0.7v-1.9h-0.8V36z"/>
		</g>
		<g>
			<path fill="#818181" d="M73.1,31.5v3.4c0,0.3,0.1,0.4,0.4,0.4s0.4-0.1,0.4-0.4v-3.4h0.7v3.4c0,0.7-0.4,1.1-1,1.1
				c-0.7,0-1-0.4-1-1.1v-3.4H73.1z"/>
		</g>
	</g>
	<g>
		<g>
			<path fill="#818181" d="M163.1,26.4h2.2V27h-0.7v3.8h-0.7V27h-0.7V26.4z"/>
		</g>
		<g>
			<path fill="#818181" d="M166.3,30.9h-0.7v-4.5h0.7v1.9h0.8v-1.9h0.7v4.5h-0.7v-1.9h-0.8V30.9z"/>
		</g>
		<g>
			<path fill="#818181" d="M169,26.4v3.4c0,0.3,0.1,0.4,0.4,0.4c0.2,0,0.4-0.1,0.4-0.4v-3.4h0.7v3.4c0,0.7-0.4,1.1-1,1.1
				c-0.7,0-1-0.4-1-1.1v-3.4H169z"/>
		</g>
		<g>
			<path fill="#818181" d="M163.3,32.8h1.1c0.7,0,1,0.4,1,1.1v2.3c0,0.7-0.3,1.1-1,1.1h-1.1V32.8z M164,33.4v3.2h0.4
				c0.2,0,0.4-0.1,0.4-0.4v-2.3c0-0.3-0.1-0.4-0.4-0.4H164z"/>
		</g>
		<g>
			<path fill="#818181" d="M166.6,32.8v3.4c0,0.3,0.1,0.4,0.4,0.4c0.2,0,0.4-0.1,0.4-0.4v-3.4h0.7v3.4c0,0.7-0.4,1.1-1,1.1
				s-1-0.4-1-1.1v-3.4H166.6z"/>
		</g>
		<g>
			<path fill="#818181" d="M170.5,35.6v0.6c0,0.7-0.4,1.1-1,1.1c-0.7,0-1-0.4-1-1.1v-2.3c0-0.7,0.4-1.1,1-1.1c0.7,0,1,0.4,1,1.1v0.4
				h-0.7v-0.5c0-0.3-0.1-0.4-0.4-0.4c-0.2,0-0.4,0.1-0.4,0.4v2.4c0,0.3,0.1,0.4,0.4,0.4c0.2,0,0.4-0.1,0.4-0.4v-0.6H170.5z"/>
		</g>
	</g>
</g>
<g>
</g>
<g>
</g>
<g>
</g>
<g>
</g>
<g>
</g>
<g>
</g>
</svg>
