<?xml version="1.0" encoding="utf-8"?>
<!-- Generator: Adobe Illustrator 16.0.0, SVG Export Plug-In . SVG Version: 6.00 Build 0)  -->
<!DOCTYPE svg PUBLIC "-//W3C//DTD SVG 1.1//EN" "http://www.w3.org/Graphics/SVG/1.1/DTD/svg11.dtd">
<svg version="1.1" xmlns="http://www.w3.org/2000/svg" xmlns:xlink="http://www.w3.org/1999/xlink" x="0px" y="0px" width="325px"
	 height="120px" viewBox="0 0 325 120" enable-background="new 0 0 325 120" xml:space="preserve">
<g id="_x31_0_x3000_特集一覧_x3000_category">
</g>
<g id="_x31_1_x3000_特集個別_x3000_">
</g>
<g id="_x31_2_x3000_サポート_x3000_suport">
</g>
<g id="_x31_3_x3000_住居エリア情報_area">
</g>
<g id="_x31_4_x3000_物件タイプ情報_x3000_style">
	<polyline fill="none" stroke="#B3B3B3" stroke-width="2" stroke-miterlimit="10" points="3,115.5 22,115.5 22,63.5 28,63.5 
		28,115.5 88,115.5 88,101.502 98.996,89.502 109,101.502 109,115.5 122,115.5 122,29.502 158.996,3.502 196,29.502 196,59.502 
		230,72.502 230,115.5 295,115.5 295,63.5 301,63.5 301,115.5 319,115.5 	"/>
	<line stroke="#B3B3B3" stroke-width="2" stroke-miterlimit="10" x1="123" y1="59.5" x2="196" y2="59.5"/>
	<polyline fill="none" stroke="#B3B3B3" stroke-width="2" stroke-miterlimit="10" points="131,88.5 131,95.5 138,95.5 138,103.025 
		145,102.969 145,110.553 153,110.578 153,117.5 	"/>
	<polyline fill="none" stroke="#B3B3B3" stroke-width="2" stroke-miterlimit="10" points="153,60.5 153,67.5 145,67.5 145,74.638 
		138,74.582 138,82.166 131,82.191 131,89.5 	"/>
</g>
<g id="_x31_5_x3000_内覧_x30FB_入居フロー_x3000_step">
</g>
<g id="_x31_6_x3000_よくある質問_x3000_help">
</g>
<g id="_x31_7_x3000_便利なリンク集_x3000_link">
</g>
<g id="_x31_8_x3000_不動産オーナー様へ_x3000_owner">
</g>
<g id="mouse-over" display="none">
</g>
</svg>
