<?xml version="1.0" encoding="utf-8"?>
<!-- Generator: Adobe Illustrator 16.0.0, SVG Export Plug-In . SVG Version: 6.00 Build 0)  -->
<!DOCTYPE svg PUBLIC "-//W3C//DTD SVG 1.1//EN" "http://www.w3.org/Graphics/SVG/1.1/DTD/svg11.dtd">
<svg version="1.1" xmlns="http://www.w3.org/2000/svg" xmlns:xlink="http://www.w3.org/1999/xlink" x="0px" y="0px"
	 width="227.894px" height="206.5px" viewBox="0 0 227.894 206.5" enable-background="new 0 0 227.894 206.5" xml:space="preserve">
<g id="_x31_0_x3000_特集一覧_x3000_category">
</g>
<g id="_x31_1_x3000_特集個別_x3000_">
</g>
<g id="_x31_2_x3000_サポート_x3000_suport">
</g>
<g id="_x31_3_x3000_住居エリア情報_area">
</g>
<g id="_x31_4_x3000_物件タイプ情報_x3000_style">
	<g>
		<path d="M96.441,35.967l1.289,1.115c-1.195,1.006-2.74,2.056-4.637,3.149c1.547,2.464,3.464,4.141,5.752,5.03
			c-0.378,0.336-0.758,0.817-1.137,1.443c-3.966-1.793-6.707-5.62-8.223-11.481h-0.044c-0.567,0.481-1.335,0.999-2.296,1.553
			c1.021,0.875,1.832,1.888,2.439,3.04c0.604,1.152,0.961,2.242,1.07,3.27s0.047,1.968-0.186,2.821
			c-0.234,0.853-0.627,1.468-1.181,1.848c-0.627,0.496-1.423,0.744-2.384,0.744c-0.496,0.015-1.146,0-1.946-0.043
			c-0.073-0.671-0.233-1.203-0.481-1.597c0.685,0.073,1.385,0.109,2.1,0.109c0.699,0,1.209-0.139,1.529-0.416
			c0.424-0.321,0.703-0.853,0.844-1.597c0.137-0.744,0.105-1.596-0.1-2.559c-1.21,0.992-2.66,1.946-4.352,2.865
			s-3.316,1.641-4.877,2.165c-0.306-0.627-0.598-1.093-0.875-1.399c1.705-0.466,3.467-1.173,5.282-2.122
			c1.814-0.947,3.263-1.932,4.341-2.952c-0.146-0.35-0.408-0.831-0.787-1.443c-0.918,0.671-2.049,1.356-3.39,2.056
			c-1.343,0.7-2.597,1.261-3.762,1.684c-0.263-0.51-0.562-0.94-0.897-1.291c1.226-0.35,2.533-0.853,3.926-1.509
			c1.393-0.656,2.512-1.305,3.357-1.946c-0.35-0.379-0.691-0.714-1.027-1.006c-1.531,0.758-3.361,1.465-5.49,2.122
			c-0.291-0.51-0.598-0.94-0.918-1.291c3.207-0.802,5.795-1.837,7.764-3.105h-4.768V33.78H94.91v1.443h-3.959
			c0.336,1.269,0.817,2.515,1.443,3.74C94,37.943,95.348,36.944,96.441,35.967z M81.154,31.55v2.865h-1.641v-4.417h8.332v-1.968
			h1.663v1.968h8.507v4.417H96.31V31.55H81.154z"/>
		<path d="M104.357,35.923v-3.871c-0.743,0.568-1.604,1.137-2.58,1.706c-0.35-0.452-0.751-0.845-1.203-1.181
			c1.138-0.554,2.238-1.239,3.303-2.056c1.063-0.816,1.932-1.655,2.602-2.515l1.531,0.568c-0.524,0.686-1.217,1.407-2.077,2.166
			v5.183H104.357z M107.77,45.371l1.509,0.656c-1.778,0.977-4.075,1.808-6.889,2.493c-0.481-0.554-0.89-0.962-1.224-1.225
			C103.979,46.785,106.181,46.144,107.77,45.371z M104.03,45.131v-8.376h14.478v8.376H104.03z M105.648,37.826v1.4h11.197v-1.4
			H105.648z M105.648,40.254v1.377h11.197v-1.377H105.648z M105.648,42.681v1.378h11.197v-1.378H105.648z M113.084,31.571v-1.509
			c-1.313,0.102-2.791,0.175-4.439,0.219c-0.044-0.35-0.153-0.707-0.328-1.072c4.693-0.204,8.084-0.517,10.169-0.94l0.983,1.05
			c-1.531,0.277-3.126,0.489-4.788,0.634v1.618h6.298v1.225h-6.298v1.618h5.292v1.225h-11.81v-1.225h4.921v-1.618h-5.861v-1.225
			H113.084z M112.887,46.224l1.4-0.809c2.492,0.671,4.744,1.407,6.757,2.209l-1.902,0.831
			C117.684,47.784,115.598,47.041,112.887,46.224z"/>
	</g>
	<g>
		<circle fill="#E6E6E6" cx="49.502" cy="92.502" r="22"/>
		<g>
			<path d="M42.494,92.646v-2.971h-4.076v1.815h-0.875v-2.514h4.951v-0.8h-4.215v-0.749h9.445v0.749h-4.291v0.8h5.04v2.514h-0.901
				v-1.815h-4.139v2.971H42.494z M44.348,97.863h2.895c0.338,0,0.561-0.093,0.666-0.279s0.176-0.605,0.21-1.257
				c0.253,0.161,0.536,0.271,0.851,0.33c-0.067,0.795-0.209,1.322-0.426,1.581c-0.215,0.258-0.627,0.387-1.238,0.387H44.31
				c-0.736,0-1.229-0.087-1.479-0.26s-0.375-0.519-0.375-1.035v-0.419h-2.881v0.686h-0.928v-4.52h8.761v3.834h-4.024v0.419
				c0,0.22,0.06,0.364,0.178,0.432C43.678,97.83,43.941,97.863,44.348,97.863z M38.838,92.303v-0.609h2.996v0.609H38.838z
				 M41.834,90.373v0.597h-2.742v-0.597H41.834z M42.455,93.788h-2.881v0.889h2.881V93.788z M39.574,96.213h2.881v-0.876h-2.881
				V96.213z M46.468,94.677v-0.889h-3.085v0.889H46.468z M43.383,96.213h3.085v-0.876h-3.085V96.213z M44.119,90.373h2.779v0.597
				h-2.779V90.373z M44.119,92.303v-0.609h3.098v0.609H44.119z"/>
			<path d="M61.5,89.065h-8.469c-0.594,1.185-1.295,2.158-2.107,2.92c-0.221-0.195-0.517-0.402-0.889-0.622
				c0.625-0.516,1.181-1.17,1.663-1.961s0.859-1.644,1.13-2.558l1.003,0.229c-0.085,0.271-0.229,0.66-0.433,1.168H61.5V89.065z
				 M56.307,92.988l0.902,0.317c-0.449,0.787-1,1.541-1.651,2.26c0.948,0.677,1.722,1.337,2.323,1.98l-0.762,0.724
				c-0.543-0.618-1.295-1.287-2.26-2.006c-1.107,1.049-2.361,1.909-3.758,2.577c-0.194-0.262-0.432-0.508-0.712-0.736
				c1.38-0.584,2.616-1.379,3.708-2.387c-0.779-0.559-1.6-1.083-2.463-1.574l0.686-0.635c0.879,0.5,1.71,1.007,2.488,1.523
				C55.393,94.415,55.892,93.733,56.307,92.988z M51.317,91.935h8.403c0.01,1.913,0.094,3.369,0.254,4.367
				C60.137,97.3,60.441,97.8,60.89,97.8c0.212,0,0.329-0.609,0.354-1.828c0.203,0.22,0.429,0.406,0.674,0.559
				c-0.041,0.838-0.14,1.416-0.291,1.733c-0.153,0.317-0.42,0.48-0.801,0.489c-0.34,0-0.629-0.1-0.869-0.298
				c-0.242-0.199-0.436-0.457-0.578-0.774c-0.145-0.317-0.26-0.745-0.35-1.282c-0.088-0.538-0.152-1.079-0.189-1.625
				c-0.039-0.546-0.066-1.212-0.083-2h-7.439V91.935z M60.268,90.894h-7.465v-0.8h7.465V90.894z"/>
		</g>
	</g>
	<g>
		<circle fill="#E6E6E6" cx="100.502" cy="92.502" r="22"/>
		<g>
			<path d="M94.197,90.068h3.098c0.32,0,0.6-0.021,0.838-0.063l0.724,0.355c-0.042,0.237-0.063,0.453-0.063,0.647
				c-0.137,3.334-0.403,5.425-0.801,6.271c-0.244,0.533-0.707,0.8-1.383,0.8c-0.499,0-1.197-0.034-2.096-0.102l-0.127-1.079
				c0.797,0.102,1.439,0.152,1.931,0.152c0.381,0,0.634-0.14,0.762-0.419c0.22-0.449,0.385-1.257,0.495-2.425
				s0.164-2.222,0.164-3.161h-3.643c-0.229,1.794-0.664,3.246-1.309,4.354c-0.643,1.109-1.535,2.057-2.678,2.844L89.17,97.47
				c0.516-0.271,0.961-0.588,1.332-0.952c1.388-1.252,2.244-3.077,2.564-5.472h-2.183c-0.686,0-1.181,0.017-1.485,0.051v-1.092
				c0.508,0.042,0.999,0.063,1.473,0.063h2.297c0.035-0.559,0.051-0.999,0.051-1.32c0-0.313-0.033-0.673-0.101-1.079h1.231
				c-0.035,0.254-0.06,0.605-0.076,1.054C94.273,88.782,94.248,89.23,94.197,90.068z M97.104,87.859l0.687-0.305
				c0.321,0.449,0.677,1.041,1.066,1.777l-0.698,0.317C97.828,88.981,97.477,88.384,97.104,87.859z M98.526,87.339l0.698-0.305
				c0.482,0.686,0.842,1.274,1.078,1.765l-0.697,0.317C99.209,88.346,98.848,87.753,98.526,87.339z"/>
			<path d="M110.738,88.545l0.66,0.508c-0.109,0.152-0.215,0.343-0.316,0.571c-0.561,1.414-1.286,2.683-2.184,3.809
				c0.635,0.542,1.303,1.176,2.006,1.904c0.702,0.728,1.299,1.384,1.79,1.968l-0.915,0.8c-1.066-1.396-2.26-2.683-3.58-3.859
				c-1.607,1.727-3.297,2.992-5.064,3.796l-0.838-0.876c0.999-0.389,1.964-0.929,2.895-1.619s1.752-1.437,2.463-2.241
				c0.447-0.508,0.88-1.106,1.295-1.796c0.414-0.69,0.701-1.297,0.863-1.822h-5.065c-0.415,0-0.854,0.021-1.321,0.063V88.57
				c0.416,0.059,0.855,0.089,1.321,0.089h5.015C110.168,88.659,110.494,88.621,110.738,88.545z"/>
		</g>
	</g>
	<g>
		<circle fill="#E6E6E6" cx="152.502" cy="92.502" r="22"/>
		<g>
			<path d="M144.199,90.145l0.635,0.241c-0.314,1.65-0.832,3.081-1.555,4.291c-0.725,1.21-1.581,2.15-2.57,2.818
				c-0.077-0.11-0.195-0.248-0.357-0.413c-0.16-0.165-0.295-0.286-0.405-0.362c0.863-0.542,1.618-1.291,2.267-2.247
				c0.646-0.957,1.123-2.065,1.428-3.326h-3.389v-0.965h3.744L144.199,90.145z M150.699,88.977l0.863,0.622
				c-1.244,1.363-2.426,2.484-3.543,3.364c1.092,1.913,2.447,3.216,4.064,3.91c-0.314,0.262-0.557,0.554-0.725,0.876
				c-2.091-1.024-3.703-3.009-4.838-5.954v5.573c0,0.338-0.046,0.597-0.139,0.774s-0.25,0.313-0.471,0.406
				c-0.354,0.135-1.15,0.203-2.386,0.203c-0.034-0.288-0.161-0.639-0.381-1.054c0.415,0.017,1.088,0.025,2.019,0.025
				c0.237-0.008,0.355-0.127,0.355-0.355V86.907h1.002v2.349c0.297,1.083,0.66,2.065,1.093,2.945
				C148.918,91.059,149.946,89.984,150.699,88.977z"/>
			<path d="M155.93,91.96v4.151c0.584,0.906,1.663,1.392,3.238,1.46c1.869,0.068,3.811,0.034,5.826-0.102
				c-0.178,0.406-0.283,0.736-0.317,0.99c-2.065,0.076-3.901,0.084-5.509,0.025c-1.651-0.059-2.875-0.567-3.67-1.523
				c-0.635,0.559-1.291,1.113-1.968,1.663l-0.521-0.978c0.668-0.44,1.329-0.935,1.98-1.485v-3.288h-1.815V91.96H155.93z
				 M156.297,89.192l-0.762,0.635c-0.193-0.305-0.5-0.649-0.92-1.035c-0.418-0.385-0.848-0.726-1.288-1.022l0.71-0.571
				c0.432,0.279,0.861,0.605,1.289,0.978S156.078,88.888,156.297,89.192z M157.656,90.348h2.171c0.11-0.576,0.175-0.918,0.19-1.028
				h-3.441v-0.8h2.197c-0.17-0.406-0.445-0.846-0.826-1.32l0.737-0.292c0.474,0.491,0.796,0.982,0.965,1.473l-0.331,0.14h2.107
				c0.373-0.55,0.678-1.1,0.915-1.65l0.964,0.241c-0.346,0.592-0.643,1.062-0.887,1.409h2.36v0.8h-3.708
				c-0.008,0.034-0.131,0.376-0.367,1.028h3.033v6.132h-6.08V90.348z M162.772,92.176v-1.079h-4.202v1.079H162.772z M162.772,93.94
				v-1.066h-4.202v1.066H162.772z M162.772,95.73v-1.079h-4.202v1.079H162.772z"/>
		</g>
	</g>
	<g>
		<circle fill="#E6E6E6" cx="101.502" cy="141.502" r="22"/>
		<g>
			<path d="M88.862,135.238v4.619c0,0.638,0.024,1.07,0.075,1.3h-1.364c0.042-0.33,0.063-0.763,0.063-1.3v-3.91
				c-1.316,0.695-2.646,1.232-3.984,1.611l-0.623-1.063c0.896-0.208,1.783-0.494,2.664-0.859s1.647-0.748,2.299-1.149
				c0.565-0.358,1.109-0.759,1.633-1.203c0.521-0.444,0.934-0.863,1.234-1.257l0.936,0.849
				C90.929,133.742,89.951,134.529,88.862,135.238z"/>
			<path d="M94.272,141.05l-0.741-1.139c1.611-0.243,3.055-0.755,4.328-1.536c0.846-0.516,1.605-1.149,2.277-1.901
				c0.674-0.752,1.187-1.5,1.535-2.245l0.668,1.192c-0.422,0.745-0.965,1.47-1.628,2.175c-0.663,0.706-1.405,1.309-2.229,1.81
				C97.123,140.237,95.719,140.785,94.272,141.05z M93.863,133.412l0.807-0.859c0.4,0.265,0.896,0.636,1.482,1.112
				c0.586,0.477,1.031,0.872,1.332,1.187l-0.87,0.892c-0.308-0.315-0.747-0.716-1.317-1.203
				C94.729,134.053,94.252,133.677,93.863,133.412z"/>
			<path d="M110.832,133.154l0.892,0.559c-0.13,0.236-0.229,0.462-0.301,0.677c-0.329,1.089-0.853,2.142-1.569,3.158
				c0.387,0.251,0.738,0.487,1.054,0.709l-0.763,1.01c-0.279-0.222-0.631-0.479-1.053-0.773c-1.103,1.246-2.499,2.195-4.189,2.847
				l-1-0.881c1.67-0.501,3.08-1.368,4.232-2.6c-0.852-0.551-1.604-1.01-2.255-1.375l0.73-0.827c0.644,0.337,1.399,0.767,2.267,1.289
				c0.658-0.952,1.092-1.844,1.3-2.675h-3.503c-0.859,1.182-1.822,2.134-2.889,2.857l-0.945-0.709
				c0.852-0.53,1.57-1.131,2.154-1.805c0.582-0.673,1.04-1.325,1.369-1.955c0.186-0.286,0.322-0.616,0.408-0.988l1.256,0.397
				c-0.271,0.444-0.457,0.767-0.559,0.967l-0.128,0.247h2.663C110.32,133.283,110.596,133.24,110.832,133.154z"/>
			<path d="M112.869,137.193v-1.354c0.426,0.043,0.914,0.064,1.47,0.064h5.374c0.258,0,0.63-0.021,1.113-0.064v1.354
				c-0.594-0.028-0.961-0.043-1.103-0.043h-5.385C113.797,137.15,113.308,137.165,112.869,137.193z"/>
			<path d="M92.703,151.107v2.879c0,0.294,0.018,0.727,0.054,1.3H91.51c0.051-0.373,0.076-0.806,0.076-1.3
				c0-0.974,0.004-1.697,0.011-2.17c-0.968,0.537-2.159,1.021-3.577,1.45l-0.666-1.021c1.633-0.372,3.122-0.995,4.469-1.869
				c0.436-0.279,0.844-0.591,1.219-0.935c0.377-0.344,0.66-0.648,0.854-0.913h-4.307c-0.358,0-0.823,0.018-1.396,0.054v-1.149
				c0.371,0.043,0.826,0.064,1.364,0.064h2.051v-0.645c0-0.401-0.021-0.73-0.063-0.988H92.8c-0.05,0.401-0.075,0.73-0.075,0.988
				v0.645h1.611c0.344,0,0.605-0.028,0.783-0.086l0.721,0.698c-0.394,0.408-0.63,0.663-0.709,0.763
				C94.385,149.732,93.576,150.478,92.703,151.107z M93.563,151.677l0.72-0.816c1.054,0.566,1.937,1.092,2.653,1.579l-0.73,0.956
				C95.352,152.744,94.471,152.171,93.563,151.677z"/>
			<path d="M98.328,149.271l1.031-0.376c0.301,0.587,0.637,1.422,1.01,2.503l-1.042,0.387c-0.101-0.329-0.263-0.78-0.489-1.354
				C98.613,149.858,98.442,149.471,98.328,149.271z M104.73,148.647l1.213,0.387c-0.129,0.365-0.199,0.584-0.214,0.655
				c-0.345,1.347-0.854,2.449-1.536,3.309c-0.932,1.203-2.138,2.091-3.62,2.664l-0.913-0.935c0.658-0.186,1.316-0.483,1.971-0.892
				c0.656-0.408,1.203-0.884,1.639-1.429c0.38-0.473,0.698-1.043,0.956-1.713C104.482,150.024,104.65,149.342,104.73,148.647z
				 M100.895,148.669l1.033-0.344c0.414,0.988,0.707,1.783,0.879,2.385l-1.041,0.376c-0.064-0.272-0.195-0.68-0.393-1.225
				C101.177,149.317,101.018,148.92,100.895,148.669z"/>
			<path d="M115.834,150.86l-0.506,1.192c-1.168-0.623-2.553-1.196-4.158-1.719v3.405c0,0.458,0.033,0.928,0.098,1.407h-1.354
				c0.057-0.415,0.086-0.884,0.086-1.407v-6.359c0-0.444-0.032-0.855-0.098-1.235h1.354c-0.058,0.652-0.087,1.063-0.087,1.235v1.719
				c0.753,0.229,1.584,0.516,2.498,0.859C114.58,150.302,115.303,150.603,115.834,150.86z"/>
		</g>
	</g>
	<g>
		<circle fill="#E6E6E6" cx="152.502" cy="141.502" r="22"/>
		<g>
			<path d="M137.674,133.992h4.996c0.451,0,0.809-0.021,1.074-0.064v1.192c-0.373-0.021-0.73-0.032-1.074-0.032h-1.719
				c-0.093,1.482-0.42,2.722-0.978,3.717c-0.558,0.996-1.339,1.812-2.342,2.449l-1.171-0.795c0.329-0.136,0.648-0.318,0.957-0.548
				c1.432-1.096,2.211-2.703,2.341-4.823h-2.6c-0.236,0.437-0.521,0.87-0.849,1.3c-0.329,0.43-0.648,0.777-0.957,1.042l-1.096-0.666
				c0.667-0.494,1.315-1.268,1.945-2.32c0.236-0.422,0.443-0.931,0.623-1.525c0.102-0.344,0.16-0.669,0.183-0.978l1.343,0.258
				c-0.059,0.136-0.161,0.412-0.312,0.827C137.961,133.24,137.84,133.563,137.674,133.992z"/>
			<path d="M144.514,137.193v-1.354c0.426,0.043,0.915,0.064,1.469,0.064h5.376c0.257,0,0.628-0.021,1.112-0.064v1.354
				c-0.594-0.028-0.961-0.043-1.104-0.043h-5.385C145.441,137.15,144.951,137.165,144.514,137.193z"/>
			<path d="M161.652,133.004l-0.419,0.172l0.603,0.397c-0.043,0.086-0.109,0.301-0.194,0.645c-0.388,1.755-0.938,3.101-1.655,4.039
				c-1.066,1.411-2.52,2.403-4.359,2.976l-0.946-1.031c1.833-0.444,3.266-1.317,4.297-2.621c0.358-0.451,0.657-0.99,0.897-1.617
				c0.239-0.626,0.398-1.212,0.477-1.756h-5.402c-0.23,0-0.623,0.011-1.182,0.032v-1.225c0.365,0.05,0.759,0.075,1.182,0.075h5.338
				c0.209,0,0.369-0.007,0.484-0.021c-0.193-0.379-0.434-0.78-0.72-1.203l0.73-0.312
				C161.068,131.955,161.358,132.438,161.652,133.004z M161.513,131.575l0.741-0.312c0.35,0.509,0.648,0.992,0.892,1.45
				l-0.741,0.333C162.002,132.316,161.706,131.826,161.513,131.575z"/>
			<path d="M164.012,141.114l-1.053-0.709c0.895-0.63,1.525-1.521,1.891-2.675c0.215-0.651,0.322-2.112,0.322-4.383
				c0-0.365-0.029-0.662-0.086-0.892h1.277c-0.035,0.287-0.053,0.58-0.053,0.881c0,2.292-0.115,3.856-0.344,4.694
				C165.629,139.263,164.979,140.291,164.012,141.114z M168.75,141.114l-0.732-0.612c0.059-0.243,0.086-0.473,0.086-0.688v-6.51
				c0-0.136-0.004-0.272-0.016-0.408c-0.01-0.136-0.022-0.245-0.037-0.328c-0.016-0.082-0.021-0.13-0.021-0.145h1.278
				c-0.036,0.215-0.054,0.509-0.054,0.881v6.08c0.516-0.236,1.051-0.578,1.605-1.026c0.557-0.447,1.02-0.947,1.393-1.499
				l0.654,0.945c-0.445,0.595-1.01,1.164-1.697,1.708c-0.688,0.544-1.368,0.985-2.041,1.321
				C169.104,140.863,168.964,140.957,168.75,141.114z"/>
			<path d="M150.152,154.749v-7.025h-2.374v-1.074h6.036v1.074h-2.385v7.025H150.152z"/>
			<path d="M155.552,154.749l-2.535-8.1h1.353l1.204,4.189c0.086,0.294,0.204,0.729,0.354,1.305c0.15,0.577,0.275,1.026,0.375,1.348
				h0.055c0.102-0.336,0.229-0.795,0.387-1.375c0.157-0.58,0.275-1.006,0.354-1.278l1.193-4.189h1.3l-2.524,8.1H155.552z"/>
		</g>
	</g>
	<path fill="none" stroke="#E6E6E6" stroke-miterlimit="10" d="M202.503,103.502c0,55.228-44.774,100-100.001,100
		c-55.232,0-100-44.772-100-100c0-55.228,44.768-100,100-100C157.729,3.502,202.503,48.275,202.503,103.502z"/>
	<g>
		<path fill="#F7931E" d="M150.698,57.472l-3.137-12.497l1.654-0.415l3.136,12.497L150.698,57.472z"/>
		<path fill="#F7931E" d="M155.252,56.329l-3.138-12.497l1.696-0.426l9.025,8.164l-2.461-9.812l1.585-0.398l3.137,12.497
			l-1.696,0.426l-9.029-8.173l2.465,9.82L155.252,56.329z"/>
		<path fill="#F7931E" d="M175.691,46.54l1.76,0.003c-0.005,1.445-0.371,2.637-1.092,3.577s-1.732,1.572-3.034,1.899
			c-1.347,0.338-2.511,0.339-3.491,0.002c-0.984-0.337-1.824-0.969-2.525-1.899c-0.702-0.929-1.202-1.99-1.502-3.184
			c-0.326-1.302-0.363-2.499-0.108-3.593c0.253-1.093,0.776-2.007,1.567-2.741s1.738-1.238,2.841-1.515
			c1.249-0.314,2.382-0.259,3.396,0.164c1.011,0.422,1.829,1.168,2.453,2.237l-1.531,0.793c-0.518-0.837-1.104-1.394-1.76-1.67
			c-0.655-0.276-1.4-0.31-2.236-0.101c-0.96,0.241-1.707,0.673-2.234,1.296c-0.53,0.622-0.827,1.354-0.895,2.195
			c-0.066,0.841,0.002,1.674,0.21,2.498c0.267,1.063,0.655,1.952,1.163,2.667c0.509,0.716,1.141,1.187,1.891,1.415
			c0.752,0.229,1.51,0.246,2.271,0.055c0.926-0.232,1.644-0.696,2.152-1.392C175.493,48.55,175.729,47.648,175.691,46.54z"/>
		<path fill="#F7931E" d="M180.416,50.012l-3.138-12.497l1.654-0.415l2.767,11.022l6.154-1.545l0.369,1.475L180.416,50.012z"/>
		<path fill="#F7931E" d="M195.257,33.002l1.653-0.415l1.813,7.22c0.315,1.256,0.424,2.289,0.325,3.099s-0.461,1.54-1.085,2.188
			c-0.627,0.65-1.543,1.126-2.746,1.428c-1.172,0.294-2.18,0.333-3.023,0.116c-0.848-0.217-1.525-0.667-2.036-1.352
			c-0.509-0.684-0.931-1.688-1.263-3.013l-1.813-7.22l1.652-0.416l1.811,7.212c0.273,1.086,0.574,1.86,0.906,2.324
			c0.33,0.463,0.775,0.773,1.336,0.928c0.563,0.155,1.199,0.144,1.91-0.035c1.217-0.305,2.014-0.799,2.393-1.479
			c0.379-0.681,0.371-1.806-0.023-3.375L195.257,33.002z"/>
		<path fill="#F7931E" d="M202.801,44.393l-3.137-12.497l4.305-1.081c0.971-0.244,1.729-0.371,2.27-0.379
			c0.758-0.015,1.443,0.13,2.058,0.435c0.798,0.391,1.47,0.979,2.015,1.764s0.957,1.733,1.237,2.848
			c0.237,0.949,0.337,1.817,0.3,2.606s-0.17,1.467-0.396,2.034c-0.225,0.567-0.51,1.041-0.852,1.419
			c-0.344,0.38-0.789,0.713-1.335,1.001c-0.548,0.289-1.198,0.528-1.954,0.717L202.801,44.393z M204.084,42.502l2.668-0.669
			c0.824-0.207,1.453-0.446,1.881-0.717c0.433-0.271,0.751-0.581,0.96-0.93c0.294-0.49,0.466-1.094,0.519-1.812
			c0.053-0.717-0.039-1.547-0.275-2.49c-0.328-1.307-0.795-2.258-1.4-2.852c-0.605-0.594-1.244-0.934-1.918-1.019
			c-0.486-0.059-1.221,0.035-2.204,0.281l-2.626,0.659L204.084,42.502z"/>
		<path fill="#F7931E" d="M215.442,41.219l-3.138-12.497l9.037-2.268l0.37,1.475l-7.382,1.853l0.961,3.828l6.912-1.735l0.369,1.466
			l-6.913,1.736l1.067,4.253l7.672-1.926l0.37,1.475L215.442,41.219z"/>
	</g>
	<g>
		<circle fill="#E6E6E6" cx="49.502" cy="141.502" r="22"/>
		<g>
			<path d="M40.856,132.353l0.126,0.889l-1.371,0.457v3.923c0,0.5-0.147,0.817-0.443,0.952c-0.279,0.119-0.816,0.173-1.612,0.165
				c-0.06-0.313-0.157-0.609-0.292-0.889c0.644,0.017,1.054,0.017,1.231,0c0.075,0,0.132-0.015,0.165-0.044
				c0.034-0.03,0.051-0.091,0.051-0.184v-3.631l-1.549,0.508l-0.242-0.939c0.246-0.068,0.842-0.246,1.791-0.533v-2.666h-1.625
				v-0.876h1.625v-2.603h0.9v2.603h1.436v0.876h-1.436v2.399L40.856,132.353z M48.738,131.921v2.349h-0.811v2.628
				c0,0.229-0.025,0.402-0.076,0.521s-0.148,0.211-0.293,0.279c-0.193,0.093-0.676,0.14-1.447,0.14
				c-0.033-0.22-0.117-0.482-0.253-0.787c0.347,0.008,0.702,0.013,1.066,0.013c0.118-0.008,0.177-0.068,0.177-0.178v-2.133h-1.827
				v3.999h-0.851v-3.999h-1.65v3.034H41.91v-3.796h2.514v-1.27h-2.526v1.574h-0.863v-2.374H48.738z M47.863,127.3v3.961h-6.145
				v-0.749h5.256v-0.914h-4.926V128.9h4.926v-0.863h-5.129V127.3H47.863z M47.852,133.991v-1.27h-2.577v1.27H47.852z"/>
			<path d="M53.666,127.389l0.621,0.381c-0.668,1.82-1.1,2.958-1.295,3.415c0.779,0.872,1.168,1.798,1.168,2.78
				c0,0.762-0.168,1.257-0.508,1.485c-0.177,0.127-0.405,0.203-0.685,0.229c-0.288,0.025-0.575,0.034-0.864,0.025
				c-0.016-0.33-0.102-0.614-0.254-0.851c0.356,0.025,0.61,0.03,0.762,0.013c0.162,0,0.301-0.038,0.42-0.114
				c0.168-0.127,0.254-0.419,0.254-0.876c0-0.897-0.385-1.756-1.156-2.577c0.279-0.703,0.623-1.697,1.029-2.983h-1.701v10.423
				h-0.863v-11.312h2.908L53.666,127.389z M55.418,134.613l0.863,0.203c-0.475,1.261-1.104,2.298-1.892,3.11
				c-0.212-0.211-0.444-0.402-0.698-0.571C54.428,136.661,55.002,135.747,55.418,134.613z M57.411,126.907h0.851
				c0.473,0.719,1.057,1.405,1.752,2.057s1.384,1.164,2.07,1.536c-0.213,0.237-0.391,0.503-0.535,0.8
				c-0.676-0.432-1.354-0.969-2.031-1.612c-0.676-0.643-1.227-1.278-1.65-1.904c-0.381,0.626-0.895,1.265-1.541,1.917
				c-0.648,0.652-1.326,1.206-2.039,1.663c-0.135-0.271-0.309-0.521-0.52-0.749c0.736-0.44,1.438-1.003,2.107-1.688
				S57.056,127.567,57.411,126.907z M61.447,133.915h-3.109v3.732c0,0.271-0.029,0.476-0.088,0.616
				c-0.061,0.14-0.17,0.243-0.332,0.311c-0.245,0.11-0.808,0.165-1.688,0.165c-0.042-0.288-0.148-0.588-0.318-0.901
				c0.203,0.008,0.64,0.013,1.309,0.013c0.152,0,0.229-0.068,0.229-0.203v-3.732h-2.883v-0.838h2.883v-1.612h-2.006v-0.825h4.989
				v0.825h-2.095v1.612h3.109V133.915z M59.303,134.93l0.736-0.343c0.82,1.041,1.426,1.989,1.814,2.844l-0.799,0.432
				C60.709,137.033,60.125,136.056,59.303,134.93z"/>
		</g>
		<g>
			<path d="M39.484,148.181l-0.572,0.787c-0.507-0.5-1.264-1.003-2.271-1.511l0.532-0.686
				C38.223,147.279,38.994,147.749,39.484,148.181z M39.09,150.11l0.699,0.559c-0.551,1.371-1.197,2.776-1.943,4.215l-0.85-0.597
				C37.74,153.009,38.439,151.617,39.09,150.11z M40.03,144.816l-0.597,0.736c-0.465-0.508-1.195-1.037-2.184-1.587l0.57-0.647
				C38.785,143.809,39.521,144.309,40.03,144.816z M46.314,154.008h1.104c0.17,0,0.28-0.116,0.332-0.349
				c0.05-0.233,0.084-0.768,0.1-1.606c0.236,0.186,0.518,0.322,0.839,0.406c-0.042,0.965-0.142,1.61-0.299,1.936
				c-0.156,0.326-0.45,0.489-0.882,0.489h-1.309c-0.482,0-0.805-0.089-0.971-0.267c-0.164-0.178-0.247-0.521-0.247-1.028v-4.126
				h-1.677c-0.051,0.762-0.127,1.401-0.229,1.917s-0.266,1.022-0.494,1.517s-0.548,0.916-0.959,1.263
				c-0.41,0.347-0.924,0.647-1.543,0.901c-0.143-0.322-0.342-0.58-0.596-0.774c0.566-0.211,1.035-0.465,1.402-0.762
				s0.652-0.658,0.85-1.085c0.199-0.427,0.342-0.863,0.427-1.308s0.147-1.001,0.19-1.669H40.08v-0.927h3.783v-2.311h-1.891
				c-0.355,0.855-0.689,1.498-1.004,1.93c-0.33-0.237-0.613-0.411-0.85-0.521c0.729-0.965,1.273-2.387,1.638-4.266l0.964,0.19
				c-0.109,0.576-0.258,1.155-0.443,1.739h1.586v-2.12h0.953v2.12h3.199v0.927h-3.199v2.311h3.705v0.927h-2.588v4.113
				c0,0.186,0.023,0.305,0.068,0.355C46.049,153.982,46.152,154.008,46.314,154.008z"/>
			<path d="M52.369,147.965l-0.545,0.8c-0.482-0.432-1.219-0.863-2.209-1.295l0.545-0.711
				C51.15,147.157,51.887,147.559,52.369,147.965z M61.422,153.805v0.8h-6.563v0.432h-0.876v-4.545
				c-0.236,0.305-0.508,0.597-0.813,0.876c-0.211-0.211-0.398-0.376-0.559-0.495c-0.643,1.574-1.248,2.912-1.815,4.012l-0.863-0.597
				c0.712-1.236,1.366-2.603,1.968-4.101l0.686,0.521c0.449-0.423,0.871-0.92,1.27-1.492s0.707-1.119,0.927-1.644h-1.46v-0.711
				h2.603v-0.901h-2.337v-0.698h2.337v-0.863h-2.589v-0.711h3.478v3.885h-1.841l0.748,0.229c-0.135,0.288-0.342,0.673-0.621,1.155
				h2.043c0.289-0.618,0.479-1.062,0.572-1.333l0.953,0.279c-0.128,0.262-0.318,0.614-0.572,1.054h2.983v0.774h-3.174v0.876h2.755
				v0.698h-2.755v0.889h2.755v0.711h-2.755v0.901H61.422z M52.941,144.601l-0.572,0.774c-0.211-0.22-0.518-0.461-0.92-0.724
				c-0.401-0.262-0.797-0.487-1.188-0.673l0.547-0.711C51.781,143.725,52.492,144.169,52.941,144.601z M57.017,150.605v-0.876
				h-2.158v0.876H57.017z M57.017,152.192v-0.889h-2.158v0.889H57.017z M54.858,152.903v0.901h2.158v-0.901H54.858z M60.99,143.687
				v3.885h-3.605v-0.711h2.691v-0.901h-2.399v-0.698h2.399v-0.863h-2.679v-0.711H60.99z"/>
		</g>
	</g>
</g>
<g id="_x31_5_x3000_内覧_x30FB_入居フロー_x3000_step">
</g>
<g id="_x31_6_x3000_よくある質問_x3000_help">
</g>
<g id="_x31_7_x3000_便利なリンク集_x3000_link">
</g>
<g id="_x31_8_x3000_不動産オーナー様へ_x3000_owner">
</g>
<g id="mouse-over" display="none">
</g>
</svg>
