<?xml version="1.0" encoding="utf-8"?>
<!-- Generator: Adobe Illustrator 16.0.0, SVG Export Plug-In . SVG Version: 6.00 Build 0)  -->
<!DOCTYPE svg PUBLIC "-//W3C//DTD SVG 1.1//EN" "http://www.w3.org/Graphics/SVG/1.1/DTD/svg11.dtd">
<svg version="1.1" xmlns="http://www.w3.org/2000/svg" xmlns:xlink="http://www.w3.org/1999/xlink" x="0px" y="0px"
	 width="319.667px" height="108px" viewBox="0 0 319.667 108" enable-background="new 0 0 319.667 108" xml:space="preserve">
<g id="_x31_0_x3000_特集一覧_x3000_category">
</g>
<g id="_x31_1_x3000_特集個別_x3000_">
</g>
<g id="_x31_2_x3000_サポート_x3000_suport">
</g>
<g id="_x31_3_x3000_住居エリア情報_area">
</g>
<g id="_x31_4_x3000_物件タイプ情報_x3000_style">
	<polyline fill="none" stroke="#B3B3B3" stroke-width="2" stroke-miterlimit="10" points="0,105 103,105 103,19.002 125.336,4 
		185.996,4 207,19.002 207,49.002 207,105 316,105 	"/>
	<line stroke="#B3B3B3" stroke-width="2" stroke-miterlimit="10" x1="102" y1="20" x2="206" y2="20"/>
	<g>
		<polyline fill="none" stroke="#B3B3B3" stroke-width="2" stroke-miterlimit="10" points="103.002,49.002 116.016,59.002 
			129.03,49.002 142.039,59.002 155.053,49.002 168.071,59.002 181.085,49.002 194.107,59.002 207.128,49.002 		"/>
	</g>
	<line stroke="#B3B3B3" stroke-width="2" stroke-miterlimit="10" x1="116" y1="59" x2="116" y2="20"/>
	<line stroke="#B3B3B3" stroke-width="2" stroke-miterlimit="10" x1="128" y1="50" x2="128" y2="20"/>
	<line stroke="#B3B3B3" stroke-width="2" stroke-miterlimit="10" x1="155" y1="49" x2="155" y2="19"/>
	<line stroke="#B3B3B3" stroke-width="2" stroke-miterlimit="10" x1="181" y1="51" x2="181" y2="21"/>
	<line stroke="#B3B3B3" stroke-width="2" stroke-miterlimit="10" x1="142" y1="59" x2="142" y2="21"/>
	<line stroke="#B3B3B3" stroke-width="2" stroke-miterlimit="10" x1="168" y1="58" x2="168" y2="20"/>
	<line stroke="#B3B3B3" stroke-width="2" stroke-miterlimit="10" x1="194" y1="58" x2="194" y2="20"/>
	<polyline fill="none" stroke="#B3B3B3" stroke-width="2" stroke-miterlimit="10" points="120,103 120,67 144,67 144,102 	"/>
</g>
<g id="_x31_5_x3000_内覧_x30FB_入居フロー_x3000_step">
</g>
<g id="_x31_6_x3000_よくある質問_x3000_help">
</g>
<g id="_x31_7_x3000_便利なリンク集_x3000_link">
</g>
<g id="_x31_8_x3000_不動産オーナー様へ_x3000_owner">
</g>
<g id="mouse-over" display="none">
</g>
</svg>
